<svg width="1024" height="1024" viewBox="0 0 1024 1024" fill="none" xmlns="http://www.w3.org/2000/svg">
<path d="M474.197 774.14C464.939 774.186 456.626 768.487 453.33 759.836L417.712 667.213C416.253 663.437 413.272 660.456 409.496 658.997L316.851 623.351C305.327 618.928 299.571 606.003 303.994 594.474C306.266 588.557 310.94 583.889 316.851 581.617L409.473 546C413.25 544.541 416.23 541.56 417.69 537.783L453.336 445.138C457.758 433.614 470.684 427.858 482.213 432.281C488.129 434.553 492.798 439.227 495.07 445.138L530.687 537.76C532.146 541.537 535.127 544.518 538.903 545.977L630.988 581.405C639.988 584.741 645.933 593.358 645.853 602.953C645.716 612.039 640.046 620.124 631.549 623.357L538.926 658.974C535.15 660.433 532.169 663.414 530.71 667.191L495.064 759.836C491.768 768.487 483.455 774.186 474.197 774.14Z" fill="black"/>
<path d="M629.108 444.383C623.192 444.383 617.882 440.733 615.759 435.211L595.339 382.131C594.612 380.237 593.119 378.744 591.225 378.017L538.145 357.597C530.775 354.759 527.102 346.479 529.94 339.104C531.393 335.334 534.374 332.353 538.145 330.899L591.225 310.479C593.119 309.752 594.612 308.259 595.339 306.365L615.605 253.662C617.487 248.587 622.013 244.954 627.38 244.21C633.891 243.421 640.105 247.163 642.451 253.285L662.872 306.365C663.598 308.259 665.092 309.752 666.986 310.479L720.066 330.899C727.435 333.737 731.108 342.017 728.271 349.392C726.817 353.162 723.836 356.143 720.066 357.597L666.986 378.017C665.092 378.744 663.598 380.237 662.872 382.131L642.451 435.211C640.328 440.738 635.024 444.383 629.102 444.383H629.108Z" fill="black"/>
<path d="M172.115 441.8C199.021 449.044 218.824 473.614 218.824 502.809C218.824 532.022 198.995 556.605 172.062 563.831L172.062 732.418C172.062 797.035 224.445 849.418 289.062 849.418H734.652C799.453 849.418 851.978 796.874 851.955 732.073L851.896 566.044L796.732 510.918L867.97 439.629L939.259 510.867L884.133 566.032L884.192 732.061C884.222 814.671 817.261 881.655 734.652 881.655L289.879 881.654C207.036 881.654 139.879 814.497 139.879 731.654L139.879 564C112.618 556.996 92.4727 532.255 92.4727 502.809C92.4727 473.363 112.618 448.622 139.878 441.617L139.824 290.945C139.795 208.335 206.755 141.351 289.365 141.351L827.276 141.351L784.034 98.1097C777.739 91.8151 777.739 81.6094 784.034 75.3147C790.329 69.0201 800.534 69.0201 806.829 75.3148L877.587 146.072C883.881 152.367 883.881 162.573 877.587 168.867L806.829 239.625C800.534 245.92 790.329 245.92 784.034 239.625C777.739 233.331 777.739 223.125 784.034 216.83L827.276 173.588L289.365 173.588C224.563 173.589 172.038 226.132 172.061 290.934V290.949H172.062L172.115 441.8Z" fill="black"/>
</svg>
