<svg width="1024" height="1024" viewBox="0 0 1024 1024" fill="none" xmlns="http://www.w3.org/2000/svg">
<path d="M810.088 976.963C802.204 977.002 795.125 972.149 792.318 964.782L761.989 885.91C760.746 882.694 758.208 880.156 754.992 878.914L676.1 848.559C666.287 844.793 661.386 833.787 665.152 823.969C667.086 818.931 671.067 814.955 676.1 813.021L754.972 782.691C758.188 781.449 760.727 778.91 761.969 775.695L792.323 696.803C796.089 686.99 807.096 682.089 816.914 685.855C821.951 687.789 825.927 691.77 827.862 696.803L858.191 775.675C859.434 778.891 861.972 781.429 865.188 782.672L943.602 812.841C951.266 815.681 956.329 823.019 956.26 831.19C956.143 838.927 951.315 845.811 944.08 848.564L865.208 878.894C861.992 880.136 859.453 882.675 858.211 885.891L827.857 964.782C825.05 972.149 817.971 977.002 810.088 976.963Z" fill="black"/>
<path d="M240 185H784C814.376 185 839 209.624 839 240V608.75C839 622.005 849.745 632.75 863 632.75H888C901.255 632.75 912 622.005 912 608.75V240C912 169.308 854.692 112 784 112H240C169.308 112 112 169.308 112 240V784C112 854.692 169.308 912 240 912H558.372C571.626 912 582.372 901.255 582.372 888V863C582.372 849.745 571.626 839 558.372 839H240C209.624 839 185 814.376 185 784V240C185 209.624 209.624 185 240 185Z" fill="black"/>
<path fill-rule="evenodd" clip-rule="evenodd" d="M507.999 608.278L531.058 668.507C534.613 677.794 543.527 683.926 553.471 683.926H572.926C589.855 683.926 601.463 666.871 595.254 651.122L481.599 362.869C476.176 349.114 462.894 340.074 448.109 340.074H425.397C410.612 340.074 397.33 349.114 391.906 362.869L278.252 651.122C272.043 666.871 283.651 683.926 300.579 683.926H320.034C329.978 683.926 338.893 677.794 342.448 668.507L365.507 608.278H507.999ZM485.243 548.841L436.753 422.188L388.263 548.841H485.243Z" fill="black"/>
<path d="M673.384 340.074C660.13 340.074 649.384 350.819 649.384 364.074V659.926C649.384 673.181 660.13 683.926 673.384 683.926H692.681C705.936 683.926 716.681 673.181 716.681 659.926V364.074C716.681 350.819 705.936 340.074 692.681 340.074H673.384Z" fill="black"/>
</svg>
