<svg width="1024" height="1024" viewBox="0 0 1024 1024" fill="none" xmlns="http://www.w3.org/2000/svg">
<path d="M867.467 734.03C892.645 734.032 917.822 734.034 943 734.034V732.754C941.066 730.387 939.13 728.024 937.194 725.662C933.241 720.838 929.29 716.016 925.367 711.166C911.906 694.532 898.453 677.891 885 661.25C865.666 637.336 846.332 613.42 826.972 589.522C794.998 550.054 763.003 510.601 731.008 471.146C712.999 448.94 694.99 426.732 676.984 404.522C673.141 399.783 669.298 395.044 665.455 390.306C639.239 357.982 613.025 325.66 586.956 293.223C583.546 288.976 581.404 289.128 578.285 293.121C573.891 298.756 569.373 304.302 564.858 309.844C563.238 311.833 561.619 313.821 560.006 315.812C546.986 331.893 533.964 347.974 520.941 364.055C507.92 380.134 494.899 396.214 481.881 412.293C474.488 421.42 467.098 430.551 459.708 439.682C437.346 467.314 414.982 494.947 392.524 522.502C389.292 526.482 389.076 529.132 392.524 533.302C406.304 549.966 419.887 566.785 433.471 583.607C438.457 589.781 443.444 595.955 448.44 602.123C456.898 612.564 465.364 622.997 473.83 633.429C499.025 664.478 524.216 695.522 549.18 726.758C553.706 732.424 558.421 734.135 565.292 734.135C666.017 734.014 766.742 734.022 867.467 734.03Z" fill="black"/>
<path d="M103.573 704.823C96.3706 713.98 89.1642 723.141 81 731.499H81.0127V734.034C115.468 734.037 149.923 734.042 184.379 734.047C287.835 734.061 391.295 734.076 494.747 734.047C495.457 734.047 496.243 734.144 497.043 734.242C499.414 734.535 501.912 734.842 502.936 732.691C503.953 730.562 502.141 728.796 500.428 727.127C499.856 726.57 499.295 726.023 498.854 725.478C479.748 701.833 460.596 678.222 441.444 654.611C431.867 642.804 422.289 630.997 412.718 619.186C391.629 593.164 370.556 567.135 349.483 541.106C332.162 519.712 314.842 498.319 297.514 476.93C292.836 471.15 292.722 471.163 287.981 477.019C271.284 497.632 254.593 518.248 237.902 538.863C195.87 590.775 153.841 642.684 111.74 694.547C108.985 697.943 106.279 701.383 103.573 704.823Z" fill="black"/>
</svg>
