<svg width="1024" height="1024" viewBox="0 0 1024 1024" fill="none" xmlns="http://www.w3.org/2000/svg">
<path d="M635.749 116.055C485.384 116.158 363.528 238.077 363.528 388.456C363.528 418.897 368.521 448.171 377.733 475.505L377.171 473.584L126.888 723.867C120.191 730.581 116.051 739.847 116.051 750.08C116.051 750.093 116.051 750.105 116.051 750.118V750.116V870.863C116.061 891.341 132.659 907.939 153.136 907.949H329.384V791.896H462.504V709.976H537.307L584.974 655.738C600.297 658.799 617.913 660.551 635.938 660.551C786.296 660.551 908.185 538.662 908.185 388.304C908.185 237.946 786.296 116.057 635.938 116.057C635.871 116.057 635.804 116.057 635.737 116.057H635.748L635.749 116.055ZM709.972 388.252C668.961 388.252 635.715 355.006 635.715 313.995C635.715 272.984 668.961 239.738 709.972 239.738C750.983 239.738 784.229 272.984 784.229 313.995C784.229 314.001 784.229 314.007 784.229 314.013C784.229 314.018 784.229 314.023 784.229 314.029C784.229 355.021 750.998 388.252 710.006 388.252C709.994 388.252 709.982 388.252 709.97 388.252H709.972Z" fill="black"/>
</svg>
