<svg width="1024" height="1024" viewBox="0 0 1024 1024" fill="none" xmlns="http://www.w3.org/2000/svg">
<path d="M676.801 265.602H739.201V737.602C739.201 800.002 716.801 854.402 672.001 899.202C627.201 944.002 574.401 966.402 512.001 966.402C449.601 966.402 396.801 944.002 352.001 899.202C307.201 854.402 284.801 801.602 284.801 737.602V224.002C284.801 177.602 300.801 139.202 332.801 105.602C364.801 73.6016 403.201 57.6016 449.601 57.6016C496.001 57.6016 534.401 73.6016 566.401 105.602C598.401 137.602 614.401 177.602 614.401 224.002V656.002C614.401 684.802 604.801 708.802 584.001 728.002C563.201 747.202 539.201 758.402 510.401 758.402C481.601 758.402 457.601 748.802 438.401 728.002C419.201 708.802 408.001 683.202 408.001 656.002V265.602H470.401V656.002C470.401 665.602 475.201 675.202 483.201 683.202C491.201 691.202 500.801 696.002 512.001 696.002C523.201 696.002 532.801 691.202 540.801 683.202C548.801 675.202 553.601 665.602 553.601 656.002V224.002C553.601 195.202 544.001 171.202 523.201 150.402C502.401 129.602 478.401 120.002 449.601 120.002C420.801 120.002 396.801 129.602 377.601 150.402C358.401 171.202 347.201 195.202 347.201 224.002V737.602C347.201 784.002 363.201 822.402 395.201 856.002C427.201 888.002 465.601 904.002 512.001 904.002C558.401 904.002 596.801 888.002 628.801 856.002C660.801 824.002 676.801 784.002 676.801 737.602V265.602Z" fill="black"/>
</svg>
