<svg width="1024" height="1024" viewBox="0 0 1024 1024" fill="none" xmlns="http://www.w3.org/2000/svg">
<path d="M320.086 314.507L332.144 322.058L371.474 257.147L356.373 248.132H709.888C714.395 258.725 720.481 269.318 729.496 278.333L675.066 387.081C670.558 387.081 667.515 385.616 663.008 385.616C637.314 385.616 614.663 394.631 598.097 409.845L605.648 399.252L554.26 367.473L512.001 433.961L563.388 465.74L564.853 462.697C563.388 470.248 561.81 479.263 561.81 488.391C561.81 542.821 607.113 588.123 661.543 588.123C715.973 588.123 761.275 542.821 761.275 488.391C761.275 465.74 753.725 443.089 740.089 426.41L797.449 311.577H801.957C856.387 311.577 901.689 266.275 901.689 211.845C901.689 157.415 856.5 112 802.07 112C759.81 112 724.988 137.694 709.888 173.981H314.114C299.013 137.694 264.191 112 221.932 112C167.501 112 122.199 157.302 122.199 211.732C122.199 266.163 167.501 311.465 221.932 311.465H230.947L393.899 612.916H478.869L320.086 314.507Z" fill="black"/>
<path d="M397.711 273.512L358.137 337.813L409.578 369.473L449.153 305.171L397.711 273.512Z" fill="black"/>
<path d="M474.11 320.119L434.536 384.421L485.977 416.08L525.551 351.778L474.11 320.119Z" fill="black"/>
<path d="M714.508 765.05C711.578 761.782 708.085 759.19 703.915 757.387C699.745 755.584 694.9 754.795 689.603 754.795C684.307 754.795 679.348 755.696 675.179 757.387C671.009 759.19 667.403 761.669 664.473 765.05C661.543 768.318 659.402 772.375 657.824 777.22C656.246 781.954 655.457 787.363 655.457 793.335C655.457 799.308 656.246 804.717 657.824 809.563C659.402 814.296 661.543 818.353 664.473 821.734C667.403 825.002 670.896 827.594 675.179 829.284C679.461 830.975 684.194 831.876 689.603 831.876C695.012 831.876 699.745 830.975 703.915 829.284C708.085 827.594 711.691 825.002 714.508 821.734C717.438 818.466 719.579 814.409 721.157 809.563C722.734 804.83 723.523 799.421 723.523 793.335C723.523 787.25 722.734 782.066 721.157 777.22C719.579 772.487 717.438 768.431 714.508 765.05Z" fill="black"/>
<path d="M322.453 767.078C321.551 764.261 320.537 761.106 319.635 757.838C318.847 761.218 317.945 764.374 316.931 767.191C316.029 770.008 315.128 772.487 314.339 774.629L303.295 807.535H336.314L325.157 774.516C324.369 772.375 323.467 769.896 322.453 767.078Z" fill="black"/>
<path d="M850.64 674.558H173.361C145.076 674.558 122.199 697.435 122.199 725.72V860.838C122.199 889.124 145.076 912 173.361 912H850.64C878.925 912 901.802 889.124 901.802 860.838V725.72C901.802 697.435 878.925 674.558 850.64 674.558ZM359.078 853.513C356.711 853.513 354.683 852.95 353.218 851.823C351.753 850.696 350.626 849.231 349.837 847.428L342.737 826.467H296.872L289.772 847.428C289.209 849.005 288.082 850.358 286.504 851.597C284.926 852.837 283.011 853.513 280.644 853.513H258.782L305.436 732.933H334.06L380.715 853.513H359.078ZM497.463 804.379C497.463 811.817 496.224 818.578 493.857 824.776C491.491 830.975 487.997 836.271 483.602 840.779C479.207 845.286 473.685 848.667 467.262 851.146C460.838 853.626 453.626 854.865 445.625 854.865C437.624 854.865 430.299 853.626 423.988 851.146C417.565 848.667 412.156 845.174 407.648 840.779C403.14 836.384 399.759 830.975 397.393 824.776C395.026 818.578 393.787 811.817 393.787 804.379V732.933H421.734V804.267C421.734 808.549 422.298 812.268 423.312 815.648C424.439 819.029 425.904 821.846 428.045 824.213C430.186 826.58 432.553 828.383 435.483 829.622C438.413 830.862 441.794 831.538 445.512 831.538C449.231 831.538 452.612 830.862 455.542 829.622C458.472 828.383 460.951 826.58 463.092 824.326C465.121 821.959 466.698 819.142 467.713 815.874C468.84 812.493 469.29 808.774 469.29 804.492V733.045H497.238V804.492L497.463 804.379ZM614.212 755.133H580.292V853.513H552.344V755.133H518.424V732.933H614.212V755.133ZM747.639 817.564C744.597 825.115 740.427 831.538 734.905 837.173C729.496 842.695 722.847 847.09 715.184 850.245C707.521 853.4 698.956 854.978 689.603 854.978C680.25 854.978 671.685 853.4 663.909 850.245C656.134 847.09 649.597 842.695 644.076 837.173C638.554 831.651 634.384 825.115 631.341 817.564C628.299 810.014 626.834 801.9 626.834 793.223C626.834 784.545 628.299 776.432 631.341 768.881C634.384 761.331 638.554 754.908 644.076 749.386C649.597 743.864 656.134 739.581 663.909 736.426C671.572 733.271 680.137 731.693 689.603 731.693C699.069 731.693 707.521 733.271 715.184 736.426C722.847 739.581 729.496 743.976 734.905 749.498C740.314 755.02 744.597 761.556 747.639 768.994C750.682 776.544 752.147 784.545 752.147 793.223C752.147 801.9 750.682 810.014 747.639 817.564Z" fill="black"/>
</svg>
