<svg width="1024" height="1024" viewBox="0 0 1024 1024" fill="none" xmlns="http://www.w3.org/2000/svg">
<path d="M241.974 416.211L241.974 304.964L348.19 411.18C363.829 385.482 385.345 363.756 410.871 347.865L304.972 241.966H416.219L416.263 152L152.008 152L152.008 416.255L241.974 416.211Z" fill="black"/>
<path d="M241.962 719.019L349.194 611.787C365.082 637.315 386.807 658.833 412.502 674.475L304.96 782.017H416.207L416.251 871.983H151.996L151.996 607.728L241.962 607.773V719.019Z" fill="black"/>
<path d="M387.541 573.44C401.262 600.594 423.608 622.648 450.978 636C469.409 644.992 490.119 650.038 512.007 650.038C533.888 650.038 554.591 644.995 573.018 636.009C600.389 622.661 622.739 600.61 636.464 573.459C646.003 554.589 651.376 533.256 651.376 510.668C651.376 488.786 646.334 468.082 637.347 449.655C623.998 422.283 601.947 399.935 574.795 386.21C555.927 376.672 534.594 371.298 512.007 371.298C489.419 371.298 468.086 376.672 449.217 386.21C422.065 399.936 400.015 422.285 386.666 449.656C377.68 468.083 372.637 488.787 372.637 510.668C372.637 533.249 378.008 554.576 387.541 573.44Z" fill="black"/>
<path d="M719.043 782.034L611.494 674.486C637.191 658.846 658.919 637.33 674.809 611.804L782.041 719.036V607.789L872.007 607.745V872H607.752L607.796 782.034H719.043Z" fill="black"/>
<path d="M782.036 304.966L675.823 411.178C660.183 385.481 638.667 363.755 613.141 347.864L719.038 241.967L607.791 241.967L607.747 152.002H872.002V416.257L782.036 416.212V304.966Z" fill="black"/>
</svg>
