<svg width="1024" height="1024" viewBox="0 0 1024 1024" fill="none" xmlns="http://www.w3.org/2000/svg">
<path d="M291.201 429.201C291.201 430.001 291.201 430.901 291.201 431.801C291.201 441.501 292.601 450.901 295.101 459.801L294.901 459.101C298.301 468.701 302.001 476.701 306.101 484.301L305.601 483.301C307.001 485.501 307.901 488.201 308.001 491.001C307.601 495.301 305.101 499.001 301.701 501.101H301.601L280.401 515.201C277.901 517.001 274.901 518.101 271.601 518.201C267.601 517.901 264.101 516.201 261.501 513.501C257.101 508.801 253.101 503.601 249.601 498.101L249.401 497.701C246.001 492.001 242.801 485.601 239.001 477.801C216.001 506.201 181.201 524.201 142.101 524.201C141.401 524.201 140.601 524.201 139.901 524.201H140.001C138.601 524.301 136.901 524.301 135.201 524.301C111.001 524.301 89.1009 515.001 72.6009 499.801L72.7009 499.901C57.3009 484.301 47.8009 462.901 47.8009 439.201C47.8009 437.901 47.8009 436.501 47.9009 435.201V435.401C47.9009 434.501 47.8009 433.301 47.8009 432.201C47.8009 405.701 59.7009 382.001 78.4009 366.101L78.5009 366.001C99.2009 349.501 125.701 339.601 154.501 339.601C156.801 339.601 159.001 339.701 161.201 339.801H160.901C173.601 339.901 185.901 340.901 198.001 342.701L196.501 342.501C209.001 344.201 221.701 346.901 235.201 349.901V325.301C235.401 323.101 235.601 320.501 235.601 317.901C235.601 300.301 229.501 284.101 219.301 271.301L219.401 271.401C206.501 261.501 190.201 255.501 172.401 255.501C169.601 255.501 166.901 255.601 164.201 255.901H164.501C151.601 255.901 139.101 257.501 127.101 260.501L128.201 260.301C113.901 263.701 101.801 267.701 90.0009 272.401L91.8009 271.801C88.6009 273.301 84.7009 274.801 80.7009 276.001L80.0009 276.201C78.4009 276.701 76.6009 277.101 74.7009 277.201H74.6009C69.9009 277.201 67.5009 273.801 67.5009 266.801V250.301C67.4009 249.701 67.4009 249.101 67.4009 248.401C67.4009 244.801 68.3009 241.401 69.9009 238.401L69.8009 238.501C72.3009 235.501 75.5009 233.101 79.1009 231.501L79.3009 231.401C91.5009 225.201 105.601 220.001 120.401 216.501L121.701 216.201C136.901 212.101 154.401 209.801 172.501 209.801C173.101 209.801 173.701 209.801 174.301 209.801H174.201C177.301 209.501 181.001 209.401 184.701 209.401C214.201 209.401 241.401 219.801 262.601 237.201L262.401 237.001C279.901 256.601 290.701 282.601 290.701 311.101C290.701 314.101 290.601 317.201 290.301 320.201V319.801V428.901L291.201 429.201ZM154.501 480.401C167.001 480.301 178.901 478.101 189.901 474.101L189.101 474.301C201.901 469.801 212.601 462.401 221.001 452.801L221.101 452.701C226.301 446.701 230.301 439.501 232.501 431.501L232.601 431.101C234.701 422.601 236.001 412.801 236.001 402.701C236.001 402.401 236.001 402.101 236.001 401.701V387.601C227.701 385.401 217.201 383.401 206.501 382.001L205.101 381.801C195.601 380.501 184.601 379.801 173.501 379.801C171.701 379.601 169.501 379.601 167.401 379.601C150.901 379.601 135.701 384.701 123.101 393.501L123.401 393.301C113.201 402.001 106.801 414.801 106.801 429.101C106.801 430.101 106.801 431.101 106.901 432.201V432.101C106.701 433.601 106.601 435.301 106.601 437.001C106.601 461.001 126.001 480.401 150.001 480.401C151.601 480.401 153.301 480.301 154.801 480.101L154.501 480.401ZM424.801 516.701C424.201 516.801 423.501 516.801 422.901 516.801C418.801 516.801 415.101 515.501 412.001 513.301H412.101C408.701 509.801 406.201 505.301 405.101 500.401V500.201L325.901 240.001C324.501 236.101 323.401 231.501 322.901 226.801V226.501C322.801 226.201 322.801 225.801 322.801 225.401C322.801 221.301 326.101 218.001 330.201 218.001C330.501 218.001 330.701 218.001 331.001 218.001H364.001C364.701 217.901 365.501 217.901 366.301 217.901C370.401 217.901 374.201 219.201 377.301 221.401H377.201C380.401 225.001 382.801 229.401 383.801 234.401V234.601L440.401 457.401L492.901 234.601C493.601 229.501 495.901 224.901 499.301 221.501C502.701 219.401 506.901 218.101 511.401 218.101C511.901 218.101 512.401 218.101 512.801 218.101H512.701H539.601C540.201 218.001 541.001 218.001 541.701 218.001C545.901 218.001 549.901 219.301 553.101 221.501H553.001C556.401 224.901 558.701 229.501 559.401 234.501V234.601L612.601 460.101L670.801 234.601C671.901 229.501 674.201 225.101 677.501 221.401C680.801 219.301 684.901 218.001 689.301 218.001C689.801 218.001 690.301 218.001 690.801 218.101H690.701H722.001C722.301 218.101 722.601 218.001 723.001 218.001C727.101 218.001 730.501 221.401 730.501 225.501C730.501 225.901 730.501 226.201 730.401 226.501C730.301 228.501 730.101 230.301 729.701 232.101V231.901C729.101 235.101 728.301 237.901 727.201 240.601L727.301 240.301L646.201 500.501C645.101 505.701 642.601 510.101 639.101 513.601C635.801 515.701 631.801 517.001 627.501 517.001C627.101 517.001 626.701 517.001 626.301 517.001H626.401H597.401C596.801 517.101 596.001 517.101 595.301 517.101C591.101 517.101 587.101 515.801 583.901 513.601H584.001C580.601 510.001 578.301 505.401 577.601 500.301V500.201L525.401 283.101L473.601 499.801C472.801 505.001 470.501 509.601 467.201 513.301C464.001 515.501 460.001 516.801 455.701 516.801C455.001 516.801 454.301 516.801 453.601 516.701H453.701H424.801ZM857.301 525.801H857.201C838.901 525.801 821.001 523.601 804.001 519.401L805.501 519.701C790.901 516.701 777.901 512.001 765.901 505.801L766.801 506.201C762.401 504.101 758.901 500.901 756.401 496.901L756.301 496.801C755.001 494.001 754.301 490.801 754.301 487.401V470.201C754.301 463.101 757.001 459.801 762.101 459.801C764.301 459.801 766.301 460.201 768.301 460.801H768.201C770.201 461.501 773.301 462.801 776.601 464.201C787.201 469.001 799.501 473.001 812.401 475.801L813.601 476.001C825.601 478.601 839.501 480.001 853.701 480.001C855.301 480.101 857.201 480.201 859.101 480.201C875.101 480.201 890.201 476.001 903.301 468.801L902.801 469.001C913.401 462.501 920.301 451.101 920.301 438.001C920.301 437.701 920.301 437.301 920.301 437.001C920.301 436.701 920.301 436.401 920.301 436.101C920.301 427.301 916.801 419.301 911.201 413.401C901.801 405.301 890.301 399.301 877.801 396.001L877.201 395.901L828.401 380.801C806.601 375.001 788.201 362.901 774.701 346.501L774.601 346.301C764.201 333.001 757.901 316.001 757.801 297.501C757.801 297.001 757.801 296.501 757.801 295.901C757.801 282.801 761.201 270.401 767.101 259.701L766.901 260.101C773.101 249.101 781.301 239.901 791.001 232.701L791.201 232.501C801.201 224.901 812.801 218.901 825.401 215.201L826.201 215.001C838.401 211.401 852.301 209.301 866.801 209.301C867.401 209.301 868.101 209.301 868.701 209.301H868.601C869.001 209.301 869.401 209.301 869.901 209.301C877.401 209.301 884.801 209.801 892.001 210.701L891.101 210.601C898.801 211.601 905.901 212.901 913.001 214.301C919.601 216.001 926.101 217.701 932.201 219.701C937.601 221.401 942.301 223.501 946.701 226.001L946.301 225.801C950.401 227.901 953.701 230.701 956.401 234.101L956.501 234.201C958.401 237.001 959.601 240.501 959.601 244.301C959.601 244.601 959.601 245.001 959.601 245.301V261.101C959.601 268.201 956.901 271.901 951.801 271.901C947.001 271.301 942.701 269.901 938.801 267.801L939.001 267.901C920.701 259.601 899.301 254.701 876.801 254.701C876.001 254.701 875.101 254.701 874.301 254.701H874.401C872.901 254.601 871.101 254.601 869.301 254.601C854.801 254.601 841.101 258.101 829.101 264.401L829.601 264.201C820.001 270.001 813.701 280.301 813.701 292.201C813.701 292.901 813.701 293.601 813.801 294.301V294.201C813.801 294.401 813.801 294.601 813.801 294.801C813.801 304.001 817.701 312.201 823.901 318.001C834.301 326.301 846.701 332.701 860.201 336.301L860.901 336.501L908.701 351.601C929.701 357.101 947.501 368.401 960.801 383.801L960.901 383.901C970.601 396.501 976.401 412.601 976.401 429.901C976.401 430.301 976.401 430.701 976.401 431.101V431.001C976.401 431.301 976.401 431.601 976.401 432.001C976.401 445.901 973.101 458.901 967.301 470.501L967.501 470.001C961.301 481.801 953.101 491.601 943.101 499.501L942.901 499.601C932.301 507.901 919.901 514.401 906.301 518.301L905.501 518.501C891.301 523.001 875.001 525.701 858.101 525.701C857.801 525.801 857.501 525.801 857.301 525.801ZM920.901 689.401C810.201 771.101 649.301 814.601 510.901 814.601C509.801 814.601 508.401 814.601 507.001 814.601C315.701 814.601 141.201 742.101 9.70086 623.201L10.3009 623.801C-0.0991354 614.401 9.30086 601.601 21.8009 609.001C165.601 692.601 338.301 741.901 522.501 741.901H522.601C660.701 741.101 791.901 712.501 911.101 661.301L904.601 663.801C923.301 655.401 939.101 675.901 920.901 689.401ZM967.101 636.901C953.001 618.701 873.501 628.101 837.501 632.501C826.701 633.801 825.001 624.401 834.801 617.401C898.101 573.001 1002.1 585.801 1014.2 600.601C1026.3 615.401 1010.8 719.901 951.601 769.601C942.501 777.301 933.801 773.301 937.801 763.201C951.201 729.801 981.201 654.701 967.101 636.901Z" fill="black"/>
</svg>
