<svg width="1024" height="1024" viewBox="0 0 1024 1024" fill="none" xmlns="http://www.w3.org/2000/svg">
<path d="M175.788 452.18V595.13C175.788 615.866 189.629 632.455 220.042 650.443C255.626 669.987 297.016 684.486 340.88 691.616L343.11 691.915C360.825 695.175 378.95 697.598 397.467 699.663V519.473C371.969 516.35 346.881 512.51 322.374 507.526C267.133 498.024 217.813 478.658 174.1 451.189L175.788 452.179V452.18ZM661.01 751.222H710.896C710.91 751.222 710.927 751.222 710.944 751.222C727.703 751.222 741.289 764.808 741.289 781.567C741.289 788.344 739.067 794.603 735.312 799.653L735.37 799.572L636.759 934.091C651.197 932.265 665.363 930.114 679.17 927.503C725.311 919.606 766.642 905.152 804.444 884.955L802.238 886.031C832.668 869.425 846.492 851.454 846.492 830.718V687.768C806.322 714.708 758.78 734.123 707.582 742.783L705.453 743.081C691.202 746.136 676.286 748.85 661.011 751.222H661.01ZM288.632 799.572C284.965 794.616 282.763 788.382 282.763 781.635C282.763 764.877 296.348 751.292 313.105 751.29H367.206C351.982 748.935 337.055 746.227 322.423 743.166C267.161 733.654 217.823 714.271 174.1 686.778L175.786 687.767V830.717C175.786 850.071 189.627 868.042 220.04 886.03C255.624 905.574 297.014 920.073 340.878 927.203L343.108 927.502C357.581 930.164 372.309 932.332 387.259 934.192L288.632 799.572ZM626.484 520.293V699.698C645.035 697.633 663.211 695.192 680.551 691.916C726.692 684.019 768.023 669.565 805.825 649.368L803.619 650.444C834.049 633.838 847.873 615.867 847.873 595.131V452.181C807.702 479.116 760.162 498.53 708.966 507.196L706.834 507.494C681.49 512.853 654.388 517.084 626.484 520.293ZM804.455 180.632C768.873 161.062 727.484 146.541 683.62 139.392L681.388 139.092C633.381 130.269 578.138 125.224 521.715 125.224C518.545 125.224 515.38 125.24 512.217 125.272L512.7 125.268C509.764 125.234 506.296 125.215 502.823 125.215C446.697 125.215 391.75 130.264 338.411 139.932L343.996 139.092C297.313 147.284 255.545 161.716 217.132 181.707L219.545 180.564C189.132 197.17 175.291 215.141 175.291 235.877V359.474C175.291 380.21 189.132 396.799 219.545 414.77C255.128 434.331 296.519 448.837 340.387 455.961L342.613 456.259C390.62 465.082 445.863 470.127 502.286 470.127C505.456 470.127 508.621 470.111 511.784 470.079L511.301 470.083C513.737 470.105 516.617 470.118 519.499 470.118C576.696 470.118 632.715 465.076 687.137 455.413L681.387 456.259C727.528 448.366 768.86 433.905 806.656 413.695L804.455 414.77C834.868 398.181 848.709 380.21 848.709 359.474V235.945C848.709 215.209 834.868 198.62 804.455 180.632ZM575.284 802.422V524.867H448.718V802.422H354.237L512.001 1017.75L669.765 802.422H575.284Z" fill="black"/>
</svg>
