<svg width="1024" height="1024" viewBox="0 0 1024 1024" fill="none" xmlns="http://www.w3.org/2000/svg">
<path d="M175.786 430.764V573.783C175.786 594.604 189.61 611.159 219.989 629.079C230.058 635.052 241.322 640.343 253.61 645.463C232.789 605.527 220.842 560.129 220.842 512.001C220.842 493.399 222.719 475.308 226.133 457.729C207.701 450.049 190.975 441.175 175.615 430.935L175.786 430.764Z" fill="black"/>
<path d="M804.522 159.233C774.143 141.313 732.671 127.489 681.471 117.761C628.906 108.033 573.61 103.938 512.853 103.938C452.095 103.938 395.263 108.033 344.234 117.761C293.034 127.489 250.197 142.679 219.818 159.233C189.439 175.788 175.615 193.879 175.615 214.529V338.092C175.615 358.913 189.439 375.468 219.818 393.388C226.645 397.484 234.154 401.239 242.005 404.823C284.842 297.303 389.631 220.844 512.341 220.844C635.05 220.844 739.839 297.132 782.677 404.652C790.527 401.068 798.036 397.313 804.863 393.388C835.242 376.833 849.066 358.743 849.066 338.092V214.529C849.066 193.708 835.242 177.153 804.863 159.233H804.522Z" fill="black"/>
<path d="M802.986 512.001C802.986 559.959 791.039 605.185 770.559 645.121C782.677 640.343 793.77 635.052 803.669 629.249C834.047 612.695 847.871 594.604 847.871 573.953V430.935C833.365 441.345 816.639 450.561 797.866 458.753C801.109 475.991 802.986 493.911 802.986 512.172V512.001Z" fill="black"/>
<path d="M511.999 802.988C432.298 802.988 360.106 770.732 307.37 718.679C254.805 707.244 211.114 689.153 175.786 666.455V809.473C175.786 828.759 189.61 846.849 219.989 864.769C250.367 882.689 291.839 896.513 343.039 906.241C395.605 915.969 450.901 920.065 511.658 920.065C572.415 920.065 627.882 915.969 678.911 906.241C731.477 895.148 771.583 882.689 801.962 864.769C832.341 848.215 846.165 830.124 846.165 809.473V666.455C813.567 689.836 771.071 707.244 715.263 719.532C662.698 771.073 590.847 802.988 511.658 802.988H511.999Z" fill="black"/>
<path d="M419.839 736.428C448.341 748.204 479.402 754.689 511.999 754.689C544.597 754.689 574.975 748.204 603.306 736.769C640.853 721.409 673.791 697.175 699.221 666.455C734.037 624.471 754.858 570.54 754.858 512.001C754.858 499.372 753.663 487.255 751.786 475.137C748.885 456.364 744.106 438.273 737.109 421.207C701.098 332.289 613.887 269.143 512.17 269.143C410.453 269.143 323.071 332.289 287.061 421.548C280.405 438.103 275.626 455.511 272.725 473.772C270.677 486.231 269.482 498.86 269.482 512.001C269.482 570.881 290.645 624.812 325.631 666.967C350.719 697.175 383.146 721.239 420.181 736.428H419.839ZM327.338 487.084C329.727 468.823 334.847 451.244 342.357 435.031C371.711 370.519 436.565 325.633 511.999 325.633C587.434 325.633 652.287 370.689 681.642 435.031C689.151 451.585 694.442 469.335 696.831 488.108C697.855 495.959 698.538 503.98 698.538 512.172C698.538 587.607 653.311 652.631 588.799 681.985C565.418 692.567 539.477 698.711 512.17 698.711C484.863 698.711 458.922 692.567 435.37 681.985C370.687 652.631 325.631 587.607 325.631 512.172C325.631 503.639 326.314 495.447 327.509 487.255L327.338 487.084Z" fill="black"/>
<path d="M638.463 579.585L535.21 515.415V387.073H478.89V543.404L613.205 625.495L638.463 579.585Z" fill="black"/>
</svg>
