<svg width="1024" height="1024" viewBox="0 0 1024 1024" fill="none" xmlns="http://www.w3.org/2000/svg">
<path d="M987.2 225.601C974.4 212.801 958.4 204.801 939.2 204.801H86.4C67.2 204.801 49.6 211.201 36.8 225.601C24 240.001 16 256.001 16 273.601V766.401C16 785.601 22.4 801.601 36.8 814.401C49.6 828.801 67.2 835.201 86.4 835.201H700.8V632.001C680 609.601 668.8 579.201 668.8 545.601C668.8 472.001 728 412.801 801.6 412.801C875.2 412.801 934.4 472.001 934.4 545.601C934.4 579.201 921.6 609.601 902.4 632.001V835.201H940.8C960 835.201 977.6 828.801 990.4 814.401C1003.2 801.601 1011.2 785.601 1011.2 766.401V273.601C1008 254.401 1001.6 238.401 987.2 225.601ZM584 508.801H104V440.001H584V508.801ZM584 369.601H104V299.201H584V369.601ZM732.8 659.201V876.801L800 828.801L867.2 876.801V659.201C848 670.401 825.6 676.801 800 676.801C774.4 676.801 753.6 672.001 732.8 659.201Z" fill="black"/>
</svg>
