<svg width="1024" height="1024" viewBox="0 0 1024 1024" fill="none" xmlns="http://www.w3.org/2000/svg">
<path d="M772.761 442.248C818.946 445.336 859.755 466.1 888.909 497.764L889.02 497.886C918.823 528.308 937.215 570.008 937.215 616.003C937.215 616.807 937.209 617.611 937.198 618.412L937.199 618.291C936.679 716.237 857.413 795.496 759.515 796.006H299.4C298.445 796.022 297.319 796.031 296.19 796.031C238.493 796.031 186.369 772.172 149.145 733.782L149.094 733.729C110.62 695.356 86.8164 642.291 86.8164 583.666C86.8164 528.834 107.639 478.865 141.809 441.236L141.652 441.411C175.165 403.266 222.278 377.773 275.343 372.546L276.188 372.479C299.675 329.18 332.884 293.845 373.039 268.518L374.185 267.843C412.748 242.848 459.896 227.988 510.516 227.988C511.037 227.988 511.558 227.99 512.079 227.993H511.999C512.235 227.992 512.516 227.992 512.796 227.992C641.168 227.992 748.208 319.326 772.478 440.557L772.76 442.248H772.761Z" fill="black"/>
</svg>
