<svg width="1024" height="1024" viewBox="0 0 1024 1024" fill="none" xmlns="http://www.w3.org/2000/svg">
<path d="M404.298 398.642C406.168 397.521 408.038 396.399 410.001 395.277L417.293 346.849L422.435 312.257H602.966L607.828 347.316L614.372 394.996C616.335 396.118 618.298 397.24 620.168 398.456L696.363 368.352V218.392L512 112L327.636 218.392V368.445L404.298 398.736V398.642Z" fill="black"/>
<path d="M679.535 738.668L683.836 730.908L729.459 652.563L734.601 643.962L678.6 600.956C679.067 598.806 679.441 596.749 679.722 594.786C680.002 592.823 680.283 590.953 680.563 589.083C681.031 585.437 681.218 581.978 681.218 578.519C681.218 576.836 681.218 575.059 681.218 573.283C681.218 569.824 681.031 566.178 680.563 562.251C680.283 560.288 680.002 558.231 679.535 556.081L735.442 513.075L720.764 487.926L680.283 418.369L614.839 444.172C602.779 434.73 590.719 427.812 576.976 421.828L567.533 352.926H457.307L446.93 421.828C434.028 427.812 421.968 434.73 409.066 444.172L343.623 418.369L339.322 426.129L334.18 435.01L303.328 488.02L293.699 504.474L288.557 513.075L344.464 556.081C344.277 558.231 344.09 560.288 343.997 562.251C343.716 566.178 343.716 569.824 343.623 573.283C343.623 575.059 343.623 576.742 343.623 578.519C343.623 581.978 343.623 585.437 343.716 589.083C343.716 590.953 343.81 592.823 343.997 594.786C344.184 596.749 344.277 598.806 344.464 600.956L288.463 643.962L293.605 652.563L339.229 730.908L343.529 738.668L408.973 712.865C414.956 717.633 421.033 721.653 427.297 725.393C433.561 729.039 440.012 732.311 446.93 735.302L456.373 804.205H566.598L576.041 735.302C582.492 732.311 588.755 729.039 595.019 725.393C601.283 721.746 607.547 717.633 613.998 712.865L679.441 738.668H679.535ZM589.597 586.465C588.101 602.078 582.305 616.289 572.208 628.536C570.525 630.593 568.655 632.556 566.785 634.52C564.915 636.483 562.858 638.259 560.895 639.942C558.838 641.625 556.782 643.214 554.725 644.71C550.518 647.608 546.124 650.039 541.543 652.002C540.888 652.283 540.14 652.47 539.486 652.75C530.885 656.116 521.723 657.799 511.719 657.799C501.716 657.799 493.208 656.116 484.794 653.031C483.859 652.657 482.83 652.376 481.896 652.002C477.315 650.039 472.92 647.608 468.713 644.71C466.563 643.214 464.506 641.718 462.543 639.942C460.486 638.259 458.523 636.389 456.653 634.52C454.783 632.65 452.913 630.593 451.231 628.536C441.04 616.289 435.244 602.172 433.841 586.465C433.561 583.848 433.467 581.23 433.467 578.519C433.467 575.807 433.561 573.19 433.841 570.572C434.028 568.235 434.402 565.991 434.776 563.747C435.244 560.942 435.898 558.138 436.74 555.426C438.235 550.565 440.105 545.89 442.536 541.403C444.967 536.915 447.865 532.615 451.231 528.501C452.913 526.444 454.783 524.481 456.653 522.518C460.486 518.685 464.506 515.319 468.62 512.514C481.335 503.726 495.545 499.332 511.719 499.332C527.893 499.332 542.478 503.82 555.192 512.795C559.212 515.599 563.045 518.872 566.785 522.518C568.748 524.481 570.525 526.444 572.208 528.501C575.573 532.615 578.471 536.915 580.902 541.403C583.333 545.89 585.296 550.565 586.699 555.426C587.54 558.325 588.194 561.223 588.662 564.215C589.036 566.271 589.316 568.422 589.597 570.572C589.877 573.19 589.971 575.807 589.971 578.519C589.971 581.23 589.877 583.848 589.597 586.465Z" fill="black"/>
<path d="M788.358 523.64L721.793 574.779C721.793 576.088 721.793 577.303 721.793 578.519C721.793 579.921 721.793 581.417 721.793 582.819L788.078 633.772L764.424 673.225L719.175 751.009L715.061 758.395L697.766 789.527L618.953 758.395C617.177 759.517 615.4 760.545 613.53 761.573L602.405 841.975L723.569 911.906L907.933 805.514V592.636L788.265 523.546L788.358 523.64Z" fill="black"/>
<path d="M409.721 761.947C407.757 760.825 405.794 759.704 403.924 758.488L325.579 789.434L308.283 758.301L304.17 750.915L258.92 673.131L235.267 633.678L303.235 581.417C303.235 580.388 303.235 579.36 303.235 578.332C303.235 577.303 303.235 576.275 303.235 575.246L263.969 545.049L235.828 523.453L116.066 592.729V805.608L300.43 912L420.846 842.443L409.814 761.947H409.721Z" fill="black"/>
</svg>
