<svg width="1024" height="1024" viewBox="0 0 1024 1024" fill="none" xmlns="http://www.w3.org/2000/svg">
<path d="M0 976.897H845.227V682.668H0V976.897ZM694.972 749.91H784.179V804.694H694.972V749.91ZM694.972 854.785H784.179V909.654H694.972V854.785ZM61.047 749.944H635.494V804.728H61.047V749.944ZM61.047 854.819H635.494V909.654H61.047V854.819ZM513.399 344.543H0V638.806H513.399V344.543ZM472.747 425.934L391.356 505.772L320.854 485.429L215.979 573.066L137.745 541.766L81.425 598.086H40.704V558.986L123.648 476.025L208.213 510.466L309.947 424.382L375.688 443.155L433.612 386.835H472.746L472.747 425.934ZM546.662 432.863V610.8L612.556 649.046H788.821L854.801 610.748V432.913L700.689 344.542L546.662 432.862V432.863ZM870.963 47.1055L716.851 136.551V314.369L870.963 402.74L1024 314.369V136.551L870.963 47.1055ZM546.662 393.422L684.527 314.369V136.551L530.398 47.1055L377.361 136.551V311.45H546.662V393.422Z" fill="black"/>
</svg>
