<svg width="1024" height="1024" viewBox="0 0 1024 1024" fill="none" xmlns="http://www.w3.org/2000/svg">
<path d="M530.521 487.332C559.869 457.984 593.264 444.828 633.744 444.828C674.223 444.828 710.655 457.984 736.967 487.332C766.314 516.679 779.47 550.075 779.47 590.554C779.47 631.034 766.314 667.465 736.967 693.777C707.619 723.125 674.223 736.281 633.744 736.281C593.264 736.281 556.833 723.125 530.521 693.777C501.174 664.429 488.018 631.034 488.018 590.554C488.018 550.075 501.174 514.655 530.521 487.332ZM926.208 991.301H341.28V941.714C341.28 910.342 359.495 883.019 394.915 858.731C431.346 834.443 471.826 816.228 514.329 807.12C559.869 795.988 597.312 790.928 633.744 790.928C670.176 790.928 707.619 794.976 753.159 807.12C798.698 819.263 839.177 836.467 872.573 858.731C909.005 883.019 926.208 910.342 926.208 941.714V991.301Z" fill="black"/>
<path fill-rule="evenodd" clip-rule="evenodd" d="M495.568 32.6953C601.774 32.6953 697.69 76.7551 766.14 147.706L766.302 147.859C837.15 215.113 881.327 310.191 881.327 415.588C881.327 418.017 881.304 420.441 881.263 422.501C881.306 424.821 881.327 427.148 881.327 429.479C881.327 476.914 872.379 522.26 856.063 563.933C851.072 517.727 832.723 476.135 799.722 440.115C800.052 434.299 800.27 428.439 800.374 422.534L800.368 422.145C799.89 394.916 796.899 368.299 792.094 345.308H660.64C661.561 353.003 662.355 360.738 663.02 368.522C653.269 367.376 643.483 366.828 633.744 366.828C617.231 366.828 601.244 368.386 585.823 371.554C585.048 362.398 584.109 353.592 583.027 345.308H396.253L396.627 341.764C393.23 368.071 391.275 394.831 390.84 422.534L390.845 423.033C391.217 450.173 393.115 476.945 396.094 499.759H428.041C415.633 528.447 410.017 559.297 410.017 590.554C410.017 646.673 428.008 696.71 466.071 739.125C426.851 751.068 390.091 768.869 356.736 790.486C301.728 770.79 252.631 738.622 212.823 697.36L212.666 697.212C141.907 629.967 97.793 534.949 97.793 429.627C97.793 427.147 97.817 424.672 97.8604 422.568C97.817 420.247 97.7958 417.92 97.7958 415.588C97.7958 310.192 141.973 215.113 212.983 147.707L213.09 147.595C281.433 76.756 377.349 32.6962 483.555 32.6962C485.651 32.6962 487.743 32.7128 489.52 32.7431C491.533 32.7115 493.548 32.6953 495.568 32.6953ZM642.261 266.331H756.109L756.268 266.171L755.522 264.714C720.298 201.515 661.853 153.028 589.7 130.237C612.296 171.434 629.845 215.888 642.261 266.331ZM561.997 261.961C544.815 206.692 519.785 154.882 489.562 109.969L490.912 107.831C459.338 154.882 434.308 206.692 415.998 266.171H563.125L561.997 261.961ZM178.754 422.922C179.232 450.151 182.224 476.768 187.028 499.759H317.686C314.735 475.103 313.089 450.031 312.819 424.285V420.782L312.821 420.407C313.101 393.867 314.886 367.688 317.754 345.308H187.028L187.506 342.516C182.224 368.298 179.232 394.916 178.748 422.534L178.754 422.922ZM223.097 579.373L223.603 580.372C258.569 643.696 316.796 692.381 388.786 715.467C366.19 674.27 348.641 629.816 336.225 579.373H223.097ZM222.855 266.809H336.225L336.861 266.171L337.678 262.335C349.628 214.777 367.702 169.651 389.566 130.669L387.536 131.224C317.323 153.479 258.819 202.046 222.855 266.809Z" fill="black"/>
</svg>
