<svg width="1024" height="1024" viewBox="0 0 1024 1024" fill="none" xmlns="http://www.w3.org/2000/svg">
<path d="M343.996 117.76C391.749 108.932 446.696 103.883 502.823 103.883C506.296 103.883 509.765 103.902 513.229 103.941L512.701 103.936C515.38 103.908 518.546 103.892 521.715 103.892C578.137 103.892 633.381 108.937 687.02 118.601L681.388 117.759C727.481 125.185 768.872 139.684 806.476 160.243L804.455 159.231C834.868 177.219 848.709 193.808 848.709 214.544V338.141C848.709 358.877 834.868 376.848 804.455 393.437C768.86 412.572 727.528 427.033 683.827 434.577L681.387 434.926C632.715 443.743 576.696 448.785 519.499 448.785C516.616 448.785 513.737 448.772 510.86 448.747L511.3 448.75C508.621 448.778 505.455 448.794 502.286 448.794C445.864 448.794 390.62 443.749 336.981 434.085L342.613 434.927C296.519 427.505 255.128 412.999 217.529 392.428L219.545 393.438C189.132 375.467 175.291 358.878 175.291 338.142V214.613C175.291 193.877 189.132 175.906 219.545 159.3C255.543 140.429 297.309 125.975 341.366 118.147L343.995 117.76H343.996ZM322.423 486.161C379.888 498.468 445.907 505.515 513.573 505.515C513.944 505.515 514.315 505.515 514.686 505.514H514.628C515.546 505.517 516.632 505.519 517.72 505.519C584.675 505.519 649.983 498.469 712.943 485.072L706.834 486.161C760.162 477.202 807.703 457.787 849.183 430.022L847.873 430.848V573.798C847.873 594.534 834.049 612.505 803.619 629.111C768.024 648.232 726.692 662.686 682.995 670.234L680.551 670.583C632.804 679.411 577.862 684.46 521.741 684.46C518.269 684.46 514.801 684.441 511.337 684.402L511.864 684.407C509.181 684.435 506.011 684.451 502.838 684.451C446.414 684.451 391.169 679.406 337.529 669.742L343.16 670.583C297.067 663.154 255.676 648.655 218.071 628.099L220.093 629.111C189.68 611.123 175.839 594.534 175.839 573.798V430.848C217.865 457.316 267.186 476.67 320.006 485.815L322.424 486.161H322.423ZM322.423 721.681C379.464 733.987 444.995 741.035 512.172 741.035C512.549 741.035 512.926 741.035 513.303 741.034H513.245C513.96 741.036 514.807 741.037 515.654 741.037C582.844 741.037 648.393 734.013 711.608 720.66L705.45 721.749C758.784 712.793 806.331 693.378 847.816 665.611L846.506 666.436V809.386C846.506 830.122 832.682 848.093 802.252 864.699C766.679 883.835 725.374 898.311 681.702 905.888L679.253 906.24C631.91 915.068 577.439 920.117 521.789 920.117C518.347 920.117 514.91 920.098 511.477 920.059L511.999 920.064C509.316 920.092 506.146 920.108 502.973 920.108C446.549 920.108 391.304 915.063 337.664 905.399L343.295 906.24C297.202 898.811 255.811 884.312 218.206 863.756L220.228 864.768C189.815 846.78 175.974 828.809 175.974 809.455V666.436C218 692.904 267.321 712.258 320.141 721.403L322.559 721.749L322.423 721.681Z" fill="black"/>
</svg>
