<svg width="1024" height="1024" viewBox="0 0 1024 1024" fill="none" xmlns="http://www.w3.org/2000/svg">
<path d="M132.524 814.89C132.524 851.44 162.083 881 198.633 881H824.365C860.914 881 890.473 851.44 890.473 814.89V363.105C890.473 352.12 881.485 343.132 870.501 343.132H152.497C141.512 343.132 132.524 352.12 132.524 363.105V814.89ZM428.314 449.388H594.683C609.463 449.388 621.246 461.371 621.246 475.952C621.246 490.532 609.263 502.515 594.683 502.515H428.314C413.535 502.515 401.751 490.532 401.751 475.952C401.751 461.371 413.734 449.388 428.314 449.388Z" fill="black"/>
<path d="M944 289.599V161.973C944 150.988 935.012 142 924.028 142H98.9723C87.9875 142 79 150.988 79 161.973V289.599C79 300.584 87.9875 309.572 98.9723 309.572H924.028C935.012 309.572 944 300.584 944 289.599Z" fill="black"/>
</svg>
