<svg width="1024" height="1024" viewBox="0 0 1024 1024" fill="none" xmlns="http://www.w3.org/2000/svg">
<g clip-path="url(#clip0_2_375)">
<path d="M1021.4 542.399C1021.8 542.199 1022.2 541.899 1022.7 541.599L1021.4 542.399Z" fill="black"/>
<path d="M1022.7 315.699C1023.1 315.499 1023.5 315.199 1024 314.899L1022.7 315.699Z" fill="black"/>
<path d="M828.6 779.799C829 779.599 829.4 779.299 829.9 778.999L828.6 779.799Z" fill="black"/>
<path d="M698.5 832.099L692.8 833.099C694.7 832.799 696.6 832.399 698.5 832.099Z" fill="black"/>
<path d="M512.1 624.999C511.1 624.999 510 624.999 509.1 624.999C508.8 624.999 508.4 624.999 508.1 624.999C443 624.999 379.4 618.199 324.1 606.399L321.8 606.099C271 597.299 223.5 578.699 183 553.199V690.799C183 710.799 196.3 726.699 225.6 743.999L223.7 742.999C259.9 762.799 299.7 776.699 344.1 783.899L338.7 783.099C390.3 792.399 443.5 797.299 497.8 797.299C500.9 797.299 503.9 797.299 506.5 797.299H506C509.3 797.299 512.7 797.399 516 797.399C570 797.399 622.9 792.499 668.8 783.999L671.2 783.699C713.3 776.399 753 762.499 787.3 744.099C816.6 728.099 829.9 710.799 829.9 690.899V553.099C791.7 578.399 748.2 596.399 699.7 605.299C639.2 618.199 576.4 624.999 512.1 624.999Z" fill="black"/>
<path d="M507.8 851.599C507.9 851.599 507.9 851.599 507.8 851.599V851.599Z" fill="black"/>
<path d="M698.7 831.999C637.9 844.899 574.8 851.599 510.1 851.599C509.3 851.599 508.5 851.599 507.8 851.599C507.5 851.599 507.1 851.599 506.8 851.599C442.1 851.599 379.1 844.799 324.2 832.999L324.3 833.099L322 832.799C271.2 823.999 223.7 805.399 183.2 779.899V917.599C183.2 936.199 196.5 953.499 225.8 970.799L223.9 969.799C260.1 989.599 299.9 1003.5 344.3 1010.7L338.9 1009.9C390.5 1019.2 443.7 1024.1 498 1024.1C501.1 1024.1 504.1 1024.1 506.7 1024.1H506.2C509.5 1024.1 512.8 1024.2 516.1 1024.2C569.7 1024.2 622.1 1019.3 667.7 1010.8L670.1 1010.5C712.1 1003.2 751.9 989.299 786.1 970.899C815.4 954.899 828.7 937.599 828.7 917.699V779.899C790.6 805.199 747.1 823.199 698.7 832.099V831.999Z" fill="black"/>
<path d="M225.1 517.099L223.2 516.099C259.4 535.899 299.2 549.899 343.6 556.999L338.2 556.199C389.8 565.499 443 570.399 497.3 570.399C500.4 570.399 503.4 570.399 506 570.399H505.6C508.4 570.399 511.1 570.399 513.9 570.399C569 570.399 622.9 565.499 669.7 557.099L672 556.799C714.1 549.499 753.8 535.599 788.1 517.199C817.4 501.199 830.7 483.899 830.7 463.999V344.999C830.7 324.999 817.4 309.099 788.1 291.799L790 292.799C753.8 272.999 714 259.099 669.6 251.899L675 252.699C623.4 243.399 570.2 238.499 515.9 238.499C512.8 238.499 509.8 238.499 507.2 238.499H507.7C504.4 238.499 501 238.399 497.7 238.399C443.7 238.399 390.8 243.299 344.8 251.799L342.3 252.199C299.9 259.699 259.7 273.599 225.1 291.799C195.8 307.799 182.5 325.099 182.5 344.999V463.899C182.6 483.799 195.9 499.799 225.1 517.099Z" fill="black"/>
<path d="M694.1 606.299C696 605.999 697.8 605.699 699.6 605.299C699.7 605.299 699.8 605.299 700 605.199L694.1 606.299Z" fill="black"/>
<path d="M829.9 553.099C830.3 552.899 830.7 552.599 831.2 552.299L829.9 553.099Z" fill="black"/>
<path d="M0.5 315.699V453.299C0.5 473.299 13.8 489.199 43.1 506.499L41.2 505.499C69.5 520.999 100 532.799 133.1 540.699L132.6 367.299C84.3 358.099 39.2 339.999 0.5 315.699Z" fill="black"/>
<path d="M202 247.399C239.5 227.699 282.1 212.899 325.5 204.399V107.499C325.5 86.1992 332.8 65.7992 346.6 48.2992C357.9 33.9992 373.4 21.5992 394.1 10.2992L394.9 9.89922C398.9 7.79922 402.9 5.79922 407 3.79922C382.8 1.79922 358.3 0.799219 333.6 0.799219C330.5 0.799219 327.5 0.799219 324.9 0.799219H325.4C322.1 0.799219 318.7 0.699219 315.4 0.699219C261.4 0.699219 208.5 5.59922 162.5 14.0992L160 14.4992C117.6 21.9992 77.4 35.8992 42.8 54.0992C13.3 70.2992 0 87.5992 0 107.599V226.499C0 246.499 13.3 262.399 42.6 279.699L40.7 278.699C70.4 294.899 102.5 307.199 137.6 315.099C141.2 304.699 146.6 294.899 153.7 285.799C165 271.499 180.5 259.099 201.2 247.799L202 247.399Z" fill="black"/>
<path d="M133.1 594.199C84.6 584.999 39.4 566.799 0.7 542.399V680.099C0.7 698.699 14 715.999 43.3 733.299L41.4 732.299C69.7 747.799 100.2 759.599 133.3 767.499L133.1 594.199Z" fill="black"/>
<path d="M887 368.899C888.9 368.599 890.7 368.299 892.5 367.899C892.6 367.899 892.7 367.899 892.8 367.799L887 368.899Z" fill="black"/>
<path d="M981 54.2992L982.9 55.2992C946.7 35.4992 906.9 21.5992 862.5 14.3992L867.9 15.1992C816.3 5.89922 763.1 0.999219 708.8 0.999219C705.7 0.999219 702.7 0.999219 700.1 0.999219H700.6C697.3 0.999219 693.9 0.899219 690.6 0.899219C636.6 0.899219 583.7 5.79922 537.7 14.2992L535.2 14.6992C492.8 22.1992 452.6 36.0992 418 54.2992C388.7 70.2992 375.4 87.5992 375.4 107.499V196.299C414.7 191.099 456.3 188.399 497.8 188.399C501 188.399 504.2 188.399 507.3 188.399C509.9 188.399 512.9 188.399 515.9 188.399C572.3 188.399 628.8 193.399 683.9 203.299V203.399C730.1 211.499 773.8 226.799 814 248.699L813.9 248.799C834.1 260.799 848.5 272.499 859.2 285.799C867.1 295.499 872.8 305.999 876.3 316.999C914.1 309.299 949.8 296.299 980.9 279.599C1010.2 263.599 1023.5 246.299 1023.5 226.399V107.399C1023.5 87.4992 1010.2 71.5992 981 54.2992Z" fill="black"/>
<path d="M880.7 370.399L879.9 542.999C916.1 535.199 950.2 522.599 980.2 506.499C1009.5 490.499 1022.8 473.199 1022.8 453.299V315.699C984.6 340.999 941.1 358.999 892.6 367.899C888.6 368.799 884.6 369.599 880.7 370.399Z" fill="black"/>
<path d="M891.6 594.599C887.7 595.399 883.8 596.199 879.9 596.999L878.6 769.799C914.8 761.999 948.9 749.299 978.9 733.199C1008.2 717.199 1021.5 699.899 1021.5 679.999V542.499C983.4 567.799 939.9 585.799 891.5 594.699L891.6 594.599Z" fill="black"/>
</g>
<defs>
<clipPath id="clip0_2_375">
<rect width="1024" height="1024" fill="white"/>
</clipPath>
</defs>
</svg>
