<svg width="1024" height="1024" viewBox="0 0 1024 1024" fill="none" xmlns="http://www.w3.org/2000/svg">
<path d="M818.68 233.174C760.535 206.553 699.151 187.668 636.098 177C627.47 192.424 619.663 208.294 612.709 224.542C545.545 214.422 477.244 214.422 410.08 224.542C403.123 208.296 395.316 192.426 386.691 177C323.598 187.758 262.174 206.688 203.97 233.313C88.42 404.271 57.0963 570.983 72.7582 735.328C140.427 785.325 216.168 823.348 296.688 847.746C314.819 823.36 330.862 797.49 344.648 770.411C318.464 760.631 293.191 748.566 269.123 734.354C275.457 729.759 281.653 725.026 287.639 720.432C357.672 753.367 434.109 770.443 511.499 770.443C588.889 770.443 665.327 753.367 735.359 720.432C741.415 725.374 747.61 730.108 753.875 734.354C729.76 748.589 704.442 760.677 678.211 770.48C691.98 797.548 708.024 823.396 726.171 847.746C806.76 823.446 882.559 785.441 950.24 735.398C968.616 544.81 918.847 379.63 818.68 233.174ZM364.486 634.257C320.842 634.257 284.785 594.65 284.785 545.924C284.785 497.198 319.589 457.243 364.347 457.243C409.105 457.243 444.884 497.198 444.118 545.924C443.353 594.65 408.966 634.257 364.486 634.257ZM658.512 634.257C614.798 634.257 578.88 594.65 578.88 545.924C578.88 497.198 613.684 457.243 658.512 457.243C703.339 457.243 738.84 497.198 738.074 545.924C737.308 594.65 702.991 634.257 658.512 634.257Z" fill="black"/>
</svg>
