<svg width="1024" height="1024" viewBox="0 0 1024 1024" fill="none" xmlns="http://www.w3.org/2000/svg">
<path d="M500.702 792.389C500.702 629.849 632.462 498.084 794.999 498.074C795.026 498.074 795.059 498.074 795.091 498.074C805.668 498.074 816.116 498.626 826.408 499.702L825.122 499.593V290.253L620.424 85.5547H198.877V938.445H539.715C515.185 896.553 500.701 846.199 500.701 792.462C500.701 792.436 500.701 792.41 500.701 792.384V792.388L500.702 792.389ZM561.954 172.46H620.424V289.418H737.399V347.905H561.954V172.46ZM640.563 991.745V848.897L698.777 790L640.563 731.205V588.459H944.742V730.454L886.528 789.351L944.742 848.248V991.796H640.563V991.745ZM874.001 920.884V876.698L792.32 794.317L710.639 876.698V920.884H874.001ZM792.32 784.351L874.001 702.67V658.536H710.639V702.056L792.32 784.351ZM792.32 744.432L841.079 698.625H743.56L792.32 744.432Z" fill="black"/>
</svg>
