<svg width="1024" height="1024" viewBox="0 0 1024 1024" fill="none" xmlns="http://www.w3.org/2000/svg">
<path d="M316.002 260.132L316.402 806.732H708.402V417.332L549.602 260.132H316.002ZM640.002 738.132H384.802L384.602 328.532H503.002L503.402 329.132V464.332H640.002V738.132ZM243.802 141.532H276.202V95.332H197.602V173.932H243.802V141.532ZM197.802 395.132H244.002V505.732H197.802V395.132ZM198.002 726.932H244.202V837.532H198.002V726.932ZM197.802 229.132H244.002V339.732H197.802V229.132ZM197.802 561.132H244.002V671.732H197.802V561.132ZM244.202 892.932H198.002V971.532H276.602V925.332H244.202V892.932ZM323.802 925.132H418.002V971.332H323.602V925.132H323.802ZM606.602 925.132H701.002V971.332H606.602V925.132ZM465.202 925.132H559.602V971.332H465.202V925.132ZM780.602 925.132H748.202V971.332H826.802V892.732H780.602V925.132ZM780.602 452.532H826.802V550.332H780.602V452.532ZM780.602 599.332H826.802V697.132H780.602V599.332ZM780.602 746.132H826.802V843.932H780.602V746.132ZM780.602 292.532L748.002 325.332L780.602 357.732V403.532H826.802V338.332L780.602 292.532ZM627.402 205.532L660.002 172.732L740.402 252.532L707.802 285.332L627.402 205.532ZM587.202 165.532L619.802 132.732L582.002 95.332H502.802V141.532H562.802L587.202 165.532ZM332.802 95.332H446.202V141.532H332.802V95.332Z" fill="black"/>
</svg>
