<svg width="1024" height="1024" viewBox="0 0 1024 1024" fill="none" xmlns="http://www.w3.org/2000/svg">
<path d="M159.1 401.901V332.001C159.1 326.601 159.4 321.201 160.1 315.601C160.8 310.101 161.9 305.001 163.5 300.401C160 304.201 156.1 307.501 151.8 310.501C147.5 313.501 142.9 316.401 138 319.401L79 353.801L50 305.701L109 271.301C114.1 268.301 119.2 265.801 124.4 263.601C129.5 261.401 134.8 259.801 140.2 258.801C134.8 257.701 129.5 256.001 124.4 253.701C119.3 251.401 114.2 248.801 109 245.801L50 210.601L79.1 162.101L138.1 197.701C143 200.701 147.6 203.701 152 206.801C156.4 209.901 160.4 213.301 163.9 217.101C160.7 207.901 159 197.601 159 186.001V115.301H218V185.201C218 190.901 217.7 196.401 217 201.801C216.3 207.201 215.2 212.301 213.6 217.201C217.1 213.401 221 210.001 225.3 206.901C229.6 203.801 234.2 200.801 239 197.801L298 163.001L327.1 211.501L268.1 245.801C262.7 248.801 257.4 251.301 252.3 253.501C247.2 255.701 241.9 257.301 236.5 258.301C241.9 259.401 247.2 261.101 252.5 263.401C257.8 265.701 262.9 268.301 268.1 271.301L327.1 306.501L298 354.601L239 319.401C233.9 316.401 229.2 313.401 224.9 310.301C220.6 307.201 216.5 303.801 212.8 300.001C216.3 309.401 218.1 319.801 218.1 331.101V401.801H159.1V401.901Z" fill="black"/>
<path d="M482.4 401.901V332.001C482.4 326.601 482.7 321.201 483.4 315.601C484.1 310.101 485.2 305.001 486.8 300.401C483.3 304.201 479.4 307.501 475.1 310.501C470.8 313.501 466.2 316.401 461.3 319.401L402.3 353.801L373.2 305.701L432.2 271.301C437.3 268.301 442.4 265.801 447.6 263.601C452.7 261.401 458 259.801 463.4 258.801C458 257.701 452.7 256.001 447.6 253.701C442.5 251.401 437.4 248.801 432.2 245.801L373.2 210.601L402.3 162.101L461.3 197.701C466.2 200.701 470.8 203.701 475.2 206.801C479.6 209.901 483.6 213.301 487.1 217.101C483.9 207.901 482.2 197.601 482.2 186.001V115.301H541.2V185.201C541.2 190.901 540.9 196.401 540.2 201.801C539.5 207.201 538.4 212.301 536.8 217.201C540.3 213.401 544.2 210.001 548.5 206.901C552.8 203.801 557.4 200.801 562.2 197.801L621.2 163.001L650.3 211.501L591.3 245.801C585.9 248.801 580.6 251.301 575.5 253.501C570.4 255.701 565.1 257.301 559.7 258.301C565.1 259.401 570.4 261.101 575.7 263.401C581 265.701 586.1 268.301 591.3 271.301L650.3 306.501L621.2 354.601L562.2 319.401C557.1 316.401 552.4 313.401 548.1 310.301C543.8 307.201 539.7 303.801 536 300.001C539.5 309.401 541.3 319.801 541.3 331.101V401.801H482.4V401.901Z" fill="black"/>
<path d="M805.7 401.901V332.001C805.7 326.601 806 321.201 806.7 315.601C807.4 310.101 808.5 305.001 810.1 300.401C806.6 304.201 802.7 307.501 798.4 310.501C794.1 313.501 789.5 316.401 784.6 319.401L725.6 353.801L696.5 305.701L755.5 271.301C760.6 268.301 765.7 265.801 770.9 263.601C776 261.401 781.3 259.801 786.7 258.801C781.3 257.701 776 256.001 770.9 253.701C765.8 251.401 760.7 248.801 755.5 245.801L696.5 210.601L725.6 162.101L784.6 197.701C789.5 200.701 794.1 203.701 798.5 206.801C802.9 209.901 806.9 213.301 810.4 217.101C807.2 207.901 805.5 197.601 805.5 186.001V115.301H864.5V185.201C864.5 190.901 864.2 196.401 863.5 201.801C862.8 207.201 861.7 212.301 860.1 217.201C863.6 213.401 867.5 210.001 871.8 206.901C876.1 203.801 880.7 200.801 885.5 197.801L944.5 163.001L973.6 211.501L914.6 245.801C909.2 248.801 903.9 251.301 898.8 253.501C893.7 255.701 888.4 257.301 883 258.301C888.4 259.401 893.7 261.101 899 263.401C904.3 265.701 909.4 268.301 914.6 271.301L973.6 306.501L944.5 354.601L885.5 319.401C880.4 316.401 875.7 313.401 871.4 310.301C867.1 307.201 863 303.801 859.3 300.001C862.8 309.401 864.6 319.801 864.6 331.101V401.801H805.7V401.901Z" fill="black"/>
<path d="M743.7 448.001C658.6 448.001 584.5 494.301 544.6 562.901H475V601.901H129.3L52.6 678.201L129.3 755.301H167.6L206.1 677.801L244.6 755.301H282.3L320.8 716.801L359.3 755.301H475V792.701H543.9C583.6 861.901 658.1 908.701 743.6 908.701C870.8 908.701 973.9 805.601 973.9 678.401C973.9 551.201 870.9 448.001 743.7 448.001ZM819.9 755.501C777.7 755.501 743.5 721.301 743.5 679.101C743.5 636.901 777.7 602.701 819.9 602.701C862.1 602.701 896.3 636.901 896.3 679.101C896.3 721.301 862.1 755.501 819.9 755.501Z" fill="black"/>
</svg>
