<svg width="1024" height="1024" viewBox="0 0 1024 1024" fill="none" xmlns="http://www.w3.org/2000/svg">
<g clip-path="url(#clip0_2_495)">
<path d="M371.2 828.8H1024V697.6H371.2V828.8ZM436.8 731.2H500.8V795.2H436.8V731.2ZM371.2 1024H1024V892.8H371.2V1024ZM436.8 926.4H500.8V990.4H436.8V926.4ZM539.2 502.4C526.4 513.6 512 524.8 499.2 534.4H500.8V598.4H436.8C436.8 598.4 436.8 588.8 436.8 585.6C416 601.6 396.8 617.6 377.6 632H1024V500.8H539.2V502.4ZM225.6 598.4C241.6 568 291.2 390.4 230.4 236.8C212.8 193.6 187.2 152 148.8 116.8C116.8 86.4 76.8 62.4 25.6 43.2C-17.6 27.2 -68.8 16 -128 11.2C-57.6 44.8 -6.4 84.8 19.2 107.2C19.2 107.2 73.6 147.2 115.2 222.4C152 288 180.8 382.4 180.8 382.4C200 443.2 212.8 510.4 219.2 552C224 580.8 225.6 598.4 225.6 598.4ZM462.4 502.4C520 454.4 577.6 409.6 630.4 382.4C758.4 315.2 878.4 380.8 870.4 356.8C856 304 737.6 241.6 737.6 241.6C686.4 182.4 628.8 168 592 160C524.8 147.2 456 161.6 422.4 169.6C328 44.8 142.4 16 68.8 9.6C112 28.8 148.8 52.8 180.8 81.6C200 96 216 112 228.8 128L259.2 126.4L240 144C244.8 152 251.2 158.4 254.4 166.4L305.6 158.4L268.8 196.8C272 206.4 273.6 214.4 276.8 224C350.4 508.8 204.8 681.6 204.8 681.6C217.6 676.8 232 670.4 244.8 664C284.8 643.2 326.4 612.8 369.6 577.6C401.6 552 432 526.4 462.4 502.4ZM624 225.6C638.4 225.6 667.2 236.8 689.6 256C691.2 257.6 676.8 260.8 660.8 259.2C649.6 259.2 633.6 254.4 620.8 241.6C609.6 230.4 612.8 225.6 624 225.6ZM38.4 8C97.6 27.2 145.6 52.8 180.8 81.6C148.8 52.8 112 28.8 68.8 9.6C49.6 8 38.4 8 38.4 8Z" fill="black"/>
</g>
<defs>
<clipPath id="clip0_2_495">
<rect width="1024" height="1024" fill="white"/>
</clipPath>
</defs>
</svg>
