<svg width="1024" height="1024" viewBox="0 0 1024 1024" fill="none" xmlns="http://www.w3.org/2000/svg">
<path fill-rule="evenodd" clip-rule="evenodd" d="M168.645 66.0391H550.102L735.258 251.23V837.777H168.645V66.0391ZM534.509 406.249C536.264 410.814 540.654 413.833 545.545 413.834C550.441 413.833 554.826 410.819 556.581 406.249L573.467 362.357C574.068 360.79 575.303 359.556 576.869 358.955L620.761 342.068C623.879 340.867 626.344 338.402 627.546 335.284C629.893 329.185 626.855 322.339 620.761 319.992L576.869 303.106C575.303 302.505 574.068 301.27 573.467 299.704L556.581 255.811C554.641 250.749 549.503 247.654 544.118 248.307C539.68 248.922 535.938 251.927 534.381 256.123L517.623 299.704C517.022 301.27 515.787 302.505 514.221 303.106L470.328 319.992C467.21 321.194 464.745 323.659 463.543 326.777C461.197 332.875 464.234 339.722 470.328 342.068L514.221 358.955C515.787 359.556 517.022 360.79 517.623 362.357L534.509 406.249ZM400.193 674.687C402.918 681.841 409.793 686.553 417.448 686.515C425.104 686.553 431.978 681.841 434.704 674.687L464.18 598.077C465.387 594.954 467.852 592.489 470.974 591.283L547.565 561.83C554.592 559.157 559.28 552.471 559.394 544.958C559.46 537.023 554.544 529.898 547.102 527.14L470.955 497.843C467.833 496.637 465.368 494.172 464.161 491.049L434.708 414.458C432.83 409.57 428.969 405.705 424.077 403.826C414.543 400.169 403.855 404.929 400.198 414.458L370.722 491.068C369.515 494.191 367.05 496.656 363.927 497.862L287.336 527.315C282.449 529.193 278.583 533.054 276.705 537.946C273.048 547.48 277.807 558.168 287.336 561.825L363.946 591.302C367.069 592.508 369.534 594.973 370.741 598.096L400.193 674.687Z" fill="black"/>
<path d="M795.623 898.227V311.697L855.356 371.43V957.96H288.709V898.227H795.623Z" fill="black"/>
</svg>
