<svg width="1024" height="1024" viewBox="0 0 1024 1024" fill="none" xmlns="http://www.w3.org/2000/svg">
<path d="M808.447 217.429C735.079 141.381 632.273 94.1562 518.437 94.1562C516.173 94.1562 513.914 94.1752 511.659 94.2122L511.999 94.2083C510.084 94.1753 507.825 94.1572 505.561 94.1572C391.725 94.1572 288.919 141.382 215.666 217.31L215.551 217.43C139.44 289.678 92.0889 391.588 92.0889 504.556C92.0889 507.173 92.1139 509.785 92.1649 512.39L92.1589 512C92.1119 514.263 92.0859 516.93 92.0859 519.603C92.0859 632.491 139.369 734.335 215.211 806.411L215.38 806.57C288.749 882.619 391.556 929.846 505.393 929.846C507.716 929.846 510.034 929.826 512.348 929.787L511.999 929.792C513.914 929.825 516.173 929.843 518.437 929.843C632.273 929.843 735.079 882.618 808.332 806.69L808.447 806.57C884.558 734.322 931.909 632.412 931.909 519.444C931.909 516.827 931.884 514.215 931.833 511.61L931.839 512C931.884 509.785 931.909 507.173 931.909 504.556C931.909 391.587 884.558 289.678 808.62 217.593L808.447 217.429ZM797.695 344.576H675.668C662.049 289.246 642.669 240.639 617.625 195.616L619.177 198.656C696.585 223.064 759.286 275.059 797.066 342.843L797.865 344.405L797.695 344.576ZM511.999 176.981C544.394 225.12 571.222 280.653 589.638 339.892L590.847 344.405H433.151C452.776 280.653 479.604 225.12 513.447 174.689L511.999 176.981ZM187.732 594.773C182.582 570.131 179.376 541.602 178.863 512.416L178.857 512C179.376 482.398 182.582 453.868 188.244 426.234L187.732 429.227H327.849C324.775 453.214 322.862 481.274 322.562 509.721L322.559 510.123C322.559 510.123 322.559 511.488 322.559 512C322.559 512.512 322.559 513.365 322.559 513.877C322.862 542.726 324.776 570.786 328.216 598.372L327.85 594.773H187.732ZM225.45 680.107H347.647C361.266 735.437 380.646 784.044 405.69 829.067L404.138 826.027C326.905 801.303 264.437 749.096 226.934 681.177L226.133 679.595L225.45 680.107ZM347.647 345.088H226.132C264.68 275.673 327.387 223.617 402.644 199.763L404.82 199.168C381.385 240.95 362.013 289.318 349.204 340.293L348.329 344.405L347.647 345.088ZM511.999 847.019C479.604 798.88 452.776 743.347 434.36 684.108L433.151 679.595H591.018C571.338 743.351 544.454 798.881 510.554 849.3L511.999 847.019ZM612.18 594.773H411.817C408.624 570.32 406.589 541.625 406.191 512.535L406.185 512C406.652 482.307 408.747 453.625 412.388 425.428L411.987 429.227H612.179C615.372 453.68 617.407 482.375 617.805 511.465L617.811 512C617.407 541.625 615.372 570.32 611.789 598.532L612.179 594.773H612.18ZM619.178 825.344C642.67 783.36 662.05 734.753 674.804 683.526L675.668 679.424H797.865C759.348 748.908 696.634 801.025 621.353 824.919L619.177 825.515L619.178 825.344ZM695.295 594.773C698.369 570.786 700.282 542.726 700.582 514.279L700.585 513.877C700.585 513.877 700.585 512.512 700.585 512C700.585 511.488 700.585 510.635 700.585 510.123C700.282 481.274 698.368 453.214 694.928 425.628L695.294 429.227H836.265C841.415 453.869 844.621 482.398 845.134 511.584L845.14 512C844.621 541.602 841.415 570.132 835.753 597.766L836.265 594.773H695.294H695.295Z" fill="black"/>
</svg>
