<svg width="1024" height="1024" viewBox="0 0 1024 1024" fill="none" xmlns="http://www.w3.org/2000/svg">
<path d="M544.855 112.482H545.096C578.359 130.801 605.838 160.93 617.166 197.568C644.644 201.666 671.641 209.138 697.431 220.225C720.571 204.076 749.736 197.809 777.697 199.737C791.918 224.805 798.185 255.176 791.195 283.377C803.487 296.634 816.021 309.891 826.145 324.835C837.715 341.949 848.32 359.786 856.274 378.827C871.219 412.573 878.691 449.21 879.414 485.848C879.414 490.186 881.101 495.007 878.691 499.105C875.798 503.202 868.808 500.792 867.844 496.212C861.818 475.724 855.792 454.995 845.669 436.194C838.438 421.491 830.001 407.27 820.36 394.013C811.442 381.479 800.836 369.909 790.23 358.821C785.41 354.483 780.348 350.385 776.009 345.564C763.475 334.477 749.736 324.835 735.274 316.399C719.125 307.24 702.252 299.044 684.415 293.259C662.481 286.028 639.342 282.413 616.443 280.726C594.991 280.002 573.298 280.484 552.086 284.341C544.855 286.269 537.383 286.269 530.393 289.162C519.547 292.054 508.7 294.947 498.335 299.285C480.981 306.275 463.385 313.748 448.682 325.558C443.861 329.897 438.558 333.754 433.738 338.092C413.008 357.134 396.859 380.756 384.084 405.582C372.755 427.517 365.283 451.138 359.739 475.001C356.124 494.284 352.749 513.808 353.231 533.332C352.749 551.409 354.678 569.487 359.498 586.842C364.56 604.92 371.309 622.997 380.71 639.147C389.628 654.091 399.269 668.553 411.321 681.328C424.578 695.549 439.522 708.324 455.913 718.93C488.935 740.382 527.742 751.711 566.79 754.362C578.841 754.362 590.893 754.844 602.704 752.434C613.069 750.747 623.192 747.854 633.075 744.239C665.856 732.428 694.539 709.77 714.304 681.087C723.222 668.553 729.971 654.573 734.551 639.87C741.782 619.623 743.469 597.689 742.746 576.477C741.3 561.774 737.926 547.312 731.9 534.055C718.884 503.684 693.093 479.581 662.722 467.047C645.85 460.298 627.29 455.959 608.971 457.646C581.975 458.851 555.461 471.385 537.624 491.632C525.09 505.613 516.654 523.208 513.28 541.768C511.833 546.589 511.351 551.651 511.592 556.712C510.869 565.631 512.074 574.549 514.244 583.226C518.582 599.617 529.188 613.838 541.722 624.926C554.738 636.736 571.851 642.521 588.724 645.173C595.714 645.173 602.945 645.655 609.935 644.208C616.925 642.521 623.915 640.593 630.423 637.219C634.28 635.049 639.583 635.772 642.475 639.147C644.885 642.28 644.162 647.342 641.029 649.752C636.931 653.127 632.352 656.019 627.531 658.43C615.961 663.25 603.909 668.312 591.134 667.107C578.359 667.83 565.584 667.107 553.292 662.768C536.178 657.466 520.27 648.306 506.772 636.254C492.55 622.997 481.463 606.125 474.955 587.806C464.59 558.159 466.036 524.896 476.401 495.489C485.56 467.529 504.12 443.184 527.019 424.624C543.168 411.608 561.969 402.208 581.975 396.423C595.232 392.807 608.971 390.156 622.71 390.879C641.752 390.397 661.035 392.325 679.595 397.146C693.816 400.762 707.314 406.547 720.571 413.055C753.352 429.927 780.589 456.441 800.354 487.294C809.513 502.238 816.744 518.388 821.806 535.26C826.145 548.517 827.591 562.497 830.242 576.236C830.242 592.145 830.725 607.812 828.796 623.72C853.382 643.244 868.085 673.133 872.906 703.986C850.972 723.51 821.565 735.561 791.918 733.874C781.071 749.542 769.501 764.968 756.244 778.707C745.157 790.518 731.9 799.918 718.884 809.801C718.884 814.621 718.884 819.683 718.161 824.504C713.822 857.526 696.708 887.896 674.051 912C637.895 906.215 602.222 887.896 581.252 857.285C566.549 856.803 552.086 858.008 537.383 856.321C512.315 854.392 487.971 848.607 464.108 840.894C427.471 868.372 380.951 881.871 335.395 879.942C319.486 841.376 318.04 796.785 332.02 757.255C312.978 737.249 296.347 714.832 283.09 690.488C265.012 688.559 247.416 683.256 230.785 676.266C197.281 662.045 167.633 639.629 144.012 612.151C150.52 592.868 160.161 574.549 171.972 558.159C190.291 532.368 214.876 510.433 243.56 496.694C246.934 471.867 251.273 446.8 259.468 422.937C260.914 418.357 262.602 413.778 264.048 409.198C249.345 389.674 238.98 367.017 231.99 343.877C223.554 315.435 220.661 285.305 223.072 255.658C228.857 252.042 235.606 250.114 241.873 247.704C281.885 234.205 325.994 232.277 366.488 244.329C371.791 246.016 377.335 247.462 382.156 250.355C402.162 236.134 424.337 225.046 446.995 215.646C454.467 212.03 462.662 210.102 470.616 207.691C472.785 197.568 477.124 188.168 481.945 179.008C496.648 151.53 519.064 128.873 545.096 112L544.855 112.482Z" fill="black"/>
</svg>
