<svg width="1024" height="1024" viewBox="0 0 1024 1024" fill="none" xmlns="http://www.w3.org/2000/svg">
<path d="M626.71 546.082C603.729 546.082 583.085 556.209 569.063 572.374L532.839 546.861C536.734 536.344 538.876 524.854 538.876 513.168C538.876 501.483 536.734 490.382 533.033 479.866L569.063 454.548C583.085 470.517 603.729 480.645 626.71 480.645C669.166 480.645 703.638 446.173 703.638 403.717C703.638 361.261 669.166 326.789 626.71 326.789C584.254 326.789 549.782 361.261 549.782 403.717C549.782 411.312 550.951 418.713 552.898 425.529L516.869 450.847C501.873 432.151 480.06 419.103 455.327 415.013V371.583C490.188 364.182 516.479 333.216 516.479 296.213C516.479 253.757 482.008 219.285 439.552 219.285C397.095 219.285 362.624 253.757 362.624 296.213C362.624 332.632 388.137 363.208 422.413 371.193V415.207C375.867 423.387 340.227 464.091 340.227 512.974C340.227 561.857 376.062 602.95 422.998 610.935V657.481C388.526 665.076 362.624 695.847 362.624 732.656C362.624 775.112 397.095 809.583 439.552 809.583C482.008 809.583 516.479 775.112 516.479 732.656C516.479 695.847 490.577 665.076 456.106 657.481V610.935C479.866 606.845 501.289 594.381 516.674 575.684L553.093 601.392C551.145 608.208 549.977 615.609 549.977 623.01C549.977 665.466 584.448 699.937 626.905 699.937C669.361 699.937 703.832 665.466 703.832 623.01C703.832 580.553 669.361 546.082 626.905 546.082H626.71ZM626.71 366.13C647.354 366.13 664.103 382.878 664.103 403.522C664.103 424.166 647.354 440.915 626.71 440.915C606.066 440.915 589.317 424.166 589.317 403.522C589.317 382.878 606.066 366.13 626.71 366.13ZM402.159 296.018C402.159 275.374 418.908 258.626 439.552 258.626C460.196 258.626 476.944 275.374 476.944 296.018C476.944 316.662 460.196 333.411 439.552 333.411C418.908 333.411 402.159 316.662 402.159 296.018ZM476.75 732.266C476.75 752.91 460.001 769.659 439.357 769.659C418.713 769.659 401.964 752.91 401.964 732.266C401.964 711.622 418.713 694.874 439.357 694.874C460.001 694.874 476.75 711.622 476.75 732.266ZM439.357 564.778C410.728 564.778 387.358 541.408 387.358 512.779C387.358 484.15 410.728 460.78 439.357 460.78C467.986 460.78 491.356 484.15 491.356 512.779C491.356 541.408 467.986 564.778 439.357 564.778ZM626.515 660.207C605.871 660.207 589.122 643.459 589.122 622.815C589.122 602.171 605.871 585.422 626.515 585.422C647.159 585.422 663.908 602.171 663.908 622.815C663.908 643.459 647.159 660.207 626.515 660.207Z" fill="black"/>
<path d="M512 1002C241.877 1002 22 782.123 22 512C22 241.877 241.877 22 512 22C782.123 22 1002 241.877 1002 512C1002 782.123 782.123 1002 512 1002ZM512 76.7258C271.869 76.7258 76.7258 271.869 76.7258 512C76.7258 752.131 272.064 947.274 512 947.274C751.936 947.274 947.274 751.936 947.274 512C947.274 272.064 752.131 76.7258 512 76.7258Z" fill="black"/>
</svg>
