<svg width="1024" height="1024" viewBox="0 0 1024 1024" fill="none" xmlns="http://www.w3.org/2000/svg">
<path d="M720.042 367.497V284.28C720.067 283.107 720.081 281.725 720.081 280.34C720.081 224.304 696.888 173.684 659.577 137.558L659.524 137.507C622.296 99.2239 570.297 75.4709 512.751 75.4709C455.205 75.4709 403.206 99.2229 366.024 137.459L365.978 137.507C327.729 174.034 303.949 225.429 303.949 282.379C303.949 283.048 303.952 283.715 303.959 284.382L303.958 284.28V367.497H179.883V948.532H844.118V367.497H720.042ZM642.883 367.497H385.705V284.28C385.7 283.85 385.697 283.342 385.697 282.833C385.697 248.07 399.555 216.543 422.049 193.476L422.023 193.503C443.776 170.16 474.698 155.606 509.019 155.606C510.349 155.606 511.674 155.628 512.993 155.671L512.801 155.666C513.08 155.664 513.41 155.663 513.741 155.663C584.89 155.663 642.607 213.177 642.934 284.249V284.28L642.883 367.497Z" fill="black"/>
</svg>
