<svg width="1024" height="1024" viewBox="0 0 1024 1024" fill="none" xmlns="http://www.w3.org/2000/svg">
<path d="M383.907 349.516H149.871C128.964 349.516 112 366.452 112 387.325V618.551C112 639.425 128.964 656.361 149.871 656.361H383.907C404.815 656.361 421.779 639.425 421.779 618.551V387.325C421.779 366.452 404.815 349.516 383.907 349.516ZM366.079 614.776H314.215L216.052 457.065H215.404V614.776H166.835V379.181H218.375L316.862 537.269H317.511V379.181H366.079V614.776Z" fill="black"/>
<path d="M468.294 379.181H515.89V575.834H600.169V614.776H468.294V379.181Z" fill="black"/>
<path d="M617.727 485.76C620.158 474.109 624.102 464.347 629.612 456.526C635.123 448.705 642.362 442.772 651.276 438.727C660.19 434.682 671.157 432.632 684.177 432.632C697.845 432.416 709.191 434.25 718.213 438.08C727.235 441.909 734.42 447.788 739.715 455.717C745.009 463.646 748.737 473.408 750.952 485.058C753.167 496.709 754.247 510.355 754.247 525.996C754.247 541.638 753.059 554.583 750.628 566.233C748.197 577.883 744.253 587.646 738.742 595.413C733.232 603.233 725.992 609.005 717.078 612.726C708.164 616.448 697.197 618.336 684.177 618.336C670.509 618.551 659.164 616.825 650.142 613.212C641.119 609.598 633.934 603.881 628.64 596.06C623.345 588.239 619.618 578.477 617.402 566.718C615.188 554.96 614.107 541.368 614.107 525.942C614.107 510.516 615.296 497.356 617.727 485.706V485.76ZM660.352 551.131C660.784 558.844 661.865 565.424 663.486 570.925C665.106 576.427 667.592 580.742 670.941 583.816C674.237 586.891 678.667 588.455 684.177 588.455C693.415 588.455 699.844 583.601 703.356 573.946C706.868 564.291 708.65 548.326 708.65 526.104C708.65 503.882 706.868 487.917 703.356 478.262C699.844 468.608 693.469 463.753 684.177 463.753C678.667 463.753 674.237 465.318 670.941 468.392C667.646 471.466 665.16 475.781 663.486 481.283C661.811 486.784 660.784 493.365 660.352 501.078C659.92 508.79 659.704 517.151 659.704 526.158C659.704 535.165 659.92 543.526 660.352 551.239V551.131Z" fill="black"/>
<path d="M911.892 605.876C911.892 628.745 906.219 645.897 894.874 657.332C883.529 668.766 864.512 674.484 837.878 674.484C818.483 674.484 803.572 670.385 793.091 662.132C782.61 653.88 777.37 642.176 777.37 626.966H821.022C821.022 632.683 823.345 637.214 827.937 640.504C830.152 642.014 832.529 643.254 835.069 644.117C837.608 644.98 840.309 645.412 843.172 645.412C852.411 645.412 858.948 642.445 862.675 636.512C866.403 630.579 868.294 623.19 868.294 614.398V590.99H867.646C862.999 597.57 857.327 602.856 850.628 606.847C843.875 610.785 836.905 612.78 829.666 612.78C811.622 612.78 798.008 605.93 788.823 592.176C779.693 578.423 775.101 555.392 775.101 523.03C775.101 512.674 775.695 502.102 776.938 491.369C778.126 480.582 780.666 470.873 784.555 462.135C788.391 453.451 794.01 446.332 801.411 440.83C808.813 435.329 818.645 432.578 831.017 432.578C837.392 432.578 844.037 434.358 850.844 437.864C857.651 441.37 863.27 447.734 867.7 457.011H868.348V437.217H912V605.822L911.892 605.876ZM821.508 549.135C822.049 554.637 823.183 559.545 824.804 563.806C826.479 568.067 828.748 571.519 831.773 574.054C834.744 576.589 838.634 577.829 843.496 577.829C848.359 577.829 852.357 576.589 855.544 574.054C858.732 571.519 861.271 568.067 863.161 563.644C865.052 559.221 866.349 553.881 867.105 547.625C867.862 541.368 868.24 534.464 868.24 527.021C868.24 505.446 866.511 490.182 863.107 481.175C859.704 472.167 853.491 467.637 844.415 467.637C839.337 467.637 835.285 468.716 832.205 470.927C829.126 473.138 826.695 476.698 824.912 481.66C823.129 486.622 821.995 493.203 821.454 501.455C820.914 509.707 820.644 519.794 820.644 531.66C820.644 537.808 820.914 543.633 821.454 549.135H821.508Z" fill="black"/>
</svg>
