<svg width="1024" height="1024" viewBox="0 0 1024 1024" fill="none" xmlns="http://www.w3.org/2000/svg">
<path d="M937.601 145.6L876.801 84.8C846.401 54.4 808.001 40 768.001 40C728.001 40 689.601 54.4 659.201 84.8L83.2008 660.8C24.0008 720 24.0008 817.6 83.2008 876.8L144.001 937.6C174.401 968 212.801 982.4 252.801 982.4C292.801 982.4 331.201 968 361.601 937.6L937.601 361.6C998.401 302.4 998.401 206.4 937.601 145.6ZM406.401 470.4C428.801 470.4 448.001 489.6 448.001 512C448.001 534.4 428.801 553.6 406.401 553.6C384.001 553.6 364.801 534.4 364.801 512C364.801 489.6 384.001 470.4 406.401 470.4ZM318.401 892.8C300.801 910.4 278.401 918.4 256.001 918.4C233.601 918.4 208.001 910.4 192.001 892.8L131.201 832C96.0008 796.8 96.0008 740.8 131.201 705.6L267.201 569.6L454.401 756.8L318.401 892.8ZM512.001 364.8C534.401 364.8 553.601 384 553.601 406.4C553.601 428.8 534.401 448 512.001 448C489.601 448 470.401 428.8 470.401 406.4C470.401 384 489.601 364.8 512.001 364.8ZM512.001 659.2C489.601 659.2 470.401 640 470.401 617.6C470.401 595.2 489.601 576 512.001 576C534.401 576 553.601 595.2 553.601 617.6C553.601 640 534.401 659.2 512.001 659.2ZM617.601 553.6C595.201 553.6 576.001 534.4 576.001 512C576.001 489.6 595.201 470.4 617.601 470.4C640.001 470.4 659.201 489.6 659.201 512C659.201 534.4 640.001 553.6 617.601 553.6ZM892.801 318.4L756.801 454.4L569.601 267.2L705.601 131.2C723.201 113.6 745.601 105.6 768.001 105.6C792.001 105.6 814.401 115.2 830.401 131.2L891.201 192C928.001 225.6 928.001 283.2 892.801 318.4Z" fill="black"/>
</svg>
