<svg width="1024" height="1024" viewBox="0 0 1024 1024" fill="none" xmlns="http://www.w3.org/2000/svg">
<path d="M766.401 545.6C776.001 537.6 780.801 526.4 780.801 513.6C780.801 500.8 776.001 491.2 766.401 481.6C756.801 473.6 747.201 468.8 734.401 468.8C723.201 468.8 712.001 473.6 702.401 481.6C692.801 489.6 688.001 500.8 688.001 513.6C688.001 526.4 692.801 536 702.401 545.6C712.001 553.6 721.601 558.4 734.401 558.4C747.201 558.4 758.401 555.2 766.401 545.6ZM512.001 112H467.201V289.6H555.201V203.2C632.001 214.4 696.001 249.6 747.201 308.8C798.401 368 824.001 436.8 824.001 513.6C824.001 600 793.601 673.6 732.801 734.4C672.001 795.2 598.401 825.6 512.001 825.6C425.601 825.6 352.001 795.2 291.201 734.4C230.401 673.6 200.001 600 200.001 513.6C200.001 440 222.401 374.4 268.801 316.8L512.001 558.4L574.401 496L270.401 192V193.6C220.801 230.4 180.801 276.8 152.001 332.8C123.201 388.8 108.801 449.6 108.801 513.6C108.801 625.6 147.201 720 225.601 798.4C304.001 876.8 398.401 915.2 510.401 915.2C622.401 915.2 716.801 876.8 795.201 798.4C873.601 720 912.001 625.6 912.001 513.6C912.001 401.6 873.601 307.2 795.201 228.8C718.401 152 624.001 112 512.001 112ZM257.601 483.2C248.001 491.2 243.201 502.4 243.201 515.2C243.201 528 248.001 537.6 257.601 547.2C267.201 555.2 276.801 560 289.601 560C300.801 560 312.001 555.2 321.601 547.2C331.201 539.2 336.001 528 336.001 515.2C336.001 502.4 331.201 492.8 321.601 483.2C312.001 475.2 302.401 470.4 289.601 470.4C276.801 470.4 265.601 475.2 257.601 483.2ZM480.001 707.2C472.001 716.8 467.201 726.4 467.201 739.2C467.201 750.4 472.001 761.6 480.001 771.2C488.001 780.8 499.201 785.6 512.001 785.6C524.801 785.6 534.401 780.8 544.001 771.2C552.001 761.6 556.801 752 556.801 739.2C556.801 728 552.001 716.8 544.001 707.2C536.001 697.6 524.801 692.8 512.001 692.8C499.201 692.8 489.601 697.6 480.001 707.2Z" fill="black"/>
</svg>
