<svg width="1024" height="1024" viewBox="0 0 1024 1024" fill="none" xmlns="http://www.w3.org/2000/svg">
<path d="M368.487 762.933C368.487 789.918 346.409 814.449 316.971 814.449C287.534 814.449 265.456 792.371 265.456 762.933V542.151C265.456 515.167 287.534 490.636 316.971 490.636C346.409 490.636 368.487 512.714 368.487 542.151V762.933Z" fill="black"/>
<path d="M515.665 821.837C515.665 848.822 493.587 873.353 464.15 873.353C434.712 873.353 415.087 851.275 415.087 821.837V485.758C415.087 458.774 437.165 434.242 466.603 434.242C496.04 434.242 518.119 456.321 518.119 485.758V821.837H515.665Z" fill="black"/>
<path d="M218.856 713.909C218.856 740.893 196.778 765.425 167.34 765.425C137.902 765.425 115.824 743.347 115.824 713.909V593.706C115.824 566.721 137.902 542.19 167.34 542.19C196.778 542.19 218.856 566.721 218.856 593.706V713.909Z" fill="black"/>
<path d="M662.853 875.787C662.853 902.771 640.775 927.303 611.338 927.303C584.353 927.303 562.275 902.771 562.275 875.787V429.317C562.275 402.333 584.353 377.801 613.791 377.801C640.775 377.801 665.307 399.879 665.307 429.317V875.787H662.853Z" fill="black"/>
<path d="M824.77 853.72C814.957 853.72 807.598 851.267 797.785 848.814L736.457 829.189C726.644 826.736 719.285 814.47 724.191 804.658C726.644 794.845 738.91 787.486 748.723 792.392L812.504 812.017C824.77 816.923 839.488 814.47 851.754 804.658C864.02 797.298 868.926 782.58 868.926 770.314V360.641C868.926 341.016 856.66 323.844 839.488 318.938L238.471 137.406C226.206 132.5 211.487 134.953 199.221 142.312C189.409 152.125 182.049 164.39 182.049 179.109V461.219C182.049 473.485 172.237 480.844 162.424 480.844C150.158 480.844 142.799 471.032 142.799 461.219V179.109C142.799 152.125 155.065 127.593 177.143 112.875C199.221 95.7027 226.206 93.2496 250.737 100.609L849.301 282.141C883.645 291.953 908.176 326.297 908.176 363.094V772.767C908.176 799.752 895.911 824.283 873.832 841.455C859.114 846.361 841.942 853.72 824.77 853.72Z" fill="black"/>
</svg>
