<svg width="1024" height="1024" viewBox="0 0 1024 1024" fill="none" xmlns="http://www.w3.org/2000/svg">
<path d="M873.856 490.416V203.126C873.856 173.82 850.179 149.999 820.729 149.999H533.438C510.195 149.278 493.738 152.454 479.301 166.89L166.747 479.589C155.63 490.705 150 504.853 150 521.888C150 538.924 155.63 553.072 166.747 564.188L459.811 857.253C470.928 868.369 485.076 873.999 502.111 873.999C519.146 873.999 533.294 868.369 544.41 857.253L859.13 542.533C872.268 529.396 874.866 511.927 873.856 490.416ZM713.32 363.951C683.869 363.951 660.048 340.131 660.048 310.68C660.048 281.229 683.869 257.408 713.32 257.408C742.771 257.408 766.591 281.229 766.591 310.68C766.591 340.131 742.771 363.951 713.32 363.951Z" fill="black"/>
</svg>
