<svg width="1024" height="1024" viewBox="0 0 1024 1024" fill="none" xmlns="http://www.w3.org/2000/svg">
<path d="M512 1002C241.877 1002 22 782.123 22 512C22 241.877 241.877 22 512 22C782.123 22 1002 241.877 1002 512C1002 782.123 782.123 1002 512 1002ZM512 76.7258C271.869 76.7258 76.7258 271.869 76.7258 512C76.7258 752.131 272.064 947.274 512 947.274C751.936 947.274 947.274 751.936 947.274 512C947.274 272.064 752.131 76.7258 512 76.7258Z" fill="black"/>
<path d="M735.346 462.505C749.163 462.505 760.506 473.642 760.506 487.459V749.37C760.506 763.187 749.37 774.53 735.552 774.53H288.654C274.837 774.53 263.494 763.393 263.494 749.37V274.424C263.494 260.607 274.631 249.471 288.654 249.471H342.892C356.71 249.471 367.846 260.607 367.846 274.424V438.995C368.671 451.163 377.745 461.062 389.913 462.505H430.54C442.913 461.268 453.019 451.369 453.844 438.995V274.424C453.844 260.607 464.98 249.471 478.797 249.471H533.035C546.853 249.471 558.195 260.607 558.195 274.424V437.345C558.195 450.132 567.682 461.062 580.056 462.711H735.14L735.346 462.505ZM663.785 642.131V590.78C663.785 576.962 652.648 565.62 638.831 565.62H584.593C570.775 565.62 559.433 576.756 559.433 590.78V642.131C559.433 655.948 570.569 667.084 584.593 667.084H638.831C652.648 667.084 663.785 655.948 663.785 642.131Z" fill="black"/>
</svg>
