<svg width="1024" height="1024" viewBox="0 0 1024 1024" fill="none" xmlns="http://www.w3.org/2000/svg">
<path d="M112 184.441V839.559H912V184.441H112ZM380.678 492.9H316.484L266.704 408.79H238.21L220.276 492.9H169.825C183.737 464.751 189.938 437.944 200.498 402.088C206.197 382.82 208.375 367.07 217.594 354.169C256.479 299.38 326.205 329.037 326.205 329.037C315.646 281.117 241.897 287.484 241.897 287.484C226.477 268.719 191.447 255.817 162.283 265.2V234.874H306.427C350.005 234.874 385.371 270.394 385.371 313.957C385.371 348.975 361.906 380.307 328.216 389.857H327.546L321.177 393.543L380.678 493.067V492.9ZM186.921 287.987L218.432 292.511C217.091 300.218 210.052 305.412 202.342 304.742H201.671C194.464 304.072 188.598 298.543 187.424 291.338L186.921 287.819V287.987ZM565.719 370.421L505.212 456.206H459.119L510.073 368.746L459.119 279.609H505.212L565.719 365.395V370.421ZM778.75 492.9H579.966V437.273H778.75V492.9Z" fill="black"/>
</svg>
