<svg width="1024" height="1024" viewBox="0 0 1024 1024" fill="none" xmlns="http://www.w3.org/2000/svg">
<path d="M511.158 318.648C424.929 318.648 354.701 387.987 354.701 474.216C354.701 560.445 424.929 630.673 511.158 630.673C541.383 630.673 569.829 621.784 593.831 606.671L732.509 745.349L769.845 708.013L633.834 571.113C655.169 544.444 667.615 510.664 667.615 474.216C666.726 387.987 597.387 318.648 511.158 318.648ZM511.158 577.336C454.265 577.336 408.039 531.11 408.039 474.216C408.039 417.323 454.265 371.986 511.158 371.986C568.051 371.986 614.277 418.212 614.277 475.105C614.277 531.999 568.051 577.336 511.158 577.336Z" fill="black"/>
<path fill-rule="evenodd" clip-rule="evenodd" d="M210.798 349.649C234.073 349.649 254.13 353.487 270.967 361.162C287.805 368.591 300.804 379.363 309.966 393.476C319.127 407.59 323.708 424.428 323.708 443.99C323.708 463.303 319.127 480.017 309.966 494.131C300.804 507.997 287.804 518.644 270.967 526.072C270.797 526.147 270.625 526.217 270.454 526.292L328.536 609.642H263.538L213.623 537.194C212.687 537.206 211.745 537.215 210.798 537.215H158.427V609.642H98.2578V349.649H210.798ZM158.427 489.302H207.454C226.024 489.302 239.891 485.341 249.053 477.417C258.214 469.246 262.796 458.103 262.796 443.99C262.796 429.628 258.214 418.486 249.053 410.562C239.891 402.639 226.025 398.676 207.454 398.676H158.427V489.302Z" fill="black"/>
<path d="M735.206 609.64V349.648H795.376V560.613H925.743V609.64H735.206Z" fill="black"/>
</svg>
