<svg width="1024" height="1024" viewBox="0 0 1024 1024" fill="none" xmlns="http://www.w3.org/2000/svg">
<path d="M895.999 824L649.599 577.6C687.999 529.6 710.399 468.8 710.399 403.2C710.399 248 583.999 121.6 428.799 121.6C273.599 121.6 147.199 249.6 147.199 404.8C147.199 560 273.599 686.4 428.799 686.4C483.199 686.4 534.399 670.4 577.599 643.2L828.799 894.4L895.999 824ZM243.199 404.8C243.199 302.4 326.399 219.2 428.799 219.2C531.199 219.2 614.399 302.4 614.399 404.8C614.399 507.2 531.199 590.4 428.799 590.4C326.399 590.4 243.199 505.6 243.199 404.8Z" fill="black"/>
</svg>
