<svg width="1024" height="1024" viewBox="0 0 1024 1024" fill="none" xmlns="http://www.w3.org/2000/svg">
<path d="M822.402 553.6L926.402 633.6L916.802 649.6L832.002 795.2L824.002 809.6L702.402 761.6C678.402 779.2 656.002 792 632.002 803.2L614.402 931.2C614.402 931.2 608.002 931.2 595.202 931.2H428.802C417.602 931.2 409.602 931.2 409.602 931.2L392.002 803.2C366.402 792 344.002 779.2 321.602 761.6L200.002 809.6L192.002 795.2L107.202 649.6L97.6016 633.6L201.602 553.6C200.002 537.6 200.002 524.8 200.002 512C200.002 499.2 200.002 486.4 201.602 470.4L97.6016 390.4L107.202 374.4L192.002 228.8L200.002 214.4L321.602 262.4C345.602 244.8 368.002 232 392.002 220.8L411.202 92.7998H616.002L633.602 220.8C659.202 232 681.602 244.8 704.002 262.4L825.602 214.4L928.002 390.4L824.002 470.4C827.202 486.4 827.202 499.2 827.202 512C827.202 524.8 825.602 537.6 822.402 553.6ZM409.602 616C438.402 644.8 472.002 659.2 512.002 659.2C552.002 659.2 585.602 644.8 614.402 616C643.202 587.2 657.602 552 657.602 512C657.602 472 643.202 436.8 614.402 408C585.602 379.2 552.002 364.8 512.002 364.8C472.002 364.8 438.402 379.2 409.602 408C380.802 436.8 366.402 472 366.402 512C366.402 552 380.802 587.2 409.602 616Z" fill="black"/>
</svg>
