<svg width="1024" height="1024" viewBox="0 0 1024 1024" fill="none" xmlns="http://www.w3.org/2000/svg">
<path d="M663.11 622.499L574.13 571.096C561.63 563.899 545.644 568.179 538.409 580.68C535.606 585.604 534.508 591.021 535.038 596.286V696.744C535.038 711.101 546.705 722.768 561.099 722.768C575.456 722.768 587.123 711.101 587.123 696.744V638.977L636.973 667.766C649.474 675.001 665.497 670.683 672.694 658.182C679.929 645.682 675.649 629.696 663.11 622.499Z" fill="black"/>
<path d="M441.819 512.336C441.971 503.056 437.084 494.419 429.054 489.76L340.073 438.394C336.209 436.159 331.778 434.985 327.346 434.985C318.216 434.985 309.731 439.872 305.186 447.751C298.14 459.948 302.345 475.593 314.542 482.638L365.832 512.223L314.542 541.845C308.633 545.254 304.39 550.747 302.648 557.338C300.867 563.929 301.776 570.823 305.186 576.732C309.731 584.611 318.216 589.498 327.308 589.498C331.778 589.498 336.209 588.324 340.073 586.089L429.054 534.723C437.008 530.102 441.895 521.541 441.819 512.336Z" fill="black"/>
<path d="M360.268 401.992L449.248 453.357C459.628 459.38 472.431 457.41 480.613 449.417C485.803 444.644 489.023 437.826 489.023 430.25V327.292C489.023 312.898 477.355 301.23 462.999 301.23C448.605 301.23 436.937 312.898 436.937 327.292V385.892L386.405 356.725C373.905 349.49 357.92 353.77 350.684 366.271C343.449 378.771 347.768 394.756 360.268 401.992Z" fill="black"/>
<path d="M560.345 516.503C560.345 518.473 559.209 521.2 557.807 522.64L522.541 557.906C521.139 559.308 518.374 560.444 516.404 560.444H507.427C505.457 560.444 502.692 559.308 501.29 557.906L465.986 522.64C464.584 521.2 463.448 518.473 463.448 516.503V507.525C463.448 505.518 464.584 502.79 465.986 501.389L501.29 466.085C502.692 464.683 505.457 463.547 507.427 463.547H516.404C518.374 463.547 521.139 464.683 522.541 466.085L557.807 501.389C559.209 502.79 560.345 505.518 560.345 507.525V516.503ZM528.867 512.185V511.806C528.867 510.366 528.034 508.359 527.011 507.298L516.594 496.919C515.571 495.858 513.563 495.025 512.086 495.025H511.707C510.268 495.025 508.26 495.858 507.199 496.919L496.82 507.298C495.798 508.321 494.964 510.329 494.964 511.806V512.185C494.964 513.662 495.798 515.67 496.82 516.692L507.199 527.109C508.26 528.132 510.268 528.966 511.707 528.966H512.086C513.563 528.966 515.571 528.132 516.594 527.109L527.011 516.692C528.034 515.67 528.867 513.662 528.867 512.185Z" fill="black"/>
<path d="M574.139 453.357L663.119 401.992C675.619 394.794 679.938 378.771 672.703 366.271C665.468 353.77 649.482 349.49 636.982 356.725L587.132 385.514V327.292C587.132 312.898 575.464 301.23 561.108 301.23C546.714 301.23 535.046 312.898 535.046 327.292V428.205C534.554 433.432 535.577 438.887 538.418 443.811C545.653 456.312 561.638 460.592 574.139 453.357Z" fill="black"/>
<path d="M467.09 568.064C461.181 566.928 454.855 567.875 449.248 571.095L360.268 622.498C347.768 629.695 343.449 645.681 350.684 658.181C357.92 670.719 373.905 675 386.405 667.765L436.937 638.597V696.743C436.937 711.1 448.605 722.767 462.999 722.767C477.355 722.767 489.023 711.1 489.023 696.743V593.785C489.023 580.792 479.515 570.034 467.09 568.064Z" fill="black"/>
<path d="M718.725 447.442C711.528 434.904 695.505 430.624 683.004 437.859L594.024 489.224C585.501 494.149 580.804 503.164 580.956 512.331C580.88 521.46 585.577 530.362 594.024 535.211L683.004 586.614C695.505 593.811 711.49 589.531 718.725 577.03C725.96 564.53 721.642 548.544 709.142 541.309L658.761 512.217L709.142 483.126C721.68 475.928 725.96 459.943 718.725 447.442Z" fill="black"/>
<path d="M172.115 441.8C199.021 449.044 218.824 473.614 218.824 502.809C218.824 532.022 198.995 556.605 172.062 563.831L172.062 732.418C172.062 797.035 224.445 849.418 289.062 849.418H734.652C799.453 849.418 851.978 796.874 851.955 732.073L851.896 566.044L796.732 510.918L867.97 439.629L939.259 510.867L884.133 566.032L884.192 732.061C884.222 814.671 817.261 881.655 734.652 881.655L289.879 881.654C207.036 881.654 139.879 814.497 139.879 731.654L139.879 564C112.618 556.996 92.4727 532.255 92.4727 502.809C92.4727 473.363 112.618 448.622 139.878 441.617L139.824 290.945C139.795 208.335 206.755 141.351 289.365 141.351L827.276 141.351L784.034 98.1097C777.739 91.8151 777.739 81.6094 784.034 75.3147C790.329 69.0201 800.534 69.0201 806.829 75.3148L877.587 146.072C883.881 152.367 883.881 162.573 877.587 168.867L806.829 239.625C800.534 245.92 790.329 245.92 784.034 239.625C777.739 233.331 777.739 223.125 784.034 216.83L827.276 173.588L289.365 173.588C224.563 173.589 172.038 226.132 172.061 290.934V290.949H172.062L172.115 441.8Z" fill="black"/>
</svg>
