<svg width="1024" height="1024" viewBox="0 0 1024 1024" fill="none" xmlns="http://www.w3.org/2000/svg">
<path d="M176.001 500.8V576C176.001 595.2 190.401 614.4 220.801 632C246.401 648 281.601 660.8 323.201 668.8L353.601 638.4L419.201 572.8C384.001 569.6 350.401 564.8 318.401 558.4C259.201 545.6 211.201 526.4 176.001 500.8ZM760.001 774.4L696.001 838.4C740.801 827.2 776.001 816 804.801 800C835.201 782.4 849.601 764.8 849.601 744V668.8C838.401 676.8 824.001 684.8 809.601 692.8C800.001 724.8 784.001 752 760.001 774.4ZM264.001 729.6L276.801 716.8C235.201 705.6 201.601 689.6 174.401 672V747.2C174.401 766.4 188.801 785.6 219.201 803.2C227.201 774.4 243.201 750.4 264.001 729.6ZM804.801 128C774.401 110.4 732.801 96 681.601 86.4C628.801 76.8 572.801 72 512.001 72C451.201 72 393.601 76.8 342.401 86.4C292.801 96 251.201 110.4 220.801 128C190.401 145.6 176.001 163.2 176.001 184V240C176.001 260.8 190.401 278.4 220.801 296C251.201 313.6 292.801 328 344.001 337.6C396.801 347.2 452.801 352 512.001 352C571.201 352 628.801 347.2 681.601 337.6C734.401 326.4 774.401 313.6 804.801 296C835.201 278.4 849.601 260.8 849.601 240V184C851.201 163.2 836.801 145.6 804.801 128ZM816.001 624C838.401 609.6 849.601 593.6 849.601 576V500.8C832.001 513.6 809.601 524.8 785.601 534.4C803.201 561.6 812.801 592 816.001 624ZM512.001 408C443.201 408 379.201 401.6 318.401 388.8C257.601 376 209.601 358.4 172.801 332.8V408C172.801 428.8 187.201 446.4 217.601 464C248.001 481.6 289.601 496 340.801 505.6C382.401 513.6 425.601 518.4 472.001 520L488.001 504C524.801 467.2 572.801 448 624.001 448C668.801 448 710.401 462.4 744.001 489.6C768.001 481.6 787.201 473.6 804.801 464C835.201 446.4 849.601 428.8 849.601 408V332.8C814.401 358.4 768.001 376 707.201 388.8C648.001 401.6 580.801 408 512.001 408ZM715.201 729.6L624.001 820.8C574.401 870.4 494.401 870.4 443.201 820.8C435.201 812.8 428.801 804.8 424.001 795.2L465.601 753.6C467.201 752 470.401 750.4 472.001 748.8C475.201 758.4 480.001 768 488.001 776C513.601 801.6 553.601 801.6 579.201 776L670.401 684.8C696.001 659.2 696.001 619.2 670.401 593.6C644.801 568 604.801 568 579.201 593.6L547.201 625.6C521.601 616 492.801 612.8 465.601 616L534.401 547.2C584.001 497.6 664.001 497.6 715.201 547.2C764.801 598.4 764.801 680 715.201 729.6ZM476.801 878.4L444.801 910.4C419.201 936 379.201 936 353.601 910.4C328.001 884.8 328.001 844.8 353.601 819.2L444.801 728C470.401 702.4 510.401 702.4 536.001 728C544.001 736 548.801 745.6 552.001 755.2C555.201 753.6 556.801 752 558.401 750.4L600.001 708.8C595.201 699.2 588.801 691.2 580.801 683.2C531.201 633.6 451.201 633.6 400.001 683.2L308.801 774.4C259.201 824 259.201 905.6 308.801 955.2C358.401 1004.8 438.401 1004.8 489.601 955.2L558.401 886.4C531.201 891.2 502.401 888 476.801 878.4Z" fill="black"/>
</svg>
