<svg width="1024" height="1024" viewBox="0 0 1024 1024" fill="none" xmlns="http://www.w3.org/2000/svg">
<path d="M489.555 912V867.556C489.555 850.987 502.986 837.556 519.555 837.556C536.123 837.556 549.555 850.987 549.555 867.556V912C549.555 928.569 536.123 942 519.555 942C502.986 942 489.555 928.569 489.555 912ZM246.786 742.343C258.502 730.627 277.496 730.627 289.212 742.343C300.928 754.058 300.928 773.053 289.212 784.769L257.657 816.324C245.941 828.04 226.946 828.04 215.23 816.324C203.515 804.609 203.515 785.613 215.23 773.897L246.786 742.343ZM717.897 742.343C729.613 730.627 748.608 730.627 760.323 742.343L791.879 773.897C803.595 785.613 803.595 804.609 791.879 816.324C780.163 828.04 761.168 828.04 749.452 816.324L717.897 784.769C706.182 773.053 706.182 754.058 717.897 742.343ZM667.332 512C667.332 472.807 651.763 435.219 624.05 407.505C596.336 379.791 558.748 364.223 519.555 364.223C480.362 364.223 442.773 379.791 415.06 407.505C387.346 435.219 371.777 472.807 371.777 512C371.777 551.193 387.346 588.781 415.06 616.495C442.773 644.209 480.362 659.777 519.555 659.777C558.748 659.777 596.336 644.209 624.05 616.495C651.763 588.781 667.332 551.193 667.332 512ZM904.443 497.111C921.012 497.111 934.443 510.543 934.443 527.111C934.443 543.68 921.012 557.111 904.443 557.111H859.999C843.431 557.111 829.999 543.68 829.999 527.111C829.999 510.543 843.431 497.111 859.999 497.111H904.443ZM179.11 482C195.679 482 209.11 495.431 209.11 512C209.11 528.569 195.679 542 179.11 542H119.555C102.986 542 89.5547 528.569 89.5547 512C89.5547 495.431 102.986 482 119.555 482H179.11ZM768.119 265.453C779.835 253.738 798.83 253.737 810.546 265.453C822.262 277.169 822.262 296.164 810.546 307.88L778.99 339.436C767.275 351.151 748.279 351.151 736.563 339.436C724.848 327.72 724.848 308.725 736.563 297.009L768.119 265.453ZM215.23 207.676C226.946 195.96 245.941 195.96 257.657 207.676L289.212 239.231C300.928 250.947 300.928 269.941 289.212 281.657C277.496 293.373 258.502 293.373 246.786 281.657L215.23 250.103C203.515 238.387 203.515 219.392 215.23 207.676ZM489.555 156.444V112C489.555 95.4315 502.986 82 519.555 82C536.123 82 549.555 95.4315 549.555 112V156.444C549.555 173.013 536.123 186.444 519.555 186.444C502.986 186.444 489.555 173.013 489.555 156.444ZM727.332 512C727.332 567.106 705.441 619.955 666.476 658.921C627.51 697.887 574.661 719.777 519.555 719.777C464.449 719.777 411.6 697.887 372.634 658.921C333.668 619.955 311.777 567.106 311.777 512C311.777 456.894 333.668 404.045 372.634 365.079C411.6 326.113 464.449 304.223 519.555 304.223C574.661 304.223 627.51 326.113 666.476 365.079C705.441 404.045 727.332 456.894 727.332 512Z" fill="black"/>
</svg>
