<svg width="1024" height="1024" viewBox="0 0 1024 1024" fill="none" xmlns="http://www.w3.org/2000/svg">
<path d="M658.935 536.069C660.726 535.074 661.72 535.074 663.511 534.278C688.778 521.943 713.449 518.362 734.538 518.362C762.79 518.362 784.675 524.728 793.23 524.728C796.413 524.728 797.806 523.932 797.01 521.346C788.654 490.906 720.412 454.895 720.412 454.895C690.967 420.674 657.741 412.517 636.453 407.941C625.51 405.952 614.568 404.957 603.426 404.957C576.567 404.957 552.494 410.13 538.567 413.512C537.572 412.119 536.577 410.926 535.583 409.732C520.86 391.428 502.556 376.705 482.859 365.166C440.482 340.098 391.937 329.155 358.313 324.181C349.161 322.788 341.203 321.993 334.638 321.396C323.496 320.401 317.129 320.401 317.129 320.401C351.35 331.542 379.005 346.265 399.298 362.778C409.644 370.538 418.995 379.491 426.953 389.438L433.12 389.041L444.461 388.444L438.89 393.418L437.1 395.009L433.319 398.59C436.105 403.166 439.686 406.947 441.676 411.523L446.848 410.727L471.121 406.947L450.032 429.031C451.822 434.601 452.817 439.177 454.608 444.748C454.608 445.345 454.807 445.743 455.006 446.34C473.111 517.566 467.54 576.457 455.403 620.426C450.032 639.724 442.869 658.426 433.717 676.133C429.539 684.092 425.56 690.657 422.377 695.83C419.592 700.207 416.607 704.584 413.225 708.762C420.984 705.778 428.743 702.395 436.304 698.615C451.225 690.856 466.943 680.311 482.859 668.374C493.404 660.416 503.949 652.06 514.692 643.107C539.761 623.012 564.829 601.724 589.301 582.624C613.175 563.723 636.652 547.21 658.537 536.069H658.935ZM655.354 445.743C663.71 445.743 680.223 452.109 693.155 463.251C693.951 464.047 688.579 465.439 681.616 465.439C679.825 465.439 678.234 465.439 676.443 465.241C670.076 465.241 660.726 462.455 653.364 455.094C646.799 448.727 648.788 445.942 655.155 445.942L655.354 445.743Z" fill="black"/>
<path d="M452.419 729.851C443.864 734.228 434.911 738.008 425.958 741.391C421.979 742.982 417.801 743.579 413.424 743.579C394.125 743.579 378.408 728.061 378.209 708.762C378.209 700.406 381.193 692.249 386.565 685.882C389.151 682.5 391.539 679.118 393.727 675.536C391.937 671.756 390.942 667.777 390.544 663.599C390.544 663.599 389.748 654.248 387.162 639.327C387.162 639.327 387.162 639.128 387.162 638.929C384.774 623.41 378.01 583.619 366.271 546.414C366.271 546.414 366.271 546.215 366.271 546.016C366.271 545.42 350.554 494.885 331.454 460.665C328.669 455.492 325.486 450.518 322.501 446.141H134.488V892H483.257V711.15C473.508 717.715 463.362 723.883 452.817 729.453H452.419V729.851Z" fill="black"/>
<path d="M134.488 393.418H270.972C251.076 377.899 229.589 364.569 206.709 353.626C189.201 345.27 181.84 324.181 190.196 306.673C195.966 294.537 208.301 286.578 221.83 286.578C222.825 286.578 223.819 286.578 224.615 286.578C246.898 288.369 268.982 291.95 290.668 297.322C297.433 289.364 307.182 284.589 317.726 284.589C318.522 284.589 326.082 284.589 338.219 285.584C368.659 288.17 427.948 296.725 483.257 324.38V136.566H134.488V393.418Z" fill="black"/>
<path d="M695.145 326.37C643.814 275.039 635.856 196.452 671.469 136.566H536.179V359.396C541.75 364.171 547.321 369.344 552.295 374.716C569.405 371.532 586.714 369.941 604.023 369.742C617.353 369.742 630.484 370.936 643.615 373.323H644.61C658.736 376.506 674.056 380.485 690.967 388.444C710.663 397.795 728.37 410.926 743.292 426.842C750.455 430.821 763.188 438.382 776.518 447.931C807.953 470.214 825.461 490.309 831.429 511.398C835.011 522.54 833.021 534.676 826.058 544.226C821.88 549.996 811.932 559.943 793.827 559.943C787.858 559.943 781.69 558.949 773.931 557.556C763.387 555.765 750.256 553.577 734.936 553.577C714.444 553.577 696.339 557.556 679.228 565.912C677.438 566.907 675.448 567.703 673.658 568.299C665.302 572.676 657.144 577.451 649.385 582.624H884.948V350.244C823.67 386.454 745.68 376.705 695.145 326.569V326.37Z" fill="black"/>
<path d="M726.779 744.574L645.804 825.549H536.179V892H884.948V715.328L791.24 809.036L726.779 744.574Z" fill="black"/>
<path d="M571.792 642.311C560.452 651.662 548.913 661.212 537.373 670.364L536.179 671.358V794.711H633.071L726.978 700.804L791.439 765.265L885.147 671.557V635.148H580.547L571.991 642.112L571.792 642.311Z" fill="black"/>
<path d="M324.491 393.418C339.213 408.538 351.748 425.449 362.093 443.753C362.491 444.549 363.088 445.345 363.486 446.141C383.978 483.743 399.895 535.87 399.895 535.87C408.848 564.519 415.413 595.556 419.592 619.033C420.586 624.405 421.382 629.18 421.979 633.756C423.571 642.709 424.366 649.871 424.963 654.447C425.361 658.426 425.56 660.416 425.56 660.416C428.743 654.447 434.115 638.531 438.492 616.845C446.848 574.666 451.424 510.403 428.346 451.91C427.55 449.921 426.754 447.931 425.759 446.141C417.403 426.842 405.864 408.936 391.738 393.418C388.355 389.836 384.973 386.255 381.193 382.873C362.69 365.365 339.611 351.438 310.166 340.495C302.208 337.511 293.653 334.925 284.501 332.537C263.809 327.165 242.72 323.783 221.432 321.993C252.071 336.516 280.522 355.218 306.386 377.302C312.752 382.276 318.721 387.648 324.093 393.418H324.491Z" fill="black"/>
<path d="M884.948 231.468H866.048C857.692 265.091 823.67 285.385 790.047 277.029C756.423 268.672 736.13 234.651 744.486 201.028C750.057 178.546 767.565 161.038 790.047 155.467V92C762.193 95.3822 736.528 107.916 716.632 127.613C713.847 130.398 711.061 133.383 708.475 136.566C664.307 189.687 671.469 268.672 724.59 312.841C770.947 351.438 838.194 351.438 884.749 312.841C887.734 310.254 890.718 307.668 893.702 304.683C913.399 284.987 926.132 259.123 929.315 231.269H884.749L884.948 231.468Z" fill="black"/>
<path d="M866.048 200.829H929.514C922.551 143.927 877.587 98.9634 820.686 92V155.467C842.969 161.038 860.278 178.546 866.048 200.829Z" fill="black"/>
</svg>
