<svg width="1024" height="1024" viewBox="0 0 1024 1024" fill="none" xmlns="http://www.w3.org/2000/svg">
<path d="M479.324 263.666L391.705 111.904L304.085 263.666L371.82 263.44V623.011L204.55 790.322L157.355 742.829L112 912.097L281.268 866.742L232.773 818.569L400.057 651.245H760.455L760.239 719.978L912 632.359L760.239 544.739L760.46 611.315H411.75V263.453L479.324 263.666Z" fill="black"/>
<path d="M289.345 527.273C289.345 488.68 258.06 457.395 219.468 457.395C180.876 457.395 149.59 488.68 149.59 527.273C149.59 565.865 180.876 597.15 219.468 597.15C258.06 597.15 289.345 565.865 289.345 527.273Z" fill="black"/>
<path d="M532.704 828.928C560.27 828.928 582.616 806.582 582.616 779.016C582.616 751.45 560.27 729.104 532.704 729.104C505.138 729.104 482.791 751.45 482.791 779.016C482.791 806.582 505.138 828.928 532.704 828.928Z" fill="black"/>
<path d="M671.687 433.857C671.687 483.476 631.463 523.7 581.844 523.7C532.226 523.7 492.002 483.476 492.002 433.857C492.002 384.239 532.226 344.015 581.844 344.015C631.463 344.015 671.687 384.239 671.687 433.857Z" fill="black"/>
</svg>
