<svg width="1024" height="1024" viewBox="0 0 1024 1024" fill="none" xmlns="http://www.w3.org/2000/svg">
<path d="M903.51 315.563C893.754 280.417 866.634 253.298 832.209 243.713L831.489 243.542C767.66 226.475 512.001 226.475 512.001 226.475C512.001 226.475 256.001 226.475 192.513 243.542C157.426 253.79 130.415 281.027 120.669 315.51L120.491 316.246C103.424 380.075 103.424 512.683 103.424 512.683C103.424 512.683 103.424 645.803 120.491 709.12C130.247 744.266 157.367 771.385 191.792 780.97L192.512 781.141C257.024 798.208 512 798.208 512 798.208C512 798.208 768 798.208 831.488 781.141C866.634 771.385 893.753 744.265 903.338 709.84L903.509 709.12C920.576 645.12 920.576 512.683 920.576 512.683C920.576 512.683 921.601 379.392 903.51 315.563ZM430.593 634.368V389.632L643.244 512L430.593 634.368Z" fill="black"/>
</svg>
