<svg width="1024" height="1024" viewBox="0 0 1024 1024" fill="none" xmlns="http://www.w3.org/2000/svg">
<path d="M511.998 120C403.198 120 310.398 158.4 233.598 235.2C156.798 312 118.398 403.2 118.398 512C118.398 620.8 156.798 712 233.598 788.8C310.398 865.6 403.198 904 511.998 904C620.798 904 713.598 865.6 790.398 788.8C867.198 712 905.598 619.2 905.598 512C905.598 403.2 867.198 312 790.398 235.2C713.598 158.4 620.798 120 511.998 120ZM551.998 708.8H471.998V473.6H551.998V708.8ZM551.998 393.6H471.998V313.6H551.998V393.6Z" fill="black"/>
</svg>
