<svg width="1024" height="1024" viewBox="0 0 1024 1024" fill="none" xmlns="http://www.w3.org/2000/svg">
<path d="M716.902 868.6H234.102V167H512.102V373.4H716.902V481.8L798.502 400.2V317.4L568.102 87H154.102V947H798.502V702.9L716.902 784.8V868.6ZM592.102 223L662.502 293.4H592.102V223Z" fill="black"/>
<path d="M654.502 495.8H296.502V543.8H654.502V495.8Z" fill="black"/>
<path d="M578.102 620.6H296.502V668.6H530.102L578.102 620.6Z" fill="black"/>
<path d="M494.502 743.8H296.502V791.8H494.502V743.8Z" fill="black"/>
<path d="M983.002 427.7L923.302 368C918.102 363.7 912.102 361.1 905.102 361.1C897.302 361.1 891.302 362.8 886.902 368L836.702 418.2L931.802 513.3L982.002 463.1C987.202 457.9 988.901 451.9 989.802 445.8C989.901 438.1 988.202 432.1 983.002 427.7Z" fill="black"/>
<path d="M558.402 696.7V791.8H653.502L906.902 537.6L812.602 442.4L558.402 696.7Z" fill="black"/>
</svg>
