<svg width="1024" height="1024" viewBox="0 0 1024 1024" fill="none" xmlns="http://www.w3.org/2000/svg">
<path d="M511.998 622.932C573.265 622.932 622.932 573.266 622.932 511.999C622.932 450.732 573.265 401.066 511.998 401.066C450.732 401.066 401.065 450.732 401.065 511.999C401.065 573.266 450.732 622.932 511.998 622.932Z" fill="black"/>
<path d="M934.057 485.375C845.822 337.748 685.566 245.93 511.998 245.93C338.43 245.93 178.174 337.578 89.9396 485.375C80.041 501.759 80.041 522.41 89.9396 538.794C178.174 686.42 338.43 778.239 511.998 778.239C685.566 778.239 845.822 686.42 934.057 538.794C943.956 522.41 943.956 501.759 934.057 485.375ZM511.998 716.799C398.846 716.799 307.198 625.151 307.198 511.999C307.198 398.847 398.846 307.199 511.998 307.199C625.15 307.199 716.798 398.847 716.798 511.999C716.798 625.151 625.15 716.799 511.998 716.799Z" fill="black"/>
</svg>
