<svg width="1024" height="1024" viewBox="0 0 1024 1024" fill="none" xmlns="http://www.w3.org/2000/svg">
<path d="M348.802 163.2C395.202 116.8 448.002 96 512.002 96C576.002 96 633.602 116.8 675.202 163.2C721.602 209.6 742.402 262.4 742.402 326.4C742.402 390.4 721.602 448 675.202 489.6C628.802 536 576.002 556.8 512.002 556.8C448.002 556.8 390.402 536 348.802 489.6C302.402 443.2 281.602 390.4 281.602 326.4C281.602 262.4 302.402 206.4 348.802 163.2ZM974.402 960H49.6016V881.6C49.6016 832 78.4016 788.8 134.402 750.4C192.002 712 256.002 683.2 323.202 668.8C395.202 651.2 454.402 643.2 512.002 643.2C569.602 643.2 628.802 649.6 700.802 668.8C772.802 688 836.802 715.2 889.602 750.4C947.202 788.8 974.402 832 974.402 881.6V960Z" fill="black"/>
</svg>
