<svg width="1024" height="1024" viewBox="0 0 1024 1024" fill="none" xmlns="http://www.w3.org/2000/svg">
<path d="M348.403 370.199L390.339 302.071L444.841 335.619L402.905 403.747L348.403 370.199ZM429.471 420.265L471.407 352.137L525.909 385.685L483.973 453.813L429.471 420.265ZM756.015 467.615C755.167 466.447 754.511 465.103 753.599 463.999L814.399 342.399H819.199C877.52 342.399 924.799 295.12 924.799 236.799C924.799 178.478 877.52 131.199 819.199 131.199C819.145 131.199 819.082 131.199 819.018 131.199C775.204 131.199 737.65 158 721.855 196.102L721.599 196.799H302.399C286.348 158 248.794 131.199 204.98 131.199C204.916 131.199 204.853 131.199 204.789 131.199H204.799C146.478 131.199 99.1992 178.478 99.1992 236.799C99.1992 295.12 146.478 342.399 204.799 342.399H214.399L438.399 756.799C424.435 774.073 415.981 796.304 415.981 820.51C415.981 821.174 415.987 821.837 416 822.497L415.999 822.398C416.528 880.505 463.492 927.469 521.548 927.998H521.599C527.942 927.984 534.139 927.402 540.154 926.302L539.519 926.398C496.007 878.114 469.389 813.862 469.389 743.394C469.389 716.363 473.306 690.246 480.602 665.581L480.11 667.518L308.798 345.598L321.598 353.598L363.198 284.798L347.198 275.198H721.598C726.696 287.61 733.724 298.232 742.425 307.226L742.398 307.198L684.798 422.398C680.071 422.08 674.552 421.898 668.99 421.898C663.428 421.898 657.909 422.079 652.438 422.437L653.182 422.398C637.548 424.477 623.384 428.979 610.444 435.545L611.198 435.198L556.798 401.598L511.998 471.998L566.398 505.598C566.398 505.598 564.798 519.998 564.798 529.598C564.798 531.198 564.974 532.798 565.054 534.398C612.977 492.564 676.089 467.054 745.16 467.054C745.218 467.054 745.277 467.054 745.335 467.054H745.326C748.926 467.07 752.446 467.47 756.014 467.614L756.015 467.615Z" fill="black"/>
<path d="M794.664 782.287H943.839V701.962H794.664V552.07H714.339V701.962H565.164V782.287H714.339V931.462H794.664V782.287Z" fill="black"/>
</svg>
