<svg width="1024" height="1024" viewBox="0 0 1024 1024" fill="none" xmlns="http://www.w3.org/2000/svg">
<path d="M467.09 467.087H392.002C372.12 467.087 356.002 483.204 356.002 503.087V520.912C356.002 540.794 372.12 556.912 392.002 556.912H467.09V632C467.09 651.882 483.207 668 503.09 668H520.915C540.797 668 556.915 651.882 556.915 632V556.912H632.002C651.884 556.912 668.002 540.794 668.002 520.912V503.087C668.002 483.204 651.884 467.087 632.002 467.087H556.915V392C556.915 372.118 540.797 356 520.915 356H503.09C483.207 356 467.09 372.118 467.09 392V467.087Z" fill="black"/>
<path fill-rule="evenodd" clip-rule="evenodd" d="M512.001 869.819C314.378 869.819 154.164 709.614 154.164 511.991C154.164 314.367 314.378 154.162 512.001 154.162C709.624 154.162 869.838 314.367 869.838 511.991C869.838 709.614 709.624 869.819 512.001 869.819ZM239.497 511.99C239.497 662.485 361.506 784.485 512.001 784.485C662.495 784.485 784.504 662.485 784.504 511.99C784.504 361.495 662.495 239.495 512.001 239.495C361.506 239.495 239.497 361.495 239.497 511.99Z" fill="black"/>
</svg>
