<svg width="1024" height="1024" viewBox="0 0 1024 1024" fill="none" xmlns="http://www.w3.org/2000/svg">
<path d="M751.548 267.654L685.381 153.12C682.636 148.83 677.896 146.028 672.502 146.028C669.746 146.028 667.16 146.76 664.929 148.039L665.003 148L586.104 178.549C580.064 173.092 573.41 168.056 566.339 163.623L565.743 163.275C555.549 154.974 543.759 148.098 530.985 143.209L530.108 142.914L517.376 56.3693C515.73 48.9743 509.225 43.5273 501.448 43.5273C500.782 43.5273 500.125 43.5673 499.48 43.6453L499.558 43.6373H369.749C359.509 43.6373 354.474 46.1973 351.914 56.3693L339.199 142.914C325.444 149.412 313.762 156.196 302.714 163.83L303.564 163.275C297.661 167.748 290.996 171.974 283.988 175.634L283.203 176.007L252.585 163.292L204.286 145.474C202.36 144.728 200.131 144.295 197.801 144.295C192.278 144.295 187.322 146.724 183.944 150.573L183.926 150.594L120.284 265.111C117.741 275.351 117.741 280.386 122.844 285.472L171.194 321.107L194.115 338.925C192.393 346.976 191.406 356.227 191.406 365.708C191.406 367.927 191.46 370.134 191.567 372.327L191.555 372.018V374.612C191.489 376.122 191.451 377.893 191.451 379.673C191.451 388.7 192.421 397.5 194.263 405.975L194.115 405.161L125.388 456.02C122.677 459.299 121.033 463.546 121.033 468.178C121.033 471.158 121.714 473.98 122.929 476.495L122.879 476.381L186.504 590.932C188.278 597.505 194.188 602.263 201.208 602.263C203.246 602.263 205.19 601.862 206.966 601.135L206.865 601.172L285.781 568.08C301.068 580.549 318.755 590.867 337.923 598.189L339.234 598.629L351.949 687.717C353.595 695.113 360.1 700.561 367.877 700.561C368.549 700.561 369.211 700.52 369.862 700.441L369.784 700.449H499.593C509.833 700.449 514.868 697.906 517.411 687.717L530.143 598.629C550.558 589.814 568.138 579.587 584.31 567.573L583.596 568.08L662.495 601.172C672.735 603.715 680.313 601.172 682.856 590.932L746.498 476.381C749.041 466.141 749.041 461.106 743.955 456.02L672.685 407.653C674.328 398.801 675.267 388.616 675.267 378.212C675.267 376.928 675.253 375.647 675.224 374.37L675.227 374.56C675.324 372.804 675.379 370.749 675.379 368.68C675.379 359.943 674.397 351.436 672.538 343.262L672.684 344.027L741.411 290.574C754.109 280.385 754.109 275.299 751.549 267.653L751.548 267.654ZM435.917 473.837C381.141 473.759 336.754 429.385 336.657 374.621V374.612C337.391 320.346 381.554 276.637 435.925 276.637C490.296 276.637 534.459 320.346 535.193 374.543L535.194 374.612C535.087 429.388 490.697 473.76 435.925 473.838H435.918L435.917 473.837ZM627.251 616.19L553.625 658.72C550.883 660.487 549.093 663.525 549.093 666.982C549.093 668.757 549.565 670.422 550.391 671.858L550.366 671.81L563.746 717.668C560.09 721.719 556.713 726.18 553.74 730.921L553.506 731.321C547.93 738.205 543.317 746.168 540.05 754.793L539.853 755.385L491.623 766.615C486.866 767.671 483.361 771.855 483.361 776.857C483.361 777.283 483.386 777.704 483.436 778.117L483.431 778.067V861.506C483.431 868.06 485.138 871.319 491.623 872.958L539.836 884.256C544.233 893.54 548.816 901.423 553.969 908.88L553.592 908.303C556.594 912.288 559.427 916.792 561.875 921.527L562.125 922.059L560.282 936.77L548.83 967.848C548.347 969.09 548.067 970.527 548.067 972.029C548.067 975.574 549.625 978.756 552.093 980.927L552.106 980.938L625.715 1021.9C632.269 1023.52 635.528 1023.52 638.805 1020.19L672.102 982.166C677.512 983.317 683.728 983.976 690.098 983.976C691.62 983.976 693.133 983.938 694.637 983.864L694.425 983.872H696.132C697.171 983.918 698.39 983.945 699.615 983.945C705.682 983.945 711.598 983.297 717.297 982.066L716.748 982.165L748.407 1018.55C750.53 1020.33 753.289 1021.41 756.3 1021.41C758.186 1021.41 759.974 1020.98 761.572 1020.23L761.497 1020.26L835.123 979.298C839.329 978.15 842.371 974.363 842.371 969.865C842.371 968.547 842.11 967.29 841.636 966.143L841.66 966.208L826.71 920.333C835.118 910.013 842.081 898.076 847.028 885.141L847.326 884.254L897.28 872.956C902.037 871.907 905.544 867.727 905.544 862.728C905.544 862.297 905.518 861.872 905.467 861.454L905.472 861.504V778.15C905.472 771.613 903.765 768.337 897.28 766.698L847.343 755.468C841.361 741.676 834.427 729.8 826.284 718.878L826.624 719.355L841.574 673.412C843.281 666.875 841.574 661.96 835.037 660.322L761.411 619.362C754.857 617.741 751.598 617.741 748.321 621.069L718.386 659.23C712.436 658.126 705.591 657.495 698.597 657.495C697.7 657.495 696.805 657.505 695.913 657.526L696.046 657.524C694.842 657.457 693.434 657.418 692.016 657.418C686.138 657.418 680.414 658.078 674.915 659.329L675.43 659.231L641.979 622.708C635.425 614.55 632.166 614.55 627.25 616.189L627.251 616.19ZM787.678 819.061C787.61 869.674 746.593 910.685 695.984 910.743H695.978C645.875 910.038 605.53 869.257 605.53 819.052C605.53 768.847 645.875 728.067 695.912 727.362L695.978 727.361C746.587 727.439 787.592 768.449 787.66 819.054V819.061H787.678Z" fill="black"/>
</svg>
