<svg width="1024" height="1024" viewBox="0 0 1024 1024" fill="none" xmlns="http://www.w3.org/2000/svg">
<path d="M720 166.398L667.2 219.198L614.4 166.398L561.6 219.198L512 166.398L459.2 219.198L406.4 166.398L353.6 219.198L304 166.398L251.2 219.198L198.4 166.398V860.798L251.2 807.998L304 860.798L356.8 807.998L409.6 860.798L462.4 807.998L515.2 860.798L568 807.998L620.8 860.798L673.6 807.998L726.4 860.798L779.2 807.998L832 860.798V166.398L779.2 219.198L720 166.398ZM720 687.998H304V617.598H720V687.998ZM720 548.798H304V479.998H720V548.798ZM720 409.598H304V339.198H720V409.598Z" fill="black"/>
</svg>
