<svg width="1024" height="1024" viewBox="0 0 1024 1024" fill="none" xmlns="http://www.w3.org/2000/svg">
<path fill-rule="evenodd" clip-rule="evenodd" d="M666.486 163.512C674.352 163.512 679.161 172.974 676.342 180.317L676.337 180.33C663.537 213.696 680.184 251.132 713.552 263.963L713.551 263.964L749.582 277.827C754.863 279.859 759.036 284.033 761.067 289.314L774.916 325.328L774.917 325.327C784.489 350.274 808.415 366.749 835.11 366.819V366.822C835.193 366.823 835.275 366.82 835.357 366.82C835.44 366.82 835.522 366.823 835.604 366.822L835.604 366.819C843.199 366.799 850.569 365.451 857.449 362.958C865.291 360.115 875.348 365.24 875.348 373.581V703.218C875.347 758.446 830.576 803.218 775.348 803.218H242.455C237.151 803.218 232.064 805.325 228.313 809.075L109.49 927.899C96.891 940.499 75.3478 931.575 75.3477 913.757V263.512C75.3477 208.283 120.119 163.512 175.348 163.512H666.486ZM484.31 293.541C471.45 288.608 457.034 295.028 452.101 307.881L412.341 411.216C410.713 415.428 407.389 418.754 403.177 420.381L299.867 460.107C293.275 462.641 288.061 467.849 285.527 474.447C280.594 487.307 287.014 501.724 299.867 506.657L403.202 546.416C407.414 548.043 410.74 551.368 412.367 555.58L452.094 658.89C455.77 668.539 465.042 674.896 475.368 674.845C485.694 674.896 494.968 668.539 498.644 658.89L538.402 555.555C540.03 551.343 543.355 548.018 547.566 546.391L650.876 506.663C660.353 503.057 666.678 494.04 666.831 483.905C666.92 473.203 660.289 463.593 650.251 459.872L547.541 420.355C543.329 418.728 540.004 415.402 538.377 411.19L498.649 307.881C496.116 301.289 490.908 296.075 484.31 293.541Z" fill="black"/>
<path d="M821.59 99.6729C824.509 92.0671 833.04 88.2674 840.649 91.1865C844.554 92.6858 847.635 95.7718 849.135 99.6729L872.644 160.806C873.607 163.298 875.574 165.266 878.066 166.229L938.845 189.612C944.785 191.814 948.708 197.501 948.655 203.834C948.565 209.831 944.823 215.168 939.215 217.302L878.081 240.81C875.589 241.773 873.621 243.74 872.658 246.232L849.131 307.381C848.383 309.344 847.245 311.076 845.823 312.504C843.11 315.23 839.368 316.843 835.357 316.823C829.247 316.853 823.76 313.092 821.585 307.382L798.076 246.249C797.113 243.757 795.146 241.789 792.653 240.826L731.505 217.299C723.9 214.379 720.1 205.848 723.02 198.238C724.064 195.519 725.877 193.201 728.199 191.536C728.269 191.486 728.339 191.436 728.41 191.387C728.521 191.311 728.632 191.235 728.744 191.162C729.606 190.601 730.53 190.127 731.506 189.752L792.639 166.244C793.268 166.001 793.863 165.692 794.418 165.328H794.42C796.061 164.252 797.343 162.683 798.062 160.82L821.59 99.6729Z" fill="black"/>
</svg>
