<?xml version="1.0" encoding="UTF-8"?>
<svg xmlns="http://www.w3.org/2000/svg" version="1.1" viewBox="0 0 1024 1024">
  <!-- Generator: Adobe Illustrator 28.6.0, SVG Export Plug-In . SVG Version: 1.2.0 Build 709)  -->
  <g>
    <g id="Layer_1">
      <g>
        <path d="M631,581.4l-92.1-35.4c-3.8-1.5-6.8-4.4-8.2-8.2l-35.6-92.6c-2.3-5.9-6.9-10.6-12.9-12.9-11.5-4.4-24.5,1.3-28.9,12.9l-35.6,92.6c-1.5,3.8-4.4,6.8-8.2,8.2l-92.6,35.6c-5.9,2.3-10.6,6.9-12.9,12.9-4.4,11.5,1.3,24.5,12.9,28.9l92.6,35.6c3.8,1.5,6.8,4.4,8.2,8.2l35.6,92.6c3.3,8.7,11.6,14.3,20.9,14.3,9.3,0,17.6-5.7,20.9-14.3l35.6-92.6c1.5-3.8,4.4-6.8,8.2-8.2l92.6-35.6c8.5-3.2,14.2-11.3,14.3-20.4,0-9.6-5.9-18.2-14.9-21.5Z"/>
        <polygon points="629.1 444.4 629.1 444.4 629.1 444.4 629.1 444.4"/>
        <path d="M667,378l53.1-20.4c3.8-1.5,6.8-4.4,8.2-8.2,2.8-7.4-.8-15.7-8.2-18.5l-53.1-20.4c-1.9-.7-3.4-2.2-4.1-4.1l-20.4-53.1c-2.3-6.1-8.6-9.9-15.1-9.1-5.4.7-9.9,4.4-11.8,9.5l-20.3,52.7c-.7,1.9-2.2,3.4-4.1,4.1l-53.1,20.4c-3.8,1.5-6.8,4.4-8.2,8.2-2.8,7.4.8,15.7,8.2,18.5l53.1,20.4c1.9.7,3.4,2.2,4.1,4.1l20.4,53.1c2.1,5.5,7.4,9.2,13.3,9.2,5.9,0,11.2-3.6,13.3-9.2l20.4-53.1c.7-1.9,2.2-3.4,4.1-4.1Z"/>
        <path d="M939.3,510.9l-71.3-71.2-71.2,71.3,55.2,55.1v166c0,64.8-52.4,117.3-117.2,117.3h-445.6c-64.6,0-117-52.4-117-117v-168.6c26.9-7.2,46.8-31.8,46.8-61s-19.8-53.8-46.7-61v-150.9h0c0-64.8,52.5-117.4,117.3-117.4h537.9l-43.2,43.2c-6.3,6.3-6.3,16.5,0,22.8,6.3,6.3,16.5,6.3,22.8,0l70.8-70.8c6.3-6.3,6.3-16.5,0-22.8l-70.8-70.8c-6.3-6.3-16.5-6.3-22.8,0-6.3,6.3-6.3,16.5,0,22.8l43.2,43.2H289.4c-82.6,0-149.6,67-149.5,149.6v150.7c-27.2,7-47.4,31.7-47.4,61.2s20.1,54.2,47.4,61.2v167.7c0,82.8,67.2,150,150,150h444.8c82.6,0,149.6-67,149.5-149.6v-166c0,0,55.1-55.2,55.1-55.2Z"/>
      </g>
    </g>
  </g>
</svg>