<?xml version="1.0" encoding="UTF-8"?>
<svg xmlns="http://www.w3.org/2000/svg" version="1.1" viewBox="0 0 1024 1024">
  <!-- Generator: Adobe Illustrator 28.6.0, SVG Export Plug-In . SVG Version: 1.2.0 Build 709)  -->
  <g>
    <g id="Layer_1">
      <g>
        <path d="M449.1,912c-14,0-26.5-8.5-31.5-21.6l-53.8-139.8c-2.2-5.7-6.7-10.2-12.4-12.4l-139.8-53.8c-17.4-6.7-26.1-26.2-19.4-43.6,3.4-8.9,10.5-16,19.4-19.4l139.8-53.8c5.7-2.2,10.2-6.7,12.4-12.4l53.8-139.8c6.7-17.4,26.2-26.1,43.6-19.4,8.9,3.4,16,10.5,19.4,19.4l53.8,139.8c2.2,5.7,6.7,10.2,12.4,12.4l139,53.5c13.6,5,22.6,18,22.4,32.5-.2,13.7-8.8,25.9-21.6,30.8l-139.8,53.8c-5.7,2.2-10.2,6.7-12.4,12.4l-53.8,139.8c-5,13.1-17.5,21.7-31.5,21.6Z"/>
        <path d="M682.9,414.3c-8.9,0-16.9-5.5-20.1-13.8l-30.8-80.1c-1.1-2.9-3.4-5.1-6.2-6.2l-80.1-30.8c-11.1-4.3-16.7-16.8-12.4-27.9,2.2-5.7,6.7-10.2,12.4-12.4l80.1-30.8c2.9-1.1,5.1-3.4,6.2-6.2l30.6-79.5c2.8-7.7,9.7-13.1,17.8-14.3,9.8-1.2,19.2,4.5,22.7,13.7l30.8,80.1c1.1,2.9,3.4,5.1,6.2,6.2l80.1,30.8c11.1,4.3,16.7,16.8,12.4,27.9-2.2,5.7-6.7,10.2-12.4,12.4l-80.1,30.8c-2.9,1.1-5.1,3.3-6.2,6.2l-30.8,80.1c-3.2,8.3-11.2,13.8-20.1,13.8h0Z"/>
      </g>
    </g>
  </g>
</svg>