<svg width="1024" height="1024" viewBox="0 0 1024 1024" fill="none" xmlns="http://www.w3.org/2000/svg">
<g clip-path="url(#clip0_2_125)">
<path d="M778.582 519.339C777.387 395.606 879.617 336.214 884.054 333.312C843.873 276.434 779.319 239.083 705.92 236.554L705.536 236.544C629.248 228.864 556.885 281.429 517.803 281.429C478.721 281.429 419.67 237.738 356.523 238.762C270.164 241.463 195.629 289.59 155.755 359.944L155.137 361.13C68.2678 510.634 132.95 732.33 217.089 853.333C258.049 912.554 307.03 979.456 370.689 976.896C434.348 974.336 456.022 936.789 530.774 936.789C605.526 936.789 626.518 976.896 692.054 975.53C757.59 974.164 800.769 915.114 841.558 856.063C869.322 816.118 892.488 770.099 908.739 720.932L909.825 717.14C832.314 683.392 779.016 607.642 778.583 519.393V519.337L778.582 519.339ZM655.532 155.989C687.705 118.423 707.287 69.2452 707.287 15.4932C707.287 10.0412 707.086 4.63616 706.69 -0.714844L706.732 0.000156224C649.184 5.79316 598.933 33.1042 563.417 73.6472L563.201 73.8992C531.628 110.422 503.98 169.131 512.001 225.11C566.785 229.377 622.764 197.121 656.726 155.819L655.532 155.989Z" fill="black"/>
</g>
<defs>
<clipPath id="clip0_2_125">
<rect width="1024" height="1024" fill="white"/>
</clipPath>
</defs>
</svg>
