<svg width="1024" height="1024" viewBox="0 0 1024 1024" fill="none" xmlns="http://www.w3.org/2000/svg">
<path d="M812.924 821H194.405C159.387 821 128.916 806.395 108.602 779.991C91.1898 757.262 82 727.183 82 692.944V341.082H234.163V202H941V693.041C941 763.549 883.54 821 812.924 821ZM295.783 749.815H813.021C844.362 749.815 869.9 724.281 869.9 692.944V273.185H305.359V693.041C305.359 714.029 301.974 733.179 295.783 749.815ZM153.196 412.267V692.944C153.196 714.222 158.517 749.815 194.405 749.815C227.295 749.815 234.163 718.865 234.163 692.944V412.267H153.196Z" fill="black"/>
<path d="M373 327H814V384H373V327Z" fill="black"/>
<path d="M373 671H628V690H373V671Z" fill="black"/>
<path d="M373 599H628V618H373V599Z" fill="black"/>
<path d="M373 527H628V546H373V527Z" fill="black"/>
<path d="M373 455H628V473H373V455Z" fill="black"/>
<path d="M674 455H814V615H674V455Z" fill="black"/>
</svg>
