<!-- Generated by IcoMoon.io -->
<svg version="1.1" xmlns="http://www.w3.org/2000/svg" width="32" height="32" viewBox="0 0 32 32">
<path fill="currentColor" d="M7.562 13.007v-3.476l3.319 3.319c0.489-0.803 1.161-1.482 1.959-1.979l-3.309-3.309h3.476l0.001-2.811h-8.258v8.258l2.811-0.001zM7.561 22.469l3.351-3.351c0.496 0.798 1.175 1.47 1.978 1.959l-3.361 3.361h3.476l0.001 2.811h-8.258v-8.258l2.811 0.001v3.476zM12.111 17.92c0.429 0.849 1.127 1.538 1.982 1.955 0.576 0.281 1.223 0.439 1.907 0.439s1.331-0.158 1.907-0.438c0.855-0.417 1.554-1.106 1.983-1.955 0.298-0.59 0.466-1.256 0.466-1.962 0-0.684-0.158-1.331-0.438-1.907-0.417-0.855-1.106-1.554-1.955-1.983-0.59-0.298-1.256-0.466-1.962-0.466s-1.373 0.168-1.962 0.466c-0.848 0.429-1.538 1.127-1.955 1.983-0.281 0.576-0.438 1.223-0.438 1.907 0 0.706 0.168 1.372 0.466 1.962zM22.47 24.439l-3.361-3.361c0.803-0.489 1.482-1.161 1.979-1.959l3.351 3.351v-3.476l2.811-0.001v8.258h-8.258l0.001-2.811h3.476zM24.439 9.53l-3.319 3.319c-0.489-0.803-1.161-1.482-1.959-1.979l3.309-3.309h-3.476l-0.001-2.811h8.258v8.258l-2.811-0.001v-3.476z"></path>
</svg>
