<svg width="1024" height="1024" viewBox="0 0 1024 1024" fill="none" xmlns="http://www.w3.org/2000/svg">
<path fill-rule="evenodd" clip-rule="evenodd" d="M758.012 459.33H566.793L662.398 535.942L758.012 459.33ZM370.92 562.277C368.583 562.277 366.256 562.277 363.919 559.882L275.306 488.061V605.368H478.181V485.666L382.576 559.882C377.912 562.277 373.247 562.277 370.92 562.277ZM662.398 562.277C660.061 562.277 655.397 562.277 655.397 559.882L564.456 488.061V605.368H767.331V485.666L671.727 559.882C667.062 562.277 664.725 562.277 662.398 562.277ZM734.691 119.375H291.636L70.1133 512.001L291.636 904.627H732.354L953.886 512.001L734.691 119.375ZM811.638 679.584H207.697C189.04 679.584 175.047 662.829 175.047 643.668V406.66C175.047 387.509 189.04 370.754 207.697 370.754H811.648C818.649 370.754 830.305 370.754 909.589 523.976L911.917 531.161L909.589 538.346C830.305 679.594 818.649 679.594 811.648 679.594L811.638 679.584ZM466.534 459.33H272.988L368.593 535.942L466.534 459.33ZM207.697 397.089C203.033 397.089 198.368 401.879 198.368 406.669V643.678C198.368 648.468 203.033 655.653 207.697 655.653H806.983C818.649 643.678 853.617 586.227 883.94 531.161C853.627 471.305 816.322 409.064 806.983 397.089H207.697ZM501.512 617.343C501.512 624.528 494.511 631.703 485.182 631.703H256.668C249.666 631.703 247.339 624.518 247.339 617.343V442.575C247.339 435.39 249.676 432.995 256.668 432.995H485.192C492.183 432.995 501.522 435.39 501.522 442.575L501.512 617.343ZM788.336 617.343C788.336 624.528 783.671 631.703 776.67 631.703H550.483C543.491 631.703 538.827 624.518 538.827 617.343V442.575C538.827 435.39 543.491 432.995 550.483 432.995H776.67C783.671 432.995 788.336 435.39 788.336 442.575V617.343Z" fill="black"/>
</svg>
