<svg width="1024" height="1024" viewBox="0 0 1024 1024" fill="none" xmlns="http://www.w3.org/2000/svg">
<path d="M175.786 452.18V595.13C175.786 615.866 189.627 632.455 220.04 650.443C255.624 669.987 297.014 684.486 340.878 691.616L343.108 691.915C360.823 695.175 378.948 697.598 397.465 699.663V519.473C371.967 516.35 346.879 512.51 322.372 507.526C267.131 498.024 217.811 478.658 174.098 451.189L175.786 452.179V452.18ZM661.008 751.222H710.894C710.908 751.222 710.925 751.222 710.942 751.222C727.701 751.222 741.287 764.808 741.287 781.567C741.287 788.344 739.065 794.603 735.31 799.653L735.368 799.572L636.757 934.091C651.195 932.265 665.361 930.114 679.168 927.503C725.309 919.606 766.64 905.152 804.442 884.955L802.236 886.031C832.666 869.425 846.49 851.454 846.49 830.718V687.768C806.32 714.708 758.778 734.123 707.58 742.783L705.451 743.081C691.2 746.136 676.284 748.85 661.009 751.222H661.008ZM288.63 799.572C284.963 794.616 282.761 788.382 282.761 781.635C282.761 764.877 296.346 751.292 313.103 751.29H367.204C351.98 748.935 337.053 746.227 322.421 743.166C267.159 733.654 217.821 714.271 174.098 686.778L175.784 687.767V830.717C175.784 850.071 189.625 868.042 220.038 886.03C255.622 905.574 297.012 920.073 340.876 927.203L343.106 927.502C357.579 930.164 372.307 932.332 387.257 934.192L288.63 799.572ZM626.482 520.293V699.698C645.033 697.633 663.209 695.192 680.549 691.916C726.69 684.019 768.021 669.565 805.823 649.368L803.617 650.444C834.047 633.838 847.871 615.867 847.871 595.131V452.181C807.7 479.116 760.16 498.53 708.964 507.196L706.832 507.494C681.488 512.853 654.386 517.084 626.482 520.293ZM804.453 180.632C768.871 161.062 727.482 146.541 683.618 139.392L681.386 139.092C633.379 130.269 578.136 125.224 521.713 125.224C518.543 125.224 515.378 125.24 512.215 125.272L512.698 125.268C509.762 125.234 506.294 125.215 502.821 125.215C446.695 125.215 391.748 130.264 338.409 139.932L343.994 139.092C297.311 147.284 255.543 161.716 217.13 181.707L219.543 180.564C189.13 197.17 175.289 215.141 175.289 235.877V359.474C175.289 380.21 189.13 396.799 219.543 414.77C255.126 434.331 296.517 448.837 340.385 455.961L342.611 456.259C390.618 465.082 445.861 470.127 502.284 470.127C505.454 470.127 508.619 470.111 511.782 470.079L511.299 470.083C513.735 470.105 516.615 470.118 519.497 470.118C576.694 470.118 632.713 465.076 687.135 455.413L681.385 456.259C727.526 448.366 768.858 433.905 806.654 413.695L804.453 414.77C834.866 398.181 848.707 380.21 848.707 359.474V235.945C848.707 215.209 834.866 198.62 804.453 180.632ZM575.282 802.422V524.867H448.716V802.422H354.235L511.999 1017.75L669.763 802.422H575.282Z" fill="black"/>
</svg>
