<svg width="1024" height="1024" viewBox="0 0 1024 1024" fill="none" xmlns="http://www.w3.org/2000/svg">
<g clip-path="url(#clip0_2_174)">
<path d="M968 497.6C947.2 484.8 918.4 475.2 883.2 468.8C846.4 462.4 808 459.2 766.4 459.2C729.6 459.2 692.8 462.4 660.8 467.2C686.4 486.4 699.2 508.8 699.2 536V576C699.2 580.8 699.2 585.6 697.6 588.8V649.6C720 651.2 742.4 652.8 766.4 652.8C808 652.8 846.4 649.6 883.2 643.2C920 635.2 947.2 627.2 968 614.4C988.8 601.6 998.4 590.4 998.4 576V537.6C998.4 521.6 988.8 510.4 968 497.6ZM766.4 924.8C742.4 924.8 720 923.2 697.6 921.6V924.8C697.6 952 684.8 974.4 659.2 993.6C692.8 998.4 726.4 1001.6 764.8 1001.6C806.4 1001.6 846.4 998.4 881.6 992C918.4 984 945.6 976 966.4 963.2C987.2 950.4 996.8 939.2 996.8 924.8V873.6C972.8 891.2 940.8 904 899.2 912C859.2 920 812.8 924.8 766.4 924.8ZM766.4 691.2C742.4 691.2 720 689.6 697.6 688V764.8C718.4 766.4 740.8 768 764.8 768C806.4 768 846.4 764.8 881.6 758.4C918.4 750.4 945.6 742.4 966.4 729.6C987.2 716.8 996.8 705.6 996.8 691.2V640C972.8 657.6 940.8 670.4 899.2 678.4C859.2 686.4 812.8 691.2 766.4 691.2ZM766.4 808C742.4 808 720 806.4 697.6 804.8V881.6C720 883.2 742.4 884.8 766.4 884.8C808 884.8 846.4 881.6 881.6 875.2C918.4 867.2 945.6 859.2 966.4 846.4C987.2 833.6 996.8 822.4 996.8 808V756.8C972.8 774.4 940.8 787.2 899.2 795.2C859.2 803.2 812.8 808 766.4 808ZM592 667.2C579.2 672 566.4 675.2 552 678.4C545.6 680 539.2 681.6 532.8 681.6C497.6 688 459.2 691.2 419.2 691.2C380.8 691.2 344 688 308.8 681.6C278.4 700.8 249.6 716.8 222.4 726.4L216 729.6H217.6C238.4 742.4 267.2 752 302.4 758.4C336 764.8 374.4 768 416 768C457.6 768 497.6 764.8 532.8 758.4C532.8 758.4 532.8 758.4 534.4 758.4C536 758.4 536 758.4 537.6 758.4C558.4 753.6 576 748.8 590.4 744C601.6 740.8 611.2 736 619.2 731.2C640 718.4 649.6 707.2 649.6 692.8V640C648 641.6 646.4 641.6 646.4 643.2C630.4 652.8 612.8 660.8 592 667.2ZM592 784C579.2 787.2 566.4 792 552 795.2C545.6 796.8 539.2 796.8 532.8 798.4C497.6 804.8 457.6 808 417.6 808C369.6 808 324.8 803.2 283.2 795.2C241.6 787.2 208 774.4 184 756.8V808C184 820.8 193.6 835.2 214.4 846.4C235.2 859.2 264 868.8 299.2 875.2C336 881.6 374.4 884.8 416 884.8C457.6 884.8 496 881.6 529.6 875.2H531.2H532.8C555.2 870.4 572.8 865.6 588.8 859.2C598.4 856 608 851.2 616 846.4C636.8 833.6 646.4 822.4 646.4 808V756.8C644.8 758.4 643.2 758.4 641.6 760C630.4 768 612.8 776 592 784ZM592 900.8C579.2 905.6 566.4 908.8 550.4 912C544 913.6 537.6 915.2 531.2 915.2C496 921.6 457.6 924.8 417.6 924.8C369.6 924.8 326.4 920 283.2 912C241.6 902.4 208 889.6 182.4 873.6V924.8C182.4 937.6 192 952 212.8 963.2C233.6 976 262.4 985.6 297.6 992C334.4 998.4 372.8 1001.6 414.4 1001.6C456 1001.6 496 998.4 531.2 992C553.6 987.2 571.2 982.4 587.2 976C598.4 972.8 608 968 616 963.2C636.8 950.4 646.4 939.2 646.4 924.8V873.6C644.8 873.6 644.8 875.2 643.2 875.2C632 884.8 614.4 892.8 592 900.8ZM619.2 497.6C611.2 492.8 601.6 488 590.4 484.8C584 481.6 576 480 569.6 478.4C536 504 500.8 532.8 465.6 561.6C427.2 593.6 390.4 624 353.6 651.2C374.4 652.8 395.2 654.4 417.6 654.4C459.2 654.4 496 651.2 531.2 644.8C532.8 644.8 532.8 644.8 534.4 644.8H536C556.8 640 576 635.2 590.4 628.8C601.6 625.6 611.2 620.8 619.2 616C640 603.2 649.6 592 649.6 577.6V539.2C651.2 521.6 641.6 510.4 619.2 497.6ZM209.6 500.8C212.8 520 216 537.6 219.2 553.6C224 580.8 225.6 598.4 225.6 598.4C232 585.6 246.4 540.8 254.4 481.6C256 465.6 257.6 448 259.2 430.4C262.4 369.6 256 302.4 230.4 238.4C212.8 195.2 187.2 153.6 148.8 118.4C116.8 88 76.8 64 25.6 44.8C-17.6 28.8 -68.8 17.6 -128 12.8C-57.6 46.4 -6.4 86.4 19.2 108.8C19.2 108.8 73.6 148.8 115.2 224C152 289.6 180.8 384 180.8 384C188.8 406.4 193.6 430.4 200 452.8C203.2 468.8 206.4 486.4 209.6 500.8ZM228.8 128L259.2 126.4L240 144C244.8 152 251.2 158.4 254.4 166.4L305.6 158.4L268.8 196.8C272 206.4 273.6 214.4 276.8 224C296 297.6 300.8 364.8 296 422.4C294.4 440 292.8 456 289.6 472C278.4 537.6 257.6 590.4 240 625.6C233.6 638.4 225.6 651.2 220.8 659.2C211.2 673.6 204.8 681.6 204.8 681.6C216 678.4 227.2 672 240 665.6C241.6 664 243.2 664 246.4 662.4C259.2 656 272 648 286.4 638.4C356.8 592 435.2 523.2 508.8 464C526.4 449.6 544 436.8 561.6 424C585.6 406.4 609.6 392 632 380.8C760 313.6 880 379.2 872 355.2C857.6 302.4 739.2 240 739.2 240C688 180.8 630.4 166.4 593.6 158.4C526.4 145.6 457.6 160 424 168C328 44.8 142.4 16 68.8 9.6C49.6 8 38.4 8 38.4 8C97.6 27.2 145.6 52.8 180.8 81.6C200 96 216 112 228.8 128ZM624 225.6C638.4 225.6 667.2 236.8 689.6 256C691.2 257.6 676.8 260.8 660.8 259.2C649.6 259.2 633.6 254.4 620.8 241.6C609.6 230.4 612.8 225.6 624 225.6Z" fill="black"/>
</g>
<defs>
<clipPath id="clip0_2_174">
<rect width="1024" height="1024" fill="white"/>
</clipPath>
</defs>
</svg>
