<svg width="1024" height="1024" viewBox="0 0 1024 1024" fill="none" xmlns="http://www.w3.org/2000/svg">
<path d="M571.199 620.8C571.199 608 572.799 595.2 574.399 584C534.399 588.8 492.799 592 447.999 592C379.199 592 313.599 585.6 254.399 572.8C193.599 561.6 145.599 542.4 110.399 516.8V592C110.399 611.2 124.799 630.4 155.199 648C185.599 665.6 227.199 680 278.399 689.6C331.199 699.2 387.199 704 447.999 704C478.399 704 507.199 702.4 535.999 700.8V625.6H571.199V620.8ZM535.999 758.4C507.199 761.6 478.399 761.6 447.999 761.6C379.199 761.6 315.199 755.2 254.399 742.4C193.599 729.6 145.599 710.4 108.799 686.4V761.6C108.799 780.8 123.199 800 153.599 817.6C183.999 835.2 225.599 849.6 276.799 859.2C329.599 868.8 385.599 873.6 446.399 873.6C476.799 873.6 507.199 872 535.999 870.4V758.4ZM156.799 312C187.199 329.6 228.799 344 279.999 353.6C332.799 363.2 388.799 368 449.599 368C510.399 368 566.399 363.2 619.199 353.6C671.999 342.4 711.999 329.6 742.399 312C772.799 294.4 787.199 276.8 787.199 256V200C787.199 179.2 772.799 161.6 742.399 144C711.999 126.4 670.399 112 619.199 102.4C566.399 92.8 510.399 88 449.599 88C388.799 88 331.199 92.8 279.999 102.4C228.799 112 187.199 126.4 156.799 144C126.399 161.6 111.999 179.2 111.999 200V256C111.999 276.8 126.399 294.4 156.799 312ZM155.199 480C185.599 497.6 227.199 512 278.399 521.6C331.199 531.2 387.199 536 447.999 536C502.399 536 551.999 532.8 598.399 524.8C606.399 512 614.399 500.8 625.599 489.6C662.399 452.8 707.199 435.2 756.799 435.2C764.799 435.2 772.799 435.2 780.799 436.8C782.399 432 782.399 428.8 782.399 424V348.8C747.199 374.4 700.799 392 639.999 404.8C580.799 417.6 515.199 424 446.399 424C377.599 424 313.599 417.6 252.799 404.8C191.999 392 143.999 374.4 107.199 348.8V424C110.399 444.8 124.799 462.4 155.199 480ZM892.799 676.8V622.4C892.799 585.6 879.999 553.6 852.799 526.4C827.199 499.2 795.199 486.4 756.799 486.4C719.999 486.4 687.999 499.2 660.799 526.4C633.599 553.6 620.799 585.6 620.799 622.4V676.8H585.599V971.2H927.999V676.8H892.799ZM676.799 620.8C676.799 598.4 681.599 577.6 699.199 561.6C715.199 545.6 734.399 536 758.399 536C782.399 536 801.599 544 817.599 561.6C833.599 577.6 843.199 598.4 843.199 620.8V675.2H676.799V620.8Z" fill="black"/>
</svg>
