<!-- Generated by IcoMoon.io -->
<svg version="1.1" xmlns="http://www.w3.org/2000/svg" width="32" height="32" viewBox="0 0 32 32">
<path d="M12.838 2.994h-2.881c-1.631 0-3.006 1.144-3.362 2.669h-5.638c-0.431 0-0.781 0.35-0.781 0.781s0.35 0.781 0.781 0.781h5.638c0.356 1.525 1.725 2.669 3.362 2.669h2.881v-2.006h2.412v-2.888h-2.412v-2.006zM11.275 8.331h-1.319c-1.044 0-1.887-0.844-1.887-1.888s0.844-1.888 1.887-1.888h1.319v3.775zM25.406 7.225h5.637c0.431 0 0.781-0.35 0.781-0.781s-0.35-0.781-0.781-0.781h-5.637c-0.356-1.525-1.725-2.669-3.363-2.669h-2.881v1.725h1.462v3.456h-1.462v1.725h2.881c1.631-0.006 3.006-1.15 3.363-2.675zM22.188 4.563c0.975 0.075 1.744 0.888 1.744 1.881s-0.769 1.806-1.744 1.881v-3.763zM12.838 22.106h-2.881c-1.631 0-3.006 1.144-3.362 2.669h-5.638c-0.431 0-0.781 0.35-0.781 0.781s0.35 0.781 0.781 0.781h5.638c0.356 1.525 1.725 2.669 3.362 2.669h2.881v-1.438l1.488-2.012-1.488-2.012v-1.438zM11.275 27.050v0.394h-1.319c-1.044 0-1.887-0.844-1.887-1.887s0.844-1.887 1.887-1.887h1.319v0.394l1.106 1.494-1.106 1.494zM31.044 24.775h-5.637c-0.356-1.525-1.725-2.669-3.363-2.669h-2.881v1.137l1.756 2.313-1.756 2.313v1.137h2.881c1.631 0 3.006-1.144 3.363-2.669h5.637c0.431 0 0.781-0.35 0.781-0.781s-0.35-0.781-0.781-0.781zM22.044 27.444h-0.6l1.431-1.887-1.431-1.887h0.6c1.044 0 1.887 0.844 1.887 1.887s-0.844 1.887-1.887 1.887zM27.456 13.269c-0.306-0.306-0.8-0.306-1.106 0l-1.625 1.625-1.625-1.625c-0.306-0.306-0.8-0.306-1.106 0s-0.306 0.8 0 1.106l1.625 1.625-1.625 1.625c-0.306 0.306-0.306 0.8 0 1.106 0.15 0.15 0.35 0.231 0.55 0.231s0.4-0.075 0.55-0.231l1.625-1.625 1.625 1.625c0.15 0.15 0.35 0.231 0.55 0.231s0.4-0.075 0.55-0.231c0.306-0.306 0.306-0.8 0-1.106l-1.625-1.625 1.625-1.625c0.319-0.306 0.319-0.8 0.012-1.106zM13.113 14.1v-1.55h-3.156c-1.631 0-3.006 1.144-3.362 2.669h-5.638c-0.431 0-0.781 0.35-0.781 0.781s0.35 0.781 0.781 0.781h5.638c0.356 1.525 1.725 2.669 3.362 2.669h3.156v-1.462c1.050-0.031 1.894-0.894 1.894-1.944s-0.844-1.919-1.894-1.944zM13.056 16.431h-1.506v1.456h-1.594c-1.044 0-1.887-0.844-1.887-1.887s0.844-1.887 1.887-1.887h1.594v1.544h1.506c0.213 0 0.387 0.175 0.387 0.387s-0.175 0.387-0.387 0.387z"></path>
</svg>
