<!-- Generated by IcoMoon.io -->
<svg version="1.1" xmlns="http://www.w3.org/2000/svg" width="32" height="32" viewBox="0 0 32 32">
<path d="M6.386 4.359h-0.739c-0.138 0.001-0.249 0.112-0.25 0.25v16.356c0 0 0 0 0 0.001 0 0.141 0.114 0.255 0.255 0.255 0.004 0 0.008-0 0.012-0l-0.001 0c2.133-0.089 6.596 0.153 9.569 3.263v-15.557c0-0.002 0-0.004 0-0.006 0-0.183-0.052-0.354-0.142-0.499l0.002 0.004c-2.187-3.526-6.395-4.062-8.707-4.067zM26.603 20.967v-16.358c-0-0.138-0.112-0.249-0.25-0.249 0 0 0 0 0 0h-0.739c-2.313 0.005-6.521 0.541-8.707 4.067-0.086 0.14-0.137 0.309-0.137 0.489 0 0.004 0 0.009 0 0.013v-0.001 15.557c2.973-3.111 7.435-3.352 9.569-3.263 0.003 0 0.007 0 0.010 0 0.14 0 0.254-0.114 0.254-0.254 0-0.001 0-0.001 0-0.002v0zM29.479 7.787h-1.338v12.96c0 1.392-0.601 1.994-1.995 1.997-1.957 0.005-5.718 0.388-8.003 2.551 4.41-1.080 9.087-0.172 11.244 0.384 0.027 0.007 0.058 0.011 0.090 0.011 0.206 0 0.372-0.166 0.373-0.371v-17.158c0 0 0 0 0 0 0-0.206-0.167-0.373-0.372-0.373h-0zM3.858 20.749v-12.963h-1.284c-0.236 0-0.427 0.191-0.427 0.427v0 17.037c0.001 0.235 0.191 0.426 0.427 0.426 0.038 0 0.075-0.005 0.11-0.014l-0.003 0.001c2.187-0.557 6.811-1.435 11.174-0.366-2.285-2.163-6.046-2.546-8.003-2.55-1.393-0.003-1.994-0.605-1.994-1.997z"></path>
</svg>
