<svg width="1024" height="1024" viewBox="0 0 1024 1024" fill="none" xmlns="http://www.w3.org/2000/svg">
<path d="M204.355 139.504H180.701C176.298 139.523 172.733 143.088 172.714 147.489V670.892C172.714 670.899 172.714 670.908 172.714 670.917C172.714 675.432 176.374 679.092 180.889 679.092C181.015 679.092 181.14 679.089 181.265 679.084L181.247 679.085C249.514 676.252 392.31 683.966 487.44 783.516V285.681C487.44 285.625 487.441 285.559 487.441 285.493C487.441 279.635 485.783 274.165 482.911 269.525L482.986 269.655C413.013 156.81 278.357 139.675 204.356 139.505L204.355 139.504ZM851.284 670.943V147.474C851.274 143.07 847.702 139.504 843.297 139.504H819.643C745.642 139.675 610.986 156.81 541.013 269.654C538.268 274.119 536.641 279.528 536.641 285.316C536.641 285.456 536.642 285.595 536.644 285.735V285.714V783.549C631.774 683.999 774.57 676.285 842.837 679.118C842.934 679.122 843.047 679.124 843.161 679.124C847.648 679.124 851.285 675.487 851.285 671C851.285 670.98 851.285 670.959 851.285 670.939V670.942L851.284 670.943ZM943.342 249.174H900.539V663.894C900.539 708.438 881.322 727.689 836.71 727.792C774.075 727.946 653.738 740.199 580.608 809.422C721.732 774.862 871.407 803.927 940.425 821.71C941.291 821.935 942.285 822.063 943.309 822.063C949.887 822.063 955.224 816.746 955.256 810.176V261.121C955.256 254.535 949.927 249.194 943.345 249.174H943.342ZM123.459 663.98V249.175H82.3796C74.8386 249.175 68.7266 255.288 68.7266 262.828V808.023C68.7426 815.552 74.8486 821.649 82.3796 821.649C83.5926 821.649 84.7686 821.491 85.8886 821.194L85.7936 821.215C155.767 803.38 303.752 775.306 443.358 809.49C370.227 740.268 249.89 728.031 187.256 727.877C142.678 727.775 123.461 708.523 123.461 663.979L123.459 663.98Z" fill="black"/>
</svg>
