<svg width="1024" height="1024" viewBox="0 0 1024 1024" fill="none" xmlns="http://www.w3.org/2000/svg">
<g clip-path="url(#clip0_2_184)">
<path d="M59.881 793.128C59.881 768.325 59.3495 746.18 60.0581 724.035C60.4124 710.57 54.0346 706.495 42.3419 708.976C28.5232 711.81 14.8817 715.885 0 719.605C1.4173 716.771 1.77163 714.822 3.01176 713.582C91.0616 620.217 155.726 510.554 221.808 401.776C268.224 325.419 314.109 248.53 360.172 171.819C362.652 167.744 365.486 164.024 369.561 158C392.769 188.649 414.915 218.058 437.06 247.467C531.311 372.012 625.03 496.912 720.52 620.572C752.764 662.205 789.968 699.763 833.55 731.475C820.263 726.869 806.976 722.263 791.74 716.948V865.056C650.187 852.655 510.405 840.43 369.384 828.029V259.514L366.195 258.806C357.337 285.557 349.188 312.486 339.266 338.706C316.412 400.536 294.976 463.783 253.697 516.223C232.969 542.443 207.28 564.588 184.603 589.391C180.352 594.174 176.454 602.147 177.163 608.17C183.54 658.839 192.93 709.33 184.603 760.707C176.808 808.895 186.552 799.151 139.781 797.911C114.093 797.203 88.4041 794.9 60.0581 793.128H59.881Z" fill="black"/>
<path d="M1024 601.083C997.072 621.634 970.497 642.008 943.569 662.027C925.144 675.669 905.479 687.361 887.763 701.534C873.235 713.227 859.594 711.633 844.358 704.369C809.28 687.184 783.414 659.192 760.028 629.606C676.053 523.84 592.964 417.366 510.406 310.536C476.568 266.777 444.856 221.601 412.258 176.956C409.601 173.235 407.298 169.338 402.691 162.074C472.139 182.448 539.638 186.7 607.846 185.46C621.487 185.283 635.837 184.751 648.77 180.853C662.235 176.602 667.727 182.094 674.636 191.838C738.06 281.482 799.89 372.543 866.503 459.885C907.959 514.273 955.616 564.056 1018.86 595.237C1020.28 595.945 1021.17 597.717 1024 601.083Z" fill="black"/>
<path d="M817.43 842.555V748.836C820.264 748.836 823.099 747.95 824.87 748.836C850.205 763.895 868.098 752.379 887.232 735.017C912.92 711.809 940.735 691.081 969.612 667.695C972.447 687.36 974.396 702.419 957.742 716.946C913.806 754.859 871.464 794.898 828.414 834.051C825.579 836.708 822.213 838.834 817.43 842.378V842.555Z" fill="black"/>
</g>
<defs>
<clipPath id="clip0_2_184">
<rect width="1024" height="1024" fill="white"/>
</clipPath>
</defs>
</svg>
