<svg width="1024" height="1024" viewBox="0 0 1024 1024" fill="none" xmlns="http://www.w3.org/2000/svg">
<path d="M943.998 686.402L985.598 620.802C929.598 585.602 865.598 580.802 823.998 584.002C822.398 556.802 817.598 529.602 811.198 504.002C852.798 496.002 908.798 470.402 953.598 404.802L889.598 361.602C854.398 414.402 809.598 427.202 783.998 430.402C767.998 400.002 748.798 371.202 726.398 347.202C731.198 329.602 732.798 312.002 732.798 294.402C732.798 240.002 713.598 192.002 681.598 153.602L723.198 112.002L668.798 57.6016L620.798 105.602C588.798 88.0016 551.998 76.8016 513.598 76.8016C475.198 76.8016 438.398 88.0016 406.398 105.602L359.998 59.2016L303.998 112.002L345.598 153.602C318.398 185.602 300.798 225.602 295.998 268.802C294.398 276.802 294.398 284.802 294.398 294.402C294.398 312.002 295.998 329.602 300.798 347.202C286.398 363.202 273.598 380.802 260.798 398.402C254.398 408.002 247.998 419.202 243.198 430.402C219.198 428.802 171.198 416.002 135.998 361.602L71.9984 404.802C116.798 472.002 174.398 496.002 215.998 504.002C209.598 529.602 204.798 556.802 203.198 584.002C161.598 580.802 95.9984 584.002 38.3984 620.802L79.9984 686.402C123.198 659.202 175.998 659.202 204.798 662.402C209.598 696.002 217.598 728.002 228.798 758.402C188.798 776.002 129.598 809.602 99.1984 878.402L169.598 910.402C191.998 862.402 236.798 838.402 263.998 827.202C321.598 913.602 411.198 969.602 511.998 969.602C596.798 969.602 671.998 931.202 729.598 868.802C740.798 856.002 750.398 843.202 759.998 828.802C787.198 840.002 831.998 864.002 852.798 910.402L910.398 884.802L923.198 878.402C892.798 811.202 836.798 777.602 796.798 760.002C809.598 729.602 817.598 697.602 822.398 664.002C852.798 659.202 902.398 660.802 943.998 686.402ZM654.398 289.602C611.198 264.002 563.198 251.202 513.598 251.202C463.998 251.202 415.998 265.602 372.798 289.602C374.398 212.802 436.798 152.002 513.598 152.002C590.398 152.002 652.798 212.802 654.398 289.602Z" fill="black"/>
</svg>
