<svg width="1024" height="1024" viewBox="0 0 1024 1024" fill="none" xmlns="http://www.w3.org/2000/svg">
<path d="M510.257 119H510.117C493.382 119 479.854 132.545 479.854 149.161L479.575 225.541C479.575 242.018 493.103 255.702 509.559 255.841H509.699C526.295 255.841 539.962 242.297 539.962 225.68L540.241 149.161C540.241 132.684 526.713 119.14 510.257 119.14V119Z" fill="black"/>
<path d="M694.348 327.055C702.437 327.055 709.968 323.843 715.825 318.118L771.471 262.125C777.189 256.4 780.257 248.86 780.257 240.621C780.257 224.005 766.729 210.321 749.994 210.321C741.905 210.321 734.234 213.532 728.516 219.257L672.871 275.25C667.153 280.975 664.084 288.516 664.084 296.754C664.084 313.51 677.612 327.055 694.348 327.055Z" fill="black"/>
<path d="M303.991 320.632L304.27 320.911C309.988 326.496 317.379 329.568 325.329 329.568C341.925 329.568 355.592 316.024 355.592 299.268C355.592 291.588 352.664 284.187 347.503 278.602L294.926 224.843C289.347 219.118 281.398 215.766 273.309 215.766C265.22 215.766 257.829 218.838 252.111 224.424C246.393 230.009 243.046 237.968 243.046 246.067C243.046 254.166 245.974 261.427 251.413 267.152L303.991 320.911V320.632Z" fill="black"/>
<path d="M282.793 482.048C282.793 465.153 269.265 451.608 252.529 451.608H180.427C163.97 452.027 151 465.432 151 481.909C151 498.386 163.97 511.651 180.427 512.209H252.529C269.125 512.209 282.793 498.665 282.932 482.048H282.793Z" fill="black"/>
<path d="M843.573 451.469H769.658C753.201 451.888 740.231 465.292 740.231 481.769C740.231 498.246 753.201 511.511 769.658 512.07H843.573C860.03 511.651 873 498.246 873 481.769C873 465.292 860.03 452.027 843.573 451.469Z" fill="black"/>
<path d="M718.336 644.862C712.757 639.276 704.947 636.065 696.858 636.065C680.262 636.065 666.595 649.609 666.595 666.365C666.595 674.464 669.802 682.284 675.52 687.869L727.261 739.813C732.84 745.398 740.65 748.61 748.738 748.61C765.335 748.61 779.002 735.065 779.002 718.309C779.002 710.211 775.794 702.391 770.076 696.806L718.336 644.862Z" fill="black"/>
<path d="M329.373 634.25H328.536C321.284 634.25 314.172 637.042 308.593 642.069L308.314 642.348L251.413 699.459C245.974 705.044 242.906 712.584 242.906 720.543C242.906 737.16 256.434 750.844 273.17 750.844C280.84 750.844 288.232 747.912 293.95 742.606H294.229L351.269 685.216V684.937C356.568 679.351 359.358 672.23 359.358 664.55C359.358 647.934 345.969 634.389 329.373 634.25Z" fill="black"/>
<path d="M444.709 766.902C428.252 767.321 415.282 780.726 415.282 797.203C415.282 813.679 428.252 826.945 444.709 827.503H578.036C594.632 827.503 608.299 813.959 608.299 797.203C608.299 780.446 594.771 766.902 578.036 766.902H444.709Z" fill="black"/>
<path d="M551.677 844.399H471.068C454.471 844.399 440.804 857.943 440.804 874.699C440.804 891.455 454.332 905 471.068 905H551.817C568.273 904.581 581.243 891.176 581.243 874.699C581.243 858.223 567.994 844.818 551.677 844.399Z" fill="black"/>
<path d="M705.226 432.758V434.154C685.004 343.252 605.092 276.368 509.699 276.368C493.521 276.368 477.622 278.183 462.56 281.953C374.978 303.177 309.988 382.21 309.988 476.463C309.988 497.129 313.056 516.957 318.913 535.808C329.094 564.991 342.204 591.522 358.103 615.818C359.916 618.75 362.565 623.079 365.355 627.408L371.63 637.601C389.203 666.086 409.146 698.481 411.517 736.182L412.493 751.123H553.211C565.484 751.123 577.896 751.123 590.169 751.263H592.121C603.418 751.263 612.483 742.187 612.483 730.876V729.62C612.762 725.57 613.18 721.8 614.017 718.17C620.014 691.081 630.055 666.645 643.444 644.443C647.767 636.484 652.37 628.245 657.251 619.728C667.571 601.296 678.31 582.306 687.933 563.036C701.739 537.623 710.107 507.322 710.107 475.206C710.107 460.684 708.434 446.581 705.226 433.037V432.758Z" fill="black"/>
</svg>
