<svg width="1024" height="1024" viewBox="0 0 1024 1024" fill="none" xmlns="http://www.w3.org/2000/svg">
<path d="M566.4 876.801C580.8 862.401 588.8 843.201 588.8 822.401H433.6C433.6 843.201 441.6 860.801 456 876.801C470.4 891.201 489.6 899.201 510.4 899.201C532.8 899.201 552 891.201 566.4 876.801ZM553.6 140.801C542.4 129.601 529.6 124.801 512 124.801C496 124.801 481.6 129.601 470.4 140.801C459.2 152.001 452.8 166.401 452.8 182.401V208.001C396.8 220.801 350.4 251.201 315.2 296.001C278.4 340.801 260.8 393.601 260.8 452.801V665.601L182.4 744.001V782.401H841.6V744.001L763.2 665.601V454.401C763.2 395.201 745.6 342.401 708.8 297.601C672 252.801 625.6 222.401 569.6 209.601V184.001C569.6 166.401 563.2 152.001 553.6 140.801Z" fill="black"/>
</svg>
