<!-- Generated by IcoMoon.io -->
<svg version="1.1" xmlns="http://www.w3.org/2000/svg" width="32" height="32" viewBox="0 0 32 32">
<path d="M26.044 25.094l-0.347-0.542-4.028-6.311h0.004l1.879 0.022c0.208-0 0.394-0.092 0.521-0.236l0.001-0.001 0.007-0.007c0.032-0.035 0.060-0.074 0.084-0.116l0.002-0.003c0.021-0.035 0.040-0.077 0.056-0.12l0.002-0.005c0.004-0.012 0.012-0.022 0.016-0.035v0c0.020-0.061 0.031-0.132 0.031-0.205 0-0.138-0.041-0.267-0.111-0.374l0.002 0.003-4.655-7.284h1.147c0.241-0 0.436-0.195 0.436-0.436 0-0.087-0.026-0.168-0.070-0.236l0.001 0.002-4.809-7.534c-0.072-0.109-0.19-0.182-0.326-0.191l-0.001-0c-0.014 0-0.027-0.010-0.041-0.010-0.001 0-0.001 0-0.002 0-0.153 0-0.288 0.080-0.364 0.2l-0.001 0.002-4.811 7.534c-0.028 0.046-0.049 0.1-0.058 0.157l-0 0.003c0-0.004 0.004-0.009 0.006-0.014l0.017-0.026c-0.007 0.018-0.014 0.039-0.019 0.061l-0.001 0.003c0-0.008-0.005-0.015-0.003-0.024-0.024 0.043-0.039 0.094-0.039 0.149 0 0.145 0.1 0.266 0.234 0.299l0.002 0c0.006 0 0.010 0.006 0.016 0.007l-0.003-0.004c0.011 0.006 0.027 0.005 0.039 0.011v0c-0.014-0.002-0.025-0.005-0.036-0.007l0.002 0.001c0.060 0.033 0.132 0.053 0.208 0.053h0.499l0.622 0.046-4.625 7.243c-0.064 0.116-0.102 0.253-0.102 0.4 0 0.047 0.004 0.093 0.011 0.138l-0.001-0.005c0.020 0.081 0.050 0.152 0.091 0.216l-0.002-0.003c0.019 0.032 0.040 0.059 0.062 0.084l-0.001-0.001c0.048 0.059 0.105 0.11 0.169 0.149l0.003 0.002c0.020 0.011 0.045 0.022 0.071 0.032l0.004 0.001c0.074 0.035 0.159 0.057 0.25 0.062l0.002 0c0.008 0 0.013 0.005 0.021 0.005h2.224l-0.624 0.972-3.75 5.876c-0.083 0.129-0.133 0.286-0.133 0.455 0 0.467 0.379 0.846 0.846 0.846 0 0 0 0 0 0h7.467v4.133h3.901v-4.133h7.296c0.466-0.001 0.843-0.38 0.843-0.846 0-0.169-0.050-0.327-0.135-0.459l0.002 0.003zM10.637 9.601c0.004 0.010 0.003 0.021 0.008 0.030-0.003-0.007-0.002-0.018-0.006-0.028zM7.431 17.65c0 0.011 0 0.021 0.003 0.031-0.002-0.010-0.002-0.021-0.003-0.031zM7.545 17.934l0.028 0.038c-0.010-0.013-0.019-0.025-0.028-0.038zM7.781 18.153c0.010 0.005 0.023 0.011 0.036 0.016l0.003 0.001c-0.013-0.006-0.026-0.010-0.038-0.017zM7.063 23.36v0z"></path>
</svg>
