<svg width="1024" height="1024" viewBox="0 0 1024 1024" fill="none" xmlns="http://www.w3.org/2000/svg">
<path d="M512.342 648.022C587.094 648.022 648.022 587.094 648.022 512.342C648.022 436.737 587.094 375.809 512.342 375.809C436.737 375.809 375.809 436.737 375.809 512.342C375.98 587.094 436.908 648.022 512.342 648.022ZM327.34 464.556C349.015 382.124 422.913 321.196 512.343 321.196H903.17C833.026 176.983 684.375 76.8008 512.343 76.8008C382.807 76.8008 267.095 133.121 187.735 221.697L327.34 464.556ZM345.089 604.161L151.553 267.948C104.62 338.092 76.8008 421.377 76.8008 512.343C76.8008 722.092 225.622 897.026 422.913 937.815L563.201 695.81C546.988 700.418 529.238 702.807 512.342 702.807C441.345 702.807 379.734 664.236 347.307 607.234C346.624 606.381 345.771 605.698 345.088 604.162L345.089 604.161ZM675.841 608.769L481.622 946.348C491.691 947.201 501.59 947.201 512.513 947.201C752.3 947.201 947.372 752.129 947.372 512.342C947.372 464.555 939.692 418.987 925.697 375.809H645.804C680.449 410.454 702.807 458.241 702.807 512.342C702.807 547.158 692.737 580.95 675.841 608.769Z" fill="black"/>
</svg>
