<svg width="1024" height="1024" viewBox="0 0 1024 1024" fill="none" xmlns="http://www.w3.org/2000/svg">
<path d="M220.801 222.398C300.801 142.398 398.401 102.398 512.001 102.398C625.601 102.398 721.601 142.398 803.201 222.398C883.201 302.398 923.201 398.398 923.201 511.998C923.201 625.598 883.201 721.598 803.201 801.598C723.201 881.598 625.601 921.598 512.001 921.598C398.401 921.598 300.801 881.598 220.801 801.598C140.801 721.598 100.801 625.598 100.801 511.998C100.801 398.398 140.801 302.398 220.801 222.398ZM280.001 745.598C344.001 809.598 420.801 841.598 512.001 841.598C603.201 841.598 680.001 809.598 744.001 745.598C808.001 681.598 840.001 603.198 840.001 511.998C840.001 420.798 808.001 343.998 744.001 278.398C680.001 214.398 603.201 182.398 512.001 182.398C420.801 182.398 344.001 214.398 280.001 278.398C216.001 342.398 184.001 420.798 184.001 511.998C184.001 603.198 216.001 679.998 280.001 745.598Z" fill="black"/>
</svg>
