<svg width="1024" height="1024" viewBox="0 0 1024 1024" fill="none" xmlns="http://www.w3.org/2000/svg">
<g clip-path="url(#clip0_2_225)">
<path d="M63.8289 874.664L62.4639 391.507L960.171 389.8V570.536C976.113 581.45 990.061 593.068 1002.83 605.86L1002.84 605.864V170.323C1002.74 158.615 993.227 149.16 981.505 149.16L40.9599 151.037C29.2719 151.037 19.7969 160.512 19.7969 172.2V370.344L21.1619 896.339C21.2589 908.047 30.7729 917.502 42.4949 917.502L519.168 916.478C514.56 904.838 510.381 890.839 507.357 876.414L507.05 874.665L63.8289 874.664ZM541.696 240.296H878.421C879.069 240.242 879.823 240.211 880.585 240.211C895.76 240.211 908.062 252.513 908.062 267.688C908.062 282.863 895.76 295.165 880.585 295.165C879.823 295.165 879.069 295.134 878.323 295.073L878.421 295.079L541.696 296.103C526.521 296.103 514.219 283.801 514.219 268.626C514.219 253.451 526.521 241.149 541.696 241.149V240.296ZM377.685 255.144C379.812 250.239 382.688 246.05 386.219 242.514L386.218 242.515V241.662C389.628 238.412 393.645 235.763 398.077 233.907L398.335 233.811C402.663 231.976 407.696 230.909 412.979 230.909C413.051 230.909 413.123 230.909 413.194 230.91H413.183C413.244 230.91 413.317 230.909 413.39 230.909C418.73 230.909 423.821 231.975 428.462 233.907L428.202 233.811C432.864 235.856 436.869 238.493 440.351 241.69L440.319 241.661C440.689 242.202 441.143 242.656 441.667 243.015L441.684 243.026C444.901 246.425 447.5 250.448 449.275 254.89L449.364 255.143C451.307 259.416 452.439 264.41 452.439 269.668C452.439 269.841 452.438 270.015 452.435 270.187V270.161C452.435 270.182 452.435 270.207 452.435 270.232C452.435 275.56 451.369 280.639 449.438 285.268L449.534 285.01C447.478 290 444.591 294.256 441.004 297.807L441.001 297.81C437.465 301.34 433.276 304.216 428.631 306.242L428.371 306.343C423.99 308.179 418.899 309.245 413.559 309.245C413.486 309.245 413.414 309.245 413.341 309.244H413.352C413.123 309.249 412.854 309.252 412.583 309.252C407.435 309.252 402.536 308.182 398.098 306.252L398.333 306.343C393.348 304.346 389.09 301.513 385.531 297.978L385.533 297.98C382.043 294.421 379.173 290.239 377.107 285.619L377 285.351C375.186 280.915 374.07 275.773 373.929 270.39L373.928 270.333C373.982 264.961 375.106 259.865 377.098 255.23L377 255.485L377.685 255.144ZM250.368 255.144C252.495 250.239 255.371 246.05 258.902 242.514L258.901 242.515V241.662C265.98 235.015 275.529 230.926 286.034 230.91H286.037C286.098 230.91 286.169 230.909 286.241 230.909C291.523 230.909 296.557 231.976 301.137 233.905L300.884 233.811C305.574 235.763 309.592 238.412 313.017 241.677L313.001 241.662L314.366 243.027C317.637 246.425 320.289 250.447 322.124 254.891L322.216 255.144C324 259.57 325.035 264.703 325.035 270.077C325.035 275.451 324 280.584 322.118 285.286L322.216 285.01C318.145 294.711 310.583 302.272 301.141 306.247L300.883 306.343C296.513 308.178 291.434 309.244 286.106 309.244C286.081 309.244 286.056 309.244 286.032 309.244H286.036C285.768 309.251 285.452 309.255 285.135 309.255C280.032 309.255 275.179 308.183 270.789 306.253L271.018 306.343C266.016 304.395 261.75 301.555 258.222 297.984L258.218 297.98C254.612 294.458 251.678 290.267 249.614 285.605L249.514 285.351C247.785 280.891 246.783 275.728 246.783 270.332C246.815 265.035 247.878 259.995 249.781 255.391L249.684 255.655L250.368 255.144ZM123.221 255.144C125.348 250.239 128.224 246.05 131.755 242.514L131.754 242.515C135.184 239.249 139.193 236.552 143.605 234.599L143.871 234.494C148.266 232.728 153.358 231.67 158.687 231.593H158.719C158.741 231.593 158.767 231.593 158.794 231.593C164.179 231.593 169.316 232.659 174.004 234.591L173.738 234.494C178.414 236.491 182.425 239.134 185.878 242.366L185.855 242.345C186.387 242.736 187.016 243.032 187.698 243.192L187.733 243.199C191.004 246.597 193.656 250.619 195.491 255.063L195.583 255.316C197.416 259.735 198.48 264.868 198.48 270.249C198.48 275.63 197.416 280.763 195.486 285.448L195.583 285.182C193.596 290.197 190.698 294.465 187.061 297.971L187.05 297.982C183.527 301.533 179.334 304.414 174.676 306.418L174.421 306.516C169.999 308.351 164.862 309.417 159.477 309.417C159.451 309.417 159.425 309.417 159.398 309.417H159.402C159.219 309.42 159.004 309.422 158.788 309.422C153.661 309.422 148.769 308.417 144.297 306.594L144.554 306.687C139.572 304.608 135.32 301.724 131.754 298.154C128.148 294.632 125.214 290.441 123.15 285.779L123.05 285.525C121.014 281.23 119.719 276.22 119.469 270.936L119.466 270.848C119.514 265.417 120.639 260.262 122.637 255.568L122.538 255.829L123.221 255.144ZM1016.66 740.52L970.24 660.136C968.3 657.131 964.968 655.17 961.178 655.17C959.24 655.17 957.422 655.683 955.852 656.58L955.905 656.552L900.609 677.885C896.362 674.134 891.678 670.645 886.716 667.56L886.273 667.303C879.1 661.39 870.8 656.492 861.798 653.005L861.185 652.796L852.31 592.039C851.132 586.881 846.583 583.09 841.149 583.09C840.692 583.09 840.241 583.117 839.798 583.169L839.852 583.164H748.716C741.548 583.164 737.964 584.871 736.257 592.039L727.212 652.796C717.621 657.315 709.452 662.092 701.752 667.493L702.295 667.132C698.196 670.108 693.508 673.05 688.627 675.678L687.959 676.007L666.455 667.132L632.322 654.503C630.998 654.003 629.467 653.714 627.868 653.714C624.009 653.714 620.544 655.399 618.168 658.073L618.156 658.086L573.612 738.129C571.905 745.297 571.905 748.881 575.489 752.465L609.622 777.553L625.835 790.012C624.573 795.666 623.85 802.159 623.85 808.821C623.85 810.369 623.889 811.908 623.966 813.437L623.957 813.222V814.929C623.909 815.99 623.881 817.234 623.881 818.484C623.881 824.845 624.593 831.039 625.94 836.992L625.834 836.433L577.535 872.102C575.632 874.388 574.476 877.355 574.476 880.592C574.476 882.72 574.975 884.731 575.863 886.515L575.828 886.438L620.372 966.822C621.657 971.426 625.813 974.747 630.746 974.747C632.173 974.747 633.535 974.469 634.78 973.964L634.708 973.99L690.004 950.779C700.741 959.499 713.167 966.708 726.63 971.806L727.55 972.112L736.595 1034.75C737.697 1039.9 742.215 1043.71 747.622 1043.71C748.127 1043.71 748.624 1043.68 749.111 1043.62L749.054 1043.62H840.19C847.358 1043.62 850.771 1041.91 852.649 1034.75L861.524 972.111C875.863 966.004 888.216 958.858 899.561 950.43L899.071 950.778L954.538 973.989C961.535 975.696 966.997 973.989 968.703 966.821L1013.42 886.437C1015.12 879.269 1015.12 875.685 1011.54 872.101L961.536 837.968C962.749 831.775 963.444 824.655 963.444 817.372C963.444 816.453 963.433 815.536 963.411 814.622L963.414 814.758C963.484 813.536 963.524 812.106 963.524 810.667C963.524 804.551 962.799 798.604 961.431 792.908L961.536 793.425L1009.83 755.878C1018.37 749.393 1018.37 745.809 1016.66 740.518L1016.66 740.52ZM794.795 885.246C756.317 885.149 725.163 853.934 725.163 815.444C725.163 776.987 756.338 745.812 794.795 745.812C833.252 745.812 864.427 776.987 864.427 815.444C864.427 815.445 864.427 815.445 864.427 815.446C864.427 853.817 833.466 884.957 795.164 885.247H795.137L794.795 885.246Z" fill="black"/>
</g>
<defs>
<clipPath id="clip0_2_225">
<rect width="1024" height="1024" fill="white"/>
</clipPath>
</defs>
</svg>
