<svg width="1024" height="1024" viewBox="0 0 1024 1024" fill="none" xmlns="http://www.w3.org/2000/svg">
<path d="M204.801 801.598C284.801 881.598 382.401 921.598 496.001 921.598C609.601 921.598 705.601 881.598 787.201 801.598C867.201 721.598 907.201 625.598 907.201 511.998C907.201 398.398 867.201 302.398 787.201 222.398C707.201 142.398 609.601 102.398 496.001 102.398C382.401 102.398 284.801 142.398 204.801 222.398C124.801 302.398 84.8008 398.398 84.8008 511.998C84.8008 625.598 124.801 721.598 204.801 801.598ZM264.001 278.398C328.001 214.398 404.801 182.398 496.001 182.398C587.201 182.398 664.001 214.398 728.001 278.398C792.001 342.398 824.001 420.798 824.001 511.998C824.001 603.198 792.001 679.998 728.001 745.598C664.001 809.598 587.201 841.598 496.001 841.598C404.801 841.598 328.001 809.598 264.001 745.598C200.001 681.598 168.001 603.198 168.001 511.998C168.001 420.798 200.001 343.998 264.001 278.398ZM536.001 243.198H456.001V487.998H315.201V567.998H536.001V243.198Z" fill="black"/>
</svg>
