<svg width="1024" height="1024" viewBox="0 0 1024 1024" fill="none" xmlns="http://www.w3.org/2000/svg">
<path fill="currentColor" d="M511.953 112L327.682 218.392V431.271L486.617 523.079V367.323L427.063 426.877V355.169L511.579 270.654L596.001 355.169V426.877L536.447 367.323V523.546L696.316 431.271V218.392L511.953 112Z" />
<path fill="currentColor" d="M723.616 486.337L564.401 578.238L705.291 659.482L683.415 578.145L745.586 614.045L776.531 729.413L661.07 760.358L598.993 724.458L680.329 702.674L539.252 621.244V805.608L723.616 912L907.979 805.608V592.729L723.616 486.337Z" />
<path fill="currentColor" d="M342.734 702.674L424.165 724.458L361.994 760.358L246.626 729.413L277.571 613.952L339.649 578.145L317.772 659.482L459.13 577.958L300.383 486.337L116.02 592.729V805.608L300.383 912L484.653 805.608V620.776L342.734 702.674Z" />
</svg>
