<svg width="1024" height="1024" viewBox="0 0 1024 1024" fill="none" xmlns="http://www.w3.org/2000/svg">
<path d="M220.801 295.998C251.201 313.598 292.801 326.398 344.001 337.598C396.801 347.198 452.801 351.998 513.601 351.998C574.401 351.998 632.001 347.198 683.201 337.598C736.001 327.998 776.001 313.598 806.401 295.998C836.801 278.398 851.201 260.798 851.201 239.998V183.998C851.201 163.198 836.801 145.598 806.401 127.998C776.001 110.398 734.401 97.5984 683.201 86.3984C632.001 75.1984 576.001 70.3984 515.201 70.3984C454.401 70.3984 396.801 75.1984 345.601 84.7984C292.801 94.3984 252.801 108.798 222.401 126.398C192.001 143.998 177.601 161.598 177.601 182.398V239.998C174.401 259.198 190.401 278.398 220.801 295.998ZM756.801 678.398C748.801 670.398 739.201 665.598 728.001 663.998C724.801 663.998 723.201 663.998 720.001 663.998C708.801 663.998 699.201 667.198 689.601 673.598C688.001 675.198 684.801 676.798 683.201 679.998C673.601 689.598 667.201 702.398 667.201 716.798C667.201 723.198 668.801 729.598 670.401 734.398C673.601 742.398 676.801 748.798 683.201 753.598C692.801 763.198 705.601 769.598 720.001 769.598C734.401 769.598 747.201 764.798 756.801 753.598C766.401 743.998 772.801 731.198 772.801 716.798C772.801 715.198 772.801 713.598 772.801 711.998C769.601 697.598 764.801 687.998 756.801 678.398ZM900.801 481.598H771.201C785.601 476.798 798.401 470.398 809.601 463.998C840.001 446.398 854.401 428.798 854.401 407.998V332.798C819.201 356.798 771.201 375.998 710.401 388.798C649.601 401.598 584.001 407.998 515.201 407.998C444.801 407.998 380.801 401.598 320.001 388.798C259.201 375.998 211.201 358.398 176.001 332.798V407.998C176.001 428.798 190.401 446.398 220.801 463.998C251.201 481.598 292.801 494.398 344.001 505.598C388.801 513.598 436.801 518.398 486.401 519.998C484.801 524.798 484.801 529.598 484.801 534.398V575.998C425.601 574.398 371.201 567.998 318.401 558.398C257.601 545.598 209.601 527.998 174.401 502.398V575.998C174.401 596.798 188.801 614.398 219.201 631.998C249.601 649.598 291.201 662.398 342.401 673.598C385.601 681.598 433.601 686.398 483.201 687.998V743.998C424.001 742.398 369.601 735.998 316.801 726.398C256.001 713.598 208.001 695.998 172.801 670.398V745.598C172.801 766.398 187.201 783.998 217.601 801.598C248.001 819.198 289.601 831.998 340.801 843.198C384.001 851.198 432.001 855.998 481.601 857.598V897.598C481.601 911.998 486.401 924.798 497.601 934.398C507.201 943.998 520.001 950.398 534.401 950.398H897.601C912.001 950.398 924.801 945.598 934.401 934.398C944.001 924.798 950.401 911.998 950.401 897.598V534.398C950.401 519.998 945.601 507.198 934.401 497.598C928.001 486.398 915.201 481.598 900.801 481.598ZM856.001 715.198C856.001 721.598 856.001 726.398 854.401 732.798L892.801 761.598C896.001 764.798 896.001 769.598 894.401 774.398L857.601 836.798C854.401 841.598 851.201 843.198 846.401 841.598L801.601 823.998C792.001 831.998 782.401 836.798 771.201 841.598L763.201 889.598C761.601 894.398 760.001 897.598 755.201 897.598H681.601C676.801 897.598 673.601 894.398 673.601 889.598L667.201 844.798V841.598C656.001 836.798 646.401 830.398 636.801 823.998L592.001 841.598C587.201 843.198 584.001 841.598 580.801 838.398L544.001 774.398C540.801 769.598 542.401 766.398 545.601 761.598L572.801 742.398L585.601 732.798C584.001 726.398 584.001 719.998 584.001 715.198C584.001 708.798 584.001 703.998 585.601 697.598L571.201 687.998L545.601 668.798C542.401 665.598 542.401 660.798 544.001 655.998L580.801 593.598C584.001 588.798 587.201 587.198 592.001 588.798L636.801 606.398C646.401 598.398 656.001 593.598 667.201 588.798L670.401 563.198L673.601 539.198C673.601 534.398 676.801 531.198 681.601 531.198H755.201C760.001 531.198 763.201 534.398 763.201 539.198V540.798L769.601 585.598C780.801 590.398 790.401 596.798 800.001 603.198L844.801 585.598C846.401 585.598 848.001 585.598 849.601 585.598C851.201 585.598 854.401 587.198 856.001 590.398L892.801 654.398C896.001 659.198 894.401 662.398 891.201 667.198L852.801 695.998C854.401 703.998 856.001 710.398 856.001 715.198Z" fill="black"/>
</svg>
