<svg width="1024" height="1024" viewBox="0 0 1024 1024" fill="none" xmlns="http://www.w3.org/2000/svg">
<path d="M992 439.999L764.8 571.199L536 439.999V175.999L764.8 43.1992L992 175.999V439.999ZM488 439.999L259.2 571.199L32 439.999V175.999L259.2 43.1992L488 175.999V439.999ZM898.1 629.399L871.3 656.199L844.5 629.399L817.7 656.199L792.5 629.399L765.7 656.199L738.9 629.399L712.1 656.199L686.9 629.399L660.1 656.199L633 629.399V982.299L659.8 955.499L686.6 982.299L713.4 955.499L740.2 982.299L767 955.499L793.8 982.299L820.6 955.499L847.4 982.299L874.2 955.499L901 982.299L927.8 955.499L954.6 982.299V629.399L927.8 656.199L898.1 629.399ZM898.1 894.399H686.7V858.599H898.1V894.399ZM898.1 823.699H686.7V788.699H898.1V823.699ZM898.1 752.899H686.7V717.099H898.1V752.899ZM583 525.499L512 484.799L283.2 615.999V879.999L512 1012.8L583 971.599V525.499Z" fill="black"/>
</svg>
