<svg width="1024" height="1024" viewBox="0 0 1024 1024" fill="none" xmlns="http://www.w3.org/2000/svg">
<path d="M206.401 611.201C206.401 593.601 203.201 579.201 195.201 568.001C188.801 556.801 176.001 552.001 156.801 552.001V473.601C166.401 473.601 172.801 472.001 179.201 468.801C185.601 465.601 190.401 462.401 193.601 456.001C196.801 451.201 200.001 444.801 201.601 436.801C203.201 428.801 204.801 420.801 204.801 412.801C204.801 400.001 203.201 385.601 201.601 372.801C200.001 360.001 198.401 345.601 195.201 331.201C193.601 316.801 190.401 304.001 188.801 289.601C187.201 275.201 185.601 262.401 185.601 248.001C185.601 224.001 188.801 201.601 196.801 180.801C203.201 160.001 214.401 144.001 230.401 129.601C244.801 115.201 264.001 104.001 288.001 96.0008C310.401 88.0008 339.201 84.8008 371.201 84.8008H395.201V145.601C395.201 150.401 393.601 155.201 392.001 158.401C390.401 161.601 387.201 164.801 384.001 166.401C380.801 168.001 377.601 169.601 374.401 171.201C371.201 172.801 368.001 172.801 366.401 172.801C347.201 172.801 332.801 179.201 324.801 190.401C315.201 201.601 312.001 219.201 312.001 240.001C312.001 256.001 312.001 272.001 313.601 288.001C315.201 304.001 316.801 316.801 318.401 331.201C320.001 345.601 321.601 358.401 323.201 371.201C324.801 384.001 324.801 398.401 324.801 411.201C324.801 422.401 323.201 433.601 320.001 444.801C316.801 456.001 312.001 465.601 305.601 473.601C299.201 481.601 291.201 489.601 283.201 497.601C273.601 504.001 264.001 510.401 251.201 513.601C262.401 516.801 273.601 523.201 283.201 529.601C292.801 536.001 299.201 544.001 305.601 553.601C312.001 563.201 316.801 572.801 320.001 582.401C323.201 593.601 324.801 604.801 324.801 616.001C324.801 628.801 324.801 643.201 323.201 656.001C321.601 668.801 320.001 683.201 318.401 696.001C316.801 710.401 315.201 724.801 313.601 739.201C312.001 753.601 312.001 769.601 312.001 787.201C312.001 808.001 316.801 824.001 324.801 836.801C334.401 848.001 347.201 854.401 366.401 854.401C369.601 854.401 371.201 854.401 374.401 856.001C377.601 857.601 380.801 859.201 384.001 860.801C387.201 862.401 390.401 865.601 392.001 868.801C393.601 872.001 395.201 876.801 395.201 881.601V942.401H371.201C339.201 942.401 312.001 939.201 288.001 931.201C265.601 923.201 246.401 912.001 230.401 897.601C216.001 883.201 204.801 865.601 196.801 846.401C190.401 827.201 185.601 804.801 185.601 779.201C185.601 764.801 187.201 752.001 188.801 737.601C190.401 723.201 192.001 710.401 195.201 696.001C196.801 681.601 200.001 668.801 201.601 654.401C206.401 638.401 206.401 625.601 206.401 611.201ZM817.601 611.201C817.601 624.001 819.201 638.401 820.801 651.201C822.401 664.001 824.001 678.401 827.201 692.801C828.801 705.601 830.401 720.001 833.601 734.401C835.201 748.801 836.801 761.601 836.801 776.001C836.801 800.001 833.601 822.401 825.601 843.201C819.201 862.401 808.001 880.001 792.001 894.401C777.601 908.801 758.401 920.001 734.401 928.001C712.001 936.001 683.201 939.201 651.201 939.201H627.201V878.401C627.201 873.601 628.801 868.801 630.401 865.601C632.001 862.401 635.201 859.201 638.401 857.601C641.601 856.001 644.801 854.401 648.001 852.801C651.201 851.201 654.401 851.201 656.001 851.201C675.201 851.201 689.601 844.801 697.601 833.601C707.201 822.401 710.401 804.801 710.401 784.001C710.401 768.001 710.401 752.001 708.801 736.001C707.201 721.601 705.601 707.201 704.001 692.801C702.401 678.401 700.801 665.601 699.201 652.801C697.601 640.001 697.601 625.601 697.601 612.801C697.601 601.601 699.201 590.401 702.401 579.201C705.601 568.001 710.401 558.401 716.801 550.401C723.201 542.401 731.201 534.401 739.201 526.401C748.801 520.001 758.401 515.201 769.601 510.401C758.401 507.201 747.201 500.801 739.201 494.401C729.601 488.001 723.201 480.001 716.801 470.401C710.401 460.801 705.601 451.201 702.401 441.601C699.201 430.401 697.601 419.201 697.601 408.001C697.601 393.601 697.601 380.801 699.201 368.001C700.801 355.201 702.401 340.801 704.001 328.001C705.601 313.601 707.201 299.201 708.801 284.801C710.401 270.401 710.401 254.401 710.401 236.801C710.401 216.001 705.601 200.001 697.601 187.201C688.001 176.001 675.201 169.601 656.001 169.601C652.801 169.601 651.201 169.601 648.001 168.001C644.801 166.401 641.601 164.801 638.401 163.201C635.201 161.601 632.001 158.401 630.401 155.201C628.801 152.001 627.201 147.201 627.201 142.401V84.8008H651.201C683.201 84.8008 710.401 88.0008 734.401 96.0008C756.801 104.001 776.001 115.201 792.001 129.601C806.401 144.001 817.601 161.601 825.601 180.801C832.001 201.601 836.801 224.001 836.801 248.001C836.801 262.401 835.201 275.201 833.601 289.601C832.001 304.001 830.401 316.801 827.201 331.201C825.601 344.001 822.401 358.401 820.801 372.801C819.201 385.601 817.601 400.001 817.601 412.801C817.601 420.801 819.201 430.401 820.801 436.801C822.401 444.801 825.601 451.201 828.801 456.001C832.001 460.801 836.801 465.601 843.201 468.801C849.601 472.001 857.601 473.601 865.601 473.601V552.001C848.001 552.001 835.201 556.801 827.201 568.001C820.801 579.201 817.601 593.601 817.601 611.201Z" fill="black"/>
</svg>
