<svg width="1024" height="1024" viewBox="0 0 1024 1024" fill="none" xmlns="http://www.w3.org/2000/svg">
<path d="M257.599 662.401C279.999 684.801 307.199 696.001 339.199 696.001H593.599C625.599 696.001 652.799 684.801 675.199 662.401C692.799 644.801 705.599 596.801 708.799 574.401H743.999C793.599 574.401 836.799 556.801 871.999 521.601C907.199 486.401 924.799 443.201 924.799 393.601C924.799 344.001 907.199 300.801 871.999 265.601C841.599 235.201 804.799 217.601 763.199 212.801L764.799 198.401C764.799 188.801 761.599 182.401 755.199 174.401C748.799 168.001 740.799 164.801 731.199 164.801H199.999C190.399 164.801 183.999 168.001 175.999 174.401C169.599 180.801 166.399 188.801 166.399 198.401L219.199 561.601C220.799 563.201 233.599 638.401 257.599 662.401ZM807.999 329.601C825.599 347.201 833.599 368.001 833.599 393.601C833.599 419.201 825.599 440.001 807.999 457.601C790.399 475.201 769.599 483.201 743.999 483.201H723.199L748.799 304.001C771.199 304.001 791.999 313.601 807.999 329.601ZM132.799 824.001C155.199 846.401 182.399 857.601 212.799 857.601H782.399C814.399 857.601 839.999 846.401 862.399 824.001C884.799 801.601 895.999 774.401 895.999 744.001H99.1992C99.1992 774.401 110.399 801.601 132.799 824.001Z" fill="black"/>
</svg>
