<svg width="1024" height="1024" viewBox="0 0 1024 1024" fill="none" xmlns="http://www.w3.org/2000/svg">
<path d="M329.6 187.2H224V137.6H72V387.2H329.6V187.2ZM281.6 339.2H120V185.6H176V235.2H281.6V339.2ZM382.4 137.6V387.2H640V187.2H534.4V137.6H382.4ZM593.6 235.2V339.2H430.4V185.6H486.4V235.2H593.6ZM694.4 137.6V387.2H952V187.2H846.4V137.6H694.4ZM904 235.2V339.2H742.4V185.6H798.4V235.2H904ZM748.8 467.2L723.2 448H280L249.6 472L113.6 579.2L72 612.8V888H952V608L907.2 576L748.8 467.2ZM665.6 792H168V681.6H665.6V792ZM803.2 792C772.8 792 747.2 766.4 747.2 736C747.2 705.6 772.8 680 803.2 680C833.6 680 859.2 705.6 859.2 736C859.2 766.4 835.2 792 803.2 792Z" fill="black"/>
</svg>
