<svg width="1024" height="1024" viewBox="0 0 1024 1024" fill="none" xmlns="http://www.w3.org/2000/svg">
<path fill-rule="evenodd" clip-rule="evenodd" d="M229.789 959.146H793.748C882.114 959.146 953.748 887.512 953.748 799.146V230.385C953.748 142.019 882.114 70.3848 793.748 70.3848H229.789C141.424 70.3848 69.7891 142.019 69.7891 230.385V799.146C69.7891 887.512 141.424 959.146 229.789 959.146ZM337.775 150.385H229.789C185.606 150.385 149.789 186.202 149.789 230.385V799.146C149.789 843.329 185.606 879.146 229.789 879.146H337.775V150.385ZM605.762 150.385H417.775V879.146H605.762V150.385ZM685.762 150.385V879.146H793.748C837.931 879.146 873.748 843.329 873.748 799.146V230.385C873.748 186.202 837.931 150.385 793.748 150.385H685.762Z" fill="black"/>
</svg>
