<svg width="1024" height="1024" viewBox="0 0 1024 1024" fill="none" xmlns="http://www.w3.org/2000/svg">
<path d="M241.146 302.823C223.898 303.175 208.058 291.207 204.01 273.783C199.434 253.543 212.106 233.479 232.17 228.903L767.738 106.935C787.978 102.359 807.866 115.031 812.618 135.095C817.194 155.335 804.522 175.399 784.458 179.975L248.89 301.943C246.25 302.471 243.786 302.823 241.146 302.823Z" fill="black"/>
<path d="M841.834 301.063C826.17 276.423 799.418 261.639 770.202 261.639C740.986 261.639 714.234 276.247 698.57 300.887L543.162 544.471C534.186 558.727 529.786 575.623 531.722 592.343C545.274 711.495 646.474 804.071 769.322 804.071C892.17 804.071 997.066 708.151 1007.45 585.831C1008.51 573.335 1005.69 560.839 999.002 550.103L842.01 301.239L841.834 301.063ZM618.49 564.887L761.578 341.191C764.042 337.319 767.562 336.615 770.026 336.615C772.49 336.615 776.01 337.495 778.474 341.367L920.154 565.063H618.314L618.49 564.887Z" fill="black"/>
<path d="M327.562 415.287C311.898 390.647 285.146 375.863 255.93 375.863C226.714 375.863 199.962 390.471 184.298 415.111L28.8901 658.695C19.9141 672.951 15.5142 689.847 17.4502 706.567C31.0022 825.719 132.202 918.295 255.05 918.295C377.898 918.295 482.794 822.375 493.178 700.055C494.234 687.559 491.418 675.063 484.73 664.327L327.738 415.463L327.562 415.287ZM104.218 679.111L247.306 455.415C249.77 451.543 253.29 450.839 255.754 450.839C258.218 450.839 261.738 451.719 264.202 455.591L405.882 679.287H104.218V679.111Z" fill="black"/>
</svg>
