<svg width="1024" height="1024" viewBox="0 0 1024 1024" fill="none" xmlns="http://www.w3.org/2000/svg">
<path d="M972.799 825.6L958.399 828.8L831.999 704L939.199 595.2L926.399 548.8L878.399 536L700.799 713.6L612.799 803.2L625.599 849.6L671.999 862.4L780.799 755.2L905.599 881.6L902.399 896L942.399 936L998.399 921.6L1012.8 865.6L972.799 825.6ZM687.999 156.8L257.599 587.2L359.999 689.6L790.399 259.2L859.199 88L687.999 156.8ZM383.999 409.6L486.399 307.2L335.999 156.8L164.799 88L233.599 259.2L383.999 409.6ZM537.683 563.935L640.637 460.981L766.218 586.562L663.264 689.516L537.683 563.935ZM233.599 624L145.599 536L97.5992 548.8L84.7992 595.2L191.999 704L65.5992 828.8L51.1992 825.6L11.1992 865.6L25.5992 921.6L81.5992 936L121.599 896L118.399 881.6L243.199 755.2L351.999 862.4L398.399 849.6L411.199 803.2L323.199 713.6L233.599 624Z" fill="black"/>
</svg>
