<svg width="1024" height="1024" viewBox="0 0 1024 1024" fill="none" xmlns="http://www.w3.org/2000/svg">
<path d="M188.8 518.401C222.4 552.001 260.8 572.801 305.6 582.401C350.4 592.001 393.6 588.801 435.2 571.201L758.401 894.401C764.801 902.401 772.801 905.601 782.401 905.601C792 905.601 800 902.401 808 894.401L889.6 812.801C899.2 806.401 902.401 796.801 902.401 787.201C902.401 776.001 899.201 768.001 892.8 763.201L571.2 440.001C587.2 400.001 592 358.401 582.4 312.001C572.8 267.201 552 227.201 518.4 195.201C483.2 161.601 440 139.201 392 131.201C342.4 123.201 297.6 128.001 256 148.801L409.6 302.401L302.4 409.601L144 254.401C121.6 297.601 115.2 344.001 124.8 392.001C132.8 440.001 155.2 483.201 188.8 518.401Z" fill="black"/>
</svg>
