<svg width="1024" height="1024" viewBox="0 0 1024 1024" fill="none" xmlns="http://www.w3.org/2000/svg">
<path d="M512 219.2L387.2 344L446.4 403.2L571.2 278.4C596.8 252.8 628.8 238.4 667.2 238.4C705.6 238.4 737.6 251.2 763.2 278.4C788.8 304 803.2 336 803.2 374.4C803.2 412.8 790.4 444.8 763.2 470.4L640 595.2L699.2 654.4L824 529.6C867.2 486.4 888 435.2 888 372.8C888 312 867.2 259.2 824 216C780.8 172.8 729.6 152 667.2 152C606.4 153.6 555.2 177.6 512 219.2ZM356.762 624.537L606.793 374.506L667.886 435.599L417.855 685.63L356.762 624.537ZM136 686.4C136 747.2 156.8 800 200 843.2C243.2 886.4 294.4 907.2 356.8 907.2C419.2 907.2 470.4 886.4 513.6 843.2L638.4 718.4L576 657.6L451.2 782.4C424 809.6 392 822.4 353.6 822.4C316.8 820.8 283.2 809.6 257.6 782.4C232 755.2 217.6 724.8 217.6 686.4C216 649.6 230.4 616 257.6 588.8L382.4 464L323.2 404.8L198.4 529.6C158.4 572.8 136 625.6 136 686.4Z" fill="black"/>
</svg>
