<svg width="1024" height="1024" viewBox="0 0 1024 1024" fill="none" xmlns="http://www.w3.org/2000/svg">
<path d="M155 154V869.7H479.7C497.5 869.7 511.9 855.3 511.9 837.5C511.9 819.7 497.5 805.3 479.7 805.3H219.4V220.3H804.4V479.7C804.4 497.5 818.8 511.9 836.6 511.9C854.4 511.9 868.8 497.5 868.8 479.7V154H155Z" fill="black"/>
<path d="M352.6 691.1L483.4 558.5L758.3 833.4C778.4 853.5 810.9 853.7 831.2 833.8C851.9 813.6 852.1 780.4 831.6 760L557.6 486L688.4 353.4H352.5V691L352.6 691.1Z" fill="black"/>
</svg>
