<svg width="1024" height="1024" viewBox="0 0 1024 1024" fill="none" xmlns="http://www.w3.org/2000/svg">
<path d="M864 129.6C848 113.6 828.8 105.6 806.4 105.6H640C632 81.5996 616 62.3996 595.2 47.9996C574.4 33.5996 553.6 25.5996 528 25.5996C502.4 25.5996 480 33.5996 459.2 47.9996C438.4 62.3996 424 81.5996 416 105.6H248C225.6 105.6 206.4 113.6 190.4 129.6C174.4 145.6 166.4 163.2 166.4 185.6V297.6H246.4V185.6H324.8V265.6H726.4V185.6H804.8V827.2H715.2V905.6H804.8C827.2 905.6 846.4 897.6 862.4 881.6C878.4 865.6 886.4 848 886.4 825.6V184C888 163.2 880 145.6 864 129.6ZM556.8 172.8C548.8 180.8 539.2 184 528 184C516.8 184 507.2 180.8 499.2 172.8C491.2 164.8 488 155.2 488 144C488 132.8 491.2 123.2 499.2 115.2C507.2 107.2 516.8 104 528 104C539.2 104 548.8 107.2 556.8 115.2C564.8 123.2 568 132.8 568 144C568 156.8 563.2 166.4 556.8 172.8ZM606.4 588.8L400 382.4H168V966.4H630.4V612.8L606.4 588.8ZM494.4 588.8H424V518.4L494.4 588.8ZM550.4 886.4H249.6V462.4H345.6V668.8H550.4V886.4Z" fill="black"/>
</svg>
