<!-- Generated by IcoMoon.io -->
<svg version="1.1" xmlns="http://www.w3.org/2000/svg" width="32" height="32" viewBox="0 0 32 32">
<path d="M20.77 10.871c-0.536-0.494-1.142-0.924-1.8-1.269l-0.046-0.022c-0.543-0.272-1.183-0.43-1.861-0.43-0.008 0-0.016 0-0.023 0h0.001c-0.062-0.005-0.134-0.007-0.207-0.007-0.557 0-1.079 0.149-1.529 0.41l0.015-0.008c-0.36 0.307-0.587 0.762-0.587 1.269 0 0.071 0.004 0.142 0.013 0.21l-0.001-0.008c0.016 0.498 0.282 0.932 0.676 1.18l0.006 0.004c0.497 0.359 1.061 0.694 1.655 0.976l0.066 0.028q1.040 0.502 2.223 1.076c0.847 0.416 1.577 0.881 2.248 1.418l-0.024-0.019c0.686 0.547 1.259 1.201 1.703 1.941l0.018 0.033c0.431 0.752 0.686 1.652 0.686 2.613 0 0.052-0.001 0.104-0.002 0.155l0-0.008c0.001 0.055 0.002 0.121 0.002 0.186 0 1.625-0.518 3.128-1.398 4.355l0.015-0.022c-1.026 1.315-2.49 2.246-4.169 2.575l-0.044 0.007v3.802h-4.020v-3.587c-1.222-0.159-2.33-0.455-3.374-0.875l0.092 0.033c-1.197-0.459-2.226-1.096-3.112-1.891l0.009 0.008 2.654-4.16c0.763 0.588 1.63 1.104 2.556 1.511l0.080 0.031c0.683 0.289 1.477 0.46 2.311 0.466h0.002c0.083 0.008 0.179 0.013 0.277 0.013 0.618 0 1.192-0.186 1.671-0.504l-0.011 0.007c0.359-0.344 0.581-0.827 0.581-1.363 0-0.057-0.003-0.113-0.007-0.169l0 0.007c-0.017-0.525-0.28-0.985-0.677-1.27l-0.005-0.003c-0.501-0.4-1.066-0.763-1.665-1.068l-0.056-0.026q-1.041-0.538-2.222-1.13c-0.847-0.427-1.576-0.898-2.249-1.437l0.025 0.019c-0.68-0.54-1.252-1.181-1.702-1.906l-0.018-0.031c-0.43-0.727-0.684-1.602-0.684-2.537 0-0.054 0.001-0.107 0.002-0.161l-0 0.008c-0.003-0.078-0.005-0.169-0.005-0.26 0-1.612 0.549-3.095 1.469-4.274l-0.012 0.015c1.019-1.207 2.425-2.058 4.026-2.36l0.043-0.007v-3.73h4.017v3.658c1.138 0.179 2.158 0.556 3.070 1.097l-0.040-0.022c0.909 0.556 1.693 1.197 2.38 1.93l0.006 0.006z"></path>
</svg>
