<svg width="1024" height="1024" viewBox="0 0 1024 1024" fill="none" xmlns="http://www.w3.org/2000/svg">
<path d="M519.999 782.4V724.8L460.799 782.4H519.999ZM859.199 689.6C859.199 691.2 859.199 692.8 860.799 694.4C860.799 696 862.399 697.6 863.999 700.8C867.199 705.6 870.399 712 871.999 718.4C878.399 736 873.599 750.4 865.599 760C860.799 764.8 855.999 768 849.599 768C843.199 769.6 838.399 769.6 831.999 768C819.199 764.8 806.399 753.6 801.599 734.4L828.799 729.6C830.399 736 833.599 740.8 838.399 740.8C839.999 740.8 841.599 740.8 843.199 740.8C844.799 740.8 846.399 739.2 846.399 739.2C846.399 739.2 849.599 732.8 846.399 726.4C844.799 721.6 841.599 715.2 839.999 712C838.399 708.8 836.799 705.6 835.199 702.4C833.599 699.2 833.599 696 833.599 692.8L820.799 654.4H783.999V504H803.199V329.6H555.199V800C575.999 806.4 590.399 825.6 590.399 848V889.6C590.399 891.2 590.399 894.4 590.399 896H638.399V977.6H308.799V896H351.999C351.999 894.4 351.999 891.2 351.999 889.6V848C351.999 824 367.999 804.8 390.399 798.4V329.6H123.199V256L439.999 48.0004L441.599 46.4004H507.199L508.799 48.0004L883.199 256V505.6H900.799V656H871.999L859.199 689.6ZM820.799 502.4H865.599V329.6H820.799V502.4ZM846.399 257.6L507.199 67.2004V70.4004L547.199 256C647.999 256 747.199 257.6 846.399 257.6ZM433.599 73.6004L155.199 256H393.599L433.599 73.6004ZM510.399 256L475.199 91.2004H465.599L430.399 256H510.399ZM489.599 704H423.999V768L489.599 704ZM519.999 667.2V609.6L460.799 667.2H519.999ZM495.999 582.4H423.999V652.8L495.999 582.4ZM519.999 545.6V488L460.799 545.6H519.999ZM494.399 462.4H425.599V529.6L494.399 462.4ZM519.999 425.6V368L460.799 425.6H519.999ZM483.199 353.6H425.599V409.6L483.199 353.6Z" fill="black"/>
</svg>
