<svg width="1024" height="1024" viewBox="0 0 1024 1024" fill="none" xmlns="http://www.w3.org/2000/svg">
<path d="M730.03 490.642H769.67V530.282H730.03V490.642Z" fill="black"/>
<path fill-rule="evenodd" clip-rule="evenodd" d="M880 299.875C886.14 310.655 888 323.227 888 337.437C888.04 453.527 888 685.687 888 685.687C888 699.587 885.87 711.88 880 722.5C873.96 733.41 864.41 742.57 852 749.75L842.325 755.328C745.45 811.187 648.856 866.884 552 922.812C525.01 938.392 498.79 937.81 472 922C432.16 898.49 235.45 784.18 176 749.75C163.59 742.57 154.04 733.482 148 722.562C142.13 711.942 136 699.587 136 685.687C136.02 627.637 136.01 569.596 136 511.557C135.99 453.519 135.98 395.482 136 337.437C136 309.237 151.52 287.555 176 273.375C235.45 238.945 432.15 124.625 472 101.125C498.78 85.325 525.02 84.7325 552 100.312C638.296 150.143 724.392 199.79 810.652 249.532C824.43 257.476 838.212 265.424 852 273.375C864.13 280.395 873.96 289.275 880 299.875ZM756 371.7C707.641 288.232 617.363 232.072 513.965 232.07C359.587 232.073 234.45 357.222 234.45 511.59C234.45 562.23 247.92 609.72 271.47 650.69C319.7 734.61 410.24 791.11 513.97 791.11L517.08 791.09C619.28 789.97 708.32 733.99 756.15 651.22L634.67 580.85L634.769 580.677C634.833 580.565 634.897 580.453 634.961 580.341C635.057 580.171 635.154 580.001 635.25 579.83L634.769 580.677C610.77 622.541 565.355 650.77 513.96 650.77C462.22 650.77 417.12 622.52 393.13 580.64C381.47 560.29 374.77 536.73 374.77 511.59C374.77 434.72 437.09 372.41 513.96 372.41H515.55C565.96 372.98 609.9 400.37 633.87 440.95L755.53 370.9L756 371.7ZM730.03 470.812V431.172H710.21V470.812H670.57V490.632H710.21V530.272H670.57V550.092H710.21V589.732H730.03V550.092H769.67V589.732H789.49V550.092H829.13V530.272H789.49V490.632H829.13V470.812H789.49V431.172H769.67V470.812H730.03Z" fill="black"/>
</svg>
