<svg width="1024" height="1024" viewBox="0 0 1024 1024" fill="none" xmlns="http://www.w3.org/2000/svg">
<path d="M577.6 73.5996H184V948.8H841.6V336L577.6 73.5996ZM318.4 827.2C326.4 835.2 337.6 841.6 352 841.6C377.6 841.6 392 825.6 396.8 804.8H448C438.4 860.8 400 888 350.4 888C321.6 888 297.6 876.8 278.4 859.2C251.2 832 252.8 800 252.8 753.6C252.8 707.2 252.8 675.2 278.4 648C297.6 628.8 320 619.2 350.4 619.2C400 619.2 438.4 648 448 702.4H395.2C390.4 681.6 376 665.6 350.4 665.6C336 665.6 324.8 670.4 316.8 680C307.2 691.2 304 704 304 755.2C304 806.4 308.8 816 318.4 827.2ZM683.2 728H649.6L643.2 768H668.8V812.8H635.2L624 883.2H572.8L584 812.8H540.8L529.6 883.2H480L491.2 812.8H465.6V768H499.2L505.6 728H480V683.2H512L523.2 617.6H574.4L563.2 683.2H606.4L617.6 617.6H668.8L659.2 683.2H684.8V728H683.2ZM536 379.2V139.2L776 379.2H536ZM548.8 768H592L598.4 728H555.2L548.8 768Z" fill="black"/>
</svg>
