<svg width="1024" height="1024" viewBox="0 0 1024 1024" fill="none" xmlns="http://www.w3.org/2000/svg">
<path d="M839.998 452.799V75.1992H182.398V950.399H502.398V895.999C502.398 892.799 503.998 887.999 503.998 884.799H249.598V137.599H774.398V452.799H838.398C839.998 452.799 839.998 452.799 839.998 452.799ZM675.198 678.399H567.998L756.798 868.799L947.198 678.399H838.398V516.799H675.198V678.399ZM633.598 895.999H567.998V950.399H947.198V895.999H633.598ZM294.398 337.599H329.598V369.599H294.398V337.599ZM390.398 222.399C395.198 215.999 401.598 212.799 409.598 212.799C419.198 212.799 425.598 215.999 428.798 220.799C431.998 225.599 433.598 235.199 433.598 246.399H468.798C468.798 225.599 463.998 211.199 452.798 199.999C443.198 188.799 428.798 183.999 407.998 183.999C390.398 183.999 374.398 190.399 363.198 201.599C351.998 212.799 347.198 230.399 347.198 251.199V305.599C347.198 326.399 353.598 343.999 364.798 355.199C375.998 366.399 391.998 372.799 409.598 372.799C427.198 372.799 443.198 367.999 452.798 356.799C462.398 347.199 467.198 331.199 467.198 310.399H431.998C431.998 323.199 430.398 331.199 427.198 335.999C423.998 340.799 417.598 343.999 409.598 343.999C399.998 343.999 393.598 340.799 388.798 334.399C383.998 327.999 382.398 318.399 382.398 305.599V251.199C383.998 238.399 387.198 228.799 390.398 222.399ZM481.598 235.199C481.598 251.199 486.398 262.399 495.998 270.399C505.598 278.399 519.998 286.399 539.198 292.799C548.798 297.599 555.198 300.799 558.398 305.599C561.598 310.399 563.198 315.199 563.198 323.199C563.198 329.599 561.598 335.999 558.398 339.199C555.198 342.399 548.798 343.999 542.398 343.999C532.798 343.999 524.798 340.799 519.998 335.999C515.198 331.199 513.598 323.199 513.598 311.999H478.398C478.398 331.199 484.798 345.599 497.598 355.199C510.398 364.799 524.798 371.199 542.398 371.199C559.998 371.199 574.398 366.399 583.998 358.399C595.198 348.799 599.998 337.599 599.998 321.599C599.998 305.599 595.198 294.399 587.198 284.799C579.198 275.199 564.798 268.799 547.198 262.399C535.998 257.599 527.998 252.799 524.798 249.599C521.598 246.399 518.398 239.999 518.398 235.199C518.398 228.799 519.998 222.399 524.798 219.199C527.998 214.399 534.398 212.799 540.798 212.799C548.798 212.799 553.598 215.999 558.398 220.799C563.198 225.599 564.798 233.599 564.798 241.599H599.998C599.998 225.599 595.198 212.799 583.998 201.599C572.798 190.399 558.398 185.599 540.798 185.599C523.198 185.599 508.798 190.399 497.598 199.999C486.398 209.599 481.598 219.199 481.598 235.199ZM671.998 331.199L670.398 323.199L639.998 187.199H601.598L652.798 369.599H691.198L742.398 187.199H703.998L673.598 323.199L671.998 331.199Z" fill="black"/>
</svg>
