<svg width="1024" height="1024" viewBox="0 0 1024 1024" fill="none" xmlns="http://www.w3.org/2000/svg">
<path d="M841.598 572.799C839.998 572.799 839.998 572.799 838.398 572.799H774.398V887.999H249.598V140.799H503.998C503.998 137.599 502.398 132.799 502.398 129.599V75.1992H182.398V950.399H839.998V572.799H841.598ZM675.198 508.799H838.398V347.199H947.198L756.798 156.799L567.998 347.199H675.198V508.799ZM947.198 129.599V75.1992H567.998V129.599H633.598H947.198ZM295.998 809.599H331.198V841.599H295.998V809.599ZM391.998 694.399C396.798 687.999 403.198 684.799 411.198 684.799C420.798 684.799 427.198 687.999 430.398 692.799C433.598 697.599 435.198 707.199 435.198 718.399H470.398C470.398 697.599 465.598 683.199 454.398 671.999C444.798 660.799 430.398 655.999 409.598 655.999C391.998 655.999 375.998 662.399 364.798 673.599C353.598 684.799 348.798 702.399 348.798 723.199V777.599C348.798 798.399 355.198 815.999 366.398 827.199C377.598 838.399 393.598 844.799 411.198 844.799C428.798 844.799 444.798 839.999 454.398 828.799C463.998 819.199 468.798 803.199 468.798 782.399H433.598C433.598 795.199 431.998 803.199 428.798 807.999C425.598 812.799 419.198 815.999 411.198 815.999C401.598 815.999 395.198 812.799 390.398 806.399C385.598 799.999 383.998 790.399 383.998 777.599V723.199C385.598 710.399 388.798 700.799 391.998 694.399ZM483.198 707.199C483.198 723.199 487.998 734.399 497.598 742.399C507.198 750.399 521.598 758.399 540.798 764.799C550.398 769.599 556.798 772.799 559.998 777.599C563.198 782.399 564.798 787.199 564.798 795.199C564.798 801.599 563.198 807.999 559.998 811.199C556.798 814.399 550.398 815.999 543.998 815.999C534.398 815.999 526.398 812.799 521.598 807.999C516.798 803.199 515.198 795.199 515.198 783.999H479.998C479.998 803.199 486.398 817.599 499.198 827.199C511.998 836.799 526.398 843.199 543.998 843.199C561.598 843.199 575.998 838.399 585.598 830.399C596.798 820.799 601.598 809.599 601.598 793.599C601.598 777.599 596.798 766.399 588.798 756.799C580.798 747.199 566.398 740.799 548.798 734.399C537.598 729.599 529.598 724.799 526.398 721.599C523.198 718.399 519.998 711.999 519.998 707.199C519.998 700.799 521.598 694.399 526.398 691.199C529.598 686.399 535.998 684.799 542.398 684.799C550.398 684.799 555.198 687.999 559.998 692.799C564.798 697.599 566.398 705.599 566.398 713.599H601.598C601.598 697.599 596.798 684.799 585.598 673.599C574.398 662.399 559.998 657.599 542.398 657.599C524.798 657.599 510.398 662.399 499.198 671.999C487.998 681.599 483.198 691.199 483.198 707.199ZM673.598 803.199L671.998 795.199L641.598 659.199H603.198L654.398 841.599H692.798L743.998 659.199H705.598L675.198 795.199L673.598 803.199Z" fill="black"/>
</svg>
