<svg width="1024" height="1024" viewBox="0 0 1024 1024" fill="none" xmlns="http://www.w3.org/2000/svg">
<path d="M596.702 872.636L813.449 655.889L728.747 571.272L512 787.95L295.253 572.364L210.619 657.066L511.999 958.429L596.702 872.636ZM427.298 151.364L210.551 368.111L295.253 452.728L512 236.05L728.747 451.636L813.381 366.934L512.001 65.5711L427.298 151.364ZM977.613 270.711L906.326 224.631L909.927 309.606H829.27L832.871 224.631L761.584 270.711L721.273 200.857L796.878 161.979L721.273 123.101L761.584 53.2471L832.854 99.3271L829.27 14.3691H909.927L906.326 99.3271L977.613 53.2471L1017.92 123.101L942.319 161.979L1017.92 200.857L977.613 270.711Z" fill="black"/>
</svg>
