<svg width="1024" height="1024" viewBox="0 0 1024 1024" fill="none" xmlns="http://www.w3.org/2000/svg">
<path d="M295.999 635.2L319.999 436.8H444.799V374.4H327.999L334.399 324.8C342.399 252.8 371.199 188.8 438.399 188.8C457.599 188.8 475.199 192 489.599 198.4L505.599 136C491.199 128 468.799 121.6 438.399 121.6C307.199 121.6 263.999 233.6 251.199 329.6L244.799 374.4H148.799V436.8H238.399L215.999 628.8C204.799 728 182.399 782.4 121.599 782.4C100.799 782.4 83.1992 779.2 67.1992 771.2L51.1992 832C67.1992 841.6 94.3992 848 127.999 848C239.999 849.6 279.999 763.2 295.999 635.2ZM446.399 601.6V609.6C446.399 681.6 460.799 744 487.999 793.6C515.199 843.2 547.199 875.2 585.599 889.6H587.199L604.799 844.8C580.799 827.2 561.599 798.4 545.599 760C529.599 721.6 523.199 670.4 523.199 609.6V600C523.199 537.6 531.199 488 545.599 449.6C561.599 411.2 580.799 382.4 604.799 364.8L587.199 320H585.599C548.799 334.4 516.799 366.4 487.999 416C460.799 468.8 446.399 529.6 446.399 601.6ZM671.999 614.4L574.399 766.4H651.199L708.799 660.8L767.999 766.4H844.799L747.199 614.4L841.599 465.6H763.199L708.799 569.6L652.799 465.6H575.999L671.999 614.4ZM873.599 451.2C889.599 489.6 897.599 540.8 897.599 601.6V611.2C897.599 673.6 889.599 723.2 873.599 761.6C857.599 800 838.399 828.8 814.399 846.4L831.999 891.2H833.599C871.999 876.8 905.599 844.8 934.399 792C963.199 740.8 977.599 680 977.599 609.6V601.6C977.599 532.8 963.199 472 934.399 420.8C905.599 369.6 871.999 336 833.599 321.6H831.999L814.399 366.4C838.399 384 857.599 411.2 873.599 451.2Z" fill="black"/>
</svg>
