<svg width="1024" height="1024" viewBox="0 0 1024 1024" fill="none" xmlns="http://www.w3.org/2000/svg">
<path d="M31.4883 748.766H296.243V918.545H31.4883V748.766ZM379.631 748.766H644.386V918.545H379.631V748.766ZM727.757 748.766H992.512V918.545H727.757V748.766ZM294.997 402.586H729.019V572.365H294.997V402.586ZM268.919 594.807L145.049 726.681H210.619L334.489 594.807H268.919ZM688.981 594.807L812.851 726.681H878.404L754.534 594.807H688.981ZM488.107 594.807H535.894V726.681H488.107V594.807ZM977.613 270.711L906.326 224.631L909.927 309.606H829.27L832.871 224.631L761.584 270.711L721.273 200.857L796.878 161.979L721.273 123.101L761.584 53.2471L832.854 99.3271L829.27 14.3691H909.927L906.326 99.3271L977.613 53.2471L1017.92 123.101L942.319 161.979L1017.92 200.857L977.613 270.711Z" fill="black"/>
</svg>
