<svg width="1024" height="1024" viewBox="0 0 1024 1024" fill="none" xmlns="http://www.w3.org/2000/svg">
<path d="M416 336L916.8 836.8V876.8H795.2L510.4 593.6L416 688C425.6 708.8 430.4 731.2 430.4 753.6C430.4 798.4 414.4 835.2 382.4 867.2C350.4 899.2 312 915.2 267.2 915.2C222.4 915.2 184 899.2 152 867.2C120 835.2 104 798.4 104 753.6C104 708.8 120 672 152 640C184 608 220.8 592 265.6 592C289.6 592 312 596.8 331.2 604.8L427.2 510.4L331.2 416C310.4 425.6 289.6 428.8 265.6 428.8C220.8 428.8 184 412.8 152 380.8C120 348.8 104 312 104 267.2C104 222.4 120 185.6 152 153.6C184 121.6 222.4 105.6 267.2 105.6C312 105.6 350.4 121.6 382.4 153.6C414.4 185.6 430.4 222.4 430.4 267.2C432 292.8 425.6 313.6 416 336ZM212.8 326.4C228.8 342.4 248 350.4 270.4 350.4C292.8 350.4 312 342.4 328 326.4C344 310.4 352 291.2 352 268.8C352 246.4 344 227.2 328 211.2C312 195.2 292.8 187.2 270.4 187.2C248 187.2 228.8 195.2 212.8 211.2C196.8 227.2 188.8 246.4 188.8 268.8C188.8 291.2 196.8 312 212.8 326.4ZM212.8 812.8C228.8 828.8 248 836.8 270.4 836.8C292.8 836.8 312 828.8 328 812.8C344 796.8 352 777.6 352 755.2C352 732.8 344 713.6 328 697.6C312 681.6 292.8 673.6 270.4 673.6C248 673.6 228.8 681.6 212.8 697.6C196.8 713.6 188.8 732.8 188.8 755.2C188.8 777.6 196.8 796.8 212.8 812.8ZM492.8 512C492.8 526.4 499.2 532.8 512 532.8C524.8 532.8 531.2 526.4 531.2 512C531.2 497.6 524.8 491.2 512 491.2C499.2 491.2 492.8 497.6 492.8 512ZM795.2 147.2H916.8V187.2L632 472L552 390.4L795.2 147.2Z" fill="black"/>
</svg>
