<!-- Generated by IcoMoon.io -->
<svg version="1.1" xmlns="http://www.w3.org/2000/svg" width="32" height="32" viewBox="0 0 32 32">
<path d="M2.667 18.366c2.507 0 4.533 2.027 4.533 4.533v0 0 3.84c0.96 0.8 1.973 1.493 3.147 1.973v-2.507c0-0.427 0.373-0.747 0.747-0.747 0.427 0 0.747 0.373 0.747 0.747v3.093c1.067 0.32 2.187 0.533 3.36 0.587v-3.2c0-0.427 0.373-0.747 0.747-0.747s0.747 0.373 0.747 0.747v3.2c1.173-0.053 2.293-0.267 3.36-0.587v-3.093c0-0.427 0.373-0.747 0.747-0.747 0.427 0 0.747 0.373 0.747 0.747v2.507c1.12-0.533 2.133-1.173 3.147-1.973v-3.84c0-2.507 2.027-4.533 4.533-4.533 0.053 0 0.107 0 0.16 0 0.107-0.64 0.16-1.333 0.16-2.027 0-3.787-1.333-7.040-4-9.653s-5.707-4-9.547-4-6.987 1.333-9.653 4c-2.72 2.667-4.053 5.867-4.053 9.653 0 0.693 0.053 1.387 0.16 2.027 0.053 0 0.16 0 0.213 0v0zM21.707 10.366c1.867 0 3.307 1.493 3.307 3.307s-1.493 3.307-3.307 3.307-3.307-1.493-3.307-3.307 1.493-3.307 3.307-3.307zM10.72 10.366c1.867 0 3.307 1.493 3.307 3.307s-1.493 3.307-3.307 3.307-3.307-1.493-3.307-3.307 1.493-3.307 3.307-3.307z"></path>
</svg>
