<svg width="1024" height="1024" viewBox="0 0 1024 1024" fill="none" xmlns="http://www.w3.org/2000/svg">
<path d="M675.2 120L904 348.8V675.2L675.2 904H348.8L120 675.2V348.8L348.8 120H675.2ZM472 726.4C483.2 737.6 496 742.4 513.6 742.4C529.6 742.4 544 737.6 553.6 726.4C564.8 715.2 569.6 702.4 569.6 686.4C569.6 670.4 564.8 657.6 553.6 646.4C542.4 635.2 529.6 630.4 513.6 630.4C497.6 630.4 483.2 635.2 472 646.4C460.8 657.6 456 670.4 456 686.4C454.4 702.4 460.8 715.2 472 726.4ZM555.2 555.2V294.4H468.8V555.2H555.2Z" fill="black"/>
</svg>
