<svg width="1024" height="1024" viewBox="0 0 1024 1024" fill="none" xmlns="http://www.w3.org/2000/svg">
<path d="M80 518.401V819.201H944V518.401H80ZM790.4 587.201H881.6V643.201H790.4V587.201ZM790.4 694.401H881.6V750.401H790.4V694.401ZM142.4 587.201H729.6V643.201H142.4V587.201ZM142.4 694.401H729.6V750.401H142.4V694.401ZM673.6 172.801H649.6V473.601H944V172.801H673.6ZM788.8 427.201C734.4 427.201 691.2 382.401 691.2 329.601C691.2 275.201 736 232.001 788.8 232.001C843.2 232.001 886.4 276.801 886.4 329.601C888 382.401 843.2 427.201 788.8 427.201ZM604.8 473.601V172.801H80V473.601H604.8ZM206.4 307.201L292.8 342.401L396.8 254.401L464 273.601L523.2 216.001H563.2V256.001L480 337.601L408 316.801L300.8 406.401L220.8 374.401L163.2 432.001H121.6V392.001L206.4 307.201ZM788.8 260.801V328.001H856C857.6 291.201 827.2 260.801 788.8 260.801Z" fill="black"/>
</svg>
