<svg width="1024" height="1024" viewBox="0 0 1024 1024" fill="none" xmlns="http://www.w3.org/2000/svg">
<path d="M172.798 558C203.198 575.6 243.198 588.4 295.998 599.6C340.798 607.6 388.798 612.4 438.398 614L484.798 532.4L489.598 524.4L502.398 500.4C489.598 500.4 476.798 502 462.398 502C393.598 502 327.998 495.6 268.798 482.8C207.998 470 161.598 452.4 126.398 426.8V502C126.398 522.8 142.398 540.4 172.798 558ZM172.798 726C203.198 743.6 243.198 756.4 295.998 767.6C329.598 774 366.398 778.8 404.798 780.4L447.998 746.8L473.598 727.6L403.198 674.8L406.398 670C358.398 666.8 313.598 662 270.398 652.4C209.598 639.6 163.198 622 127.998 596.4V670C126.398 690.8 142.398 710 172.798 726ZM172.798 895.6C203.198 913.2 243.198 926 295.998 937.2C347.198 946.8 404.798 951.6 465.598 951.6C478.398 951.6 491.198 951.6 503.998 951.6L492.798 930.8L487.998 922.8L439.998 839.6C380.798 838 324.798 831.6 273.598 822C212.798 809.2 166.398 791.6 131.198 766V841.2C126.398 858.8 142.398 878 172.798 895.6ZM172.798 390C203.198 407.6 243.198 420.4 295.998 431.6C347.198 441.2 403.198 446 463.998 446C515.198 446 563.198 442.8 609.598 434.8L611.198 423.6H667.198C703.998 414 732.798 402.8 756.798 390C787.198 372.4 801.598 354.8 801.598 334V278C801.598 257.2 787.198 239.6 756.798 222C726.398 204.4 686.398 191.6 633.598 180.4C582.398 170.8 524.798 166 463.998 166C403.198 166 347.198 170.8 294.398 180.4C243.198 190 201.598 204.4 171.198 222C140.798 239.6 126.398 257.2 126.398 278V334C126.398 353.2 142.398 372.4 172.798 390ZM790.398 530.8L783.998 487.6H667.198L655.998 561.2C643.198 567.6 628.798 575.6 615.998 585.2L547.198 558L542.398 566L515.198 614L494.398 649.2L489.598 658.8L505.598 671.6L548.798 705.2C548.798 714.8 547.198 722.8 547.198 729.2C547.198 735.6 547.198 743.6 548.798 753.2L505.598 782L486.398 798L491.198 807.6L510.398 839.6L540.798 890.8L545.598 898.8L614.398 871.6C627.198 881.2 639.998 889.2 654.398 895.6L663.998 969.2C663.998 969.2 668.798 969.2 675.198 969.2H771.198C779.198 969.2 782.398 969.2 782.398 969.2L793.598 895.6C806.398 889.2 820.798 881.2 833.598 871.6L902.398 898.8L907.198 890.8L955.198 807.6L959.998 798L903.998 750C905.598 740.4 905.598 732.4 905.598 726C905.598 719.6 905.598 711.6 903.998 702L963.198 655.6L903.998 554.8L835.198 582C822.398 572.4 809.598 564.4 795.198 558L790.398 530.8ZM799.998 766C796.798 774 790.398 780.4 783.998 786.8C767.998 802.8 747.198 810.8 724.798 810.8C716.798 810.8 710.398 809.2 703.998 807.6C689.598 804.4 676.798 796.4 665.598 785.2C659.198 778.8 652.798 770.8 649.598 762.8C644.798 751.6 641.598 738.8 641.598 726C641.598 702 649.598 682.8 665.598 666.8C681.598 650.8 702.398 642.8 724.798 642.8C747.198 642.8 767.998 650.8 783.998 666.8C790.398 673.2 793.598 679.6 798.398 686C804.798 698.8 809.598 711.6 809.598 727.6C807.998 740.4 804.798 753.2 799.998 766Z" fill="black"/>
</svg>
