<svg width="1024" height="1024" viewBox="0 0 1024 1024" fill="none" xmlns="http://www.w3.org/2000/svg">
<path d="M867.462 367.977C904.428 347.814 921.249 325.972 921.249 300.768V150.543C921.249 125.34 904.425 105.177 867.462 83.3131C824.215 59.5311 773.91 41.8811 720.597 33.1871L717.881 32.8211C659.531 22.0971 592.387 15.9661 523.808 15.9661C519.955 15.9661 516.108 15.9861 512.263 16.0241L512.851 16.0191C509.283 15.9781 505.068 15.9551 500.847 15.9551C432.629 15.9551 365.844 22.0921 301.014 33.8421L307.803 32.8201C251.062 42.7761 200.296 60.3171 153.607 84.6171L156.54 83.2271C119.574 103.41 102.753 125.253 102.753 150.457V300.682C102.753 325.885 119.577 346.048 156.54 367.891C183.869 383.544 215.486 396.515 248.842 405.174L251.543 405.769C259.432 434.406 270.919 459.474 285.755 482.153L285.126 481.13C283.943 480.902 282.739 480.735 281.579 480.508C214.423 469.008 154.452 445.51 101.293 412.156L103.351 413.361V587.109C103.351 612.312 120.175 632.475 157.138 654.339C200.387 678.094 250.695 695.717 304.009 704.383L306.719 704.746C324.372 708.001 342.357 710.637 360.651 712.899V780.046C333.684 776.436 307.113 772.266 281.597 766.935C214.427 755.41 154.452 731.885 101.294 698.501L103.35 699.706V873.454C103.35 896.978 120.174 918.82 157.137 940.684C200.386 964.439 250.694 982.062 304.008 990.728L306.718 991.091C365.069 1001.82 432.217 1007.95 500.798 1007.95C504.655 1007.95 508.508 1007.93 512.355 1007.89L511.768 1007.89C515.301 1007.93 519.476 1007.96 523.654 1007.96C591.297 1007.96 657.507 1001.82 721.758 990.072L715.055 991.09C771.136 981.492 821.372 963.923 867.318 939.375L864.636 940.683C901.621 920.5 918.423 898.657 918.423 873.453V699.705C869.598 732.449 811.814 756.046 749.586 766.572L746.999 766.934C727.873 771.082 707.774 774.527 687.197 777.617L664.254 754.55L643.033 733.329L663.465 712.916C681.721 710.654 699.6 708.02 716.86 704.744C772.941 695.146 823.177 677.577 869.123 653.029L866.441 654.337C903.426 634.154 920.228 612.311 920.228 587.107V413.359C871.403 446.097 813.62 469.693 751.395 480.226L748.804 480.588C745.34 481.334 741.585 481.854 738.08 482.558C752.763 460.37 764.574 434.663 772.133 407.197L772.576 405.31C808.567 396.267 840.158 383.467 869.387 366.969L867.458 367.971L867.462 367.977ZM659.279 481.485C650.275 490.482 640.459 498.667 629.947 505.918L629.241 506.378L625.383 509.013L629.137 567.261L583.916 612.482L629.966 658.513L555.039 733.334L620.257 798.552L527.036 891.773C523.185 895.619 517.869 897.997 511.998 897.997C506.127 897.997 500.809 895.618 496.959 891.773L429.025 823.92C425.194 820.059 422.821 814.75 422.801 808.885V522.62L418.278 520.339C349.822 485.299 303.778 415.246 303.778 334.439C303.778 219.475 396.976 126.277 511.94 126.277C626.904 126.277 720.102 219.475 720.102 334.439C720.102 391.849 696.862 443.832 659.275 481.489L659.279 481.485ZM512 183.628C474.875 183.634 444.781 213.731 444.781 250.858C444.781 287.988 474.882 318.088 512.011 318.088C549.14 318.088 579.241 287.987 579.241 250.858C579.241 232.289 571.713 215.481 559.545 203.314C547.445 191.153 530.697 183.629 512.193 183.629C512.126 183.629 512.058 183.629 511.991 183.629H512.002L512 183.628Z" fill="black"/>
</svg>
