<svg width="1024" height="1024" viewBox="0 0 1024 1024" fill="none" xmlns="http://www.w3.org/2000/svg">
<g clip-path="url(#clip0_2_365)">
<path d="M334.4 691.199C326.4 668.799 331.2 643.199 350.4 627.199L377.6 601.599C312 601.599 248 595.199 192 582.399C131.2 571.199 83.2004 551.999 48.0004 526.399V601.599C48.0004 620.799 62.4004 639.999 92.8004 657.599C123.2 675.199 164.8 689.599 216 699.199C259.2 707.199 304 711.999 352 713.599C344 708.799 337.6 700.799 334.4 691.199ZM385.6 772.799C316.8 772.799 252.8 766.399 192 753.599C131.2 740.799 83.2004 721.599 46.4004 697.599V772.799C46.4004 791.999 60.8004 811.199 91.2004 828.799C121.6 846.399 163.2 860.799 214.4 870.399C267.2 879.999 323.2 884.799 384 884.799C398.4 884.799 412.8 884.799 425.6 883.199V771.199C412.8 771.199 398.4 772.799 385.6 772.799ZM92.8004 323.199C123.2 340.799 164.8 355.199 216 364.799C268.8 374.399 324.8 379.199 385.6 379.199C446.4 379.199 502.4 374.399 555.2 364.799C608 353.599 648 340.799 678.4 323.199C708.8 305.599 723.2 287.999 723.2 267.199V211.199C723.2 190.399 708.8 172.799 678.4 155.199C648 137.599 606.4 123.199 555.2 113.599C502.4 103.999 446.4 99.1992 385.6 99.1992C324.8 99.1992 267.2 103.999 216 113.599C164.8 123.199 123.2 137.599 92.8004 155.199C62.4004 172.799 48.0004 190.399 48.0004 211.199V267.199C48.0004 287.999 62.4004 305.599 92.8004 323.199ZM579.2 415.999C520 428.799 454.4 435.199 385.6 435.199C316.8 435.199 252.8 428.799 192 415.999C131.2 403.199 83.2004 385.599 46.4004 359.999V435.199C46.4004 455.999 60.8004 473.599 91.2004 491.199C121.6 508.799 163.2 523.199 214.4 532.799C267.2 542.399 323.2 547.199 384 547.199C403.2 547.199 422.4 547.199 441.6 545.599L587.2 414.399C584 414.399 582.4 414.399 579.2 415.999ZM707.2 383.999L388.8 670.399H484.8V924.799H643.2V734.399H771.2V924.799H929.6V670.399H1024L707.2 383.999Z" fill="black"/>
</g>
<defs>
<clipPath id="clip0_2_365">
<rect width="1024" height="1024" fill="white"/>
</clipPath>
</defs>
</svg>
