<svg width="1024" height="1024" viewBox="0 0 1024 1024" fill="none" xmlns="http://www.w3.org/2000/svg">
<path d="M190.4 137.6V420.8H481.6V193.6H361.6V137.6H190.4ZM428.8 248V366.4H244.8V192H308.8V249.6H428.8V248ZM190.4 768H481.6V542.4H361.6V484.8H190.4V768ZM244.8 539.2H308.8V596.8H428.8V715.2H244.8V539.2ZM544 137.6V420.8H835.2V193.6H715.2V137.6H544ZM780.8 248V366.4H596.8V192H660.8V249.6H780.8V248ZM713.6 900.8C716.8 902.4 718.4 902.4 721.6 902.4C724.8 902.4 726.4 902.4 729.6 902.4C732.8 902.4 736 902.4 737.6 902.4C742.4 900.8 747.2 899.2 752 896C753.6 894.4 756.8 892.8 758.4 891.2C766.4 883.2 771.2 873.6 771.2 862.4H688C688 870.4 689.6 878.4 694.4 884.8C696 886.4 697.6 889.6 699.2 891.2C704 896 708.8 899.2 713.6 900.8ZM910.4 820.8L867.2 777.6V660.8C867.2 644.8 864 628.8 859.2 614.4C856 608 854.4 600 849.6 593.6C846.4 587.2 841.6 580.8 836.8 574.4C832 568 827.2 563.2 820.8 556.8C809.6 547.2 796.8 539.2 782.4 532.8C776 529.6 768 528 760 526.4V512C760 502.4 756.8 494.4 750.4 489.6C744 483.2 737.6 480 728 480C723.2 480 720 480 715.2 481.6C713.6 481.6 712 483.2 710.4 484.8C708.8 486.4 707.2 488 705.6 488C704 489.6 702.4 491.2 700.8 492.8C699.2 494.4 699.2 496 697.6 497.6C696 499.2 696 505.6 696 510.4V524.8C680 528 667.2 534.4 654.4 542.4C641.6 550.4 630.4 560 620.8 572.8C616 579.2 611.2 585.6 608 592C606.4 595.2 604.8 598.4 603.2 601.6C596.8 616 593.6 630.4 592 646.4C592 649.6 592 654.4 592 657.6V774.4L548.8 817.6V838.4H908.8V820.8H910.4Z" fill="black"/>
</svg>
