<svg width="1024" height="1024" viewBox="0 0 1024 1024" fill="none" xmlns="http://www.w3.org/2000/svg">
<g clip-path="url(#clip0_2_361)">
<path d="M63.8289 874.666L62.4639 391.509L960.171 389.802V570.538C976.113 581.452 990.061 593.07 1002.83 605.862L1002.84 605.866V170.325C1002.74 158.617 993.227 149.162 981.505 149.162L40.9599 151.039C29.2719 151.039 19.7969 160.514 19.7969 172.202V370.346L21.1619 896.341C21.2589 908.049 30.7729 917.504 42.4949 917.504L519.168 916.48C514.56 904.84 510.381 890.841 507.357 876.416L507.05 874.667L63.8289 874.666ZM541.696 240.298H878.421C879.069 240.244 879.823 240.213 880.585 240.213C895.76 240.213 908.062 252.515 908.062 267.69C908.062 282.865 895.76 295.167 880.585 295.167C879.823 295.167 879.069 295.136 878.323 295.075L878.421 295.081L541.696 296.105C526.521 296.105 514.219 283.803 514.219 268.628C514.219 253.453 526.521 241.151 541.696 241.151V240.298ZM377.685 255.146C379.812 250.241 382.688 246.052 386.219 242.516L386.218 242.517V241.664C389.628 238.414 393.645 235.765 398.077 233.909L398.335 233.813C402.663 231.978 407.696 230.911 412.979 230.911C413.051 230.911 413.123 230.911 413.194 230.912H413.183C413.244 230.912 413.317 230.911 413.39 230.911C418.73 230.911 423.821 231.977 428.462 233.909L428.202 233.813C432.864 235.858 436.869 238.495 440.351 241.692L440.319 241.663C440.689 242.204 441.143 242.658 441.667 243.017L441.684 243.028C444.901 246.427 447.5 250.45 449.275 254.892L449.364 255.145C451.307 259.418 452.439 264.412 452.439 269.67C452.439 269.843 452.438 270.017 452.435 270.189V270.163C452.435 270.184 452.435 270.209 452.435 270.234C452.435 275.562 451.369 280.641 449.438 285.27L449.534 285.012C447.478 290.002 444.591 294.258 441.004 297.809L441.001 297.812C437.465 301.342 433.276 304.218 428.631 306.244L428.371 306.345C423.99 308.181 418.899 309.247 413.559 309.247C413.486 309.247 413.414 309.247 413.341 309.246H413.352C413.123 309.251 412.854 309.254 412.583 309.254C407.435 309.254 402.536 308.184 398.098 306.254L398.333 306.345C393.348 304.348 389.09 301.515 385.531 297.98L385.533 297.982C382.043 294.423 379.173 290.241 377.107 285.621L377 285.353C375.186 280.917 374.07 275.775 373.929 270.392L373.928 270.335C373.982 264.963 375.106 259.867 377.098 255.232L377 255.487L377.685 255.146ZM250.368 255.146C252.495 250.241 255.371 246.052 258.902 242.516L258.901 242.517V241.664C265.98 235.017 275.529 230.928 286.034 230.912H286.037C286.098 230.912 286.169 230.911 286.241 230.911C291.523 230.911 296.557 231.978 301.137 233.907L300.884 233.813C305.574 235.765 309.592 238.414 313.017 241.679L313.001 241.664L314.366 243.029C317.637 246.427 320.289 250.449 322.124 254.893L322.216 255.146C324 259.572 325.035 264.705 325.035 270.079C325.035 275.453 324 280.586 322.118 285.288L322.216 285.012C318.145 294.713 310.583 302.274 301.141 306.249L300.883 306.345C296.513 308.18 291.434 309.246 286.106 309.246C286.081 309.246 286.056 309.246 286.032 309.246H286.036C285.768 309.253 285.452 309.257 285.135 309.257C280.032 309.257 275.179 308.185 270.789 306.255L271.018 306.345C266.016 304.397 261.75 301.557 258.222 297.986L258.218 297.982C254.612 294.46 251.678 290.269 249.614 285.607L249.514 285.353C247.785 280.893 246.783 275.73 246.783 270.334C246.815 265.037 247.878 259.997 249.781 255.393L249.684 255.657L250.368 255.146ZM123.221 255.146C125.348 250.241 128.224 246.052 131.755 242.516L131.754 242.517C135.184 239.251 139.193 236.554 143.605 234.601L143.871 234.496C148.266 232.73 153.358 231.672 158.687 231.595H158.719C158.741 231.595 158.767 231.595 158.794 231.595C164.179 231.595 169.316 232.661 174.004 234.593L173.738 234.496C178.414 236.493 182.425 239.136 185.878 242.368L185.855 242.347C186.387 242.738 187.016 243.034 187.698 243.194L187.733 243.201C191.004 246.599 193.656 250.621 195.491 255.065L195.583 255.318C197.416 259.737 198.48 264.87 198.48 270.251C198.48 275.632 197.416 280.765 195.486 285.45L195.583 285.184C193.596 290.199 190.698 294.467 187.061 297.973L187.05 297.984C183.527 301.535 179.334 304.416 174.676 306.42L174.421 306.518C169.999 308.353 164.862 309.419 159.477 309.419C159.451 309.419 159.425 309.419 159.398 309.419H159.402C159.219 309.422 159.004 309.424 158.788 309.424C153.661 309.424 148.769 308.419 144.297 306.596L144.554 306.689C139.572 304.61 135.32 301.726 131.754 298.156C128.148 294.634 125.214 290.443 123.15 285.781L123.05 285.527C121.014 281.232 119.719 276.222 119.469 270.938L119.466 270.85C119.514 265.419 120.639 260.264 122.637 255.57L122.538 255.831L123.221 255.146ZM1016.66 740.522L970.24 660.138C968.3 657.133 964.968 655.172 961.178 655.172C959.24 655.172 957.422 655.685 955.852 656.582L955.905 656.554L900.609 677.887C896.362 674.136 891.678 670.647 886.716 667.562L886.273 667.305C879.1 661.392 870.8 656.494 861.798 653.007L861.185 652.798L852.31 592.041C851.132 586.883 846.583 583.092 841.149 583.092C840.692 583.092 840.241 583.119 839.798 583.171L839.852 583.166H748.716C741.548 583.166 737.964 584.873 736.257 592.041L727.212 652.798C717.621 657.317 709.452 662.094 701.752 667.495L702.295 667.134C698.196 670.11 693.508 673.052 688.627 675.68L687.959 676.009L666.455 667.134L632.322 654.505C630.998 654.005 629.467 653.716 627.868 653.716C624.009 653.716 620.544 655.401 618.168 658.075L618.156 658.088L573.612 738.131C571.905 745.299 571.905 748.883 575.489 752.467L609.622 777.555L625.835 790.014C624.573 795.668 623.85 802.161 623.85 808.823C623.85 810.371 623.889 811.91 623.966 813.439L623.957 813.224V814.931C623.909 815.992 623.881 817.236 623.881 818.486C623.881 824.847 624.593 831.041 625.94 836.994L625.834 836.435L577.535 872.104C575.632 874.39 574.476 877.357 574.476 880.594C574.476 882.722 574.975 884.733 575.863 886.517L575.828 886.44L620.372 966.824C621.657 971.428 625.813 974.749 630.746 974.749C632.173 974.749 633.535 974.471 634.78 973.966L634.708 973.992L690.004 950.781C700.741 959.501 713.167 966.71 726.63 971.808L727.55 972.114L736.595 1034.75C737.697 1039.91 742.215 1043.72 747.622 1043.72C748.127 1043.72 748.624 1043.68 749.111 1043.62L749.054 1043.62H840.19C847.358 1043.62 850.771 1041.92 852.649 1034.75L861.524 972.113C875.863 966.006 888.216 958.86 899.561 950.432L899.071 950.78L954.538 973.991C961.535 975.698 966.997 973.991 968.703 966.823L1013.42 886.439C1015.12 879.271 1015.12 875.687 1011.54 872.103L961.536 837.97C962.749 831.777 963.444 824.657 963.444 817.374C963.444 816.455 963.433 815.538 963.411 814.624L963.414 814.76C963.484 813.538 963.524 812.108 963.524 810.669C963.524 804.553 962.799 798.606 961.431 792.91L961.536 793.427L1009.83 755.88C1018.37 749.395 1018.37 745.811 1016.66 740.52L1016.66 740.522ZM794.795 885.248C756.317 885.151 725.163 853.936 725.163 815.446C725.163 776.989 756.338 745.814 794.795 745.814C833.252 745.814 864.427 776.989 864.427 815.446C864.427 815.447 864.427 815.447 864.427 815.448C864.427 853.819 833.466 884.959 795.164 885.249H795.137L794.795 885.248Z" fill="black"/>
</g>
<defs>
<clipPath id="clip0_2_361">
<rect width="1024" height="1024" fill="white"/>
</clipPath>
</defs>
</svg>
