<svg width="1024" height="1024" viewBox="0 0 1024 1024" fill="none" xmlns="http://www.w3.org/2000/svg">
<g clip-path="url(#clip0_2_369)">
<path d="M501.18 813.909C501.252 777.294 508.032 742.284 520.354 710.012L519.68 712.021H320.546C313.5 712.011 307.79 706.302 307.78 699.256V673.655C307.79 666.609 313.499 660.899 320.545 660.889H544.427C570.654 618.489 605.983 584.083 647.862 559.689L649.268 558.933H320.547C313.504 558.914 307.8 553.21 307.781 546.169V520.567C307.8 513.524 313.504 507.82 320.545 507.801H703.455C710.498 507.82 716.202 513.524 716.221 520.565V530.909C739.904 523.956 767.121 519.922 795.268 519.85H795.308C803.107 519.85 810.77 520.43 818.416 521.028V150.408C818.416 150.374 818.416 150.333 818.416 150.293C818.416 136.211 807 124.795 792.918 124.795C787.129 124.795 781.791 126.724 777.512 129.974L777.575 129.928L716.306 201.403L629.437 129.996C625.223 126.766 619.878 124.82 614.077 124.82C608.276 124.82 602.931 126.766 598.656 130.041L598.717 129.996L512.001 201.471L425.2 129.996C420.986 126.766 415.641 124.82 409.84 124.82C404.039 124.82 398.694 126.766 394.419 130.041L394.48 129.996L307.696 201.471L246.427 129.996C242.21 126.792 236.872 124.863 231.084 124.863C217.002 124.863 205.586 136.279 205.586 150.361C205.586 150.402 205.586 150.442 205.586 150.483V150.477V916.241C205.637 930.341 217.079 941.752 231.186 941.752C236.926 941.752 242.224 939.863 246.494 936.673L246.427 936.721L307.696 865.246L394.48 936.721C398.694 939.951 404.039 941.897 409.84 941.897C415.641 941.897 420.986 939.951 425.261 936.676L425.2 936.721L506.608 869.683C503.195 852.932 501.221 833.664 501.181 813.941V813.909H501.18ZM307.78 367.394C307.799 360.355 313.505 354.655 320.545 354.645H703.454C710.495 354.655 716.2 360.355 716.22 367.392V392.994C716.21 400.04 710.501 405.75 703.455 405.76H320.546C313.5 405.75 307.79 400.041 307.78 392.995V392.994V367.394ZM1016.85 740.659L970.411 660.275C968.485 657.277 965.168 655.32 961.393 655.32C959.457 655.32 957.641 655.835 956.074 656.736L956.126 656.708L900.745 678.144C896.504 674.307 891.83 670.772 886.859 667.668L886.444 667.426C879.292 661.594 871.02 656.764 862.056 653.331L861.441 653.124L852.515 592.401C851.364 587.207 846.798 583.38 841.338 583.38C840.868 583.38 840.405 583.408 839.95 583.463L840.005 583.458H748.903C741.752 583.458 738.185 585.25 736.393 592.401L727.467 653.124C717.807 657.695 709.605 662.46 701.846 667.818L702.447 667.425C698.308 670.554 693.632 673.517 688.718 676.086L688.162 676.351L666.726 667.425L632.78 654.915C631.424 654.388 629.855 654.083 628.215 654.083C624.349 654.083 620.878 655.779 618.508 658.468L618.496 658.482L573.833 738.883C572.126 746.017 572.126 749.601 575.625 753.168L609.554 778.171L625.648 790.681C624.486 796.23 623.82 802.606 623.82 809.138C623.82 810.816 623.864 812.484 623.951 814.141L623.941 813.909V815.616C623.885 816.779 623.853 818.141 623.853 819.511C623.853 825.721 624.506 831.778 625.748 837.618L625.647 837.051L577.417 872.789C575.536 875.082 574.395 878.047 574.395 881.277C574.395 883.384 574.88 885.378 575.745 887.153L575.71 887.073L620.373 967.457C621.619 972.056 625.755 975.383 630.669 975.383C632.107 975.383 633.478 975.098 634.729 974.582L634.658 974.608L689.954 951.466C700.691 960.219 713.116 967.46 726.581 972.594L727.501 972.902L736.427 1035.43C737.584 1040.62 742.146 1044.44 747.6 1044.44C748.071 1044.44 748.535 1044.41 748.991 1044.35L748.936 1044.36H840.038C847.189 1044.36 850.756 1042.65 852.548 1035.43L861.474 972.901C875.814 966.724 888.163 959.547 899.52 951.11L899.02 951.465L954.401 974.693C961.535 976.485 966.894 974.693 968.686 967.542L1013.35 887.158C1015.06 880.024 1015.06 876.44 1011.64 872.873L961.62 838.927C962.778 832.714 963.44 825.566 963.44 818.264C963.44 817.362 963.43 816.463 963.41 815.566L963.412 815.699C963.48 814.467 963.519 813.025 963.519 811.575C963.519 805.44 962.827 799.466 961.518 793.728L961.621 794.264L1009.87 756.717C1018.64 749.6 1018.64 746.016 1016.85 740.657L1016.85 740.659ZM795.307 885.367C756.849 885.309 725.689 854.143 725.641 815.688V815.683C725.641 777.207 756.832 746.017 795.307 746.017C833.782 746.017 864.973 777.208 864.973 815.683C864.925 854.142 833.765 885.308 795.313 885.366L795.307 885.367Z" fill="black"/>
</g>
<defs>
<clipPath id="clip0_2_369">
<rect width="1024" height="1024" fill="white"/>
</clipPath>
</defs>
</svg>
