<svg width="1024" height="1024" viewBox="0 0 1024 1024" fill="none" xmlns="http://www.w3.org/2000/svg">
<path d="M902.4 252.801V188.801C902.4 164.801 886.4 145.601 851.2 124.801C816 104.001 768 88.0008 708.8 76.8008C648 65.6008 584 60.8008 513.6 60.8008C443.2 60.8008 377.6 65.6008 318.4 76.8008C259.2 88.0008 209.6 105.601 174.4 124.801C139.2 144.001 123.2 164.801 123.2 188.801V252.801C123.2 276.801 139.2 296.001 174.4 316.801C195.2 329.601 220.8 339.201 251.2 348.801V414.401C200 401.601 156.8 384.001 120 360.001V446.401C120 470.401 136 489.601 171.2 510.401C193.6 523.201 219.2 534.401 251.2 544.001V609.601C200 596.801 156.8 577.601 120 553.601V640.001C120 662.401 136 683.201 171.2 704.001C193.6 716.801 219.2 728.001 251.2 737.601V803.201C200 788.801 156.8 771.201 120 748.801V835.201C120 857.601 136 878.401 171.2 899.201C206.4 920.001 254.4 936.001 313.6 947.201C374.4 958.401 438.4 963.201 508.8 963.201C579.2 963.201 644.8 958.401 704 947.201C764.8 934.401 811.2 920.001 846.4 899.201C881.6 880.001 897.6 859.201 897.6 835.201V748.801C876.8 763.201 851.2 777.601 822.4 787.201L816 776.001L790.4 728.001C809.6 721.601 827.2 713.601 843.2 704.001C878.4 684.801 894.4 664.001 894.4 640.001V553.601C854.4 582.401 803.2 603.201 732.8 617.601L718.4 592.001C732.8 579.201 745.6 563.201 756.8 545.601C792 536.001 820.8 524.801 844.8 510.401C880 491.201 896 470.401 896 446.401V360.001C868.8 380.801 833.6 396.801 792 409.601C790.4 388.801 787.2 366.401 780.8 347.201C808 339.201 830.4 329.601 849.6 318.401C886.4 297.601 902.4 276.801 902.4 252.801ZM638.4 571.201L760 806.401H600L500.8 596.801H454.4V806.401H315.2V241.601H539.2C664 241.601 731.2 329.601 731.2 422.401C729.6 500.801 683.2 548.801 638.4 571.201ZM531.2 366.401H452.8V480.001H531.2C569.6 480.001 592 452.801 592 422.401C592 393.601 569.6 366.401 531.2 366.401Z" fill="black"/>
</svg>
