<svg width="1024" height="1024" viewBox="0 0 1024 1024" fill="none" xmlns="http://www.w3.org/2000/svg">
<path d="M900.8 204.801V188.801C900.8 180.801 899.2 174.401 896 168.001C889.6 153.601 873.6 139.201 849.6 124.801C814.4 104.001 766.4 88.0008 707.2 76.8008C646.4 65.6008 582.4 60.8008 512 60.8008C441.6 60.8008 376 65.6008 316.8 76.8008C257.6 88.0008 208 104.001 172.8 124.801C150.4 139.201 134.4 152.001 128 168.001C124.8 174.401 123.2 182.401 123.2 188.801V448.001C123.2 464.001 131.2 478.401 145.6 492.801L169.6 582.401C152 574.401 136 564.801 121.6 555.201V640.001C121.6 662.401 137.6 684.801 172.8 704.001C184 710.401 195.2 715.201 208 721.601L228.8 796.801C187.2 784.001 150.4 766.401 121.6 748.801V835.201C121.6 857.601 137.6 880.001 172.8 899.201C208 920.001 256 936.001 315.2 947.201C376 958.401 440 963.201 510.4 963.201C580.8 963.201 646.4 958.401 705.6 947.201C766.4 934.401 812.8 920.001 848 899.201C883.2 878.401 899.2 859.201 899.2 835.201V748.801C870.4 769.601 836.8 785.601 793.6 798.401L814.4 720.001C825.6 715.201 835.2 710.401 844.8 705.601C880 684.801 896 665.601 896 641.601V555.201C883.2 564.801 868.8 572.801 852.8 580.801L876.8 491.201C891.2 478.401 899.2 464.001 899.2 449.601V363.201L900.8 204.801ZM788.8 536.001L769.6 608.001L732.8 744.001L716.8 803.201H603.2L590.4 764.801L548.8 638.401L528 574.401L512 526.401L486.4 603.201L420.8 803.201H308.8L256 608.001L236.8 536.001L198.4 396.801L195.2 387.201L182.4 340.801L155.2 241.601H299.2L331.2 368.001L337.6 396.801L372.8 539.201L403.2 441.601V440.001L411.2 416.001L464 241.601H561.6L614.4 412.801L622.4 441.601L652.8 539.201L678.4 435.201L694.4 368.001L726.4 241.601H870.4L788.8 536.001Z" fill="black"/>
</svg>
