<svg width="1024" height="1024" viewBox="0 0 1024 1024" fill="none" xmlns="http://www.w3.org/2000/svg">
<path d="M848.002 318.401C884.802 297.601 900.802 276.801 900.802 252.801V188.801C900.802 164.801 884.802 144.001 849.602 124.801C814.402 104.001 766.402 88.0008 707.202 76.8008C646.402 65.6008 582.402 60.8008 512.002 60.8008C441.602 60.8008 376.002 65.6008 316.802 76.8008C257.602 88.0008 208.002 104.001 172.802 124.801C137.602 145.601 121.602 164.801 121.602 188.801V252.801C121.602 276.801 137.602 297.601 172.802 316.801H174.402V387.201C155.202 379.201 137.602 369.601 121.602 358.401V444.801C121.602 468.801 137.602 489.601 172.802 508.801H174.402V579.201C155.202 571.201 137.602 560.001 121.602 550.401V640.001C121.602 662.401 137.602 684.801 172.802 704.001H174.402V777.601C155.202 769.601 137.602 760.001 121.602 748.801V835.201C121.602 857.601 137.602 880.001 172.802 899.201C208.002 920.001 256.002 936.001 315.202 947.201C376.002 958.401 440.002 963.201 510.402 963.201C580.802 963.201 646.402 958.401 705.602 947.201C766.402 934.401 812.802 920.001 848.002 899.201C883.202 878.401 899.202 859.201 899.202 835.201V748.801C884.802 760.001 867.202 769.601 848.002 777.601V702.401C881.602 683.201 897.602 662.401 897.602 640.001V553.601C883.202 564.801 867.202 572.801 848.002 582.401V512.001C883.202 491.201 899.202 472.001 899.202 448.001V361.601C884.802 372.801 867.202 382.401 848.002 390.401V318.401ZM595.202 608.001L577.602 638.401L556.802 675.201H468.802L448.002 638.401L409.602 571.201L388.802 534.401V804.801H248.002V241.601H384.002L454.402 380.801L488.002 446.401L510.402 489.601L542.402 427.201L566.402 380.801L636.802 241.601H772.802V804.801H635.202V534.401L595.202 608.001Z" fill="black"/>
</svg>
