<svg width="1024" height="1024" viewBox="0 0 1024 1024" fill="none" xmlns="http://www.w3.org/2000/svg">
<path d="M900.802 252.801V188.801C900.802 164.801 884.802 144.001 849.602 124.801C814.402 104.001 766.402 88.0008 707.202 76.8008C646.402 65.6008 582.402 60.8008 512.002 60.8008C441.602 60.8008 376.002 65.6008 316.802 76.8008C257.602 88.0008 208.002 104.001 172.802 124.801C137.602 145.601 121.602 164.801 121.602 188.801V252.801C121.602 276.801 137.602 297.601 172.802 316.801C193.602 328.001 217.602 339.201 246.402 347.201V412.801C196.802 400.001 156.802 384.001 123.202 360.001V446.401C123.202 470.401 139.202 491.201 174.402 510.401C195.202 521.601 219.202 532.801 248.002 540.801V608.001C198.402 595.201 156.802 576.001 123.202 553.601V640.001C123.202 662.401 139.202 684.801 174.402 704.001C195.202 715.201 219.202 726.401 248.002 734.401V801.601C198.402 787.201 156.802 769.601 123.202 747.201V833.601C123.202 856.001 139.202 878.401 174.402 897.601C209.602 918.401 257.602 934.401 316.802 945.601C377.602 956.801 441.602 961.601 512.002 961.601C582.402 961.601 648.002 956.801 707.202 945.601C768.002 932.801 814.402 918.401 849.602 897.601C884.802 876.801 900.802 857.601 900.802 833.601V747.201C860.802 776.001 806.402 796.801 737.602 811.201C675.202 824.001 606.402 832.001 534.402 833.601V768.001C595.202 766.401 652.802 761.601 705.602 752.001C766.402 739.201 812.802 724.801 848.002 704.001C883.202 683.201 899.202 664.001 899.202 640.001V553.601C859.202 582.401 804.802 603.201 736.002 617.601C729.602 619.201 723.202 620.801 716.802 620.801C745.602 598.401 768.002 569.601 784.002 537.601C809.602 529.601 830.402 520.001 849.602 510.401C884.802 489.601 900.802 470.401 900.802 446.401V360.001C875.202 377.601 846.402 392.001 811.202 404.801C811.202 403.201 811.202 401.601 811.202 400.001C811.202 395.201 809.602 390.401 809.602 384.001C809.602 382.401 809.602 380.801 809.602 379.201C808.002 372.801 808.002 368.001 806.402 360.001V358.401C804.802 353.601 803.202 347.201 801.602 342.401C820.802 336.001 840.002 328.001 854.402 318.401C884.802 297.601 900.802 276.801 900.802 252.801ZM617.602 592.001C616.002 592.001 614.402 593.601 611.202 593.601C608.002 595.201 604.802 595.201 601.602 596.801C598.402 596.801 595.202 598.401 592.002 598.401C588.802 598.401 585.602 600.001 584.002 600.001C580.802 600.001 576.002 601.601 571.202 601.601C568.002 601.601 566.402 601.601 563.202 603.201C556.802 603.201 548.802 604.801 542.402 604.801H457.602V804.801H318.402V241.601H544.002C641.602 241.601 702.402 294.401 726.402 361.601C728.002 366.401 729.602 371.201 731.202 376.001C732.802 380.801 732.802 385.601 734.402 390.401C734.402 392.001 734.402 393.601 734.402 393.601C734.402 396.801 736.002 401.601 736.002 404.801C736.002 409.601 736.002 416.001 736.002 420.801C736.002 494.401 694.402 564.801 617.602 592.001ZM596.802 411.201V409.601C595.202 406.401 595.202 403.201 593.602 400.001C590.402 393.601 585.602 387.201 579.202 380.801C569.602 371.201 555.202 366.401 537.602 366.401H459.202V480.001H537.602C566.402 480.001 585.602 464.001 593.602 444.801C596.802 438.401 596.802 430.401 596.802 424.001C598.402 419.201 596.802 414.401 596.802 411.201Z" fill="black"/>
</svg>
