<svg width="1024" height="1024" viewBox="0 0 1024 1024" fill="none" xmlns="http://www.w3.org/2000/svg">
<path d="M512.001 1019.2C790.401 1019.2 1019.2 792.001 1019.2 512.001C1019.2 232.001 790.401 4.80078 512.001 4.80078C233.601 4.80078 4.80078 233.601 4.80078 512.001C4.80078 790.401 233.601 1019.2 512.001 1019.2ZM512.001 89.6008C744.001 89.6008 934.401 278.401 934.401 512.001C934.401 611.201 899.201 704.001 840.001 777.601L801.601 739.201L811.201 736.001C788.801 686.401 747.201 662.401 718.401 649.601C728.001 627.201 732.801 604.801 737.601 579.201C760.001 577.601 795.201 577.601 827.201 596.801L857.601 550.401C816.001 524.801 771.201 521.601 739.201 524.801C737.601 504.001 736.001 484.801 729.601 467.201C760.001 460.801 801.601 443.201 833.601 395.201L787.201 363.201C763.201 401.601 729.601 409.601 710.401 414.401C699.201 392.001 686.401 371.201 668.801 353.601C672.001 340.801 675.201 328.001 675.201 313.601C675.201 273.601 660.801 238.401 636.801 211.201L667.201 180.801L625.601 137.601L592.001 171.201C569.601 158.401 542.401 150.401 513.601 150.401C484.801 150.401 459.201 158.401 435.201 171.201L401.601 137.601L361.601 177.601L392.001 208.001C372.801 230.401 360.001 260.801 356.801 292.801L249.601 185.601C320.001 126.401 412.801 89.6008 512.001 89.6008ZM512.001 206.401C568.001 206.401 614.401 251.201 616.001 305.601C584.001 286.401 548.801 276.801 512.001 276.801C475.201 276.801 440.001 286.401 408.001 305.601C409.601 252.801 456.001 206.401 512.001 206.401ZM185.601 244.801L326.401 385.601C320.001 393.601 316.801 400.001 313.601 408.001C294.401 406.401 260.801 396.801 235.201 356.801L188.801 388.801C220.801 438.401 264.001 454.401 294.401 462.401C288.001 481.601 286.401 500.801 284.801 520.001C254.401 518.401 206.401 520.001 164.801 545.601L195.201 592.001C227.201 572.801 265.601 571.201 288.001 574.401C291.201 598.401 297.601 620.801 305.601 644.801C275.201 657.601 233.601 683.201 211.201 731.201L262.401 753.601C276.801 718.401 312.001 700.801 332.801 692.801C374.401 755.201 440.001 796.801 513.601 796.801C576.001 796.801 630.401 768.001 672.001 723.201L780.801 832.001C707.201 892.801 614.401 928.001 513.601 928.001C281.601 928.001 91.2008 739.201 91.2008 505.601C89.6008 409.601 126.401 318.401 185.601 244.801Z" fill="black"/>
</svg>
