<svg width="1024" height="1024" viewBox="0 0 1024 1024" fill="none" xmlns="http://www.w3.org/2000/svg">
<path d="M512 942.4C748.8 942.4 942.4 748.8 942.4 512C942.4 275.2 748.8 81.5996 512 81.5996C275.2 81.5996 81.5996 275.2 81.5996 512C81.5996 748.8 275.2 942.4 512 942.4ZM512 153.6C708.8 153.6 870.4 313.6 870.4 512C870.4 596.8 840 675.2 790.4 737.6L758.4 705.6L766.4 702.4C747.2 660.8 712 640 688 628.8C696 609.6 700.8 590.4 704 569.6C723.2 568 753.6 568 780.8 584L806.4 544C771.2 521.6 732.8 520 705.6 521.6C704 504 702.4 488 697.6 472C723.2 467.2 758.4 451.2 785.6 411.2L745.6 384C724.8 416 696 424 680 427.2C670.4 408 659.2 390.4 644.8 376C648 364.8 649.6 353.6 649.6 342.4C649.6 308.8 636.8 278.4 617.6 256L643.2 230.4L608 193.6L579.2 222.4C560 211.2 537.6 204.8 512 204.8C488 204.8 465.6 211.2 444.8 222.4L416 193.6L382.4 227.2L408 252.8C392 272 380.8 297.6 377.6 324.8L286.4 233.6C348.8 184 427.2 153.6 512 153.6ZM512 252.8C560 252.8 598.4 291.2 600 337.6C572.8 321.6 542.4 313.6 512 313.6C481.6 313.6 451.2 321.6 424 337.6C425.6 291.2 464 252.8 512 252.8ZM235.2 284.8L355.2 404.8C350.4 411.2 347.2 417.6 344 424C328 422.4 299.2 414.4 276.8 380.8L236.8 408C264 449.6 300.8 464 326.4 470.4C321.6 486.4 320 502.4 318.4 520C292.8 518.4 251.2 520 216 542.4L241.6 582.4C268.8 566.4 300.8 564.8 320 568C323.2 588.8 328 608 334.4 627.2C308.8 638.4 273.6 659.2 254.4 700.8L297.6 720C310.4 689.6 339.2 675.2 356.8 668.8C392 721.6 448 756.8 510.4 756.8C563.2 756.8 609.6 732.8 644.8 694.4L737.6 787.2C675.2 838.4 596.8 868.8 510.4 868.8C313.6 868.8 152 708.8 152 510.4C153.6 425.6 184 347.2 235.2 284.8Z" fill="black"/>
</svg>
