<svg width="1024" height="1024" viewBox="0 0 1024 1024" fill="none" xmlns="http://www.w3.org/2000/svg">
<path d="M512 870.4C315.2 870.4 153.6 710.4 153.6 512C153.6 425.6 184 347.2 235.2 284.8L355.2 404.8C350.4 411.2 347.2 417.6 344 424C328 422.4 299.2 414.4 276.8 380.8L236.8 408C264 449.6 300.8 464 326.4 470.4C321.6 486.4 320 502.4 318.4 520C292.8 518.4 251.2 520 216 542.4L241.6 582.4C268.8 566.4 300.8 564.8 320 568C323.2 588.8 328 608 334.4 627.2C308.8 638.4 273.6 659.2 254.4 700.8L297.6 720C310.4 689.6 339.2 675.2 356.8 668.8C390.4 718.4 441.6 752 499.2 755.2C500.8 755.2 500.8 755.2 500.8 755.2C505.6 635.2 590.4 536 704 508.8V507.2C702.4 494.4 700.8 481.6 697.6 470.4C723.2 465.6 758.4 449.6 785.6 409.6L745.6 382.4C724.8 414.4 696 422.4 680 425.6C670.4 406.4 659.2 388.8 644.8 374.4C648 363.2 649.6 352 649.6 340.8C649.6 307.2 636.8 276.8 617.6 254.4L643.2 228.8L608 193.6L579.2 222.4C560 211.2 537.6 204.8 512 204.8C488 204.8 465.6 211.2 444.8 222.4L416 193.6L382.4 227.2L408 252.8C392 272 380.8 297.6 377.6 324.8L286.4 233.6C348.8 184 427.2 153.6 512 153.6C708.8 153.6 870.4 313.6 870.4 512C870.4 515.2 870.4 520 870.4 523.2C894.4 534.4 918.4 548.8 937.6 566.4C940.8 548.8 940.8 529.6 940.8 512C942.4 275.2 748.8 81.5996 512 81.5996C275.2 81.5996 81.5996 275.2 81.5996 512C81.5996 748.8 275.2 942.4 512 942.4C529.6 942.4 548.8 940.8 566.4 939.2C547.2 918.4 532.8 894.4 521.6 867.2C520 870.4 515.2 870.4 512 870.4ZM512 252.8C560 252.8 598.4 291.2 600 337.6C572.8 321.6 542.4 313.6 512 313.6C481.6 313.6 451.2 321.6 424 337.6C425.6 291.2 464 252.8 512 252.8ZM961.6 696L920 624C918.4 620.8 912 617.6 907.2 620.8L857.6 640C854.4 636.8 849.6 633.6 844.8 630.4C836.8 624 830.4 620.8 822.4 617.6L814.4 563.2C812.8 556.8 808 555.2 803.2 555.2H721.6C715.2 555.2 712 556.8 710.4 563.2L702.4 617.6C694.4 620.8 688 625.6 680 630.4C676.8 632 672 636.8 667.2 638.4L648 630.4L617.6 619.2C611.2 617.6 608 619.2 604.8 622.4L564.8 694.4C563.2 700.8 563.2 704 566.4 707.2L596.8 729.6L611.2 740.8C609.6 747.2 609.6 753.6 609.6 761.6C609.6 761.6 609.6 761.6 609.6 763.2C609.6 769.6 609.6 776 611.2 782.4L568 814.4C564.8 817.6 564.8 822.4 566.4 827.2L606.4 899.2C608 905.6 614.4 907.2 619.2 905.6L668.8 884.8C680 894.4 691.2 899.2 702.4 904L710.4 960C712 966.4 716.8 968 721.6 968H803.2C809.6 968 812.8 966.4 814.4 960L822.4 904C835.2 897.6 846.4 892.8 856 884.8L905.6 905.6C912 907.2 916.8 905.6 918.4 899.2L958.4 827.2C960 820.8 960 817.6 956.8 814.4L912 784C913.6 774.4 913.6 769.6 913.6 763.2C913.6 755.2 913.6 750.4 912 744L955.2 710.4C963.2 704 963.2 700.8 961.6 696ZM763.2 825.6C728 825.6 700.8 796.8 700.8 763.2C700.8 729.6 729.6 700.8 763.2 700.8C796.8 700.8 825.6 729.6 825.6 763.2C825.6 796.8 798.4 825.6 763.2 825.6Z" fill="black"/>
</svg>
