<!-- Generated by IcoMoon.io -->
<svg version="1.1" xmlns="http://www.w3.org/2000/svg" width="32" height="32" viewBox="0 0 32 32">
<path d="M26.4 14.37c1.637-2.216 2.842-4.855 3.43-7.719l0.022-0.128c0.339-1.558 0.541-3.162 0.778-4.812 0.002-0.011 0.003-0.024 0.003-0.037 0-0.134-0.108-0.242-0.242-0.242-0.007 0-0.013 0-0.020 0.001l0.001-0c-1.134 0.095-4.957 0.53-6.819 1.12-3.921 1.138-7.206 3.427-9.561 6.472l-0.032 0.043c-1.849 2.398-3.441 5.138-4.653 8.075l-0.087 0.238c-0.034 0.081-0.055 0.175-0.055 0.274 0 0.222 0.101 0.42 0.26 0.551l0.001 0.001c1.446 1.392 2.892 2.836 4.287 4.279 0.136 0.2 0.363 0.33 0.62 0.33 0.154 0 0.297-0.047 0.416-0.126l-0.003 0.002c1.857-0.983 3.714-1.862 5.52-2.896 2.439-1.403 4.481-3.218 6.096-5.372l0.037-0.052zM19.216 13.645c-0.9-0.605-1.484-1.62-1.484-2.771 0-1.839 1.49-3.329 3.329-3.329s3.329 1.49 3.329 3.329c0 1.148-0.582 2.161-1.466 2.759l-0.012 0.008c-0.52 0.352-1.161 0.561-1.851 0.561-0.688 0-1.327-0.208-1.857-0.565l0.012 0.008zM4.357 27.478c-0.074-2.908 1.297-6.249 4.295-7.777 0.019-0.009 0.041-0.015 0.065-0.015 0.082 0 0.148 0.066 0.148 0.148 0 0.036-0.013 0.069-0.034 0.095l0-0c-0.899 1.117-0.329 1.702-0.31 3.398 0.002 0.079 0.065 0.142 0.143 0.146h0c1.785 0.047 2.328 0.688 3.546-0.373 0.026-0.024 0.061-0.039 0.099-0.039 0.081 0 0.147 0.066 0.147 0.147 0 0.013-0.002 0.026-0.005 0.039l0-0.001c-0.713 2.285-4.644 4.48-7.95 4.378-0.078-0.003-0.141-0.066-0.145-0.144v-0zM12.012 10.065c0.036 0.043 0.058 0.099 0.058 0.161 0 0.054-0.017 0.103-0.046 0.144l0.001-0.001c-0.409 0.546-0.821 1.139-1.227 1.783-0.823 1.289-1.579 2.774-2.191 4.332l-0.061 0.177c-0.036 0.091-0.123 0.153-0.225 0.153-0.015 0-0.029-0.001-0.043-0.004l0.001 0c-3.437-0.555-5.889-0.947-6.295-0.998-0.070-0.016-0.132-0.038-0.189-0.067l0.005 0.002c-0.254-0.111-0.429-0.36-0.429-0.65 0-0.213 0.094-0.403 0.243-0.533l0.001-0.001c0.020-0.016 0.044-0.031 0.068-0.043l0.002-0.001c2.902-1.629 5.856-3.207 8.758-4.785 0.831-0.432 0.878-0.457 1.569 0.329zM21.87 19.924c-0.043-0.036-0.1-0.058-0.161-0.058-0.054 0-0.103 0.017-0.144 0.045l0.001-0.001c-0.545 0.409-1.139 0.821-1.783 1.227-1.289 0.823-2.774 1.579-4.332 2.191l-0.177 0.061c-0.091 0.036-0.153 0.123-0.153 0.225 0 0.015 0.001 0.029 0.004 0.043l-0-0.001c0.556 3.438 0.947 5.891 0.998 6.295 0.016 0.070 0.038 0.132 0.067 0.189l-0.002-0.005c0.111 0.254 0.36 0.429 0.65 0.429 0.213 0 0.403-0.094 0.533-0.243l0.001-0.001c0.016-0.020 0.031-0.044 0.043-0.068l0.001-0.002c1.629-2.902 3.207-5.856 4.785-8.758 0.432-0.831 0.457-0.878-0.329-1.569z"></path>
</svg>
