<svg width="1024" height="1024" viewBox="0 0 1024 1024" fill="none" xmlns="http://www.w3.org/2000/svg">
<path d="M220.801 222.4C300.801 142.4 398.401 102.4 512.001 102.4C625.601 102.4 721.601 142.4 803.201 222.4C884.801 302.4 923.201 398.4 923.201 512C923.201 625.6 883.201 721.6 803.201 801.6C723.201 881.6 625.601 921.6 512.001 921.6C398.401 921.6 302.401 881.6 220.801 801.6C140.801 721.6 100.801 625.6 100.801 512C100.801 398.4 140.801 302.4 220.801 222.4ZM280.001 745.6C344.001 809.6 420.801 841.6 512.001 841.6C603.201 841.6 680.001 809.6 744.001 745.6C808.001 681.6 840.001 603.2 840.001 512C840.001 420.8 808.001 344 744.001 278.4C680.001 212.8 603.201 182.4 512.001 182.4C420.801 182.4 344.001 214.4 280.001 278.4C216.001 342.4 184.001 420.8 184.001 512C184.001 603.2 216.001 680 280.001 745.6ZM470.401 388.8V305.6H553.601V388.8H470.401ZM470.401 718.4V472H553.601V718.4H470.401Z" fill="black"/>
</svg>
