<!-- Generated by IcoMoon.io -->
<svg version="1.1" xmlns="http://www.w3.org/2000/svg" width="32" height="32" viewBox="0 0 32 32">
<path d="M26.187 17.619l2.88 2.24c0.32 0.213 0.32 0.533 0.107 0.907l-2.773 4.747c-0.16 0.32-0.427 0.373-0.853 0.267l-3.413-1.333c-0.907 0.64-1.653 1.067-2.293 1.333l-0.533 3.573c-0.107 0.373-0.32 0.587-0.64 0.587h-5.44c-0.32 0-0.533-0.213-0.64-0.587l-0.533-3.573c-0.8-0.32-1.6-0.8-2.293-1.333l-3.36 1.28c-0.373 0.107-0.64 0.053-0.853-0.267l-2.773-4.747c-0.213-0.373-0.16-0.693 0.107-0.907l2.88-2.24c-0.053-0.32-0.053-0.747-0.053-1.333s0-1.067 0.053-1.333l-2.88-2.24c-0.32-0.213-0.32-0.533-0.107-0.907l2.773-4.747c0.16-0.32 0.427-0.373 0.853-0.267l3.413 1.333c0.907-0.64 1.653-1.067 2.293-1.333l0.533-3.573c0.107-0.373 0.32-0.587 0.64-0.587h5.493c0.32 0 0.533 0.213 0.64 0.587l0.533 3.573c0.8 0.32 1.6 0.8 2.293 1.333l3.413-1.333c0.373-0.107 0.64-0.053 0.853 0.267l2.773 4.747c0.213 0.373 0.16 0.693-0.107 0.907l-2.88 2.24c0.053 0.32 0.053 0.747 0.053 1.333-0.107 0.64-0.16 1.12-0.16 1.387zM12.587 19.699c0.96 0.96 2.080 1.387 3.413 1.387s2.453-0.48 3.413-1.387c0.96-0.96 1.387-2.080 1.387-3.413s-0.48-2.453-1.387-3.413c-0.96-0.907-2.080-1.387-3.413-1.387s-2.453 0.48-3.413 1.387c-0.907 0.96-1.387 2.080-1.387 3.413s0.48 2.453 1.387 3.413z"></path>
</svg>
