<svg width="1024" height="1024" viewBox="0 0 1024 1024" fill="none" xmlns="http://www.w3.org/2000/svg">
<path d="M512 942.4C748.8 942.4 942.4 748.8 942.4 512C942.4 275.2 748.8 81.5996 512 81.5996C275.2 81.5996 81.5996 275.2 81.5996 512C81.5996 748.8 275.2 942.4 512 942.4ZM512 153.6C708.8 153.6 870.4 313.6 870.4 512C870.4 596.8 840 675.2 790.4 737.6L286.4 233.6C348.8 184 427.2 153.6 512 153.6ZM235.2 284.8L737.6 787.2C675.2 838.4 596.8 868.8 510.4 868.8C313.6 868.8 152 708.8 152 510.4C153.6 425.6 184 347.2 235.2 284.8Z" fill="black"/>
</svg>
