<svg width="1024" height="1024" viewBox="0 0 1024 1024" fill="none" xmlns="http://www.w3.org/2000/svg">
<path d="M639.998 206.4L479.998 280L515.198 356.8L675.198 283.2C708.798 267.2 742.398 265.6 779.198 280C815.998 294.4 839.998 316.8 855.998 350.4C871.998 384 873.598 417.6 859.198 454.4C846.398 491.2 822.398 515.2 788.798 531.2L628.798 604.8L663.998 681.6L823.998 608C878.398 582.4 916.798 540.8 937.598 483.2C958.398 425.6 956.798 368 932.798 315.2C907.198 260.8 865.598 222.4 807.998 201.6C750.398 179.2 692.798 182.4 639.998 206.4ZM97.8984 327.106L133.91 248.568L311.347 329.927L275.335 408.465L97.8984 327.106ZM261.754 129.821L342.754 99.7539L410.684 282.754L329.684 312.821L261.754 129.821ZM137.598 787.2C150.398 846.4 182.398 894.4 231.998 926.4C283.198 960 337.598 968 398.398 955.2C459.198 942.4 505.598 910.4 537.598 860.8L633.598 713.6L561.598 667.2L465.598 814.4C444.798 846.4 415.998 867.2 379.198 875.2C342.398 881.6 307.198 876.8 276.798 856C246.398 835.2 225.598 808 217.598 769.6C207.998 732.8 215.998 697.6 236.798 665.6L332.798 518.4L260.798 472L164.798 619.2C135.998 670.4 124.798 726.4 137.598 787.2Z" fill="black"/>
</svg>
