<svg width="1024" height="1024" viewBox="0 0 1024 1024" fill="none" xmlns="http://www.w3.org/2000/svg">
<path d="M264 652.801H332.8V947.201H264V652.801ZM353.6 972.801H401.6L502.4 652.801H454.4L353.6 972.801ZM646.4 649.601C609.6 649.601 579.2 660.801 555.2 684.801C532.8 708.801 520 737.601 520 774.401V827.201C520 864.001 531.2 892.801 555.2 916.801C579.2 940.801 608 952.001 646.4 952.001C683.2 952.001 713.6 940.801 736 916.801C758.4 892.801 771.2 864.001 771.2 827.201V774.401C771.2 737.601 760 708.801 736 684.801C713.6 660.801 683.2 649.601 646.4 649.601ZM704 827.201C704 848.001 699.2 865.601 689.6 880.001C680 892.801 665.6 900.801 648 900.801C628.8 900.801 616 894.401 604.8 880.001C595.2 867.201 590.4 849.601 590.4 827.201V774.401C590.4 753.601 595.2 736.001 604.8 723.201C614.4 710.401 628.8 702.401 648 702.401C665.6 702.401 680 708.801 689.6 723.201C699.2 736.001 704 752.001 704 774.401V827.201ZM766.4 121.601L737.6 100.801H262.4L230.4 126.401L84.8 241.601L40 276.801V571.201H984V270.401L936 236.801L766.4 121.601ZM676.8 468.801H144V350.401H676.8V468.801ZM824 468.801C790.4 468.801 763.2 441.601 763.2 408.001C763.2 374.401 790.4 347.201 824 347.201C857.6 347.201 884.8 374.401 884.8 408.001C884.8 443.201 857.6 468.801 824 468.801Z" fill="black"/>
</svg>
