<svg width="1024" height="1024" viewBox="0 0 1024 1024" fill="none" xmlns="http://www.w3.org/2000/svg">
<path d="M791.892 232.108C764.585 204.801 732.159 179.201 696.319 160.428L706.559 136.535L672.426 122.882C570.026 80.2148 453.973 80.2148 351.573 124.589L317.44 138.242L327.68 163.842C257.707 201.389 201.387 257.709 163.84 327.682L136.533 317.442L122.88 351.575C80.2129 453.975 80.2129 570.028 124.587 672.428L138.24 706.561L163.84 696.321C182.613 732.161 206.507 762.881 233.813 790.188C261.12 819.201 293.546 843.095 329.386 861.868L317.439 887.468L351.572 901.121C453.972 943.788 570.025 943.788 672.425 899.414L706.558 885.761L696.318 860.161C766.291 822.614 822.611 766.294 860.158 696.321L885.758 706.561L899.411 672.428C942.078 570.028 942.078 453.975 897.704 351.575L884.051 317.442L858.451 327.682C843.091 291.842 819.198 261.122 791.891 232.109L791.892 232.108ZM428.372 218.454L411.305 177.494C476.158 158.721 544.425 158.721 609.278 177.494L563.198 288.427C529.065 281.6 493.225 281.6 459.091 288.427L428.372 218.454ZM177.492 414.721L288.425 459.094C281.598 493.227 281.598 529.067 288.425 563.201L177.492 609.281C158.719 546.134 158.719 477.868 177.492 414.721ZM595.626 805.548L612.693 846.508C547.84 865.281 479.573 865.281 414.72 846.508L459.093 735.575C493.226 742.402 529.066 742.402 563.2 735.575L595.626 805.548ZM655.359 570.028L641.706 604.161L662.186 612.694C650.239 633.174 633.173 648.534 614.399 660.481L605.866 640.001L571.733 653.654C532.48 670.721 491.52 670.721 452.266 653.654L418.133 640.001L409.6 662.188C389.12 651.948 368.64 631.468 360.107 616.108L380.587 607.575L366.934 573.442C349.867 534.189 349.867 493.229 366.934 453.975L380.587 419.842L360.107 409.602C372.054 387.415 389.12 372.055 407.894 361.815L416.427 382.295L450.56 368.642C489.813 351.575 530.773 351.575 570.027 368.642L604.16 382.295L612.693 361.815C629.76 368.642 655.36 392.535 662.186 407.895L641.706 416.428L655.359 450.561C672.426 489.814 672.426 532.481 655.359 570.028ZM846.506 609.281L735.573 564.908C742.4 530.775 742.4 494.935 735.573 460.801L846.506 414.721C865.279 477.868 865.279 546.134 846.506 609.281Z" fill="black"/>
</svg>
