<svg width="1024" height="1024" viewBox="0 0 1024 1024" fill="none" xmlns="http://www.w3.org/2000/svg">
<path d="M211.552 179H188.386C184.053 179 180.553 182.5 180.553 186.833V697.987C180.553 702.487 184.219 706.154 188.886 705.987C255.551 703.154 395.048 710.82 487.879 807.985V321.83C487.879 315.997 486.379 310.663 483.545 306.164C415.214 196 283.717 179.333 211.385 179.167L211.552 179Z" fill="black"/>
<path d="M843.37 697.987C843.37 635.822 843.37 246.832 843.37 186.833C843.37 182.5 839.87 179 835.536 179H812.37C740.039 179.167 608.708 195.833 540.21 305.997C537.377 310.497 535.877 315.83 535.877 321.663V807.818C628.708 710.654 768.205 703.154 834.87 705.821C839.37 705.987 843.203 702.321 843.203 697.821L843.37 697.987Z" fill="black"/>
<path d="M933.201 286.164H891.368V691.154C891.368 734.653 872.536 753.486 829.037 753.486C767.871 753.486 650.374 765.652 578.876 833.151C716.706 799.485 862.869 827.818 930.201 845.151C937.534 846.984 944.7 841.484 944.7 833.817V297.83C944.7 291.331 939.534 286.164 933.034 286.164H933.201Z" fill="black"/>
<path d="M132.553 691.321V286.164H92.3877C85.0545 286.164 79.0547 292.164 79.0547 299.497V831.818C79.0547 840.484 87.2212 846.817 95.721 844.651C164.053 827.318 308.549 799.818 444.879 833.151C373.381 765.486 255.884 753.653 194.719 753.486C151.22 753.486 132.387 734.653 132.387 691.154L132.553 691.321Z" fill="black"/>
</svg>
