<svg width="1024" height="1024" viewBox="0 0 1024 1024" fill="none" xmlns="http://www.w3.org/2000/svg">
<path fill="currentColor" d="M500.703 813.721C500.703 651.175 632.472 519.406 795.018 519.406C795.041 519.406 795.069 519.406 795.096 519.406C805.671 519.406 816.118 519.958 826.408 521.034L825.123 520.925V311.585L620.442 106.887H198.895V959.777H539.733C515.193 917.891 500.702 867.541 500.702 813.805C500.702 813.775 500.702 813.745 500.702 813.716L500.703 813.721ZM561.955 193.792H620.425V310.75H737.4V369.237H561.955V193.792Z" />
<path fill="currentColor" d="M767.217 906.381V851.158L692.63 924.311L767.217 998.898V943.675C807.38 943.675 841.805 929.331 871.209 900.644C899.897 871.956 914.241 836.814 914.241 795.934C914.241 767.964 907.069 741.428 892.008 717.044L865.472 743.58C874.078 760.075 878.381 777.287 878.381 795.217C877.664 826.056 866.906 851.875 845.391 873.391C823.875 895.623 797.339 906.381 767.217 906.381ZM767.217 647.477C726.337 647.477 691.195 661.82 662.508 690.508C633.82 719.195 619.477 754.337 619.477 795.217C619.477 823.188 626.648 849.723 641.709 874.108L669.68 847.572C661.073 831.794 656.77 813.864 656.77 795.934C656.77 765.095 667.528 739.277 689.044 717.761C710.559 696.245 736.378 685.487 767.217 685.487V740.711L840.37 667.558L767.217 592.253V647.477Z" />
</svg>
