<svg width="1024" height="1024" viewBox="0 0 1024 1024" fill="none" xmlns="http://www.w3.org/2000/svg">
<path d="M632.327 384.788V624.046H901.98C901.98 624.046 901.983 624.046 901.985 624.046C906.615 624.046 910.8 622.146 913.805 619.082L913.808 619.079L1011.22 519.734C1014.18 516.717 1016.01 512.579 1016.01 508.015C1016.01 503.652 1014.34 499.678 1011.61 496.698L913.876 390.163C910.836 386.854 906.488 384.787 901.658 384.787C901.651 384.787 901.645 384.787 901.638 384.787L632.327 384.788Z" fill="black"/>
<path d="M391.073 145.529H120.993C120.987 145.529 120.979 145.529 120.971 145.529C116.675 145.529 112.792 147.292 110.004 150.135L110.002 150.137L11.459 250.626C8.702 253.43 7 257.278 7 261.524C7 265.587 8.558 269.286 11.11 272.056L11.1 272.045L109.95 379.804C112.768 382.872 116.798 384.787 121.275 384.787C121.278 384.787 121.28 384.787 121.283 384.787H391.072L391.073 145.529Z" fill="black"/>
<path d="M568.413 57.944C568.346 52.99 564.315 49 559.351 49C559.309 49 559.267 49 559.224 49.001H465.995C465.959 49 465.917 49 465.875 49C460.912 49 456.88 52.99 456.813 57.937V965.548C456.88 970.502 460.911 974.492 465.875 974.492C465.917 974.492 465.959 974.492 466.002 974.491H559.231C559.267 974.492 559.309 974.492 559.351 974.492C564.314 974.492 568.346 970.502 568.413 965.555V57.944Z" fill="black"/>
</svg>
