<svg width="1024" height="1024" viewBox="0 0 1024 1024" fill="none" xmlns="http://www.w3.org/2000/svg">
<path d="M467.968 915.968H269.994V108.032H591.36L753.834 270.506V420.352C776.362 423.424 798.037 428.885 818.517 436.906V251.221C818.517 246.272 816.64 241.664 813.056 238.08L623.445 48.4691C620.032 45.0558 615.253 43.0078 610.474 43.0078H223.914C213.674 43.0078 205.482 51.1998 205.482 61.4398V961.877C205.482 972.117 213.674 980.309 223.914 980.309H547.84C525.312 967.85 504.661 953.003 486.57 935.594C480.085 929.28 473.941 922.624 468.138 915.797L467.968 915.968Z" fill="black"/>
<path d="M941.397 614.058C929.109 582.314 911.701 554.325 889.514 530.944C869.376 509.781 845.312 493.056 818.517 480.426C815.616 479.061 812.885 477.525 809.984 476.33C792.405 468.992 773.632 463.872 754.005 460.8C739.669 458.581 724.992 457.045 709.802 457.045C670.208 457.045 633.514 463.53 600.576 476.16C567.637 488.96 538.453 507.221 514.218 530.602C489.984 553.984 470.869 581.973 457.728 613.717C444.586 645.461 437.93 680.96 437.93 719.018C437.93 757.077 444.757 792.234 458.069 823.978C471.381 855.722 490.325 883.712 514.56 907.093C517.802 910.165 521.386 913.066 524.8 915.968C546.645 934.912 572.074 950.442 600.576 961.536C633.514 974.165 670.208 980.65 709.802 980.65C726.698 980.65 745.642 977.749 766.464 971.946C785.92 966.485 803.498 959.146 818.688 950.442C819.712 949.93 820.736 949.418 821.76 948.736L830.976 943.274L818.688 925.696L789.845 884.565L781.824 889.685C774.314 894.464 764.757 898.218 754.005 901.461C751.957 902.144 750.25 902.826 748.032 903.338C734.378 906.922 721.408 908.8 709.802 908.8C680.277 908.8 653.141 904.021 629.077 894.805C605.013 885.589 584.021 872.277 566.613 855.552C549.205 838.826 535.552 818.688 525.994 795.818C516.437 772.779 511.488 747.008 511.488 719.018C511.488 691.029 516.437 665.258 525.994 642.389C535.552 619.52 549.205 599.21 566.784 582.314C584.362 565.248 605.354 552.106 629.248 542.89C653.312 533.504 680.618 528.896 709.973 528.896C725.504 528.896 740.181 530.773 754.176 534.186C763.562 536.405 772.608 539.136 781.141 542.89C794.794 548.693 807.424 556.544 818.858 565.589C825.173 570.709 831.317 576 836.778 582.144C852.309 599.04 864.597 619.349 873.472 642.389C882.176 665.429 886.784 691.37 886.784 719.36C886.784 737.45 884.565 753.664 880.469 767.317C876.373 780.458 870.912 790.698 864.085 797.866C857.941 804.181 851.285 807.253 843.605 807.253C839.168 807.253 835.754 806.229 833.365 804.01C831.317 802.304 830.293 798.037 830.293 792.234V585.728H750.25L750.592 603.136C748.373 601.429 746.154 599.893 743.765 598.528C724.65 586.411 702.464 580.437 677.717 580.437C652.97 580.437 632.149 586.581 613.376 598.698C594.944 610.645 580.266 627.37 569.856 648.021C559.616 668.501 554.325 692.565 554.325 719.36C554.325 746.154 559.445 769.877 569.856 790.698C580.266 811.861 594.944 828.586 613.376 840.704C631.978 852.821 653.653 858.965 677.717 858.965C701.781 858.965 724.65 852.821 743.765 840.874C747.52 838.485 751.104 835.754 754.517 832.853C756.394 831.317 758.272 829.781 760.149 828.074C761.514 831.317 762.88 834.389 764.757 837.12C772.096 849.066 782.336 858.453 795.477 865.109C802.816 868.864 810.837 871.424 819.37 872.96C825.685 874.154 832.17 874.837 838.997 874.837C862.89 874.837 884.394 867.84 902.656 854.016C920.746 840.533 935.082 821.93 945.322 798.549C955.392 775.68 960.682 748.885 960.682 719.36C960.682 681.301 954.538 645.973 942.421 614.229L941.397 614.058ZM745.301 750.421C740.693 759.466 734.549 766.293 726.528 771.413C718.677 776.362 709.802 778.752 699.221 778.752C687.445 778.752 677.717 776.362 669.354 771.242C660.821 766.122 654.165 759.125 649.045 749.738C643.925 740.693 641.365 730.112 641.365 718.506C641.365 706.901 643.754 695.808 648.533 687.104C653.312 678.229 659.626 671.573 667.818 666.624C675.84 661.674 685.226 659.456 696.149 659.456C707.072 659.456 716.97 661.845 725.162 666.965C733.354 672.085 740.181 679.082 745.13 687.786C748.714 694.272 750.933 702.464 751.786 712.021V724.138C751.445 734.72 749.226 743.253 745.472 750.421H745.301Z" fill="black"/>
</svg>
