<!-- Generated by IcoMoon.io -->
<svg version="1.1" xmlns="http://www.w3.org/2000/svg" width="32" height="32" viewBox="0 0 32 32">
<path d="M30.507 8.747c0-0.107 0-0.107 0-0.107s-0.107 0-0.213 0h-0.107v0.32h0.107c0.107 0 0.213-0.107 0.213-0.213v0zM30.72 9.493h-0.213l-0.107-0.213c-0.107-0.107-0.107-0.213-0.213-0.213h-0.107v0.427h-0.107v-1.067h0.32c0.107 0 0.213 0 0.32 0.107 0.107 0 0.107 0.107 0.107 0.213s0 0.107-0.107 0.213c0 0-0.107 0.107-0.213 0.107v0c0.107 0 0.107 0.107 0.213 0.213l0.107 0.213zM31.040 8.96c0-0.213-0.107-0.427-0.213-0.533s-0.32-0.213-0.533-0.213c-0.213 0-0.427 0.107-0.533 0.213s-0.213 0.32-0.213 0.533c0 0.213 0.107 0.427 0.213 0.533s0.32 0.213 0.533 0.213c0.213 0 0.32-0.107 0.533-0.213 0.107-0.107 0.213-0.32 0.213-0.533v0zM31.147 8.96c0 0.213-0.107 0.427-0.213 0.533s-0.32 0.213-0.533 0.213c-0.213 0-0.427-0.107-0.533-0.213s-0.213-0.32-0.213-0.533c0-0.213 0.107-0.427 0.213-0.533s0.32-0.213 0.533-0.213c0.213 0 0.427 0.107 0.533 0.213s0.213 0.32 0.213 0.533v0zM8.96 11.84h-0.533v-2.88c0-0.213 0-0.533 0-0.853v0c0 0.213-0.107 0.427-0.107 0.427l-1.493 3.307h-0.213l-1.493-3.2c0-0.107-0.107-0.213-0.107-0.427v0c0 0.213 0 0.427 0 0.853v2.88h-0.427v-4.267h0.64l1.28 2.987c0.107 0.213 0.213 0.427 0.213 0.533v0c0.107-0.213 0.107-0.427 0.213-0.533l1.387-2.987h0.64v4.16zM10.453 11.84h-0.427v-2.987h0.533v2.987zM10.56 7.68c0 0.107 0 0.213-0.107 0.213-0.107 0.107-0.107 0.107-0.213 0.107s-0.213 0-0.213-0.107c-0.107 0-0.107-0.107-0.107-0.213s0-0.213 0.107-0.213c0 0 0.107-0.107 0.213-0.107s0.213 0 0.213 0.107 0.107 0.107 0.107 0.213zM13.547 11.733c-0.213 0.107-0.533 0.213-0.853 0.213-0.427 0-0.747-0.107-1.067-0.427-0.213-0.32-0.427-0.64-0.427-1.067 0-0.533 0.107-0.96 0.427-1.173 0.32-0.32 0.64-0.427 1.173-0.427 0.213 0 0.533 0 0.747 0.107v0.533c-0.213-0.213-0.427-0.213-0.747-0.213s-0.533 0.107-0.747 0.32c-0.213 0.107-0.32 0.427-0.32 0.747s0.107 0.64 0.32 0.853c0.213 0.213 0.427 0.32 0.747 0.32s0.533-0.107 0.747-0.213v0.427zM15.893 9.28c-0.107-0.107-0.213-0.107-0.427-0.107s-0.32 0.107-0.533 0.32c-0.107 0.213-0.213 0.427-0.213 0.853v1.6h-0.533v-3.093h0.533v0.64c0.107-0.213 0.213-0.427 0.32-0.533s0.32-0.213 0.427-0.213c0.107 0 0.213 0 0.32 0l0.107 0.533zM18.56 10.347c0-0.427-0.107-0.64-0.213-0.853-0.213-0.213-0.427-0.32-0.747-0.32s-0.533 0.107-0.747 0.32c-0.213 0.213-0.32 0.533-0.32 0.853s0.107 0.64 0.32 0.853c0.213 0.213 0.427 0.32 0.747 0.32s0.533-0.107 0.747-0.32c0.213-0.213 0.213-0.427 0.213-0.853zM19.093 10.347c0 0.533-0.107 0.853-0.427 1.173s-0.64 0.427-1.067 0.427c-0.427 0-0.853-0.107-1.067-0.427s-0.427-0.64-0.427-1.173c0-0.533 0.107-0.96 0.427-1.28s0.64-0.427 1.067-0.427c0.427 0 0.853 0.107 1.067 0.427 0.32 0.427 0.427 0.747 0.427 1.28zM21.547 11.093c0 0.213-0.107 0.427-0.32 0.64s-0.533 0.32-0.853 0.32c-0.32 0-0.533-0.107-0.747-0.213v-0.533c0.213 0.213 0.533 0.32 0.747 0.32 0.427 0 0.533-0.107 0.533-0.427 0-0.107 0-0.213-0.107-0.32s-0.213-0.213-0.533-0.32c-0.213-0.107-0.427-0.213-0.533-0.32s-0.213-0.32-0.213-0.533c0-0.213 0.107-0.427 0.32-0.64s0.427-0.213 0.747-0.213c0.213 0 0.427 0 0.64 0.107v0.533c-0.213-0.107-0.427-0.213-0.747-0.213-0.213 0-0.32 0-0.427 0.107 0.213 0 0.107 0.107 0.107 0.213s0 0.213 0.107 0.32c0.107 0.107 0.213 0.107 0.427 0.213s0.427 0.213 0.533 0.32c0.213 0.213 0.32 0.427 0.32 0.64zM24.533 10.347c0-0.427-0.107-0.64-0.213-0.853-0.213-0.213-0.427-0.32-0.747-0.32s-0.533 0.107-0.747 0.32c-0.213 0.213-0.32 0.533-0.32 0.853s0.107 0.64 0.32 0.853c0.213 0.213 0.427 0.32 0.747 0.32s0.533-0.107 0.747-0.32c0.107-0.213 0.213-0.427 0.213-0.853zM25.067 10.347c0 0.533-0.107 0.853-0.427 1.173s-0.64 0.427-1.067 0.427c-0.427 0-0.853-0.107-1.067-0.427s-0.427-0.64-0.427-1.173c0-0.533 0.107-0.96 0.427-1.28s0.64-0.427 1.067-0.427c0.427 0 0.853 0.107 1.067 0.427 0.32 0.427 0.427 0.747 0.427 1.28zM27.2 7.787c-0.107-0.107-0.213-0.107-0.32-0.107-0.32 0-0.533 0.213-0.533 0.64v0.427h0.747v0.427h-0.747v2.667h-0.533v-2.56h-0.533v-0.427h0.533v-0.533c0-0.32 0.107-0.64 0.32-0.747 0.213-0.213 0.427-0.213 0.64-0.213 0.107 0 0.32 0 0.32 0.107v0.32h0.107zM29.12 11.84c-0.107 0.107-0.32 0.107-0.427 0.107-0.533 0-0.853-0.32-0.853-0.853v-1.813h-0.533v-0.427h0.533v-0.747c0.107 0 0.32-0.107 0.533-0.107v0.96h0.747v0.427h-0.747v1.707c0 0.213 0 0.32 0.107 0.427s0.213 0.107 0.32 0.107c0.107 0 0.213 0 0.32-0.107v0.32zM2.667 23.787c0 0.213-0.107 0.427-0.213 0.64-0.213 0.213-0.427 0.213-0.64 0.213s-0.427-0.107-0.64-0.213c-0.213-0.213-0.213-0.427-0.213-0.64s0.107-0.427 0.213-0.64c0.213-0.213 0.32-0.213 0.64-0.213 0.213 0 0.427 0.107 0.64 0.213 0.107 0.213 0.213 0.427 0.213 0.64zM13.653 24.533h-1.6l-5.76-8.96c-0.107-0.213-0.213-0.427-0.32-0.747v0c0 0.213 0.107 0.747 0.107 1.493v8.213h-1.493v-11.2h1.707l5.653 8.853c0.213 0.32 0.427 0.64 0.427 0.747v0c0-0.32-0.107-0.853-0.107-1.707v-7.893h1.28l0.107 11.2zM22.080 24.533h-5.973v-11.2h5.653v1.173h-4.373v3.733h4.053v1.173h-4.053v3.947h4.693v1.173zM31.147 14.507h-3.2v10.027h-1.28v-10.027h-3.2v-1.173h7.787l-0.107 1.173z"></path>
</svg>
