<svg width="1024" height="1024" viewBox="0 0 1024 1024" fill="none" xmlns="http://www.w3.org/2000/svg">
<path d="M582.918 109.307C535.931 93.8666 484.894 94.2029 438.084 110.316C406.56 121.167 376.954 139.173 351.793 164.333C326.641 189.485 308.639 219.08 297.787 250.592C281.667 297.4 281.323 348.437 296.757 395.426C307.482 428.081 325.828 458.781 351.793 484.747C376.947 509.9 406.543 527.903 438.056 538.755C484.864 554.874 535.902 555.216 582.89 539.782C615.544 529.056 646.242 510.711 672.207 484.747C698.172 458.782 716.517 428.082 727.243 395.428C742.677 348.439 742.334 297.402 726.214 250.593C715.362 219.081 697.359 189.486 672.207 164.333C646.25 138.376 615.561 120.034 582.918 109.307Z" fill="black"/>
<path d="M466.514 754.248L466.514 604.041C495.744 611.152 526.321 611.301 555.607 604.488L555.607 754.248L634.27 675.585L697.917 739.169L511.061 926.025L324.204 739.169L387.851 675.585L466.514 754.248Z" fill="black"/>
</svg>
