<svg width="1024" height="1024" viewBox="0 0 1024 1024" fill="none" xmlns="http://www.w3.org/2000/svg">
<path d="M348.403 370.199L390.339 302.071L444.841 335.619L402.905 403.747L348.403 370.199ZM429.471 420.265L471.407 352.137L525.909 385.685L483.973 453.813L429.471 420.265ZM480.111 667.519L308.799 345.599L321.599 353.599L363.199 284.799L347.199 275.199H721.599C726.697 287.611 733.725 298.233 742.426 307.227L742.399 307.199L684.799 422.399C680.072 422.081 674.553 421.899 668.991 421.899C663.429 421.899 657.91 422.08 652.439 422.438L653.183 422.399C637.549 424.478 623.385 428.98 610.445 435.546L611.199 435.199L556.799 401.599L511.999 471.999L566.399 505.599C566.399 505.599 564.799 519.999 564.799 529.599C564.799 531.199 564.975 532.799 565.055 534.399C612.983 492.574 676.097 467.071 745.167 467.071C745.223 467.071 745.28 467.071 745.336 467.071H745.327C748.927 467.071 752.447 467.471 756.015 467.615C755.167 466.447 754.511 465.103 753.599 463.999L814.399 342.399H819.199C877.52 342.399 924.799 295.12 924.799 236.799C924.799 178.478 877.52 131.199 819.199 131.199C819.145 131.199 819.082 131.199 819.018 131.199C775.204 131.199 737.65 158 721.855 196.102L721.599 196.799H302.399C286.348 158 248.794 131.199 204.98 131.199C204.916 131.199 204.853 131.199 204.789 131.199H204.799C146.478 131.199 99.1992 178.478 99.1992 236.799C99.1992 295.12 146.478 342.399 204.799 342.399H214.399L438.399 756.799C424.435 774.073 415.981 796.304 415.981 820.51C415.981 821.174 415.987 821.837 416 822.497L415.999 822.398C416.528 880.505 463.492 927.469 521.548 927.998H521.599C527.942 927.984 534.139 927.402 540.154 926.302L539.519 926.398C496.007 878.114 469.389 813.862 469.389 743.394C469.389 716.363 473.306 690.246 480.602 665.581L480.11 667.518L480.111 667.519ZM744.751 987.103C879.544 987.103 988.815 877.832 988.815 743.039C988.815 608.246 879.544 498.975 744.751 498.975C609.958 498.975 500.687 608.246 500.687 743.039C500.842 877.769 610.02 986.948 744.736 987.103H744.751ZM617.839 706.943L713.695 802.783V564.383H775.807V802.783L871.679 706.927L915.583 750.831L744.751 921.679L573.919 750.847L617.839 706.943Z" fill="black"/>
</svg>
