<svg width="1024" height="1024" viewBox="0 0 1024 1024" fill="none" xmlns="http://www.w3.org/2000/svg">
<path d="M713.597 190.531L511.664 74L309.731 190.531V423.593L511.664 540.227L713.597 423.593V190.531ZM78 600.541V833.603L279.83 950.134L481.763 833.603V600.541L279.83 483.907L78 600.541ZM541.565 600.541V682.359H592.765V630.033L638.128 603.819L612.528 559.582L541.565 600.541ZM698.134 569.206L743.497 543.094L788.86 569.206L814.46 524.867L743.497 483.907L672.534 524.867L698.134 569.206ZM874.365 559.581L848.765 603.818L894.128 630.032V682.358H945.328V600.54L874.365 559.581ZM894.128 804.009L848.765 830.223L874.365 874.562L945.328 833.602V751.682H894.128V804.009ZM743.498 891.049L698.135 864.835L672.535 909.174L743.498 950.134L814.461 909.174L788.861 864.835L743.498 891.049ZM592.765 751.683H541.565V833.603L612.528 874.563L638.128 830.224L592.765 804.01V751.683Z" fill="black"/>
</svg>
