<svg width="1024" height="1024" viewBox="0 0 1024 1024" fill="none" xmlns="http://www.w3.org/2000/svg">
<path d="M543.468 459.493V171H481.532V459.493C450.695 471.786 429.005 501.865 429.005 537.044C429.005 572.223 450.826 602.301 481.532 614.594V853H543.468V614.594C574.305 602.301 595.996 572.223 595.996 537.044C595.996 501.865 574.175 471.786 543.468 459.493Z" fill="black"/>
<path d="M295.594 292.23V171H233.659V292.23C202.821 304.523 181.131 334.602 181.131 369.78C181.131 404.959 202.952 435.038 233.659 447.331V853H295.594V447.331C326.432 435.038 348.122 404.959 348.122 369.78C348.122 334.602 326.301 304.523 295.594 292.23Z" fill="black"/>
<path d="M844 369.78C844 334.602 822.179 304.523 791.472 292.23V171H729.537V292.23C698.699 304.523 677.009 334.602 677.009 369.78C677.009 404.959 698.83 435.038 729.537 447.331V853H791.472V447.331C822.31 435.038 844 404.959 844 369.78Z" fill="black"/>
</svg>
