<!-- Generated by IcoMoon.io -->
<svg version="1.1" xmlns="http://www.w3.org/2000/svg" width="32" height="32" viewBox="0 0 32 32">
<path d="M17.265 13.858v-11.764h-2.53v11.764c-1.268 0.514-2.146 1.736-2.146 3.163s0.878 2.649 2.123 3.155l0.023 0.008v9.723h2.53v-9.723c1.268-0.514 2.146-1.736 2.146-3.163s-0.878-2.649-2.123-3.155l-0.023-0.008zM7.147 7.035v-4.941h-2.531v4.941c-1.268 0.514-2.146 1.736-2.146 3.163s0.878 2.649 2.123 3.155l0.023 0.008v16.546h2.531v-16.546c1.268-0.514 2.146-1.736 2.146-3.163s-0.878-2.649-2.123-3.155l-0.023-0.008zM29.531 10.198c-0.001-1.427-0.879-2.648-2.124-3.155l-0.023-0.008v-4.941h-2.531v4.941c-1.268 0.514-2.146 1.736-2.146 3.163s0.878 2.649 2.123 3.155l0.023 0.008v16.546h2.53v-16.546c1.268-0.514 2.146-1.736 2.148-3.162v-0z"></path>
</svg>
