<svg width="1024" height="1024" viewBox="0 0 1024 1024" fill="none" xmlns="http://www.w3.org/2000/svg">
<path d="M803.201 222.4C723.201 142.4 625.601 102.4 512.001 102.4C398.401 102.4 300.801 142.4 220.801 222.4C140.801 302.4 100.801 398.4 100.801 512C100.801 625.6 140.801 721.6 220.801 801.6C300.801 881.6 398.401 921.6 512.001 921.6C625.601 921.6 721.601 881.6 803.201 801.6C883.201 721.6 923.201 625.6 923.201 512C923.201 398.4 883.201 302.4 803.201 222.4ZM382.401 744H280.001V641.6L553.601 368L656.001 470.4L382.401 744ZM736.001 390.4L681.601 444.8L579.201 342.4L633.601 288C638.401 283.2 644.801 280 652.801 280C660.801 280 667.201 283.2 672.001 288L736.001 352C740.801 356.8 744.001 363.2 744.001 371.2C744.001 379.2 740.801 385.6 736.001 390.4Z" fill="black"/>
</svg>
