<svg width="1024" height="1024" viewBox="0 0 1024 1024" fill="none" xmlns="http://www.w3.org/2000/svg">
<path fill-rule="evenodd" clip-rule="evenodd" d="M772.517 511.38C772.517 452.415 724.628 404.475 665.724 404.475H145.888C137.028 438.752 132 474.467 132 511.38C132 548.294 137.268 584.008 145.888 618.285H665.724C724.628 618.285 772.517 570.346 772.517 511.38Z" fill="black"/>
<path fill-rule="evenodd" clip-rule="evenodd" d="M175.819 324.416H759.347C793.109 324.416 825.674 311.473 850.336 288.701C865.182 275.039 879.07 260.177 891.76 244.357C813.701 146.561 693.739 84 558.931 84C390.362 84 245.018 182.276 175.819 324.416Z" fill="black"/>
<path fill-rule="evenodd" clip-rule="evenodd" d="M850.576 734.299C825.674 711.288 793.348 698.584 759.587 698.584H175.819C245.018 840.724 390.362 939 558.931 939C693.739 939 813.701 876.439 892 778.643C879.309 762.823 865.422 747.961 850.576 734.299Z" fill="black"/>
</svg>
