<svg width="1024" height="1024" viewBox="0 0 1024 1024" fill="none" xmlns="http://www.w3.org/2000/svg">
<g clip-path="url(#clip0_2_463)">
<path d="M576.342 576.34V703.316H447.659V576.34H320.854V447.657H447.83V320.681H576.513V447.657H703.489V576.34H576.342ZM212.993 871.082C168.79 871.082 135.34 857.77 113.665 835.925C85.3338 807.594 73.5578 772.608 73.5578 738.304V638.976C73.5578 615.595 69.4618 598.869 59.3928 588.8C49.3238 578.731 34.3048 573.781 12.6298 573.781H-3.24219V450.218H12.6298C34.3048 450.218 49.3228 445.269 59.3928 435.199C69.4628 425.129 73.5578 408.404 73.5578 385.023V285.695C73.5578 251.391 85.1628 216.404 113.665 187.903C135.34 166.228 168.79 152.746 212.993 152.746H329.9V276.309H271.361C247.98 276.309 232.961 278.869 223.745 288.085C213.676 298.154 210.433 314.026 210.433 341.504V428.373C210.433 495.957 165.377 507.733 149.505 511.829C165.377 515.925 210.433 527.701 210.433 595.285V682.154C210.433 709.631 213.846 725.674 223.745 735.573C232.961 744.789 247.98 747.349 271.361 747.349H329.9V870.912H212.993V871.082ZM1011.54 573.78C989.867 573.78 974.849 578.729 964.779 588.799C954.709 598.869 950.614 615.594 950.614 638.975V738.303C950.614 772.607 938.838 807.594 910.507 836.095C888.832 857.77 855.382 871.252 811.179 871.252H694.272V747.519H752.811C776.192 747.519 791.211 744.959 800.427 735.743C810.496 725.674 813.739 709.802 813.739 682.324V595.455C813.739 527.871 858.795 516.095 874.667 511.999C858.795 507.732 813.739 496.127 813.739 428.543V341.674C813.739 314.197 810.326 298.325 800.427 288.255C791.211 279.039 776.192 276.479 752.811 276.479H694.272V152.916H811.179C855.382 152.916 888.832 166.228 910.507 188.073C938.838 216.404 950.614 251.561 950.614 285.865V385.193C950.614 408.574 954.71 425.3 964.779 435.369C974.848 445.438 989.867 450.388 1011.54 450.388H1024.51V573.951H1011.54V573.78Z" fill="black"/>
</g>
<defs>
<clipPath id="clip0_2_463">
<rect width="1024" height="1024" fill="white"/>
</clipPath>
</defs>
</svg>
