<svg width="1024" height="1024" viewBox="0 0 1024 1024" fill="none" xmlns="http://www.w3.org/2000/svg">
<path d="M980.8 43.1992C964.8 27.1992 939.2 27.1992 924.8 43.1992L772.8 195.199C697.6 132.799 611.2 102.399 512 102.399C398.4 102.399 300.8 142.399 220.8 222.399C140.8 302.399 100.8 398.399 100.8 511.999C100.8 612.799 132.8 699.199 195.2 772.799L43.2002 924.799C27.2002 940.799 27.2002 966.399 43.2002 980.799C51.2002 988.799 60.8002 991.999 72.0002 991.999C83.2002 991.999 92.8002 988.799 100.8 980.799L252.8 828.799C326.4 889.599 414.4 921.599 513.6 921.599C627.2 921.599 724.8 881.599 804.8 801.599C884.8 721.599 924.8 625.599 924.8 511.999C924.8 411.199 892.8 324.799 830.4 251.199L982.4 99.1992C996.8 83.1992 996.8 57.5992 980.8 43.1992ZM184 511.999C184 420.799 216 342.399 280 278.399C344 214.399 420.8 182.399 512 182.399C590.4 182.399 657.6 206.399 715.2 252.799L252.8 715.199C206.4 655.999 184 588.799 184 511.999ZM840 511.999C840 603.199 808 681.599 744 745.599C680 809.599 603.2 841.599 512 841.599C433.6 841.599 366.4 817.599 308.8 771.199L771.2 308.799C817.6 367.999 840 435.199 840 511.999Z" fill="black"/>
</svg>
