<svg width="1024" height="1024" viewBox="0 0 1024 1024" fill="none" xmlns="http://www.w3.org/2000/svg">
<path d="M499.408 573.436H192.833V479.504H512.711C544.597 393.594 627.359 332.258 724.237 332.258C730.025 332.258 735.813 332.563 741.601 332.969L699.662 299.458L674.884 278.539H288.085L263.307 299.458L147.237 392.172L112 419.59V658.331H522.459C509.563 632.436 501.439 603.799 499.408 573.538V573.436Z" fill="black"/>
<path d="M724.338 370.136C620.657 370.136 536.676 454.218 536.676 557.798C536.676 661.377 620.759 745.46 724.338 745.46C827.918 745.46 912 661.377 912 557.798C912 454.218 827.918 370.136 724.338 370.136ZM803.648 658.534H645.13V516.874H661.987V489.862C661.987 472.497 669.197 457.874 681.485 445.587C693.772 433.299 709.207 426.902 726.572 426.902C743.937 426.902 757.748 433.299 770.035 445.587C782.322 457.874 786.689 472.497 786.689 489.862V516.874H803.546V658.534H803.648Z" fill="black"/>
<path d="M727.385 451.07C716.417 451.07 707.278 454.726 699.966 462.444C692.655 470.161 688.999 479.301 688.999 489.862V516.874H763.231V489.862C763.231 479.402 761.302 470.263 753.584 462.444C745.866 454.726 738.453 451.07 727.486 451.07H727.385Z" fill="black"/>
</svg>
