<svg width="1024" height="1024" viewBox="0 0 1024 1024" fill="none" xmlns="http://www.w3.org/2000/svg">
<path d="M892.536 191.565H531.309C354.337 191.566 210.874 335.029 210.873 512C210.873 688.972 354.337 832.434 531.309 832.435H892.692V912H531.309C310.395 911.999 131.309 732.914 131.309 512C131.309 291.086 310.395 112.001 531.309 112H892.536V191.565Z" fill="black"/>
<path fill-rule="evenodd" clip-rule="evenodd" d="M531.542 356.444C603.699 356.444 664.35 405.583 681.93 472.218H892.614V551.782H681.93C664.35 618.417 603.699 667.556 531.542 667.556C445.631 667.556 375.986 597.911 375.986 512C375.986 426.089 445.631 356.444 531.542 356.444ZM531.542 436.009C489.573 436.009 455.551 470.032 455.551 512C455.551 553.969 489.573 587.991 531.542 587.991C573.51 587.991 607.532 553.969 607.532 512C607.532 470.032 573.51 436.009 531.542 436.009Z" fill="black"/>
</svg>
