<!-- Generated by IcoMoon.io -->
<svg version="1.1" xmlns="http://www.w3.org/2000/svg" width="32" height="32" viewBox="0 0 32 32">
<path d="M29.036 4.632h-26.057c-0.506 0-0.917 0.403-0.917 0.909v16.699c0 0.506 0.403 0.917 0.917 0.917h13.957v5.927c0 0.371 0.221 0.703 0.561 0.838 0.111 0.047 0.237 0.071 0.348 0.071 0.237 0 0.466-0.087 0.648-0.269l6.623-6.575h3.928c0.506 0 0.917-0.403 0.917-0.917v-16.692c-0.016-0.506-0.427-0.909-0.925-0.909zM14.732 8.671c0-0.703 0.569-1.272 1.272-1.272s1.272 0.569 1.272 1.272v6.955c0 0.703-0.569 1.272-1.272 1.272s-1.272-0.569-1.272-1.272v-6.955zM16.004 20.431c-0.774 0-1.407-0.624-1.407-1.407s0.624-1.407 1.407-1.407c0.774 0 1.407 0.624 1.407 1.407-0.008 0.774-0.632 1.407-1.407 1.407z"></path>
</svg>
