<svg width="1024" height="1024" viewBox="0 0 1024 1024" fill="none" xmlns="http://www.w3.org/2000/svg">
<path d="M932.798 492.8C950.398 510.4 959.998 532.8 959.998 556.8C959.998 580.8 950.398 601.6 932.798 619.2L620.798 934.4C603.198 952 580.798 960 556.798 960C532.798 960 511.998 952 494.398 934.4L89.5984 531.2C71.9984 513.6 62.3984 491.2 62.3984 468.8V152C62.3984 128 70.3984 107.2 87.9984 89.6C107.198 73.6 127.998 64 153.598 64H467.198C492.798 64 513.598 72 529.598 89.6L932.798 492.8ZM172.798 268.8C185.598 281.6 201.598 288 220.798 288C239.998 288 255.998 281.6 268.798 268.8C281.598 256 287.998 240 287.998 220.8C287.998 201.6 281.598 185.6 268.798 172.8C255.998 160 239.998 153.6 220.798 153.6C201.598 153.6 185.598 160 172.798 172.8C159.998 185.6 153.598 201.6 153.598 220.8C153.598 240 159.998 256 172.798 268.8Z" fill="black"/>
</svg>
