<svg width="1024" height="1024" viewBox="0 0 1024 1024" fill="none" xmlns="http://www.w3.org/2000/svg">
<path d="M401.602 867.2C401.602 852.8 404.802 838.4 409.602 825.6C416.002 812.8 422.402 801.6 433.602 792C443.202 782.4 454.402 774.4 468.802 769.6C481.602 763.2 497.602 761.6 513.602 761.6C529.602 761.6 544.002 764.8 556.802 769.6C569.602 776 582.402 782.4 592.002 792C601.602 801.6 609.602 812.8 616.002 825.6C622.402 838.4 624.002 852.8 624.002 867.2C624.002 881.6 620.802 896 616.002 910.4C609.602 923.2 603.202 934.4 592.002 944C582.402 953.6 569.602 961.6 556.802 966.4C544.002 971.2 529.602 974.4 513.602 974.4C497.602 974.4 483.202 971.2 468.802 966.4C456.002 961.6 443.202 953.6 433.602 944C424.002 934.4 416.002 923.2 409.602 910.4C404.802 896 401.602 883.2 401.602 867.2ZM604.802 49.5996V409.6C604.802 448 603.202 486.4 598.402 524.8C593.602 563.2 587.202 601.6 580.802 641.6H448.002C440.002 601.6 433.602 563.2 430.402 524.8C425.602 486.4 424.002 448 424.002 409.6V49.5996H604.802Z" fill="black"/>
</svg>
