<svg width="1024" height="1024" viewBox="0 0 1024 1024" fill="none" xmlns="http://www.w3.org/2000/svg">
<path d="M481.2 442.4L524.2 467.2L514.2 484.6L471.2 459.8L461.2 477.2L504.2 502L494.2 519.4L451.2 494.6L441.2 512L484.2 536.8L474.2 554.2L431.2 529.4L252.3 838.9C233.4 871.6 244.6 913.5 277.3 932.4C310 951.3 351.9 940.1 370.8 907.4L649.8 424.1L531.3 355.7L481.2 442.4Z" fill="black"/>
<path d="M525.8 329.3L675.3 415.6C684.9 421.1 697.1 417.8 702.7 408.3L714.2 388.4C719.7 378.8 716.4 366.6 706.9 361L557.4 274.7C547.8 269.2 535.6 272.5 530 282L518.5 301.9C513 311.5 516.2 323.8 525.8 329.3Z" fill="black"/>
<path d="M857.1 339C843.9 323.1 820.2 320.9 804.3 334.1C788.4 347.3 786.2 371 799.4 386.9C812.6 402.8 836.3 405 852.2 391.8C868.1 378.6 870.3 355 857.1 339Z" fill="black"/>
<path d="M715.5 161.8C695.7 138 660.4 134.7 636.6 154.5C612.8 174.3 609.5 209.6 629.3 233.4C649.1 257.2 684.4 260.5 708.2 240.7C731.9 220.9 735.2 185.6 715.5 161.8Z" fill="black"/>
<path d="M616.2 79.4998C625.2 90.2998 641.1 91.7998 651.9 82.7998C662.7 73.7998 664.2 57.8998 655.2 47.0998C646.2 36.2998 630.3 34.7998 619.5 43.7998C608.7 52.7998 607.2 68.6998 616.2 79.4998Z" fill="black"/>
<path d="M513.6 204.4C533 188.3 535.7 159.5 519.6 140.1C503.5 120.7 474.7 118 455.3 134.1C435.9 150.2 433.2 179 449.3 198.4C465.3 217.9 494.1 220.6 513.6 204.4Z" fill="black"/>
<path d="M875.2 199.9C864.5 187.1 845.5 185.3 832.7 196C819.9 206.7 818.1 225.7 828.8 238.5C839.5 251.3 858.5 253.1 871.3 242.4C884.1 231.8 885.9 212.8 875.2 199.9Z" fill="black"/>
</svg>
