<svg width="1024" height="1024" viewBox="0 0 1024 1024" fill="none" xmlns="http://www.w3.org/2000/svg">
<path d="M812.373 482.987C808.96 474.454 800.426 471.04 791.893 472.747C790.186 472.747 786.773 474.454 785.066 476.16L759.466 501.76C756.053 505.174 749.226 505.174 744.106 501.76C744.106 501.76 744.106 501.76 742.4 500.054C725.333 477.867 711.68 455.68 698.026 431.787C675.84 389.12 660.48 344.747 651.946 298.667C638.293 230.4 634.88 162.134 643.413 92.1604C645.12 83.6271 638.293 75.0938 629.76 75.0938C626.346 75.0938 622.933 75.0937 619.52 76.8004C571.733 102.4 529.066 138.24 493.226 179.2C443.733 237.227 409.6 305.494 394.24 378.88C392.533 384 389.12 389.12 384 389.12C378.88 389.12 375.466 387.414 372.053 382.294C354.986 361.814 344.746 334.507 337.92 288.427C336.213 278.187 325.973 276.48 317.44 279.894C315.733 281.6 312.32 281.6 310.613 283.307C233.813 365.227 187.733 472.747 182.613 585.387C182.613 626.347 179.2 788.48 290.133 887.467C349.866 938.667 424.96 967.68 503.466 967.68C585.386 971.094 665.6 943.787 728.746 892.587C832.853 802.134 866.986 640 812.373 482.987ZM651.946 800.427C614.4 831.147 566.613 848.214 517.12 848.214C513.706 848.214 512 848.214 508.586 848.214H505.173C455.68 848.214 406.186 829.44 368.64 797.014C305.493 740.694 302.08 636.587 303.786 593.92C305.493 559.787 312.32 527.36 322.56 496.64C346.453 510.294 373.76 515.414 389.12 515.414H394.24C455.68 515.414 491.52 467.627 505.173 409.6C510.293 384 527.36 358.4 537.6 334.507C549.546 387.414 568.32 440.32 592.213 489.814C609.28 520.534 628.053 549.547 648.533 576.854L651.946 581.974L657.066 588.8C674.133 605.867 692.906 617.814 715.093 622.934C720.213 692.907 698.026 759.467 651.946 800.427Z" fill="black"/>
</svg>
