<svg width="1024" height="1024" viewBox="0 0 1024 1024" fill="none" xmlns="http://www.w3.org/2000/svg">
<path d="M500.703 813.721C500.703 651.175 632.472 519.406 795.018 519.406C795.041 519.406 795.069 519.406 795.096 519.406C805.671 519.406 816.118 519.958 826.408 521.034L825.123 520.925V311.585L620.442 106.887H198.895V959.777H539.733C515.193 917.891 500.702 867.541 500.702 813.805C500.702 813.775 500.702 813.745 500.702 813.716L500.703 813.721ZM561.955 193.792H620.425V310.75H737.4V369.237H561.955V193.792ZM824.031 1012.07L825.891 817.51L892.178 883.797C906.003 865.352 914.316 842.083 914.316 816.871C914.316 815.649 914.296 814.432 914.258 813.219L914.262 813.396C914.273 812.799 914.279 812.095 914.279 811.39C914.279 758.422 879.338 713.614 831.248 698.759L830.413 698.537L817.22 694.39V609.791L840.397 615.269C879.212 624.556 912.612 643.893 938.802 670.376L938.82 670.395C975.884 706.297 998.89 756.522 998.89 812.12C998.89 812.911 998.885 813.7 998.876 814.489L998.877 814.369C998.88 814.747 998.881 815.194 998.881 815.641C998.881 864.587 981.234 909.412 951.955 944.099L952.199 943.802L1020.47 1012.07L824.031 1012.07ZM744.944 1007.87C706.127 998.593 672.725 979.255 646.54 952.766L646.521 952.747C609.428 916.014 586.462 865.075 586.462 808.772C586.462 759.109 604.331 713.62 633.99 678.383L633.738 678.69L564.908 609.792L761.175 612.625V806.076L694.376 739.328C680.211 758.7 671.711 782.995 671.711 809.275C671.711 842.279 685.117 872.151 706.781 893.744L706.784 893.747C720.061 907.146 736.561 917.329 755.027 923.036L755.851 923.255L767.508 927.334V1013.2L744.944 1007.87Z" fill="black"/>
</svg>
