<svg width="1024" height="1024" viewBox="0 0 1024 1024" fill="none" xmlns="http://www.w3.org/2000/svg">
<path d="M220.8 680C251.2 697.6 291.2 710.4 344 721.6C395.2 731.2 451.2 736 512 736C534.4 736 555.2 734.4 576 734.4L520 678.4C505.6 664 499.2 643.2 502.4 624C436.8 624 374.4 617.6 316.8 604.8C256 592 209.6 574.4 174.4 548.8V624C174.4 644.8 190.4 664 220.8 680ZM220.8 512C251.2 529.6 291.2 542.4 344 553.6C395.2 563.2 452.8 568 513.6 568C547.2 568 580.8 566.4 612.8 563.2V470.4C612.8 464 614.4 457.6 616 451.2C584 454.4 548.8 456 513.6 456C444.8 456 379.2 449.6 320 436.8C259.2 424 212.8 406.4 177.6 380.8V456C174.4 476.8 190.4 494.4 220.8 512ZM849.6 408V382.4C836.8 392 822.4 400 804.8 408H836.8C841.6 406.4 844.8 406.4 849.6 408ZM220.8 849.6C251.2 867.2 291.2 880 344 891.2C392 900.8 444.8 905.6 502.4 905.6V851.2C502.4 825.6 518.4 803.2 540.8 793.6C531.2 793.6 523.2 793.6 513.6 793.6C444.8 793.6 379.2 787.2 320 774.4C259.2 761.6 212.8 744 177.6 718.4V793.6C174.4 812.8 190.4 832 220.8 849.6ZM220.8 344C251.2 361.6 291.2 374.4 344 385.6C395.2 395.2 451.2 400 512 400C572.8 400 628.8 395.2 681.6 385.6C732.8 376 774.4 361.6 804.8 344C835.2 326.4 849.6 308.8 849.6 288V232C849.6 211.2 835.2 193.6 804.8 176C774.4 158.4 734.4 145.6 681.6 134.4C628.8 123.2 572.8 118.4 512 118.4C451.2 118.4 395.2 123.2 342.4 132.8C291.2 142.4 249.6 156.8 219.2 174.4C188.8 192 174.4 209.6 174.4 230.4V288C174.4 307.2 190.4 326.4 220.8 344ZM627.2 785.6H628.8C627.2 785.6 627.2 785.6 627.2 785.6ZM848 633.6H836.8V470.4H675.2V633.6H566.4L756.8 824L849.6 729.6L945.6 633.6H848ZM945.6 849.6H564.8V905.6H945.6V849.6Z" fill="black"/>
</svg>
