<svg width="1024" height="1024" viewBox="0 0 1024 1024" fill="none" xmlns="http://www.w3.org/2000/svg">
<path d="M924.8 443.2C857.6 376 777.6 344 683.2 344V342.4C683.2 248 649.6 168 584 102.4C516.8 33.6 435.2 0 340.8 0C246.4 0 166.4 33.6 99.2 99.2C32 164.8 0 246.4 0 340.8C0 435.2 33.6 515.2 99.2 580.8C166.4 648 246.4 680 340.8 680V681.6C340.8 776 374.4 856 440 921.6C507.2 988.8 587.2 1020.8 681.6 1020.8C776 1020.8 856 987.2 923.2 921.6C990.4 856 1022.4 774.4 1022.4 681.6C1024 588.8 990.4 508.8 924.8 443.2ZM240 496L185.6 441.6L286.4 340.8L185.6 240L240 185.6L340.8 286.4L443.2 185.6L497.6 240L395.2 340.8L470.4 416C459.2 424 449.6 433.6 440 443.2C430.4 452.8 422.4 460.8 416 470.4L340.8 396.8L240 496ZM416 470.4C409.6 478.4 403.2 486.4 398.4 494.4C403.2 484.8 409.6 476.8 416 470.4ZM875.2 876.8C822.4 929.6 758.4 956.8 683.2 956.8C608 956.8 544 929.6 491.2 876.8C438.4 824 411.2 758.4 411.2 683.2C411.2 608 438.4 542.4 491.2 489.6C544 436.8 608 409.6 683.2 409.6C758.4 409.6 822.4 436.8 875.2 489.6C928 542.4 955.2 608 955.2 683.2C955.2 758.4 928 824 875.2 876.8ZM627.2 729.6L556.8 659.2L508.8 707.2L627.2 827.2L852.8 601.6L804.8 553.6L627.2 729.6Z" fill="black"/>
</svg>
