<svg width="1024" height="1024" viewBox="0 0 1024 1024" fill="none" xmlns="http://www.w3.org/2000/svg">
<path d="M579.2 73.5996H184V948.8H841.6V337.6L579.2 73.5996ZM388.8 494.4C424 494.4 451.2 523.2 451.2 556.8C451.2 592 422.4 619.2 388.8 619.2C355.2 619.2 326.4 590.4 326.4 556.8C324.8 521.6 353.6 494.4 388.8 494.4ZM256 880C307.2 809.6 347.2 755.2 392 694.4C427.2 724.8 452.8 745.6 496 782.4C528 732.8 558.4 686.4 603.2 614.4C667.2 718.4 712 788.8 769.6 881.6C590.4 880 433.6 880 256 880ZM536 380.8V140.8L776 380.8H536Z" fill="black"/>
</svg>
