<svg width="1024" height="1024" viewBox="0 0 1024 1024" fill="none" xmlns="http://www.w3.org/2000/svg">
<path d="M500.703 813.721C500.703 651.175 632.472 519.406 795.018 519.406C795.041 519.406 795.069 519.406 795.096 519.406C805.671 519.406 816.118 519.958 826.408 521.034L825.123 520.925V311.585L620.442 106.887H198.895V959.777H539.733C515.193 917.891 500.702 867.541 500.702 813.805C500.702 813.775 500.702 813.745 500.702 813.716L500.703 813.721ZM561.955 193.792H620.425V310.75H737.4V369.237H561.955V193.792Z" fill="black"/>
<path d="M620.859 628.607H912.75V670.654H620.859V628.607ZM620.859 837.623L765.891 691.373L912.141 837.623H828.656V962.545H703.734V837.623H620.859Z" fill="black"/>
</svg>
