<svg width="1024" height="1024" viewBox="0 0 1024 1024" fill="none" xmlns="http://www.w3.org/2000/svg">
<path d="M468.214 225.379V567.824H231.562V596.766H497.157V225.379H468.214Z" fill="black"/>
<path d="M439.354 167.494H410.412V510.021H173.76V538.881H439.354V167.494Z" fill="black"/>
<path d="M226.697 112L115.957 222.08V480.666H383.201L383.366 112H226.697ZM144.075 452.548V233.789H238.076V140.283L238.241 140.118H355.165V452.548H144.075Z" fill="black"/>
<path d="M640.303 486.356C667.431 481.243 697.528 479.017 729.769 479.017C762.009 479.017 791.364 481.243 819.235 486.356C846.363 491.468 868.379 498.807 884.541 508.372C900.702 517.937 908.041 526.677 908.041 537.727V603.28C908.041 614.247 900.702 623.812 884.541 632.635C868.379 642.2 847.105 648.797 819.235 654.651C790.622 659.763 761.267 661.99 729.026 661.99C696.786 661.99 667.431 659.763 639.56 654.651C612.432 649.539 590.416 642.2 574.254 632.635C558.093 623.07 550.754 614.329 550.754 603.28V537.727C550.754 526.76 558.093 517.195 574.254 508.372C590.416 499.549 613.174 491.468 640.303 486.356ZM628.841 681.779C661.082 688.376 694.889 692.087 730.841 692.087C766.792 692.087 802.001 688.458 832.84 681.779C865.081 675.183 889.323 665.618 907.629 652.425V728.285C907.629 739.252 900.29 748.817 884.129 757.64C867.967 767.205 846.693 773.802 818.822 779.656C791.694 784.769 761.597 786.995 729.356 786.995C697.116 786.995 667.761 784.769 639.89 779.656C612.762 774.544 590.746 767.205 574.584 757.64C558.423 748.075 551.084 739.335 551.084 728.285V652.425C571.616 666.36 597.26 675.183 628.841 681.779ZM628.841 806.785C660.422 813.381 694.889 817.092 730.099 817.092C765.308 817.092 801.259 813.464 832.098 806.785C864.339 800.188 888.581 790.623 906.887 777.43V853.29C906.887 864.257 899.548 873.822 883.386 882.645C867.225 892.21 845.951 898.807 818.08 904.661C790.952 909.774 761.597 912 729.356 912C697.116 912 667.761 909.774 639.89 904.661C612.762 899.549 590.746 892.21 574.584 882.645C558.423 873.08 551.084 863.598 551.084 853.29V777.43C571.616 790.623 597.26 800.93 628.841 806.785Z" fill="black"/>
<path d="M409.34 771.575L497.157 771.163L496.827 683.346L459.391 646.24L459.639 708.166L386.334 635.438L360.525 661.412L433.83 734.222L371.904 734.387L409.34 771.575Z" fill="black"/>
<path d="M638.901 325.234L551.084 325.564L551.414 413.381L588.849 450.487L588.602 388.644L661.906 461.371L687.715 435.397L614.411 362.588L676.254 362.34L638.901 325.234Z" fill="black"/>
</svg>
