<svg width="1024" height="1024" viewBox="0 0 1024 1024" fill="none" xmlns="http://www.w3.org/2000/svg">
<path d="M908.97 688.299C956.586 611.499 976.725 525.483 961.877 432.47C961.877 432.47 962.048 434.006 962.218 437.078C961.877 434.518 961.535 433.153 961.535 433.153C961.535 433.153 955.732 439.98 947.028 452.438C944.468 421.889 937.983 389.974 925.865 357.377C883.369 235.35 792.062 138.07 792.062 104.278C783.187 114.689 776.19 130.049 772.265 148.651C693.076 73.8994 670.206 38.5714 670.206 17.0674C670.206 17.0674 649.043 40.7904 629.075 78.1664C620.371 94.0384 611.496 113.665 605.182 136.363C593.577 176.128 589.993 222.379 607.571 269.142C609.448 273.921 611.326 278.529 613.203 282.966C621.395 302.593 631.976 320.513 643.923 335.19C654.163 348.331 665.086 359.595 676.52 370.177C684.2 377.345 692.221 384.342 700.413 390.828C700.584 390.999 700.754 391.169 700.925 391.511C724.818 426.156 738.13 468.823 738.13 514.732C738.13 630.444 644.263 724.14 528.551 724.14C512.85 724.14 496.978 722.433 481.618 718.849C462.674 715.265 446.29 709.462 432.637 702.806C399.186 680.961 379.218 661.505 367.613 644.097C374.61 646.486 381.608 648.534 388.776 650.07C431.272 659.798 474.621 654.849 502.611 639.318C526.675 626.006 543.912 615.083 557.736 612.182C562.173 611.329 566.269 611.329 570.024 612.353C569.683 612.182 569.171 612.012 568.829 611.841C569.853 612.012 571.048 612.353 572.072 612.694C588.115 617.985 600.915 602.454 589.48 586.411C578.216 570.368 549.032 547.328 505.683 553.643C472.574 558.422 442.024 581.974 398.675 559.275C395.944 557.739 393.214 556.203 390.483 554.496C387.582 552.789 399.87 557.056 396.968 555.179C388.435 551.083 373.587 542.038 369.661 538.966C368.978 538.454 376.146 541.014 375.634 540.502C362.151 530.603 353.789 521.729 348.498 513.878C343.037 505.345 340.989 497.323 340.477 489.985C340.306 485.206 340.989 481.11 341.33 477.526C341.33 477.014 341.501 476.502 341.501 475.819C342.013 473.259 342.696 471.04 343.378 469.163C345.255 464.555 348.157 459.776 351.911 456.022C352.252 455.681 352.423 455.51 352.764 455.169C353.959 454.145 355.153 453.121 356.348 452.268C358.055 451.073 360.103 449.879 362.151 449.025C368.124 451.926 371.879 454.145 371.879 454.145C371.879 454.145 369.319 449.537 367.954 446.977C368.466 446.806 368.978 446.806 369.319 446.636C374.268 448.684 385.191 454.316 390.823 457.729C398.332 462.508 400.722 466.604 400.722 466.604C400.722 466.604 402.77 465.58 401.234 461.484C400.722 459.777 398.503 454.487 390.994 449.025H391.506C395.943 451.244 400.039 453.804 403.965 456.876C406.013 450.049 409.768 443.052 408.914 430.252C408.402 421.377 408.573 418.988 406.866 415.575C405.33 412.674 407.719 411.479 410.45 414.551C409.938 412.162 409.255 409.772 408.061 407.554V407.383C408.061 407.383 409.597 405.335 410.28 404.652C411.816 402.945 414.035 401.239 416.765 399.361C427.176 392.534 444.754 384.342 459.602 377.516C471.89 372.225 482.13 368.129 484.178 366.935C486.055 365.74 489.469 363.351 493.223 359.938C497.831 356.013 501.927 351.405 505.34 346.285C508.583 341.677 511.143 335.533 512.167 326.829C512.508 325.122 512.679 323.416 512.679 321.538C513.02 313.175 508.754 307.543 439.463 301.058C410.962 298.498 400.039 272.045 396.796 261.122C396.796 261.122 396.796 261.293 396.625 261.293C396.625 261.122 396.454 260.952 396.454 260.781C407.889 231.085 428.198 205.656 454.822 188.248C456.358 187.053 448.678 188.589 450.214 187.395C451.921 185.859 463.697 181.763 465.745 180.739C468.476 179.544 454.31 174.254 441.681 175.448C428.881 176.813 426.15 178.179 419.494 180.739C422.395 178.179 431.27 174.936 429.222 174.936C415.569 176.813 398.331 183.981 383.825 192.003C383.825 190.638 384.166 189.102 384.678 187.907C377.851 190.467 361.126 200.878 356.347 209.752C356.518 208.045 356.688 206.339 356.688 204.632C351.568 208.387 346.96 212.824 342.693 217.773L342.522 217.944C303.098 203.779 268.453 202.755 238.927 209.24C238.756 209.24 238.756 209.069 238.586 208.899C238.757 208.899 238.927 208.899 238.927 208.899C235.002 205.998 227.834 199.171 219.642 187.054C217.594 183.982 215.375 180.398 213.157 176.473C211.28 173.23 209.573 169.817 207.696 166.062C207.525 165.891 207.355 165.721 207.355 165.721C206.672 164.868 206.16 167.94 205.478 168.11C205.478 168.11 205.478 167.939 205.307 167.939C199.675 154.798 196.091 133.464 196.944 118.275C196.944 118.275 196.773 118.275 196.432 118.446C196.432 118.275 196.432 118.105 196.432 118.105C196.432 118.105 184.656 123.396 174.928 145.753C173.392 149.166 172.197 151.385 171.344 153.262C171.685 151.214 172.539 147.118 172.368 147.459C172.197 147.8 172.027 147.971 171.856 148.312C172.027 147.629 172.027 147.117 172.027 147.288C170.32 150.189 165.883 154.115 164.006 159.405C162.811 162.818 161.275 164.866 160.081 168.621C160.252 166.914 160.252 164.866 160.081 165.378C160.593 165.89 160.252 166.402 160.081 166.743C160.081 165.89 160.081 165.378 159.91 165.719C155.302 174.935 151.377 184.492 148.134 194.22C143.355 209.751 138.065 230.231 136.358 256.172C135.505 264.193 135.334 269.825 135.675 271.703C135.675 271.874 135.675 272.044 135.675 272.215C123.216 286.38 114.854 298.327 111.611 304.642C95.568 329.389 77.99 367.959 60.752 429.058C68.432 412.333 77.477 396.461 87.888 381.442C73.723 413.869 59.899 464.727 57.168 543.063C60.581 526.85 65.019 510.807 70.48 495.106C68.091 547.33 74.064 612.183 107.173 685.229C126.8 728.237 172.026 815.618 282.277 883.714C282.277 883.714 319.824 911.703 384.336 932.525C389.115 934.232 393.893 935.938 398.843 937.645C397.307 936.962 395.771 936.28 394.406 935.768C437.414 948.568 481.958 955.224 526.843 955.224C685.392 955.395 737.787 894.979 742.736 888.835C750.757 881.326 756.901 873.304 760.656 865.283C829.093 833.71 902.992 782.51 909.819 706.904C909.819 707.245 909.648 708.269 909.307 709.635C910.843 701.955 910.672 694.616 908.966 688.302L908.97 688.299ZM275.114 176.811C290.986 176.811 307.199 178.688 323.583 182.443C379.732 150.528 444.586 132.267 513.706 132.267C534.698 132.267 555.178 133.974 575.317 137.216C576 134.315 576.853 131.243 577.706 128.341C580.266 119.466 583.167 110.592 586.581 101.888C562.858 97.7924 538.624 95.5734 513.706 95.5734C420.522 95.5734 334.506 125.781 264.533 177.152C267.946 176.981 271.53 176.811 275.114 176.811Z" fill="black"/>
</svg>
