<!-- Generated by IcoMoon.io -->
<svg version="1.1" xmlns="http://www.w3.org/2000/svg" width="32" height="32" viewBox="0 0 32 32">
<path d="M13.037 14.363c0.088 0.088 0.181 0.153 0.284 0.197s0.216 0.059 0.338 0.047c0.122-0.016 0.256-0.066 0.403-0.15s0.306-0.213 0.478-0.387c0.184-0.184 0.322-0.353 0.412-0.503 0.091-0.153 0.144-0.291 0.162-0.416s0.003-0.241-0.041-0.344c-0.044-0.103-0.113-0.197-0.197-0.284-0.088-0.088-0.181-0.153-0.281-0.194-0.1-0.044-0.213-0.053-0.334-0.031s-0.259 0.078-0.409 0.172c-0.15 0.091-0.316 0.231-0.5 0.416-0.172 0.172-0.303 0.331-0.391 0.475s-0.141 0.275-0.156 0.394c-0.019 0.119-0.006 0.228 0.037 0.331 0.044 0.097 0.109 0.191 0.194 0.278zM30.791 11.988l-0.206-8.003c-0.038-1.416-1.178-2.556-2.594-2.591l-7.994-0.188c-0.95-0.025-1.859 0.35-2.534 1.025l-15.222 15.241c-1.356 1.356-1.384 3.553-0.028 4.909l7.409 7.4c1.356 1.353 3.581 1.353 4.938-0.003l15.222-15.241c0.672-0.675 1.031-1.597 1.009-2.55zM11.403 12.509c0.144-0.331 0.363-0.644 0.65-0.931 0.3-0.3 0.619-0.525 0.956-0.675s0.678-0.228 1.019-0.234c0.341-0.006 0.675 0.059 1 0.194s0.625 0.338 0.9 0.613c0.275 0.275 0.481 0.575 0.619 0.903s0.203 0.662 0.197 1.003c-0.006 0.341-0.084 0.681-0.234 1.019s-0.375 0.656-0.675 0.956c-0.287 0.287-0.603 0.5-0.947 0.634s-0.688 0.2-1.031 0.197c-0.344-0.003-0.678-0.072-1.003-0.206-0.322-0.134-0.609-0.328-0.859-0.578-0.275-0.275-0.478-0.572-0.616-0.897-0.134-0.322-0.2-0.653-0.197-0.994 0.003-0.334 0.078-0.672 0.222-1.003zM16.919 23.066c-0.15 0.337-0.375 0.656-0.675 0.956-0.287 0.288-0.606 0.5-0.95 0.637-0.344 0.134-0.691 0.203-1.034 0.2s-0.678-0.072-1.003-0.206c-0.322-0.134-0.609-0.328-0.859-0.578-0.275-0.275-0.478-0.572-0.616-0.897-0.134-0.322-0.2-0.653-0.197-0.994s0.078-0.675 0.225-1.009c0.147-0.334 0.363-0.644 0.653-0.934 0.3-0.3 0.619-0.525 0.956-0.675s0.678-0.228 1.019-0.234c0.341-0.006 0.675 0.059 1 0.194s0.625 0.337 0.9 0.613c0.275 0.275 0.481 0.575 0.619 0.903s0.203 0.663 0.197 1.003c-0.006 0.347-0.084 0.684-0.234 1.022zM8.381 19.387c-0.122 0.016-0.247 0.003-0.375-0.031-0.125-0.038-0.247-0.113-0.362-0.228l-1.256-1.256 13.588-1.694c0.116-0.006 0.241 0.003 0.372 0.031s0.269 0.113 0.409 0.253l1.225 1.225-13.6 1.7zM25.369 10.503c-1.066 1.066-2.794 1.066-3.856 0.003-1.069-1.069-1.069-2.794-0.006-3.859 1.066-1.066 2.791-1.066 3.859-0.003 1.066 1.066 1.066 2.794 0.003 3.859zM15.284 21.191c-0.088-0.087-0.181-0.153-0.281-0.194-0.1-0.044-0.213-0.053-0.334-0.031s-0.259 0.078-0.409 0.172c-0.15 0.091-0.316 0.228-0.497 0.409-0.172 0.172-0.303 0.331-0.391 0.475s-0.141 0.275-0.156 0.394c-0.019 0.119-0.006 0.228 0.037 0.331 0.044 0.1 0.109 0.194 0.194 0.281 0.088 0.087 0.181 0.153 0.284 0.197s0.216 0.059 0.338 0.047c0.122-0.016 0.256-0.063 0.403-0.15 0.147-0.084 0.306-0.212 0.478-0.387 0.181-0.181 0.316-0.347 0.406-0.497 0.091-0.153 0.144-0.291 0.162-0.416s0.003-0.241-0.041-0.344c-0.041-0.106-0.106-0.2-0.194-0.288z"></path>
</svg>
