<svg width="1024" height="1024" viewBox="0 0 1024 1024" fill="none" xmlns="http://www.w3.org/2000/svg">
<path d="M661.976 487.544C661.976 449.779 692.687 419.068 730.452 419.068C768.217 419.068 798.928 449.779 798.928 487.544C798.928 525.309 768.217 556.02 730.452 556.02C692.687 556.02 661.976 525.309 661.976 487.544Z" />
<path fill-rule="evenodd" clip-rule="evenodd" d="M65.4434 729.87V294.271H958.887V729.87H65.4434ZM274.235 545.603C271.739 542.456 268.267 538.441 263.926 533.449L264.035 533.557L242.222 509.032C259.911 506.102 275.429 503.172 288.886 500.133L279.227 467.252C270.003 470.725 259.911 474.957 249.059 479.949C241.028 483.638 235.819 486.026 233.432 487.003C236.688 463.454 238.315 447.176 238.315 438.386H205.976C205.976 450.865 207.387 466.926 210.317 486.677C197.946 478.864 183.73 471.81 167.886 465.407L157.143 497.312C160.398 498.506 167.126 500.459 177.436 502.955C191.652 506.428 200.333 508.489 203.372 508.924C203.18 509.115 202.938 509.361 202.644 509.66C201.442 510.884 199.371 512.991 196.318 515.869C186.877 524.767 177.761 534.209 169.08 543.975L196.535 565.245C206.085 550.487 214.549 536.488 221.929 523.465L246.454 563.943L274.235 545.603ZM418.892 545.603C416.396 542.456 412.924 538.441 408.583 533.449L408.691 533.557L386.879 509.032C404.568 506.102 420.086 503.172 433.542 500.133L423.884 467.252C414.66 470.725 404.568 474.957 393.716 479.949C385.685 483.638 380.476 486.026 378.089 487.003C381.344 463.454 382.972 447.176 382.972 438.386H350.633C350.633 450.865 352.044 466.926 354.974 486.677C342.603 478.864 328.387 471.81 312.543 465.407L301.799 497.312C305.055 498.506 311.783 500.459 322.093 502.955C336.309 506.428 344.99 508.489 348.029 508.924C347.837 509.115 347.595 509.362 347.301 509.661C346.098 510.884 344.027 512.991 340.975 515.869C331.534 524.767 322.418 534.209 313.737 543.975L341.192 565.245C350.742 550.487 359.206 536.488 366.586 523.465L391.111 563.943L418.892 545.603ZM563.549 545.603C561.053 542.456 557.58 538.441 553.24 533.449L553.348 533.557L531.536 509.032C549.224 506.102 564.743 503.172 578.199 500.133L568.541 467.252C559.317 470.725 549.224 474.957 538.372 479.949C530.342 483.638 525.133 486.026 522.746 487.003C526.001 463.454 527.629 447.176 527.629 438.386H495.29C495.29 450.865 496.701 466.926 499.631 486.677C487.26 478.864 473.044 471.81 457.2 465.407L446.456 497.312C449.712 498.506 456.44 500.459 466.749 502.955C480.965 506.428 489.647 508.489 492.686 508.924C492.494 509.115 492.252 509.361 491.958 509.66C490.756 510.884 488.684 512.991 485.632 515.869C476.191 524.767 467.075 534.209 458.393 543.975L485.849 565.245C495.399 550.487 503.863 536.488 511.243 523.465L535.768 563.943L563.549 545.603ZM878.092 668.284L785.363 575.555C769.411 585.647 750.529 591.507 730.452 591.507C673.154 591.507 626.49 544.844 626.49 487.545C626.49 430.247 673.154 383.041 730.452 383.041C787.751 383.041 834.414 429.704 834.414 487.003C834.414 511.202 826.167 533.666 811.951 551.355L902.89 642.294L878.092 668.284Z" />
</svg>
