<svg width="1024" height="1024" viewBox="0 0 1024 1024" fill="none" xmlns="http://www.w3.org/2000/svg">
<g clip-path="url(#clip0_2_524)">
<path d="M947.2 577.6C944 574.4 940.8 571.2 937.6 568C940.8 548.8 940.8 529.6 940.8 510.4C942.4 275.2 748.8 81.5996 512 81.5996C275.2 81.5996 81.5996 275.2 81.5996 512C81.5996 748.8 275.2 942.4 512 942.4C531.2 942.4 550.4 940.8 569.6 939.2C572.8 942.4 574.4 945.6 577.6 948.8C580.8 952 585.6 955.2 588.8 960C628.8 995.2 673.6 1017.6 726.4 1024C737.6 1025.6 750.4 1027.2 763.2 1027.2C776 1027.2 788.8 1025.6 800 1024C851.2 1017.6 896 996.8 936 961.6C940.8 958.4 944 955.2 948.8 950.4C1000 899.2 1025.6 838.4 1025.6 766.4C1024 691.2 998.4 628.8 947.2 577.6ZM512 252.8C560 252.8 598.4 291.2 600 337.6C572.8 321.6 542.4 313.6 512 313.6C481.6 313.6 451.2 321.6 424 337.6C425.6 291.2 464 252.8 512 252.8ZM512 153.6C708.8 153.6 870.4 313.6 870.4 512C870.4 515.2 870.4 520 870.4 523.2C848 513.6 825.6 507.2 800 504C788.8 502.4 776 500.8 763.2 500.8C750.4 500.8 739.2 502.4 726.4 504C718.4 505.6 712 505.6 704 507.2C702.4 494.4 700.8 481.6 697.6 470.4C723.2 465.6 758.4 449.6 785.6 409.6L745.6 382.4C724.8 414.4 696 422.4 680 425.6C670.4 406.4 659.2 388.8 644.8 374.4C648 363.2 649.6 352 649.6 340.8C649.6 307.2 636.8 276.8 617.6 254.4L643.2 228.8L608 193.6L579.2 222.4C560 211.2 537.6 204.8 512 204.8C488 204.8 465.6 211.2 444.8 222.4L416 193.6L382.4 227.2L408 252.8C392 272 380.8 297.6 377.6 324.8L286.4 233.6C348.8 184 427.2 153.6 512 153.6ZM512 870.4C315.2 870.4 153.6 710.4 153.6 512C153.6 425.6 184 347.2 235.2 284.8L355.2 404.8C350.4 411.2 347.2 417.6 344 424C328 422.4 299.2 414.4 276.8 380.8L236.8 408C264 449.6 300.8 464 326.4 470.4C321.6 486.4 320 502.4 318.4 520C292.8 518.4 251.2 520 216 542.4L241.6 582.4C268.8 566.4 300.8 564.8 320 568C323.2 588.8 328 608 334.4 627.2C308.8 638.4 273.6 659.2 254.4 700.8L297.6 720C310.4 689.6 339.2 675.2 356.8 668.8C390.4 718.4 441.6 752 499.2 755.2C499.2 756.8 499.2 758.4 499.2 760C499.2 798.4 507.2 833.6 521.6 867.2C520 870.4 515.2 870.4 512 870.4ZM910.4 910.4C868.8 952 820.8 971.2 763.2 971.2C712 971.2 668.8 955.2 630.4 924.8C625.6 920 619.2 915.2 614.4 910.4C600 896 587.2 880 577.6 862.4C561.6 832 552 798.4 552 761.6C552 758.4 552 755.2 552 752C552 744 553.6 734.4 555.2 726.4C556.8 716.8 558.4 707.2 561.6 697.6C568 676.8 577.6 657.6 590.4 640C596.8 630.4 604.8 620.8 612.8 612.8C622.4 603.2 630.4 596.8 640 588.8C643.2 587.2 646.4 585.6 648 582.4C656 576 665.6 571.2 675.2 568C676.8 566.4 680 566.4 681.6 564.8C688 563.2 694.4 560 700.8 558.4C720 553.6 739.2 550.4 760 550.4C771.2 550.4 784 552 793.6 553.6C817.6 556.8 840 564.8 860.8 576C876.8 585.6 892.8 596.8 907.2 611.2C912 616 916.8 622.4 921.6 627.2C952 664 968 708.8 968 758.4C971.2 820.8 952 870.4 910.4 910.4ZM736 660.8V684.8H788.8V632H736V660.8ZM736 737.6V894.4H788.8V737.6H736Z" fill="black"/>
</g>
<defs>
<clipPath id="clip0_2_524">
<rect width="1024" height="1024" fill="white"/>
</clipPath>
</defs>
</svg>
