<svg width="1024" height="1024" viewBox="0 0 1024 1024" fill="none" xmlns="http://www.w3.org/2000/svg">
<path fill-rule="evenodd" clip-rule="evenodd" d="M487.229 59.7109C495.715 59.8806 504.2 60.2202 512.686 60.5596C712.94 73.1181 873.653 233.831 886.381 434.255C886.89 442.061 887.229 450.547 887.229 459.372C887.229 468.202 886.912 476.558 886.434 484.291C853.803 471.793 818.375 464.945 781.348 464.945C743.465 464.945 707.256 472.114 674.004 485.167H642.002L598.143 529.025C580.927 542.769 565.289 558.406 551.546 575.622L347.729 779.439V779.609C362.494 786.058 377.768 791.319 393.551 795.731L494.455 694.826C489.879 715.429 487.465 736.847 487.465 758.828C487.465 763.719 487.586 768.582 487.822 773.415L454.136 807.103C464.997 808.121 476.198 808.799 487.398 808.799C488.832 808.799 490.263 808.783 491.689 808.755C494.673 826.191 499.194 843.102 505.105 859.345C499.189 859.588 493.23 859.711 487.229 859.711C266.61 859.711 87.2285 671.675 87.2285 459.711C87.2287 247.747 253.033 73.7969 461.772 60.5596L487.229 59.7109ZM507.934 485.167L264.743 728.358C276.113 737.862 288.332 746.347 300.891 754.323L570.046 485.167H507.934ZM200.424 658.608C208.909 670.658 218.243 682.197 228.086 693.059L461.772 459.372V397.259L200.424 658.608ZM155.96 569.003L155.791 569.173C160.882 584.277 166.991 599.041 173.949 613.127L461.772 325.303V263.19L155.96 569.003ZM138.48 452.414C138.48 454.79 138.142 457.166 138.142 459.711V459.881C138.142 477.191 139.838 494.162 142.214 510.793L461.772 191.234V129.122L138.48 452.414ZM512.686 434.255H835.469C822.91 262.002 684.938 123.86 512.686 111.472V434.255ZM396.266 122.673C276.962 155.087 182.944 249.105 150.53 368.409L396.266 122.673Z" fill="black"/>
<path d="M936.769 649.679V599.913H839.405V553.368H723.291V599.913H625.927V649.719L936.769 649.679ZM747.375 577.444H815.321V599.937H747.375V577.444ZM643.054 964.289H919.641V673.755H643.054V964.289ZM831.307 725.088H855.407V907.308H831.307V725.088ZM769.306 725.088H793.406V907.308H769.306V725.088ZM707.305 725.088H731.405V907.308H707.305V725.088Z" fill="black"/>
</svg>
