<svg width="1024" height="1024" viewBox="0 0 1024 1024" fill="none" xmlns="http://www.w3.org/2000/svg">
<path d="M770.6 514.1L641.9 737.5H641.5L553.7 889.4H556.2L774.2 512L770.6 514.1ZM252.2 512L382.1 737.5L252.3 511.8L252.2 512ZM641.5 737.5H641.9L770.6 514.1L641.5 737.5ZM509.6 624.6C571.8 624.6 622.2 574.2 622.2 512C622.2 449.8 571.8 399.4 509.6 399.4C447.4 399.4 396.9 449.8 396.9 512C396.9 574.2 447.3 624.6 509.6 624.6ZM928.7 482.6L840.2 328.7H666.3L771.8 512L770.6 514.1L774.3 512L556.1 889.4H695.7C696 889.4 696.3 889.4 696.7 889.4C717.5 889.4 735.6 877.6 744.5 860.3L744.6 860L928.6 538.9C933.2 530.8 935.9 521.1 935.9 510.7C935.9 500.4 933.2 490.6 928.4 482.3L928.7 482.6ZM593.1 737.5H382.2L252.2 512V511.8L166.3 362.4L95.3 484.8C90.7 493 88 502.7 88 513C88 523.3 90.7 533.1 95.5 541.4L95.4 541.1L279.2 859.7C289.2 876.9 307.3 888.4 328.1 889.1H328.2H505.3L593.1 737.5ZM185.5 395.6L252.4 511.8L252.5 511.6L185.5 395.6ZM744.8 164C735.2 146.4 716.9 134.7 695.8 134.6H328.2C327.9 134.6 327.6 134.6 327.2 134.6C306.4 134.6 288.3 146.4 279.4 163.7L279.3 164L190.6 320L276.8 469.4L382.1 286.5H815.9L744.8 164Z" fill="black"/>
</svg>
