<svg width="1024" height="1024" viewBox="0 0 1024 1024" fill="none" xmlns="http://www.w3.org/2000/svg">
<path d="M491.52 798.72L288.426 918.187C269.653 930.133 245.76 923.307 233.813 906.24C228.693 897.707 226.986 887.467 228.693 877.227L279.893 646.827C283.306 633.174 278.186 617.813 267.946 609.28L92.1598 452.267C76.7998 436.907 75.0931 413.013 90.4531 397.653C97.2798 390.827 105.813 387.413 114.346 385.707L349.866 363.52C363.52 361.813 377.173 353.28 382.293 339.627L476.16 122.88C484.693 102.4 506.88 93.8668 527.36 102.4C535.893 105.813 544.426 114.347 547.84 122.88L641.706 339.627C646.826 353.28 660.48 361.813 674.133 363.52L909.653 385.707C931.84 387.413 947.2 406.187 945.493 428.373C943.786 438.613 940.373 447.147 931.84 453.973L754.346 610.987C744.106 621.227 738.986 634.88 742.4 648.534L793.6 878.934C798.72 899.414 785.066 921.6 764.586 926.72C754.346 928.427 744.106 926.72 735.573 921.6L532.48 800.427C518.826 791.894 505.173 791.893 491.52 798.72Z" fill="black"/>
</svg>
