<svg width="1024" height="1024" viewBox="0 0 1024 1024" fill="none" xmlns="http://www.w3.org/2000/svg">
<path d="M592.002 443.2C596.802 470.4 598.402 494.4 598.402 513.6C598.402 528 596.802 544 595.202 561.6C616.002 544 640.002 529.6 667.202 520C667.202 518.4 667.202 516.8 667.202 515.2C667.202 496 665.602 472 662.402 444.8H779.202C784.002 465.6 787.202 484.8 788.802 504C812.802 507.2 836.802 512 859.202 521.6C859.202 520 859.202 516.8 859.202 515.2C859.202 419.2 825.602 337.6 756.802 270.4C689.602 203.2 606.402 168 510.402 168C414.402 168 332.802 201.6 264.002 270.4C196.802 337.6 161.602 420.8 161.602 515.2C161.602 611.2 195.202 692.8 264.002 760C331.202 827.2 414.402 862.4 510.402 862.4C513.602 862.4 516.802 862.4 518.402 862.4C507.202 836.8 500.802 808 499.202 777.6C475.202 739.2 456.002 697.6 443.202 652.8H523.202C534.402 627.2 550.402 604.8 569.602 584H427.202C424.002 556.8 422.402 532.8 422.402 513.6C422.402 494.4 424.002 470.4 427.202 443.2H592.002ZM752.002 376H649.602C638.402 331.2 622.402 289.6 601.602 252.8C667.202 273.6 718.402 315.2 752.002 376ZM510.402 236.8C539.202 278.4 561.602 324.8 577.602 376H444.802C460.802 324.8 481.602 280 510.402 236.8ZM241.602 584C236.802 558.4 233.602 536 233.602 513.6C233.602 491.2 236.802 468.8 241.602 443.2H358.402C355.202 470.4 353.602 494.4 353.602 513.6C353.602 532.8 355.202 556.8 358.402 584H241.602ZM272.002 652.8H374.402C385.602 697.6 401.602 739.2 422.402 776C356.802 755.2 305.602 713.6 272.002 652.8ZM374.402 376H272.002C307.202 315.2 356.802 273.6 422.402 252.8C401.602 289.6 385.602 331.2 374.402 376ZM931.202 705.6L896.002 644.8C894.402 641.6 889.602 640 884.802 641.6L843.202 659.2C840.002 656 836.802 654.4 832.002 651.2C825.602 646.4 819.202 643.2 812.802 640L806.402 593.6C804.802 588.8 801.602 587.2 796.802 587.2H728.002C723.202 587.2 720.002 588.8 718.402 593.6L712.002 640C705.602 643.2 699.202 646.4 692.802 651.2C689.602 652.8 686.402 656 681.602 657.6L665.602 651.2L640.002 641.6C635.202 640 632.002 641.6 628.802 644.8L595.202 705.6C593.602 710.4 593.602 713.6 596.802 716.8L635.202 745.6C633.602 750.4 633.602 756.8 633.602 763.2C633.602 763.2 633.602 763.2 633.602 764.8C633.602 769.6 633.602 776 635.202 780.8L598.402 808C595.202 811.2 595.202 814.4 596.802 819.2L612.802 848L630.402 880C632.002 884.8 636.802 886.4 641.602 884.8L683.202 867.2C692.802 875.2 702.402 880 712.002 883.2L718.402 931.2C720.002 936 723.202 937.6 728.002 937.6H796.802C801.602 937.6 804.802 936 806.402 931.2L812.802 883.2C824.002 878.4 833.602 873.6 841.602 867.2L883.202 884.8C888.002 886.4 892.802 884.8 894.402 880L928.002 819.2C929.602 814.4 929.602 811.2 926.402 808L889.602 780.8C891.202 772.8 891.202 768 891.202 763.2C891.202 756.8 891.202 752 889.602 747.2L926.402 718.4C932.802 713.6 932.802 710.4 931.202 705.6ZM800.002 800C790.402 809.6 777.602 814.4 763.202 814.4C748.802 814.4 737.602 809.6 726.402 800C723.202 798.4 721.602 795.2 720.002 792C713.602 784 710.402 774.4 710.402 763.2C710.402 748.8 715.202 736 726.402 726.4C736.002 716.8 748.802 710.4 763.202 710.4C774.402 710.4 784.002 713.6 792.002 720C795.202 721.6 796.802 723.2 798.402 726.4C808.002 736 814.402 748.8 814.402 763.2C814.402 777.6 809.602 790.4 800.002 800Z" fill="black"/>
</svg>
