<svg width="1024" height="1024" viewBox="0 0 1024 1024" fill="none" xmlns="http://www.w3.org/2000/svg">
<path d="M885.001 648.006C856.483 516.593 728.299 437.786 598.745 472.432C567.431 480.802 538.574 494.616 514.371 516.893C513.545 517.606 513.245 517.775 512.889 518.038C510.994 516.518 508.573 514.547 507.11 513.421C505.647 512.276 504.014 511.338 502.513 510.287C425.794 456.291 344.047 447.865 260.292 489.698C186.932 526.333 144.266 588.211 136.367 669.945C129.913 736.815 134.791 804.248 134.416 871.437C134.303 890.675 150.082 903.944 168.319 901.766C177.231 900.715 183.648 895.367 189.708 889.286C229.241 849.685 268.866 810.217 308.286 770.504C312.583 766.168 316.898 764.329 323.033 764.367C365.53 764.611 770.72 764.517 845.713 764.479C869.954 764.479 888.228 750.009 889.26 728.276C890.517 701.457 890.78 674.506 885.02 648.006H885.001Z" fill="black"/>
<path d="M363.898 429.117C430.354 429.417 484.558 375.403 484.502 308.964C484.464 242.883 430.673 189.056 364.63 189C298.587 188.944 244.664 242.639 244.495 308.683C244.307 374.765 297.911 428.816 363.898 429.098V429.117Z" fill="black"/>
<path d="M664.376 429.118C730.438 429.212 784.361 375.536 784.567 309.473C784.792 243.41 731.207 189.32 665.22 189.001C599.14 188.682 545.01 242.152 544.56 308.178C544.11 374.654 597.995 429.043 664.395 429.118H664.376Z" fill="black"/>
</svg>
