<svg width="1024" height="1024" viewBox="0 0 1024 1024" fill="none" xmlns="http://www.w3.org/2000/svg">
<path d="M518.802 463.3V580.5H712.702C705.002 630.9 654.102 728 518.802 728C402.102 728 307.002 631.3 307.002 512.1C307.002 392.9 402.202 296.2 518.802 296.2C585.302 296.2 629.502 324.5 655.002 348.9L747.602 259.5C688.202 203.9 610.902 170 518.802 170C329.702 170.5 177.102 323.2 177.102 512.3C177.102 701.4 329.802 854 518.802 854C715.902 854 846.902 715.3 846.902 520C846.902 497.6 844.402 480.4 841.502 463.4L518.802 463.3Z" fill="black"/>
</svg>
