<svg width="1024" height="1024" viewBox="0 0 1024 1024" fill="none" xmlns="http://www.w3.org/2000/svg">
<path d="M324.266 765.593C324.32 765.593 324.384 765.593 324.448 765.593C377.514 765.593 420.533 722.574 420.533 669.508C420.533 644.356 410.869 621.461 395.051 604.334L395.11 604.399L451.43 514.389C459.687 516.971 469.181 518.459 479.023 518.459C498.76 518.459 517.099 512.477 532.326 502.226L531.985 502.443L604.314 565.59C598.283 577.811 594.756 592.196 594.756 607.404C594.756 660.555 637.844 703.643 690.995 703.643C744.146 703.643 787.234 660.555 787.234 607.404C787.234 576.386 772.56 548.795 749.775 531.195L749.552 531.03L831.199 330.036C834.642 330.471 838.626 330.72 842.669 330.72C895.99 330.72 939.215 287.495 939.215 234.174C939.215 180.853 895.99 137.628 842.669 137.628C789.348 137.628 746.123 180.853 746.123 234.174C746.123 265.238 760.794 292.875 783.585 310.535L783.806 310.7L702.193 511.66C698.85 511.233 694.964 510.979 691.022 510.96H690.997C690.98 510.96 690.959 510.96 690.938 510.96C671.207 510.96 652.872 516.939 637.646 527.185L637.988 526.968L565.642 463.821C571.69 451.584 575.228 437.178 575.228 421.946C575.228 368.785 532.133 325.69 478.972 325.69C425.811 325.69 382.716 368.785 382.716 421.946C382.716 447.117 392.378 470.031 408.195 487.183L408.135 487.117L351.815 577.144C343.569 574.588 334.089 573.116 324.265 573.116C271.114 573.116 228.026 616.204 228.026 669.355C228.026 722.506 271.114 765.594 324.265 765.594C324.267 765.594 324.268 765.594 324.27 765.594L324.266 765.593ZM842.41 206.472C842.415 206.472 842.421 206.472 842.427 206.472C857.895 206.472 870.433 219.011 870.433 234.478C870.433 249.945 857.894 262.484 842.427 262.484C826.959 262.484 814.421 249.945 814.421 234.478C814.44 219.024 826.958 206.501 842.408 206.472H842.41ZM690.994 579.225C706.452 579.225 718.983 591.756 718.983 607.214C718.983 622.672 706.452 635.203 690.994 635.203C675.536 635.203 663.005 622.672 663.005 607.214C663.024 591.764 675.544 579.244 690.992 579.225H690.994ZM478.992 394.188C494.46 394.188 506.998 406.727 506.998 422.194C506.998 437.661 494.459 450.2 478.992 450.2C463.524 450.2 450.986 437.661 450.986 422.194C450.986 422.188 450.986 422.182 450.986 422.176V422.177C451.005 406.721 463.535 394.197 478.991 394.188H478.992ZM324.266 641.348C339.724 641.348 352.255 653.879 352.255 669.337C352.255 684.795 339.724 697.326 324.266 697.326C308.808 697.326 296.277 684.795 296.277 669.337C296.296 653.887 308.816 641.367 324.264 641.348H324.266ZM119.466 710.246H175.581V641.979H119.466V424.669H175.581V356.402H119.466V139.109H175.581V70.8418H51.1992V995.821H938.666V927.554H119.466V710.244V710.246Z" fill="black"/>
</svg>
