<svg width="1024" height="1024" viewBox="0 0 1024 1024" fill="none" xmlns="http://www.w3.org/2000/svg">
<path d="M112 160.54C112 133.732 133.732 112 160.54 112H415.8C442.608 112 464.34 133.732 464.34 160.54V415.8C464.34 442.608 442.608 464.34 415.8 464.34H160.54C133.732 464.34 112 442.608 112 415.8V160.54Z" fill="black"/>
<path d="M112 608.198C112 581.39 133.732 559.658 160.54 559.658H415.8C442.608 559.658 464.34 581.39 464.34 608.198V863.458C464.34 890.266 442.608 911.998 415.8 911.998H160.54C133.732 911.998 112 890.266 112 863.458V608.198Z" fill="black"/>
<path d="M559.66 160.54C559.66 133.732 581.392 112 608.2 112H863.46C890.268 112 912 133.732 912 160.54V415.8C912 442.608 890.268 464.34 863.46 464.34H608.2C581.392 464.34 559.66 442.608 559.66 415.8V160.54Z" fill="black"/>
<path d="M559.66 608.198C559.66 581.39 581.392 559.658 608.2 559.658H863.46C890.268 559.658 912 581.39 912 608.198V863.458C912 890.266 890.268 911.998 863.46 911.998H608.2C581.392 911.998 559.66 890.266 559.66 863.458V608.198Z" fill="black"/>
</svg>
