<svg width="1024" height="1024" viewBox="0 0 1024 1024" fill="none" xmlns="http://www.w3.org/2000/svg">
<path d="M731.077 269.029L670.522 164.252C668.019 160.312 663.652 157.756 658.752 157.756C656.249 157.756 653.852 158.449 651.828 159.62H651.882L579.716 187.518C574.177 182.513 568.105 177.934 561.608 173.888L561.075 173.569C551.755 165.955 540.943 159.673 529.28 155.201L528.481 154.935L516.817 75.7661C515.326 69.0046 509.361 64 502.224 64C501.639 64 500.999 64 500.414 64.1065H500.467H381.7C372.326 64.1065 367.746 66.4491 365.403 75.7661L353.792 154.935C341.223 160.898 330.518 167.073 320.399 174.048L321.198 173.516C315.819 177.615 309.694 181.448 303.303 184.802L302.611 185.122L274.596 173.516L230.392 157.224C228.634 156.532 226.61 156.159 224.48 156.159C219.42 156.159 214.893 158.395 211.804 161.909L153.539 266.739C151.196 276.11 151.196 280.688 155.883 285.374L200.141 317.957L221.125 334.248C219.527 341.596 218.621 350.061 218.621 358.739C218.621 360.762 218.621 362.785 218.781 364.808V364.542V366.938C218.728 368.322 218.675 369.919 218.675 371.57C218.675 379.822 219.58 387.861 221.231 395.635L221.071 394.889L158.173 441.421C155.67 444.403 154.178 448.289 154.178 452.549C154.178 455.264 154.817 457.873 155.936 460.162V460.055L214.094 564.833C215.692 570.849 221.125 575.214 227.569 575.214C229.433 575.214 231.191 574.842 232.842 574.203H232.735L304.954 543.962C318.961 555.356 335.098 564.779 352.674 571.488L353.899 571.914L365.509 653.371C367 660.133 372.965 665.138 380.102 665.138C380.741 665.138 381.327 665.138 381.913 665.031H381.86H500.627C510 665.031 514.58 662.688 516.924 653.371L528.587 571.914C547.281 563.874 563.365 554.504 578.171 543.483L577.532 543.962L649.698 574.203C659.071 576.545 665.995 574.203 668.338 564.833L726.55 460.055C728.894 450.685 728.894 446.106 724.207 441.421L659.018 397.178C660.509 389.086 661.362 379.769 661.362 370.239C661.362 369.068 661.362 367.896 661.362 366.725V366.885C661.468 365.288 661.521 363.424 661.521 361.507C661.521 353.521 660.616 345.748 658.912 338.241L659.071 338.934L721.97 290.059C733.58 280.742 733.58 276.11 731.237 269.082L731.077 269.029ZM442.308 457.606C392.192 457.553 351.555 416.931 351.502 366.885C352.194 317.265 392.565 277.281 442.308 277.281C492.052 277.281 532.475 317.265 533.114 366.831C533.008 416.984 492.425 457.553 442.308 457.66V457.606ZM617.37 587.832L549.997 626.751C547.494 628.348 545.843 631.17 545.843 634.311C545.843 635.909 546.269 637.453 547.015 638.784L559.265 680.684C555.909 684.411 552.82 688.457 550.104 692.823L549.891 693.195C544.778 699.478 540.571 706.771 537.588 714.651L537.428 715.184L493.277 725.459C488.91 726.417 485.714 730.251 485.714 734.829C485.714 735.202 485.714 735.628 485.767 736V812.294C485.767 818.31 487.312 821.292 493.277 822.782L537.375 833.111C541.423 841.576 545.577 848.817 550.317 855.632L549.997 855.099C552.767 858.72 555.323 862.872 557.56 867.185L557.773 867.664L556.069 881.134L545.577 909.564C545.151 910.682 544.885 912.013 544.885 913.398C544.885 916.645 546.323 919.573 548.56 921.543L615.932 959.025C621.95 960.515 624.933 960.515 627.915 957.481L658.379 922.715C663.332 923.779 669.031 924.365 674.836 924.365C676.221 924.365 677.605 924.365 678.99 924.259H678.777H680.322C681.28 924.259 682.399 924.312 683.517 924.312C689.056 924.312 694.488 923.726 699.708 922.608L699.229 922.715L728.201 955.99C730.119 957.64 732.675 958.599 735.445 958.599C737.149 958.599 738.8 958.226 740.291 957.534H740.238L807.61 920.106C811.445 919.041 814.267 915.58 814.267 911.481C814.267 910.256 814.054 909.138 813.575 908.073L799.888 866.173C807.557 856.75 813.948 845.835 818.475 833.963L818.741 833.164L864.437 822.836C868.805 821.877 872 818.044 872 813.465C872 813.093 872 812.667 871.947 812.294V736.107C871.947 730.144 870.402 727.109 864.437 725.619L818.741 715.343C813.256 702.725 806.918 691.864 799.462 681.855L799.781 682.281L813.469 640.274C815.013 634.311 813.469 629.786 807.504 628.295L740.131 590.814C734.113 589.323 731.131 589.323 728.148 592.358L700.773 627.284C695.341 626.272 689.056 625.686 682.665 625.686C681.866 625.686 681.014 625.686 680.215 625.686H680.322C679.203 625.633 677.925 625.58 676.647 625.58C671.268 625.58 666.048 626.166 660.989 627.337L661.468 627.23L630.844 593.849C624.826 586.395 621.844 586.395 617.37 587.886V587.832ZM764.151 773.375C764.098 819.641 726.55 857.176 680.268 857.229C634.413 856.59 597.504 819.268 597.504 773.375C597.504 727.482 634.413 690.161 680.215 689.522H680.268C726.55 689.575 764.098 727.109 764.151 773.375Z" fill="black"/>
</svg>
