<svg width="1024" height="1024" viewBox="0 0 1024 1024" fill="none" xmlns="http://www.w3.org/2000/svg">
<path d="M364.885 620.032C483.157 620.032 716.97 677.717 716.97 796.16V914.432H12.7988V796.16C12.7988 677.717 246.612 620.032 364.884 620.032H364.885ZM755.371 630.954C873.643 650.239 1011.2 705.194 1011.2 795.989V914.261H835.243V795.989C835.243 727.21 805.035 674.986 755.371 630.954ZM364.885 504.49C268.629 504.49 188.757 424.789 188.757 328.362C188.757 231.935 268.629 152.405 364.885 152.405C461.141 152.405 541.013 232.106 541.013 328.533C541.013 424.96 461.141 504.49 364.885 504.49ZM659.115 504.49C639.83 504.49 623.275 501.759 606.891 496.298C639.83 449.535 659.115 391.85 659.115 328.533C659.115 265.216 639.83 207.53 606.891 160.768C623.446 155.307 639.83 152.576 659.115 152.576C755.371 152.576 835.243 232.277 835.243 328.704C835.243 425.131 755.371 504.491 659.115 504.491V504.49Z" fill="black"/>
</svg>
