<svg width="1024" height="1024" viewBox="0 0 1024 1024" fill="none" xmlns="http://www.w3.org/2000/svg">
<path d="M561.468 199.471H540.305V79.68C540.304 67.154 530.15 57 517.623 57C514.081 57 510.729 57.812 507.743 59.259L507.878 59.2L213 199.471V967.078H810.709V199.471H561.468ZM361.378 199.471H340.215L485.657 130.3V199.471H361.378ZM606.148 725.927H417.561C402.48 725.927 390.254 713.701 390.254 698.62C390.254 683.539 402.48 671.313 417.561 671.313H606.148C621.229 671.313 633.455 683.539 633.455 698.62C633.455 713.701 621.229 725.927 606.148 725.927ZM606.148 610.607H417.561C402.48 610.607 390.254 598.381 390.254 583.3C390.254 568.219 402.48 555.993 417.561 555.993H606.148C621.229 555.993 633.455 568.219 633.455 583.3C633.455 598.381 621.229 610.607 606.148 610.607ZM606.148 495.288H417.561C402.48 495.288 390.254 483.062 390.254 467.981C390.254 452.9 402.48 440.674 417.561 440.674H606.148C621.229 440.674 633.455 452.9 633.455 467.981C633.455 483.062 621.229 495.288 606.148 495.288Z" fill="currentColor"/>
</svg>
