<svg width="1024" height="1024" viewBox="0 0 1024 1024" fill="none" xmlns="http://www.w3.org/2000/svg">
<path d="M832.001 99.1996L944.001 211.2L905.601 249.6L896.001 235.2L795.201 134.4L832.001 99.1996ZM60.8008 211.2L132.801 324.8L209.601 331.2L376.001 497.6L308.801 564.8L336.001 592L110.401 819.2C124.801 873.6 171.201 918.4 224.001 932.8L460.801 696L721.601 956.8C816.001 931.2 868.801 867.2 899.201 779.2L641.601 518.4L697.601 462.4L840.001 604.8L963.201 481.6L868.801 262.4L673.601 67.1996L630.401 65.5996L486.401 208L489.601 257.6L580.801 348.8L536.001 393.6L508.801 366.4L440.001 433.6L276.801 268.8L270.401 187.2L156.801 115.2L60.8008 211.2ZM590.401 616L620.801 585.6L827.201 792L803.201 830.4L590.401 616ZM524.801 681.6L555.201 651.2L769.601 865.6L731.201 889.6L524.801 681.6Z" fill="black"/>
</svg>
