<svg width="1024" height="1024" viewBox="0 0 1024 1024" fill="none" xmlns="http://www.w3.org/2000/svg">
<path d="M670.4 704L630.4 932.8H547.2C539.2 932.8 532.8 931.2 526.4 928C520 924.8 515.2 920 510.4 915.2C505.6 910.4 502.4 904 499.2 896C496 889.6 494.4 881.6 494.4 873.6C494.4 872 494.4 868.8 494.4 867.2C494.4 865.6 494.4 862.4 496 860.8L523.2 704H427.2L400 870.4C398.4 881.6 395.2 891.2 390.4 899.2C385.6 907.2 379.2 913.6 371.2 918.4C363.2 923.2 355.2 926.4 347.2 929.6C339.2 931.2 329.6 932.8 320 932.8H240L281.6 704H230.4C216 704 204.8 700.8 196.8 692.8C188.8 686.4 184 673.6 184 656C184 652.8 184 649.6 184 644.8C184 641.6 185.6 636.8 185.6 632L195.2 576H297.6L321.6 440H208L222.4 368C225.6 350.4 233.6 337.6 244.8 328C256 320 275.2 315.2 300.8 315.2H340.8L371.2 145.6C374.4 128 382.4 113.6 396.8 102.4C411.2 92.8004 427.2 86.4004 446.4 86.4004H528L488 313.6H584L624 86.4004H704C721.6 86.4004 734.4 91.2004 745.6 100.8C756.8 110.4 761.6 121.6 761.6 136C761.6 137.6 761.6 139.2 761.6 140.8C761.6 142.4 761.6 144 761.6 145.6L731.2 313.6H843.2L828.8 385.6C825.6 403.2 817.6 417.6 806.4 425.6C795.2 433.6 776 438.4 750.4 438.4H713.6L689.6 574.4H752C766.4 574.4 777.6 577.6 785.6 585.6C793.6 592 798.4 604.8 798.4 622.4C798.4 625.6 798.4 628.8 798.4 633.6C798.4 636.8 796.8 641.6 796.8 646.4L784 704H670.4ZM444.8 579.2H540.8L564.8 443.2H468.8L444.8 579.2Z" fill="black"/>
</svg>
