<svg width="1024" height="1024" viewBox="0 0 1024 1024" fill="none" xmlns="http://www.w3.org/2000/svg">
<path fill-rule="evenodd" clip-rule="evenodd" d="M175.409 560.532L512 897L848.591 560.532C947.803 461.356 947.803 299.717 848.591 200.541C800.574 152.542 736.659 126 668.609 126C611.053 126 556.518 144.913 512 179.72C467.323 144.913 412.788 126 355.391 126C287.5 126 223.585 152.383 175.409 200.541C76.1969 299.717 76.1969 461.356 175.409 560.532ZM458.288 417.381L354.697 521.15L354.673 521.127L354.673 521.15H266V478.999H336.623L458.288 357.854L543.41 442.318L670 315.508V314.999H758V357.15H687.916L543.41 502.649L458.288 417.381Z" fill="black"/>
</svg>
