<!-- Generated by IcoMoon.io -->
<svg version="1.1" xmlns="http://www.w3.org/2000/svg" width="32" height="32" viewBox="0 0 32 32">
<path d="M5.482 17.517l10.518 10.515 10.518-10.515c3.1-3.099 3.1-8.15 0-11.25-1.501-1.5-3.498-2.329-5.624-2.329-1.799 0-3.503 0.591-4.894 1.679-1.396-1.088-3.1-1.679-4.894-1.679-2.122 0-4.119 0.824-5.624 2.329-3.1 3.099-3.1 8.15 0 11.25zM14.322 13.043l-3.238 3.243h-2.771v-1.317h2.207l3.802-3.786 2.66 2.639 3.956-3.963v-0.016h2.75v1.317h-2.19l-4.516 4.547-2.66-2.665z"></path>
</svg>
