<svg width="1024" height="1024" viewBox="0 0 1024 1024" fill="none" xmlns="http://www.w3.org/2000/svg">
<path d="M220.8 222.4C300.8 142.4 398.4 102.4 512 102.4C625.6 102.4 721.6 142.4 803.2 222.4C883.2 302.4 923.2 398.4 923.2 512C923.2 625.6 883.2 721.6 803.2 801.6C723.2 881.6 625.6 921.6 512 921.6C398.4 921.6 302.4 881.6 220.8 801.6C139.2 721.6 100.8 625.6 100.8 512C100.8 398.4 140.8 302.4 220.8 222.4ZM638.4 481.6C664 456 676.8 425.6 676.8 388.8C676.8 344 660.8 305.6 628.8 273.6C596.8 241.6 558.4 225.6 512 225.6C465.6 225.6 427.2 241.6 395.2 273.6C363.2 305.6 347.2 344 347.2 388.8H430.4C430.4 366.4 438.4 345.6 454.4 329.6C470.4 313.6 489.6 305.6 512 305.6C534.4 305.6 553.6 313.6 569.6 329.6C585.6 345.6 593.6 364.8 593.6 388.8C593.6 412.8 585.6 430.4 568 446.4L518.4 497.6C486.4 529.6 470.4 568 470.4 612.8V633.6H553.6C553.6 604.8 556.8 584 564.8 568C571.2 552 584 536 601.6 518.4L638.4 481.6ZM553.6 798.4V716.8H470.4V798.4H553.6Z" fill="black"/>
</svg>
