<!-- Generated by IcoMoon.io -->
<svg version="1.1" xmlns="http://www.w3.org/2000/svg" width="32" height="32" viewBox="0 0 32 32">
<path d="M24.747 18.9c-0.372 0-0.734 0.038-1.084 0.113l-0.434-0.734-2.822 1.675 0.419 0.706c-0.5 0.563-0.881 1.234-1.106 1.975h-0.744v3.028h0.744c0.65 2.159 2.653 3.734 5.025 3.734 2.897 0 5.247-2.35 5.247-5.247s-2.347-5.25-5.244-5.25zM24.747 26.844c-1.488 0-2.697-1.209-2.697-2.697s1.209-2.697 2.697-2.697 2.697 1.209 2.697 2.697c0 1.488-1.209 2.697-2.697 2.697zM10.934 20.406l3.666-6.963c0.266 0.041 0.541 0.063 0.819 0.063 0.375 0 0.744-0.041 1.097-0.116l0.331 0.556 2.822-1.675-0.319-0.537c0.822-0.925 1.319-2.144 1.319-3.478 0-2.897-2.35-5.247-5.247-5.247s-5.247 2.35-5.247 5.247c0 1.438 0.578 2.737 1.512 3.684l-3.697 7.012c-0.241-0.034-0.487-0.053-0.737-0.053-2.897 0-5.247 2.35-5.247 5.247s2.35 5.247 5.247 5.247c2.372 0 4.375-1.575 5.025-3.734h0.556v-3.028h-0.556c-0.256-0.853-0.725-1.616-1.344-2.225zM18.032 15.949l2.822-1.674 1.188 2.002-2.822 1.674-1.188-2.002zM14.884 22.634h2.047v3.028h-2.047v-3.028z"></path>
</svg>
