<svg width="1024" height="1024" viewBox="0 0 1024 1024" fill="none" xmlns="http://www.w3.org/2000/svg">
<path d="M791.7 598.5C779.8 598.5 768.2 599.7 757 602.1L743.1 578.6L652.8 632.2L666.2 654.8C650.2 672.8 638 694.3 630.8 718H607V814.9H630.8C651.6 884 715.7 934.4 791.6 934.4C884.3 934.4 959.5 859.2 959.5 766.5C959.5 673.8 884.4 598.5 791.7 598.5ZM791.7 852.7C744.1 852.7 705.4 814 705.4 766.4C705.4 718.8 744.1 680.1 791.7 680.1C839.3 680.1 878 718.8 878 766.4C878 814 839.3 852.7 791.7 852.7ZM349.7 646.7L467 423.9C475.5 425.2 484.3 425.9 493.2 425.9C505.2 425.9 517 424.6 528.3 422.2L538.9 440L629.2 386.4L619 369.2C645.3 339.6 661.2 300.6 661.2 257.9C661.2 165.2 586 90 493.3 90C400.6 90 325.4 165.2 325.4 257.9C325.4 303.9 343.9 345.5 373.8 375.8L255.5 600.2C247.8 599.1 239.9 598.5 231.9 598.5C139.2 598.5 64 673.7 64 766.4C64 859.1 139.2 934.3 231.9 934.3C307.8 934.3 371.9 883.9 392.7 814.8H410.5V717.9H392.7C384.5 690.6 369.5 666.2 349.7 646.7ZM576.839 504.083L667.139 450.501L705.156 514.571L614.856 568.153L576.839 504.083ZM476.1 718H541.6V814.9H476.1V718Z" fill="black"/>
</svg>
