<svg width="1024" height="1024" viewBox="0 0 1024 1024" fill="none" xmlns="http://www.w3.org/2000/svg">
<path d="M890.879 196.875C846.738 151.635 785.166 123.576 717.041 123.576C715.054 123.576 713.072 123.6 711.096 123.647L711.389 123.641C710.083 123.617 708.543 123.604 706.999 123.604C629.273 123.604 559.574 157.968 512.265 212.332L511.999 212.644C464.424 157.968 394.724 123.604 316.999 123.604C315.456 123.604 313.915 123.618 312.378 123.645L312.609 123.642C310.931 123.6 308.954 123.577 306.971 123.577C238.841 123.577 177.265 151.635 133.167 196.826L133.119 196.875C88.5967 241.328 61.0547 302.777 61.0547 370.658C61.0547 372.268 61.0707 373.875 61.1007 375.478L61.0967 375.238C63.1987 439.831 83.5417 499.278 117.105 549.077L116.359 547.902C151.93 605.702 191.066 655.836 235.082 701.21L234.87 700.99C277.008 743.844 346.674 808.954 442.008 894.611L512.101 955.641L582.074 892.409C655.188 826.207 709.05 776.543 742.159 744.799C775.268 713.055 812.952 672.965 853.826 625.844C888.104 588.695 916.81 545.716 938.185 498.699L939.415 495.677C954.214 460.019 962.831 418.607 962.882 375.189V375.169C962.909 373.821 962.924 372.232 962.924 370.639C962.924 302.767 935.389 241.325 890.88 196.876L890.877 196.873L890.879 196.875ZM715.331 576.779H569.292V722.033H454.706V576.779H308.667V465.504H454.706V320.25H569.292V465.504H715.331V576.779Z" fill="black"/>
</svg>
