<svg width="1024" height="1024" viewBox="0 0 1024 1024" fill="none" xmlns="http://www.w3.org/2000/svg">
<path d="M920 331.2L905.6 294.4L878.4 305.6C838.4 230.4 777.6 169.6 702.4 129.6L713.6 102.4L676.8 87.9996C566.4 41.5996 443.2 43.1996 332.8 89.5996L296 104L307.2 131.2C232 171.2 171.2 232 131.2 307.2L104 296L89.6002 332.8C43.2002 443.2 44.8002 566.4 91.2002 676.8L105.6 713.6L132.8 702.4C172.8 777.6 233.6 838.4 308.8 878.4L297.6 905.6L334.4 920C388.8 942.4 446.4 953.6 504 953.6C523.2 953.6 544 952 563.2 948.8C612.8 992 675.2 1014.4 740.8 1014.4C891.2 1014.4 1014.4 891.2 1014.4 740.8C1014.4 675.2 992 612.8 948.8 564.8C961.6 484.8 950.4 404.8 920 331.2ZM476.8 668.8C464 667.2 452.8 664 441.6 659.2L404.8 644.8L395.2 667.2C374.4 652.8 356.8 635.2 344 616L366.4 606.4L352 569.6C334.4 528 334.4 483.2 352 441.6L366.4 404.8L344 395.2C358.4 374.4 376 356.8 395.2 344L404.8 366.4L441.6 352C483.2 334.4 528 334.4 569.6 352L606.4 366.4L616 344C636.8 358.4 654.4 376 667.2 395.2L644.8 404.8L659.2 441.6C664 452.8 667.2 465.6 668.8 478.4C576 502.4 502.4 574.4 476.8 668.8ZM148.8 609.6C128 540.8 128 468.8 148.8 400L267.2 448C259.2 484.8 259.2 523.2 267.2 560L148.8 609.6ZM747.2 467.2C745.6 460.8 745.6 454.4 744 448L811.2 419.2L860.8 398.4C870.4 432 876.8 467.2 876.8 502.4C875.2 502.4 875.2 500.8 873.6 500.8C872 500.8 870.4 499.2 868.8 499.2C862.4 496 856 492.8 848 489.6H846.4C838.4 486.4 832 483.2 824 481.6C822.4 481.6 820.8 480 819.2 480C811.2 478.4 803.2 475.2 795.2 473.6C793.6 473.6 793.6 473.6 792 473.6C784 472 777.6 470.4 769.6 470.4C768 470.4 766.4 470.4 764.8 470.4C760 467.2 753.6 467.2 747.2 467.2ZM609.6 147.2L561.6 265.6C524.8 257.6 486.4 257.6 449.6 265.6L416 190.4L398.4 147.2C467.2 128 540.8 126.4 609.6 147.2ZM400 860.8L438.4 766.4L448 742.4C454.4 744 459.2 745.6 465.6 745.6C465.6 792 478.4 835.2 500.8 875.2C467.2 875.2 433.6 870.4 400 860.8ZM740.8 937.6C689.6 937.6 640 916.8 603.2 881.6C566.4 844.8 545.6 795.2 545.6 742.4C545.6 734.4 545.6 726.4 547.2 716.8C558.4 628.8 628.8 560 715.2 548.8C724.8 547.2 732.8 547.2 740.8 547.2C793.6 547.2 843.2 568 880 606.4C916.8 643.2 936 691.2 936 742.4C937.6 849.6 849.6 937.6 740.8 937.6ZM782.4 580.8H704V780.8H864V702.4H782.4V580.8Z" fill="black"/>
</svg>
