<svg width="1024" height="1024" viewBox="0 0 1024 1024" fill="none" xmlns="http://www.w3.org/2000/svg">
<path d="M203.134 465.497C222.503 476.912 248.889 485.708 281.357 491.883C296.702 494.69 312.421 496.749 328.608 498.152C328.515 495.439 328.234 492.819 328.234 490.105C328.234 468.211 332.444 447.345 339.836 428.07C315.041 426.012 290.901 422.737 268.164 417.965C230.363 410.947 199.579 398.596 174.971 382.784V430.222C174.971 442.573 183.766 453.988 203.134 465.403V465.497Z" fill="black"/>
<path d="M268.164 525.287C230.363 517.333 199.579 505.076 174.971 490.105V537.544C174.971 549.895 183.766 561.31 203.134 572.725C222.503 584.14 248.889 592.936 281.357 599.111C310.643 604.538 341.333 607.064 374.456 607.626C355.649 587.322 341.614 562.433 334.316 534.83C311.672 532.772 289.591 529.591 268.164 525.193V525.287Z" fill="black"/>
<path d="M594.246 343.953C599.672 337.684 602.292 331.134 602.292 324.023V276.585C580.304 292.398 551.298 303.813 512.655 311.766C475.696 319.719 433.497 324.117 390.456 324.117C347.415 324.117 306.901 319.719 268.257 311.766C230.456 303.813 199.672 293.333 175.064 276.585V324.023C175.064 337.216 183.86 347.789 203.228 359.205C222.596 370.62 248.982 379.415 281.45 385.591C305.684 390.082 330.947 392.608 357.708 393.731C388.772 347.415 441.637 317.006 501.614 317.006C535.766 317.006 567.485 327.018 594.339 344.047L594.246 343.953Z" fill="black"/>
<path d="M204.819 252.725C224.187 264.14 250.573 272.936 283.041 279.111C316.444 285.287 351.626 287.906 390.269 287.906C428.912 287.906 464.094 285.287 498.433 279.111C531.836 272.094 557.38 264.14 576.655 252.725C596.023 242.152 604.819 230.737 604.819 217.544V182.363C604.819 181.427 604.819 180.491 604.632 179.556C603.415 167.673 594.62 157.754 576.655 147.181C557.286 135.766 530.901 126.971 498.433 120.795C465.029 114.62 429.848 112 391.205 112C352.561 112 316.444 114.62 283.977 120.795C251.415 126.971 224.187 136.608 204.819 147.181C186.947 157.099 178.058 167.579 176.842 179.649C176.842 180.585 176.655 181.52 176.655 182.456V217.637C176.655 230.83 185.45 241.404 204.819 252.819V252.725Z" fill="black"/>
<path d="M447.064 769.591C466.433 781.006 492.819 789.801 525.286 795.977C558.69 802.152 593.871 804.772 632.515 804.772C671.158 804.772 706.339 802.152 738.901 795.977C772.304 788.959 797.848 781.006 817.123 769.591C836.491 759.018 845.286 747.602 845.286 734.409V686.971C823.298 702.784 794.292 714.199 755.649 722.152C718.69 730.105 675.649 734.503 633.45 734.503C591.251 734.503 549.895 730.105 512.093 722.152C474.292 715.134 443.509 702.784 418.901 686.971V734.409C418.901 746.76 427.696 758.175 447.064 769.591Z" fill="black"/>
<path d="M634.292 841.731C591.251 841.731 550.737 837.333 512.093 829.38C474.292 821.427 443.509 809.17 418.901 794.199V841.637C418.901 853.988 427.696 865.404 447.064 876.819C466.433 888.234 492.819 897.029 525.286 903.205C558.69 909.38 593.871 912 632.515 912C671.158 912 707.275 909.38 739.743 903.205C773.146 896.187 798.69 888.234 817.965 876.819C837.333 866.246 846.129 854.83 846.129 841.637V794.199C824.14 810.012 795.134 821.427 756.491 829.38C719.532 837.333 677.333 841.731 634.292 841.731Z" fill="black"/>
<path d="M634.292 628.117C625.029 628.117 615.953 627.836 606.971 627.462C577.778 650.012 541.193 663.485 501.52 663.485C474.105 663.485 448.281 656.936 425.17 645.614C429.754 651.602 436.959 657.403 447.064 663.392C466.433 674.807 492.819 683.602 525.286 689.778C558.69 695.953 593.871 698.573 632.515 698.573C671.158 698.573 707.275 695.953 739.743 689.778C773.146 682.76 798.69 674.807 817.965 663.392C837.333 652.819 846.129 641.403 846.129 628.211V580.772C824.14 596.585 795.134 608 756.491 615.953C719.532 623.906 677.333 628.304 634.292 628.304V628.117Z" fill="black"/>
<path d="M848.748 483.743C847.532 471.86 838.737 461.941 820.772 451.368C801.403 439.953 775.017 431.158 742.55 424.982C715.883 420.117 688.094 417.497 658.339 416.561C668.819 438.924 674.901 463.813 674.901 490.105C674.901 528.187 662.456 563.275 641.684 591.813C677.52 591.532 710.456 588.912 742.643 583.111C776.047 576.094 801.591 568.14 820.865 556.725C840.234 546.152 849.029 534.737 849.029 521.544V486.363C849.029 485.427 849.029 484.491 848.842 483.556L848.748 483.743Z" fill="black"/>
<path d="M438.737 526.877L538.386 526.503L538.012 426.854L495.532 384.749L495.813 455.018L412.632 372.398L383.345 401.965L466.526 484.491L396.257 484.772L438.737 526.877Z" fill="black"/>
<path d="M507.883 570.573V612.117C568.795 612.117 622.316 558.69 622.316 497.684H580.772C580.772 535.766 546.058 570.573 507.883 570.573Z" fill="black"/>
</svg>
