<?xml version="1.0" encoding="UTF-8"?>
<svg xmlns="http://www.w3.org/2000/svg" version="1.1" viewBox="0 0 1024 1024">
  <!-- Generator: Adobe Illustrator 28.6.0, SVG Export Plug-In . SVG Version: 1.2.0 Build 709)  -->
  <g>
    <g id="Layer_1">
      <g>
        <path d="M903.1,746.5h0c11.5-17.5,9.3-34.5,7.2-42.7-2.8-10.4-8.4-19.1-16.2-25.3,3.7-6.1,6.1-12.6,7.2-19.9,2.2-15.3-2.9-30.6-14.4-43.1-9-9.7-21.6-15-35.7-15s-1.3,0-2,0c10.5-33.2,16.2-68.5,16.2-105.1,0-193.6-157.9-350.5-352.6-350.5S160.2,302,160.2,495.5s5.7,72,16.2,105.2c-1.2,0-2.4-.2-3.5-.2-14,0-26.7,5.3-35.7,15-11.5,12.5-16.6,27.8-14.4,43.1,1.1,7.3,3.5,13.8,7.2,19.9-7.7,6.2-13.4,14.9-16.2,25.3-2.2,8.2-4.4,25.1,7.2,42.7-.7,1.1-1.4,2.3-2.1,3.5-6.9,13.1-7.4,27.8-1.3,41.6,9.3,20.9,32.3,37.3,77.1,54.9,27.8,11,53.3,18,53.6,18,36.8,9.5,70.1,14.3,98.9,14.3,47.2,0,82.5-12.8,105-38.2,19.7,3.4,39.9,5.2,60.6,5.2s40-1.7,59.2-5c22.6,25.2,57.7,37.9,104.8,37.9s62.1-4.8,98.9-14.3c.2,0,25.7-7.1,53.6-18,44.8-17.6,67.8-34.1,77.1-54.9,6.1-13.8,5.7-28.5-1.3-41.6-.6-1.2-1.3-2.4-2.1-3.5ZM436.4,800.5c-1.9,3.3-4,6.7-6.4,10.2-6,8.8-14.1,14.9-23.4,19.1-16.9,7.6-38,8.9-59.5,8.9-34.6,0-70.1-6.1-89.9-11.2-1-.3-121.7-31.9-106.4-60.8,2.6-4.9,6.8-6.8,12.1-6.8,21.5,0,60.7,31.9,77.6,31.9s6.6-2.9,7.7-6.8c7.5-26.8-109.3-35-99.5-72.1,1.7-6.6,6.4-9.2,13-9.2,28.5,0,92.3,49.7,105.7,49.7s1.8-.3,2.2-.9c.4-.7.9-1.4,1.2-2.2,4.6-9.3-.2-18.2-37.6-41.4-2.3-1.4-4.7-2.9-7.2-4.4-47.3-28.4-81-44.3-62.2-64.7,2.2-2.4,5.2-3.4,9-3.4,5.4,0,12.2,2.2,19.7,5.7,32.2,15.2,76.8,55.6,76.8,55.6,0,0,3.3,3.4,8,7.4,6.3,5.3,15,11.5,21.3,11.5s4.7-1,6.2-3.5c7.8-13.1-72.9-73.9-77.4-99-3.1-17,2.2-25.6,11.9-25.6s10.3,1.9,16.5,5.9c19.3,12.2,56.6,75.8,70.2,100.6,4.6,8.3,12.4,11.8,19.4,11.8,14,0,24.9-13.8,1.3-31.3-35.5-26.4-23-69.5-6.1-72.1.7-.1,1.5-.2,2.2-.2,15.4,0,22.2,26.4,22.2,26.4,0,0,19.9,49.6,54.1,83.6,30.9,30.7,35.3,55.9,17.5,87.3ZM550.7,807.5c-12.4,1.5-25.1,2.3-37.9,2.3h0c-13.3,0-26.5-.8-39.4-2.4,19.1-42.1,9.5-81.4-28.9-119.6-25.2-25-41.9-61.8-45.4-69.9-7-23.9-25.6-50.6-56.5-50.6s-5.2.2-7.8.6c-13.5,2.1-25.3,9.9-33.8,21.5-9.1-11.3-18-20.2-26-25.3-12.1-7.6-24.1-11.5-35.9-11.5s-25.5,5-34.5,14.2c-5.4-22.9-8.2-46.9-8.2-71.4,0-173.6,141.6-314.3,316.2-314.3s316.2,140.7,316.2,314.3-3,49.4-8.5,72.7c-9.1-10-21.7-15.5-35.7-15.5s-23.8,3.9-35.9,11.5c-8,5.1-16.9,14-26,25.3-8.4-11.6-20.3-19.4-33.8-21.5-2.6-.4-5.2-.6-7.8-.6-30.9,0-49.5,26.6-56.5,50.6-3.5,8.1-20.2,44.9-45.4,69.9-38.4,38.2-48,77.5-28.8,119.7ZM775.8,785.1h0c1.1,3.9,3.9,6.8,7.7,6.8,16.8,0,56-31.9,77.6-31.9s9.6,1.9,12.1,6.8c15.3,28.9-105.4,60.5-106.4,60.8-19.9,5.1-55.4,11.2-89.9,11.2s-42.1-1.3-58.8-8.6c-9.6-4.2-17.8-10.3-24-19.4-2.3-3.4-4.4-6.7-6.2-9.9-18.1-31.5-13.7-56.8,17.3-87.6,34.2-33.9,54.1-83.6,54.1-83.6,0,0,6.8-26.4,22.2-26.4s1.4,0,2.2.2c16.9,2.6,29.4,45.7-6.1,72.1-23.6,17.5-12.7,31.3,1.3,31.3s14.8-3.5,19.4-11.8c13.6-24.8,50.9-88.4,70.2-100.6,6.2-3.9,11.9-5.9,16.5-5.9,9.7,0,15,8.6,11.9,25.6-4.6,25.1-85.3,85.9-77.4,99,1.5,2.5,3.6,3.5,6.2,3.5,10.9,0,28.7-18.2,29.3-18.9h0s46.5-42.1,78.8-56.5c6.7-3,12.8-4.8,17.7-4.8s6.8,1,9,3.4c18.9,20.4-14.9,36.3-62.2,64.7-1.5.9-2.9,1.8-4.3,2.6-41.5,25.4-45.6,34.2-40.1,44.2.2.4.4.8.7,1.2.4.6,1.1.9,2.1.9,13.4,0,77.2-49.7,105.7-49.7s11.3,2.6,13,9.2c9.8,37.1-107,45.3-99.5,72.1Z"/>
        <path d="M631.9,507.8c0-40.7-52.8,21.3-118.1,21.6-65.3-.3-118.1-62.3-118.1-21.6s12.9,70.9,47.6,97.5c6.9-23.7,44.8-42.8,50.2-40,7.7,3.9,7.3,14.7,20.2,24.2,13-9.5,12.5-20.3,20.2-24.2,5.4-2.7,43.3,16.3,50.2,40,34.7-26.6,47.6-70.5,47.6-97.5Z"/>
        <path d="M724.3,451.2c16.2,0,29.2-13.1,29.2-29.2s-13.1-29.2-29.2-29.2-29.2,13.1-29.2,29.2,13.1,29.2,29.2,29.2Z"/>
        <path d="M302.9,392.7c-16.2,0-29.2,13.1-29.2,29.2s13.1,29.2,29.2,29.2,29.2-13.1,29.2-29.2-13.1-29.2-29.2-29.2Z"/>
        <path d="M621.2,409.2c11.6,4.1,16.2,27.8,27.9,21.6,22.2-11.7,30.6-39.2,18.8-61.3-11.8-22.1-39.3-30.5-61.5-18.7-22.2,11.7-30.6,39.2-18.8,61.3,5.6,10.4,23.2-6.5,33.6-2.9Z"/>
        <path d="M407.1,409.2c10.4-3.6,28,13.3,33.6,2.9,11.8-22.1,3.4-49.6-18.8-61.3s-49.7-3.4-61.5,18.7c-11.8,22.1-3.4,49.6,18.8,61.3,11.7,6.2,16.3-17.6,27.9-21.6Z"/>
      </g>
    </g>
  </g>
</svg>