<svg width="1024" height="1024" viewBox="0 0 1024 1024" fill="none" xmlns="http://www.w3.org/2000/svg">
<path d="M903.104 746.505C914.629 728.995 912.427 712.018 910.277 703.847C907.525 693.441 901.831 684.789 894.108 678.579C897.772 672.525 900.232 665.988 901.281 658.695C903.5 643.369 898.391 628.078 886.884 615.607C877.922 605.906 865.245 600.557 851.227 600.557C850.573 600.557 849.902 600.608 849.249 600.643C859.741 567.445 865.4 532.132 865.4 495.512C865.383 301.952 707.515 145.047 512.768 145.047C318.021 145.047 160.153 301.952 160.153 495.512C160.153 532.167 165.829 567.497 176.322 600.712C175.117 600.626 173.931 600.557 172.778 600.557C158.742 600.557 146.083 605.906 137.121 615.607C125.614 628.061 120.488 643.369 122.724 658.695C123.79 665.988 126.233 672.525 129.897 678.579C122.174 684.789 116.48 693.441 113.728 703.847C111.578 712 109.359 728.995 120.901 746.505C120.161 747.64 119.473 748.827 118.837 750.048C111.905 763.121 111.458 777.896 117.581 791.674C126.852 812.539 149.918 828.965 194.675 846.596C222.523 857.57 247.997 864.588 248.238 864.64C285.065 874.134 318.348 878.951 347.176 878.951C394.41 878.951 429.637 866.102 452.204 840.799C471.882 844.188 492.127 845.977 512.785 845.977C533.443 845.977 552.742 844.274 572.007 841.023C594.575 866.188 629.75 878.951 676.846 878.951C705.674 878.951 738.975 874.134 775.784 864.64C776.008 864.571 801.482 857.57 829.347 846.596C874.121 828.948 897.17 812.521 906.441 791.674C912.565 777.914 912.117 763.138 905.185 750.048C904.549 748.827 903.861 747.64 903.121 746.505H903.104ZM347.159 838.735C312.603 838.735 277.101 832.681 257.234 827.555C256.253 827.297 135.556 795.665 150.847 766.802C153.41 761.951 157.659 760.008 162.991 760.008C184.526 760.008 223.71 791.863 240.566 791.863C244.333 791.863 247.137 788.974 248.221 785.086C255.72 758.27 138.944 750.048 148.749 712.981C150.486 706.427 155.165 703.761 161.753 703.778C190.22 703.778 254.086 753.523 267.468 753.523C268.483 753.523 269.223 753.23 269.618 752.594C270.066 751.872 270.478 751.149 270.822 750.427C275.415 741.121 270.616 732.228 233.187 709.059C230.882 707.631 228.491 706.169 225.946 704.638C178.678 676.206 144.913 660.346 163.782 639.929C165.949 637.573 169.028 636.524 172.778 636.524C178.196 636.524 185.008 638.708 192.49 642.269C224.656 657.508 269.274 697.861 269.274 697.861C269.274 697.861 272.611 701.301 277.29 705.258C283.585 710.555 292.289 716.782 298.636 716.782C301.182 716.782 303.349 715.784 304.811 713.325C312.655 700.183 231.932 639.379 227.373 614.283C224.294 597.289 229.541 588.671 239.242 588.671C243.852 588.671 249.493 590.615 255.72 594.537C275.019 606.715 312.276 670.34 325.916 695.092C330.492 703.383 338.301 706.892 345.336 706.892C359.286 706.892 370.191 693.097 346.609 675.586C311.158 649.218 323.594 606.13 340.52 603.481C341.259 603.36 341.999 603.309 342.704 603.309C358.099 603.309 364.876 629.66 364.876 629.66C364.876 629.66 384.777 679.302 418.938 713.256C449.83 743.942 454.234 769.158 436.397 800.55C434.505 803.869 432.372 807.275 429.981 810.75C423.943 819.557 415.928 825.628 406.622 829.808C389.748 837.394 368.626 838.735 347.142 838.735H347.159ZM512.768 809.804C499.437 809.804 486.313 808.978 473.413 807.378C492.488 765.254 482.925 725.933 444.55 687.816C419.385 662.823 402.666 625.979 399.174 617.895C392.156 593.952 373.58 567.342 342.704 567.342C340.107 567.342 337.475 567.549 334.895 567.961C321.375 570.077 309.558 577.817 301.113 589.445C291.996 578.179 283.155 569.217 275.14 564.177C263.065 556.574 251.007 552.704 239.276 552.704C225.842 552.704 213.733 557.744 204.772 566.929C199.405 543.984 196.567 520.075 196.567 495.512C196.567 321.939 338.146 181.22 512.785 181.22C687.424 181.22 829.003 321.939 829.003 495.512C829.003 520.556 826.045 544.895 820.472 568.237C811.407 558.209 798.799 552.704 784.729 552.704C772.998 552.704 760.94 556.557 748.865 564.177C740.85 569.234 732.008 578.196 722.892 589.445C714.447 577.8 702.63 570.077 689.11 567.961C686.513 567.549 683.898 567.342 681.301 567.342C650.425 567.342 631.849 593.952 624.831 617.895C621.339 625.979 604.62 662.823 579.455 687.816C541.029 725.985 531.499 765.34 550.678 807.55C538.259 809.03 525.617 809.804 512.802 809.804H512.768ZM775.767 785.103C776.851 788.991 779.654 791.881 783.421 791.881C800.261 791.881 839.444 760.025 860.997 760.025C866.329 760.025 870.56 761.969 873.141 766.819C888.432 795.682 767.734 827.314 766.754 827.572C746.904 832.698 711.402 838.753 676.828 838.753C655.62 838.753 634.755 837.428 618.002 830.118C608.421 825.921 600.165 819.78 593.99 810.767C591.685 807.396 589.604 804.11 587.763 800.894C569.702 769.365 574.02 744.08 605.033 713.273C639.211 679.336 659.095 629.678 659.095 629.678C659.095 629.678 665.889 603.326 681.266 603.326C681.971 603.326 682.711 603.378 683.451 603.498C700.376 606.147 712.812 649.235 677.362 675.604C653.78 693.131 664.685 706.909 678.635 706.909C685.67 706.909 693.479 703.4 698.054 695.109C711.694 670.357 748.951 606.715 768.25 594.554C774.46 590.632 780.102 588.688 784.729 588.688C794.447 588.688 799.693 597.289 796.597 614.3C792.039 639.379 711.316 700.183 719.159 713.342C720.622 715.802 722.789 716.799 725.335 716.799C736.205 716.799 754.025 698.584 754.679 697.913L754.713 697.879C754.713 697.879 801.207 655.84 833.493 641.374C840.201 638.364 846.29 636.558 851.227 636.558C854.959 636.558 858.038 637.607 860.206 639.964C879.075 660.381 845.31 676.24 798.042 704.673C796.58 705.55 795.152 706.427 793.759 707.27C752.254 732.641 748.16 741.517 753.681 751.424C753.905 751.82 754.129 752.216 754.387 752.628C754.782 753.265 755.522 753.557 756.537 753.557C769.919 753.557 833.785 703.813 862.252 703.813C868.84 703.813 873.536 706.462 875.256 713.015C885.061 750.083 768.285 758.305 775.784 785.121L775.767 785.103Z" fill="black"/>
<path d="M631.935 507.81C631.935 467.096 579.146 529.139 513.869 529.414C448.609 529.139 395.803 467.096 395.803 507.81C395.803 534.798 408.721 578.695 443.397 605.321C450.295 581.584 488.222 562.56 493.641 565.295C501.364 569.183 500.934 579.967 513.869 589.462C526.821 579.967 526.374 569.183 534.097 565.295C539.515 562.56 577.443 581.584 584.34 605.321C619.017 578.695 631.935 534.798 631.935 507.81Z" fill="black"/>
<path d="M724.337 451.22C740.488 451.22 753.578 438.13 753.578 421.979C753.578 405.827 740.488 392.737 724.337 392.737C708.185 392.737 695.096 405.827 695.096 421.979C695.096 438.13 708.185 451.22 724.337 451.22Z" fill="black"/>
<path d="M302.919 451.22C319.07 451.22 332.16 438.13 332.16 421.979C332.16 405.827 319.07 392.737 302.919 392.737C286.767 392.737 273.678 405.827 273.678 421.979C273.678 438.13 286.767 451.22 302.919 451.22Z" fill="black"/>
<path d="M621.236 409.25C632.829 413.327 637.439 437.081 649.135 430.889C671.307 419.141 679.718 391.688 667.936 369.568C656.153 347.465 628.632 339.071 606.46 350.819C584.288 362.567 575.877 390.02 587.66 412.14C593.216 422.581 610.881 405.604 621.236 409.25Z" fill="black"/>
<path d="M407.069 409.25C395.476 413.327 390.866 437.081 379.17 430.889C356.998 419.141 348.587 391.688 360.369 369.568C372.152 347.448 399.673 339.071 421.845 350.819C444.017 362.567 452.428 390.02 440.645 412.14C435.089 422.581 417.424 405.604 407.069 409.25Z" fill="black"/>
</svg>
