<svg width="1024" height="1024" viewBox="0 0 1024 1024" fill="none" xmlns="http://www.w3.org/2000/svg">
<path d="M316.798 675.2C305.598 664 299.198 648 299.198 632H129.598V516.8H407.998C423.998 472 449.598 432 484.798 396.8C548.798 332.8 628.798 299.2 719.998 299.2C732.798 299.2 745.598 299.2 756.798 300.8L740.798 289.6L711.998 270.4H246.398L215.998 296L73.5984 409.6L30.3984 443.2V736H377.598L316.798 675.2ZM529.598 440C582.398 387.2 646.398 360 721.598 360C796.798 360 860.798 387.2 913.598 440C966.398 492.8 993.598 556.8 993.598 632C993.598 707.2 966.398 771.2 913.598 824C860.798 876.8 796.798 904 721.598 904C646.398 904 582.398 878.4 529.598 824L572.798 780.8C612.798 822.4 662.398 843.2 721.598 843.2C780.798 843.2 830.398 822.4 870.398 782.4C911.998 740.8 931.198 691.2 931.198 633.6C931.198 574.4 910.398 524.8 870.398 484.8C828.798 443.2 779.198 424 721.598 424C662.398 424 612.798 444.8 572.798 484.8C531.198 526.4 511.998 576 511.998 633.6H603.198L479.998 755.2L478.398 750.4L361.598 633.6H452.798C451.198 556.8 476.798 492.8 529.598 440ZM692.798 512H737.598V640L841.598 704L820.798 740.8L692.798 662.4V512Z" fill="black"/>
</svg>
