<svg width="1024" height="1024" viewBox="0 0 1024 1024" fill="none" xmlns="http://www.w3.org/2000/svg">
<path d="M343.994 117.76C391.747 108.932 446.694 103.883 502.821 103.883C506.294 103.883 509.763 103.902 513.227 103.941L512.699 103.936C515.378 103.908 518.544 103.892 521.713 103.892C578.135 103.892 633.379 108.937 687.018 118.601L681.386 117.759C727.479 125.185 768.87 139.684 806.474 160.243L804.453 159.231C834.866 177.219 848.707 193.808 848.707 214.544V338.141C848.707 358.877 834.866 376.848 804.453 393.437C768.858 412.572 727.526 427.033 683.825 434.577L681.385 434.926C632.713 443.743 576.694 448.785 519.497 448.785C516.614 448.785 513.735 448.772 510.858 448.747L511.298 448.75C508.619 448.778 505.453 448.794 502.284 448.794C445.862 448.794 390.618 443.749 336.979 434.085L342.611 434.927C296.517 427.505 255.126 412.999 217.527 392.428L219.543 393.438C189.13 375.467 175.289 358.878 175.289 338.142V214.613C175.289 193.877 189.13 175.906 219.543 159.3C255.541 140.429 297.307 125.975 341.364 118.147L343.993 117.76H343.994ZM322.421 486.161C379.886 498.468 445.905 505.515 513.571 505.515C513.942 505.515 514.313 505.515 514.684 505.514H514.626C515.544 505.517 516.63 505.519 517.718 505.519C584.673 505.519 649.981 498.469 712.941 485.072L706.832 486.161C760.16 477.202 807.701 457.787 849.181 430.022L847.871 430.848V573.798C847.871 594.534 834.047 612.505 803.617 629.111C768.022 648.232 726.69 662.686 682.993 670.234L680.549 670.583C632.802 679.411 577.86 684.46 521.739 684.46C518.267 684.46 514.799 684.441 511.335 684.402L511.862 684.407C509.179 684.435 506.009 684.451 502.836 684.451C446.412 684.451 391.167 679.406 337.527 669.742L343.158 670.583C297.065 663.154 255.674 648.655 218.069 628.099L220.091 629.111C189.678 611.123 175.837 594.534 175.837 573.798V430.848C217.863 457.316 267.184 476.67 320.004 485.815L322.422 486.161H322.421ZM322.421 721.681C379.462 733.987 444.993 741.035 512.17 741.035C512.547 741.035 512.924 741.035 513.301 741.034H513.243C513.958 741.036 514.805 741.037 515.652 741.037C582.842 741.037 648.391 734.013 711.606 720.66L705.448 721.749C758.782 712.793 806.329 693.378 847.814 665.611L846.504 666.436V809.386C846.504 830.122 832.68 848.093 802.25 864.699C766.677 883.835 725.372 898.311 681.7 905.888L679.251 906.24C631.908 915.068 577.437 920.117 521.787 920.117C518.345 920.117 514.908 920.098 511.475 920.059L511.997 920.064C509.314 920.092 506.144 920.108 502.971 920.108C446.547 920.108 391.302 915.063 337.662 905.399L343.293 906.24C297.2 898.811 255.809 884.312 218.204 863.756L220.226 864.768C189.813 846.78 175.972 828.809 175.972 809.455V666.436C217.998 692.904 267.319 712.258 320.139 721.403L322.557 721.749L322.421 721.681Z" fill="black"/>
</svg>
