<svg width="1024" height="1024" viewBox="0 0 1024 1024" fill="none" xmlns="http://www.w3.org/2000/svg">
<path d="M512 112.64C732.56 112.64 911.36 291.44 911.36 512C911.36 732.56 732.56 911.36 512 911.36C291.44 911.36 112.64 732.56 112.64 512C112.64 291.44 291.44 112.64 512 112.64ZM512 34.1328C248.082 34.1328 34.1328 248.081 34.1328 512C34.1328 775.919 248.081 989.867 512 989.867C775.918 989.867 989.867 775.919 989.867 512C989.867 248.082 775.919 34.1328 512 34.1328ZM640 653.653L609.28 831.146H544.427L529.067 827.733L517.12 817.493C513.375 813.194 510.453 808.067 508.669 802.435L508.586 802.133C506.421 797.418 505.159 791.903 505.159 786.093C505.159 785.732 505.164 785.372 505.174 785.013L505.173 785.066V779.946C505.157 779.773 505.149 779.572 505.149 779.369C505.149 777.621 505.806 776.027 506.886 774.819L506.88 774.826L527.36 653.653H452.267L431.787 783.36C430.914 791.61 428.488 799.127 424.804 805.858L424.96 805.547C421.185 811.942 415.995 817.132 409.798 820.799L409.6 820.907L390.827 829.44H307.2L339.627 651.947H298.667C297.803 652.025 296.797 652.069 295.782 652.069C287.044 652.069 279.072 648.785 273.034 643.385L273.067 643.414C266.618 636.935 262.632 628 262.632 618.134C262.632 616.819 262.703 615.521 262.841 614.242L262.827 614.4V609.28C262.827 607.573 264.534 602.453 264.534 599.04L271.361 556.373H349.868L368.641 450.56H281.601L293.548 394.24C295.551 381.887 301.725 371.244 310.552 363.573L310.615 363.52C321.657 357.012 334.942 353.167 349.125 353.167C350.587 353.167 352.04 353.208 353.482 353.289L353.282 353.28H384.002L407.895 221.867C410.14 207.837 417.626 195.876 428.243 187.83L428.375 187.734C439.168 180.254 452.542 175.784 466.96 175.784C467.195 175.784 467.43 175.785 467.665 175.788H529.069L498.349 351.575H573.442L604.162 175.788H665.602C666.033 175.774 666.539 175.765 667.048 175.765C678.994 175.765 689.879 180.311 698.066 187.767L698.029 187.734C705.376 194.033 710.002 203.324 710.002 213.696C710.002 214.169 709.992 214.64 709.973 215.108L709.975 215.041V221.868L686.082 351.575H773.122L761.175 407.895C759.497 420.342 753.242 431.08 744.19 438.55L744.109 438.615C733.067 445.123 719.782 448.968 705.599 448.968C704.137 448.968 702.684 448.927 701.242 448.846L701.442 448.855H674.135L655.362 554.668H703.149C704.013 554.59 705.019 554.546 706.034 554.546C714.772 554.546 722.744 557.83 728.782 563.23L728.749 563.201C735.198 569.68 739.184 578.615 739.184 588.481C739.184 589.796 739.113 591.094 738.975 592.373L738.989 592.215V600.748C738.989 602.455 737.282 607.575 737.282 610.988L727.042 655.361H640.002L640 653.653ZM465.92 558.08H541.013L559.786 452.267H482.986L465.92 558.08Z" fill="black"/>
</svg>
