<svg width="1024" height="1024" viewBox="0 0 1024 1024" fill="none" xmlns="http://www.w3.org/2000/svg">
<path d="M172.8 728C203.2 745.6 243.2 758.4 296 769.6C347.2 779.2 403.2 784 464 784C524.8 784 580.8 779.2 633.6 769.6C684.8 760 726.4 745.6 756.8 728C787.2 710.4 801.6 691.2 801.6 672V664C796.8 665.6 792 665.6 787.2 665.6H624C617.6 665.6 611.2 664 604.8 662.4C560 668.8 513.6 672 464 672C395.2 672 329.6 665.6 270.4 652.8C209.6 640 163.2 622.4 128 596.8V672C126.4 692.8 142.4 712 172.8 728ZM172.8 560C203.2 577.6 243.2 590.4 296 601.6C347.2 611.2 404.8 616 465.6 616C499.2 616 531.2 614.4 563.2 611.2C563.2 608 561.6 604.8 561.6 601.6V502.4H518.4C516.8 502.4 516.8 502.4 515.2 502.4C499.2 502.4 483.2 504 467.2 504C398.4 504 332.8 497.6 273.6 484.8C212.8 472 166.4 454.4 131.2 428.8V504C126.4 524.8 142.4 542.4 172.8 560ZM172.8 897.6C203.2 915.2 243.2 928 296 939.2C347.2 948.8 404.8 953.6 465.6 953.6C526.4 953.6 582.4 948.8 635.2 939.2C686.4 929.6 728 915.2 758.4 897.6C788.8 880 803.2 860.8 803.2 841.6V766.4C768 790.4 721.6 809.6 660.8 822.4C600 835.2 536 841.6 467.2 841.6C398.4 841.6 332.8 835.2 273.6 822.4C212.8 809.6 166.4 792 131.2 766.4V841.6C126.4 860.8 142.4 880 172.8 897.6ZM172.8 392C203.2 409.6 243.2 422.4 296 433.6C344 443.2 396.8 448 452.8 448C449.6 428.8 456 408 470.4 395.2L577.6 286.4H515.2C480 286.4 451.2 257.6 451.2 222.4V168C395.2 168 342.4 172.8 294.4 182.4C243.2 192 201.6 206.4 171.2 224C140.8 241.6 126.4 259.2 126.4 280V336C126.4 355.2 142.4 374.4 172.8 392ZM896 222.4V166.4H515.2V222.4H753.6H896ZM624 601.6H787.2V438.4H894.4L704 248L515.2 438.4H624V491.2V601.6Z" fill="black"/>
</svg>
