<svg width="1024" height="1024" viewBox="0 0 1024 1024" fill="none" xmlns="http://www.w3.org/2000/svg">
<path d="M391.752 301.542L355.974 359.678L402.482 388.301L438.261 330.165L391.752 301.542Z" fill="black"/>
<path d="M461.376 344.371L425.597 402.507L472.106 431.13L507.885 372.994L461.376 344.371Z" fill="black"/>
<path d="M472.747 621.227L322.561 337.92L332.801 344.747L368.641 285.014L354.987 276.48H677.547C680.961 286.72 687.787 295.254 694.614 303.787L645.121 402.774C641.707 402.774 638.294 401.067 634.881 401.067C612.694 401.067 592.214 407.894 575.147 423.254L581.974 413.014L535.894 384L496.641 443.734L542.721 472.747L544.427 469.334C542.721 477.867 541.014 484.694 541.014 493.227C541.014 498.347 541.014 505.174 542.721 510.294C590.507 469.334 653.654 450.56 716.801 459.094C713.387 450.56 709.974 442.027 703.147 435.2L756.054 331.094H759.467C808.961 329.387 848.214 286.72 846.507 235.52C844.801 187.734 807.254 150.187 759.467 148.48C721.921 148.48 689.494 170.667 675.841 204.8H315.734C302.081 170.667 267.947 148.48 232.107 148.48C182.614 146.774 139.947 186.027 136.534 235.52C134.827 285.014 174.081 327.68 223.574 331.094C226.987 331.094 228.694 331.094 232.107 331.094H240.641L433.494 687.787C419.841 703.147 413.014 723.627 414.721 744.107C414.721 793.6 455.681 834.56 505.174 834.56C510.294 834.56 513.707 834.56 518.827 832.854C465.921 778.24 448.854 696.32 472.747 621.227Z" fill="black"/>
<path d="M754.347 621.227V563.2C754.347 530.774 728.747 505.174 698.027 505.174C665.601 505.174 640.001 530.774 640.001 561.494V619.52C640.001 629.76 631.467 638.294 621.227 638.294H604.161C587.094 638.294 573.441 651.947 573.441 669.014V691.2L819.201 692.907V670.72C819.201 653.654 805.547 640 788.481 640H771.414C762.881 640 754.347 631.467 754.347 621.227ZM692.907 544.427C704.854 541.014 715.094 552.96 713.387 564.907C711.681 570.027 706.561 575.147 701.441 576.854C689.494 580.267 679.254 568.32 680.961 556.374C682.667 549.547 687.787 544.427 692.907 544.427Z" fill="black"/>
<path d="M819.201 711.68L573.441 709.974L551.254 844.8C551.254 855.04 559.787 863.574 570.027 863.574C592.214 863.574 650.241 863.574 670.721 863.574C686.081 863.574 703.147 863.574 718.507 863.574V800.427C718.507 793.6 723.627 786.774 732.161 786.774C740.694 786.774 745.814 791.894 745.814 800.427V863.574C752.641 863.574 759.467 863.574 768.001 863.574V837.974C768.001 831.147 773.121 824.32 781.654 824.32C790.187 824.32 795.307 829.44 795.307 837.974V863.574C817.494 863.574 802.134 863.574 824.321 863.574C834.561 863.574 843.094 855.04 843.094 844.8L819.201 711.68Z" fill="black"/>
</svg>
