<svg width="1024" height="1024" viewBox="0 0 1024 1024" fill="none" xmlns="http://www.w3.org/2000/svg">
<path d="M329.4 345.834L370.386 279.135L423.745 312.001L382.759 378.7L329.4 345.834Z" fill="black"/>
<path d="M408.858 394.746L449.844 328.047L503.203 360.913L462.217 427.612L408.858 394.746Z" fill="black"/>
<path d="M790.105 111.904C746.219 111.904 710.26 138.584 694.6 176.09H284.547C268.887 138.584 232.928 111.904 189.042 111.904C132.59 111.904 85.6104 158.884 85.6104 215.336C85.6104 271.788 132.59 318.768 189.042 318.768H198.515L392.619 677.008L449.844 620.169L290.927 321.861L303.493 329.594L344.286 262.315L328.626 252.842H694.987C699.627 263.862 706.007 274.688 715.287 284.161L658.834 396.873C654.194 396.873 651.101 395.326 646.268 395.326C619.588 395.326 596.195 404.799 578.989 420.459L586.722 409.439L533.556 376.573L489.67 445.399L542.836 478.265L544.383 475.172C542.836 482.905 541.289 492.378 541.289 501.851C541.289 558.303 588.269 605.283 644.721 605.283C701.173 605.283 748.153 558.303 748.153 501.851C748.153 478.458 740.419 454.872 726.306 437.666L785.852 318.768H790.492C846.944 318.768 893.924 271.788 893.924 215.336C893.924 158.884 846.944 111.904 790.492 111.904H790.105Z" fill="black"/>
<path d="M389.719 775.027L518.09 647.429V721.861L462.217 779.667L518.09 837.472V911.904L389.719 785.273V774.833V775.027Z" fill="black"/>
<path d="M938.39 784.5L810.018 912.098V837.666L865.891 779.86L810.018 722.054V647.622L938.39 775.22V785.66V784.5Z" fill="black"/>
<path d="M582.469 708.908H743.899V757.627H582.469V708.908ZM582.469 804.413H743.899V852.359H582.469V804.413Z" fill="black"/>
</svg>
