<svg width="1024" height="1024" viewBox="0 0 1024 1024" fill="none" xmlns="http://www.w3.org/2000/svg">
<path d="M497.191 370.245L551.693 336.696L593.629 404.824L539.127 438.373L497.191 370.245ZM579.187 320.679L633.689 287.13L675.625 355.258L621.123 388.807L579.187 320.679ZM919.999 512H708.799L809.599 324.8C812.799 324.8 815.999 324.8 819.199 324.8C876.799 324.8 924.799 276.8 924.799 219.2C924.799 161.6 876.799 113.6 819.199 113.6C774.399 113.6 737.599 140.8 721.599 179.2H302.399C286.399 140.8 249.599 113.6 204.799 113.6C147.199 113.6 99.1992 161.6 99.1992 219.2C99.1992 276.8 147.199 324.8 204.799 324.8C206.399 324.8 207.999 324.8 209.599 324.8L270.399 446.4C255.999 464 247.999 486.4 247.999 512C247.999 569.6 295.999 617.6 353.599 617.6C411.199 617.6 459.199 569.6 459.199 512C459.199 502.4 457.599 494.4 455.999 484.8L457.599 488L511.999 454.4L470.399 385.6L415.999 420.8L423.999 432C404.799 416 380.799 406.4 355.199 406.4C350.399 406.4 347.199 406.4 342.399 408L284.799 292.8C292.799 283.2 300.799 273.6 305.599 260.8H679.999L663.999 270.4L705.599 339.2L718.399 331.2L617.599 512H532.799C516.799 512 503.999 516.8 492.799 528C481.599 539.2 476.799 552 476.799 568V702.4C430.399 713.6 395.199 755.2 395.199 804.8C395.199 854.4 430.399 896 476.799 907.2V955.2C476.799 971.2 481.599 984 492.799 995.2C503.999 1006.4 516.799 1011.2 532.799 1011.2H919.999C935.999 1011.2 948.799 1006.4 959.999 995.2C971.199 984 975.999 971.2 975.999 955.2V568C975.999 552 971.199 539.2 959.999 528C948.799 516.8 935.999 512 919.999 512ZM641.599 932.8H555.199V692.8H641.599V932.8ZM771.199 932.8H687.999V590.4H771.199V932.8ZM903.999 932.8H817.599V795.2H903.999V932.8Z" fill="black"/>
</svg>
