<svg width="1024" height="1024" viewBox="0 0 1024 1024" fill="none" xmlns="http://www.w3.org/2000/svg">
<path d="M225.18 309.051H234.212L443.245 695.779C429.788 712.184 422.415 733.198 422.415 756.977C422.415 810.802 467.208 855.594 521.033 855.594C574.857 855.594 619.65 810.802 619.65 756.977C619.65 703.152 574.857 658.359 521.033 658.359C516.609 658.359 512 658.359 507.576 659.834L322.139 312.184L334.12 319.742L373.014 255.594L358.083 246.562H707.576C712 257.069 718.083 267.392 726.931 276.424L673.106 383.889C668.682 383.889 665.549 382.415 661.125 382.415C635.687 382.415 613.383 391.447 596.977 406.378L604.535 395.871L553.844 364.535L512 430.157L562.692 461.493L564.166 458.544C562.692 466.101 561.217 474.949 561.217 483.982C561.217 537.806 606.01 582.599 659.834 582.599C713.659 582.599 758.452 537.806 758.452 483.982C758.452 461.493 750.894 439.189 737.622 422.783L794.397 309.235H798.821C852.646 309.235 897.438 264.442 897.438 210.618C897.438 156.793 852.646 112 798.821 112C756.977 112 722.692 137.438 707.761 173.198H316.24C301.309 137.438 267.023 112 225.18 112C171.355 112 126.562 156.793 126.562 210.618C126.562 264.442 171.355 309.235 225.18 309.235V309.051Z" fill="black"/>
<path d="M359.189 335.041L398.268 271.447L449.143 302.783L410.065 366.378L359.189 335.041Z" fill="black"/>
<path d="M434.765 381.862L473.844 318.267L524.719 349.604L485.641 413.198L434.765 381.862Z" fill="black"/>
<path d="M671.632 912L671.816 860.94L775.595 765.456L671.816 669.972V619.097H897.254V693.383H796.609L868.314 765.456L796.609 837.714H897.254V912H671.632Z" fill="black"/>
</svg>
