<svg width="1024" height="1024" viewBox="0 0 1024 1024" fill="none" xmlns="http://www.w3.org/2000/svg">
<path d="M348.399 370.181L390.335 302.053L444.837 335.602L402.901 403.73L348.399 370.181ZM429.461 420.245L471.397 352.117L525.899 385.666L483.963 453.794L429.461 420.245ZM774.399 508.8C771.199 491.2 763.199 475.2 753.599 462.4L814.399 340.8C815.999 340.8 817.599 340.8 819.199 340.8C876.799 340.8 924.799 292.8 924.799 235.2C924.799 177.6 876.799 129.6 819.199 129.6C774.399 129.6 737.599 156.8 721.599 195.2H302.399C286.399 156.8 249.599 129.6 204.799 129.6C147.199 129.6 99.1992 177.6 99.1992 235.2C99.1992 292.8 147.199 340.8 204.799 340.8C207.999 340.8 211.199 340.8 214.399 340.8L438.399 755.2C423.999 772.8 415.999 795.2 415.999 820.8C415.999 878.4 463.999 926.4 521.599 926.4C539.199 926.4 555.199 921.6 569.599 915.2C614.399 963.2 676.799 993.6 748.799 993.6C883.199 993.6 990.399 884.8 990.399 752C990.399 625.6 895.999 521.6 774.399 508.8ZM307.199 345.6L319.999 353.6L361.599 284.8L345.599 275.2H719.999C724.799 286.4 731.199 297.6 740.799 307.2L683.199 422.4C678.399 422.4 675.199 420.8 670.399 420.8C643.199 420.8 619.199 430.4 601.599 446.4L609.599 435.2L555.199 401.6L511.999 472L566.399 505.6L567.999 502.4C566.399 510.4 564.799 520 564.799 529.6C564.799 547.2 569.599 564.8 577.599 580.8C540.799 617.6 516.799 664 508.799 716.8C508.799 716.8 508.799 716.8 507.199 716.8L307.199 345.6ZM748.799 942.4C692.799 942.4 643.199 918.4 607.999 881.6C575.999 848 556.799 801.6 556.799 752C556.799 742.4 558.399 732.8 559.999 723.2C566.399 683.2 585.599 646.4 612.799 617.6C641.599 587.2 681.599 568 724.799 561.6V766.4L902.399 868.8C865.599 912 809.599 942.4 748.799 942.4ZM924.799 825.6L771.199 736V560C865.599 571.2 940.799 652.8 940.799 750.4C940.799 777.6 934.399 801.6 924.799 825.6Z" fill="black"/>
</svg>
