<svg width="1024" height="1024" viewBox="0 0 1024 1024" fill="none" xmlns="http://www.w3.org/2000/svg">
<path d="M348.403 370.2L390.339 302.072L444.841 335.62L402.905 403.748L348.403 370.2ZM429.471 420.266L471.407 352.138L525.909 385.686L483.973 453.814L429.471 420.266ZM756.015 467.616C755.167 466.448 754.511 465.104 753.599 464L814.399 342.4H819.199C877.52 342.4 924.799 295.121 924.799 236.8C924.799 178.479 877.52 131.2 819.199 131.2C819.145 131.2 819.082 131.2 819.018 131.2C775.204 131.2 737.65 158.001 721.855 196.103L721.599 196.8H302.399C286.348 158.001 248.794 131.2 204.98 131.2C204.916 131.2 204.853 131.2 204.789 131.2H204.799C146.478 131.2 99.1992 178.479 99.1992 236.8C99.1992 295.121 146.478 342.4 204.799 342.4H214.399L438.399 756.8C424.435 774.074 415.981 796.305 415.981 820.511C415.981 821.175 415.987 821.838 416 822.498L415.999 822.399C416.528 880.506 463.492 927.47 521.548 927.999H521.599C527.942 927.985 534.139 927.403 540.154 926.303L539.519 926.399C496.007 878.115 469.389 813.863 469.389 743.395C469.389 716.364 473.306 690.247 480.602 665.582L480.11 667.519L308.798 345.599L321.598 353.599L363.198 284.799L347.198 275.199H721.598C726.696 287.611 733.724 298.233 742.425 307.227L742.398 307.199L684.798 422.399C680.071 422.081 674.552 421.899 668.99 421.899C663.428 421.899 657.909 422.08 652.438 422.438L653.182 422.399C637.548 424.478 623.384 428.98 610.444 435.546L611.198 435.199L556.798 401.599L511.998 471.999L566.398 505.599C566.398 505.599 564.798 519.999 564.798 529.599C564.798 531.199 564.974 532.799 565.054 534.399C612.977 492.565 676.089 467.055 745.16 467.055C745.218 467.055 745.277 467.055 745.335 467.055H745.326C748.926 467.071 752.446 467.471 756.014 467.615L756.015 467.616Z" fill="black"/>
<path d="M591.094 561.99H934.627V611.476H591.094V561.99ZM591.094 807.986L761.784 635.861L933.909 807.986H835.655V955.009H688.631V807.986H591.094Z" fill="black"/>
</svg>
