<svg width="1024" height="1024" viewBox="0 0 1024 1024" fill="none" xmlns="http://www.w3.org/2000/svg">
<path d="M392.104 301.555L356.054 360.13L403.001 389.023L439.05 330.448L392.104 301.555Z" fill="black"/>
<path d="M462.049 344.612L426 403.187L472.946 432.08L508.996 373.505L462.049 344.612Z" fill="black"/>
<path d="M472.577 621.568L322.049 338.944L333.142 345.771L368.811 286.549L355.158 278.357H677.377C681.481 288.608 687.572 297.946 695.297 305.835L645.633 404.992C641.537 404.992 638.806 403.627 634.71 403.627C612.897 403.221 591.74 411.087 575.489 425.643L582.315 416.085L535.553 387.072L496.982 447.659L543.745 476.672L545.11 473.941C543.439 481.627 542.524 489.458 542.379 497.323C542.449 503.059 543.078 508.775 544.257 514.389C567.986 494.115 595.725 479.075 625.663 470.253C655.601 461.43 687.064 459.023 717.995 463.189C714.955 454.663 710.513 446.703 704.854 439.637L757.249 335.019H761.345C784.766 334.003 806.892 323.985 823.106 307.053C839.32 290.121 848.371 267.582 848.371 244.139C848.371 220.695 839.32 198.157 823.106 181.225C806.892 164.292 784.766 154.274 761.345 153.259C743.307 153.209 725.668 158.564 710.701 168.633C695.735 178.702 684.128 193.023 677.377 209.749H316.587C309.817 193.036 298.205 178.728 283.243 168.662C268.281 158.596 250.652 153.232 232.619 153.259C220.354 152.727 208.107 154.684 196.618 159.011C185.128 163.339 174.634 169.947 165.766 178.439C156.899 186.93 149.842 197.128 145.021 208.42C140.2 219.711 137.715 231.861 137.715 244.139C137.715 256.416 140.2 268.566 145.021 279.858C149.842 291.149 156.899 301.347 165.766 309.839C174.634 318.33 185.128 324.939 196.618 329.266C208.107 333.594 220.354 335.55 232.619 335.019H240.811L433.665 691.541C420.805 707.524 413.978 727.522 414.379 748.032C414.557 772.073 424.175 795.081 441.159 812.097C458.143 829.113 481.133 838.774 505.174 838.997C509.579 838.939 513.972 838.54 518.315 837.803C492.579 808.587 474.841 773.209 466.826 735.109C458.811 697.008 460.792 657.482 472.577 620.373V621.568Z" fill="black"/>
<path d="M778.07 705.195H707.073L778.07 563.2H600.918V758.272H653.995V918.869L778.07 705.195Z" fill="black"/>
</svg>
