<svg width="1024" height="1024" viewBox="0 0 1024 1024" fill="none" xmlns="http://www.w3.org/2000/svg">
<path d="M348.403 391.533L390.339 323.405L444.841 356.953L402.905 425.081L348.403 391.533ZM429.471 441.599L471.407 373.471L525.909 407.019L483.973 475.147L429.471 441.599ZM756.015 488.949C755.167 487.781 754.511 486.437 753.599 485.333L814.399 363.733H819.199C877.52 363.733 924.799 316.454 924.799 258.133C924.799 199.812 877.52 152.533 819.199 152.533C819.145 152.533 819.082 152.533 819.018 152.533C775.204 152.533 737.65 179.334 721.855 217.436L721.599 218.133H302.399C286.348 179.334 248.794 152.533 204.98 152.533C204.916 152.533 204.853 152.533 204.789 152.533H204.799C146.478 152.533 99.1992 199.812 99.1992 258.133C99.1992 316.454 146.478 363.733 204.799 363.733H214.399L438.399 778.133C424.435 795.407 415.981 817.638 415.981 841.844C415.981 842.508 415.987 843.171 416 843.831L415.999 843.732C416.528 901.839 463.492 948.803 521.548 949.332H521.599C527.942 949.318 534.139 948.736 540.154 947.636L539.519 947.732C496.007 899.448 469.389 835.196 469.389 764.728C469.389 737.697 473.306 711.58 480.602 686.915L480.11 688.852L308.798 366.932L321.598 374.932L363.198 306.132L347.198 296.532H721.598C726.696 308.944 733.724 319.566 742.425 328.56L742.398 328.532L684.798 443.732C680.071 443.414 674.552 443.232 668.99 443.232C663.428 443.232 657.909 443.413 652.438 443.771L653.182 443.732C637.548 445.811 623.384 450.313 610.444 456.879L611.198 456.532L556.798 422.932L511.998 493.332L566.398 526.932C566.398 526.932 564.798 541.332 564.798 550.932C564.798 552.532 564.974 554.132 565.054 555.732C612.977 513.898 676.089 488.388 745.16 488.388C745.218 488.388 745.277 488.388 745.335 488.388H745.326C748.926 488.404 752.446 488.804 756.014 488.948L756.015 488.949ZM744.751 520.325C744.746 520.325 744.741 520.325 744.735 520.325C609.942 520.325 500.671 629.596 500.671 764.389C500.671 899.182 609.942 1008.45 744.735 1008.45C879.528 1008.45 988.799 899.182 988.799 764.389C988.799 764.383 988.799 764.378 988.799 764.372C988.644 629.65 879.473 520.48 744.766 520.325H744.751ZM744.751 948.981C642.795 948.981 560.143 866.329 560.143 764.373C560.143 662.417 642.795 579.765 744.751 579.765C846.707 579.765 929.359 662.417 929.359 764.373C929.25 866.285 846.663 948.872 744.761 948.981H744.751ZM758.127 659.717H724.159V787.445L832.111 854.565L850.047 825.701L758.127 768.565V659.717Z" fill="black"/>
</svg>
