<svg width="1024" height="1024" viewBox="0 0 1024 1024" fill="none" xmlns="http://www.w3.org/2000/svg">
<path d="M204.799 342.4C207.999 342.4 211.199 342.4 214.399 342.4L438.399 756.8C423.999 774.4 415.999 796.8 415.999 822.4C415.999 880 463.999 928 521.599 928C579.199 928 627.199 880 627.199 822.4C627.199 764.8 579.199 716.8 521.599 716.8C516.799 716.8 511.999 716.8 507.199 718.4L308.799 345.6L321.599 353.6L363.199 284.8L347.199 275.2H721.599C726.399 286.4 732.799 297.6 742.399 307.2L684.799 422.4C679.999 422.4 676.799 420.8 671.999 420.8C644.799 420.8 620.799 430.4 603.199 446.4L611.199 435.2L556.799 401.6L511.999 472L566.399 505.6L567.999 502.4C566.399 510.4 564.799 520 564.799 529.6C564.799 587.2 612.799 635.2 670.399 635.2C727.999 635.2 775.999 587.2 775.999 529.6C775.999 505.6 767.999 481.6 753.599 464L814.399 342.4C815.999 342.4 817.599 342.4 819.199 342.4C876.799 342.4 924.799 294.4 924.799 236.8C924.799 179.2 876.799 131.2 819.199 131.2C774.399 131.2 737.599 158.4 721.599 196.8H302.399C286.399 158.4 249.599 131.2 204.799 131.2C147.199 131.2 99.1992 179.2 99.1992 236.8C99.1992 294.4 147.199 342.4 204.799 342.4ZM348.412 370.199L390.348 302.071L444.85 335.62L402.914 403.748L348.412 370.199ZM429.471 420.269L471.407 352.141L525.909 385.69L483.973 453.818L429.471 420.269Z" fill="black"/>
</svg>
