<svg width="1024" height="1024" viewBox="0 0 1024 1024" fill="none" xmlns="http://www.w3.org/2000/svg">
<path d="M363.813 252.356L329.423 308.236L374.126 335.748L408.517 279.869L363.813 252.356Z" fill="black"/>
<path d="M430.205 292.859L395.814 348.738L440.518 376.251L474.908 320.372L430.205 292.859Z" fill="black"/>
<path d="M550.977 646.411C537.854 615.073 506.712 592.548 470.967 592.548C467.05 592.548 463.133 592.548 459.117 593.822L296.356 287.884L306.834 294.446L341.012 238.037L327.89 230.203H635.1C639.017 239.408 644.305 248.614 652.14 256.449L604.839 350.952C600.922 350.952 598.278 349.679 594.361 349.679C572.032 349.679 552.348 357.514 537.854 370.734L544.416 361.529L499.759 333.912L463.035 391.691L507.691 419.308L508.964 416.664C507.691 423.225 506.32 431.06 506.32 438.992C506.32 486.293 545.689 525.661 592.989 525.661C640.29 525.661 679.659 486.293 679.659 438.992C679.659 419.308 673.097 399.624 661.247 385.13L711.094 285.338H715.012C762.312 285.338 801.681 245.97 801.681 198.669C801.681 151.368 762.508 112 715.208 112C678.483 112 648.223 134.328 635.1 165.862H291.165C278.043 134.328 247.782 112 211.058 112C163.757 112 124.389 151.368 124.389 198.669C124.389 245.97 163.757 285.338 211.058 285.338C213.702 285.338 216.346 285.338 218.892 285.338L402.709 625.355C390.859 639.751 384.298 658.162 384.298 679.218C384.298 726.518 423.666 765.887 470.967 765.887C472.534 765.887 474.101 765.691 475.766 765.593C480.956 731.415 496.135 701.154 521.696 675.692L551.075 646.313L550.977 646.411Z" fill="black"/>
<path d="M876.206 675.986L699.049 853.143C681.617 870.575 660.66 879.585 636.569 879.585C612.478 879.585 592.108 871.163 574.676 853.731C557.245 836.299 548.822 815.93 548.822 791.838C549.41 767.258 557.832 746.79 575.264 729.358L767.992 536.532C778.765 525.759 791.986 520.961 807.067 520.275C822.148 519.688 834.684 525.074 845.554 535.846C856.424 546.619 861.811 559.252 861.811 574.823C861.811 590.394 856.424 603.027 845.554 613.897L683.38 776.071C679.854 779.695 674.37 781.458 668.396 781.458C662.423 781.458 656.938 779.695 652.825 775.484C648.614 771.273 646.852 765.887 646.852 759.913C646.852 753.939 648.614 748.553 652.238 744.929L798.743 598.228L775.337 574.823L628.832 721.328C618.647 731.611 613.261 745.321 613.261 759.815C612.674 774.896 618.06 787.432 628.832 798.302C639.605 809.074 652.825 813.873 667.809 814.558C682.89 815.146 695.425 809.76 706.296 798.987L868.47 636.911C885.902 619.479 894.911 598.522 894.911 574.431C894.911 550.34 886.489 529.97 869.057 512.539C851.626 495.107 831.256 486.685 807.165 486.685C782.584 487.272 762.117 495.694 744.685 513.126L551.858 705.953C527.865 729.946 516.407 758.15 516.407 791.838C516.407 825.527 527.865 853.731 551.271 877.136C574.676 900.542 602.978 912 636.569 912C670.159 912 699.049 899.954 722.454 876.549L899.612 699.391L876.206 675.986Z" fill="black"/>
</svg>
