<svg width="1024" height="1024" viewBox="0 0 1024 1024" fill="none" xmlns="http://www.w3.org/2000/svg">
<path d="M349.23 371.098L391.166 302.97L445.668 336.519L403.732 404.647L349.23 371.098ZM204.799 342.4C207.999 342.4 211.199 342.4 214.399 342.4L404.799 694.4H494.399L308.799 345.6L321.599 353.6L363.199 284.8L347.199 275.2H721.599C726.399 286.4 732.799 297.6 742.399 307.2L684.799 422.4C679.999 422.4 676.799 420.8 671.999 420.8C644.799 420.8 620.799 430.4 603.199 446.4L611.199 435.2L556.799 401.6L511.999 472L566.399 505.6L567.999 502.4C566.399 510.4 564.799 520 564.799 529.6C564.799 587.2 612.799 635.2 670.399 635.2C727.999 635.2 775.999 587.2 775.999 529.6C775.999 505.6 767.999 481.6 753.599 464L814.399 342.4C815.999 342.4 817.599 342.4 819.199 342.4C876.799 342.4 924.799 294.4 924.799 236.8C924.799 179.2 876.799 131.2 819.199 131.2C774.399 131.2 737.599 158.4 721.599 196.8H302.399C286.399 158.4 249.599 131.2 204.799 131.2C147.199 131.2 99.1992 179.2 99.1992 236.8C99.1992 294.4 147.199 342.4 204.799 342.4ZM430.719 420.027L472.655 351.899L527.157 385.448L485.221 453.576L430.719 420.027ZM129.599 894.4H894.399V745.6H129.599V894.4ZM451.199 793.6H846.399V846.4H451.199V793.6Z" fill="black"/>
</svg>
