<svg width="1024" height="1024" viewBox="0 0 1024 1024" fill="none" xmlns="http://www.w3.org/2000/svg">
<path d="M909.484 389.342H834.561V250.88C834.561 247.025 831.436 243.9 827.581 243.9H786.058V202.343C786.058 198.488 782.933 195.363 779.078 195.363H744.586C740.731 195.363 737.606 198.488 737.606 202.343V243.849H696.117C692.262 243.849 689.137 246.974 689.137 250.829V805.547C689.139 806.685 689.41 807.76 689.889 808.711L689.87 808.67L736.957 902.878C737.364 903.684 737.604 904.635 737.606 905.642V918.528C737.606 922.387 740.729 925.516 744.585 925.525H779.078C782.933 925.525 786.058 922.4 786.058 918.545V905.643C786.06 904.636 786.299 903.685 786.723 902.842L786.707 902.878L833.794 808.67C834.266 807.762 834.548 806.689 834.562 805.551V437.829H868.03V547.843C868.03 552.169 871.537 555.677 875.864 555.677C878.467 555.677 880.773 554.408 882.197 552.455L882.213 552.433L913.752 508.776C915.459 506.431 916.483 503.492 916.483 500.315C916.483 500.29 916.483 500.264 916.483 500.239V500.243V396.136C916.388 392.364 913.308 389.343 909.522 389.343C909.509 389.343 909.497 389.342 909.484 389.342ZM786.058 795.802L761.84 844.305L737.605 795.802V437.829H786.057L786.058 795.802ZM786.058 389.342H737.606V292.352H786.058V389.342Z" fill="black"/>
<path d="M543.744 146.894H442.658C432.378 118.411 405.578 98.418 374.11 98.418C342.642 98.418 315.842 118.411 305.722 146.387L305.562 146.893H204.476V195.362H107.52V925.576H640.666V195.362H543.744V146.894ZM380.928 770.424H285.013C284.904 770.426 284.776 770.427 284.647 770.427C272.131 770.427 261.647 761.723 258.919 750.038L258.884 749.859C258.534 748.258 258.333 746.42 258.333 744.534C258.333 730.16 269.986 718.507 284.36 718.507C284.38 718.507 284.399 718.507 284.419 718.507H380.245C380.36 718.505 380.495 718.504 380.63 718.504C393.116 718.504 403.579 727.165 406.338 738.807L406.374 738.986C406.735 740.612 406.943 742.48 406.943 744.396C406.943 758.766 395.297 770.416 380.929 770.423L380.928 770.424ZM463.804 660.72H285.884C285.716 660.724 285.518 660.726 285.319 660.726C271.26 660.726 259.713 649.966 258.465 636.232L258.457 636.127C258.434 635.714 258.42 635.231 258.42 634.745C258.42 620.385 270.057 608.744 284.414 608.735H462.335C462.509 608.731 462.714 608.729 462.92 608.729C476.986 608.729 488.54 619.486 489.805 633.222L489.813 633.328C489.837 633.746 489.851 634.235 489.851 634.728C489.851 649.083 478.214 660.721 463.858 660.721C463.839 660.721 463.82 660.721 463.8 660.721H463.803L463.804 660.72ZM285.014 551.015C284.905 551.017 284.777 551.018 284.648 551.018C272.132 551.018 261.648 542.314 258.92 530.629L258.885 530.45C258.526 528.829 258.32 526.967 258.32 525.057C258.32 510.688 269.964 499.039 284.33 499.03H463.121C463.229 499.028 463.356 499.028 463.483 499.028C476.006 499.028 486.493 507.74 489.215 519.434L489.25 519.612C489.609 521.233 489.815 523.095 489.815 525.005C489.815 539.37 478.17 551.015 463.805 551.015H285.014ZM463.804 441.328H285.884C285.721 441.332 285.529 441.334 285.336 441.334C271.267 441.334 259.713 430.567 258.465 416.823L258.457 416.718C258.436 416.326 258.424 415.866 258.424 415.404C258.424 401.049 270.061 389.412 284.416 389.411H462.336C462.517 389.407 462.729 389.404 462.942 389.404C476.981 389.404 488.516 400.126 489.805 413.828L489.813 413.936C489.836 414.349 489.85 414.832 489.85 415.318C489.85 429.683 478.205 441.328 463.84 441.328C463.827 441.328 463.814 441.328 463.801 441.328H463.804ZM495.275 243.832H252.928V195.363H349.867V172.101C349.864 171.965 349.863 171.805 349.863 171.645C349.863 159.843 358.079 149.96 369.104 147.404L369.272 147.371C370.698 147.073 372.338 146.903 374.017 146.903C387.405 146.903 398.261 157.744 398.286 171.126V195.363H495.225L495.275 243.832Z" fill="black"/>
</svg>
