<svg width="1024" height="1024" viewBox="0 0 1024 1024" fill="none" xmlns="http://www.w3.org/2000/svg">
<path d="M757.588 794.453C728.745 794.453 702.463 790.528 678.569 782.677C654.675 774.826 632.83 764.245 613.033 750.933C593.065 737.621 574.974 721.92 558.42 704.17C541.866 686.42 526.676 667.477 512.511 647.679C498.346 667.647 482.986 686.42 466.09 704.17C449.365 721.919 430.933 737.621 411.135 750.933C391.167 764.245 369.322 774.826 345.599 782.677C321.706 790.528 295.423 794.453 266.58 794.453C231.935 794.453 198.996 787.456 167.593 773.632C136.19 759.808 108.713 740.352 85.1614 715.435C61.6094 690.518 42.8364 660.822 29.0124 626.176C15.1884 591.53 8.19141 553.301 8.19141 511.488C8.19141 470.187 15.1884 432.128 29.0124 397.483C42.8364 362.838 61.6094 333.142 85.1614 308.395C108.713 283.478 136.19 264.192 167.593 250.198C198.996 236.374 231.934 229.377 266.58 229.377C295.423 229.377 321.705 233.302 345.599 241.153C369.493 249.004 391.338 259.585 411.135 272.897C431.103 286.209 449.364 301.91 466.09 319.66C482.816 337.41 498.346 356.353 512.511 376.151C526.676 356.183 542.036 337.41 558.42 319.66C574.975 301.911 593.065 286.209 613.033 272.897C633.001 259.585 654.846 249.004 678.569 241.153C702.462 233.302 728.745 229.377 757.588 229.377C792.233 229.377 825.172 236.374 856.575 250.198C887.978 264.022 915.455 283.478 939.007 308.395C962.559 333.312 981.332 363.008 995.156 397.483C1008.98 432.128 1015.98 470.016 1015.98 511.488C1015.98 553.472 1008.98 591.531 995.156 626.176C981.332 660.821 962.559 690.517 939.007 715.435C915.455 740.352 887.978 759.638 856.575 773.632C825.172 787.456 792.063 794.453 757.588 794.453ZM274.26 638.123C289.961 638.123 304.809 634.88 318.633 628.224C332.457 621.739 345.598 612.864 357.886 601.429C370.174 590.165 381.95 576.853 393.214 561.322C404.478 545.962 415.571 529.578 426.665 512.17C415.742 494.421 404.478 477.866 393.214 462.677C381.95 447.488 370.174 434.176 357.886 422.57C345.598 411.135 332.457 402.09 318.633 395.434C304.809 388.949 289.961 385.535 274.26 385.535C259.071 385.535 244.735 387.924 231.081 392.703C217.427 397.482 205.481 404.82 194.9 415.06C184.489 425.3 176.127 438.441 169.812 454.313C163.497 470.356 160.425 489.3 160.425 511.316C160.425 533.844 163.497 553.129 169.812 569.001C176.127 585.044 184.489 598.014 194.9 608.254C205.311 618.494 217.428 626.003 231.081 630.611C244.734 635.731 259.07 638.12 274.26 638.12V638.123ZM749.738 638.123C764.927 638.123 779.434 635.734 793.429 631.126C807.253 626.347 819.541 619.009 829.952 608.769C840.363 598.529 848.725 585.388 854.699 569.516C860.672 553.473 863.744 534.359 863.744 511.831C863.744 489.815 860.672 470.871 854.357 454.828C848.042 438.785 839.68 425.815 829.269 415.575C818.858 405.335 806.741 397.826 793.088 393.218C779.435 388.439 765.099 386.05 749.909 386.05C733.696 386.05 718.677 389.293 705.194 395.949C691.541 402.434 678.57 411.48 666.282 423.085C653.994 434.69 642.389 448.002 631.295 463.192C620.372 478.381 609.279 494.936 598.356 512.685C609.279 529.922 620.372 546.306 631.295 561.837C642.218 577.368 653.994 590.68 666.282 601.944C678.57 613.208 691.541 622.083 705.194 628.739C718.506 634.883 733.354 638.126 749.738 638.126V638.123Z" fill="black"/>
</svg>
