<svg width="1024" height="1024" viewBox="0 0 1024 1024" fill="none" xmlns="http://www.w3.org/2000/svg">
<path d="M912 512C912 591.112 888.54 668.448 844.588 734.228C800.635 800.008 738.164 851.277 665.073 881.552C591.983 911.827 511.556 919.748 433.964 904.314C356.372 888.88 285.098 850.784 229.157 794.843C173.216 738.902 135.12 667.628 119.686 590.036C104.252 512.444 112.173 432.017 142.448 358.927C172.723 285.836 223.992 223.365 289.772 179.412C355.552 135.46 432.888 112 512 112C618.053 112.109 719.732 154.286 794.723 229.277C869.714 304.268 911.891 405.947 912 512ZM850.462 512C850.462 445.059 830.611 379.62 793.42 323.961C756.23 268.301 703.369 224.92 641.524 199.302C579.678 173.685 511.625 166.982 445.97 180.042C380.314 193.102 320.006 225.337 272.672 272.672C225.337 320.006 193.102 380.314 180.042 445.969C166.982 511.624 173.685 579.678 199.302 641.523C224.92 703.369 268.301 756.23 323.961 793.42C379.621 830.611 445.059 850.461 512 850.461C601.732 850.353 687.758 814.659 751.209 751.208C814.659 687.758 850.353 601.732 850.462 512Z" fill="black"/>
<path d="M617.33 492.177C638.663 470.844 649.329 445.511 649.329 414.845C649.329 377.512 635.996 345.513 609.33 318.847C582.664 292.181 550.665 278.848 511.999 278.848C473.333 278.848 441.333 292.181 414.667 318.847C388.001 345.513 374.668 377.512 374.668 414.845H444C444 396.179 450.666 378.846 464 365.513C477.333 352.18 493.332 345.513 511.999 345.513C530.665 345.513 546.665 352.18 559.998 365.513C573.331 378.846 579.997 394.845 579.997 414.845C579.997 434.845 573.331 449.511 558.664 462.844L517.332 505.51C490.666 532.176 477.333 564.176 477.333 601.508V618.841H546.665C546.665 594.842 549.331 577.509 555.998 564.176C561.331 550.842 571.998 537.509 586.664 522.843L617.33 492.177ZM546.665 745.152V677.154H477.333V745.152H546.665Z" fill="black"/>
</svg>
