<svg width="1024" height="1024" viewBox="0 0 1024 1024" fill="none" xmlns="http://www.w3.org/2000/svg">
<path d="M512.076 336.631C415.027 336.631 336.746 414.929 336.746 512C336.746 609.071 415.027 687.369 512.076 687.369C609.126 687.369 687.406 609.071 687.406 512C687.406 414.929 609.126 336.631 512.076 336.631ZM512.076 626.013C449.36 626.013 398.089 574.883 398.089 512C398.089 449.117 449.208 397.987 512.076 397.987C574.945 397.987 626.064 449.117 626.064 512C626.064 574.883 574.792 626.013 512.076 626.013ZM735.473 329.458C735.473 352.199 717.162 370.362 694.578 370.362C671.842 370.362 653.683 352.046 653.683 329.458C653.683 306.869 671.994 288.553 694.578 288.553C717.162 288.553 735.473 306.869 735.473 329.458ZM851.597 370.972C849.003 316.179 836.49 267.643 796.358 227.655C756.378 187.667 707.854 175.151 653.073 172.404C596.613 169.199 427.387 169.199 370.927 172.404C316.299 174.999 267.774 187.514 227.642 227.502C187.51 267.491 175.15 316.026 172.403 370.82C169.199 427.292 169.199 596.556 172.403 653.028C174.997 707.821 187.51 756.357 227.642 796.345C267.774 836.333 316.146 848.849 370.927 851.596C427.387 854.801 596.613 854.801 653.073 851.596C707.854 849.001 756.378 836.486 796.358 796.345C836.337 756.357 848.85 707.821 851.597 653.028C854.801 596.556 854.801 427.444 851.597 370.972ZM778.657 713.621C766.755 743.536 743.713 766.583 713.652 778.64C668.637 796.498 561.822 792.377 512.076 792.377C462.331 792.377 355.363 796.345 310.5 778.64C280.592 766.735 257.55 743.688 245.496 713.621C227.642 668.596 231.762 561.757 231.762 512C231.762 462.243 227.795 355.252 245.496 310.379C257.398 280.464 280.439 257.417 310.5 245.36C355.515 227.502 462.331 231.623 512.076 231.623C561.822 231.623 668.79 227.655 713.652 245.36C743.561 257.265 766.602 280.312 778.657 310.379C796.51 355.404 792.39 462.243 792.39 512C792.39 561.757 796.51 668.748 778.657 713.621Z" fill="black"/>
</svg>
