<svg width="1024" height="1024" viewBox="0 0 1024 1024" fill="none" xmlns="http://www.w3.org/2000/svg">
<path d="M695.826 435.2H588.801V328.192C588.801 328.187 588.801 328.181 588.801 328.175C588.801 184.236 472.115 67.5498 328.176 67.5498C184.237 67.5498 67.5508 184.236 67.5508 328.175C67.5508 472.114 184.237 588.8 328.176 588.8C328.182 588.8 328.188 588.8 328.194 588.8H435.201V695.808C435.201 695.813 435.201 695.819 435.201 695.825C435.201 839.764 551.887 956.45 695.826 956.45C839.765 956.45 956.451 839.764 956.451 695.825C956.451 551.886 839.765 435.2 695.826 435.2ZM435.201 435.2H217.123V363.196H312.952L193.929 244.156L244.173 193.929L363.196 312.952V217.123H435.2L435.201 435.2ZM779.794 830.14L660.771 711.117V806.946H588.801V588.8H806.845V660.804H710.999L830.022 779.946L779.794 830.14Z" fill="black"/>
</svg>
