<svg width="1024" height="1024" viewBox="0 0 1024 1024" fill="none" xmlns="http://www.w3.org/2000/svg">
<path fill-rule="evenodd" clip-rule="evenodd" d="M912.801 112H112.801V912H912.801V112ZM384.37 743.486L323.152 780.536L323.148 780.53C340.87 818.12 375.78 849.267 435.92 849.267C502.514 849.267 548.158 813.823 548.158 735.958V479.277H472.98V734.895C472.98 772.483 457.402 782.145 432.698 782.145C406.927 782.145 396.183 764.427 384.37 743.486ZM650.205 737.039L588.992 772.48L588.989 772.483C611.005 815.983 656.114 849.277 725.923 849.277C797.345 849.277 850.508 812.227 850.508 744.558C850.508 681.733 814.53 653.811 750.623 626.42L731.83 618.367C699.611 604.405 685.648 595.27 685.648 572.717C685.648 554.461 699.611 540.498 721.63 540.498C743.111 540.498 757.067 549.627 769.958 572.717L828.495 535.123C803.795 491.627 769.427 474.977 721.633 474.977C654.505 474.977 611.545 517.939 611.545 574.327C611.545 635.545 647.523 664.545 701.764 687.63L720.555 695.692C754.923 710.723 775.33 719.855 775.33 745.63C775.33 767.111 755.467 782.686 724.314 782.686C687.264 782.686 666.32 763.355 650.205 737.039Z" fill="black"/>
</svg>
