<svg width="1024" height="1024" viewBox="0 0 1024 1024" fill="none" xmlns="http://www.w3.org/2000/svg">
<path d="M577.6 73.6001H184V948.8H841.6V336L577.6 73.6001ZM536 139.2L776 379.2H536V139.2ZM300.8 849.6C300.8 875.2 286.4 900.8 249.6 900.8H224V864H241.6C252.8 864 257.6 859.2 257.6 848H256V657.6H300.8V849.6ZM300.8 627.2H256V592H300.8V627.2ZM393.6 835.2C366.4 835.2 340.8 832 318.4 809.6L347.2 780.8C361.6 795.2 380.8 796.8 393.6 796.8C408 796.8 424 792 424 779.2C424 771.2 419.2 764.8 404.8 763.2L377.6 760C345.6 756.8 326.4 742.4 326.4 710.4C326.4 673.6 360 654.4 395.2 654.4C422.4 654.4 444.8 659.2 462.4 675.2L435.2 702.4C424 694.4 409.6 691.2 393.6 691.2C376 691.2 368 699.2 368 708.8C368 715.2 369.6 723.2 385.6 724.8L412.8 728C448 731.2 465.6 750.4 468.8 777.6C468.8 816 435.2 835.2 393.6 835.2ZM608 816C598.4 828.8 579.2 838.4 553.6 838.4C528 838.4 510.4 827.2 499.2 816C484.8 800 480 779.2 480 747.2C480 715.2 483.2 694.4 499.2 678.4C510.4 665.6 528 656 553.6 656C579.2 656 596.8 667.2 608 678.4C622.4 696 627.2 715.2 627.2 747.2C627.2 779.2 624 800 608 816ZM800 833.6H753.6V726.4C753.6 702.4 739.2 694.4 724.8 694.4C712 694.4 696 702.4 696 726.4V833.6H651.2V657.6H694.4V673.6C707.2 662.4 723.2 656 739.2 656C758.4 656 771.2 662.4 782.4 670.4C796.8 684.8 800 700.8 800 720V833.6ZM553.6 696C544 696 537.6 699.2 532.8 704C524.8 713.6 523.2 729.6 523.2 747.2C523.2 766.4 523.2 780.8 532.8 790.4C537.6 795.2 544 798.4 553.6 798.4C563.2 798.4 569.6 795.2 574.4 790.4C582.4 780.8 584 764.8 584 747.2C584 728 584 713.6 574.4 704C569.6 699.2 563.2 696 553.6 696Z" fill="black"/>
</svg>
