<svg width="1024" height="1024" viewBox="0 0 1024 1024" fill="none" xmlns="http://www.w3.org/2000/svg">
<path d="M635.749 116.053C485.384 116.156 363.528 238.075 363.528 388.454C363.528 418.895 368.521 448.169 377.733 475.503L377.171 473.582L126.888 723.865C120.191 730.579 116.051 739.845 116.051 750.078C116.051 750.091 116.051 750.103 116.051 750.116V750.114V870.861C116.061 891.339 132.659 907.937 153.136 907.947H329.384V791.894H462.504V709.974H537.307L584.974 655.736C600.297 658.797 617.913 660.549 635.938 660.549C786.296 660.549 908.185 538.66 908.185 388.302C908.185 237.944 786.296 116.055 635.938 116.055C635.871 116.055 635.804 116.055 635.737 116.055H635.748L635.749 116.053ZM709.972 388.25C668.961 388.25 635.715 355.004 635.715 313.993C635.715 272.982 668.961 239.736 709.972 239.736C750.983 239.736 784.229 272.982 784.229 313.993C784.229 313.999 784.229 314.005 784.229 314.011C784.229 314.016 784.229 314.021 784.229 314.027C784.229 355.019 750.998 388.25 710.006 388.25C709.994 388.25 709.982 388.25 709.97 388.25H709.972Z" fill="black"/>
</svg>
