<svg width="1024" height="1024" viewBox="0 0 1024 1024" fill="none" xmlns="http://www.w3.org/2000/svg">
<path d="M566.954 342.664H461.192L566.954 131.123H303.069V421.717H382.122V661.026L566.954 342.664ZM634.879 600.149C671.246 554.908 693.248 496.775 693.248 433.502C693.248 433.229 693.248 432.955 693.247 432.682V432.724C693.091 335.7 641.834 250.682 564.956 203.128L563.796 202.46L521.931 286.189C533.881 294.318 544.28 303.313 553.544 313.37L553.658 313.495H617.453L587.296 365.446C596.014 385.734 601.084 409.349 601.084 434.147C601.084 524.802 533.335 599.634 445.706 610.773L444.824 610.865L391.593 702.547C400.945 703.745 411.816 704.457 422.842 704.509H422.91C475.907 704.438 525.282 688.992 566.831 662.394L565.758 663.037L806.91 904.189L871.439 836.605L634.879 600.149ZM244.735 434.346C244.735 434.307 244.735 434.262 244.735 434.216C244.735 397.917 255.657 364.169 274.393 336.078L273.987 336.725V207.838C200.386 257.009 152.566 339.751 152.566 433.663C152.566 558.198 236.657 663.092 351.155 694.661L353.057 695.108V597.947C289.179 569.799 245.28 507.265 244.735 434.416V434.346Z" fill="black"/>
</svg>
