<svg width="1024" height="1024" viewBox="0 0 1024 1024" fill="none" xmlns="http://www.w3.org/2000/svg">
<path d="M303.509 494.966C293.183 495.017 283.909 488.661 280.233 479.011L240.505 375.702C238.878 371.49 235.553 368.165 231.341 366.537L128.003 326.778C115.149 321.845 108.729 307.428 113.662 294.569C116.196 287.97 121.41 282.762 128.003 280.229L231.315 240.502C235.527 238.874 238.852 235.549 240.48 231.337L280.24 128.002C285.173 115.149 299.59 108.729 312.45 113.662C319.049 116.196 324.257 121.41 326.79 128.002L366.519 231.312C368.146 235.524 371.471 238.849 375.683 240.476L478.396 279.993C488.435 283.713 495.066 293.324 494.976 304.027C494.823 314.161 488.498 323.179 479.021 326.785L375.709 366.512C371.497 368.139 368.171 371.464 366.544 375.676L326.784 479.011C323.108 488.661 313.835 495.017 303.509 494.966Z" fill="black"/>
<path d="M610.077 278.28C610.077 278.003 610.301 277.78 610.577 277.78H952V349.776C952 392.91 933.075 431.11 903.238 458.097V515.312C903.233 578.817 862.345 631.737 805.713 653.632V680.685C805.7 764.402 734.699 829.852 650.153 829.859H330.632V829.695H295.996C245.966 829.695 207.863 867.883 207.853 912H152V551.319C152 551.043 152.224 550.819 152.5 550.819H207.353C207.629 550.819 207.853 551.043 207.853 551.319V802.915C232.398 784.687 263.084 773.844 295.996 773.844H362.431V774.007H650.153C706.585 774 749.846 730.892 749.86 680.685V664.486H328C327.724 664.486 327.5 664.262 327.5 663.986V609.134C327.5 608.858 327.724 608.634 328 608.634H747.678C804.11 608.622 847.378 565.521 847.385 515.312V499.168H473.715C473.44 499.168 473.216 498.945 473.215 498.669L473.054 443.654C473.054 443.377 473.278 443.152 473.554 443.152H796.44C852.883 443.147 896.147 399.994 896.147 349.776V333.631H610.577C610.301 333.631 610.077 333.407 610.077 333.131V278.28Z" fill="black"/>
</svg>
