<svg xmlns="http://www.w3.org/2000/svg" width="1024" height="1024" fill="none" viewBox="0 0 1024 1024"><path fill="#000" d="M511.454 605.279c2.281-.084 4.597.384 6.799 1.444 2.885 1.39 5.114 3.577 6.517 6.199l.04.076h.322l42.239 76.321a175 175 0 0 1-16.756 4.674c-32.313 7.337-64.523 5.13-93.7-4.779l42.133-76.181h.072l.042-.075a14.55 14.55 0 0 1 12.292-7.679M584.445 569.674a14.4 14.4 0 0 1 3.347.247l.084.015.053-.067.09-.113 86.432 14.613c-12.672 35.492-36.851 66.243-69.138 86.857l-33.554-81.044.059-.077.05-.066-.033-.076c-3.061-7.112.003-15.453 7.045-18.845a14.5 14.5 0 0 1 5.565-1.444M438.85 570.03c6.55.091 12.426 4.638 13.949 11.306a14.4 14.4 0 0 1-.811 8.947l-.033.078.052.067.198.254-33.196 80.223c-30.99-19.929-55.68-49.717-68.926-86.252l85.686-14.541.091.113.053.067.083-.016a14.7 14.7 0 0 1 2.854-.246M525.289 498.463l16.561 20.701-5.946 25.832-23.922 11.501-23.992-11.535-5.945-25.834 16.596-20.665zM430.052 493.855l-.055.277-.015.081.062.054c5.843 5.081 6.705 13.896 1.832 20.007a14.54 14.54 0 0 1-7.539 4.968l-.08.021-.02.081-.052.204-83.56 24.118c-4.21-38.85 4.941-76.611 24.239-108.119zM658.639 435.582c9.662 15.694 16.981 33.216 21.343 52.207 4.31 18.761 5.4 37.489 3.641 55.592l-83.981-24.187-.054-.27-.017-.087-.084-.023-.349-.099c-7.263-2.179-11.683-9.66-9.972-17.162a14.42 14.42 0 0 1 4.614-7.713l.063-.054-.017-.081-.02-.099zM486.057 441.889l-.281.141-.075.036-.004.085c-.329 7.736-6.696 13.913-14.512 13.913a14.45 14.45 0 0 1-8.56-2.782l-.07-.051-.077.039-.067.032-71.392-50.61c21.969-21.56 50.049-37.493 82.402-44.839a176 176 0 0 1 17.566-3.036zM533.014 354.817c37.719 4.678 72.602 21.756 99.364 47.911l-70.934 50.293-.177-.076-.074-.031-.066.048c-6.253 4.566-15.063 3.433-19.936-2.678a14.44 14.44 0 0 1-3.171-8.418l-.004-.084-.072-.036z"/><path fill="#000" fill-rule="evenodd" d="M509.227 123.951a53.56 53.56 0 0 1 25.788 5.158L813.17 261.926a53.1 53.1 0 0 1 18.505 14.635 52.6 52.6 0 0 1 10.271 21.148l68.72 298.501a52.3 52.3 0 0 1-.001 23.484 52.6 52.6 0 0 1-10.278 21.156L707.955 880.234a53.1 53.1 0 0 1-18.512 14.61 53.55 53.55 0 0 1-23.069 5.202l-308.71.071a53.5 53.5 0 0 1-23.073-5.217 53.1 53.1 0 0 1-18.508-14.631L123.58 640.921a53 53 0 0 1-3.023-4.197 52.5 52.5 0 0 1-7.742-19.496 52.3 52.3 0 0 1 .521-20.947L181.95 297.78a52.6 52.6 0 0 1 10.271-21.148 53.1 53.1 0 0 1 18.505-14.635l278.119-132.888a53.5 53.5 0 0 1 20.382-5.158m2.756 101.444c-9.285.001-16.79 8.36-16.789 18.638 0 .087.009.171.017.247l.019.219c-.014 1.38-.081 3.06-.036 4.271.11 2.954.488 5.561.933 8.106.446 2.548.959 5.026 1.345 7.737 1.4 11.615 2.569 21.225 1.849 30.155-.698 3.33-3.155 6.39-5.364 8.529l-.04.039-.003.055-.385 6.919a217 217 0 0 0-29.988 4.617c-43.21 9.811-80.419 32.056-108.76 62.093a283 283 0 0 1-5.907-4.197l-.047-.034-.056.008c-2.99.403-5.938 1.306-9.799-.943-6.502-4.379-12.5-10.215-19.397-17.191l-3.017-3.06c-3.745-3.971-6.49-7.79-10.964-11.639-1.018-.876-2.572-2.061-3.703-2.956-3.518-2.805-7.669-4.269-11.68-4.406-5.157-.177-10.128 1.84-13.383 5.922-5.789 7.261-3.924 18.336 4.112 24.743q.07.054.134.096.062.042.117.083c1.092.886 2.442 2.03 3.453 2.777 2.379 1.756 4.654 3.084 6.923 4.318 2.27 1.236 4.528 2.374 6.887 3.762 9.956 6.148 18.195 11.238 24.728 17.37 1.254 1.337 1.998 3.193 2.47 4.984.471 1.792.665 3.5.837 4.547l.008.048.037.034 5.244 4.684c-28.511 42.961-41.714 96-33.941 150.048l-6.853 1.995-.044.013-.028.037c-.922 1.191-2.026 2.709-3.24 4.073-1.213 1.364-2.521 2.553-3.845 3.098-8.547 2.692-18.169 3.682-29.807 4.902-2.729.227-5.266.273-7.858.399-2.588.127-5.222.334-8.127.884-1.279.242-3.064.707-4.453 1.033q-.04.009-.075.018l-.065.017c-.044.01-.095.026-.137.039a2 2 0 0 1-.114.032l-.001.001c-9.873 2.386-16.24 11.469-14.191 20.444 2.05 8.977 11.721 14.414 21.653 12.273a1 1 0 0 1 .108-.016c.042-.004.095-.01.141-.02.067-.015.13-.039.181-.059.053-.02.096-.037.139-.048 1.37-.3 3.103-.638 4.311-.961 5.703-1.527 9.854-3.779 14.953-5.732 11.014-3.951 20.12-7.244 28.988-8.528 1.821-.142 3.7.421 5.375 1.161 1.677.742 3.129 1.653 4.11 2.201l.044.025.049-.009 7.135-1.225c16.711 51.709 51.666 93.511 95.921 119.769l-2.975 7.142-.022.053.02.053c.543 1.406 1.114 3.055 1.447 4.696.333 1.644.424 3.267.028 4.626-3.226 8.358-8.748 17.186-15.049 27.042-3.038 4.536-6.177 8.096-8.934 13.316-.66 1.249-1.506 3.177-2.138 4.486v.002c-4.305 9.212-1.155 19.846 7.145 23.842 8.346 4.018 18.68-.22 23.156-9.434l.01-.008a.2.2 0 0 0 .038-.05l.002-.004c.01-.021.01-.042.01-.057.629-1.29 1.522-2.995 2.053-4.213 1.183-2.709 1.971-5.225 2.67-7.714.613-2.18 1.155-4.334 1.837-6.587l.301-.971c2.199-5.527 3.912-11.212 5.819-16.383 1.912-5.187 4.027-9.878 7.041-13.475 1.627-1.94 4.285-2.694 7.102-3.448l.058-.015.03-.054 3.71-6.721c38.626 14.801 81.851 18.765 125.03 8.961a216 216 0 0 0 28.466-8.571c1.069 1.901 2.98 5.405 3.499 6.298l.028.048.051.016c2.866.933 5.92 1.4 8.422 5.094 4.527 7.734 7.626 16.887 11.406 27.964 1.651 5.203 2.48 9.864 4.842 15.274.539 1.234 1.434 2.975 2.065 4.273 4.461 9.26 14.838 13.522 23.204 9.492 8.299-3.998 11.453-14.631 7.146-23.841l-.001-.001-1.076-2.268a65 65 0 0 0-1.096-2.22c-1.382-2.614-2.855-4.799-4.363-6.897-1.509-2.1-3.048-4.106-4.572-6.38-6.303-9.86-11.52-18.036-14.746-26.396-1.332-4.263.221-6.898 1.279-9.723l.029-.079-.055-.064c-.141-.162-.336-.532-.565-1.05a40 40 0 0 1-.735-1.82c-.493-1.294-1.012-2.737-1.406-3.701 45.992-27.191 79.923-70.548 95.888-120.622 2.169.343 5.798.986 6.99 1.225l.057.011.048-.032c2.519-1.661 4.774-3.777 9.225-3.428 8.869 1.283 17.976 4.578 28.993 8.529 2.556.979 4.86 2.035 7.247 3.042s4.848 1.96 7.704 2.724c1.207.323 2.945.627 4.31.926.043.011.086.028.139.048.051.02.113.044.18.059.046.01.1.015.142.02q.07.008.107.015h.002c9.933 2.139 19.605-3.294 21.653-12.271 2.047-8.975-4.318-18.062-14.191-20.445l-.002-.001c-1.416-.322-3.454-.876-4.842-1.139-2.906-.551-5.54-.758-8.129-.884-2.591-.126-5.127-.171-7.855-.398-11.641-1.22-21.263-2.212-29.811-4.903-1.711-.665-3.185-2.02-4.386-3.434-1.203-1.415-2.12-2.87-2.729-3.733l-.029-.04-.048-.015-6.606-1.923c3.468-25.196 2.522-51.415-3.503-77.648-6.082-26.478-16.824-50.699-31.147-72.045 1.741-1.58 4.908-4.386 5.814-5.218l.041-.037.005-.054c.271-3.005.041-6.079 3.092-9.343 6.533-6.132 14.771-11.221 24.727-17.37 2.359-1.388 4.626-2.526 6.906-3.762 2.278-1.234 4.563-2.562 6.941-4.318 1.076-.794 2.547-2.056 3.667-2.957 8.035-6.41 9.905-17.483 4.114-24.742-5.7-7.145-16.643-7.904-24.648-1.812l-.379.296c-1.133.897-2.681 2.075-3.704 2.956-4.475 3.849-7.255 7.667-11 11.639-8.21 8.339-14.983 15.282-22.415 20.287-1.583.922-3.544 1.228-5.388 1.285-1.846.056-3.551-.138-4.633-.202l-.05-.002-.041.029-6.233 4.445c-36.091-37.802-85.194-61.979-138.069-66.706a414 414 0 0 1-.384-7.31l-.002-.058-.042-.039-.832-.772c-1.961-1.79-4-3.602-4.568-7.47-.721-8.93.486-18.541 1.886-30.157.386-2.711.899-5.189 1.345-7.737.446-2.544.823-5.152.933-8.106.05-1.342-.03-3.299-.036-4.737-.001-10.278-7.503-18.639-16.789-18.638" clip-rule="evenodd"/></svg>