<svg width="1024" height="1024" viewBox="0 0 1024 1024" fill="none" xmlns="http://www.w3.org/2000/svg">
<path fill-rule="evenodd" clip-rule="evenodd" d="M532.333 126.333C532.333 115.656 523.678 107 513 107C502.323 107 493.667 115.656 493.667 126.333V130.219C493.667 254.251 343.707 316.366 256.004 228.663C248.454 221.112 236.213 221.112 228.663 228.663C221.112 236.213 221.112 248.454 228.663 256.004C316.366 343.707 254.251 493.667 130.219 493.667H126.333C115.656 493.667 107 502.323 107 513C107 523.678 115.656 532.333 126.333 532.333H130.219C254.251 532.333 316.366 682.293 228.663 769.996C221.112 777.546 221.112 789.787 228.663 797.337C236.213 804.888 248.454 804.888 256.004 797.337C343.707 709.634 493.667 771.749 493.667 895.781V899.667C493.667 910.344 502.323 919 513 919C523.678 919 532.333 910.344 532.333 899.667V895.781C532.333 771.749 682.293 709.634 769.996 797.337C777.546 804.888 789.787 804.888 797.337 797.337C804.888 789.787 804.888 777.546 797.337 769.996C709.634 682.293 771.749 532.333 895.781 532.333H899.667C910.344 532.333 919 523.678 919 513C919 502.323 910.344 493.667 899.667 493.667H895.781C771.749 493.667 709.634 343.707 797.337 256.004C804.888 248.454 804.888 236.213 797.337 228.663C789.787 221.112 777.546 221.112 769.996 228.663C682.293 316.366 532.333 254.251 532.333 130.219V126.333ZM334.846 307.505C394.865 313.813 455.688 288.619 493.667 241.719V279.626C493.667 348.509 410.401 383.012 361.68 334.338L361.65 334.309L334.846 307.505ZM422.959 395.617C448.974 393.937 474.083 383.537 493.667 366.329V438.103C486.571 439.929 479.869 442.737 473.715 446.374L422.959 395.617ZM446.374 473.715L395.617 422.959C393.937 448.974 383.537 474.083 366.329 493.667H438.103C439.929 486.571 442.737 479.869 446.374 473.715ZM438.103 532.333H366.329C383.537 551.917 393.937 577.026 395.617 603.041L446.374 552.285C442.737 546.131 439.929 539.429 438.103 532.333ZM473.715 579.626L422.959 630.383C448.974 632.063 474.083 642.463 493.667 659.671V587.897C486.571 586.071 479.869 583.263 473.715 579.626ZM532.333 587.897V659.671C551.917 642.463 577.026 632.063 603.041 630.383L552.285 579.626C546.131 583.263 539.429 586.071 532.333 587.897ZM579.626 552.285L630.383 603.041C632.063 577.026 642.463 551.917 659.671 532.333H587.897C586.071 539.429 583.263 546.131 579.626 552.285ZM587.897 493.667H659.671C642.463 474.083 632.063 448.974 630.383 422.959L579.626 473.715C583.263 479.869 586.071 486.571 587.897 493.667ZM552.285 446.374L603.041 395.617C577.026 393.937 551.917 383.537 532.333 366.329V438.103C539.429 439.929 546.131 442.737 552.285 446.374ZM334.338 361.68C383.012 410.401 348.509 493.667 279.626 493.667H241.719C288.619 455.688 313.813 394.865 307.505 334.846L334.309 361.65L334.338 361.68ZM334.33 664.329L334.309 664.35L307.505 691.154C313.813 631.135 288.619 570.312 241.719 532.333H279.626C348.513 532.333 383.016 615.609 334.33 664.329ZM361.65 691.691L361.671 691.67C410.391 642.984 493.667 677.487 493.667 746.374V784.281C455.688 737.381 394.865 712.187 334.846 718.495L361.65 691.691ZM532.333 784.281V746.374C532.333 677.477 615.632 642.974 664.35 691.691L691.154 718.495C631.135 712.187 570.312 737.381 532.333 784.281ZM718.495 691.154L691.691 664.35C642.974 615.632 677.477 532.333 746.374 532.333H784.281C737.381 570.312 712.187 631.135 718.495 691.154ZM784.281 493.667H746.374C677.487 493.667 642.984 410.391 691.67 361.671L691.691 361.65L718.495 334.846C712.187 394.865 737.381 455.688 784.281 493.667ZM691.154 307.505L664.35 334.309L664.329 334.33C615.609 383.016 532.333 348.513 532.333 279.626V241.719C570.312 288.619 631.135 313.813 691.154 307.505Z" fill="black"/>
</svg>
