<svg width="1024" height="1024" viewBox="0 0 1024 1024" fill="none" xmlns="http://www.w3.org/2000/svg">
<path d="M758.401 548.8H712.001V489.6C712.001 379.2 622.401 288 512.001 288C401.601 288 312.001 377.6 312.001 488V547.2H265.601C244.801 547.2 227.201 564.8 227.201 585.6V952C227.201 972.8 244.801 990.4 265.601 990.4H760.001C780.801 990.4 798.401 972.8 798.401 952V587.2C796.801 564.8 780.801 548.8 758.401 548.8ZM537.601 788.8V838.4C537.601 852.8 526.401 864 512.001 864C497.601 864 486.401 852.8 486.401 838.4V788.8C470.401 780.8 460.801 763.2 460.801 744C460.801 715.2 483.201 692.8 512.001 692.8C540.801 692.8 563.201 715.2 563.201 744C563.201 763.2 552.001 779.2 537.601 788.8ZM425.601 548.8V489.6C425.601 443.2 464.001 403.2 512.001 403.2C560.001 403.2 598.401 441.6 598.401 489.6V548.8H425.601ZM249.601 459.2C249.601 440 233.601 424 214.401 424H96.0008C76.8008 424 60.8008 440 60.8008 459.2C60.8008 478.4 76.8008 494.4 96.0008 494.4H216.001C233.601 494.4 249.601 478.4 249.601 459.2ZM276.801 297.6C283.201 302.4 291.201 305.6 299.201 305.6C308.801 305.6 320.001 300.8 326.401 292.8C339.201 278.4 336.001 256 321.601 243.2L227.201 166.4C212.801 153.6 190.401 156.8 177.601 171.2C164.801 185.6 168.001 208 182.401 220.8L276.801 297.6ZM512.001 224C531.201 224 547.201 208 547.201 188.8V68.8001C547.201 49.6001 531.201 33.6001 512.001 33.6001C492.801 33.6001 476.801 49.6001 476.801 68.8001V188.8C476.801 208 492.801 224 512.001 224ZM724.801 305.6C732.801 305.6 740.801 302.4 747.201 297.6L841.601 220.8C856.001 208 859.201 187.2 846.401 171.2C833.601 156.8 812.801 153.6 796.801 166.4L702.401 243.2C688.001 256 684.801 276.8 697.601 292.8C705.601 302.4 715.201 305.6 724.801 305.6ZM928.001 424H808.001C788.801 424 772.801 440 772.801 459.2C772.801 478.4 788.801 494.4 808.001 494.4H928.001C947.201 494.4 963.201 478.4 963.201 459.2C963.201 440 947.201 424 928.001 424Z" fill="black"/>
</svg>
