<svg width="1024" height="1024" viewBox="0 0 1024 1024" fill="none" xmlns="http://www.w3.org/2000/svg">
<path d="M394.412 396.971H557.057V480.427H559.446C582.145 439.808 637.441 396.971 720.043 396.971C891.734 396.971 923.648 503.979 923.648 642.902V926.209H754.005V675.158C754.005 615.254 752.81 538.283 665.77 538.283C577.365 538.283 563.882 603.478 563.882 670.891V926.379H394.239V396.971H394.412ZM100.353 396.971H276.822V926.208H100.353V396.971ZM276.822 249.856C276.822 298.496 237.398 338.091 188.587 338.091C139.776 338.091 100.352 298.667 100.352 249.856C100.352 201.045 139.776 161.621 188.587 161.621C237.398 161.621 276.822 201.216 276.822 249.856Z" fill="black"/>
</svg>
