<svg width="1024" height="1024" viewBox="0 0 1024 1024" fill="none" xmlns="http://www.w3.org/2000/svg">
<path d="M863.999 473.6L707.199 630.4C620.799 716.8 481.599 716.8 395.199 630.4C382.399 617.6 371.199 601.6 361.599 585.6L433.599 513.6C436.799 510.4 441.599 508.8 444.799 505.6C449.599 523.2 459.199 539.2 471.999 552C515.199 595.2 585.599 595.2 628.799 552L785.599 395.2C828.799 352 828.799 281.6 785.599 238.4C742.399 195.2 671.999 195.2 628.799 238.4L572.799 294.4C527.999 276.8 479.999 272 431.999 278.4L550.399 160C636.799 73.6002 775.999 73.6002 862.399 160C950.399 246.4 950.399 387.2 863.999 473.6ZM451.199 729.6L395.199 785.6C351.999 828.8 281.599 828.8 238.399 785.6C195.199 742.4 195.199 672 238.399 628.8L395.199 472C438.399 428.8 508.799 428.8 551.999 472C564.799 484.8 574.399 502.4 579.199 518.4C583.999 516.8 587.199 513.6 590.399 510.4L662.399 438.4C652.799 422.4 643.199 408 628.799 393.6C542.399 307.2 403.199 307.2 316.799 393.6L159.999 550.4C73.5992 636.8 73.5992 777.6 159.999 864C246.399 950.4 385.599 950.4 471.999 864L590.399 745.6C543.999 752 495.999 747.2 451.199 729.6Z" fill="black"/>
</svg>
