<svg width="1024" height="1024" viewBox="0 0 1024 1024" fill="none" xmlns="http://www.w3.org/2000/svg">
<path d="M505.173 250.88C506.88 252.587 508.586 254.293 510.293 254.293C512 254.293 515.413 254.293 515.413 250.88C515.413 247.467 512 245.76 508.586 245.76C505.173 244.053 501.759 244.053 498.346 245.76L496.639 247.467C500.052 250.88 503.466 250.88 505.172 250.88H505.173ZM413.013 300.373C416.426 303.786 421.546 308.906 428.373 314.026C443.733 327.679 462.506 334.506 481.28 334.506C503.467 332.799 525.653 325.973 544.427 314.026C554.667 308.906 564.907 302.079 573.44 293.546C580.267 286.719 585.387 281.599 580.267 279.893C575.147 278.187 575.147 285.013 568.32 290.133C559.787 296.96 551.253 303.786 541.013 308.906C523.946 320.853 503.466 327.679 482.986 329.386C464.213 329.386 447.146 322.559 433.493 310.613C426.666 305.493 421.546 300.373 418.133 296.96C416.426 293.547 413.013 290.133 409.6 286.72C406.187 288.427 406.187 295.253 413.013 300.373ZM626.347 969.387C640 1000.11 672.427 1017.17 704.854 1013.76C742.401 1008.64 776.534 989.867 798.721 959.147L800.428 960.854C827.735 928.427 870.401 914.774 899.415 897.707C914.775 890.88 925.015 877.227 926.722 861.867C926.722 846.507 918.189 827.734 896.002 803.84C889.175 791.893 884.055 778.24 882.349 764.587C880.642 747.52 873.816 732.16 861.869 720.214C860.162 718.507 856.749 716.801 853.336 715.094C851.629 713.387 848.216 711.681 844.803 711.681C860.163 660.481 858.456 605.868 837.976 556.374C815.789 503.467 785.069 453.974 745.816 409.601C711.683 366.934 679.256 327.681 680.963 267.948C680.963 177.495 691.203 10.2412 532.483 10.2412C525.656 10.2412 518.83 10.2412 512.003 10.2412C336.216 23.8942 382.296 211.628 380.59 273.068C378.883 319.148 363.523 363.521 336.217 399.361C286.724 455.681 249.177 520.534 221.87 590.508C209.923 624.641 204.803 660.481 209.923 694.615C208.216 696.322 206.51 698.028 204.803 699.735C194.563 711.682 186.03 725.335 177.496 735.575C167.256 744.108 157.016 749.228 145.069 752.642C129.709 757.762 117.762 768.002 109.229 781.655C104.109 788.482 102.402 797.015 102.402 805.548C102.402 814.081 104.109 820.908 104.109 829.441C107.522 843.094 107.522 856.748 105.816 870.401C95.5758 899.414 93.8688 918.188 100.696 933.548C109.229 947.201 122.883 955.735 139.949 957.441C174.082 964.268 220.162 962.561 256.002 981.334C288.429 1000.11 327.682 1008.64 365.229 1001.81C387.416 996.694 406.189 983.041 416.429 962.561C440.322 962.561 467.629 952.321 512.002 948.908C541.015 947.201 578.562 959.148 619.522 957.441C622.935 960.854 624.642 964.268 626.349 969.388L626.347 969.387ZM853.333 730.453C861.866 740.693 868.693 754.346 870.4 768C872.107 785.067 878.933 800.427 889.173 812.373C911.36 834.56 914.773 851.626 914.773 860.16C911.36 872.107 904.533 880.64 892.586 885.76C866.986 901.12 819.199 916.48 790.186 952.32C769.706 979.627 738.986 998.4 704.853 1001.81C677.546 1005.23 650.24 989.866 638.293 964.266C629.76 947.199 631.466 921.599 640 892.586C648.533 866.986 653.653 839.679 657.067 812.373C657.067 786.773 660.48 761.173 667.307 737.28C670.72 720.213 680.96 704.853 696.32 696.32L698.027 694.613C699.734 720.213 711.68 747.52 735.574 752.64C759.468 757.76 795.307 737.28 810.667 720.213H819.2C831.147 718.506 843.093 721.92 853.333 730.453ZM501.76 213.333C501.76 203.093 503.467 192.853 510.293 182.613C515.413 174.08 522.24 165.546 530.773 160.426C535.893 155.306 546.133 153.599 554.666 153.599C563.199 153.599 571.733 155.306 578.559 160.426C587.092 165.546 593.919 172.373 597.332 180.906C602.452 191.146 604.159 201.386 604.159 211.626C604.159 211.626 604.159 211.626 604.159 213.333C604.159 225.28 602.452 235.52 597.332 245.76C595.625 250.88 592.212 256 588.799 261.12L585.386 259.413L573.439 254.293L563.199 249.173C566.612 245.76 568.319 244.053 571.732 240.64C573.439 235.52 575.145 228.693 575.145 223.573C575.145 218.453 575.145 211.626 571.732 206.506C570.025 201.386 568.319 196.266 563.199 192.853C559.786 189.44 556.372 187.733 551.252 187.733C547.839 187.733 542.719 189.44 541.012 192.853C537.599 196.266 534.185 201.386 532.479 204.8C530.772 209.92 529.066 216.747 529.066 221.867C529.066 225.28 529.066 228.694 529.066 232.107C520.533 228.694 510.293 225.28 501.759 223.574C501.759 220.161 501.759 213.334 501.759 213.334L501.76 213.333ZM401.067 187.733C402.774 179.2 406.187 172.373 411.307 167.253C416.427 162.133 421.547 158.72 428.374 158.72H430.081C436.908 158.72 442.028 160.427 447.148 165.547C452.268 170.667 457.388 177.494 460.801 184.32C464.214 192.853 467.628 199.68 467.628 209.92C467.628 209.92 467.628 220.16 467.628 223.573C465.921 223.573 453.975 228.693 448.855 232.106C448.855 228.693 448.855 225.279 448.855 221.866C448.855 216.746 447.148 211.626 445.442 208.213C443.736 204.8 442.029 201.386 438.615 197.973C436.908 196.266 433.495 194.56 430.082 194.56C426.669 194.56 423.255 196.267 421.549 199.68C418.136 203.093 416.429 206.507 416.429 211.627C414.722 216.747 414.722 221.867 414.722 226.987C414.722 232.107 416.429 237.227 418.135 240.64C419.841 244.053 421.548 247.467 424.962 250.88L426.669 252.587L416.429 259.414C411.309 254.294 407.896 249.174 406.189 242.347C402.776 233.814 401.069 223.574 401.069 215.04C399.362 206.507 399.362 196.267 401.069 187.733H401.067ZM424.96 332.8C411.307 325.973 401.067 315.733 395.947 302.08C392.534 293.547 395.947 283.307 404.48 278.187L424.96 262.827C428.373 261.12 430.08 259.414 433.493 256C443.733 245.76 455.68 238.933 467.626 232.107C474.453 230.4 479.573 228.694 486.399 228.694C505.172 230.401 522.239 235.521 537.599 247.467C551.252 254.294 566.612 261.12 581.972 266.24C590.505 267.947 597.332 273.067 602.452 281.6C605.865 288.427 605.865 295.253 602.452 300.373C595.625 319.146 578.559 332.8 558.079 334.506C547.839 343.039 537.599 349.866 525.652 353.279C513.705 361.812 498.345 365.226 482.985 365.226C471.038 365.226 459.092 360.106 450.558 353.279C440.318 346.452 431.785 339.626 424.958 332.799L424.96 332.8ZM411.307 933.547C411.307 960.854 392.534 984.747 363.52 988.16C329.387 993.28 293.547 986.453 262.827 969.387C221.867 947.2 174.08 950.614 143.36 943.787C131.413 943.787 119.467 936.96 112.64 926.72C107.52 918.187 107.52 901.12 117.76 875.52C121.173 860.16 121.173 843.093 116.053 827.733C112.64 814.08 112.64 800.426 117.76 786.773C124.587 774.826 134.827 768 146.773 764.586C160.426 761.173 174.08 754.346 186.026 745.813C196.266 733.866 204.799 720.213 213.333 709.973C220.16 701.44 230.4 696.32 240.64 696.32H247.467C266.24 701.44 281.6 711.68 291.84 727.04L331.093 797.013C344.746 820.906 361.813 844.8 380.586 865.28C397.653 884.053 407.893 907.947 411.306 933.547H411.307ZM407.893 882.347C402.773 873.814 397.653 866.987 390.826 858.454L378.879 843.094C385.706 843.094 392.532 841.387 397.652 839.681C404.479 836.268 407.892 832.854 411.305 826.028C416.425 814.081 411.305 797.015 395.945 776.535C373.758 750.935 348.158 730.455 320.852 713.388C298.665 699.735 283.305 679.255 273.065 655.361C266.238 633.174 266.238 609.281 273.065 587.094C285.012 546.134 302.078 506.881 325.972 471.041C331.092 467.628 327.679 477.868 308.905 512.001C291.838 544.428 261.118 617.814 303.785 674.134C305.492 633.174 314.025 592.214 331.092 554.667C354.985 501.76 404.479 409.6 407.892 334.507C411.305 337.92 416.425 341.334 419.839 344.747C428.372 349.867 436.906 356.694 443.732 361.814C453.972 368.641 467.625 373.761 479.572 372.054H484.692C500.052 372.054 513.705 366.934 525.652 358.401C535.892 351.574 546.132 346.454 556.372 341.334C573.439 336.214 588.799 325.974 600.745 312.321C619.518 377.174 643.412 440.321 674.132 500.054C696.319 539.307 711.679 581.974 720.212 626.347C727.039 626.347 733.865 626.347 742.399 629.76C769.706 559.787 720.212 484.693 696.319 462.507C687.786 453.974 686.079 448.854 691.199 448.854C725.332 479.574 749.226 520.534 759.466 564.907C764.586 588.8 764.586 612.694 759.466 634.88L767.999 638.293C810.666 658.773 827.732 677.546 819.199 703.146H812.372C819.199 682.666 803.839 669.013 767.999 651.946C732.159 634.879 699.732 636.586 692.906 670.719C692.906 672.426 692.906 674.132 692.906 675.839C689.493 677.546 686.079 677.546 684.373 679.252C665.6 689.492 653.653 708.265 650.24 728.745C643.413 754.345 640 781.652 641.707 807.252C640 826.025 634.88 844.799 628.054 863.572C568.321 913.065 481.281 933.545 407.894 882.345L407.893 882.347ZM462.507 254.293C464.214 254.293 465.92 252.586 467.627 250.88C471.04 250.88 472.747 249.173 474.454 247.467C474.454 245.76 474.454 245.76 472.747 245.76C469.334 244.053 465.92 244.053 462.507 245.76C459.094 245.76 457.387 249.173 455.68 250.88C459.093 254.293 460.8 254.293 462.507 254.293Z" fill="black"/>
</svg>
