<svg width="1024" height="1024" viewBox="0 0 1024 1024" fill="none" xmlns="http://www.w3.org/2000/svg">
<path d="M112 160.54C112 133.732 133.732 112 160.54 112H863.46C890.268 112 912 133.732 912 160.54V266.793C912 293.601 890.268 315.333 863.46 315.333H160.54C133.732 315.333 112 293.601 112 266.793V160.54Z" fill="black"/>
<path d="M112 458.873C112 432.065 133.732 410.333 160.54 410.333H863.46C890.268 410.333 912 432.065 912 458.873V565.127C912 591.935 890.268 613.667 863.46 613.667H160.54C133.732 613.667 112 591.935 112 565.127V458.873Z" fill="black"/>
<path d="M112 757.207C112 730.399 133.732 708.667 160.54 708.667H863.46C890.268 708.667 912 730.399 912 757.207V863.46C912 890.268 890.268 912 863.46 912H160.54C133.732 912 112 890.268 112 863.46V757.207Z" fill="black"/>
</svg>
