<!-- Generated by IcoMoon.io -->
<svg version="1.1" xmlns="http://www.w3.org/2000/svg" width="32" height="32" viewBox="0 0 32 32">
<path d="M2.413 3.448h17.177v11.027h-17.177v-11.027zM7.699 23.267h-2.643c-1.46 0-2.643 1.183-2.643 2.643v0 2.642h7.928v-2.642c0-1.459-1.183-2.643-2.643-2.643v0zM6.377 21.946c1.459-0.001 2.642-1.184 2.642-2.643s-1.183-2.643-2.643-2.643-2.643 1.183-2.643 2.643c0 0 0 0 0 0.001v-0c0 1.459 1.183 2.642 2.642 2.642 0.001 0 0.001 0 0.002 0h-0zM15.627 21.946c1.459 0 2.643-1.183 2.643-2.643s-1.183-2.643-2.643-2.643c-1.46 0-2.643 1.183-2.643 2.643 0 0 0 0 0 0.001v-0c0 1.459 1.183 2.642 2.642 2.642 0 0 0 0 0.001 0h-0zM16.948 23.267h-2.643c-0 0-0 0-0.001 0-1.459 0-2.642 1.183-2.642 2.642 0 0 0 0 0 0.001v-0 2.642h7.927v-2.642c0-0 0-0 0-0.001 0-1.459-1.183-2.642-2.642-2.642v0zM28.266 6.090c0 1.46-1.183 2.643-2.643 2.643s-2.643-1.183-2.643-2.643c0-1.46 1.183-2.643 2.643-2.643s2.643 1.183 2.643 2.643zM26.944 10.054h-11.231v2.372h5.946v16.125h2.643v-7.927h1.322v7.927h2.644v-9.249h1.322v-6.607c0-1.459-1.183-2.642-2.642-2.642-0.001 0-0.002 0-0.002 0h0z"></path>
</svg>
