<svg width="1024" height="1024" viewBox="0 0 1024 1024" fill="none" xmlns="http://www.w3.org/2000/svg">
<path d="M579.202 497.333H634.082V512.165C650.084 504.865 668.814 498.709 688.309 494.635L690.082 494.325V359.477H909.778V544.117C931.212 560.304 949.67 578.843 965.263 599.654L965.778 600.373V303.477H634.082V441.333H579.202C566.699 397.492 526.998 365.932 479.926 365.932C459.861 365.932 441.136 371.666 425.299 381.585L425.731 381.333L342.403 304.533V70.6611H58.2266V354.805H314.355L387.731 422.501C380.587 436.109 376.394 452.231 376.394 469.333C376.394 486.435 380.586 502.558 388 516.729L387.731 516.165L314.355 583.861H58.2266V868.005H342.403V634.213L425.731 557.333C441.133 566.989 459.851 572.717 479.907 572.717C526.979 572.717 566.682 541.167 579.024 498.061L579.202 497.334V497.333ZM479.762 516.709C453.602 516.691 432.402 495.48 432.402 469.317C432.402 443.143 453.62 421.925 479.794 421.925C505.968 421.925 527.186 443.143 527.186 469.317C527.186 469.323 527.186 469.328 527.186 469.334V469.333C527.15 495.489 505.951 516.682 479.797 516.709H479.794H479.762ZM744.754 520.325C744.749 520.325 744.744 520.325 744.738 520.325C609.945 520.325 500.674 629.596 500.674 764.389C500.674 899.182 609.945 1008.45 744.738 1008.45C879.531 1008.45 988.802 899.182 988.802 764.389C988.802 764.383 988.802 764.378 988.802 764.372C988.638 629.654 879.472 520.489 744.77 520.325H744.754ZM871.682 800.533L775.826 704.677V943.077H713.714V704.677L617.842 800.533L573.922 756.581L744.77 585.749L915.586 756.581L871.682 800.533Z" fill="black"/>
</svg>
