<svg width="1024" height="1024" viewBox="0 0 1024 1024" fill="none" xmlns="http://www.w3.org/2000/svg">
<path d="M348.403 391.533L390.339 323.405L444.841 356.953L402.905 425.081L348.403 391.533ZM429.471 441.599L471.407 373.471L525.909 407.019L483.973 475.147L429.471 441.599ZM480.111 688.853L308.799 366.933L321.599 374.933L363.199 306.133L347.199 296.533H721.599C726.697 308.945 733.725 319.567 742.426 328.561L742.399 328.533L684.799 443.733C680.072 443.415 674.553 443.233 668.991 443.233C663.429 443.233 657.91 443.414 652.439 443.772L653.183 443.733C637.549 445.812 623.385 450.314 610.445 456.88L611.199 456.533L556.799 422.933L511.999 493.333L566.399 526.933C566.399 526.933 564.799 541.333 564.799 550.933C564.799 552.533 564.975 554.133 565.055 555.733C612.983 513.908 676.097 488.405 745.167 488.405C745.223 488.405 745.28 488.405 745.336 488.405H745.327C748.927 488.405 752.447 488.805 756.015 488.949C755.167 487.781 754.511 486.437 753.599 485.333L814.399 363.733H819.199C877.52 363.733 924.799 316.454 924.799 258.133C924.799 199.812 877.52 152.533 819.199 152.533C819.145 152.533 819.082 152.533 819.018 152.533C775.204 152.533 737.65 179.334 721.855 217.436L721.599 218.133H302.399C286.348 179.334 248.794 152.533 204.98 152.533C204.916 152.533 204.853 152.533 204.789 152.533H204.799C146.478 152.533 99.1992 199.812 99.1992 258.133C99.1992 316.454 146.478 363.733 204.799 363.733H214.399L438.399 778.133C424.435 795.407 415.981 817.638 415.981 841.844C415.981 842.508 415.987 843.171 416 843.831L415.999 843.732C416.528 901.839 463.492 948.803 521.548 949.332H521.599C527.942 949.318 534.139 948.736 540.154 947.636L539.519 947.732C496.007 899.448 469.389 835.196 469.389 764.728C469.389 737.697 473.306 711.58 480.602 686.915L480.11 688.852L480.111 688.853ZM744.751 520.325C744.746 520.325 744.741 520.325 744.735 520.325C609.942 520.325 500.671 629.596 500.671 764.389C500.671 899.182 609.942 1008.45 744.735 1008.45C879.528 1008.45 988.799 899.182 988.799 764.389C988.799 764.383 988.799 764.378 988.799 764.372C988.635 629.654 879.469 520.489 744.767 520.325H744.751ZM871.679 800.533L775.823 704.677V943.077H713.711V704.677L617.839 800.533L573.919 756.581L744.767 585.749L915.583 756.581L871.679 800.533Z" fill="black"/>
</svg>
