<svg width="1024" height="1024" viewBox="0 0 1024 1024" fill="none" xmlns="http://www.w3.org/2000/svg">
<path d="M686.4 950.4L598.4 859.2H536V689.6H670.4L620.8 641.6L532.8 548.8L492.8 510.4L313.6 689.6H448V950.4H686.4ZM404.8 732.8H208L492.8 448L550.4 505.6H862.4V425.6C864 403.2 854.4 382.4 836.8 364.8C819.2 347.2 800 339.2 776 339.2H731.2V251.2C731.2 190.4 710.4 139.2 667.2 95.9999C624 52.7999 572.8 30.3999 512 30.3999C451.2 30.3999 400 52.7999 356.8 95.9999C313.6 139.2 291.2 190.4 291.2 251.2V339.2H248C224 339.2 201.6 347.2 185.6 364.8C168 382.4 160 401.6 160 425.6V867.2C160 891.2 168 910.4 185.6 928C203.2 945.6 224 953.6 248 953.6H404.8V732.8ZM377.6 251.2C377.6 214.4 390.4 182.4 416 155.2C441.6 128 473.6 115.2 512 115.2C550.4 115.2 582.4 128 609.6 155.2C636.8 182.4 649.6 214.4 649.6 251.2V339.2H377.6V251.2ZM864 809.6V548.8H624L713.6 641.6H776V809.6H641.6L689.6 859.2L777.6 950.4L817.6 993.6L998.4 809.6H864Z" fill="black"/>
</svg>
