<svg width="1024" height="1024" viewBox="0 0 1024 1024" fill="none" xmlns="http://www.w3.org/2000/svg">
<path d="M720.059 367.497V284.28C720.084 283.112 720.098 281.736 720.098 280.356C720.098 224.312 696.898 173.686 659.578 137.559L659.524 137.507C622.298 99.2189 570.299 75.4639 512.751 75.4639C455.203 75.4639 403.204 99.2199 366.024 137.46L365.978 137.508C327.719 174.028 303.932 225.423 303.932 282.374C303.932 283.044 303.935 283.714 303.942 284.383L303.941 284.281V367.498H179.883V948.533H844.118V367.498L720.059 367.497ZM554.666 844.083H469.333V760.303H554.666V844.083ZM554.666 713.421H469.333V471.945H554.666V713.421ZM642.866 367.497H385.705V284.28C385.7 283.85 385.697 283.342 385.697 282.833C385.697 248.07 399.555 216.543 422.049 193.476L422.023 193.503C443.776 170.16 474.698 155.606 509.019 155.606C510.349 155.606 511.674 155.628 512.993 155.671L512.801 155.666C513.08 155.664 513.41 155.663 513.741 155.663C584.89 155.663 642.607 213.177 642.934 284.249V284.28L642.866 367.497Z" fill="black"/>
</svg>
