<svg width="1024" height="1024" viewBox="0 0 1024 1024" fill="none" xmlns="http://www.w3.org/2000/svg">
<path d="M304 860.8L356.8 808L409.6 860.8L462.4 808L515.2 860.8L568 808L620.8 860.8L673.6 808L726.4 860.8L779.2 808L832 860.8V166.4L779.2 219.2L720 166.4L667.2 219.2L614.4 166.4L561.6 219.2L512 166.4L459.2 219.2L406.4 166.4L353.6 219.2L304 166.4L251.2 219.2L198.4 166.4V860.8L251.2 808L304 860.8ZM304 339.2H720V409.6H304V339.2ZM304 480H720V548.8H304V480ZM304 619.2H720V688H304V619.2Z" fill="black"/>
</svg>
