<svg width="1024" height="1024" viewBox="0 0 1024 1024" fill="none" xmlns="http://www.w3.org/2000/svg">
<path d="M401.515 390.457L151.744 823.073C147.032 831.235 149.828 841.673 157.991 846.386L229.379 887.602C237.542 892.315 247.98 889.518 252.693 881.355L502.464 448.74C507.176 440.577 504.38 430.139 496.217 425.426L424.829 384.21C416.666 379.497 406.228 382.294 401.515 390.457Z" fill="black"/>
<path d="M487.441 241.519L435.558 331.383C430.845 339.546 433.642 349.983 441.805 354.696L513.193 395.912C521.356 400.625 531.794 397.828 536.507 389.665L588.389 299.802C593.102 291.639 590.305 281.201 582.142 276.488L510.754 235.273C502.591 230.56 492.154 233.356 487.441 241.519Z" fill="black"/>
<path fill-rule="evenodd" clip-rule="evenodd" d="M676.693 456.533L637.098 452.779L631.466 439.637L621.397 416.427L611.328 439.808L605.696 453.12L566.101 456.875L585.216 473.6L595.968 483.157L592.725 497.152L587.093 521.899L608.938 508.928L621.397 501.589L633.856 508.928L655.701 521.899L650.069 497.152L646.826 483.157L657.578 473.6L676.693 456.875V456.533ZM874.496 300.203L807.935 294.059L798.378 271.872L781.482 232.789L764.586 271.872L755.029 294.059L688.469 300.203L720.554 328.363L738.816 344.235L724.138 409.429L760.832 387.584L781.653 375.296L839.167 409.259L824.49 344.064L842.581 328.021L874.496 299.861V300.203ZM701.952 165.547L682.154 163.669L670.89 162.645L666.453 152.235L658.602 133.973L650.752 152.235L646.314 162.645L635.05 163.669L615.253 165.547L630.101 178.688L638.634 186.197L636.245 197.12L631.808 216.576L648.874 206.507L658.602 200.704L668.33 206.507L685.397 216.576L680.96 197.291L678.4 186.368L686.933 178.859L701.781 165.717L701.952 165.547Z" fill="black"/>
</svg>
