<!-- Generated by IcoMoon.io -->
<svg version="1.1" xmlns="http://www.w3.org/2000/svg" width="32" height="32" viewBox="0 0 32 32">
<path d="M26 3.386l3.5 3.5-1.2 1.2-0.3-0.45-3.15-3.15 1.15-1.1zM1.9 6.886l2.25 3.55 2.4 0.2 5.2 5.2-2.1 2.1 0.85 0.85-7.050 7.1c0.45 1.7 1.9 3.1 3.55 3.55l7.4-7.4 8.15 8.15c2.95-0.8 4.6-2.8 5.55-5.55l-8.050-8.15 1.75-1.75 4.45 4.45 3.85-3.85-2.95-6.85-6.1-6.1-1.35-0.050-4.5 4.45 0.1 1.55 2.85 2.85-1.4 1.4-0.85-0.85-2.15 2.1-5.1-5.15-0.2-2.55-3.55-2.25-3 3zM18.45 19.536l0.95-0.95 6.45 6.45-0.75 1.2-6.65-6.7zM16.4 21.586l0.95-0.95 6.7 6.7-1.2 0.75-6.45-6.5z"></path>
</svg>
