<svg width="1024" height="1024" viewBox="0 0 1024 1024" fill="none" xmlns="http://www.w3.org/2000/svg">
<path d="M876.801 148.8H627.201C617.601 124.8 603.201 105.6 582.401 89.6C560.001 75.2 539.201 67.2 512.001 67.2C486.401 67.2 464.001 75.2 443.201 89.6C422.401 104 408.001 124.8 398.401 148.8H148.801V956.8H876.801V148.8ZM484.801 160C492.801 152 502.401 148.8 513.601 148.8C524.801 148.8 534.401 152 542.401 160C550.401 168 553.601 177.6 553.601 188.8C553.601 200 550.401 209.6 542.401 217.6C534.401 225.6 524.801 228.8 513.601 228.8C502.401 228.8 492.801 225.6 484.801 217.6C476.801 209.6 473.601 200 473.601 188.8C473.601 177.6 476.801 168 484.801 160ZM796.801 876.8H228.801V228.8H308.801V350.4H715.201V228.8H795.201V876.8H796.801ZM310.401 654.4H478.401L419.201 715.2C444.801 739.2 476.801 750.4 512.001 750.4H515.201C555.201 750.4 587.201 736 616.001 708.8C632.001 692.8 643.201 672 651.201 649.6L652.801 644.8H718.401L716.801 654.4C707.201 692.8 689.601 726.4 660.801 755.2C619.201 795.2 569.601 816 512.001 816C457.601 816 409.601 796.8 371.201 761.6L310.401 822.4V654.4ZM307.201 571.2L308.801 561.6C318.401 523.2 336.001 489.6 364.801 460.8C404.801 419.2 454.401 398.4 512.001 398.4C566.401 398.4 614.401 416 654.401 452.8L715.201 392L713.601 561.6L547.201 563.2L608.001 502.4C580.801 478.4 550.401 465.6 512.001 467.2C472.001 467.2 440.001 481.6 411.201 510.4C395.201 526.4 382.401 547.2 376.001 569.6L374.401 576L307.201 571.2Z" fill="black"/>
</svg>
