<svg width="1024" height="1024" viewBox="0 0 1024 1024" fill="none" xmlns="http://www.w3.org/2000/svg">
<g clip-path="url(#clip0_2_691)">
<path d="M0 336C0 356.8 14.4 374.4 44.8 392C65.6 404.8 92.8 416 124.8 424V408C124.8 408 124.8 408 124.8 406.4V350.4C124.8 336 128 324.8 132.8 313.6C78.4 300.8 33.6 284.8 0 260.8V336ZM193.6 254.4C222.4 236.8 257.6 224 299.2 212.8V168C299.2 168 299.2 168 299.2 166.4V112C299.2 54.4 350.4 24 368 14.4C376 9.6 384 4.8 393.6 1.6C376 0 358.4 0 339.2 0C278.4 0 220.8 4.8 169.6 14.4C118.4 24 75.2 38.4 44.8 56C14.4 73.6 0 91.2 0 112V168C0 188.8 14.4 206.4 44.8 224C75.2 241.6 116.8 256 168 265.6C169.6 265.6 171.2 265.6 172.8 267.2C180.8 260.8 188.8 256 193.6 254.4ZM0 673.6C0 692.8 14.4 712 44.8 729.6C65.6 742.4 92.8 753.6 124.8 761.6V748.8C124.8 747.2 124.8 744 124.8 742.4V649.6C73.6 636.8 32 619.2 0 598.4V673.6ZM0 504C0 523.2 14.4 542.4 44.8 560C65.6 572.8 92.8 584 124.8 592V576C124.8 576 124.8 576 124.8 574.4V480C73.6 468.8 32 451.2 0 428.8V504ZM347.2 112V168C347.2 179.2 352 190.4 361.6 201.6C408 195.2 459.2 190.4 512 190.4C564.8 190.4 614.4 193.6 660.8 201.6C670.4 203.2 680 204.8 689.6 206.4C700.8 208 712 211.2 721.6 212.8C763.2 222.4 798.4 236.8 828.8 252.8C833.6 256 841.6 260.8 849.6 265.6C851.2 265.6 852.8 265.6 854.4 264C907.2 252.8 947.2 240 977.6 222.4C1008 204.8 1022.4 187.2 1022.4 166.4V112C1024 91.2 1009.6 73.6 979.2 56C948.8 38.4 907.2 24 856 14.4C803.2 4.8 747.2 0 686.4 0C667.2 0 649.6 0 630.4 1.6C590.4 3.2 552 8 516.8 14.4C515.2 14.4 513.6 14.4 512 16C507.2 17.6 502.4 17.6 497.6 19.2C484.8 22.4 473.6 25.6 462.4 28.8C446.4 33.6 430.4 38.4 416 44.8C408 48 400 51.2 392 56C361.6 73.6 347.2 91.2 347.2 112ZM897.6 424C918.4 417.6 937.6 412.8 953.6 404.8C963.2 401.6 971.2 396.8 977.6 392C988.8 385.6 998.4 379.2 1004.8 372.8C1016 361.6 1022.4 350.4 1022.4 336V260.8C988.8 284.8 945.6 302.4 891.2 313.6C896 324.8 899.2 337.6 899.2 350.4V406.4C899.2 412.8 899.2 417.6 897.6 424ZM1020.8 504V428.8C1012.8 435.2 1003.2 441.6 992 446.4C982.4 451.2 971.2 457.6 958.4 460.8C947.2 465.6 934.4 470.4 920 473.6C912 475.2 904 478.4 896 480V505.8C930.2 514.9 961.7 530.8 988.8 551.9C1010.5 536.9 1020.8 521.6 1020.8 504ZM613.4 907.2C580.7 910.4 546.6 912 512 912C443.2 912 379.2 905.6 318.4 892.8C257.6 880 209.6 860.8 172.8 836.8V912C172.8 931.2 187.2 950.4 217.6 968C248 985.6 289.6 1000 340.8 1009.6C395.2 1019.2 451.2 1024 512 1024C528 1024 542.4 1024 556.8 1022.4C585.6 1020.8 614.4 1019.2 641.6 1016C654.4 1014.4 668.8 1012.8 681.6 1009.6C697.2 1005.7 712.7 1002.9 726.6 999.4C680.6 979.9 641.4 947.7 613.4 907.2ZM567.5 742.6C549.7 743.5 531.7 744 513.6 744C476.8 744 441.6 742.4 408 737.6C377.6 734.4 348.8 729.6 321.6 724.8C320 724.8 318.4 724.8 316.8 723.2C259.2 712 212.8 692.8 176 668.8V744C176 755.2 180.8 764.8 190.4 776C195.2 782.4 204.8 790.4 219.2 798.4C243.2 812.8 273.6 824 310.4 833.6C320 836.8 331.2 838.4 342.4 840C395.2 849.6 451.2 854.4 512 854.4C536.9 854.4 560.9 853.6 584.2 852C573.1 823 567 791.5 567 758.5C567 753.2 567.2 747.9 567.5 742.6ZM653.1 564.5C638.8 566.5 624.2 568.2 609.6 569.6C577.6 572.8 545.6 574.4 513.6 574.4C478.4 574.4 443.2 572.8 411.2 569.6C380.8 566.4 350.4 561.6 320 555.2C313.6 553.6 307.2 552 299.2 550.4C248 537.6 206.4 521.6 172.8 499.2V574.4C172.8 577.6 172.8 579.2 172.8 582.4C174.4 587.2 176 592 177.6 596.8C179.2 600 180.8 601.6 182.4 604.8C190.4 614.4 200 622.4 216 630.4C236.8 643.2 264 654.4 296 662.4C308.8 665.6 323.2 668.8 337.6 672C339.2 672 340.8 672 344 673.6C345.6 673.6 345.6 673.6 347.2 673.6C396.8 681.6 451.2 686.4 508.8 686.4C524.8 686.4 539.2 686.4 553.6 684.8C561.7 684.3 569.9 683.9 578 683.4C591.8 637.1 618.2 596.1 653.1 564.5ZM217.6 462.4C238.4 475.2 265.6 486.4 297.6 494.4C310.4 497.6 324.8 500.8 339.2 504C340.8 504 342.4 504 345.6 505.6C396.8 515.2 451.2 518.4 508.8 518.4C566.4 518.4 619.2 513.6 670.4 505.6C673.6 505.6 676.8 504 680 504C694.4 500.8 707.2 497.6 718.4 494.4C740.8 488 760 481.6 777.6 475.2C787.2 472 795.2 467.2 801.6 462.4C812.8 456 822.4 449.6 828.8 443.2C830.4 441.6 833.6 438.4 835.2 436.8C843.2 427.2 846.4 417.6 846.4 406.4V350.4C846.4 340.8 843.2 332.8 836.8 323.2C838.4 320 836.8 316.8 833.6 313.6C827.2 307.2 817.6 300.8 806.4 294.4C795.2 288 782.4 281.6 769.6 276.8H768C755.2 272 740.8 267.2 724.8 262.4C718.4 260.8 710.4 259.2 702.4 257.6C696 256 689.6 254.4 683.2 254.4C654.4 249.6 625.6 244.8 595.2 243.2C582.4 240 569.6 240 556.8 240C542.4 240 528 238.4 512 238.4C483.2 238.4 456 240 428.8 241.6C398.4 243.2 369.6 248 342.4 252.8C326.4 256 312 259.2 297.6 262.4C281.6 267.2 267.2 272 254.4 276.8C240 281.6 227.2 288 217.6 294.4C201.6 304 188.8 313.6 182.4 323.2C176 331.2 172.8 340.8 172.8 350.4V406.4C172.8 417.6 176 427.2 184 436.8C192 446.4 201.6 454.4 217.6 462.4ZM976 761.6C976 755.2 976 750.4 974.4 742.4L1022.4 705.6L974.4 624L918.4 646.4C907.2 638.4 897.6 632 884.8 627.2L876.8 568H780.8L771.2 627.2C760 632 748.8 638.4 737.6 646.4L681.6 624L678.4 630.4L640 697.6L636.8 704L684.8 740.8C684.8 748.8 684.8 753.6 684.8 760C684.8 766.4 684.8 771.2 684.8 779.2L636.8 816L641.6 824L681.6 891.2L684.8 897.6L740.8 875.2C752 883.2 761.6 889.6 774.4 894.4L782.4 953.6C782.4 953.6 785.6 953.6 792 953.6H870.4C876.8 953.6 880 953.6 880 953.6L888 894.4C899.2 889.6 910.4 883.2 921.6 875.2L977.6 897.6L980.8 891.2L1020.8 824L1025.6 816L977.6 779.2C976 772.8 976 768 976 761.6ZM876.8 809.6C864 822.4 848 830.4 828.8 830.4C809.6 830.4 795.2 824 780.8 809.6C768 796.8 760 779.2 760 761.6C760 742.4 766.4 726.4 780.8 713.6C793.6 700.8 809.6 692.8 828.8 692.8C848 692.8 862.4 699.2 876.8 713.6C889.6 726.4 897.6 744 897.6 761.6C897.6 779.2 891.2 796.8 876.8 809.6Z" fill="black"/>
</g>
<defs>
<clipPath id="clip0_2_691">
<rect width="1024" height="1024" fill="white"/>
</clipPath>
</defs>
</svg>
