<svg width="1024" height="1024" viewBox="0 0 1024 1024" fill="none" xmlns="http://www.w3.org/2000/svg">
<path d="M64 120H288V232H64V120ZM400 120H960V232H400V120ZM64 344H512V456H64V344ZM624 344H960V456H624V344ZM64 792H512V904H64V792ZM400 568V680H512C520 638.4 539.2 600 564.8 568H400ZM64 568H288V680H64V568ZM937.6 673.6L902.4 612.8C900.8 609.6 896 608 891.2 609.6L849.6 627.2C846.4 624 843.2 622.4 838.4 619.2C832 614.4 825.6 611.2 819.2 608L812.8 561.6C811.2 556.8 808 555.2 803.2 555.2H734.4C729.6 555.2 726.4 556.8 724.8 561.6L718.4 608C712 611.2 705.6 614.4 699.2 619.2C696 620.8 692.8 624 688 625.6L672 619.2L646.4 609.6C641.6 608 638.4 609.6 635.2 612.8L601.6 673.6C600 678.4 600 681.6 603.2 684.8L641.6 713.6C640 718.4 640 724.8 640 731.2C640 731.2 640 731.2 640 732.8C640 737.6 640 744 641.6 748.8L604.8 776C601.6 779.2 601.6 782.4 603.2 787.2L619.2 816L636.8 848C638.4 852.8 643.2 854.4 648 852.8L689.6 835.2C699.2 843.2 708.8 848 718.4 851.2L724.8 899.2C726.4 904 729.6 905.6 734.4 905.6H803.2C808 905.6 811.2 904 812.8 899.2L819.2 851.2C830.4 846.4 840 841.6 848 835.2L889.6 852.8C894.4 854.4 899.2 852.8 900.8 848L934.4 787.2C936 782.4 936 779.2 932.8 776L896 748.8C897.6 740.8 897.6 736 897.6 731.2C897.6 724.8 897.6 720 896 715.2L932.8 686.4C939.2 681.6 939.2 678.4 937.6 673.6ZM806.4 768C796.8 777.6 784 782.4 769.6 782.4C755.2 782.4 744 777.6 732.8 768C729.6 766.4 728 763.2 726.4 760C720 752 716.8 742.4 716.8 731.2C716.8 716.8 721.6 704 732.8 694.4C742.4 684.8 755.2 678.4 769.6 678.4C780.8 678.4 790.4 681.6 798.4 688C801.6 689.6 803.2 691.2 804.8 694.4C814.4 704 820.8 716.8 820.8 731.2C820.8 745.6 816 758.4 806.4 768Z" fill="black"/>
</svg>
