<svg width="1024" height="1024" viewBox="0 0 1024 1024" fill="none" xmlns="http://www.w3.org/2000/svg">
<path d="M129.602 592H566.402C614.402 537.6 684.802 502.4 763.202 502.4C811.202 502.4 856.002 515.2 896.002 539.2V438.4H129.602V592ZM206.402 476.8H281.602V552H206.402V476.8ZM129.602 361.6H896.002V208H129.602V361.6ZM206.402 246.4H281.602V321.6H206.402V246.4ZM129.602 820.8H508.802C504.002 801.6 502.402 782.4 502.402 763.2C502.402 729.6 508.802 697.6 521.602 667.2H129.602V820.8ZM206.402 705.6H281.602V780.8H206.402V705.6ZM929.602 716.8C932.802 713.6 932.802 710.4 931.202 705.6L896.002 644.8C894.402 641.6 889.602 640 884.802 641.6L843.202 659.2C833.602 651.2 824.002 646.4 814.402 641.6L808.002 595.2C808.002 593.6 806.401 592 804.802 590.4C803.202 588.8 801.602 588.8 798.402 588.8H729.602C726.402 588.8 724.802 588.8 723.202 590.4C720.002 592 720.002 593.6 718.402 596.8L712.002 643.2C700.802 648 691.202 654.4 683.202 660.8L640.002 641.6C635.202 640 632.002 641.6 628.802 644.8L616.002 667.2L593.602 705.6C592.002 710.4 592.002 713.6 595.202 716.8L632.002 745.6C630.402 750.4 630.402 756.8 630.402 763.2C630.402 769.6 630.402 774.4 632.002 780.8L595.202 808C592.002 811.2 592.002 814.4 593.602 819.2L595.202 820.8L628.802 880C630.402 884.8 635.202 886.4 640.002 884.8L681.602 867.2C691.202 875.2 700.802 880 710.402 883.2L716.802 931.2C718.401 936 721.602 937.6 726.402 937.6H795.202C800.002 937.6 803.202 936 804.802 931.2L811.202 883.2C822.402 878.4 832.002 873.6 840.002 867.2L881.602 884.8C886.402 886.4 891.202 884.8 892.802 880L926.402 819.2C928.002 814.4 928.002 811.2 924.802 808L891.202 782.4L888.002 779.2C889.602 771.2 889.602 766.4 889.602 761.6C889.602 755.2 889.602 750.4 888.002 745.6L891.202 742.4L929.602 716.8ZM814.402 763.2C814.402 777.6 809.602 790.4 798.402 800C788.802 809.6 776.002 814.4 761.602 814.4C747.202 814.4 736.002 809.6 724.802 800C715.202 790.4 708.802 777.6 708.802 763.2C708.802 748.8 713.602 736 724.802 726.4C734.401 716.8 747.202 710.4 761.602 710.4C776.002 710.4 787.202 715.2 798.402 726.4C809.602 736 814.402 748.8 814.402 763.2Z" fill="black"/>
</svg>
