<svg width="1024" height="1024" viewBox="0 0 1024 1024" fill="none" xmlns="http://www.w3.org/2000/svg">
<path d="M634.082 346.144V484H579.202C566.699 440.159 526.998 408.599 479.926 408.599C459.861 408.599 441.136 414.333 425.299 424.252L425.731 424L342.403 347.2V113.328H58.2266V397.472H314.355L387.731 465.168C380.587 478.776 376.394 494.898 376.394 512C376.394 529.102 380.586 545.225 388 559.396L387.731 558.832L314.339 626.528H58.2266V910.672H342.403V676.88L425.731 600C441.133 609.656 459.851 615.384 479.907 615.384C526.979 615.384 566.682 583.834 579.024 540.728L579.202 540.001H634.082V677.857H965.778V346.145L634.082 346.144ZM479.794 559.376C453.62 559.376 432.402 538.158 432.402 511.984C432.402 485.81 453.62 464.592 479.794 464.592C505.968 464.592 527.186 485.81 527.186 511.984C527.186 511.99 527.186 511.995 527.186 512.001C527.15 538.157 505.951 559.349 479.797 559.376H479.794ZM909.778 621.856H690.082V402.144H909.778V621.856Z" fill="black"/>
</svg>
