<!-- Generated by IcoMoon.io -->
<svg version="1.1" xmlns="http://www.w3.org/2000/svg" width="32" height="32" viewBox="0 0 32 32">
<path d="M28.423 4h-24.847c-0.414 0-0.75 0.336-0.75 0.75v18.482c0 0.414 0.336 0.75 0.75 0.75h9.432l-0.604 2.475h-0.693c-0 0-0 0-0.001 0-0.426 0-0.772 0.346-0.772 0.772v0c0 0 0 0 0 0 0 0.425 0.344 0.771 0.769 0.772h8.583c0.426 0 0.772-0.346 0.772-0.772v0 0c0-0.426-0.346-0.772-0.772-0.772v0h-0.697l-0.603-2.475h9.431c0.414 0 0.75-0.336 0.75-0.75v0-18.482c0-0.414-0.336-0.75-0.75-0.75v0zM13.994 26.456l0.603-2.474h2.805l0.603 2.474zM14.97 21.396c0-0.569 0.461-1.030 1.030-1.030s1.030 0.461 1.030 1.030c0 0.569-0.461 1.030-1.030 1.030v0c-0.569 0-1.030-0.461-1.030-1.030v0zM27.63 18.72h-23.26v-13.173h23.26zM13.053 16.614h3.506c0.471 0 0.853-0.382 0.853-0.853s-0.382-0.853-0.853-0.853h-3.506c-0.471 0-0.853 0.382-0.853 0.853s0.382 0.853 0.853 0.853v0zM13.053 13.010h5.893c0.471 0 0.853-0.382 0.853-0.853s-0.382-0.853-0.853-0.853h-5.893c-0.471 0-0.853 0.382-0.853 0.853s0.382 0.853 0.853 0.853v0zM13.053 9.406h5.893c0.471 0 0.853-0.382 0.853-0.853s-0.382-0.853-0.853-0.853h-5.893c-0.471 0-0.853 0.382-0.853 0.853s0.382 0.853 0.853 0.853v0z"></path>
</svg>
