<svg width="1024" height="1024" viewBox="0 0 1024 1024" fill="none" xmlns="http://www.w3.org/2000/svg">
<path d="M223.999 81.6H207.999L91.1992 196.8V212.8H223.999V81.6ZM372.799 81.6H259.199V249.6H91.1992V470.4H372.799V81.6ZM651.199 449.6H783.999V316.8H767.999L651.199 433.6V449.6ZM819.199 486.4H651.199V707.2H932.799V316.8H819.199V486.4ZM223.999 553.6H207.999L91.1992 668.8V684.8H223.999V553.6ZM372.799 553.6H259.199V721.6H91.1992V942.4H372.799V553.6ZM577.599 428.8L486.399 337.6C473.599 324.8 454.399 324.8 441.599 337.6C428.799 350.4 428.799 369.6 441.599 382.4L532.799 473.6C539.199 480 547.199 483.2 555.199 483.2C563.199 483.2 571.199 480 577.599 473.6C590.399 460.8 590.399 440 577.599 428.8ZM577.599 550.4C564.799 537.6 545.599 537.6 532.799 550.4L441.599 641.6C428.799 654.4 428.799 673.6 441.599 686.4C447.999 692.8 455.999 696 463.999 696C471.999 696 479.999 692.8 486.399 686.4L577.599 595.2C590.399 584 590.399 563.2 577.599 550.4Z" fill="black"/>
</svg>
