<svg width="1024" height="1024" viewBox="0 0 1024 1024" fill="none" xmlns="http://www.w3.org/2000/svg">
<path d="M137.6 638.4L216 772.8L224 785.6L336 740.8C356.8 756.8 377.6 769.6 401.6 779.2L419.2 897.6C419.2 897.6 425.6 897.6 436.8 897.6H590.4C603.2 897.6 608 897.6 608 897.6L625.6 779.2C648 769.6 668.8 756.8 691.2 740.8L803.2 785.6L811.2 772.8L889.6 638.4L897.6 624L801.6 550.4C804.8 536 804.8 523.2 804.8 512C804.8 500.8 803.2 488 801.6 473.6L897.6 400L800 238.4L688 283.2C667.2 267.2 646.4 254.4 622.4 244.8L606.4 126.4H417.6L400 243.2C377.6 252.8 356.8 265.6 334.4 281.6L222.4 236.8L214.4 251.2L136 385.6L129.6 400L225.6 473.6C224 488 224 500.8 224 512C224 523.2 224 536 225.6 550.4L129.6 624L137.6 638.4ZM417.6 416C444.8 388.8 475.2 376 512 376C548.8 376 580.8 388.8 606.4 416C633.6 443.2 646.4 475.2 646.4 512C646.4 548.8 633.6 580.8 606.4 608C579.2 635.2 548.8 648 512 648C475.2 648 443.2 635.2 417.6 608C390.4 580.8 377.6 548.8 377.6 512C377.6 475.2 390.4 443.2 417.6 416Z" fill="black"/>
</svg>
