<svg width="1024" height="1024" viewBox="0 0 1024 1024" fill="none" xmlns="http://www.w3.org/2000/svg">
<path d="M782.399 163.2H241.599C219.199 163.2 201.599 171.2 185.599 185.6C171.199 200 163.199 219.2 163.199 241.6V784C163.199 806.4 171.199 824 185.599 840C199.999 854.4 219.199 862.4 241.599 862.4H783.999C806.399 862.4 823.999 854.4 839.999 840C854.399 825.6 862.399 806.4 862.399 784V241.6C862.399 219.2 854.399 201.6 839.999 185.6C822.399 171.2 804.799 163.2 782.399 163.2ZM367.999 752H271.999V416H367.999V752ZM558.399 752H463.999V272H558.399V752ZM751.999 752H655.999V560H751.999V752Z" fill="black"/>
</svg>
