<svg width="1024" height="1024" viewBox="0 0 1024 1024" fill="none" xmlns="http://www.w3.org/2000/svg">
<path d="M432.001 278.4C448.001 268.8 465.601 262.4 486.401 256C451.201 249.6 412.801 246.4 371.201 246.4C326.401 246.4 284.801 249.6 248.001 257.6C209.601 265.6 180.801 275.2 158.401 288C136.001 300.8 124.801 313.6 124.801 329.6V371.2C124.801 385.6 136.001 400 158.401 412.8C180.801 425.6 209.601 435.2 248.001 443.2C286.401 451.2 326.401 454.4 371.201 454.4C372.801 454.4 374.401 454.4 376.001 454.4V363.2C376.001 337.6 385.601 305.6 432.001 278.4ZM248.001 563.2C286.401 571.2 326.401 574.4 371.201 574.4C372.801 574.4 374.401 574.4 376.001 574.4V492.8C374.401 492.8 372.801 492.8 371.201 492.8C320.001 492.8 273.601 488 228.801 478.4C184.001 468.8 150.401 456 124.801 438.4V492.8C124.801 507.2 136.001 521.6 158.401 534.4C180.801 545.6 209.601 556.8 248.001 563.2ZM124.801 739.2C124.801 753.6 136.001 768 158.401 780.8C180.801 793.6 209.601 803.2 248.001 811.2C286.401 819.2 326.401 822.4 371.201 822.4C379.201 822.4 385.601 822.4 393.601 822.4C379.201 804.8 376.001 787.2 376.001 772.8V740.8C374.401 740.8 372.801 740.8 371.201 740.8C320.001 740.8 273.601 736 228.801 726.4C184.001 716.8 150.401 704 124.801 686.4V739.2ZM124.801 616C124.801 630.4 136.001 644.8 158.401 657.6C180.801 670.4 209.601 680 248.001 688C286.401 696 326.401 699.2 371.201 699.2C372.801 699.2 374.401 699.2 376.001 699.2V617.6C374.401 617.6 372.801 617.6 371.201 617.6C320.001 617.6 273.601 612.8 228.801 603.2C184.001 593.6 150.401 580.8 124.801 563.2V616ZM915.201 470.4C896.001 483.2 872.001 494.4 841.601 504C832.001 507.2 820.801 508.8 809.601 512C798.401 513.6 787.201 516.8 776.001 518.4C764.801 520 753.601 521.6 740.801 523.2C716.801 524.8 692.801 526.4 667.201 526.4C654.401 526.4 641.601 526.4 630.401 524.8C620.801 524.8 611.201 523.2 601.601 523.2C576.001 521.6 550.401 516.8 526.401 512C504.001 507.2 484.801 502.4 467.201 494.4C462.401 492.8 459.201 491.2 454.401 488C443.201 483.2 432.001 476.8 422.401 470.4V524.8C422.401 528 422.401 532.8 424.001 536C425.601 540.8 430.401 547.2 435.201 552C438.401 555.2 443.201 558.4 448.001 561.6C451.201 563.2 452.801 564.8 456.001 566.4C457.601 568 460.801 568 462.401 569.6C478.401 577.6 496.001 584 518.401 590.4C526.401 592 534.401 593.6 542.401 595.2C544.001 595.2 544.001 595.2 545.601 595.2C564.801 598.4 584.001 601.6 604.801 603.2C609.601 603.2 614.401 603.2 617.601 604.8C633.601 606.4 651.201 606.4 668.801 606.4C680.001 606.4 691.201 606.4 700.801 606.4C716.801 606.4 732.801 604.8 747.201 603.2C761.601 601.6 777.601 600 792.001 596.8C816.001 592 835.201 587.2 852.801 579.2C864.001 576 873.601 571.2 881.601 566.4C884.801 564.8 886.401 563.2 889.601 561.6C892.801 560 894.401 558.4 896.001 556.8C900.801 553.6 904.001 550.4 905.601 547.2C908.801 544 910.401 540.8 912.001 536C913.601 531.2 913.601 529.6 913.601 524.8V470.4H915.201ZM915.201 360C915.201 356.8 915.201 352 913.601 348.8C912.001 345.6 910.401 342.4 907.201 337.6C904.001 334.4 900.801 331.2 897.601 328C896.001 326.4 892.801 324.8 891.201 323.2C888.001 321.6 886.401 320 883.201 318.4C875.201 313.6 865.601 308.8 854.401 305.6C836.801 299.2 816.001 292.8 793.601 288C779.201 284.8 764.801 283.2 748.801 281.6C734.401 280 718.401 278.4 702.401 278.4C691.201 278.4 680.001 278.4 670.401 278.4C648.001 278.4 627.201 280 606.401 281.6C596.801 283.2 588.801 283.2 580.801 284.8C569.601 286.4 558.401 288 547.201 289.6C537.601 291.2 528.001 292.8 520.001 296C494.401 302.4 473.601 310.4 457.601 320C454.401 321.6 452.801 323.2 449.601 324.8C444.801 328 440.001 331.2 436.801 334.4C432.001 339.2 428.801 344 425.601 350.4C424.001 353.6 424.001 356.8 424.001 361.6V403.2C424.001 406.4 424.001 411.2 425.601 414.4C427.201 419.2 432.001 425.6 436.801 430.4C440.001 433.6 444.801 436.8 449.601 440C452.801 441.6 454.401 443.2 457.601 444.8C459.201 446.4 462.401 446.4 464.001 448C480.001 456 497.601 462.4 520.001 468.8C528.001 470.4 536.001 472 544.001 473.6C545.601 473.6 545.601 473.6 547.201 473.6C566.401 476.8 585.601 480 606.401 481.6C611.201 481.6 616.001 481.6 619.201 483.2C635.201 484.8 652.801 484.8 670.401 484.8C681.601 484.8 692.801 484.8 702.401 484.8C718.401 484.8 734.401 483.2 748.801 481.6C763.201 480 779.201 478.4 793.601 475.2C817.601 470.4 836.801 465.6 854.401 457.6C865.601 454.4 875.201 449.6 883.201 444.8C886.401 443.2 888.001 441.6 891.201 440C894.401 438.4 896.001 436.8 897.601 435.2C902.401 432 905.601 428.8 907.201 425.6C910.401 422.4 912.001 419.2 913.601 414.4C915.201 409.6 915.201 408 915.201 403.2V360ZM915.201 593.6C896.001 606.4 872.001 617.6 841.601 627.2C832.001 630.4 820.801 632 809.601 635.2C798.401 638.4 787.201 640 776.001 641.6C764.801 643.2 753.601 644.8 740.801 646.4C716.801 648 692.801 649.6 667.201 649.6C654.401 649.6 641.601 649.6 630.401 648C620.801 648 611.201 646.4 601.601 646.4C576.001 644.8 550.401 640 526.401 635.2C504.001 630.4 484.801 625.6 467.201 617.6C462.401 616 459.201 614.4 454.401 611.2C443.201 606.4 432.001 600 422.401 593.6V648C422.401 651.2 422.401 656 424.001 659.2C425.601 664 430.401 670.4 435.201 675.2C438.401 678.4 443.201 681.6 448.001 684.8C451.201 686.4 452.801 688 456.001 689.6C457.601 691.2 460.801 691.2 462.401 692.8C478.401 700.8 496.001 707.2 518.401 713.6C526.401 715.2 534.401 716.8 542.401 718.4C544.001 718.4 544.001 718.4 545.601 718.4C564.801 721.6 584.001 724.8 604.801 726.4C609.601 726.4 614.401 726.4 617.601 728C633.601 729.6 651.201 729.6 668.801 729.6C680.001 729.6 691.201 729.6 700.801 729.6C716.801 729.6 732.801 728 747.201 726.4C761.601 724.8 777.601 723.2 792.001 720C816.001 715.2 835.201 710.4 852.801 702.4C864.001 699.2 873.601 694.4 881.601 689.6C884.801 688 886.401 686.4 889.601 684.8C892.801 683.2 894.401 681.6 896.001 680C900.801 676.8 904.001 673.6 905.601 670.4C908.801 667.2 910.401 664 912.001 659.2C913.601 656 913.601 652.8 913.601 648V593.6H915.201ZM435.201 796.8C438.401 800 443.201 803.2 448.001 806.4C451.201 808 452.801 809.6 456.001 811.2C457.601 812.8 460.801 812.8 462.401 814.4C478.401 822.4 496.001 828.8 518.401 835.2C526.401 836.8 536.001 840 545.601 841.6C564.801 844.8 584.001 848 604.801 849.6C625.601 851.2 646.401 852.8 668.801 852.8C680.001 852.8 691.201 852.8 700.801 852.8C716.801 852.8 732.801 851.2 747.201 849.6C761.601 848 777.601 846.4 792.001 843.2C816.001 838.4 835.201 833.6 852.801 825.6C864.001 822.4 873.601 817.6 881.601 812.8C884.801 811.2 886.401 809.6 889.601 808C892.801 806.4 894.401 804.8 896.001 803.2C900.801 800 904.001 796.8 905.601 793.6C908.801 790.4 910.401 787.2 912.001 782.4C913.601 779.2 913.601 776 913.601 771.2V716.8C894.401 729.6 870.401 740.8 840.001 750.4C830.401 753.6 819.201 755.2 808.001 758.4C796.801 761.6 785.601 763.2 774.401 764.8C763.201 766.4 752.001 768 739.201 769.6C715.201 771.2 691.201 772.8 665.601 772.8C652.801 772.8 640.001 772.8 628.801 771.2C619.201 771.2 609.601 769.6 600.001 769.6C574.401 768 548.801 763.2 524.801 758.4C502.401 753.6 483.201 748.8 465.601 740.8C460.801 739.2 457.601 737.6 452.801 734.4C441.601 729.6 430.401 723.2 420.801 716.8V771.2C420.801 774.4 420.801 779.2 422.401 782.4C427.201 787.2 430.401 792 435.201 796.8Z" fill="black"/>
</svg>
