<svg width="1024" height="1024" viewBox="0 0 1024 1024" fill="none" xmlns="http://www.w3.org/2000/svg">
<path d="M748.8 664V598.4C748.8 579.2 737.6 563.2 721.6 555.2L377.6 396.8V363.2C438.4 342.4 481.6 286.4 481.6 219.2C481.6 136 412.8 67.2 329.6 67.2C246.4 67.2 176 134.4 176 217.6C176 284.8 219.2 340.8 280 361.6V660.8C219.2 681.6 176 737.6 176 804.8C176 888 244.8 956.8 328 956.8C411.2 956.8 480 888 480 804.8C480 737.6 436.8 681.6 376 660.8V500.8L652.8 628.8V660.8C590.4 680 544 737.6 544 806.4C544 889.6 612.8 958.4 696 958.4C779.2 958.4 848 889.6 848 806.4C848 740.8 806.4 684.8 748.8 664ZM328 161.6C358.4 161.6 384 187.2 384 217.6C384 248 358.4 273.6 328 273.6C297.6 273.6 272 249.6 272 217.6C272 185.6 297.6 161.6 328 161.6ZM328 862.4C297.6 862.4 272 836.8 272 806.4C272 776 297.6 750.4 328 750.4C358.4 750.4 384 776 384 806.4C384 836.8 358.4 862.4 328 862.4ZM696 862.4C665.6 862.4 640 836.8 640 806.4C640 776 665.6 750.4 696 750.4C726.4 750.4 752 776 752 806.4C752 836.8 726.4 862.4 696 862.4Z" fill="black"/>
</svg>
