<svg width="1024" height="1024" viewBox="0 0 1024 1024" fill="none" xmlns="http://www.w3.org/2000/svg">
<path fill-rule="evenodd" clip-rule="evenodd" d="M102.016 803.311V220.533H331.141V328.135H479V435.744H545V328.135H692.859V220.533H921.984V475.732H921.734V543.361H921.984V803.467H754.297V803.311H692.859V583.342H626.469V693.412H397.344V583.342H331.109V803.311H102.016ZM203.453 260.533H291.141V328.135H203.453V260.533ZM203.453 368.135V435.732H439V368.135H203.453ZM881.984 328.135H794.297V260.533H881.984V328.135ZM881.984 368.135V435.732H646.438V368.135H881.984ZM291.109 583.361H203.422V653.26H291.109V583.361ZM203.422 693.412H291.109V763.311H203.422V693.412ZM586.469 583.361H498.781V653.412H586.469V583.361ZM794.297 583.361H881.984V653.412H794.297V583.361ZM881.984 693.416H794.297V763.467H881.984V693.416ZM881.734 475.744H203.453V543.342H881.734V475.744Z" fill="black"/>
</svg>
