<!-- Generated by IcoMoon.io -->
<svg version="1.1" xmlns="http://www.w3.org/2000/svg" width="32" height="32" viewBox="0 0 32 32">
<path d="M3.141 6.447v9.141h3.91l1.245-1.819c0.163-0.235 0.432-0.387 0.736-0.387 0.374 0 0.694 0.23 0.827 0.556l0.002 0.006 0.978 2.459 1.813-7.204c0.101-0.391 0.45-0.675 0.866-0.675 0.431 0 0.791 0.306 0.874 0.712l0.001 0.006 1.871 9.294 1.666-6.686c0.101-0.39 0.45-0.674 0.866-0.674 0.358 0 0.667 0.211 0.809 0.516l0.002 0.005 1.784 3.896h0.596c0.324-0.588 0.939-0.98 1.646-0.98 1.034 0 1.873 0.838 1.873 1.873s-0.838 1.873-1.873 1.873c-0.003 0-0.006 0-0.010-0h0c-0.707-0.003-1.322-0.396-1.64-0.975l-0.005-0.010h-1.165c-0.001 0-0.001 0-0.002 0-0.357 0-0.665-0.211-0.805-0.515l-0.002-0.006-0.964-2.102-2.009 8.060c-0.099 0.39-0.448 0.674-0.862 0.674-0 0-0.001 0-0.001 0h-0.021c-0.422-0.010-0.771-0.312-0.852-0.712l-0.001-0.006-1.873-9.316-1.527 6.059c-0.097 0.369-0.415 0.642-0.801 0.67l-0.003 0c-0.019 0.002-0.042 0.002-0.065 0.002-0.373 0-0.691-0.23-0.822-0.556l-0.002-0.006-1.381-3.467-0.564 0.828c-0.163 0.235-0.431 0.388-0.735 0.389h-4.384v8.181h25.717v-19.104z"></path>
</svg>
