<svg width="1024" height="1024" viewBox="0 0 1024 1024" fill="none" xmlns="http://www.w3.org/2000/svg">
<path fill="currentColor" d="M470.443 52.2563C497.253 49.7787 522.431 65.4641 532.026 90.6215C541.62 115.779 533.28 144.247 511.628 160.251C482.501 181.781 458.363 209.341 440.861 241.051C423.358 272.761 412.902 307.875 410.208 343.995C407.515 380.114 412.646 416.39 425.252 450.345C437.858 484.301 457.643 515.136 483.254 540.748C508.865 566.359 539.701 586.143 573.656 598.749C607.612 611.355 643.888 616.487 680.007 613.793C716.127 611.1 751.24 600.644 782.95 583.141C814.66 565.638 842.221 541.5 863.75 512.374C879.754 490.722 908.223 482.382 933.38 491.976C958.538 501.57 974.223 526.748 971.745 553.559C963.69 640.721 930.979 723.787 877.438 793.037C823.896 862.286 751.74 914.855 669.412 944.592C587.085 974.329 497.99 980.006 412.555 960.956C327.119 941.905 248.876 898.917 186.981 837.022C125.085 775.126 82.0962 696.882 63.0461 611.447C43.996 526.011 49.6721 436.917 79.4093 354.589C109.147 272.262 161.715 200.105 230.965 146.564C300.214 93.0228 383.28 60.3113 470.443 52.2563ZM475.964 112.001C400.15 119.008 327.899 147.46 267.665 194.031L266.256 195.125C206.718 241.583 161.505 303.923 135.841 374.972L135.238 376.652C109.899 447.792 105.168 524.657 121.609 598.389C138.179 672.701 175.569 740.758 229.406 794.595C283.244 848.432 351.3 885.823 425.612 902.393C499.344 918.833 576.209 914.102 647.35 888.763L649.029 888.161C720.079 862.497 782.419 817.283 828.876 757.746L829.971 756.336C876.541 696.103 904.994 623.852 912 548.038C885.34 584.106 851.212 613.996 811.945 635.67C772.678 657.344 729.196 670.292 684.469 673.627L682.372 673.776C638.339 676.761 594.164 670.364 552.774 654.997C511.383 639.631 473.736 615.653 442.319 584.656L440.827 583.174C409.608 551.955 385.382 514.467 369.742 473.196L369.004 471.228C353.638 429.838 347.24 385.663 350.226 341.629L350.375 339.533C353.658 295.504 366.255 252.683 387.321 213.901L388.331 212.057C410.005 172.79 439.896 138.662 475.964 112.001Z" />
</svg>
