<svg width="5" height="15" viewBox="0 0 5 15" fill="none" xmlns="http://www.w3.org/2000/svg">
<path d="M1.15266 14.1083C0.824536 13.7802 0.649536 13.3646 0.649536 12.9052C0.649536 12.4458 0.824536 12.0302 1.15266 11.7021C1.48079 11.374 1.89641 11.199 2.37766 11.199C2.85891 11.199 3.27454 11.374 3.60266 11.7021C3.93079 12.0302 4.10579 12.4458 4.10579 12.9052C4.10579 13.3646 3.93079 13.7802 3.60266 14.1083C3.27454 14.4365 2.85891 14.6115 2.37766 14.6115C1.89641 14.6115 1.48079 14.4365 1.15266 14.1083ZM1.15266 8.98957C0.824536 8.66145 0.649536 8.24582 0.649536 7.78645C0.649536 7.32708 0.824536 6.91145 1.15266 6.58333C1.48079 6.2552 1.89641 6.0802 2.37766 6.0802C2.85891 6.0802 3.27454 6.2552 3.60266 6.58333C3.93079 6.91145 4.10579 7.32707 4.10579 7.78645C4.10579 8.24582 3.93079 8.66145 3.60266 8.98957C3.27454 9.3177 2.85891 9.4927 2.37766 9.4927C1.89641 9.4927 1.48079 9.3177 1.15266 8.98957ZM1.15266 3.87082C0.824535 3.5427 0.649536 3.14895 0.649536 2.6677C0.649536 2.20832 0.824535 1.7927 1.15266 1.46457C1.48079 1.13645 1.89641 0.96145 2.37766 0.96145C2.85891 0.96145 3.27454 1.13645 3.60266 1.46457C3.93078 1.7927 4.10579 2.20832 4.10579 2.6677C4.10579 3.12707 3.93078 3.5427 3.60266 3.87082C3.27454 4.19895 2.85891 4.37395 2.37766 4.37395C1.89641 4.37395 1.48079 4.19895 1.15266 3.87082Z" fill="#F7F5FA"/>
</svg>
