<svg width="1024" height="1024" viewBox="0 0 1024 1024" fill="none" xmlns="http://www.w3.org/2000/svg">
<path d="M422.402 974.4C398.402 950.4 385.602 920 385.602 886.4C385.602 852.8 398.402 822.4 422.402 798.4C446.402 774.4 476.802 761.6 512.002 761.6C547.202 761.6 577.602 774.4 601.602 798.4C625.602 822.4 638.402 852.8 638.402 886.4C638.402 920 625.602 950.4 601.602 974.4C577.602 998.4 547.202 1011.2 512.002 1011.2C476.802 1011.2 446.402 998.4 422.402 974.4ZM422.402 600C398.402 576 385.602 545.6 385.602 512C385.602 478.4 398.402 448 422.402 424C446.402 400 476.802 387.2 512.002 387.2C547.202 387.2 577.602 400 601.602 424C625.602 448 638.402 478.4 638.402 512C638.402 545.6 625.602 576 601.602 600C577.602 624 547.202 636.8 512.002 636.8C476.802 636.8 446.402 624 422.402 600ZM422.402 225.6C398.402 201.6 385.602 172.8 385.602 137.6C385.602 104 398.402 73.6002 422.402 49.6002C446.402 25.6002 476.802 12.8002 512.002 12.8002C547.202 12.8002 577.601 25.6002 601.601 49.6001C625.601 73.6001 638.402 104 638.402 137.6C638.402 171.2 625.601 201.6 601.601 225.6C577.601 249.6 547.202 262.4 512.002 262.4C476.802 262.4 446.402 249.6 422.402 225.6Z" fill="black"/>
</svg>
