<svg width="1024" height="1024" viewBox="0 0 1024 1024" fill="none" xmlns="http://www.w3.org/2000/svg">
<path d="M795.647 43.3494H409.087C398.847 43.3494 390.655 51.5414 390.655 61.7814V345.429C390.655 355.669 398.847 363.861 409.087 363.861H436.735C446.975 363.861 455.167 355.669 455.167 345.429V108.032H776.532L939.007 270.507V916.139H455.167V678.571C455.167 668.331 446.975 660.139 436.735 660.139H409.087C398.847 660.139 390.655 668.331 390.655 678.571V962.389C390.655 972.629 398.847 980.821 409.087 980.821H985.258C995.498 980.821 1003.69 972.629 1003.69 962.389V251.392C1003.69 246.443 1001.81 241.835 998.228 238.251L808.618 48.64C805.204 45.2267 800.426 43.1787 795.476 43.1787L795.647 43.3494Z" fill="black"/>
<path d="M687.615 335.019L666.623 356.011C658.943 363.691 658.943 376.32 666.623 384L759.807 477.184H410.623C399.7 477.184 390.826 486.059 390.826 496.981V526.677C390.826 537.6 399.7 546.475 410.623 546.475H759.807L666.623 639.659C658.943 647.339 658.943 659.968 666.623 667.648L687.615 688.64C695.295 696.32 707.924 696.32 715.604 688.64L878.42 525.824C886.1 518.144 886.1 505.515 878.42 497.835L715.604 335.019C707.924 327.339 695.295 327.339 687.615 335.019Z" fill="black"/>
<path d="M143.311 369.769L33.8551 479.225C15.7931 497.287 15.7931 526.572 33.8551 544.634L143.311 654.09C161.373 672.152 190.658 672.152 208.72 654.09L318.176 544.634C336.238 526.572 336.238 497.287 318.176 479.225L208.72 369.769C190.658 351.707 161.373 351.707 143.311 369.769Z" fill="black"/>
</svg>
