<svg width="1024" height="1024" viewBox="0 0 1024 1024" fill="none" xmlns="http://www.w3.org/2000/svg">
<path d="M459.2 750.4C464 611.2 579.2 500.8 720 500.8C763.2 500.8 804.8 512 841.6 531.2V339.2L579.2 73.6H184V948.8H536C515.2 929.6 499.2 905.6 486.4 880C411.2 880 336 880 256 880C307.2 809.6 347.2 755.2 392 694.4C416 715.2 435.2 731.2 459.2 750.4ZM536 140.8L776 380.8H536V140.8ZM326.4 556.8C324.8 521.6 353.6 494.4 388.8 494.4C424 494.4 451.2 523.2 451.2 556.8C451.2 592 422.4 619.2 388.8 619.2C355.2 619.2 326.4 590.4 326.4 556.8ZM667.2 934.4H772.8V814.4H892.8V710.4H772.8V590.4H667.2V710.4H547.2V814.4H667.2V881.6V934.4Z" fill="black"/>
</svg>
