<svg width="1024" height="1024" viewBox="0 0 1024 1024" fill="none" xmlns="http://www.w3.org/2000/svg">
<path d="M500.702 792.388C500.702 629.848 632.462 498.083 794.999 498.073C795.026 498.073 795.059 498.073 795.091 498.073C805.668 498.073 816.116 498.625 826.408 499.701L825.122 499.592V290.252L620.424 85.554H198.877V938.444H539.715C515.185 896.552 500.701 846.198 500.701 792.461C500.701 792.435 500.701 792.409 500.701 792.383V792.387L500.702 792.388ZM561.954 172.459H620.424V289.417H737.399V347.904H561.954V172.459ZM640.563 991.744V848.896L698.777 789.999L640.563 731.204V588.458H944.742V730.453L886.528 789.35L944.742 848.247V991.795H640.563V991.744ZM874.001 920.883V876.697L792.32 794.316L710.639 876.697V920.883H874.001ZM792.32 784.35L874.001 702.669V658.535H710.639V702.055L792.32 784.35ZM792.32 744.431L841.079 698.624H743.56L792.32 744.431Z" fill="black"/>
</svg>
