<svg width="1024" height="1024" viewBox="0 0 1024 1024" fill="none" xmlns="http://www.w3.org/2000/svg">
<path d="M342.398 721.6C379.198 728 417.598 732.8 459.198 736C463.998 696 476.798 657.6 497.598 625.6C433.598 624 374.398 619.2 318.398 606.4C257.598 593.6 211.198 576 175.998 550.4V624C175.998 644.8 190.398 662.4 220.798 680C249.598 697.6 291.198 712 342.398 721.6ZM545.598 568C591.998 526.4 652.798 500.8 719.998 500.8C748.798 500.8 775.998 505.6 801.598 513.6C801.598 513.6 803.198 513.6 803.198 512C833.599 494.4 847.998 476.8 847.998 456V380.8C812.798 404.8 766.398 424 705.598 436.8C644.798 449.6 580.798 456 511.998 456C443.198 456 377.598 449.6 318.398 436.8C257.598 424 211.198 406.4 175.998 380.8V456C175.998 476.8 190.398 494.4 220.798 512C251.198 529.6 291.198 542.4 343.998 553.6C395.198 563.2 452.798 568 513.598 568C523.198 568 534.398 568 545.598 568ZM174.398 793.6C174.398 814.4 188.798 832 219.198 849.6C249.598 867.2 289.598 880 342.398 891.2C390.398 900.8 443.198 905.6 499.198 905.6C476.798 872 462.398 833.6 459.198 792C409.598 790.4 361.598 784 316.798 774.4C255.998 761.6 209.598 744 174.398 718.4V793.6ZM803.198 174.4C772.798 156.8 732.798 144 679.998 132.8C628.798 123.2 572.798 118.4 511.998 118.4C451.198 118.4 395.198 123.2 342.398 132.8C291.198 142.4 249.598 156.8 219.198 174.4C188.798 192 174.398 209.6 174.398 230.4V288C174.398 308.8 188.798 326.4 219.198 344C249.598 361.6 289.598 374.4 342.398 385.6C395.198 395.2 451.198 400 511.998 400C572.798 400 628.798 395.2 681.598 385.6C732.798 376 774.398 361.6 804.798 344C835.198 326.4 849.598 308.8 849.598 288V232C849.598 211.2 833.599 192 803.198 174.4ZM667.198 934.4H772.798V814.4H892.798V710.4H772.798V590.4H667.198V710.4H547.198V814.4H667.198V892.8V934.4Z" fill="black"/>
</svg>
