<svg width="1024" height="1024" viewBox="0 0 1024 1024" fill="none" xmlns="http://www.w3.org/2000/svg">
<path d="M558.201 931.7L512.001 958.4L378.301 881.2C368.301 875.5 355.601 878.9 349.901 888.8C344.201 898.8 347.601 911.5 357.501 917.2L512.001 1006.4L579.001 967.7C589.001 962 592.401 949.2 586.601 939.3C580.901 929.3 568.101 925.9 558.201 931.7Z" fill="black"/>
<path d="M259.101 812.4L125.401 735.2V580.8C125.401 569.3 116.101 560 104.601 560C93.1008 560 83.8008 569.3 83.8008 580.8V759.2L238.301 848.4C241.601 850.3 245.201 851.2 248.701 851.2C255.901 851.2 262.901 847.5 266.701 840.8C272.501 830.9 269.101 818.1 259.101 812.4Z" fill="black"/>
<path d="M238.301 175.6L83.8008 264.8V443.2C83.8008 454.7 93.1008 464 104.601 464C116.101 464 125.401 454.7 125.401 443.2V288.8L259.101 211.6C269.101 205.9 272.501 193.1 266.701 183.2C261.001 173.3 248.301 169.8 238.301 175.6Z" fill="black"/>
<path d="M367.901 145.6C371.401 145.6 375.001 144.7 378.301 142.8L512.001 65.6001L645.701 142.8C655.601 148.5 668.301 145.1 674.101 135.2C679.801 125.3 676.401 112.5 666.501 106.8L512.001 17.6001L357.501 106.8C347.501 112.5 344.101 125.3 349.901 135.2C353.701 141.9 360.701 145.6 367.901 145.6Z" fill="black"/>
<path d="M764.901 211.6L898.601 288.8V447.4C898.601 458.9 907.901 468.2 919.401 468.2C930.901 468.2 940.201 458.9 940.201 447.4V264.8L785.701 175.6C775.701 169.8 763.001 173.3 757.301 183.2C751.501 193.2 754.901 205.9 764.901 211.6Z" fill="black"/>
<path d="M939.601 713.5H816.401V597.7C816.401 580.5 802.401 566.5 785.201 566.5C768.001 566.5 754.001 580.5 754.001 597.7V713.6H630.801C613.601 713.6 599.601 727.6 599.601 744.8C599.601 762 613.601 776 630.801 776H754.001V894.5C754.001 911.7 768.001 925.7 785.201 925.7C802.401 925.7 816.401 911.7 816.401 894.5V775.9H939.601C956.801 775.9 970.801 761.9 970.801 744.7C970.801 727.5 956.801 713.5 939.601 713.5Z" fill="black"/>
</svg>
