<!-- Generated by IcoMoon.io -->
<svg version="1.1" xmlns="http://www.w3.org/2000/svg" width="32" height="32" viewBox="0 0 32 32">
<path d="M28.787 7.208l-11.571-6.687c-0.727-0.414-1.7-0.414-2.432 0l-11.572 6.687c-0.749 0.431-1.214 1.242-1.214 2.109v13.355c0 0.868 0.464 1.678 1.214 2.111l3.035 1.747c1.47 0.724 1.997 0.724 2.666 0.724 2.177 0 3.427-1.317 3.427-3.612v-13.185c0-0.186-0.152-0.333-0.335-0.333h-1.467c-0.186 0-0.336 0.147-0.336 0.333v13.186c0 1.018-1.053 2.030-2.773 1.17l-3.17-1.832c-0.112-0.061-0.183-0.182-0.183-0.309v-13.355c0-0.127 0.071-0.253 0.183-0.317l11.564-6.675c0.107-0.063 0.25-0.063 0.357 0l11.568 6.673c0.111 0.066 0.18 0.188 0.18 0.319v13.355c0 0.128-0.069 0.252-0.177 0.313l-11.572 6.679c-0.099 0.060-0.251 0.060-0.358 0l-2.968-1.762c-0.088-0.052-0.202-0.070-0.287-0.022-0.822 0.466-0.977 0.527-1.747 0.795-0.19 0.066-0.472 0.181 0.105 0.503l3.864 2.286c0.37 0.214 0.791 0.325 1.214 0.325 0.429 0 0.848-0.111 1.218-0.325l11.571-6.681c0.749-0.436 1.216-1.243 1.216-2.111v-13.354c-0.001-0.868-0.467-1.676-1.216-2.109zM19.572 20.556c-3.063 0-3.736-0.769-3.962-2.292-0.026-0.163-0.165-0.283-0.332-0.283h-1.496c-0.186 0-0.334 0.148-0.334 0.333 0 1.95 1.061 4.274 6.125 4.274 3.667 0 5.769-1.444 5.769-3.966 0-2.499-1.689-3.165-5.246-3.635-3.594-0.476-3.959-0.721-3.959-1.563 0-0.695 0.309-1.622 2.971-1.622 2.377 0 3.253 0.512 3.614 2.115 0.032 0.151 0.169 0.261 0.325 0.261h1.502c0.093 0 0.182-0.040 0.245-0.107 0.063-0.071 0.097-0.162 0.088-0.258-0.233-2.761-2.067-4.048-5.774-4.048-3.3 0-5.268 1.393-5.268 3.727 0 2.533 1.958 3.232 5.125 3.546 3.789 0.371 4.083 0.924 4.083 1.67 0 1.294-1.038 1.845-3.476 1.845z"></path>
</svg>
