<svg width="1024" height="1024" viewBox="0 0 1024 1024" fill="none" xmlns="http://www.w3.org/2000/svg">
<path d="M706.543 842.559C630.827 842.559 569.435 781.168 569.435 705.452C569.435 629.735 630.827 568.344 706.543 568.344C782.259 568.344 843.651 629.735 843.651 705.452C843.651 781.168 782.259 842.559 706.543 842.559ZM433.146 528.371C385.806 528.371 347.471 490.035 347.471 442.696C347.471 395.356 385.806 357.02 433.146 357.02C480.486 357.02 518.821 395.356 518.821 442.696C518.821 490.035 480.486 528.371 433.146 528.371ZM712.546 260.84H483.76C367.253 260.84 272.573 355.383 272.573 472.027V700.813C272.573 817.457 367.116 912 483.76 912H712.546C829.19 912 923.733 817.457 923.733 700.813V472.027C923.733 355.383 829.19 260.84 712.546 260.84Z" fill="black"/>
<path d="M237.375 180.486C237.375 218.412 206.68 248.971 168.89 248.971C131.1 248.971 100.268 218.412 100.268 180.486C100.268 142.559 130.963 112 168.753 112C206.543 112 237.239 142.696 237.239 180.486" fill="black"/>
</svg>
