<?xml version="1.0" encoding="UTF-8"?>
<svg xmlns="http://www.w3.org/2000/svg" version="1.1" viewBox="0 0 1024 1024">
  <!-- Generator: Adobe Illustrator 28.6.0, SVG Export Plug-In . SVG Version: 1.2.0 Build 709)  -->
  <g>
    <g id="Layer_1">
      <g>
        <path d="M813.8,482.6c1.4-11.3.9-34-.8-45.3-4.5-28.5-15-54.7-31.3-77.9-8.5-12.1-20.8-25.4-31.7-34-3.2-2.5-6-4.8-6.2-5-.3-.2,0-3.4.7-7,7-36.2,6.7-81.4-.6-116.8-6.3-30.8-17.8-55.3-32.6-69.4-11.8-11.3-23.9-16.1-38.4-15.2-33.2,1.9-60,40.1-70.5,100.3-1.7,9.7-3.2,21.1-3.2,24.2s-.2,2.2-.5,2.2-2.5-1.2-4.9-2.6c-25.6-15.2-54.1-23.3-81.8-23.3s-56.2,8.1-81.8,23.3c-2.4,1.4-4.6,2.6-4.9,2.6s-.5-1-.5-2.2c0-3.2-1.5-14.9-3.2-24.2-9.6-54-31.6-89.8-60.8-98.8-4-1.2-15.5-2-19.5-1.4-7.5,1.2-16.4,5.1-22.7,9.9-19.1,14.5-33.9,45.4-40.2,83.8-2.4,14.5-4,34.7-4,50.1s2.1,41.4,5.2,57.4c.7,3.6,1,6.7.7,7-.2.2-3,2.5-6.2,5.1-10.8,8.6-23.1,21.9-31.7,34-16.3,23.1-26.9,49.5-31.3,77.9-1.7,11.3-2.2,34-.8,45.3,3,26,10.9,47.9,24.2,68l4.4,6.5-1.3,2.1c-9,15-16.6,36.8-20.2,57.7-2.8,16.5-3.2,21-3.2,43.1s.3,26.8,2.9,42.2c3.2,18.5,9.6,38.1,16.8,51.1,2.4,4.3,8.1,13.1,8.8,13.6.2.1-.5,2.2-1.6,4.7-8.3,18.1-15.3,42.2-18.3,62.4-2.1,13.9-2.4,18.4-2.4,33s1,27.7,4.9,42.6l.6,2.2h49.2l-1.6-3c-9.9-18.4-10.9-52.5-2.3-86.6,3.9-15.7,8.3-27.3,16.6-43.2l4.9-9.7v-5.9c0-5.5-.1-6.1-1.9-9.8-1.4-2.8-3.2-5.1-6.5-8.3-5.6-5.4-9.6-11.1-12.8-18.1-14.1-30.7-16.9-76.2-7-115,4.1-16.2,11-30.6,18.1-38.5,4.9-5.4,7.4-11.4,7.4-17.7s-2.3-11.8-7.5-17.4c-14.8-15.9-23.9-35.2-27.2-57.6-4.7-32,3.8-66.9,23-94.5,18.8-27.1,45.1-44.5,74.6-49.2,6.6-1.1,19-.9,25.8.3,7.5,1.3,12.2.9,17.1-1.4,6-2.8,9-6.3,12.5-14.4,3.1-7.2,5.5-11.1,12-19.2,7.8-9.7,15.3-16.3,27.4-24.3,13.8-9,29.5-15.6,45.1-18.7,5.7-1.2,8.3-1.3,19-1.3s13.3.2,19,1.3c22.9,4.7,45.7,16.5,63.8,33.3,3.9,3.6,13.3,15.2,16.3,20.1,1.2,1.9,3.2,5.9,4.4,8.9,3.5,8,6.5,11.5,12.5,14.4,4.7,2.2,9.5,2.7,16.8,1.5,11.4-1.9,20.2-1.8,31.4.5,38.1,7.7,71.3,39.1,86,81.2,12.8,36.9,9.2,75.6-9.9,105.1-3.2,5-6.4,9-11.1,14-10.1,10.7-10.1,24.1,0,35.1,16.4,18,26.7,62.2,23.6,101.2-2.1,25.7-8.7,48.8-17.7,61.8-1.6,2.3-4.9,6.2-7.5,8.6-3.3,3.2-5.1,5.6-6.5,8.3-1.8,3.6-1.9,4.3-1.9,9.8v5.9l4.9,9.7c8.3,15.9,12.7,27.5,16.6,43.2,8.4,33.6,7.7,67-1.9,86-.8,1.6-1.5,3.1-1.5,3.3s11,.3,24.4.3h24.4l.6-2.5c.3-1.3.9-3.3,1.2-4.5.6-2.5,1.9-10,2.9-17.2,1-7.2,1-33.9,0-41.9-3.7-29.2-9.8-52.3-19.9-74.2-1.1-2.5-1.8-4.6-1.6-4.7.3-.2,1.9-2.5,3.6-5.1,12.5-19,20.2-42.8,24.1-74.3,1-8.7,1-45.9,0-54.3-2.8-21.5-6.1-36.1-11.6-50.8-2.3-6.1-8.4-19.1-11-23.3l-1.3-2.1,4.4-6.5c13.4-20.1,21.2-42,24.2-68ZM376.8,285.7l-4,5.9h-9.2c-10.8,0-21.5,1.4-31.8,4.1-3.7.9-7.2,1.8-7.9,2-1.1.2-1.3-.1-1.9-4.8-3.4-25.6-3.2-53.9.5-77.4,4.1-26.2,13.8-50,23.2-57,2.2-1.7,2.6-1.6,5.2.5h0c8.3,6.5,17.5,25.3,22.7,46.2,1,3.8,2,8.2,2.3,9.8.2,1.6.9,5.1,1.4,7.8,2.2,12.2,3.3,25.3,3.4,41.4v15.8c0,0-3.9,5.9-3.9,5.9ZM702.1,293c-.6,4.7-.8,5-1.9,4.8-.7-.2-4.3-1.1-7.9-2-10.3-2.8-21-4.1-31.8-4.1h-9.2l-4-5.9-4-5.9v-15.8c.2-22.3,2.2-39.7,7.2-59,5.2-20.8,14.5-39.5,22.7-46.1,2.6-2.1,3-2.1,5.3-.4,5.7,4.2,11.9,15.3,16.6,29.6,9.4,28.5,12,67.6,7.1,104.8Z"/>
        <path d="M531.6,448.7c-6.7-.8-24.1-1.5-28.5-1h0c-12.5,1.2-15.9,1.6-21.8,2.9-9.7,2-22.7,6.5-31.7,10.9-31.4,15.3-53,40.9-59.6,70.5-1.3,5.9-1.5,7.8-1.5,17.7s.2,11.9,1.4,17.5c8.8,38.7,44.4,67.2,90.5,72.4,10,1.1,53.2,1.1,63.2,0,37-4.2,68.8-24.2,83.1-52.4,3.8-7.5,5.6-12.4,7.4-20,1.3-5.6,1.4-7.7,1.4-17.5s-.2-11.8-1.5-17.7c-9.6-43-51.3-76.8-102.4-83.2ZM603.6,561.5c-2.7,11.5-11.1,23.5-22.4,31.9-5.3,3.9-16.3,9.4-23,11.6-12.8,4.1-21.1,4.8-50.8,4.6-19.4-.2-22.9-.3-28.4-1.4-19-3.6-34.1-11.1-45-22.7-8.8-9.3-12.9-17.8-15-31.5-1-6.4.9-16.9,4.6-25.8,4.5-10.9,16.3-24.4,27.9-32.1,13.4-9,31.1-15.3,47.4-17.1,6.3-.7,19.5-.7,25.8,0h0c17.1,1.8,34.2,7.9,48,17.1,7.4,4.9,17.9,15.3,22.3,22.1,5.5,8.4,8.7,16.9,10.1,27.3.6,4.8.3,8.4-1.4,16.1Z"/>
        <path d="M532,520.8c-1.5-.8-3.3-1.1-6-1.1-4.2,0-6.9,1-11.8,4.1l-2.8,1.8-1.8-1.1c-7.3-4.3-8.6-4.8-13-4.8-3.2,0-4.9.3-6.4,1.1h0c-4.4,2.4-7.4,8.3-6.5,12.8,1,4.8,5.2,9.6,11.8,13.6,3.5,2.1,3.7,2.4,3.9,4.5.1,1.3-.3,4.9-1,8.1-.7,3.2-1.2,6.5-1.2,7.4,0,2.5,2.4,6.5,4.8,8.4,2.1,1.7,2.5,1.8,8.5,1.9,5.5.2,6.6,0,8.8-1,5.6-2.8,7.1-7.8,5-17.5-1.7-8.1-1.4-9.4,2.9-11.8,4.5-2.6,9.4-7.3,10.8-10.5,2.8-6,.2-12.9-5.9-16Z"/>
        <path d="M366.4,453.9c-4.5-1.2-11.8-1.1-15.8.2h0c-10.2,3.2-17.7,10.7-21.7,21.3-1.9,5.1-2.8,13-2,17.3,1.9,10.3,10.3,19.6,19.9,22.2,12.1,3.2,21.1,1.1,29.1-6.8,4.6-4.5,7.2-8.5,9.7-14.9,1.8-4.5,1.9-5.3,1.9-11.8v-6.9c0,0-2.4-4.9-2.4-4.9-3.8-7.8-10.8-13.6-18.8-15.7Z"/>
        <path d="M672.9,454c-3.9-1.2-11.3-1.2-15.5,0-7.9,2.1-14.9,8-18.6,15.7l-2.4,4.9v6.9c0,6.4.2,7.2,2,11.8,2.5,6.4,5.1,10.4,9.7,14.9,8,7.9,17,10,29.1,6.8,7-1.8,13.9-7.7,17.2-14.5,2.9-5.8,3.6-10,2.6-16.6-2.1-15.1-11-26.1-24.1-29.9Z"/>
      </g>
    </g>
  </g>
</svg>