<svg width="1024" height="1024" viewBox="0 0 1024 1024" fill="none" xmlns="http://www.w3.org/2000/svg">
<path d="M341.133 112.224C333.666 113.432 324.709 117.34 318.384 122.165C299.261 136.697 284.438 167.542 278.179 205.966C275.828 220.498 274.216 240.662 274.216 256.056C274.216 274.205 276.343 297.413 279.388 313.435C280.081 316.995 280.419 320.153 280.138 320.387C279.903 320.612 277.092 322.917 273.935 325.437C263.141 334.048 250.792 347.325 242.285 359.44C225.972 382.582 215.403 408.892 210.981 437.385C209.257 448.638 208.798 471.387 210.175 482.64C213.22 508.603 221.034 530.537 234.414 550.644L238.78 557.137L237.515 559.264C228.558 574.312 220.913 596.077 217.352 616.99C214.541 633.527 214.195 637.959 214.195 660.128C214.195 682.296 214.485 686.896 217.127 702.347C220.285 720.842 226.722 740.425 233.899 753.467C236.251 757.721 241.994 766.566 242.687 767.025C242.922 767.137 242.228 769.264 241.132 771.738C232.859 789.83 225.794 813.891 222.871 834.167C220.8 848.062 220.519 852.55 220.519 867.195C220.519 885.859 221.55 894.938 225.457 909.807L226.028 911.991H275.247L273.635 908.945C263.703 890.562 262.776 856.448 271.34 822.39C275.247 806.649 279.669 795.105 287.942 779.196L292.88 769.545V763.633C292.88 758.114 292.768 757.487 290.988 753.87C289.61 751.115 287.774 748.754 284.494 745.54C278.92 740.143 274.9 734.456 271.686 727.448C257.557 696.772 254.802 651.226 264.734 612.399C268.866 596.199 275.706 581.789 282.883 573.918C287.764 568.521 290.294 562.487 290.294 556.228C290.294 549.97 287.999 544.395 282.827 538.829C268.004 522.976 258.878 503.675 255.599 481.216C250.942 449.228 259.393 414.364 278.573 386.733C297.359 359.627 323.715 342.218 353.183 337.571C359.788 336.484 372.137 336.653 379.024 337.918C386.548 339.239 391.261 338.836 396.086 336.54C402.064 333.73 405.043 330.225 408.547 322.186C411.649 315.009 414.057 311.102 420.55 303.007C428.364 293.3 435.888 286.694 447.946 278.711C461.729 269.698 477.414 263.149 493.033 259.991C498.72 258.839 501.362 258.67 511.987 258.67C522.612 258.67 525.255 258.839 530.942 259.991C553.86 264.648 576.6 276.472 594.758 293.244C598.665 296.86 608.025 308.46 611.014 313.295C612.167 315.187 614.172 319.207 615.437 322.196C618.941 330.235 621.93 333.739 627.898 336.55C632.555 338.789 637.436 339.248 644.67 338.04C656.1 336.091 664.889 336.259 676.086 338.555C714.22 346.247 747.426 377.673 762.126 419.77C774.935 456.705 771.318 495.354 752.251 524.878C749.037 529.872 745.814 533.891 741.167 538.839C731.113 549.576 731.113 562.9 741.111 573.928C757.535 591.908 767.814 636.132 764.712 675.128C762.642 700.857 756.036 723.887 746.967 736.93C745.355 739.225 742.029 743.132 739.499 745.55C736.229 748.764 734.383 751.125 733.006 753.879C731.226 757.496 731.113 758.133 731.113 763.642V769.555L736.051 779.205C744.324 795.115 748.747 806.658 752.654 822.399C761.096 855.998 760.346 889.429 750.705 908.44C749.899 910.051 749.215 911.541 749.215 911.71C749.215 911.878 760.187 912 773.623 912H797.974L798.602 909.526C798.949 908.205 799.52 906.2 799.811 905.048C800.439 902.518 801.703 895.05 802.743 887.873C803.718 880.64 803.718 853.984 802.743 845.945C799.071 816.768 792.924 793.616 782.871 771.738C781.784 769.264 781.09 767.147 781.315 767.025C781.606 766.856 783.208 764.551 784.932 761.965C797.45 743.011 805.151 719.174 809.059 687.702C810.089 679.026 810.089 641.754 809.059 633.424C806.304 611.94 802.968 597.351 797.459 582.594C795.164 576.448 789.073 563.471 786.487 559.274L785.222 557.147L789.589 550.654C802.968 530.547 810.783 508.612 813.828 482.649C815.205 471.387 814.746 448.647 813.022 437.394C808.543 408.845 798.031 382.657 781.718 359.449C773.22 347.334 760.871 334.057 750.068 325.447C746.91 322.917 744.09 320.622 743.865 320.397C743.575 320.162 743.921 317.005 744.615 313.444C751.567 277.203 751.333 232.004 744.043 196.681C737.728 165.893 726.241 141.429 711.418 127.299C699.594 116.018 687.535 111.193 673.059 112.111C639.863 114.06 613.094 152.26 602.525 212.45C600.801 222.157 599.312 233.531 599.312 236.633C599.312 237.841 599.077 238.816 598.796 238.816C598.515 238.816 596.266 237.663 593.858 236.23C568.242 221.07 539.749 212.965 512.015 212.965C484.282 212.965 455.789 221.061 430.172 236.23C427.764 237.663 425.525 238.816 425.235 238.816C424.944 238.816 424.719 237.841 424.719 236.633C424.719 233.419 423.173 221.698 421.505 212.45C411.892 158.406 389.893 122.624 360.66 113.601C356.64 112.392 345.209 111.587 341.133 112.224ZM350.896 158.978C359.17 165.527 368.361 184.248 373.646 205.217C374.62 209.011 375.651 213.368 375.941 214.98C376.166 216.535 376.803 220.039 377.319 222.738C379.558 234.918 380.589 248.064 380.71 264.095L380.767 279.892L376.803 285.748L372.84 291.66H363.592C352.799 291.66 342.052 293.038 331.773 295.792C328.1 296.71 324.54 297.629 323.847 297.807C322.75 298.032 322.582 297.694 321.954 292.981C318.562 267.421 318.74 239.106 322.469 215.561C326.601 189.317 336.252 165.537 345.668 158.528C347.908 156.86 348.31 156.917 350.896 158.987V158.978ZM678.4 158.575C684.087 162.763 690.346 173.913 695.003 188.155C704.363 216.648 707.005 255.756 702.068 292.972C701.44 297.685 701.262 298.022 700.175 297.797C699.482 297.629 695.921 296.71 692.248 295.783C681.97 293.028 671.223 291.651 660.429 291.651H651.181L647.218 285.739L643.255 279.883L643.311 264.086C643.423 241.795 645.494 224.396 650.432 205.039C655.66 184.248 664.908 165.518 673.116 158.978C675.702 156.907 676.104 156.851 678.4 158.575Z" fill="black"/>
<path d="M503.105 447.654C490.643 448.863 487.252 449.322 481.283 450.53C471.576 452.536 458.6 457.024 449.577 461.446C418.217 476.784 396.62 502.344 390.014 531.924C388.693 537.78 388.525 539.738 388.525 549.614C388.525 559.489 388.693 561.504 389.958 567.078C398.747 605.737 434.351 634.277 480.421 639.505C490.419 640.601 533.612 640.601 543.6 639.505C580.591 635.317 612.41 615.266 626.708 587.12C630.503 579.596 632.339 574.715 634.063 567.078C635.328 561.504 635.497 559.386 635.497 549.614C635.497 539.841 635.328 537.78 634.007 531.924C624.413 488.964 582.718 455.131 531.598 448.703C524.936 447.898 507.471 447.214 503.105 447.673V447.654ZM524.58 478.901C541.642 480.738 558.816 486.828 572.599 496.02C580.01 500.957 590.467 511.301 594.945 518.076C600.464 526.461 603.622 535.016 605.055 545.416C605.683 550.185 605.346 553.802 603.622 561.494C600.923 572.981 592.537 584.984 581.219 593.369C575.935 597.22 564.963 602.786 558.245 604.969C545.493 609.045 537.163 609.794 507.415 609.56C488.001 609.391 484.553 609.213 478.988 608.183C459.977 604.622 444.929 597.042 434.014 585.499C425.169 576.195 421.149 567.697 418.966 553.97C417.992 547.599 419.828 537.03 423.557 528.12C428.092 517.26 439.814 503.768 451.413 496.01C464.849 487.053 482.548 480.672 498.795 478.948C505.054 478.255 518.321 478.255 524.58 478.892V478.901Z" fill="black"/>
<path d="M490.063 520.83C485.696 523.182 482.651 529.16 483.569 533.582C484.6 538.351 488.798 543.177 495.347 547.14C498.851 549.267 499.085 549.548 499.254 551.675C499.367 552.94 498.907 556.556 498.28 559.77C497.586 562.928 497.071 566.263 497.071 567.181C497.127 569.655 499.423 573.675 501.84 575.623C503.967 577.347 504.37 577.404 510.338 577.572C515.791 577.741 516.944 577.629 519.127 576.598C524.758 573.843 526.192 568.784 524.121 559.077C522.397 550.982 522.744 549.717 527.054 547.243C531.588 544.601 536.414 539.944 537.847 536.787C540.602 530.753 538.072 523.922 531.991 520.765C530.502 520.015 528.665 519.678 525.957 519.678C521.76 519.678 519.061 520.652 514.124 523.81L511.313 525.59L509.532 524.494C502.234 520.184 500.922 519.668 496.49 519.725C493.333 519.725 491.608 520.015 490.063 520.821V520.83Z" fill="black"/>
<path d="M350.606 454.147C340.44 457.361 332.86 464.828 328.953 475.453C327.06 480.513 326.142 488.496 326.939 492.797C328.831 503.075 337.273 512.435 346.868 515.021C358.926 518.179 367.949 516.108 375.932 508.191C380.579 503.656 383.109 499.693 385.639 493.256C387.475 488.721 387.588 487.915 387.588 481.478L387.644 474.582L385.236 469.644C381.385 461.83 374.442 456.03 366.394 453.904C361.859 452.751 354.56 452.817 350.597 454.128L350.606 454.147Z" fill="black"/>
<path d="M657.375 453.969C649.504 456.096 642.496 461.952 638.767 469.654L636.359 474.592L636.415 481.488C636.415 487.924 636.527 488.721 638.364 493.265C640.894 499.702 643.414 503.665 648.071 508.2C656.054 516.127 665.077 518.197 677.135 515.031C684.087 513.194 691.03 507.338 694.366 500.498C697.242 494.699 697.926 490.501 697.008 483.896C694.881 468.792 686.036 457.82 672.881 453.969C669.03 452.817 661.563 452.817 657.375 453.969Z" fill="black"/>
</svg>
