<svg width="1024" height="1024" viewBox="0 0 1024 1024" fill="none" xmlns="http://www.w3.org/2000/svg">
<path d="M750.931 514.094C750.931 488.367 771.905 467.464 797.719 467.464C823.533 467.464 844.506 488.367 844.506 514.094C844.506 539.821 823.533 560.724 797.719 560.724C771.905 560.724 750.931 539.419 750.931 514.094Z" fill="black"/>
<path fill-rule="evenodd" clip-rule="evenodd" d="M31 524.731C31 432.499 105.768 357.73 198 357.73H824C916.232 357.73 991 432.499 991 524.73V551C991 643.232 916.232 718 824 718H198C105.768 718 31 643.232 31 551V524.731ZM915.495 619.413L853.38 557.508C863.06 545.449 868.707 530.173 868.707 513.692C868.707 474.7 836.843 442.943 797.719 442.943C758.594 442.943 726.73 475.102 726.73 514.094C726.73 553.086 758.594 584.843 797.719 584.843C811.432 584.843 824.339 580.823 835.229 573.989L898.554 637.101L915.495 619.413ZM204.832 392.248C130.274 392.248 69.832 452.69 69.832 527.248V548.484C69.832 623.042 130.273 683.484 204.832 683.484H660.933V392.248H204.832Z" fill="black"/>
</svg>
