<svg width="1024" height="1024" viewBox="0 0 1024 1024" fill="none" xmlns="http://www.w3.org/2000/svg">
<path d="M736.706 71H287.295C275.017 71 263.241 75.8909 254.559 84.597C245.878 93.3031 241 105.111 241 117.423V905.577C241 917.889 245.878 929.697 254.559 938.403C263.241 947.109 275.017 952 287.295 952H736.706C748.983 952 760.759 947.109 769.441 938.403C778.122 929.697 783 917.889 783 905.577V117.423C783 105.111 778.122 93.3031 769.441 84.597C760.759 75.8909 748.983 71 736.706 71ZM512.002 780.912C501.84 780.402 492.05 776.914 483.845 770.882C475.64 764.849 469.378 756.536 465.837 746.971C462.296 737.406 461.632 727.01 463.923 717.07C466.214 707.129 471.363 698.081 478.73 691.044C486.097 684.008 495.36 679.293 505.373 677.483C515.385 675.672 525.706 676.847 535.06 680.86C544.414 684.873 552.389 691.549 557.998 700.061C563.606 708.573 566.604 718.548 566.617 728.751C566.626 735.826 565.198 742.828 562.423 749.333C559.648 755.838 555.582 761.708 550.473 766.588C545.364 771.467 539.318 775.253 532.704 777.716C526.09 780.178 519.048 781.266 512.002 780.912ZM699.256 407.439C699.329 409.514 698.973 411.581 698.215 413.512C697.456 415.444 696.31 417.198 694.846 418.666C693.382 420.134 691.635 421.284 689.709 422.044C687.783 422.805 685.721 423.16 683.652 423.087H337.227C335.158 423.16 333.099 422.805 331.173 422.044C329.247 421.284 327.497 420.134 326.033 418.666C324.569 417.198 323.423 415.444 322.665 413.512C321.906 411.581 321.551 409.514 321.623 407.439V338.586C321.551 336.511 321.906 334.444 322.665 332.513C323.423 330.581 324.569 328.827 326.033 327.359C327.497 325.891 329.247 324.741 331.173 323.981C333.099 323.22 335.158 322.865 337.227 322.938H683.652C685.721 322.865 687.783 323.22 689.709 323.981C691.635 324.741 693.382 325.891 694.846 327.359C696.31 328.827 697.456 330.581 698.215 332.513C698.973 334.444 699.329 336.511 699.256 338.586V407.439ZM699.256 250.956C699.329 253.03 698.973 255.098 698.215 257.029C697.456 258.961 696.31 260.715 694.846 262.183C693.382 263.65 691.635 264.801 689.709 265.561C687.783 266.322 685.721 266.677 683.652 266.604H337.227C335.158 266.677 333.099 266.322 331.173 265.561C329.247 264.801 327.497 263.65 326.033 262.183C324.569 260.715 323.423 258.961 322.665 257.029C321.906 255.098 321.551 253.03 321.623 250.956V181.582C321.551 179.507 321.906 177.439 322.665 175.508C323.423 173.576 324.569 171.822 326.033 170.354C327.497 168.887 329.247 167.736 331.173 166.976C333.099 166.215 335.158 165.86 337.227 165.933H683.652C685.721 165.86 687.783 166.215 689.709 166.976C691.635 167.736 693.382 168.887 694.846 170.354C696.31 171.822 697.456 173.576 698.215 175.508C698.973 177.439 699.329 179.507 699.256 181.582V250.956Z" fill="black"/>
</svg>
