<?xml version="1.0" encoding="UTF-8"?>
<svg xmlns="http://www.w3.org/2000/svg" version="1.1" viewBox="0 0 1024 1024">
  <!-- Generator: Adobe Illustrator 28.6.0, SVG Export Plug-In . SVG Version: 1.2.0 Build 709)  -->
  <g>
    <g id="Layer_1">
      <path d="M889.3,487.7c-1.7,0-3.4,0-5.1.3l-137.5-254.4c2.7-4.8,3.8-9.9,3.8-15.4,0-18.5-15.1-33.2-33.2-33.2s-18.1,3.8-23.9,10.3l-274-54.4c-1.7-16.4-16.1-29.1-33.2-29.1s-33.2,15-33.2,33.2,1.4,10.6,3.8,15.4l-213.5,306.3c-2.7-1-5.5-1.4-8.6-1.4-18.5,0-33.2,15-33.2,33.2s15.1,33.2,33.2,33.2h1.4l115.3,284.8c-1.7,4.4-3.1,8.9-3.1,13.7,0,18.5,15.1,33.2,33.2,33.2s18.1-3.8,23.9-10.3l346.2,33.8c3.4,14.7,16.8,25,32.2,25s33.2-15,33.2-33.2-3.1-16.1-7.9-21.5l174.8-303.2c1.7.3,3.4.3,5.5.3,18.5,0,33.2-15,33.2-33.2s-14.7-33.5-33.2-33.5ZM690.9,239.2c3.8,5.1,9.6,8.9,15.4,11.3l-52.3,395.6c-3.4,1-6.5,1.7-9.6,3.4l-288-249.9c1-2.7,1.4-5.5,1.4-8.5s-.3-4.4-.3-6.5l333.5-145.3ZM857.5,530.1l-177.2,121.7s-2.7-1.7-4.4-2.7l53-399h.3l135.1,249.2c-5.1,6.2-8.2,13.3-8.2,21.9s.3,6.5,1.4,8.9ZM319.7,358.2c-15.7,2.7-28.4,16.4-28.4,32.8v2.1l-118.4,70.1,184.4-263.6-37.3,158.6h-.3ZM331.7,423.5c4.4-1,8.6-3.1,12-5.5l286,248.2c-1.4,3.8-2.1,7.9-2.1,12v1.7l-318.5,131.3c-4.8-6.8-12-12-20.5-13.7l43.4-374h-.3ZM636.2,701.1c4.4,4.8,10.3,8.5,17.1,9.9l16.1,138.5c-6.8,3.4-12,8.9-15.4,15.4l-335.6-32.5,318.1-130.9-.3-.3ZM675.2,708.2c11.3-5.5,18.5-16.8,18.5-29.7s-.3-5.5-1.4-8.5l162.1-111.1-164.2,284.8-15.1-135.4ZM684.1,217.6l-338.3,147.3-3.8-2.7,43.1-184.3h1.4c11.6,0,21.9-6.2,28.1-15l269.9,53.7v1h-.3ZM167.5,498.7c0-2.1-.3-4.4-.3-6.5l133.8-78.6c2.7,2.7,5.5,5.1,8.9,6.8l-43.4,373.3-109.5-270.1c6.5-6.2,10.6-15,10.6-25Z"/>
    </g>
  </g>
</svg>