<svg width="1024" height="1024" viewBox="0 0 1024 1024" fill="none" xmlns="http://www.w3.org/2000/svg">
<path d="M889.318 487.727C887.608 487.727 885.897 487.726 884.187 488.068L746.669 233.709C749.406 228.923 750.432 223.795 750.432 218.325C750.432 199.863 735.38 185.162 717.25 185.162C707.672 185.162 699.12 188.923 693.304 195.419L419.295 141.06C417.585 124.65 403.217 112 386.113 112C367.983 112 352.931 127.043 352.931 145.162C352.931 150.632 354.3 155.761 356.694 160.547L143.234 466.872C140.497 465.846 137.761 465.504 134.682 465.504C116.21 465.504 101.5 480.547 101.5 498.667C101.5 516.786 116.552 531.829 134.682 531.829H136.05L251.333 816.615C249.622 821.06 248.254 825.504 248.254 830.291C248.254 848.752 263.305 863.453 281.436 863.453C291.014 863.453 299.566 859.692 305.382 853.197L651.57 887.043C654.991 901.744 668.332 912 683.726 912C702.198 912 716.908 896.957 716.908 878.838C716.908 870.632 713.829 862.769 709.04 857.299L883.845 554.051C885.555 554.393 887.265 554.393 889.318 554.393C907.79 554.393 922.5 539.35 922.5 521.231C922.5 503.111 907.79 487.727 889.318 487.727ZM690.91 239.179C694.672 244.308 700.488 248.068 706.303 250.462L653.965 646.017C650.544 647.043 647.465 647.727 644.386 649.436L356.352 399.521C357.378 396.786 357.72 394.051 357.72 390.974C357.72 388.923 357.378 386.53 357.378 384.479L690.91 239.179ZM857.504 530.12L680.305 651.829C680.305 651.829 677.568 650.12 675.858 649.094L728.881 250.12H729.223L864.346 499.35C859.215 505.504 856.136 512.684 856.136 521.231C856.136 524.65 856.478 527.726 857.504 530.12ZM319.749 358.154C304.013 360.889 291.356 374.564 291.356 390.974V393.026L172.995 463.111L357.378 199.521L320.091 358.154H319.749ZM331.722 423.453C336.169 422.427 340.274 420.376 343.695 417.983L629.677 666.188C628.308 669.949 627.624 674.051 627.624 678.154V679.863L309.145 811.145C304.355 804.308 297.172 799.179 288.62 797.47L332.064 423.453H331.722ZM636.176 701.06C640.623 705.846 646.439 709.607 653.28 710.974L669.358 849.436C662.517 852.855 657.385 858.325 653.965 864.82L318.381 832.342L636.518 701.402L636.176 701.06ZM675.174 708.239C686.463 702.769 693.646 691.487 693.646 678.496C693.646 675.419 693.304 673.026 692.278 669.949L854.425 558.838L690.225 843.624L675.174 708.239ZM684.068 217.641L345.747 364.991L341.985 362.256L385.087 177.983H386.455C398.086 177.983 408.349 171.829 414.506 162.94L684.41 216.615V217.641H684.068ZM167.522 498.667C167.522 496.615 167.18 494.222 167.18 492.171L300.935 413.538C303.671 416.273 306.408 418.667 309.829 420.376L266.384 793.709L156.917 523.624C163.417 517.47 167.522 508.581 167.522 498.667Z" fill="black"/>
</svg>
