<?xml version="1.0" encoding="UTF-8"?>
<svg xmlns="http://www.w3.org/2000/svg" version="1.1" viewBox="0 0 1024 1024">
  <!-- Generator: Adobe Illustrator 28.6.0, SVG Export Plug-In . SVG Version: 1.2.0 Build 709)  -->
  <g>
    <g id="Layer_1">
      <path d="M854.7,439.4c18.1-54.5,11.8-114.1-17.2-163.7-43.6-76-131.3-115-217-96.7-74.6-83-202.5-89.8-285.5-15.2-26.4,23.7-46,53.9-57,87.6-56.3,11.5-104.8,46.8-133.3,96.7-44.1,75.8-34.1,171.5,24.8,236.6-18.2,54.5-12,114.1,17,163.7,43.7,76,131.5,115,217.1,96.7,38.1,42.9,92.9,67.3,150.3,67,87.8,0,165.6-56.6,192.4-140.2,56.3-11.6,104.8-46.8,133.3-96.7,43.6-75.7,33.5-170.8-24.9-235.8h0ZM554,859.6c-35,0-69-12.2-95.9-34.7l4.7-2.7,159.3-91.9c8.1-4.7,13-13.4,13.1-22.7v-224.6l67.3,38.9c.7.3,1.2,1,1.3,1.7v186.1c-.2,82.7-67.2,149.6-149.8,149.8ZM232,722.1c-17.6-30.4-23.9-65.9-17.8-100.5l4.7,2.8,159.4,91.9c8,4.7,18,4.7,26,0l194.8-112.3v77.8c0,.8-.4,1.6-1.1,2l-161.3,93c-71.7,41.3-163.3,16.7-204.7-54.9h0ZM190,375.2c17.7-30.5,45.6-53.8,78.9-65.8v189.2c-.1,9.3,4.8,18,12.9,22.5l193.8,111.8-67.3,39c-.7.4-1.6.4-2.4,0l-161-92.9c-71.6-41.5-96.1-133-54.9-204.7v.8h0ZM743.2,503.7l-194.4-112.9,67.2-38.8c.7-.4,1.6-.4,2.4,0l161,93c71.7,41.4,96.2,133,54.9,204.6-17.4,30.2-44.8,53.3-77.4,65.5v-189.2c-.3-9.3-5.4-17.7-13.6-22.2ZM810.3,402.9l-4.7-2.8-159.1-92.7c-8.1-4.7-18.1-4.7-26.2,0l-194.6,112.3v-77.7c0-.8.3-1.6.9-2l161-92.9c71.8-41.3,163.5-16.7,204.8,55.1,17.5,30.3,23.8,65.8,17.9,100.2v.6h0ZM388.9,540.8l-67.3-38.8c-.7-.4-1.1-1.1-1.3-1.9v-185.6c.1-82.8,67.3-149.9,150.2-149.8,35,0,68.8,12.3,95.7,34.6l-4.7,2.7-159.3,91.9c-8.1,4.7-13,13.4-13.1,22.7l-.2,224.1h0ZM425.5,461.9l86.7-50,86.9,50v100l-86.6,50-86.9-50-.2-100Z"/>
    </g>
  </g>
</svg>