<svg width="1024" height="1024" viewBox="0 0 1024 1024" fill="none" xmlns="http://www.w3.org/2000/svg">
<path d="M854.735 439.371C872.835 384.871 866.565 325.22 837.545 275.68C793.905 199.72 706.205 160.651 620.555 179.011C545.905 95.9805 418.085 89.1805 335.045 163.821C308.695 187.511 289.035 217.711 278.025 251.391C221.765 262.93 173.205 298.15 144.765 348.061C100.655 423.891 110.665 519.56 169.525 584.611C151.365 639.081 157.565 698.74 186.555 748.3C230.245 824.28 318.005 863.35 403.705 844.97C441.825 887.9 496.585 912.32 553.995 912C641.785 912.081 719.565 855.401 746.385 771.81C802.645 760.25 851.195 725.031 879.645 675.141C923.225 599.44 913.165 504.301 854.725 439.381L854.735 439.371ZM553.995 859.641C518.955 859.701 485.005 847.411 458.115 824.951L462.845 822.271L622.125 730.331C630.185 725.601 635.165 716.97 635.215 707.62V483.061L702.545 522.011C703.225 522.351 703.695 523.001 703.815 523.741V709.831C703.635 792.5 636.665 859.471 553.995 859.641ZM231.975 722.13C214.405 691.781 208.095 656.211 214.155 621.671L218.885 624.51L378.315 716.451C386.345 721.161 396.305 721.161 404.335 716.451L599.095 604.171V681.92C599.055 682.74 598.655 683.49 597.985 683.97L436.655 777.01C364.965 818.31 273.375 793.75 231.965 722.13H231.975ZM190.025 375.191C207.725 344.651 235.655 321.35 268.875 309.43V498.671C268.755 507.981 273.705 516.621 281.805 521.221L475.615 633.031L408.275 671.98C407.535 672.37 406.645 672.37 405.905 671.98L244.895 579.101C173.345 537.631 148.815 446.111 190.015 374.411V375.201L190.025 375.191ZM743.235 503.711L548.795 390.801L615.975 352.001C616.715 351.611 617.605 351.611 618.345 352.001L779.355 445.041C851.025 486.391 875.595 578.01 834.245 649.67C816.835 679.84 789.455 703.01 756.805 715.18V525.941C756.525 516.651 751.365 508.211 743.235 503.711ZM810.265 402.941L805.535 400.101L646.415 307.37C638.335 302.63 628.315 302.63 620.235 307.37L425.635 419.651V341.911C425.555 341.101 425.915 340.321 426.585 339.861L587.595 246.971C659.365 205.621 751.065 230.291 792.415 302.061C809.875 332.37 816.195 367.831 810.275 402.301V402.931L810.265 402.941ZM388.885 540.771L321.555 501.981C320.875 501.571 320.405 500.881 320.285 500.091V314.48C320.395 231.65 387.625 164.591 470.455 164.701C505.415 164.751 539.265 177.001 566.145 199.351L561.415 202.031L402.145 293.961C394.085 298.691 389.105 307.32 389.055 316.671L388.895 540.761L388.885 540.771ZM425.475 461.921L512.205 411.931L599.105 461.921V561.901L512.525 611.891L425.635 561.901L425.475 461.921Z" fill="black"/>
</svg>
