<svg width="1024" height="1024" viewBox="0 0 1024 1024" fill="none" xmlns="http://www.w3.org/2000/svg">
<path d="M683.902 93.8014C692.438 93.8631 699.642 97.2922 705.723 103.373C718.009 115.677 730.313 127.968 742.614 140.255L742.766 140.406C747.704 145.339 752.642 150.272 757.578 155.204C771.103 168.723 784.629 182.241 798.155 195.759L798.172 195.776L798.406 196.01C838.978 236.559 879.554 277.112 920.102 317.679C931.796 329.385 934.078 342.274 926.96 355.053C925.431 357.792 923.346 360.024 921.163 362.195C915.303 368.051 909.445 373.91 903.588 379.769C891.876 391.483 880.165 403.197 868.432 414.89C855.27 428.002 840.469 428.668 826.16 416.851C824.112 415.161 822.188 413.286 820.301 411.399C751.004 342.151 681.719 272.903 612.447 203.618C609.98 201.152 607.611 198.561 605.49 195.811C596.707 184.388 597.04 168.908 607.093 158.584C624.186 141.042 641.595 123.807 659.005 106.572C660.718 104.877 662.43 103.181 664.142 101.486C669.483 96.2067 676.255 93.9371 683.902 93.7891V93.8014Z" fill="black"/>
<path d="M435.281 406.575C434.763 398.409 438.316 391.551 443.99 385.853L443.997 385.845L444.005 385.837C485.026 344.693 526.046 303.549 567.301 262.652C579.735 250.33 597.151 250.959 609.634 263.417C660.047 313.755 710.435 364.131 760.798 414.506C774.058 427.766 774.144 444.838 760.896 458.184C753.216 465.925 745.497 473.626 737.777 481.328C726.602 492.478 715.426 503.628 704.366 514.9C700.702 518.625 698.309 518.353 694.745 515.072C665.893 488.478 631.603 476.674 592.649 478.796C568.411 480.115 545.949 487.701 525.696 501.208C521.724 503.86 519.269 503.848 515.803 500.344C499.234 483.585 482.555 466.928 465.878 450.273L465.839 450.233L465.799 450.194C458.678 443.082 451.558 435.971 444.446 428.852C438.39 422.783 434.825 415.616 435.269 406.575H435.281Z" fill="black"/>
<path d="M334.074 779.372C339.711 785.009 346.409 788.068 354.463 788.018V788.031C361.988 787.981 368.5 785.514 373.878 780.124L378.829 775.17C410.273 743.701 441.723 712.228 473.273 680.865C476.159 677.979 476.751 675.672 475.147 671.75C456.658 626.419 459.852 582.754 486.002 541.124C488.457 537.214 488.148 534.833 484.904 531.663C475.971 522.941 467.153 514.097 458.336 505.255L458.333 505.252L458.333 505.251C454.246 501.153 450.159 497.055 446.062 492.969C431.482 478.426 416.113 478.463 401.496 493.068C361.642 532.885 321.8 572.714 281.958 612.544L281.663 612.839C278.062 616.436 274.452 620.026 270.841 623.615C261.924 632.481 253.007 641.346 244.227 650.337C233.2 661.623 233.249 678.485 244.338 689.623C264.559 709.936 284.837 730.187 305.114 750.437L305.217 750.54C314.838 760.149 324.459 769.757 334.074 779.372Z" fill="black"/>
<path fill-rule="evenodd" clip-rule="evenodd" d="M600.766 523.93C651.511 523.917 692.993 564.881 693.178 615.195C693.363 665.435 651.301 707.633 601 707.669C550.6 707.707 509.352 666.348 509.315 615.75C509.278 564.857 550.032 523.942 600.766 523.93ZM645.183 615.467C645.171 590.39 625.744 570.962 600.741 571.024C576.306 571.086 556.36 591.364 556.471 616.034C556.582 640.704 575.911 659.675 600.963 659.687C626.508 659.699 645.196 641.012 645.171 615.467H645.183Z" fill="black"/>
<path d="M107.063 789.523C98.4538 793.235 93.9516 800.377 93.7912 811.997L93.7789 811.984C93.5568 816.449 95.4811 822.049 100.144 826.712C111.532 838.083 122.909 849.462 134.286 860.842C155.281 881.841 176.274 902.839 197.33 923.775C206.754 933.137 220.717 932.952 229.956 923.8C239.194 914.659 239.416 900.82 230.375 891.149C226.736 887.251 223.048 883.354 219.027 879.863C215.178 876.52 215.24 874.115 218.941 870.488C234.352 855.383 249.589 840.084 264.824 824.789C266.831 822.773 268.838 820.758 270.846 818.744C283.896 805.644 283.809 790.842 270.685 777.656C262.865 769.799 255.02 761.966 247.163 754.146C233.2 740.245 218.583 740.22 204.681 754.084C201.056 757.702 197.428 761.316 193.799 764.931C180.266 778.413 166.73 791.896 153.356 805.533C149.878 809.073 147.719 809.024 144.549 805.422C140.762 801.117 136.618 797.084 132.362 793.235C124.826 786.414 115.932 785.699 107.063 789.523Z" fill="black"/>
</svg>
