<svg width="1024" height="1024" viewBox="0 0 1024 1024" fill="none" xmlns="http://www.w3.org/2000/svg">
<path d="M74 110V250.4C74 270.28 90.12 286.4 110 286.4H137.2C157.08 286.4 173.2 270.28 173.2 250.4V173.2H851.6V851.6H173.2V774.4C173.2 754.52 157.08 738.4 137.2 738.4H110C90.12 738.4 74 754.52 74 774.4V914.8C74 934.68 90.12 950.8 110 950.8H914.8C934.68 950.8 950.8 934.68 950.8 914.8V110C950.8 90.12 934.68 74 914.8 74H110C90.12 74 74 90.12 74 110ZM110 560.4H544.4L444.13 663.25C430.49 677.24 430.5 699.56 444.15 713.54L461.35 731.15C475.36 745.49 498.38 745.63 512.56 731.45L706.15 537.86C720.21 523.8 720.21 501.01 706.15 486.95L512.56 293.36C498.38 279.18 475.36 279.32 461.35 293.66L444.15 311.27C430.5 325.25 430.49 347.57 444.13 361.56L544.4 464.41H110C90.12 464.41 74 480.53 74 500.41V524.41C74 544.29 90.12 560.41 110 560.41V560.4Z" fill="black"/>
</svg>
