<?xml version="1.0" encoding="UTF-8"?>
<svg id="Layer_1" xmlns="http://www.w3.org/2000/svg" version="1.1" viewBox="0 0 1024 1024">
  <!-- Generator: Adobe Illustrator 29.5.1, SVG Export Plug-In . SVG Version: 2.1.0 Build 141)  -->
  <path d="M73.6,109.6v140.4c0,19.9,16.1,36,36,36h27.2c19.9,0,36-16.1,36-36v-77.2h678.4v678.4H172.8v-77.2c0-19.9-16.1-36-36-36h-27.2c-19.9,0-36,16.1-36,36v140.4c0,19.9,16.1,36,36,36h804.8c19.9,0,36-16.1,36-36V109.6c0-19.9-16.1-36-36-36H109.6c-19.9,0-36,16.1-36,36ZM109.6,560h434.4l-100.3,102.8c-13.6,14-13.6,36.3,0,50.3l17.2,17.6c14,14.3,37,14.5,51.2.3l193.6-193.6c14.1-14.1,14.1-36.9,0-50.9l-193.6-193.6c-14.2-14.2-37.2-14-51.2.3l-17.2,17.6c-13.7,14-13.7,36.3,0,50.3l100.3,102.8H109.6c-19.9,0-36,16.1-36,36v24c0,19.9,16.1,36,36,36Z"/>
</svg>