<svg width="1024" height="1024" viewBox="0 0 1024 1024" fill="none" xmlns="http://www.w3.org/2000/svg">
<path d="M49.6008 422.4C73.6008 398.4 104.001 385.6 137.601 385.6C171.201 385.6 201.601 398.4 225.601 422.4C249.601 446.4 262.401 476.8 262.401 512C262.401 547.2 249.601 577.6 225.601 601.6C201.601 625.6 171.201 638.4 137.601 638.4C104.001 638.4 73.6008 625.6 49.6008 601.6C25.6008 577.6 12.8008 547.2 12.8008 512C12.8008 476.8 25.6008 446.4 49.6008 422.4ZM424.001 422.4C448.001 398.4 478.401 385.6 512.001 385.6C545.601 385.6 576.001 398.4 600.001 422.4C624.001 446.4 636.801 476.8 636.801 512C636.801 547.2 624.001 577.6 600.001 601.6C576.001 625.6 545.601 638.4 512.001 638.4C478.401 638.4 448.001 625.6 424.001 601.6C400.001 577.6 387.201 547.2 387.201 512C387.201 476.8 400.001 446.4 424.001 422.4ZM798.401 422.4C822.401 398.4 851.201 385.6 886.401 385.6C920.001 385.6 950.401 398.4 974.401 422.4C998.401 446.4 1011.2 476.8 1011.2 512C1011.2 547.2 998.401 577.6 974.401 601.6C950.401 625.6 920.001 638.4 886.401 638.4C852.801 638.4 822.401 625.6 798.401 601.6C774.401 577.6 761.601 547.2 761.601 512C761.601 476.8 774.401 446.4 798.401 422.4Z" fill="black"/>
</svg>
