<svg width="1024" height="1024" viewBox="0 0 1024 1024" fill="none" xmlns="http://www.w3.org/2000/svg">
<g clip-path="url(#clip0_2_776)">
<path d="M806.178 272.947V859.477H299.247V919.21H865.912V332.68L806.179 272.947H806.178ZM926.225 393.113V979.643H419.294V1039.38H985.959V452.846L926.226 393.113H926.225ZM560.64 27.2891H179.2V323.618H238.933V87.0231H535.91L686.131 237.244V739.294H238.933V502.631H179.2V799.028H745.865V212.498L560.64 27.2911V27.2891ZM339.712 248.866L297.472 291.089L389.666 383.3H38.041V443.033H389.666L297.472 535.21L339.712 577.45L503.996 413.166L339.712 248.866Z" fill="black"/>
</g>
<defs>
<clipPath id="clip0_2_776">
<rect width="1024" height="1024" fill="white"/>
</clipPath>
</defs>
</svg>
