<svg width="1024" height="1024" viewBox="0 0 1024 1024" fill="none" xmlns="http://www.w3.org/2000/svg">
<path d="M625.599 148.8C615.999 124.8 601.599 105.6 580.799 89.6002C559.999 75.2002 537.599 67.2002 511.999 67.2002C486.399 67.2002 463.999 75.2002 443.199 89.6002C422.399 104 407.999 124.8 398.399 148.8H147.199V956.8H875.199V148.8H625.599ZM483.199 160C491.199 152 500.799 148.8 511.999 148.8C523.199 148.8 532.799 152 540.799 160C548.799 168 551.999 177.6 551.999 188.8C551.999 200 548.799 209.6 540.799 217.6C532.799 225.6 523.199 228.8 511.999 228.8C500.799 228.8 491.199 225.6 483.199 217.6C475.199 209.6 471.999 200 471.999 188.8C471.999 177.6 475.199 168 483.199 160ZM228.799 876.8V228.8H308.799V350.4H715.199V228.8H795.199V876.8H228.799Z" fill="black"/>
</svg>
