<svg width="1024" height="1024" viewBox="0 0 1024 1024" fill="none" xmlns="http://www.w3.org/2000/svg">
<g clip-path="url(#clip0_2_786)">
<path d="M36.4 569.9H110.2C120.1 569.9 128.6 573.4 135.8 580.6C143.1 587.7 146.7 596.3 146.7 606.4V668.5C146.7 678.6 143.2 687.4 136.1 694.8C129 702.2 120.4 705.9 110.2 705.9H35.5C25.4 705.9 16.8 702.3 9.7 695C2.5 687.8 -1 679.2 -1 669.4V606.4C-1 596.3 2.7 587.7 9.9 580.6C17.1 573.5 25.9 569.9 36.4 569.9Z" fill="black"/>
<path d="M607.1 286.3L310.9 788.8C306.2 796.4 298.9 800.1 288.8 800.1C279.2 800.1 270.4 796.9 262.1 790.3C253.8 783.8 249.8 775.5 249.8 765.3C249.8 756.3 252.7 746.8 258.5 736.6L555 234.7C559.9 226.8 567.5 222.8 577.9 222.8C587.1 222.8 595.9 225.9 604.1 232.2C612.3 238.5 616.4 246.6 616.4 256.7C616.3 266.3 613.2 276.2 607.1 286.3Z" fill="black"/>
<path d="M801.6 430.7V323.1C801.6 313.3 805.3 304.8 812.6 297.5C820 290.3 828.8 286.7 838.9 286.7C848.8 286.7 857.3 290.3 864.5 297.6C871.8 304.8 875.4 313.4 875.4 323.2V432.7L960.5 359.7C968.6 353 977.9 349.7 988.3 349.7C998.7 349.7 1007.3 353.4 1013.9 360.8C1020.5 368.2 1023.9 376.7 1023.9 386.2C1023.9 396.6 1020.2 405 1013 411.4L895.9 511.7L1012.3 611.6C1019.6 618 1023.2 626.3 1023.2 636.5C1023.2 646.7 1019.7 655.5 1012.7 662.7C1005.8 670 997.2 673.6 987.1 673.6C977.5 673.6 968.7 670.1 960.6 663.2L875.5 590.2V699.6C875.5 709.4 871.9 718 864.6 725.2C857.4 732.4 848.8 736.1 839 736.1C828.6 736.1 819.8 732.5 812.5 725.2C805.2 718 801.6 709.4 801.6 699.5V592L717.7 664.1C709.9 670.5 701.2 673.8 691.7 673.8C681.6 673.8 673 670.1 665.9 662.7C658.8 655.3 655.3 646.6 655.3 636.4C655.3 626 658.9 617.7 666.2 611.6L783.9 511.7L667 411.4C659.1 404.7 655.2 396 655.2 385.3C655.2 375.5 658.9 366.8 666.2 359.5C673.5 352.1 682.1 348.4 692.1 348.4C702 348.4 710.9 351.8 718.8 358.6L801.6 430.7Z" fill="black"/>
</g>
<defs>
<clipPath id="clip0_2_786">
<rect width="1024" height="1024" fill="white"/>
</clipPath>
</defs>
</svg>
