<svg width="1024" height="1024" viewBox="0 0 1024 1024" fill="none" xmlns="http://www.w3.org/2000/svg">
<path d="M281.6 528C172.8 528 72 467.2 72 336V204.8C72 73.5998 171.2 12.7998 281.6 12.7998C390.4 12.7998 491.2 73.5998 491.2 204.8V336C489.6 465.6 390.4 528 281.6 528ZM329.6 208C329.6 168 308.8 153.6 281.6 153.6C254.4 153.6 233.6 168 233.6 208V328C233.6 368 254.4 382.4 281.6 382.4C308.8 382.4 329.6 368 329.6 328V208ZM364.8 1004.8H190.4L659.2 19.1998H833.6L364.8 1004.8ZM742.4 1012.8C633.6 1012.8 532.8 952 532.8 820.8V689.6C532.8 558.4 632 497.6 742.4 497.6C851.2 497.6 952 558.4 952 689.6V820.8C952 952 852.8 1012.8 742.4 1012.8ZM792 694.4C792 654.4 771.2 640 744 640C716.8 640 696 654.4 696 694.4V816C696 856 716.8 870.4 744 870.4C771.2 870.4 792 856 792 816V694.4Z" fill="black"/>
</svg>
