<svg width="1024" height="1024" viewBox="0 0 1024 1024" fill="none" xmlns="http://www.w3.org/2000/svg">
<path d="M512 79C272.861 79 79 272.86 79 512C79 751.14 272.86 945 512 945C751.139 945 945 751.14 945 512C944.496 273.064 750.936 79.5035 512.048 79H512ZM512 863.146C318.067 863.146 160.854 705.933 160.854 512C160.854 318.067 318.067 160.854 512 160.854C705.933 160.854 863.146 318.067 863.146 512C863.146 512.009 863.146 512.02 863.146 512.03C863.146 705.946 705.946 863.146 512.03 863.146C512.02 863.146 512.009 863.146 511.998 863.146H512Z" fill="black"/>
<path d="M263 318.178L308.738 271L356 316.822L310.262 364L263 318.178Z" fill="black"/>
<path d="M480 200H545V265H480V200Z" fill="black"/>
<path d="M194 486H260V551H194V486Z" fill="black"/>
<path d="M670 316.299L717.262 271L763 317.701L715.738 363L670 316.299Z" fill="black"/>
<path d="M767 486H832V551H767V486Z" fill="black"/>
<path d="M662 428.776L615.423 395L532.195 509.811C526.4 508.463 519.747 507.689 512.912 507.689C512.712 507.689 512.512 507.69 512.312 507.691H512.342C466.986 508 430.301 544.652 430 589.934V589.962C430.405 634.805 466.889 671 511.836 671C512.014 671 512.192 670.999 512.37 670.998H512.342C557.697 670.698 594.384 634.049 594.684 588.771V588.742C594.527 571.19 589.057 554.946 579.806 541.499L579.993 541.786L662 428.776Z" fill="black"/>
</svg>
