<svg width="1024" height="1024" viewBox="0 0 1024 1024" fill="none" xmlns="http://www.w3.org/2000/svg">
<path d="M496.001 921.6C508.801 921.6 521.601 921.6 532.801 920V865.6C532.801 856 536.001 846.4 539.201 836.8C524.801 838.4 510.401 840 496.001 840C404.801 840 328.001 808 264.001 744C200.001 680 168.001 601.6 168.001 510.4C168.001 419.2 200.001 342.4 264.001 276.8C328.001 212.8 404.801 180.8 496.001 180.8C587.201 180.8 664.001 212.8 728.001 276.8C769.601 318.4 798.401 366.4 812.801 419.2H868.801C880.001 419.2 889.601 422.4 899.201 427.2C884.801 348.8 846.401 280 787.201 219.2C707.201 139.2 609.601 99.2002 496.001 99.2002C382.401 99.2002 284.801 139.2 204.801 219.2C124.801 299.2 84.8008 395.2 84.8008 508.8C84.8008 622.4 124.801 718.4 204.801 798.4C284.801 881.6 382.401 921.6 496.001 921.6ZM651.201 801.6H659.201L656.001 798.4C656.001 800 654.401 801.6 651.201 801.6ZM456.001 488H315.201V568H536.001V243.2H456.001V488ZM868.801 649.6V486.4H707.201V649.6H598.401L788.801 840L977.601 649.6H884.801H868.801ZM596.801 865.6V921.6H977.601V865.6H704.001H596.801Z" fill="black"/>
</svg>
