<svg width="1024" height="1024" viewBox="0 0 1024 1024" fill="none" xmlns="http://www.w3.org/2000/svg">
<path d="M854.398 182.4C854.398 161.6 839.998 144 809.598 126.4C779.198 108.8 737.598 95.9999 686.398 84.7999C631.998 75.1999 575.998 70.3999 515.198 70.3999C454.398 70.3999 396.798 75.1999 345.598 84.7999C292.798 94.3999 252.798 108.8 222.398 126.4C191.998 144 177.598 161.6 177.598 182.4V240C177.598 260.8 191.998 278.4 222.398 296C247.998 310.4 281.598 323.2 323.198 332.8C331.198 300.8 348.798 272 374.398 246.4C412.798 208 459.198 188.8 513.598 188.8C567.998 188.8 614.398 208 652.798 246.4C678.398 272 695.998 300.8 703.998 334.4C747.198 324.8 782.398 312 809.598 297.6C839.998 280 854.398 262.4 854.398 241.6V182.4ZM854.398 502.4C819.198 526.4 771.198 545.6 710.398 558.4C692.798 561.6 675.198 564.8 657.598 568V635.2H700.798C719.998 635.2 739.198 644.8 750.398 659.2C772.798 652.8 791.998 644.8 807.998 635.2C838.398 617.6 852.798 598.4 852.798 579.2V502.4H854.398ZM854.398 745.6V670.4C830.398 688 799.998 700.8 764.798 712C761.598 723.2 756.798 732.8 748.798 742.4L643.198 849.6C657.598 848 671.998 844.8 686.398 843.2C739.198 833.6 779.198 819.2 809.598 801.6C838.398 784 854.398 764.8 854.398 745.6ZM343.998 505.6C348.798 507.2 353.598 507.2 356.798 507.2C327.998 473.6 313.598 433.6 313.598 387.2C254.398 374.4 207.998 356.8 174.398 332.8V408C174.398 428.8 188.798 446.4 219.198 464C251.198 481.6 292.798 494.4 343.998 505.6ZM174.398 745.6C174.398 766.4 188.798 784 219.198 801.6C249.598 819.2 291.198 832 342.398 843.2C355.198 846.4 367.998 848 382.398 849.6L276.798 744C267.198 734.4 262.398 724.8 259.198 712C225.598 700.8 196.798 688 174.398 672V745.6ZM854.398 332.8C819.198 356.8 771.198 376 710.398 388.8H708.798C707.198 433.6 692.798 473.6 665.598 507.2C671.998 505.6 678.398 505.6 684.798 504C737.598 494.4 777.598 480 807.998 462.4C838.398 444.8 852.798 427.2 852.798 406.4V332.8H854.398ZM174.398 576C174.398 596.8 188.798 614.4 219.198 632C233.598 640 252.798 648 271.998 654.4C283.198 640 302.398 632 319.998 632H367.998V564.8C351.998 561.6 335.998 560 319.998 556.8C259.198 544 211.198 526.4 175.998 500.8V576H174.398ZM321.598 913.6H702.398V968H321.598V913.6ZM358.398 732.8L511.998 886.4L542.398 856L663.998 732.8L700.798 696H593.598V563.2C582.398 568 571.198 572.8 559.998 574.4C543.998 577.6 527.998 580.8 511.998 580.8C494.398 580.8 478.398 579.2 462.398 574.4C451.198 571.2 441.598 568 430.398 563.2V694.4H321.598L358.398 732.8ZM531.198 408V254.4H492.798V372.8H425.598V411.2H531.198V408Z" fill="black"/>
</svg>
