<svg width="1024" height="1024" viewBox="0 0 1024 1024" fill="none" xmlns="http://www.w3.org/2000/svg">
<path d="M282 481.333C344 601.333 444 701.333 564 763.333L658 669.333C670 657.333 688 653.333 702 659.333C750 675.333 802 683.333 854 683.333C878 683.333 896 701.333 896 725.333V875.333C896 899.333 878 917.333 854 917.333C454 917.333 128 591.333 128 191.333C128 167.333 146 149.333 170 149.333H320C344 149.333 362 167.333 362 191.333C362 245.333 370 295.333 386 343.333C390 357.333 388 375.333 376 387.333L282 481.333Z" fill="black"/>
</svg>
