<svg width="1024" height="1024" viewBox="0 0 1024 1024" fill="none" xmlns="http://www.w3.org/2000/svg">
<path d="M612.479 136.021L473.279 275.221L515.199 317.093L409.391 422.933C394.374 419.995 377.107 418.314 359.447 418.314C284.546 418.314 216.707 448.554 167.474 497.49L167.487 497.477L147.695 517.237L318.047 687.589C311.983 693.717 305.855 699.765 299.823 705.909L162.031 843.733C158.708 857.081 155.974 873.211 154.395 889.678L154.287 891.077C172.166 889.38 188.295 886.647 204.008 882.848L201.631 883.333L339.423 745.541C345.567 739.509 351.615 733.381 357.743 727.317L528.111 897.653L547.903 877.861C596.813 828.677 627.046 760.876 627.046 686.014C627.046 668.308 625.355 650.997 622.125 634.233L622.399 635.941L728.255 530.133L770.143 572.037L909.343 432.837L612.479 136.021ZM680.255 402.933L640.655 442.533L688.655 490.533L560.767 618.405L564.671 633.829C568.754 649.53 571.098 667.554 571.098 686.126C571.098 735.627 554.446 781.24 526.439 817.667L526.815 817.157L228.191 518.549C264.111 490.912 309.727 474.257 359.234 474.257C377.796 474.257 395.811 476.598 413 481.002L411.503 480.677L426.927 484.565L594.399 317.093L552.479 275.189L612.479 215.205L830.079 432.805L770.095 492.789L680.255 402.933Z" fill="black"/>
</svg>
