<svg width="1024" height="1024" viewBox="0 0 1024 1024" fill="none" xmlns="http://www.w3.org/2000/svg">
<path d="M261.632 847.838L177.732 761.617C176.237 760.085 175.314 757.99 175.309 755.679V650.121C175.309 645.408 171.488 641.588 166.776 641.588H141.176C136.463 641.588 132.643 645.409 132.643 650.121V773.359C132.648 775.713 133.606 777.843 135.152 779.383L245.061 889.207C246.602 890.753 248.731 891.71 251.084 891.716H279.518C284.231 891.716 288.051 887.895 288.051 883.183V857.583C288.051 852.87 284.23 849.05 279.518 849.05H264.721C264.693 849.051 264.659 849.051 264.625 849.051C263.461 849.051 262.405 848.588 261.63 847.837L261.632 847.838ZM476.331 849.067H547.789C552.502 849.067 556.322 852.888 556.322 857.6V883.2C556.322 887.913 552.501 891.733 547.789 891.733H476.331C471.618 891.733 467.798 887.912 467.798 883.2V857.6C467.798 852.887 471.619 849.067 476.331 849.067ZM883.2 641.587H857.6C852.887 641.587 849.067 645.408 849.067 650.12V755.626C849.067 755.631 849.067 755.636 849.067 755.641C849.067 757.994 848.115 760.124 846.575 761.668L761.668 846.506C760.123 848.055 757.987 849.014 755.626 849.015H650.239C645.526 849.015 641.706 852.836 641.706 857.548V883.148C641.706 887.861 645.527 891.681 650.239 891.681H773.29C775.65 891.68 777.787 890.722 779.331 889.172L889.24 779.28C890.78 777.737 891.732 775.606 891.732 773.254C891.732 773.249 891.732 773.243 891.732 773.238V773.239V650.12C891.732 645.407 887.911 641.587 883.199 641.587H883.2ZM650.24 174.933H755.678C755.683 174.933 755.688 174.933 755.693 174.933C758.046 174.933 760.176 175.885 761.72 177.425L846.507 262.332C848.046 263.875 848.998 266.005 848.999 268.356V373.862C848.999 378.575 852.82 382.395 857.532 382.395H883.132C887.845 382.395 891.665 378.574 891.665 373.862V250.692C891.664 248.34 890.713 246.211 889.173 244.667L779.332 134.826C777.789 133.286 775.658 132.334 773.306 132.334C773.301 132.334 773.295 132.334 773.29 132.334H650.24C645.527 132.334 641.707 136.155 641.707 140.867V166.467C641.746 171.15 645.551 174.933 650.24 174.933ZM236.425 203.401L262.4 177.494C263.943 175.954 266.074 175.002 268.426 175.002C268.431 175.002 268.437 175.002 268.442 175.002H373.93C378.643 175.002 382.463 171.181 382.463 166.469V140.801C382.463 136.088 378.642 132.268 373.93 132.268H250.743C248.391 132.269 246.262 133.22 244.718 134.76L180.906 198.623C180.132 199.395 179.652 200.464 179.652 201.644C179.652 204 181.562 205.911 183.919 205.911C183.922 205.911 183.924 205.911 183.927 205.911H230.4C232.754 205.906 234.884 204.948 236.424 203.402L236.425 203.401ZM476.331 132.267H547.789C552.502 132.267 556.322 136.088 556.322 140.8V166.4C556.322 171.113 552.501 174.933 547.789 174.933H476.331C471.618 174.933 467.798 171.112 467.798 166.4V140.8C467.798 136.087 471.619 132.267 476.331 132.267ZM141.022 467.729H166.622C171.335 467.729 175.155 471.55 175.155 476.262V547.72C175.155 552.433 171.334 556.253 166.622 556.253H141.022C136.309 556.253 132.489 552.432 132.489 547.72V476.262C132.489 471.549 136.31 467.729 141.022 467.729ZM175.07 364.049C198.831 388.347 219.511 415.813 236.381 445.715L237.398 447.675C260.41 490.958 281.771 541.872 298.557 594.823L300.374 601.463C314.748 646.549 327.61 701.54 336.44 757.869L337.29 764.45C338.707 772.983 339.816 780.407 340.703 786.637C361.221 738.454 374.083 682.542 376.228 623.894L376.252 623.053C376.287 620.988 376.307 618.551 376.307 616.109C376.307 560.574 365.981 507.45 347.145 458.553L348.16 461.551C330.051 416.183 303.365 377.682 269.839 346.42L269.653 346.248C242.828 321.322 211.496 300.78 177.09 286.037L174.984 285.235C167.321 281.822 159.505 278.613 151.261 275.507C145.219 273.288 138.666 271.36 132.317 269.329C94.6695 257.081 50.8855 248.357 5.62955 244.89L3.68555 244.77C52.7305 268.455 94.9935 295.617 133.524 327.167L132.386 326.263C137.113 330.137 141.483 333.806 145.152 337.015C156.109 345.609 165.874 354.46 174.977 363.951L175.07 364.049ZM963.106 576.853C956.006 550.809 922.59 522.393 891.733 500.838C875.486 489.506 860.126 480.153 849.51 474.009C840.977 469.094 835.498 466.158 835.498 466.158C800.193 425.652 751.802 397.352 696.967 387.854L695.551 387.651C679.476 384.533 660.99 382.749 642.087 382.749C641.581 382.749 641.075 382.75 640.57 382.753H640.648C602.02 383.324 564.853 388.438 529.303 397.583L532.582 396.867C443.238 278.766 269.107 250.094 196.369 243.472C195.26 243.37 193.946 243.216 192.87 243.131C175.052 241.646 164.505 241.595 163.857 241.595H163.601L164.915 242.039C173.244 244.77 181.282 247.654 189.15 250.572C231.736 266.156 268.571 287.016 301.258 312.887L300.425 312.251C317.823 325.355 332.963 340.018 346.125 356.342L346.505 356.829L375.723 355.293L357.274 372.206C362.032 378.44 366.616 385.477 370.671 392.846L371.115 393.727L420.318 386.047L384.939 422.945C388.028 432.178 389.564 439.858 392.636 449.091C405.231 494.933 412.469 547.571 412.469 601.899C412.469 607.861 412.382 613.802 412.209 619.722L412.229 618.853C410.134 701.482 388.378 778.583 351.492 846.249L352.803 843.621C351.813 845.43 350.84 847.188 349.868 848.895C341.443 864.112 332.696 877.166 322.986 889.42L323.449 888.814C339.276 882.776 351.94 877.086 364.251 870.804L361.883 871.901C368.607 868.283 375.536 864.255 382.363 860.057C448.895 816.308 506.43 772.719 560.931 725.71L558.747 727.551C577.196 710.638 595.645 696.831 614.094 681.471C648.776 652.789 687.518 626.306 728.585 603.501L732.486 601.513C768.202 582.548 810.576 571.412 855.55 571.412C856.463 571.412 857.375 571.417 858.287 571.426L858.148 571.425C894.767 573.324 928.743 577.192 962.053 582.997L956.964 582.263C962.169 582.212 964.405 580.778 963.108 576.853H963.106ZM770.253 483.482C770.206 483.482 770.151 483.482 770.096 483.482C767.146 483.482 764.232 483.327 761.362 483.025L761.72 483.056C746.629 482.521 733.121 476.16 723.293 466.168L723.285 466.16C712.516 455.391 715.605 450.8 726.357 450.8C750.845 454.258 772.419 464.733 789.51 480.097L789.401 480.001C790.613 481.281 781.789 483.5 770.235 483.5L770.253 483.482Z" fill="black"/>
</svg>
