<!-- Generated by IcoMoon.io -->
<svg version="1.1" xmlns="http://www.w3.org/2000/svg" width="32" height="32" viewBox="0 0 32 32">
<path d="M13.802 19.29v1.853l8.25-5.142-8.25-5.142v1.852l5.277 3.289-5.277 3.29zM11.142 12.433v7.134l1.553-0.967v-5.199l-1.553-0.968zM13.802 14.091v3.818l3.062-1.909-3.062-1.908zM16 2.118c-7.101 0-12.858 6.215-12.858 13.882s5.757 13.882 12.858 13.882 12.858-6.215 12.858-13.882-5.757-13.882-12.858-13.882zM12.693 23.214v-3.234l-2.66 1.658v-11.277l2.66 1.658v-3.233l11.573 7.213z"></path>
</svg>
