<svg width="1024" height="1024" viewBox="0 0 1024 1024" fill="none" xmlns="http://www.w3.org/2000/svg">
<path d="M511.684 799.799C447.098 799.799 385.154 774.399 339.456 729.176C293.758 683.953 268.044 622.605 267.961 558.609V348.112C267.961 339.89 271.257 332.006 277.124 326.192C282.991 320.378 290.95 317.111 299.248 317.111C307.545 317.111 315.503 320.378 321.37 326.192C327.238 332.006 330.534 339.89 330.534 348.112V558.609C332.476 604.884 352.394 648.624 386.124 680.686C419.855 712.747 464.787 730.648 511.528 730.648C558.269 730.648 603.2 712.747 636.931 680.686C670.661 648.624 690.579 604.884 692.521 558.609V348.112C692.521 339.89 695.818 332.006 701.685 326.192C707.552 320.378 715.51 317.111 723.807 317.111C732.105 317.111 740.064 320.378 745.931 326.192C751.798 332.006 755.094 339.89 755.094 348.112V558.609C755.011 622.551 729.34 683.852 683.71 729.066C638.08 774.28 576.215 799.717 511.684 799.799Z" fill="black"/>
<path d="M598.675 482.344C592.452 482.344 586.484 479.894 582.084 475.534C577.683 471.173 575.21 465.259 575.21 459.093C575.21 452.926 577.683 447.012 582.084 442.652C586.484 438.291 592.452 435.842 598.675 435.842H627.459V386.549H598.988C592.765 386.549 586.796 384.1 582.396 379.739C577.995 375.379 575.523 369.465 575.523 363.298C575.523 357.132 577.995 351.218 582.396 346.857C586.796 342.497 592.765 340.048 598.988 340.048H627.459V291.065H598.988C592.765 291.065 586.796 288.616 582.396 284.255C577.995 279.895 575.523 273.981 575.523 267.814C575.523 261.648 577.995 255.736 582.396 251.375C586.796 247.015 592.765 244.564 598.988 244.564H627.459V179.152C627.459 157.417 618.768 136.568 603.287 121.17C587.806 105.773 566.797 97.082 544.862 97H479.161C457.171 97 436.083 105.654 420.534 121.061C404.986 136.467 396.25 157.363 396.25 179.152V244.564H424.409C430.632 244.564 436.601 247.015 441.001 251.375C445.402 255.736 447.874 261.648 447.874 267.814C447.874 273.981 445.402 279.895 441.001 284.255C436.601 288.616 430.632 291.065 424.409 291.065H396.25V340.358H424.409C430.632 340.358 436.601 342.807 441.001 347.168C445.402 351.528 447.874 357.442 447.874 363.609C447.874 369.775 445.402 375.689 441.001 380.05C436.601 384.41 430.632 386.86 424.409 386.86H396.25V436.152H424.409C430.632 436.152 436.601 438.602 441.001 442.962C445.402 447.322 447.874 453.236 447.874 459.403C447.874 465.569 445.402 471.484 441.001 475.844C436.601 480.204 430.632 482.654 424.409 482.654H396.25V547.755C396.333 569.49 405.104 590.306 420.644 605.646C436.184 620.986 457.226 629.599 479.161 629.599H544.862C566.768 629.599 587.778 620.976 603.268 605.627C618.757 590.278 627.459 569.461 627.459 547.755V482.344H598.675Z" fill="black"/>
<path d="M511.697 925.999C503.399 925.999 495.442 922.732 489.574 916.919C483.707 911.105 480.41 903.22 480.41 894.998V768.823C480.41 760.601 483.707 752.717 489.574 746.903C495.442 741.089 503.399 737.822 511.697 737.822C519.995 737.822 527.953 741.089 533.82 746.903C539.688 752.717 542.984 760.601 542.984 768.823V894.998C542.984 903.22 539.688 911.105 533.82 916.919C527.953 922.732 519.995 925.999 511.697 925.999Z" fill="black"/>
<path d="M618.396 925.967H405.021C396.723 925.967 388.765 922.7 382.898 916.887C377.03 911.073 373.734 903.188 373.734 894.966C373.734 886.744 377.03 878.859 382.898 873.045C388.765 867.231 396.723 863.965 405.021 863.965H618.396C626.693 863.965 634.652 867.231 640.519 873.045C646.387 878.859 649.682 886.744 649.682 894.966C649.682 903.188 646.387 911.073 640.519 916.887C634.652 922.7 626.693 925.967 618.396 925.967Z" fill="black"/>
</svg>
