<svg width="1024" height="1024" viewBox="0 0 1024 1024" fill="none" xmlns="http://www.w3.org/2000/svg">
<path d="M128 512.457C128 501.984 130.014 491.712 133.942 481.843C137.869 471.873 143.408 463.112 150.559 455.458C157.608 447.805 165.967 441.662 175.434 436.929C184.9 432.297 195.072 429.88 205.847 429.88C216.321 429.88 227.802 432.397 240.088 437.332C252.374 442.266 264.661 448.308 276.847 455.458C289.032 462.508 300.815 469.96 312.195 477.815C323.575 485.569 337.775 496.546 346.537 502.185V164.022C346.537 152.643 344.22 75 418.442 75C492.664 75 494.678 153.247 494.678 164.022V333.103C497.8 326.256 514.921 286.88 568.296 286.88C621.671 286.88 636.677 334.815 638.892 342.469C641.208 337.333 655.106 310.244 701.835 310.244C751.484 310.244 767.497 360.293 770.316 367.141C773.438 363.717 789.249 342.167 830.741 342.167C872.233 342.167 896 382.247 896 412.458C896 491.611 896 617.994 896 655.456C896 817.085 775.251 948 613.312 948C443.216 948 373.627 819.603 367.383 808.626C361.139 797.649 355.5 786.27 350.363 774.387C342.71 757.066 334.25 741.155 325.086 726.553C315.821 711.951 305.75 698.255 294.672 685.466C283.594 672.676 271.61 660.592 258.719 649.112C245.828 637.631 231.729 626.453 216.422 615.678C212.192 612.556 206.854 609.031 200.51 605.003C194.165 600.975 187.72 596.947 181.174 592.617C174.628 588.387 168.585 584.158 162.845 579.827C157.205 575.598 152.673 571.57 149.249 567.944C135.15 552.235 128 533.705 128 512.457Z" fill="black"/>
</svg>
