<svg width="1024" height="1024" viewBox="0 0 1024 1024" fill="none" xmlns="http://www.w3.org/2000/svg">
<path d="M209.599 209.6C292.799 126.4 393.599 84.7998 511.999 84.7998C630.399 84.7998 731.199 126.4 814.399 209.6C897.599 292.8 939.199 393.6 939.199 512C939.199 630.4 897.599 731.2 814.399 814.4C731.199 897.6 630.399 939.2 511.999 939.2C393.599 939.2 292.799 897.6 209.599 814.4C124.799 731.2 83.1992 630.4 83.1992 512C83.1992 393.6 124.799 294.4 209.599 209.6ZM270.399 755.2C337.599 822.4 417.599 856 511.999 856C606.399 856 686.399 822.4 753.599 755.2C820.799 688 854.399 608 854.399 512C854.399 417.6 820.799 336 753.599 268.8C686.399 201.6 606.399 168 511.999 168C417.599 168 337.599 201.6 270.399 268.8C203.199 336 169.599 416 169.599 512C169.599 606.4 203.199 688 270.399 755.2ZM551.999 568H331.199V488H471.999V243.2H551.999V568Z" fill="black"/>
</svg>
