<svg width="1024" height="1024" viewBox="0 0 1024 1024" fill="none" xmlns="http://www.w3.org/2000/svg">
<path d="M851.199 131.2C806.399 131.2 769.599 158.4 753.599 196.8H727.999V276.8H753.599C758.399 288 764.799 299.2 774.399 308.8L745.599 366.4L817.599 403.2L846.399 345.6L841.599 342.4C844.799 342.4 849.599 342.4 852.799 342.4C910.399 342.4 958.399 294.4 958.399 236.8C958.399 179.2 908.799 131.2 851.199 131.2ZM659.199 819.2C659.199 877.521 611.92 924.8 553.599 924.8C495.278 924.8 447.999 877.521 447.999 819.2C447.999 760.879 495.278 713.6 553.599 713.6C611.92 713.6 659.199 760.879 659.199 819.2ZM438.399 196.8H502.399V276.8H438.399V196.8ZM534.399 196.8H598.399V276.8H534.399V196.8ZM630.399 196.8H694.399V276.8H630.399V196.8ZM340.229 515.945L410.597 477.881L441.048 534.175L370.68 572.239L340.229 515.945ZM386.717 600.359L457.085 562.295L487.536 618.589L417.168 656.653L386.717 600.359ZM295.149 430.772L365.517 392.708L395.968 449.002L325.6 487.066L295.149 430.772ZM431.037 684.133L501.405 646.069L531.856 702.363L461.488 740.427L431.037 684.133ZM729.599 393.6L715.199 424C710.399 424 707.199 422.4 702.399 422.4C675.199 422.4 651.199 432 631.999 448L639.999 436.8L585.599 403.2L543.999 472L598.399 505.6L599.999 502.4C598.399 510.4 596.799 520 596.799 529.6C596.799 587.2 644.799 635.2 702.399 635.2C759.999 635.2 807.999 587.2 807.999 529.6C807.999 505.6 799.999 481.6 785.599 464L801.599 430.4L729.599 393.6ZM461.493 420.269L503.421 352.133L557.93 385.675L516.002 453.811L461.493 420.269ZM380.403 370.205L422.323 302.069L476.832 335.605L434.912 403.741L380.403 370.205ZM236.799 406.4C251.199 406.4 263.999 404.8 278.399 401.6L279.999 404.8L291.199 398.4C310.399 392 327.999 382.4 342.399 369.6L350.399 364.8L348.799 363.2C374.399 340.8 393.599 310.4 401.599 276.8H406.399V240C406.399 238.4 406.399 238.4 406.399 236.8C406.399 235.2 406.399 235.2 406.399 233.6V196.8H401.599C383.999 121.6 316.799 67.2002 236.799 67.2002C143.999 67.2002 67.1992 142.4 67.1992 236.8C67.1992 329.6 143.999 406.4 236.799 406.4ZM236.799 131.2C294.399 131.2 340.799 177.6 342.399 233.6C342.399 235.2 342.399 235.2 342.399 236.8C342.399 238.4 342.399 238.4 342.399 240C342.399 244.8 342.399 249.6 340.799 254.4C335.999 278.4 324.799 300.8 305.599 316.8C303.999 318.4 300.799 321.6 297.599 323.2C287.999 331.2 276.799 336 263.999 339.2C254.399 342.4 244.799 342.4 235.199 342.4C177.599 342.4 129.599 294.4 129.599 236.8C129.599 179.2 179.199 131.2 236.799 131.2Z" fill="black"/>
</svg>
