<svg width="1024" height="1024" viewBox="0 0 1024 1024" fill="none" xmlns="http://www.w3.org/2000/svg">
<path d="M941.217 820.232C890.907 790.482 847.574 755.982 809.563 716.339L809.359 716.125C846.22 658.226 868.107 587.669 868.107 512C868.107 299.923 696.184 128 484.107 128C378.057 128 282.048 170.99 212.556 240.493L212.555 240.494C143.014 309.993 100 406.027 100 512.107C100 724.184 271.923 896.107 484 896.107C552.445 896.107 616.707 878.2 672.357 846.815L670.436 847.811C782.393 910.07 929.423 868.291 935.874 866.414C946.439 863.246 954.006 853.61 954.006 842.207C954.006 832.827 948.886 824.643 941.288 820.297L941.164 820.232H941.217ZM601.795 627.379C601.795 642.46 589.569 654.686 574.488 654.686H385.884C370.803 654.686 358.577 642.46 358.577 627.379C358.577 612.298 370.803 600.072 385.884 600.072H574.471C589.552 600.072 601.778 612.298 601.778 627.379H601.795ZM601.795 512.059C601.795 527.14 589.569 539.366 574.488 539.366H385.884C370.803 539.366 358.577 527.14 358.577 512.059C358.577 496.978 370.803 484.752 385.884 484.752H574.471C589.552 484.752 601.778 496.978 601.778 512.059H601.795ZM601.795 396.74C601.795 411.821 589.569 424.047 574.488 424.047H385.884C370.803 424.047 358.577 411.821 358.577 396.74C358.577 381.659 370.803 369.433 385.884 369.433H574.471C589.552 369.433 601.778 381.659 601.778 396.74H601.795Z" fill="black"/>
</svg>
