<!-- Generated by IcoMoon.io -->
<svg version="1.1" xmlns="http://www.w3.org/2000/svg" width="32" height="32" viewBox="0 0 32 32">
<path d="M28.942 25.631c-1.572-0.93-2.926-2.008-4.114-3.247l-0.006-0.007c1.152-1.809 1.836-4.014 1.836-6.379 0-6.627-5.373-12-12-12-3.314 0-6.314 1.343-8.486 3.515l-0 0c-2.173 2.172-3.517 5.173-3.517 8.488 0 6.627 5.373 12 12 12 2.139 0 4.147-0.56 5.886-1.54l-0.060 0.031c3.499 1.946 8.093 0.64 8.295 0.581 0.33-0.099 0.567-0.4 0.567-0.756 0-0.293-0.16-0.549-0.397-0.685l-0.004-0.002zM18.335 19.605c0 0.471-0.382 0.853-0.853 0.853h-5.894c-0.471 0-0.853-0.382-0.853-0.853v0 0c0-0.471 0.382-0.853 0.853-0.853v0h5.893c0.471 0 0.853 0.382 0.853 0.853v0zM18.335 16.001c0 0.471-0.382 0.853-0.853 0.853h-5.894c-0.471 0-0.853-0.382-0.853-0.853v0 0c0-0.471 0.382-0.853 0.853-0.853v0h5.893c0.471 0 0.853 0.382 0.853 0.853v0zM18.335 12.397c0 0.471-0.382 0.853-0.853 0.853h-5.894c-0.471 0-0.853-0.382-0.853-0.853v0 0c0-0.471 0.382-0.853 0.853-0.853v0h5.893c0.471 0 0.853 0.382 0.853 0.853v0z"></path>
</svg>
