<svg width="1024" height="1024" viewBox="0 0 1024 1024" fill="none" xmlns="http://www.w3.org/2000/svg">
<path d="M511.998 622.933C573.265 622.933 622.932 573.267 622.932 512C622.932 450.733 573.265 401.067 511.998 401.067C450.732 401.067 401.065 450.733 401.065 512C401.065 573.267 450.732 622.933 511.998 622.933Z" fill="black"/>
<path d="M934.057 485.376C845.822 337.749 685.566 245.931 511.998 245.931C338.43 245.931 178.174 337.579 89.9396 485.376C80.041 501.76 80.041 522.411 89.9396 538.795C178.174 686.421 338.43 778.24 511.998 778.24C685.566 778.24 845.822 686.421 934.057 538.795C943.956 522.411 943.956 501.76 934.057 485.376ZM511.998 716.8C398.846 716.8 307.198 625.152 307.198 512C307.198 398.848 398.846 307.2 511.998 307.2C625.15 307.2 716.798 398.848 716.798 512C716.798 625.152 625.15 716.8 511.998 716.8Z" fill="black"/>
</svg>
