<svg width="1024" height="1024" viewBox="0 0 1024 1024" fill="none" xmlns="http://www.w3.org/2000/svg">
<path d="M934.058 485.376C893.952 418.304 838.826 362.837 774.485 322.219C771.925 320.683 769.536 319.147 766.975 317.611C764.415 316.075 762.026 314.539 759.466 313.003L832.853 239.616C845.653 226.816 848.042 205.653 836.096 191.829C829.269 183.808 819.712 179.883 810.154 179.883C801.45 179.883 792.746 183.296 786.09 189.952L345.258 630.784C343.551 628.395 341.845 626.005 340.309 623.616C338.773 621.227 337.237 618.667 335.701 616.107C310.954 574.123 300.373 522.923 311.808 468.651C328.192 390.827 390.485 328.534 468.309 312.15C521.045 301.056 571.05 310.784 612.181 333.995C614.4 335.189 617.13 334.848 618.837 333.141L670.549 281.429C673.45 278.528 672.426 273.237 668.33 272.043C618.666 255.317 565.93 246.272 512 246.272C338.602 246.272 178.346 338.091 90.1115 485.717C80.2128 502.101 80.2128 522.752 90.1115 539.136C130.218 606.208 185.344 661.675 249.685 702.294C252.074 703.83 254.634 705.365 257.194 706.901C259.754 708.437 262.144 709.973 264.704 711.509L191.317 784.896C178.517 797.696 176.128 818.859 188.074 832.683C194.901 840.704 204.458 844.63 214.016 844.63C222.72 844.63 231.423 841.216 238.079 834.56L461.653 610.987C464.384 612.352 467.114 613.717 469.845 614.912C472.746 616.107 475.648 617.131 478.72 618.155C492.202 622.422 506.88 624.128 522.24 622.763C574.634 617.984 617.984 574.805 622.592 522.411C623.957 507.221 622.25 492.544 617.984 478.891C616.96 475.819 615.936 472.918 614.741 470.016C613.546 467.285 612.352 464.555 610.816 461.824L678.911 393.728C680.618 396.117 682.325 398.507 683.861 400.896C685.397 403.285 686.933 405.846 688.469 408.406C713.216 450.389 723.797 501.589 712.362 555.861C695.978 633.685 633.685 695.979 555.861 712.363C503.125 723.456 453.12 713.728 411.989 690.517C409.77 689.323 407.04 689.664 405.333 691.371L353.621 743.083C350.719 745.984 351.744 751.275 355.84 752.469C405.504 769.195 458.24 778.24 512.17 778.24C685.568 778.24 845.823 686.421 934.058 538.795C943.957 522.411 943.957 501.76 934.058 485.376Z" fill="black"/>
<path d="M401.578 501.931C400.554 513.707 401.408 525.142 403.797 535.893C404.65 540.16 410.111 541.525 413.183 538.453L538.453 413.184C541.525 410.112 540.159 404.651 535.893 403.797C525.141 401.408 513.706 400.555 501.93 401.579C449.535 406.187 406.186 449.536 401.578 501.931Z" fill="black"/>
</svg>
