<svg width="1024" height="1024" viewBox="0 0 1024 1024" fill="none" xmlns="http://www.w3.org/2000/svg">
<path d="M836.8 328C875.2 328 907.2 340.8 934.4 368C961.6 395.2 976 427.2 976 467.2V745.6H788.8V929.6H232V744H48V465.6C48 427.2 60.8 393.6 88 366.4C115.2 339.2 147.2 326.4 187.2 326.4H836.8V328ZM788.8 94.4004V278.4H232V94.4004H788.8ZM697.6 835.2V604.8H326.4V835.2H697.6ZM803.2 497.6C812.8 507.2 824 512 835.2 512C848 512 857.6 507.2 867.2 497.6C876.8 488 881.6 476.8 881.6 465.6C881.6 452.8 876.8 443.2 867.2 433.6C857.6 424 846.4 419.2 835.2 419.2C822.4 419.2 812.8 424 803.2 433.6C793.6 443.2 788.8 454.4 788.8 465.6C788.8 476.8 793.6 488 803.2 497.6Z" fill="black"/>
</svg>
