<!-- Generated by IcoMoon.io -->
<svg version="1.1" xmlns="http://www.w3.org/2000/svg" width="32" height="32" viewBox="0 0 32 32">
<path d="M27.902 3.535h-23.804c-0.739 0.002-1.337 0.6-1.339 1.339v17.825c0.002 0.739 0.6 1.337 1.339 1.34h6.359v3.939c0 0 0 0 0 0.001 0 0.269 0.218 0.486 0.486 0.486 0.109 0 0.21-0.036 0.291-0.097l-0.001 0.001 5.833-4.33h10.835c0.739-0.002 1.337-0.601 1.339-1.34v-17.825c-0.002-0.739-0.6-1.337-1.339-1.339h-0zM17.146 20.134c-0.091 0.211-0.217 0.391-0.373 0.54l-0.001 0.001c-0.156 0.149-0.34 0.27-0.544 0.353l-0.012 0.004c-0.199 0.081-0.429 0.129-0.671 0.129-0.005 0-0.010-0-0.014-0h0.001c-0.005 0-0.012 0-0.018 0-0.243 0-0.475-0.047-0.687-0.133l0.012 0.004c-0.622-0.253-1.052-0.853-1.052-1.553 0-0.005 0-0.010 0-0.015v0.001c-0-0.005-0-0.010-0-0.016 0-0.234 0.049-0.457 0.137-0.659l-0.004 0.011c0.091-0.209 0.215-0.387 0.367-0.536l0-0c0.324-0.307 0.763-0.495 1.245-0.495 0.246 0 0.481 0.049 0.695 0.138l-0.012-0.004c0.215 0.090 0.399 0.212 0.556 0.362l-0.001-0.001c0.312 0.3 0.506 0.72 0.506 1.186 0 0.005-0 0.010-0 0.015v-0.001c0 0.005 0 0.011 0 0.016 0 0.236-0.048 0.461-0.136 0.665l0.004-0.011zM19.828 11.227c-0.136 0.367-0.313 0.684-0.532 0.969l0.006-0.008c-0.206 0.265-0.436 0.496-0.691 0.698l-0.008 0.006q-0.381 0.298-0.724 0.55c-0.22 0.162-0.414 0.326-0.597 0.502l0.002-0.001c-0.155 0.146-0.267 0.335-0.318 0.548l-0.002 0.008-0.278 1.387h-2.105l-0.218-1.597c-0.017-0.082-0.027-0.176-0.027-0.272 0-0.209 0.047-0.407 0.13-0.584l-0.004 0.008c0.128-0.254 0.293-0.471 0.489-0.653l0.001-0.001c0.21-0.195 0.438-0.378 0.679-0.542l0.020-0.013c0.271-0.185 0.508-0.371 0.731-0.571l-0.006 0.006c0.218-0.196 0.406-0.417 0.562-0.662l0.008-0.013c0.147-0.241 0.234-0.532 0.234-0.843 0-0.016-0-0.031-0.001-0.047l0 0.002c0.001-0.016 0.001-0.035 0.001-0.055 0-0.353-0.151-0.671-0.392-0.892l-0.001-0.001c-0.266-0.221-0.611-0.355-0.987-0.355-0.031 0-0.062 0.001-0.093 0.003l0.004-0c-0.024-0.001-0.053-0.001-0.081-0.001-0.283 0-0.558 0.039-0.818 0.113l0.021-0.005c-0.234 0.070-0.434 0.153-0.624 0.252l0.020-0.009c-0.169 0.089-0.316 0.171-0.442 0.243-0.107 0.066-0.237 0.105-0.376 0.107h-0c-0.009 0-0.019 0.001-0.029 0.001-0.262 0-0.489-0.147-0.604-0.364l-0.002-0.004-0.813-1.242c0.236-0.197 0.497-0.387 0.77-0.558l0.030-0.017c0.263-0.165 0.568-0.323 0.886-0.455l0.042-0.015c0.303-0.127 0.66-0.237 1.030-0.311l0.037-0.006c0.359-0.073 0.771-0.114 1.193-0.114 0.015 0 0.030 0 0.045 0h-0.002c0.021-0 0.047-0 0.072-0 0.575 0 1.128 0.091 1.647 0.259l-0.038-0.011c0.492 0.158 0.917 0.401 1.279 0.713l-0.005-0.004c0.341 0.3 0.614 0.67 0.798 1.087l0.008 0.020c0.179 0.412 0.283 0.891 0.283 1.395 0 0.017-0 0.033-0 0.050l0-0.003c0.001 0.024 0.001 0.053 0.001 0.082 0 0.438-0.077 0.859-0.217 1.249l0.008-0.026z"></path>
</svg>
