<svg width="1024" height="1024" viewBox="0 0 1024 1024" fill="none" xmlns="http://www.w3.org/2000/svg">
<path d="M662.401 361.6H361.601V662.4H662.401V361.6ZM561.601 561.6H460.801V460.8H561.601V561.6ZM964.801 462.4V361.6H864.001V260.8C864.001 204.8 819.201 160 763.201 160H662.401V60.7998H561.601V160H460.801V60.7998H360.001V160H259.201C203.201 160 158.401 204.8 158.401 260.8V361.6H60.8008V462.4H160.001V563.2H60.8008V664H160.001V764.8C160.001 820.8 204.801 865.6 260.801 865.6H361.601V966.4H462.401V864H563.201V964.8H664.001V864H764.801C820.801 864 865.601 819.2 865.601 763.2V662.4H966.401V561.6H864.001V460.8H964.801V462.4ZM763.201 763.2H260.801V260.8H763.201V763.2Z" fill="black"/>
</svg>
