<!-- Generated by IcoMoon.io -->
<svg version="1.1" xmlns="http://www.w3.org/2000/svg" width="32" height="32" viewBox="0 0 32 32">
<path d="M6.4 6.686c2.667-2.667 5.867-4 9.6-4s6.987 1.333 9.6 4c2.667 2.667 4 5.867 4 9.6s-1.333 6.987-4 9.6c-2.667 2.667-5.867 4-9.6 4s-6.987-1.333-9.6-4c-2.667-2.667-4-5.867-4-9.6s1.333-6.987 4-9.6zM14.667 27.112v-2.613c-0.747 0-1.387-0.267-1.92-0.853-0.533-0.533-0.853-1.173-0.853-1.92v-1.333l-6.507-6.56c-0.213 0.853-0.32 1.707-0.32 2.453 0 2.773 0.907 5.173 2.773 7.253s4.107 3.2 6.827 3.573zM24.053 23.646c1.92-2.027 2.88-4.48 2.88-7.36 0-2.24-0.64-4.32-1.867-6.133-1.28-1.813-2.933-3.147-4.96-3.947v0.587c0 0.747-0.267 1.333-0.853 1.867-0.533 0.533-1.173 0.8-1.92 0.8h-2.667v2.773c0 0.373-0.16 0.693-0.427 0.96s-0.587 0.373-1.013 0.373h-2.667v2.72h8.213c0.373 0 0.693 0.107 0.96 0.373s0.373 0.587 0.373 0.96v4.107h1.333c1.28 0 2.133 0.64 2.613 1.92z"></path>
</svg>
