<svg width="1024" height="1024" viewBox="0 0 1024 1024" fill="none" xmlns="http://www.w3.org/2000/svg">
<path d="M645.85 232.6L588.45 175.6C578.25 165.5 560.85 172.7 560.85 187.1V196.5C560.85 201 557.25 204.6 552.75 204.6H471.25C466.75 204.6 463.15 201 463.15 196.5V187.3C463.15 172.9 445.75 165.7 435.55 175.9L378.15 233.3C371.85 239.6 371.85 249.9 378.15 256.2L435.55 313.2C445.75 323.3 463.15 316.1 463.15 301.7V292.3C463.15 287.8 466.75 284.2 471.25 284.2H552.75C557.25 284.2 560.85 287.8 560.85 292.3V301.5C560.85 315.9 578.25 323.1 588.45 312.9L645.85 255.5C652.25 249.2 652.15 239 645.85 232.6Z" fill="black"/>
<path d="M842.05 29.2H630.85C619.25 29.2 608.65 35.4 602.85 45.4L587.15 72.6C579.85 85.3 581.95 101.4 592.35 111.7L610.75 129.9L707.25 225.7L714.25 232.7C720.65 239 720.65 249.3 714.25 255.6L592.25 377.6C581.85 388 579.75 404 587.15 416.6L602.75 443.7C608.55 453.7 619.25 459.9 630.75 459.9H842.05C853.65 459.9 864.25 453.7 870.05 443.7L975.65 260.8C981.45 250.8 981.45 238.5 975.65 228.5L870.15 45.3C864.35 35.3 853.65 29.2 842.05 29.2Z" fill="black"/>
<path d="M316.85 263.2L309.85 256.2C303.45 249.9 303.45 239.6 309.85 233.3L431.85 111.3C442.25 100.9 444.35 84.9 436.95 72.3L421.35 45.2C415.55 35.2 404.85 29 393.35 29H182.05C170.45 29 159.85 35.2 154.05 45.2L48.35 228.3C42.55 238.3 42.55 250.6 48.35 260.6L153.95 443.5C159.75 453.5 170.45 459.7 181.95 459.7H393.15C404.75 459.7 415.35 453.5 421.15 443.5L436.85 416.3C444.15 403.6 442.05 387.5 431.65 377.2L316.85 263.2Z" fill="black"/>
<path d="M512.05 856.6C440.15 856.6 381.65 798.1 381.65 726.2C381.65 654.3 440.15 595.8 512.05 595.8C583.95 595.8 642.45 654.3 642.45 726.2C642.45 798.1 583.95 856.6 512.05 856.6ZM512.05 623C455.15 623 408.95 669.3 408.95 726.1C408.95 782.9 455.25 829.2 512.05 829.2C568.85 829.2 615.15 782.9 615.15 726.1C615.15 669.3 568.95 623 512.05 623Z" fill="black"/>
<path fill-rule="evenodd" clip-rule="evenodd" d="M511.65 458.1C475.25 456.9 462.25 509.3 494.15 525.5V539.9C466.65 538.6 354.05 578.1 380.15 615.2C386.85 622.2 397.95 622.5 404.95 615.8C407.05 613.8 409.25 611.8 411.55 609.9C420.05 602.7 429.35 596.4 439.15 591.3C448.55 586.4 458.55 582.4 468.85 579.6C474.45 578.1 480.25 576.8 485.95 576C492.85 574.9 499.85 574.4 506.95 574.3C518.65 575.7 529.55 567.7 529.25 556.6C529.55 554.6 528.05 523.6 530.65 524.7C560.95 507.5 547.15 456.8 511.65 458.1Z" fill="black"/>
<path fill-rule="evenodd" clip-rule="evenodd" d="M511.65 994.6C548.05 995.8 561.05 943.4 529.15 927.2V912.8C556.65 914.1 669.25 874.6 643.15 837.5C636.45 830.5 625.35 830.2 618.35 836.9C616.25 838.9 614.05 840.9 611.75 842.8C603.25 850 593.95 856.3 584.15 861.4C574.75 866.3 564.75 870.3 554.45 873.1C548.85 874.7 543.05 875.9 537.35 876.7C530.45 877.8 523.45 878.3 516.35 878.4C504.65 877 493.75 885 494.05 896.1C493.75 898.1 495.25 929.1 492.65 928C462.25 945.2 476.05 995.9 511.65 994.6Z" fill="black"/>
<path fill-rule="evenodd" clip-rule="evenodd" d="M244.25 727.3C243.05 763.7 295.45 776.7 311.65 744.8H326.05C324.75 772.3 364.25 884.9 401.35 858.8C408.35 852.1 408.65 841 401.95 834C399.95 831.9 397.95 829.7 396.05 827.4C388.85 818.9 382.55 809.6 377.45 799.8C372.55 790.4 368.55 780.4 365.75 770.1C364.25 764.5 362.95 758.7 362.15 753C361.05 746.1 360.55 739.1 360.45 732C361.85 720.3 353.85 709.4 342.75 709.7C340.75 709.4 309.75 710.9 310.85 708.3C293.65 677.9 242.95 691.8 244.25 727.3Z" fill="black"/>
<path fill-rule="evenodd" clip-rule="evenodd" d="M780.75 727.3C781.95 690.9 729.55 677.9 713.35 709.8H698.95C700.25 682.3 660.75 569.7 623.65 595.8C616.65 602.5 616.35 613.6 623.05 620.6C625.05 622.7 627.05 624.9 628.95 627.2C636.15 635.7 642.45 645 647.55 654.8C652.45 664.2 656.45 674.2 659.25 684.5C660.75 690.1 662.05 695.9 662.85 701.6C663.95 708.5 664.45 715.5 664.55 722.6C663.15 734.3 671.15 745.2 682.25 744.9C684.25 745.2 715.25 743.7 714.15 746.3C731.35 776.6 782.05 762.8 780.75 727.3Z" fill="black"/>
<path d="M576.28 591.9C587.911 591.9 597.34 582.471 597.34 570.84C597.34 559.209 587.911 549.78 576.28 549.78C564.649 549.78 555.22 559.209 555.22 570.84C555.22 582.471 564.649 591.9 576.28 591.9Z" fill="black"/>
<path d="M667.41 811.39C679.041 811.39 688.47 801.961 688.47 790.33C688.47 778.699 679.041 769.27 667.41 769.27C655.779 769.27 646.35 778.699 646.35 790.33C646.35 801.961 655.779 811.39 667.41 811.39Z" fill="black"/>
<path d="M447.92 902.62C459.551 902.62 468.98 893.191 468.98 881.56C468.98 869.929 459.551 860.5 447.92 860.5C436.289 860.5 426.86 869.929 426.86 881.56C426.86 893.191 436.289 902.62 447.92 902.62Z" fill="black"/>
<path d="M356.69 683.13C368.321 683.13 377.75 673.701 377.75 662.07C377.75 650.439 368.321 641.01 356.69 641.01C345.059 641.01 335.63 650.439 335.63 662.07C335.63 673.701 345.059 683.13 356.69 683.13Z" fill="black"/>
</svg>
