<svg width="1024" height="1024" viewBox="0 0 1024 1024" fill="none" xmlns="http://www.w3.org/2000/svg">
<path d="M419.202 128C264.002 128 137.602 252.8 137.602 408C137.602 563.2 264.002 689.6 419.202 689.6C473.602 689.6 524.802 673.6 568.002 646.4L817.602 896L884.802 828.8L640.002 582.4C678.402 534.4 700.802 473.6 700.802 408C699.202 252.8 574.402 128 419.202 128ZM419.202 593.6C316.802 593.6 233.602 510.4 233.602 408C233.602 305.6 316.802 224 419.202 224C521.602 224 604.802 307.2 604.802 409.6C604.802 512 521.602 593.6 419.202 593.6Z" fill="currentColor"/>
</svg>
