<svg width="1024" height="1024" viewBox="0 0 1024 1024" fill="none" xmlns="http://www.w3.org/2000/svg">
<path d="M703.171 476.023C741.889 437.305 761.248 391.327 761.248 335.669C761.248 267.912 737.049 209.835 688.651 161.437C640.253 113.039 582.176 88.8398 511.999 88.8398C441.822 88.8398 383.745 113.039 335.347 161.437C286.949 209.835 262.75 267.912 262.75 335.669H388.584C388.584 301.79 400.684 270.332 424.883 246.133C449.082 221.934 478.121 209.835 511.999 209.835C545.878 209.835 574.916 221.934 599.115 246.133C623.314 270.332 635.414 299.371 635.414 335.669C635.414 371.967 623.314 398.586 596.695 422.785L521.679 500.222C473.281 548.62 449.082 606.697 449.082 674.454V705.913H574.916C574.916 662.355 579.756 630.896 591.856 606.697C601.535 582.498 620.894 558.299 647.513 531.681L703.171 476.023ZM574.916 935.162V811.747H449.082V935.162H574.916Z" fill="black"/>
</svg>
