<?xml version="1.0" encoding="UTF-8"?>
<svg id="Layer_1" xmlns="http://www.w3.org/2000/svg" version="1.1" viewBox="0 0 1024 1024">
  <!-- Generator: Adobe Illustrator 29.4.0, SVG Export Plug-In . SVG Version: 2.1.0 Build 152)  -->
  <path d="M469.8,611c0,5.6,1.9,10.8,6.1,14.5,3.7,3.7,8.9,6.1,14.5,6.1h122.2c5.6,0,10.3-1.9,14-6.1,3.7-3.7,6.1-8.9,6.1-14.5v-122.2c0-5.6-1.9-10.8-6.1-14.5-4.2-3.7-8.9-6.1-14-6.1h-122.2c-5.6,0-10.8,1.9-14.5,6.1-3.7,3.7-6.1,8.9-6.1,14.5v122.2ZM591.9,427.5h-142.8c-5.6,0-10.3,1.9-14,6.1-3.7,3.7-6.1,8.9-6.1,14.5v142.3h20.1v-142.3h142.8v-20.6Z"/>
  <path d="M411.5,392.4h142.8v20.6h-142.8v142.3h-20.1v-142.3c0-5.6,2.3-10.8,6.1-14.5,3.7-4.2,8.4-6.1,14-6.1Z"/>
  <path d="M512,751.3c-131.9,0-239.3-107.4-239.3-239.3s107.4-239.3,239.3-239.3,239.3,107.4,239.3,239.3-107.4,239.3-239.3,239.3ZM512,299.5c-117.3,0-212.5,95.3-212.5,212.5s95.4,212.5,212.5,212.5,212.5-95.4,212.5-212.5-95.3-212.5-212.5-212.5Z"/>
  <path d="M172.1,441.8c26.9,7.2,46.7,31.8,46.7,61s-19.8,53.8-46.8,61v168.6c0,64.6,52.4,117,117,117h445.6c64.8,0,117.3-52.5,117.3-117.3v-166c0,0-55.2-55.1-55.2-55.1l71.2-71.3,71.3,71.2-55.1,55.2v166c0,82.6-66.9,149.6-149.5,149.6h-444.8c-82.8,0-150-67.2-150-150v-167.7c-27.3-7-47.4-31.7-47.4-61.2s20.1-54.2,47.4-61.2v-150.7c0-82.6,66.9-149.6,149.5-149.6h537.9l-43.2-43.2c-6.3-6.3-6.3-16.5,0-22.8,6.3-6.3,16.5-6.3,22.8,0l70.8,70.8c6.3,6.3,6.3,16.5,0,22.8l-70.8,70.8c-6.3,6.3-16.5,6.3-22.8,0-6.3-6.3-6.3-16.5,0-22.8l43.2-43.2H289.4c-64.8,0-117.3,52.5-117.3,117.3h0s0,0,0,0v150.9Z"/>
</svg>