<svg width="1024" height="1024" viewBox="0 0 1024 1024" fill="none" xmlns="http://www.w3.org/2000/svg">
<path d="M469.751 611.033C469.751 616.65 471.623 621.799 475.836 625.544C479.581 629.288 484.73 631.629 490.346 631.629H612.515C618.132 631.629 622.813 629.757 626.558 625.544C630.302 621.799 632.643 616.65 632.643 611.033V488.865C632.643 483.248 630.77 478.099 626.558 474.354C622.345 470.61 617.664 468.269 612.515 468.269L490.346 468.269C484.73 468.269 479.581 470.141 475.836 474.354C472.091 478.099 469.751 483.248 469.751 488.865V611.033ZM591.92 427.546L449.156 427.546C443.539 427.546 438.858 429.419 435.113 433.631C431.368 437.376 429.028 442.525 429.028 448.142L429.028 590.438H449.156V448.142H591.92V427.546Z" fill="black"/>
<path d="M411.485 392.371L554.249 392.371V412.967L411.485 412.967V555.263H391.358L391.358 412.967C391.358 407.35 393.698 402.201 397.443 398.456C401.187 394.243 405.868 392.371 411.485 392.371Z" fill="black"/>
<path d="M512 751.258C380.104 751.258 272.742 643.896 272.742 512C272.742 380.104 380.104 272.742 512 272.742C643.896 272.742 751.258 380.104 751.258 512C751.258 643.896 643.896 751.258 512 751.258ZM512 299.464C394.748 299.464 299.464 394.748 299.464 512C299.464 629.252 394.844 724.536 512 724.536C629.156 724.536 724.536 629.156 724.536 512C724.536 394.844 629.252 299.464 512 299.464Z" fill="black"/>
<path d="M172.115 441.8C199.021 449.044 218.824 473.614 218.824 502.809C218.824 532.022 198.995 556.605 172.062 563.831L172.062 732.418C172.062 797.035 224.445 849.418 289.062 849.418H734.652C799.453 849.418 851.978 796.874 851.955 732.073L851.896 566.044L796.732 510.918L867.97 439.629L939.259 510.867L884.133 566.032L884.192 732.061C884.222 814.671 817.261 881.655 734.652 881.655L289.879 881.654C207.036 881.654 139.879 814.497 139.879 731.654L139.879 564C112.618 556.996 92.4727 532.255 92.4727 502.809C92.4727 473.363 112.618 448.622 139.878 441.617L139.824 290.945C139.795 208.335 206.755 141.351 289.365 141.351L827.276 141.351L784.034 98.1097C777.739 91.8151 777.739 81.6094 784.034 75.3147C790.329 69.0201 800.534 69.0201 806.829 75.3148L877.587 146.072C883.881 152.367 883.881 162.573 877.587 168.867L806.829 239.625C800.534 245.92 790.329 245.92 784.034 239.625C777.739 233.331 777.739 223.125 784.034 216.83L827.276 173.588L289.365 173.588C224.563 173.589 172.038 226.132 172.061 290.934V290.949H172.062L172.115 441.8Z" fill="black"/>
</svg>
