<svg width="1024" height="1024" viewBox="0 0 1024 1024" fill="none" xmlns="http://www.w3.org/2000/svg">
<path d="M425.474 714.82C425.474 726.324 429.309 736.869 437.936 744.538C445.605 752.207 456.15 757 467.654 757H717.855C729.359 757 738.945 753.165 746.614 744.538C754.283 736.869 759.076 726.324 759.076 714.82V464.619C759.076 453.115 755.242 442.57 746.614 434.901C737.986 427.232 728.4 422.439 717.855 422.439L467.654 422.439C456.15 422.439 445.605 426.274 437.936 434.901C430.267 442.57 425.474 453.115 425.474 464.619V714.82ZM675.676 339.039L383.294 339.039C371.791 339.039 362.205 342.873 354.536 351.501C346.867 359.17 342.074 369.715 342.074 381.218L342.073 672.641H383.294V381.218H675.676V339.039Z" fill="black"/>
<path d="M306.145 267L598.526 267V309.18L306.145 309.18V600.602H264.924L264.924 309.18C264.924 297.676 269.718 287.131 277.387 279.462C285.056 270.835 294.642 267 306.145 267Z" fill="black"/>
<path d="M512 1002C241.877 1002 22 782.123 22 512C22 241.877 241.877 22 512 22C782.123 22 1002 241.877 1002 512C1002 782.123 782.123 1002 512 1002ZM512 76.7258C271.869 76.7258 76.7258 271.869 76.7258 512C76.7258 752.131 272.064 947.274 512 947.274C751.936 947.274 947.274 751.936 947.274 512C947.274 272.064 752.131 76.7258 512 76.7258Z" fill="black"/>
</svg>
