<svg width="1024" height="1024" viewBox="0 0 1024 1024" fill="none" xmlns="http://www.w3.org/2000/svg">
<path d="M336.002 432L254.402 289.6C137.602 366.4 59.2016 496 49.6016 643.2H212.802C222.402 555.2 268.802 480 336.002 432ZM472.002 619.2C440.002 643.2 435.202 689.6 459.202 721.6C483.202 753.6 529.602 758.4 561.602 734.4C580.802 720 684.802 604.8 766.402 515.2C756.802 500.8 747.202 486.4 736.002 473.6C628.802 531.2 491.202 604.8 472.002 619.2ZM512.002 374.4C555.202 374.4 596.802 384 633.602 400L715.202 257.6C652.802 227.2 584.002 209.6 510.402 209.6C436.802 209.6 368.002 227.2 305.602 257.6L387.202 400C427.202 382.4 468.802 374.4 512.002 374.4ZM769.602 289.6L688.002 432C705.602 444.8 721.602 459.2 736.002 475.2C806.402 438.4 862.402 408 862.402 408C862.402 408 819.202 456 766.402 515.2C790.402 553.6 806.402 596.8 811.202 643.2H974.402C964.802 496 886.402 366.4 769.602 289.6Z" fill="black"/>
</svg>
