<svg width="1024" height="1024" viewBox="0 0 1024 1024" fill="none" xmlns="http://www.w3.org/2000/svg">
<path fill-rule="evenodd" clip-rule="evenodd" d="M167.829 434.978C138.1 434.978 114 459.078 114 488.807V852.15C114 881.878 138.1 905.978 167.829 905.978H531.171C560.9 905.978 585 881.878 585 852.15V488.807C585 459.078 560.9 434.978 531.171 434.978H167.829ZM349.5 710.85C371.797 710.85 389.871 692.775 389.871 670.478C389.871 648.182 371.797 630.107 349.5 630.107C327.203 630.107 309.129 648.182 309.129 670.478C309.129 692.775 327.203 710.85 349.5 710.85ZM309.129 589.735C309.129 612.032 291.054 630.107 268.757 630.107C246.461 630.107 228.386 612.032 228.386 589.735C228.386 567.439 246.461 549.364 268.757 549.364C291.054 549.364 309.129 567.439 309.129 589.735ZM268.757 791.593C291.054 791.593 309.129 773.518 309.129 751.221C309.129 728.925 291.054 710.85 268.757 710.85C246.461 710.85 228.386 728.925 228.386 751.221C228.386 773.518 246.461 791.593 268.757 791.593ZM470.614 751.221C470.614 773.518 452.539 791.593 430.243 791.593C407.946 791.593 389.871 773.518 389.871 751.221C389.871 728.925 407.946 710.85 430.243 710.85C452.539 710.85 470.614 728.925 470.614 751.221ZM430.243 630.107C452.539 630.107 470.614 612.032 470.614 589.735C470.614 567.439 452.539 549.364 430.243 549.364C407.946 549.364 389.871 567.439 389.871 589.735C389.871 612.032 407.946 630.107 430.243 630.107Z" fill="black"/>
<path fill-rule="evenodd" clip-rule="evenodd" d="M451.958 165.45C461.107 131.309 496.2 111.047 530.342 120.196L861.606 208.958C895.748 218.106 916.009 253.199 906.861 287.341L818.099 618.605C808.951 652.747 773.857 673.008 739.715 663.86L608.633 628.737V482.439C608.633 443.321 576.922 411.61 537.804 411.61H386L451.958 165.45ZM674.02 402.475C668.249 424.009 646.115 436.789 624.58 431.019C603.046 425.249 590.266 403.114 596.036 381.579C601.806 360.045 623.941 347.265 645.476 353.035C667.01 358.806 679.79 380.94 674.02 402.475ZM567.492 332.139C589.026 337.909 611.161 325.13 616.931 303.595C622.702 282.061 609.922 259.926 588.388 254.156C566.853 248.386 544.718 261.165 538.948 282.7C533.178 304.234 545.957 326.369 567.492 332.139ZM731.106 501.353C725.336 522.887 703.201 535.667 681.667 529.896C660.132 524.126 647.353 501.992 653.123 480.457C658.893 458.923 681.028 446.143 702.562 451.913C724.097 457.683 736.876 479.818 731.106 501.353Z" fill="black"/>
</svg>
