<svg width="1024" height="1024" viewBox="0 0 1024 1024" fill="none" xmlns="http://www.w3.org/2000/svg">
<path d="M203.493 310.543C227.254 334.841 247.934 362.307 264.804 392.209L265.821 394.169C288.833 437.452 310.194 488.366 326.98 541.317L328.797 547.957C343.171 593.043 356.033 648.034 364.863 704.363L365.713 710.944C367.13 719.477 368.239 726.901 369.126 733.131C389.644 684.948 402.506 629.036 404.651 570.388L404.675 569.547C404.71 567.482 404.73 565.045 404.73 562.603C404.73 507.068 394.404 453.944 375.568 405.047L376.583 408.045C358.474 362.677 331.788 324.176 298.262 292.914L298.076 292.742C271.251 267.816 239.919 247.274 205.513 232.531L203.407 231.729C195.744 228.316 187.928 225.107 179.684 222.001C173.642 219.782 167.089 217.854 160.74 215.823C123.093 203.575 79.3094 194.851 34.0534 191.384L32.1094 191.264C81.1544 214.949 123.417 242.111 161.947 273.661L160.809 272.757C165.536 276.631 169.906 280.3 173.575 283.509C184.532 292.103 194.297 300.954 203.4 310.445L203.493 310.543ZM991.529 523.347C984.429 497.303 951.013 468.887 920.156 447.332C903.909 436 888.549 426.647 877.933 420.503C869.4 415.588 863.921 412.652 863.921 412.652C828.616 372.146 780.225 343.846 725.39 334.348L723.974 334.145C707.899 331.027 689.413 329.243 670.51 329.243C670.004 329.243 669.498 329.244 668.993 329.247H669.071C630.443 329.818 593.276 334.932 557.726 344.077L561.005 343.361C471.661 225.26 297.53 196.588 224.792 189.966C223.683 189.864 222.369 189.71 221.293 189.625C203.475 188.14 192.928 188.089 192.28 188.089H192.024L193.338 188.533C201.667 191.264 209.705 194.148 217.573 197.066C260.159 212.65 296.994 233.51 329.681 259.381L328.848 258.745C346.246 271.849 361.386 286.512 374.548 302.836L374.928 303.323L404.146 301.787L385.697 318.7C390.455 324.934 395.039 331.971 399.094 339.34L399.538 340.221L448.741 332.541L413.362 369.439C416.451 378.672 417.987 386.352 421.059 395.585C433.654 441.427 440.892 494.065 440.892 548.393C440.892 554.355 440.805 560.296 440.632 566.216L440.652 565.347C438.557 647.976 416.801 725.077 379.915 792.743L381.226 790.115C380.236 791.924 379.263 793.682 378.291 795.389C369.866 810.606 361.119 823.66 351.409 835.914L351.872 835.308C367.699 829.27 380.363 823.58 392.674 817.298L390.306 818.395C397.03 814.777 403.959 810.749 410.786 806.551C477.318 762.802 534.853 719.213 589.354 672.204L587.17 674.045C605.619 657.132 624.068 643.325 642.517 627.965C677.199 599.283 715.941 572.8 757.008 549.995L760.909 548.007C796.625 529.042 838.999 517.906 883.973 517.906C884.886 517.906 885.798 517.911 886.71 517.92L886.571 517.919C923.19 519.818 957.166 523.686 990.476 529.491L985.387 528.757C990.592 528.706 992.828 527.272 991.531 523.347H991.529ZM798.676 429.976C798.629 429.976 798.574 429.976 798.519 429.976C795.569 429.976 792.655 429.821 789.785 429.519L790.143 429.55C775.052 429.015 761.544 422.654 751.716 412.662L751.708 412.654C740.939 401.885 744.028 397.294 754.78 397.294C779.268 400.752 800.842 411.227 817.933 426.591L817.824 426.495C819.036 427.775 810.212 429.994 798.658 429.994L798.676 429.976Z" fill="black"/>
</svg>
