<svg width="1024" height="1024" viewBox="0 0 1024 1024" fill="none" xmlns="http://www.w3.org/2000/svg">
<path d="M739.751 489.81C771.122 452.724 789.758 405.241 789.758 354.655C789.758 237.81 694.868 143 577.926 143H192V223.534C269.962 198.862 363.609 232.69 405.075 283.276C405.075 283.276 602.619 266.362 629.952 395C629.952 395 442.813 315.862 340.158 462.5C315.465 497.569 308.942 539.155 294.655 590.983C266.079 687.034 250.394 758.414 212.81 833.828H347.923L396.067 609.138H467.972V561.034C467.972 559.483 467.972 557.931 468.282 556.379C468.282 556.069 468.282 555.603 468.438 555.293C468.438 555.293 468.438 555.138 468.438 554.983C475.426 513.086 554.32 485 665.516 485C692.383 485 717.232 486.707 739.751 489.81Z" fill="black"/>
<path d="M295.897 328.741H297.14C319.193 331.379 338.761 317.103 341.401 296.31L256.917 284.672L258.159 293.827C260.799 313.379 276.329 327.655 295.897 328.896V328.741Z" fill="black"/>
<path d="M665.516 807.137C634.456 807.137 607.899 804.965 584.759 801.396C545.778 795.344 517.668 785.258 499.032 773.775V838.948C499.032 838.948 528.384 881 665.516 881C802.648 881 832 838.948 832 838.948V773.775C814.761 784.327 789.758 793.793 755.436 800C730.432 804.5 700.77 807.137 665.516 807.137Z" fill="black"/>
<path d="M665.516 701C590.505 701 540.187 688.741 509.127 673.069C505.555 671.207 502.138 669.344 499.032 667.482V733.896C499.032 733.896 501.672 737.465 508.506 742.586C517.668 749.258 534.596 758.569 563.793 765.707C588.176 771.603 621.255 776.103 665.516 776.103C694.402 776.103 718.319 774.241 738.353 771.293C786.496 764.31 811.345 751.12 822.837 742.431C829.36 737.465 831.845 734.051 831.845 734.051V667.638C805.909 683.465 762.269 696.965 696.111 700.224C686.327 700.689 676.232 701 665.361 701H665.516Z" fill="black"/>
<path d="M832 560.258C830.292 548.776 793.174 524.724 711.33 518.052C697.353 516.965 682.289 516.189 665.671 516.189C551.524 516.189 501.206 546.914 499.343 560.258C499.343 560.569 499.343 560.724 499.343 560.879V627.758C499.343 627.758 503.225 633.189 514.562 640.327C534.596 652.741 578.081 669.965 665.827 669.965C670.33 669.965 674.368 669.81 678.561 669.655C759.008 668.103 799.386 651.81 817.867 640.017C828.583 633.189 832.31 627.914 832.31 627.914V561.034C832.31 561.034 832.31 560.569 832.31 560.258H832Z" fill="black"/>
</svg>
