<svg width="1024" height="1024" viewBox="0 0 1024 1024" fill="none" xmlns="http://www.w3.org/2000/svg">
<path d="M252.601 299.3L254.901 299.5C282.701 301.8 307.701 282.6 312.601 255.2L199.601 239L201.501 251.5C205.501 277.4 226.601 297.1 252.601 299.3Z" fill="black"/>
<path d="M707.601 605.1C828.601 570.4 913.201 458 913.201 331.9C913.201 175.1 785.801 47.5 629.201 47.5H110.801L110.901 156.6C215.901 123 341.901 169.2 397.101 237C397.101 237 662.001 214.1 699.901 386.4C699.901 386.4 696.601 385 690.801 382.9C690.601 382.8 690.401 382.8 690.201 382.7C688.901 382.2 687.501 381.7 686.001 381.2C685.501 381 685.001 380.9 684.501 380.7C683.101 380.2 681.501 379.7 679.901 379.2C679.101 379 678.401 378.7 677.601 378.5C676.101 378 674.401 377.5 672.701 377C671.701 376.7 670.701 376.4 669.601 376.1C668.001 375.6 666.201 375.1 664.501 374.6C663.301 374.3 662.001 373.9 660.801 373.6C659.001 373.1 657.101 372.6 655.301 372.1C653.901 371.7 652.501 371.4 651.001 371C649.101 370.5 647.201 370.1 645.201 369.6C643.601 369.2 642.001 368.8 640.301 368.5C638.301 368 636.301 367.6 634.201 367.2C632.401 366.8 630.701 366.5 628.801 366.1C626.701 365.7 624.601 365.3 622.401 364.9C620.501 364.5 618.501 364.2 616.601 363.9C614.401 363.5 612.201 363.2 609.901 362.8C607.901 362.5 605.801 362.2 603.701 361.9C601.401 361.6 599.101 361.3 596.801 361C594.601 360.7 592.401 360.5 590.201 360.2C587.901 359.9 585.501 359.7 583.101 359.5C580.801 359.3 578.501 359.1 576.101 358.9C573.701 358.7 571.301 358.6 568.801 358.4C566.401 358.3 564.001 358.2 561.501 358.1C559.001 358 556.601 357.9 554.101 357.9C551.601 357.9 549.001 357.9 546.501 357.9C544.001 357.9 541.601 357.9 539.101 358C536.501 358.1 533.801 358.2 531.201 358.3C528.701 358.4 526.201 358.5 523.701 358.7C521.001 358.9 518.301 359.1 515.601 359.4C513.101 359.6 510.601 359.9 508.001 360.1C505.301 360.4 502.501 360.8 499.701 361.2C497.201 361.6 494.601 361.9 492.101 362.3C489.301 362.8 486.501 363.3 483.701 363.9C481.201 364.4 478.601 364.9 476.101 365.4C473.301 366 470.401 366.8 467.601 367.5C465.101 368.1 462.601 368.7 460.001 369.4C457.101 370.2 454.301 371.1 451.401 372C448.901 372.8 446.401 373.5 443.901 374.4C441.001 375.4 438.101 376.5 435.201 377.7C432.801 378.6 430.301 379.5 427.901 380.5C425.001 381.7 422.001 383.1 419.101 384.5C416.701 385.6 414.401 386.6 412.001 387.8C409.001 389.3 406.101 390.9 403.101 392.5C400.801 393.7 398.501 394.9 396.301 396.3C393.301 398.1 390.301 400 387.301 401.9C385.101 403.3 383.001 404.6 380.801 406.1C377.701 408.2 374.701 410.5 371.701 412.8C369.701 414.3 367.701 415.7 365.701 417.3C362.501 419.8 359.401 422.6 356.301 425.3C354.501 426.9 352.701 428.3 350.901 430C347.601 433.1 344.301 436.4 341.001 439.7C339.501 441.2 338.001 442.6 336.601 444.1C332.701 448.2 328.901 452.7 325.101 457.2C324.301 458.1 323.601 458.9 322.801 459.8C318.301 465.4 313.801 471.2 309.501 477.3C305.701 482.7 302.301 488.2 299.201 493.8C298.301 495.3 297.501 496.9 296.701 498.5C294.401 502.8 292.201 507.2 290.201 511.6C289.501 513.2 288.701 514.8 288.001 516.4C285.501 522.1 283.201 528 281.001 534C281.001 534.1 280.901 534.2 280.901 534.4C278.601 540.8 276.501 547.4 274.401 554.1C273.901 555.6 273.501 557.1 273.001 558.6C271.401 564.1 269.701 569.8 268.201 575.5C267.801 576.8 267.501 578.2 267.101 579.6C265.101 586.8 263.201 594.2 261.201 601.8C257.201 617.2 253.001 633.2 248.101 650.1C240.901 674.8 234.201 698.3 227.801 720.8C225.201 730 222.701 738.9 220.101 747.7C218.101 754.7 216.101 761.6 214.101 768.4C212.401 774.2 210.701 780.2 209.001 785.9C205.501 797.8 202.001 809.4 198.401 820.9C197.301 824.6 196.101 828.2 194.901 831.9C192.201 840.2 189.601 848.5 186.801 856.7C185.301 861.1 183.801 865.4 182.301 869.8C179.601 877.5 176.801 885.1 174.001 892.7C172.401 896.9 170.901 901 169.301 905.2C165.601 914.8 161.601 924.5 157.501 934.1C156.701 936 156.001 937.8 155.201 939.7C149.801 952 144.101 964.4 138.001 976.8H319.401L383.901 674H486.301L665.401 976.5H896.001L682.001 618.2L705.001 605.9L707.601 605.1Z" fill="black"/>
</svg>
