<svg width="1024" height="1024" viewBox="0 0 1024 1024" fill="none" xmlns="http://www.w3.org/2000/svg">
<path d="M98.0005 883.419H926V713.639H98.0005V883.419ZM684 823.419V773.639H734V823.419H684ZM866 823.419H794V773.639H866V823.419ZM552 773.639H624V823.419H552V773.639ZM98.0005 503.859V673.639H926V503.859H98.0005ZM552 563.859H679V613.639H552V563.859ZM866 613.639H739V563.859H866V613.639ZM489.73 236.789L614.73 361.789L814.73 161.789L772.3 119.369L614.73 276.939L489.73 151.939L307.8 333.859H97.9805V393.859H332.66L489.73 236.789Z" fill="black"/>
</svg>
