<svg width="1024" height="1024" viewBox="0 0 1024 1024" fill="none" xmlns="http://www.w3.org/2000/svg">
<path d="M841.538 382.358L792.648 338.795L749.086 382.358L705.524 338.795L661.961 382.358L641.486 360.524C641.068 291.89 616.728 233.703 568.255 185.231C519.365 136.445 459.715 112 390.35 112C320.985 112 261.334 136.445 212.444 185.335C163.554 234.225 139.109 292.83 139.109 362.3C139.109 431.77 163.554 490.376 212.444 539.266C254.544 581.365 304.688 605.288 362.144 611.034V912L405.706 868.438L449.269 912L492.831 868.438L536.393 912L579.956 868.438L623.518 912L667.08 868.438L710.642 912L754.205 868.438L797.767 912L841.329 868.438L884.892 912V338.795L841.329 382.358H841.538ZM189.984 362.3C189.984 306.62 209.519 259.61 248.59 219.6C287.66 180.53 334.565 160.995 390.35 160.995C446.135 160.995 493.04 180.53 532.11 219.6C571.18 258.67 590.716 306.62 590.716 362.3C590.716 364.807 590.507 367.106 590.402 369.508C589.775 390.506 586.223 410.25 579.851 428.845C579.851 428.845 579.851 428.95 579.851 429.054C573.479 447.649 564.181 465.095 552.063 481.391C546.109 489.435 539.632 497.375 532.215 504.896C518.112 518.999 502.964 530.49 486.772 539.474C484.578 540.624 482.384 541.773 480.191 542.817C477.474 544.176 474.654 545.534 471.833 546.787C469.64 547.727 467.446 548.772 465.252 549.608C460.76 551.384 456.268 552.951 451.671 554.413C449.687 555.04 447.702 555.562 445.821 556.085C441.852 557.234 437.777 558.174 433.703 559.01C432.345 559.323 430.987 559.636 429.629 559.95C424.197 560.995 418.66 561.726 413.019 562.248C411.556 562.353 409.99 562.561 408.527 562.666C402.572 563.188 396.618 563.502 390.454 563.502C385.127 563.502 379.903 563.188 374.68 562.77C370.501 562.457 366.323 562.039 362.249 561.517C318.686 555.876 280.974 537.176 248.694 504.896C209.624 465.826 190.089 417.876 190.089 362.196L189.984 362.3ZM449.373 769.299V712.47H792.753V769.299H449.373ZM792.648 654.492H449.373V605.81C458.775 603.617 467.864 600.9 476.848 597.767H792.753V654.596L792.648 654.492ZM792.648 539.579H567.837C567.837 539.579 568.151 539.37 568.255 539.266C586.119 521.402 600.744 502.076 612.027 481.496H792.648V539.579Z" fill="black"/>
<path d="M414.795 197.975H365.905V347.571H279.825V396.461H414.795V197.975Z" fill="black"/>
</svg>
