<svg width="1024" height="1024" viewBox="0 0 1024 1024" fill="none" xmlns="http://www.w3.org/2000/svg">
<path d="M112 881.028H912V717H112V881.028ZM678.111 822.973V774.917H726.444V822.973H678.111ZM853.944 822.973H784.361V774.917H853.944V822.973ZM550.611 774.917H620.194V822.973H550.611V774.917Z" fill="black"/>
<path d="M112 514.362V678.389H912V514.362H112ZM550.611 572.278H673.25V620.334H550.611V572.278ZM853.944 620.334H731.306V572.278H853.944V620.334Z" fill="black"/>
<path d="M490.472 256.306L611.306 377.139L804.5 183.945L763.528 142.973L611.306 295.195L490.472 174.362L314.639 350.056H112V407.973H338.667L490.472 256.167V256.306Z" fill="black"/>
</svg>
