<svg width="1024" height="1024" viewBox="0 0 1024 1024" fill="none" xmlns="http://www.w3.org/2000/svg">
<path d="M592.3 592.3V349.1H349.1V592.3H592.3ZM267.6 673.8V267.6H673.7V616.6C709.1 592.3 751.9 578.1 798 578.1C811.7 578.1 825 579.4 838 581.7V510.7H755.2V429.2H836.7V430.5V349H755.2V186H592.2V106H510.7V186.2H429.2V106H347.7V186.2H184.7V349.2H106V430.7H186.2V512.2H106V593.7H186.2V756.7H349.2V838H430.7V755.2H512.2V836.7H581.6C579.4 824.1 578.2 811.2 578.2 798C578.2 751.9 592.4 709.1 616.7 673.7H267.6V673.8ZM798.1 626C703 626 626 703 626 798.1C626 893.2 703 970.2 798.1 970.2C893.2 970.2 970.2 893.2 970.2 798.1C970.2 703 893.1 626 798.1 626ZM902.1 835H835V902.1H761.1V835H694V761.1H761.1V694H835V761.1H902.1V835Z" fill="black"/>
</svg>
