<svg width="1024" height="1024" viewBox="0 0 1024 1024" fill="none" xmlns="http://www.w3.org/2000/svg">
<g clip-path="url(#clip0_2_882)">
<path d="M358.978 859.477H299.245V919.21H520.531C513.728 902.079 508.195 881.98 504.862 861.146L504.642 859.477H358.978ZM865.909 332.68L806.176 272.947V519.97C827.766 520.78 848.249 523.795 867.936 528.804L865.909 528.367V332.68ZM985.956 452.847L926.223 393.114V550.554C948.97 561.999 968.581 575.132 986.357 590.347L985.956 590.012V452.847ZM551.985 979.643H419.292V1039.38H606.206C585.564 1022.02 567.677 1002.38 552.63 980.627L551.986 979.642L551.985 979.643ZM745.811 212.48L560.638 27.29H179.198V323.619H238.931V87.024H535.891L686.078 237.211V540.452C703.186 533.427 723.254 527.651 744.075 524.076L745.811 523.829V212.48ZM238.931 739.294V502.613H179.198V799.027H501.434C502.522 777.306 505.788 756.868 511.032 737.238L510.565 739.294H238.931ZM297.47 535.21L339.71 577.45L503.994 413.166L339.71 248.865L297.47 291.088L389.664 383.299H38.0391V443.032H389.664L297.47 535.209V535.21ZM702.718 989.474C669.063 989.474 650.545 970.359 650.545 935.68V853.641L615.2 819.03V804.557L650.545 770.116V699.409C650.545 664.712 669.062 645.598 702.718 645.598H747.723V701.355H738.422C736.869 701.355 734.104 701.218 730.111 700.962C726.698 700.757 723.984 700.638 722.09 700.638C710.587 700.638 710.587 704.051 710.587 706.407V769.912C710.623 770.615 710.644 771.439 710.644 772.267C710.644 778.06 709.629 783.616 707.766 788.767L707.873 788.429C704.93 794.19 700.904 799.002 696.024 802.761L695.926 802.833L684.85 811.964L695.892 821.299C700.935 825.212 705.002 830.135 707.831 835.785L707.941 836.027C709.6 840.604 710.559 845.886 710.559 851.393C710.559 852.207 710.538 853.017 710.497 853.821L710.502 853.708V927.965C710.502 930.474 710.502 934.28 722.449 934.28C724.258 934.28 726.852 934.178 730.231 934.024C734.054 933.819 736.716 933.734 738.252 933.734H747.553V989.474H702.718ZM830.667 989.474V933.734H839.951C841.35 933.734 843.962 933.819 847.785 934.024C851.198 934.178 853.758 934.28 855.567 934.28C868.145 934.28 868.145 930.338 868.145 927.965V853.708C868.108 852.99 868.087 852.149 868.087 851.304C868.087 845.714 869.001 840.337 870.688 835.315L870.585 835.669C873.379 829.818 877.435 824.969 882.426 821.322L882.532 821.248L893.506 811.964L882.549 802.919C877.308 799.007 873.169 793.899 870.495 787.987L870.398 787.747C868.936 783.21 868.093 777.99 868.093 772.573C868.093 771.637 868.118 770.707 868.168 769.784L868.162 769.913V706.408C868.162 704.309 868.162 700.81 856.13 700.81C854.201 700.81 851.488 700.81 847.972 701.066C844.03 701.254 841.367 701.356 839.968 701.356H830.684V645.599H875.518C876.974 645.442 878.662 645.352 880.371 645.352C906.819 645.352 928.26 666.793 928.26 693.241C928.26 695.416 928.115 697.557 927.834 699.655L927.861 699.41V770.117L963.206 804.558V819.031L927.861 853.642V935.681C928.114 937.528 928.258 939.664 928.258 941.832C928.258 968.28 906.817 989.721 880.369 989.721C878.66 989.721 876.973 989.632 875.31 989.457L875.517 989.475L830.667 989.474Z" fill="black"/>
</g>
<defs>
<clipPath id="clip0_2_882">
<rect width="1024" height="1024" fill="white"/>
</clipPath>
</defs>
</svg>
