<svg width="1024" height="1024" viewBox="0 0 1024 1024" fill="none" xmlns="http://www.w3.org/2000/svg">
<path fill-rule="evenodd" clip-rule="evenodd" d="M108.613 5.95508H490.07L675.226 191.146V777.693H108.613V5.95508ZM325.71 328.557L386.855 267.412C408.021 247.031 433.106 235.272 462.895 234.488C493.467 234.488 518.552 244.679 539.718 265.845C560.883 287.01 571.074 312.879 571.074 342.668C571.074 373.24 560.883 398.325 539.718 419.491L478.573 480.636L449.568 451.631L509.929 390.486C523.256 377.944 529.527 362.266 529.527 343.452C529.527 324.638 522.472 308.96 509.929 296.417C497.387 283.091 481.708 276.819 462.895 276.819C444.081 276.819 428.403 283.875 415.86 296.417L354.715 357.562L325.71 328.557ZM433.299 343.504L310.798 466.005L340.73 495.937L463.231 373.436L433.299 343.504ZM233.993 573.137C212.828 551.972 202.637 526.103 202.637 496.314C202.637 466.525 213.611 440.656 233.209 419.491L294.354 358.346L323.359 387.351L262.214 448.496C248.887 461.822 241.832 478.284 242.616 496.314C242.616 515.128 249.671 530.022 262.214 543.349C274.756 556.675 291.218 562.162 309.248 562.946C328.062 562.946 343.74 556.675 357.067 543.349L418.212 482.204L448.784 511.992L387.639 573.137C366.474 594.303 341.389 604.493 310.816 604.493C280.244 604.493 255.159 594.303 233.993 573.137Z" fill="black"/>
<path d="M735.591 838.143V251.613L795.324 311.346V897.876H228.677V838.143H735.591Z" fill="black"/>
<path d="M855.655 958.309V371.779H855.656L915.389 431.512V1018.04H348.724V958.309H855.655Z" fill="black"/>
</svg>
