<svg width="1024" height="1024" viewBox="0 0 1024 1024" fill="none" xmlns="http://www.w3.org/2000/svg">
<path d="M855.999 297.6L791.999 358.4C817.599 404.8 831.999 456 831.999 512C831.999 688 687.999 832 511.999 832C452.799 832 396.799 816 348.799 787.2L491.199 1004.8L510.399 921.6C622.399 921.6 719.999 881.6 798.399 803.2C876.799 724.8 916.799 627.2 916.799 515.2C916.799 436.8 897.599 364.8 855.999 297.6ZM511.999 192C571.199 192 627.199 208 675.199 236.8L532.799 20.7998L513.599 104C401.599 104 303.999 144 225.599 222.4C147.199 300.8 107.199 398.4 107.199 510.4C107.199 587.2 126.399 660.8 167.999 728L231.999 667.2C206.399 620.8 191.999 568 191.999 512C191.999 336 335.999 192 511.999 192ZM351.999 420.8H444.799V705.6H351.999V420.8ZM481.599 318.4H572.799V705.6H481.599V318.4ZM609.599 518.4H702.399V705.6H609.599V518.4Z" fill="black"/>
</svg>
