<!-- Generated by IcoMoon.io -->
<svg version="1.1" xmlns="http://www.w3.org/2000/svg" width="32" height="32" viewBox="0 0 32 32">
<path d="M30.187 7.432c-0.373-0.373-0.853-0.64-1.44-0.64h-25.547c-0.587 0-1.12 0.213-1.493 0.64s-0.64 0.96-0.64 1.44v14.773c0 0.587 0.213 1.067 0.64 1.44 0.373 0.427 0.907 0.64 1.493 0.64h25.6c0.587 0 1.12-0.213 1.493-0.64 0.373-0.373 0.64-0.853 0.64-1.44v-14.773c-0.107-0.533-0.32-1.013-0.747-1.44zM16 24.232c-2.187 0-4.107-0.747-5.653-2.293-1.547-1.6-2.293-3.413-2.293-5.6h-2.987l4-4 3.947 4h-2.987c0 1.6 0.587 3.040 1.76 4.213s2.56 1.76 4.213 1.76c0.96 0 1.867-0.213 2.773-0.693l1.44 1.44c-1.28 0.747-2.72 1.173-4.213 1.173zM22.88 20.232l-3.947-3.947h2.987c0-1.653-0.587-3.040-1.76-4.213s-2.56-1.76-4.213-1.76c-0.96 0-1.92 0.213-2.773 0.693l-1.44-1.493c1.333-0.8 2.72-1.173 4.267-1.173 2.187 0 4.107 0.747 5.653 2.293s2.293 3.413 2.293 5.653h2.987l-4.053 3.947z"></path>
</svg>
