<svg width="1024" height="1024" viewBox="0 0 1024 1024" fill="none" xmlns="http://www.w3.org/2000/svg">
<path d="M875.371 651.763C840.837 615.967 792.445 593.738 738.862 593.738C737.797 593.738 736.733 593.747 735.672 593.765L735.832 593.763C734.931 593.747 733.867 593.739 732.802 593.739C679.219 593.739 630.828 615.968 596.347 651.707L596.293 651.764C560.467 685.771 538.179 733.74 538.179 786.915C538.179 788.147 538.191 789.376 538.215 790.602L538.212 790.419C538.19 791.484 538.178 792.739 538.178 793.997C538.178 847.134 560.434 895.073 596.133 928.999L596.213 929.074C630.748 964.87 679.139 987.1 732.723 987.1C733.816 987.1 734.907 987.091 735.996 987.072L735.832 987.075C736.733 987.09 737.797 987.099 738.862 987.099C792.445 987.099 840.837 964.87 875.317 929.13L875.371 929.074C911.197 895.066 933.485 847.097 933.485 793.923C933.485 792.691 933.473 791.461 933.449 790.235L933.452 790.419C933.473 789.376 933.485 788.147 933.485 786.915C933.485 733.74 911.197 685.771 875.453 651.84L875.371 651.763ZM870.31 711.612H812.872C806.461 685.568 797.339 662.688 785.551 641.496L786.281 642.927C822.717 654.416 852.231 678.89 870.014 710.796L870.39 711.531L870.31 711.612ZM735.832 632.724C751.081 655.383 763.709 681.523 772.377 709.407L772.946 711.531H698.718C707.956 681.523 720.584 655.383 736.514 631.645L735.832 632.724ZM583.199 829.38C580.774 817.781 579.265 804.352 579.024 790.615L579.021 790.419C579.265 776.485 580.774 763.056 583.44 750.048L583.199 751.457H649.152C647.705 762.748 646.805 775.956 646.663 789.346L646.662 789.535C646.662 789.535 646.662 790.178 646.662 790.419C646.662 790.66 646.662 791.061 646.662 791.302C646.805 804.882 647.706 818.09 649.325 831.074L649.153 829.38H583.199ZM600.953 869.547H658.471C664.882 895.591 674.004 918.471 685.792 939.663L685.062 938.232C648.708 926.595 619.304 902.021 601.651 870.051L601.274 869.306L600.953 869.547ZM658.471 711.853H601.274C619.418 679.179 648.935 654.676 684.358 643.448L685.383 643.168C674.352 662.835 665.233 685.602 659.204 709.596L658.792 711.531L658.471 711.853ZM735.832 948.113C720.584 925.454 707.956 899.314 699.287 871.43L698.718 869.306H773.027C763.763 899.316 751.109 925.455 735.152 949.187L735.832 948.113ZM782.988 829.38H688.676C687.173 817.87 686.215 804.363 686.028 790.671L686.025 790.419C686.245 776.442 687.231 762.941 688.945 749.669L688.756 751.457H782.987C784.49 762.967 785.448 776.474 785.635 790.167L785.638 790.419C785.448 804.363 784.49 817.87 782.804 831.15L782.988 829.38ZM786.282 937.911C797.339 918.149 806.462 895.269 812.465 871.157L812.872 869.226H870.39C852.26 901.932 822.74 926.464 787.305 937.711L786.281 937.991L786.282 937.911ZM822.11 829.38C823.557 818.089 824.457 804.882 824.599 791.491L824.6 791.302C824.6 791.302 824.6 790.66 824.6 790.419C824.6 790.178 824.6 789.776 824.6 789.535C824.457 775.956 823.557 762.748 821.937 749.763L822.11 751.457H888.465C890.889 763.056 892.398 776.485 892.64 790.223L892.643 790.419C892.398 804.353 890.889 817.782 888.224 830.789L888.465 829.38H822.11Z" fill="black"/>
<path d="M449.601 57.6016C496 57.6016 534.4 73.6017 566.4 105.602C598.4 137.602 614.4 177.602 614.4 224.002V586.596C597.403 596.845 581.846 609.228 568.11 623.368C563.044 628.215 558.201 633.296 553.601 638.593V224.002C553.601 195.202 544.001 171.201 523.201 150.401C502.401 129.601 478.401 120.002 449.601 120.002C420.801 120.002 396.801 129.601 377.601 150.401C358.401 171.201 347.201 195.202 347.201 224.002V737.602C347.201 784.002 363.201 822.402 395.201 856.002C427.201 888.002 465.601 904.002 512.001 904.002C517.019 904.002 521.943 903.814 526.776 903.439L529.885 909.547C540.413 927.235 553.278 943.361 568.048 957.488C568.64 958.098 569.237 958.704 569.836 959.307C551.534 964.036 532.274 966.401 512.001 966.401C449.601 966.401 396.801 944.001 352.001 899.201C307.201 854.401 284.801 801.602 284.801 737.602V224.002C284.801 177.602 300.801 139.202 332.801 105.602C364.801 73.6016 403.201 57.6016 449.601 57.6016Z" fill="black"/>
<path d="M470.4 656.002C470.401 665.602 475.201 675.201 483.201 683.201C491.201 691.201 500.801 696.002 512.001 696.002C513.836 696.002 515.627 695.87 517.376 695.619C508.763 715.114 502.821 736.051 500.018 757.964C475.784 755.876 455.245 746.25 438.4 728.002C419.2 708.802 408.001 683.202 408.001 656.002V265.602H470.4V656.002Z" fill="black"/>
<path d="M739.201 553.739C739.088 553.739 738.975 553.738 738.862 553.738C737.848 553.738 736.838 553.748 735.833 553.761C734.856 553.748 733.816 553.738 732.802 553.738C713.488 553.738 694.727 556.128 676.801 560.625V265.602H739.201V553.739Z" fill="black"/>
</svg>
