<svg width="1024" height="1024" viewBox="0 0 1024 1024" fill="none" xmlns="http://www.w3.org/2000/svg">
<path d="M426.82 696.8C440.075 696.8 450.82 707.545 450.82 720.8V796C450.82 809.255 440.075 820 426.82 820H352.457C339.202 820 328.457 809.255 328.457 796V720.8C328.457 707.545 339.202 696.8 352.457 696.8H426.82ZM426.82 204C440.075 204 450.82 214.745 450.82 228V303.2C450.82 316.455 440.075 327.2 426.82 327.2H352.457C339.202 327.2 328.457 316.455 328.457 303.2V228C328.457 214.745 339.202 204 352.457 204H426.82ZM450.82 476C450.82 462.745 440.075 452 426.82 452H352.457C339.202 452 328.457 462.745 328.457 476V549.6C328.457 562.855 339.202 573.6 352.457 573.6H426.82C440.075 573.6 450.82 562.855 450.82 549.6V476Z" fill="black"/>
<path d="M671.543 696.8C684.798 696.8 695.543 707.545 695.543 720.8V796C695.543 809.255 684.798 820 671.543 820H597.18C583.925 820 573.18 809.255 573.18 796V720.8C573.18 707.545 583.925 696.8 597.18 696.8H671.543ZM671.543 204C684.798 204 695.543 214.745 695.543 228V303.2C695.543 316.455 684.798 327.2 671.543 327.2H597.18C583.925 327.2 573.18 316.455 573.18 303.2V228C573.18 214.745 583.925 204 597.18 204H671.543ZM695.543 476C695.543 462.745 684.798 452 671.543 452H597.18C583.925 452 573.18 462.745 573.18 476V549.6C573.18 562.855 583.925 573.6 597.18 573.6H671.543C684.798 573.6 695.543 562.855 695.543 549.6V476Z" fill="black"/>
</svg>
