<svg width="1024" height="1024" viewBox="0 0 1024 1024" fill="none" xmlns="http://www.w3.org/2000/svg">
<path d="M158.401 780.8C180.801 793.6 209.601 803.2 248.001 811.2C286.401 819.2 326.401 822.4 371.201 822.4C379.201 822.4 385.601 822.4 393.601 822.4C379.201 804.8 376.001 787.2 376.001 772.8V740.8C374.401 740.8 372.801 740.8 371.201 740.8C320.001 740.8 273.601 736 228.801 726.4C184.001 716.8 150.401 704 124.801 686.4V740.8C124.801 753.6 136.001 768 158.401 780.8ZM158.401 411.2C180.801 424 209.601 433.6 248.001 441.6C286.401 449.6 326.401 452.8 371.201 452.8C372.801 452.8 374.401 452.8 376.001 452.8V361.6C376.001 339.2 385.601 307.2 432.001 280C448.001 270.4 465.601 264 486.401 257.6C451.201 251.2 412.801 248 371.201 248C326.401 248 284.801 251.2 248.001 259.2C209.601 267.2 180.801 276.8 158.401 289.6C136.001 302.4 124.801 315.2 124.801 331.2V372.8C124.801 384 136.001 398.4 158.401 411.2ZM158.401 657.6C180.801 670.4 209.601 680 248.001 688C286.401 696 326.401 699.2 371.201 699.2C372.801 699.2 374.401 699.2 376.001 699.2V617.6C374.401 617.6 372.801 617.6 371.201 617.6C320.001 617.6 273.601 612.8 228.801 603.2C184.001 593.6 150.401 580.8 124.801 563.2V617.6C124.801 630.4 136.001 644.8 158.401 657.6ZM158.401 534.4C180.801 547.2 209.601 556.8 248.001 564.8C286.401 572.8 326.401 576 371.201 576C372.801 576 374.401 576 376.001 576V494.4C374.401 494.4 372.801 494.4 371.201 494.4C320.001 494.4 273.601 489.6 228.801 480C184.001 470.4 150.401 457.6 124.801 440V494.4C124.801 507.2 136.001 521.6 158.401 534.4ZM915.201 593.6C896.001 606.4 872.001 617.6 841.601 627.2C832.001 630.4 820.801 632 809.601 635.2C798.401 638.4 787.201 640 776.001 641.6C764.801 643.2 753.601 644.8 740.801 646.4C716.801 648 692.801 649.6 667.201 649.6C654.401 649.6 641.601 649.6 630.401 648C620.801 648 611.201 646.4 601.601 646.4C576.001 644.8 550.401 640 526.401 635.2C499.201 628.8 475.201 622.4 454.401 612.8C443.201 608 432.001 601.6 422.401 595.2V649.6C422.401 664 433.601 678.4 456.001 691.2C457.601 692.8 460.801 692.8 462.401 694.4C478.401 702.4 496.001 708.8 518.401 715.2C526.401 716.8 534.401 718.4 542.401 720C544.001 720 544.001 720 545.601 720C564.801 723.2 584.001 726.4 604.801 728C609.601 728 614.401 728 617.601 729.6C633.601 731.2 651.201 731.2 668.801 731.2C680.001 731.2 691.201 731.2 700.801 731.2C716.801 731.2 732.801 729.6 747.201 728C761.601 726.4 777.601 724.8 792.001 721.6C816.001 716.8 835.201 712 852.801 704C864.001 700.8 873.601 696 881.601 691.2C884.801 689.6 886.401 688 889.601 686.4C892.801 684.8 894.401 683.2 896.001 681.6C900.801 678.4 904.001 675.2 905.601 672C908.801 668.8 910.401 665.6 912.001 660.8C913.601 657.6 913.601 654.4 913.601 649.6V593.6H915.201ZM915.201 470.4C896.001 483.2 872.001 494.4 841.601 504C832.001 507.2 820.801 508.8 809.601 512C798.401 513.6 787.201 516.8 776.001 518.4C764.801 520 753.601 521.6 740.801 523.2C716.801 524.8 692.801 526.4 667.201 526.4C654.401 526.4 641.601 526.4 630.401 524.8C620.801 524.8 611.201 523.2 601.601 523.2C576.001 521.6 550.401 516.8 526.401 512C499.201 505.6 475.201 499.2 454.401 489.6C443.201 484.8 432.001 478.4 422.401 472V526.4C422.401 540.8 433.601 555.2 456.001 568C457.601 569.6 460.801 569.6 462.401 571.2C478.401 579.2 496.001 585.6 518.401 592C526.401 593.6 534.401 595.2 542.401 596.8C544.001 596.8 544.001 596.8 545.601 596.8C564.801 600 584.001 603.2 604.801 604.8C609.601 604.8 614.401 604.8 617.601 606.4C633.601 608 651.201 608 668.801 608C680.001 608 691.201 608 700.801 608C716.801 608 732.801 606.4 747.201 604.8C761.601 603.2 777.601 601.6 792.001 598.4C816.001 593.6 835.201 588.8 852.801 580.8C864.001 577.6 873.601 572.8 881.601 568C884.801 566.4 886.401 564.8 889.601 563.2C892.801 561.6 894.401 560 896.001 558.4C900.801 555.2 904.001 552 905.601 548.8C908.801 545.6 910.401 542.4 912.001 537.6C913.601 532.8 913.601 531.2 913.601 526.4V470.4H915.201ZM915.201 771.2V716.8C896.001 729.6 872.001 740.8 841.601 750.4C832.001 753.6 820.801 755.2 809.601 758.4C798.401 761.6 787.201 763.2 776.001 764.8C764.801 766.4 753.601 768 740.801 769.6C716.801 771.2 692.801 772.8 667.201 772.8C654.401 772.8 641.601 772.8 630.401 771.2C620.801 771.2 611.201 769.6 601.601 769.6C576.001 768 550.401 763.2 526.401 758.4C499.201 752 475.201 745.6 454.401 736C443.201 731.2 432.001 724.8 422.401 718.4V772.8C422.401 787.2 433.601 801.6 456.001 814.4C457.601 816 460.801 816 462.401 817.6C478.401 825.6 496.001 832 518.401 838.4C526.401 840 536.001 843.2 545.601 844.8C564.801 848 584.001 851.2 604.801 852.8C625.601 854.4 646.401 856 668.801 856C680.001 856 691.201 856 700.801 856C716.801 856 732.801 854.4 747.201 852.8C761.601 851.2 777.601 849.6 792.001 846.4C816.001 841.6 835.201 836.8 852.801 828.8C864.001 825.6 873.601 820.8 881.601 816C884.801 814.4 886.401 812.8 889.601 811.2C892.801 809.6 894.401 808 896.001 806.4C900.801 803.2 904.001 800 905.601 796.8C908.801 793.6 910.401 790.4 912.001 785.6C915.201 777.6 915.201 774.4 915.201 771.2ZM422.401 360V401.6C422.401 416 433.601 430.4 456.001 443.2C457.601 444.8 460.801 444.8 462.401 446.4C478.401 454.4 496.001 460.8 518.401 467.2C526.401 468.8 534.401 470.4 542.401 472C544.001 472 544.001 472 545.601 472C564.801 475.2 584.001 478.4 604.801 480C609.601 480 614.401 480 617.601 481.6C633.601 483.2 651.201 483.2 668.801 483.2C680.001 483.2 691.201 483.2 700.801 483.2C716.801 483.2 732.801 481.6 747.201 480C761.601 478.4 777.601 476.8 792.001 473.6C816.001 468.8 835.201 464 852.801 456C864.001 452.8 873.601 448 881.601 443.2C884.801 441.6 886.401 440 889.601 438.4C892.801 436.8 894.401 435.2 896.001 433.6C900.801 430.4 904.001 427.2 905.601 424C908.801 420.8 910.401 417.6 912.001 412.8C913.601 408 913.601 406.4 913.601 401.6V360C913.601 356.8 913.601 352 912.001 348.8C910.401 345.6 908.801 342.4 905.601 337.6C902.401 334.4 899.201 331.2 896.001 328C894.401 326.4 891.201 324.8 889.601 323.2C886.401 321.6 884.801 320 881.601 318.4C873.601 313.6 864.001 308.8 852.801 305.6C835.201 299.2 814.401 292.8 792.001 288C777.601 284.8 763.201 283.2 747.201 281.6C732.801 280 716.801 278.4 700.801 278.4C689.601 278.4 678.401 278.4 668.801 278.4C646.401 278.4 625.601 280 604.801 281.6C595.201 283.2 587.201 283.2 579.201 284.8C568.001 286.4 556.801 288 545.601 289.6C536.001 291.2 526.401 292.8 518.401 296C492.801 302.4 472.001 310.4 456.001 320C433.601 331.2 422.401 345.6 422.401 360Z" fill="black"/>
</svg>
