<svg width="1024" height="1024" viewBox="0 0 1024 1024" fill="none" xmlns="http://www.w3.org/2000/svg">
<path d="M872.107 674.133V482.986C872.107 313.324 734.569 175.786 564.907 175.786H404.48L510.293 300.373H566.613C666.525 300.373 747.52 381.368 747.52 481.28V674.133H595.627L808.96 925.013L1022.29 674.133H872.107ZM151.893 349.867V541.014C151.893 710.676 289.431 848.214 459.093 848.214H619.52L513.707 723.627H459.094C458.587 723.632 457.987 723.635 457.387 723.635C357.475 723.635 276.48 642.64 276.48 542.728C276.48 542.725 276.48 542.722 276.48 542.719V349.867H428.373L215.04 98.9873L1.70703 349.867H151.893Z" fill="black"/>
</svg>
