<svg width="1024" height="1024" viewBox="0 0 1024 1024" fill="none" xmlns="http://www.w3.org/2000/svg">
<path d="M513.599 184C612.799 184 697.599 219.2 769.599 291.2C839.999 361.6 876.799 448 876.799 548.8C876.799 649.6 841.599 734.4 769.599 806.4C699.199 876.8 612.799 913.6 511.999 913.6C411.199 913.6 326.399 878.4 254.399 806.4C183.999 736 147.199 649.6 147.199 548.8H239.999C239.999 624 267.199 688 319.999 742.4C372.799 795.2 438.399 822.4 513.599 822.4C588.799 822.4 652.799 795.2 707.199 742.4C759.999 689.6 787.199 624 787.199 548.8C787.199 473.6 759.999 409.6 707.199 355.2C654.399 302.4 588.799 275.2 513.599 275.2V459.2L284.799 228.8L513.599 0V184Z" fill="black"/>
</svg>
