<svg width="1024" height="1024" viewBox="0 0 1024 1024" fill="none" xmlns="http://www.w3.org/2000/svg">
<path d="M465.304 17.4424H558.693V522.615H465.304V17.4424ZM807.524 222.874L906.238 123.222L644.128 122.13L644.247 390.077L742.926 290.425C802.606 347.648 839.693 428.032 839.693 517.077C839.693 518.185 839.687 519.291 839.676 520.396L839.677 520.227C839.716 522.064 839.738 524.23 839.738 526.4C839.738 614.374 803.538 693.894 745.222 750.875L745.162 750.933C687.945 810.592 607.577 847.666 518.55 847.666C517.446 847.666 516.344 847.66 515.243 847.649L515.411 847.65C513.569 847.689 511.398 847.711 509.222 847.711C421.263 847.711 341.76 811.51 284.797 753.195L284.738 753.134C225.068 695.907 187.989 615.526 187.989 526.484C187.989 525.394 187.995 524.304 188.006 523.216L188.005 523.382C187.967 521.553 187.945 519.396 187.945 517.235C187.945 429.263 224.145 349.746 282.46 292.767L282.52 292.709C309.969 264.6 342.423 241.523 378.463 224.895L380.465 224.067V122.367C314.84 144.401 258.891 180.301 213.827 226.81L213.723 226.918C138.088 300.282 91.1484 402.858 91.1484 516.399C91.1484 519.053 91.1744 521.701 91.2254 524.342L91.2194 523.946C91.2094 524.986 91.2044 526.215 91.2044 527.445C91.2044 642.375 139.291 746.074 216.442 819.52L216.608 819.677C289.652 896.017 392.347 943.468 506.126 943.468C509.139 943.468 512.144 943.435 515.141 943.369L514.694 943.377C514.916 943.377 515.178 943.378 515.44 943.378C631.227 943.378 735.793 895.334 810.29 818.094L810.408 817.971C886.052 744.611 932.999 642.033 932.999 528.49C932.999 525.86 932.974 523.237 932.924 520.619L932.93 521.011C932.941 519.916 932.947 518.622 932.947 517.327C932.947 401.698 884.889 297.294 807.657 223L807.524 222.874Z" fill="black"/>
</svg>
