<svg width="1024" height="1024" viewBox="0 0 1024 1024" fill="none" xmlns="http://www.w3.org/2000/svg">
<path d="M74.1887 294.502C107.873 313.004 147.054 326.727 188.576 333.472L190.686 333.755C223.494 339.95 262.167 344.264 301.565 345.743L303.035 345.787V335.803C303.035 296.038 326.109 263.321 371.609 238.523C410.021 218.225 454.592 202.696 501.634 194.306L504.422 193.894C551.983 185.027 606.704 179.956 662.609 179.956C665.124 179.956 667.637 179.966 670.148 179.987L669.764 179.985V125.15C669.764 105.523 656.674 89.8047 627.882 72.7887C594.198 54.2867 555.017 40.5637 513.495 33.8187L511.385 33.5357C465.958 25.2027 413.682 20.4377 360.294 20.4377C357.27 20.4377 354.249 20.4527 351.232 20.4837L351.692 20.4797C348.916 20.4477 345.636 20.4297 342.352 20.4297C289.221 20.4297 237.204 25.2047 186.709 34.3477L191.999 33.5527C147.825 41.3147 108.303 54.9737 71.9527 73.8887L74.2387 72.8067C45.4297 88.5247 32.3397 105.541 32.3397 125.168V242.16C32.2887 261.787 45.3787 277.488 74.1867 294.503L74.1887 294.502ZM303.548 622.199C255.133 619.624 209.873 613.564 165.836 604.196L171.572 605.218C119.285 596.248 72.5967 577.925 31.2247 551.922L32.8197 552.858V688.18C32.8197 706.51 45.9097 723.525 74.7017 740.541C108.386 759.043 147.567 772.766 189.089 779.511L191.199 779.794C224.022 785.963 262.701 790.247 302.104 791.698L303.549 791.74L303.548 622.199ZM171.571 382.293C119.284 373.313 72.5977 354.991 31.2207 328.996L32.8187 329.933V465.255C32.8187 484.882 45.9087 500.583 74.7007 517.616C108.385 536.118 147.566 549.841 189.088 556.586L191.198 556.869C224.001 563.019 262.678 567.303 302.076 568.772L303.548 568.816V462.9C303.222 459.917 303.036 456.457 303.036 452.954C303.036 452.905 303.036 452.855 303.036 452.806V452.814V399.088C254.717 396.454 209.631 390.464 165.722 381.27L171.572 382.295L171.571 382.293ZM513.929 244.19C559.126 235.83 611.134 231.049 664.257 231.049C667.549 231.049 670.837 231.067 674.121 231.104L673.622 231.1C676.168 231.073 679.176 231.058 682.188 231.058C735.591 231.058 787.877 235.836 838.644 244.987L833.315 244.19C876.947 251.218 916.128 264.942 951.724 284.401L949.812 283.444C978.621 300.511 991.711 316.161 991.711 335.805V452.797C991.711 472.424 978.621 489.439 949.812 505.158C916.117 523.254 876.992 536.936 835.629 544.081L833.315 544.412C787.246 552.761 734.223 557.536 680.084 557.536C677.35 557.536 674.619 557.524 671.891 557.5L672.308 557.503C669.768 557.53 666.767 557.545 663.763 557.545C610.353 557.545 558.059 552.767 507.284 543.616L512.615 544.413C468.983 537.385 429.802 523.661 394.206 504.202L396.118 505.159C367.327 488.092 354.236 472.425 354.236 452.798V335.823C354.236 316.179 367.326 299.164 396.118 283.462C430.182 265.629 469.704 251.97 511.39 244.574L513.878 244.208L513.929 244.19ZM493.449 592.862C547.827 604.517 610.3 611.192 674.333 611.192C674.707 611.192 675.081 611.192 675.455 611.191H675.397C676.287 611.194 677.34 611.196 678.394 611.196C741.751 611.196 803.549 604.519 863.122 591.831L857.344 592.862C907.825 584.388 952.83 566.015 992.097 539.737L990.856 540.519V675.841C990.856 695.485 977.766 712.5 948.974 728.202C915.279 746.295 876.154 759.976 834.792 767.124L832.477 767.455C787.276 775.815 735.266 780.596 682.139 780.596C678.85 780.596 675.565 780.578 672.285 780.541L672.784 780.545C670.238 780.572 667.23 780.587 664.218 780.587C610.815 780.587 558.529 775.809 507.762 766.658L513.091 767.455C469.452 760.423 430.266 746.7 394.662 727.243L396.577 728.201C367.786 711.134 354.695 695.484 354.695 675.84V540.518C394.474 565.571 441.161 583.887 491.16 592.534L493.447 592.861L493.449 592.862ZM493.449 815.889C547.463 827.544 609.514 834.219 673.125 834.219C673.48 834.219 673.835 834.219 674.19 834.218H674.135C674.707 834.219 675.386 834.22 676.064 834.22C739.794 834.22 801.965 827.544 861.916 814.855L856.082 815.889C906.57 807.414 951.581 789.035 990.851 762.747L989.611 763.528V898.85C989.611 918.477 976.521 935.492 947.712 951.211C914.017 969.307 874.892 982.989 833.529 990.134L831.215 990.465C786.388 998.814 734.811 1003.59 682.119 1003.59C678.855 1003.59 675.596 1003.57 672.341 1003.53L672.836 1003.54C670.301 1003.56 667.305 1003.58 664.306 1003.58C610.892 1003.58 558.592 998.808 507.809 989.668L513.143 990.464C469.504 983.432 430.318 969.709 394.714 950.252L396.629 951.21C367.838 934.143 354.747 917.162 354.747 898.849V763.527C394.526 788.584 441.212 806.905 491.211 815.56L493.499 815.888L493.449 815.889Z" fill="black"/>
</svg>
