<svg width="1024" height="1024" viewBox="0 0 1024 1024" fill="none" xmlns="http://www.w3.org/2000/svg">
<path d="M396.699 755.2C370.98 752.06 345.738 748.186 321.606 743.134C266.367 733.643 217.045 714.289 173.329 686.831L175.02 687.821V830.771C175.02 850.125 188.86 868.096 219.273 886.084C254.857 905.628 296.247 920.127 340.111 927.257L342.342 927.556C360.057 930.816 378.182 933.239 396.715 935.304L396.699 755.2ZM175.003 452.181V595.131C175.003 615.867 188.844 632.456 219.257 650.427C237.43 660.969 258.455 670.117 280.559 676.776L282.676 677.324C283.485 672.633 285.285 668.468 287.857 664.896L287.796 664.984L394.6 519.201C369.836 516.112 345.414 512.374 321.589 507.493C266.35 498.002 217.028 478.648 173.312 451.19L175.003 452.18V452.181ZM628.276 519.953L734.532 665.02C736.957 668.399 738.715 672.424 739.521 676.784L739.549 676.967C763.638 669.989 784.587 660.986 804.112 649.782L802.696 650.531C833.126 633.942 846.951 615.971 846.951 595.235V452.182C806.781 479.122 759.238 498.537 708.04 507.197L705.911 507.495C681.473 512.752 655.241 516.778 628.276 519.953ZM625.647 755.643V935.167C643.635 933.119 661.316 930.73 678.332 927.504C724.473 919.607 765.805 905.153 803.607 884.956L801.401 886.032C831.831 869.426 845.654 851.455 845.654 830.719V687.769C805.484 714.709 757.943 734.124 706.745 742.784L704.615 743.082C679.834 748.373 653.091 752.452 625.648 755.643H625.647ZM803.618 180.633C768.036 161.063 726.648 146.542 682.784 139.393L680.552 139.093C632.549 130.27 577.309 125.225 520.891 125.225C517.717 125.225 514.548 125.241 511.383 125.273L511.865 125.269C508.929 125.235 505.462 125.216 501.989 125.216C445.863 125.216 390.915 130.265 337.576 139.933L343.162 139.093C296.479 147.288 254.712 161.719 216.298 181.708L218.712 180.565C188.299 197.171 174.458 215.142 174.458 235.878V359.475C174.458 380.211 188.299 396.8 218.712 414.771C254.295 434.329 295.686 448.835 339.551 455.962L341.779 456.261C367.282 461.131 398.41 465.074 430.031 467.218L432.539 467.354L486.692 393.455C492.273 385.891 501.153 381.038 511.166 381.038C521.179 381.038 530.057 385.89 535.581 393.372L535.639 393.455L589.74 467.285C624.035 464.94 655.182 461.022 685.761 455.476L680.552 456.26C726.693 448.367 768.024 433.906 805.82 413.696L803.62 414.771C834.049 398.182 847.873 380.211 847.873 359.475V235.946C847.873 215.21 834.049 198.621 803.62 180.633H803.618ZM447.882 662.067V939.622H574.448V662.067H668.928L511.164 446.737L353.4 662.067H447.882Z" fill="black"/>
</svg>
