<svg width="1024" height="1024" viewBox="0 0 1024 1024" fill="none" xmlns="http://www.w3.org/2000/svg">
<path d="M832 228.8C753.6 152 659.2 112 547.2 112C435.2 112 340.8 150.4 262.4 228.8C184 307.2 144 403.2 144 515.2H9.59961L184 688L185.6 694.4L368 513.6H233.6C233.6 427.2 264 353.6 324.8 292.8C385.6 232 459.2 201.6 545.6 201.6C632 201.6 705.6 232 766.4 292.8C827.2 353.6 857.6 427.2 857.6 513.6C857.6 600 827.2 673.6 766.4 734.4C705.6 795.2 632 825.6 545.6 825.6C459.2 825.6 385.6 795.2 324.8 732.8L262.4 800C342.4 878.4 436.8 916.8 547.2 916.8C659.2 916.8 753.6 878.4 832 800C910.4 721.6 948.8 627.2 948.8 515.2C950.4 403.2 910.4 307.2 832 228.8ZM502.4 336V558.4L694.4 673.6L724.8 619.2L569.6 524.8V336H502.4Z" fill="black"/>
</svg>
