<svg width="1024" height="1024" viewBox="0 0 1024 1024" fill="none" xmlns="http://www.w3.org/2000/svg">
<path d="M480.154 42.8711H441.43L152.73 329.813V368.537H480.154V42.8711ZM568.166 42.8711V458.24H152.729V1004H849.817V42.8721L568.166 42.8711ZM660.479 885.76C621.359 926.257 566.573 951.402 505.913 951.402C504.872 951.402 503.834 951.395 502.798 951.38L502.954 951.382C501.397 951.424 499.565 951.447 497.727 951.447C437.773 951.447 383.707 926.246 345.54 885.86L345.447 885.76L380.365 850.773C409.966 882.237 451.876 901.831 498.362 901.831C499.437 901.831 500.509 901.821 501.578 901.8L501.418 901.802C501.81 901.805 502.273 901.807 502.737 901.807C596.268 901.807 672.09 825.985 672.09 732.454C672.09 731.99 672.088 731.527 672.083 731.064V731.135C672.086 730.743 672.089 730.28 672.089 729.816C672.089 636.285 596.267 560.463 502.736 560.463C502.272 560.463 501.809 560.465 501.346 560.469H501.417C501.025 560.466 500.561 560.464 500.098 560.464C406.566 560.464 330.745 636.286 330.745 729.817C330.745 730.281 330.747 730.744 330.751 731.207V731.136H405.128L305.954 827.392L208.213 729.702H282.59C282.437 726.723 282.35 723.234 282.35 719.724C282.35 661.308 306.456 608.523 345.262 570.772L345.31 570.726C384.431 530.219 439.225 505.068 499.893 505.068C500.922 505.068 501.948 505.075 502.973 505.09L502.818 505.088C503.69 505.075 504.72 505.068 505.753 505.068C566.423 505.068 621.22 530.219 660.284 570.664L660.344 570.726C700.872 610.938 725.963 666.66 725.963 728.243C725.963 789.826 700.872 845.548 660.357 885.746L660.344 885.76H660.479ZM600.747 796.108L584.703 825.275L479.573 761.104V638.582H516.026V743.61L600.747 796.108Z" fill="black"/>
</svg>
