<svg width="1024" height="1024" viewBox="0 0 1024 1024" fill="none" xmlns="http://www.w3.org/2000/svg">
<path d="M252.8 244.8C326.4 171.2 416 134.4 520 134.4C625.6 134.4 713.6 171.2 787.2 244.8C860.8 318.4 897.6 408 897.6 512C897.6 617.6 860.8 707.2 787.2 779.2C713.6 852.8 624 889.6 520 889.6C416 889.6 326.4 852.8 252.8 779.2L313.6 718.4C369.6 776 438.4 804.8 520 804.8C601.6 804.8 670.4 776 728 718.4C785.6 660.8 814.4 592 814.4 510.4C814.4 428.8 785.6 360 728 302.4C670.4 244.8 601.6 216 520 216C438.4 216 369.6 244.8 312 302.4C254.4 360 225.6 428.8 225.6 510.4H352L180.8 681.6L179.2 675.2L16 512H142.4C142.4 406.4 179.2 318.4 252.8 244.8Z" fill="black"/>
</svg>
