<svg width="1024" height="1024" viewBox="0 0 1024 1024" fill="none" xmlns="http://www.w3.org/2000/svg">
<path d="M686.398 107.2L638.398 57.5996H383.998L334.398 107.2H158.398V209.6H865.598V107.2H686.398ZM486.398 396.8V531.2L601.598 601.6L619.198 569.6L526.398 512V396.8H486.398ZM295.998 611.2L404.798 505.6H323.198C323.198 454.4 340.798 409.6 377.598 372.8C412.798 337.6 457.598 318.4 510.398 318.4C561.598 318.4 606.398 336 643.198 372.8C678.398 408 697.598 452.8 697.598 505.6C697.598 556.8 679.998 601.6 643.198 638.4C607.998 673.6 563.198 692.8 510.398 692.8C457.598 692.8 412.798 673.6 377.598 636.8L339.198 675.2C387.198 724.8 444.798 747.2 511.998 747.2C579.198 747.2 636.798 723.2 684.798 675.2C732.798 627.2 756.798 569.6 756.798 502.4C756.798 435.2 732.798 377.6 684.798 329.6C636.798 281.6 579.198 257.6 511.998 257.6C444.798 257.6 387.198 281.6 339.198 329.6C291.198 377.6 268.798 435.2 270.398 504H188.798L295.998 611.2ZM372.798 257.6H209.598V473.6H230.398C239.998 380.8 294.398 302.4 372.798 257.6ZM795.198 504C795.198 660.8 668.798 787.2 511.998 787.2C391.998 787.2 289.598 713.6 247.998 608L207.998 569.6V864C207.998 892.8 217.598 916.8 235.198 937.6C255.998 958.4 278.398 966.4 308.798 966.4H715.198C740.798 966.4 764.798 956.8 783.998 937.6C804.798 916.8 812.798 894.4 812.798 864V257.6H651.198C737.598 307.2 795.198 398.4 795.198 504Z" fill="black"/>
</svg>
