<svg width="1024" height="1024" viewBox="0 0 1024 1024" fill="none" xmlns="http://www.w3.org/2000/svg">
<path d="M764.682 294.18L708.797 350.065L742.594 383.863L855.962 270.495L743.925 158.725L710.127 192.522L764.15 246.544H763.352C725.829 246.544 655.839 246.544 593.034 282.737C533.423 317.066 496.166 374.814 482.062 454.651C453.055 462.102 431.765 488.182 431.765 519.052C431.765 546.728 448.797 570.413 473.014 580.526H473.546C460.24 733.545 379.073 766.278 298.971 773.463C288.858 748.714 264.907 731.682 236.964 731.682C200.24 731.682 170.168 761.488 170.168 798.478C170.168 835.469 199.974 865.275 236.964 865.275C265.439 865.275 289.922 847.445 299.503 822.163V821.631C392.911 813.913 506.013 775.06 521.448 581.856C546.995 572.276 565.091 548.059 565.091 519.85C565.091 494.569 550.987 472.747 530.23 461.57H529.964C541.939 397.435 571.212 351.662 617.251 325.05C668.879 295.244 730.619 295.244 763.618 295.244H764.948L764.682 294.18ZM610.864 649.983H855.962V826.155H610.864V649.983ZM168.039 209.82H413.136V385.992H168.039V209.82Z" fill="black"/>
</svg>
