<svg width="1024" height="1024" viewBox="0 0 1024 1024" fill="none" xmlns="http://www.w3.org/2000/svg">
<path d="M891.198 864H806.398C806.398 862.4 806.398 860.8 806.398 859.2L659.198 148.8C655.998 124.8 636.798 107.2 612.798 107.2H395.198C372.798 107.2 351.998 123.2 348.798 147.2L223.998 860.8C223.998 862.4 223.998 864 223.998 865.6H132.798C107.198 865.6 86.3984 886.4 86.3984 912C86.3984 937.6 107.198 958.4 132.798 958.4H891.198C916.798 958.4 937.598 937.6 937.598 912C937.598 884.8 916.798 864 891.198 864ZM412.798 323.2H598.398L628.798 467.2H388.798L412.798 323.2ZM340.798 737.6L364.798 596.8H654.398L683.198 737.6H340.798Z" fill="black"/>
</svg>
