<svg width="1024" height="1024" viewBox="0 0 1024 1024" fill="none" xmlns="http://www.w3.org/2000/svg">
<path d="M700.779 584.607V802.429L512.001 912L323.222 802.429V584.607L512.001 476.356L700.779 584.607Z" fill="black"/>
<path d="M492.198 221.571V439.393L303.42 547.644L115.961 439.393V221.571L303.42 112L492.198 221.571Z" fill="black"/>
<path fill-rule="evenodd" clip-rule="evenodd" d="M908.04 221.571V439.393L720.581 547.644L531.803 439.393V221.571L720.581 112L908.04 221.571ZM790.322 259.369C770.908 239.955 747.422 230.247 719.24 230.247C691.685 230.247 667.573 239.954 647.846 259.682C628.118 279.409 618.411 302.895 618.411 331.077C618.411 358.633 628.118 382.744 647.846 402.472C667.573 422.199 691.058 431.906 719.24 431.906C746.796 431.906 770.908 422.199 790.636 402.472L772.474 384.31C757.756 399.027 739.908 406.23 718.928 406.543C698.261 406.543 680.099 399.027 665.382 384.31C650.664 369.592 643.462 351.744 643.148 330.764C643.148 310.097 650.664 291.935 665.382 277.218C680.099 262.501 697.948 255.298 718.928 254.985C739.595 254.985 757.756 262.5 772.474 277.218L736.463 313.229L826.333 312.915V223.358L790.322 259.369Z" fill="black"/>
</svg>
