<svg width="1024" height="1024" viewBox="0 0 1024 1024" fill="none" xmlns="http://www.w3.org/2000/svg">
<path d="M513.6 761.6V638.4L347.2 801.6L513.6 968V844.8C603.2 844.8 680 812.8 745.6 748.8C809.6 684.8 841.6 606.4 841.6 515.2C841.6 452.8 825.6 393.6 792 339.2L732.8 398.4C752 435.2 761.6 473.6 761.6 513.6C760 582.4 736 640 688 688C640 737.6 580.8 761.6 513.6 761.6ZM513.6 184C422.4 184 344 216 280 280C216 344 184 422.4 184 513.6C184 576 200 635.2 233.6 689.6L296 630.4C276.8 595.2 267.2 555.2 267.2 515.2C267.2 446.4 291.2 388.8 339.2 340.8C387.2 292.8 444.8 268.8 513.6 268.8V392L676.8 228.8L513.6 60.7998V184Z" fill="black"/>
</svg>
