<svg width="1024" height="1024" viewBox="0 0 1024 1024" fill="none" xmlns="http://www.w3.org/2000/svg">
<path d="M452.062 702.822C457.575 702.208 463.053 701.44 468.463 700.501C505.215 694.504 538.043 681.415 566.817 662.632L565.845 663.227L806.912 904.277L871.441 836.693L635.187 600.456C647.953 584.492 659.142 566.364 667.995 546.946L668.655 545.331C669.048 544.461 669.474 543.624 669.867 542.737C671.284 539.443 672.598 536.115 673.878 532.77C686.134 503.111 693.25 468.672 693.25 432.572C693.25 351.499 657.36 278.808 600.601 229.521L600.27 229.24L534.188 295.305C575.105 328.206 601.071 378.262 601.071 434.381C601.071 532.685 521.4 612.381 423.105 612.42H423.101V535.466L286.977 668.979L423.101 805.12V704.597C431.89 704.597 440.56 704 449.162 703.146L452.062 702.822ZM244.736 434.346C244.814 335.973 324.54 256.248 422.905 256.17H423.117V333.96L556.647 200.447L423.117 62.9072V162.389H422.912C386.501 162.422 351.814 169.764 320.227 183.027L321.98 182.374C320.888 182.818 319.761 183.159 318.686 183.603C316.467 184.542 314.368 185.668 312.184 186.675C288.856 197.198 268.753 209.964 250.746 225.139L251.136 224.819C250.487 225.348 249.907 225.962 249.276 226.526C243.405 231.527 237.602 236.681 232.005 242.279C198.034 275.588 173.215 318.114 161.595 365.809L161.23 367.583C155.728 387.708 152.566 410.815 152.566 434.661C152.566 480.277 164.135 523.191 184.499 560.629L183.809 559.242C184.389 560.351 184.987 561.444 185.516 562.536C188.23 567.502 190.909 572.469 193.93 577.247V577.349C208.867 600.904 226.318 621.129 246.313 638.504L246.648 638.789L312.321 573.27C271.229 540.475 245.044 490.5 244.737 434.398V434.347L244.736 434.346Z" fill="black"/>
</svg>
