<svg width="1024" height="1024" viewBox="0 0 1024 1024" fill="none" xmlns="http://www.w3.org/2000/svg">
<path d="M405.698 630.012C398.081 634.581 389.421 625.921 393.991 618.304L477.025 479.897C477.745 478.696 478.751 477.69 479.952 476.97L618.359 393.936C625.976 389.366 634.636 398.026 630.067 405.643L547.033 544.05C546.312 545.251 545.306 546.257 544.105 546.978L405.698 630.012Z" fill="black"/>
<path fill-rule="evenodd" clip-rule="evenodd" d="M112 512C112 291.063 291.063 112 512 112C732.938 112 912 291.063 912 512C912 732.938 732.938 912 512 912C291.063 912 112 732.938 112 512ZM748.188 312.375C754.5 301.875 752.813 288.438 744.188 279.813C735.563 271.188 722.125 269.5 711.625 275.813L441.079 438.153C439.878 438.873 438.873 439.878 438.153 441.079L275.813 711.625C269.5 722.125 271.188 735.563 279.813 744.188C288.438 752.813 301.875 754.5 312.375 748.188L582.921 585.848C584.122 585.127 585.127 584.122 585.848 582.921L748.188 312.375Z" fill="black"/>
</svg>
