<svg width="19" height="19" viewBox="0 0 19 19" fill="none" xmlns="http://www.w3.org/2000/svg">
<path d="M7.76227 11.6154C7.62837 11.6958 7.47615 11.5435 7.55648 11.4096L9.01606 8.97671C9.02873 8.95559 9.0464 8.93792 9.06752 8.92525L11.5005 7.46567C11.6344 7.38534 11.7866 7.53756 11.7062 7.67146L10.2467 10.1044C10.234 10.1255 10.2163 10.1432 10.1952 10.1559L7.76227 11.6154Z" fill="#C8C5D6"/>
<path fill-rule="evenodd" clip-rule="evenodd" d="M2.59961 9.54102C2.59961 5.65735 5.74719 2.50977 9.63086 2.50977C13.5145 2.50977 16.6621 5.65735 16.6621 9.54102C16.6621 13.4247 13.5145 16.5723 9.63086 16.5723C5.74719 16.5723 2.59961 13.4247 2.59961 9.54102ZM13.7826 6.03198C13.8936 5.84741 13.8639 5.61121 13.7123 5.45959C13.5607 5.30798 13.3245 5.27832 13.1399 5.38928L8.3842 8.24292C8.36309 8.25558 8.34543 8.27325 8.33276 8.29436L5.47913 13.05C5.36816 13.2346 5.39783 13.4708 5.54944 13.6224C5.70105 13.774 5.93726 13.8037 6.12183 13.6927L10.8775 10.8391C10.8986 10.8265 10.9163 10.8088 10.929 10.7877L13.7826 6.03198Z" fill="#C8C5D6"/>
</svg>
