<svg width="1024" height="1024" viewBox="0 0 1024 1024" fill="none" xmlns="http://www.w3.org/2000/svg">
<path d="M386 562.4L412.5 509.4L413.4 507.5L414.5 505.7L435 471L461.9 423.5L462.7 422.3L467.5 414.3L473.3 404.6H89V562.8H386.4L386 562.4ZM245.6 521.4H168.1V443.9H245.6V521.4Z" fill="black"/>
<path d="M410.4 723.5L409.4 721.4L383.3 669.3L418.4 640.1H89V798.3H455L430.7 757.3L410.4 723.5ZM245.6 757.1H168.1V679.6H245.6V757.1Z" fill="black"/>
<path d="M877.4 613C877.4 606.6 877.4 598.6 875.8 589L935 542.6L878.6 446.5L875.8 441.8L807 469C794.2 459.4 781.4 451.4 767 445L762.2 417.8L760.2 404.4L755.8 374.6H639L634.5 404.4L627.8 448.2C615 454.6 600.6 462.6 587.8 472.2L519 445L514.2 453L487 501L466.2 536.2L461.4 545.8L477.4 558.6L482.6 562.6L520.6 592.2C520.6 601.8 519 609.8 519 616.2C519 622.6 519 630.5 520.6 640.1V640.2L477.4 669L458.2 685L463 694.6L482.2 726.6L512.6 777.8L517.4 785.8L586.2 758.6C599 768.2 611.8 776.2 626.2 782.6L628.3 798.3L635.8 856.2C635.8 856.2 640.6 856.2 647 856.2H743C751 856.2 754.2 856.2 754.2 856.2L765.4 782.6C778.2 776.2 792.6 768.2 805.4 758.6L874.2 785.8L878.6 778.5L879 777.8L927 694.6L931.8 685L875.8 637C877.4 627.4 877.4 619.4 877.4 613ZM771.8 653C768.6 661 762.2 667.4 755.8 673.8C739.8 689.8 719 697.8 696.6 697.8C688.6 697.8 682.2 696.2 675.8 694.6C661.4 691.4 648.6 683.4 637.4 672.2C631 665.8 624.6 657.8 621.4 649.8C620.1 646.7 618.9 643.4 617.8 640.1C615.1 631.5 613.4 622.2 613.4 613C613.4 593.3 618.8 576.8 629.7 562.6C632 559.6 634.6 556.6 637.4 553.8C653.4 537.8 674.2 529.8 696.6 529.8C719 529.8 739.8 537.8 755.8 553.8C758.7 556.7 761 559.7 763.1 562.6C765.5 566.1 767.6 569.5 770.2 573C776.6 585.8 781.4 598.6 781.4 614.6C780.3 623.1 778.6 631.6 776.1 640.1C774.8 644.4 773.4 648.7 771.8 653Z" fill="black"/>
<path d="M809.1 325.3H878.5V167H89V325.2H809.1V325.3ZM245.6 284.1H168.1V206.6H245.6V284.1Z" fill="black"/>
</svg>
