<svg width="1024" height="1024" viewBox="0 0 1024 1024" fill="none" xmlns="http://www.w3.org/2000/svg">
<g clip-path="url(#clip0_2_948)">
<path d="M586.804 344.081C599.135 324.065 614.86 307.37 633.347 294.326L633.874 293.973C654.301 279.389 678.724 268.994 705.174 264.587L706.186 264.448H12.7158V418.048H402.775V374.784C402.775 357.818 416.529 344.064 433.495 344.064L586.804 344.081ZM164.711 378.026H89.5148V302.933H164.711V378.026ZM12.7158 493.26V646.86H402.775V493.26H12.7158ZM164.711 606.856H89.5148V531.626H164.711V606.856ZM779.111 34.0479H12.7148V187.648H779.111V34.0479ZM164.711 147.626H89.5148V72.5328H164.711V147.626ZM696.731 801.57L618.89 726.187L570.25 774.844L650.463 852.685L696.68 898.902L742.897 851.474L894.944 698.215L845.126 650.753L696.731 801.57ZM1011.29 395.281H847.019C837.47 371.213 822.08 351.19 802.553 336.321L802.219 336.077C782.619 322.121 758.203 313.744 731.833 313.686H731.819C705.963 313.751 682.079 322.138 662.69 336.31L663.023 336.078C642.811 350.86 627.318 370.994 618.513 394.403L618.223 395.282H453.973V1032.62H1011.28V395.282L1011.29 395.281ZM704.615 406.476C712.443 397.947 723.642 392.619 736.086 392.619C759.65 392.619 778.753 411.722 778.753 435.286C778.753 458.85 759.65 477.953 736.086 477.953C712.522 477.953 693.419 458.85 693.419 435.286V435.284C693.397 434.802 693.385 434.236 693.385 433.667C693.385 423.054 697.675 413.443 704.616 406.474L704.615 406.475V406.476ZM931.278 952.61H533.949V475.307H613.958V562.774H849.683V475.307H929.692V952.61H931.278Z" fill="black"/>
</g>
<defs>
<clipPath id="clip0_2_948">
<rect width="1024" height="1024" fill="white"/>
</clipPath>
</defs>
</svg>
