<svg width="1024" height="1024" viewBox="0 0 1024 1024" fill="none" xmlns="http://www.w3.org/2000/svg">
<path d="M0 349.867H595.729V196.267H0V349.867ZM76.8 234.667H151.996V309.863H76.8V234.667ZM0 0V153.6H595.729V0H0ZM151.996 113.596H76.8V38.4H151.996V113.596ZM243.78 390.929H0V544.529H243.78V390.929ZM76.8 504.542V429.329H151.996V504.542H76.8ZM31.488 748.766H296.243V918.545H31.488V748.766ZM379.631 748.766H644.386V918.545H379.631V748.766ZM727.757 748.766H992.512V918.545H727.757V748.766ZM294.997 402.586H729.019V572.365H294.997V402.586ZM268.919 594.807L145.049 726.681H210.619L334.489 594.807H268.919ZM688.981 594.807L812.851 726.681H878.404L754.534 594.807H688.981ZM488.107 594.807H535.894V726.681H488.107V594.807ZM977.613 270.711L906.326 224.631L909.927 309.606H829.27L832.871 224.631L761.584 270.711L721.273 200.857L796.878 161.979L721.273 123.101L761.584 53.247L832.854 99.327L829.27 14.369H909.927L906.326 99.327L977.613 53.247L1017.92 123.101L942.319 161.979L1017.92 200.857L977.613 270.711Z" fill="black"/>
</svg>
