<svg width="1024" height="1024" viewBox="0 0 1024 1024" fill="none" xmlns="http://www.w3.org/2000/svg">
<path d="M251.734 365.602C248.156 360.759 246.008 354.672 246.008 348.083C246.008 338.29 250.753 329.606 258.07 324.204L258.151 324.147L343.297 261.871H29.2695V415.471H288.205L251.734 365.602ZM181.266 375.466H106.07V300.27H181.266V375.466ZM566.444 415.471H579.022C583.228 414.522 586.926 412.793 590.128 410.431L590.047 410.488L625 384.888V261.871H444.588L548.592 404.053C552.86 409.822 559.076 413.938 566.253 415.437L566.444 415.47V415.471ZM624.999 65.6035H29.2695V219.204H624.999V65.6035ZM181.266 179.2H106.07V104.004H181.266V179.2ZM676.131 721.56C676.113 737.93 662.84 751.192 646.469 751.192C643.269 751.192 640.187 750.685 637.299 749.747L637.509 749.806L550.998 722.396V766.395H475.802V698.555L399.002 674.218V806.398H994.731V652.799H676.182L676.131 721.56ZM399.003 1001.06H994.732V847.461H399.003V1001.06ZM475.803 885.862H550.999V961.075H475.803V885.862ZM676.268 456.533H994.715V610.133H676.268V456.533ZM318.243 456.533H29.2695V610.133H320.7C322.654 607.013 325.068 604.382 327.881 602.25L327.954 602.197L367.105 573.559C374.503 568.1 379.248 559.415 379.248 549.622C379.248 543.034 377.099 536.946 373.464 532.023L373.521 532.104L318.243 456.533ZM181.266 570.129H106.07V494.933H181.266V570.129ZM627.645 695.825L627.85 442.948L555.59 495.786L398.764 281.377L301.996 352.17L458.822 566.56L386.579 619.416L627.646 695.823L627.645 695.825Z" fill="black"/>
</svg>
