<svg width="1024" height="1024" viewBox="0 0 1024 1024" fill="none" xmlns="http://www.w3.org/2000/svg">
<g clip-path="url(#clip0_2_944)">
<path d="M977.612 270.711L906.325 224.631L909.926 309.606H829.269L832.87 224.631L761.583 270.711L721.272 200.857L796.877 161.979L721.272 123.101L761.583 53.247L832.853 99.327L829.269 14.369H909.926L906.325 99.327L977.612 53.247L1017.92 123.101L942.318 161.979L1017.92 200.857L977.612 270.711ZM-0.000953125 0V153.6H595.728V0H-0.000953125ZM151.995 113.596H76.799V38.4H151.995V113.596ZM309.264 516.949L434.738 390.929H-0.000953125V544.529H281.804L309.264 516.949ZM76.799 504.542V429.329H151.995V504.542H76.799ZM559.444 265.66L595.659 229.308V196.267H-0.00195312V349.867H475.612L559.444 265.66ZM76.799 309.862V234.666H151.995V309.862H76.799ZM845.908 772.727L761.223 688.025L595.728 853.52L430.25 689.134L345.548 773.819L595.728 1024L845.908 772.727ZM345.548 553.062L430.25 637.764L595.797 472.217L761.173 636.586L845.858 551.901L595.729 301.789L345.548 553.062Z" fill="black"/>
</g>
<defs>
<clipPath id="clip0_2_944">
<rect width="1024" height="1024" fill="white"/>
</clipPath>
</defs>
</svg>
