<svg width="1024" height="1024" viewBox="0 0 1024 1024" fill="none" xmlns="http://www.w3.org/2000/svg">
<g clip-path="url(#clip0_2_940)">
<path d="M127.796 528.657H397.449V498.312C397.449 486.803 406.779 477.474 418.287 477.474H605.628C605.633 477.474 605.639 477.474 605.645 477.474C617.154 477.474 626.483 486.804 626.483 498.312V528.657H894.293V375.057H127.795L127.796 528.657ZM204.596 413.457H279.894V488.67H204.596V413.457ZM397.518 737.024V603.904H127.796V757.504H378.676C389.241 756.539 397.46 747.75 397.518 737.03V737.024ZM279.758 717.465H204.596V642.269H279.894L279.758 717.465ZM626.484 737.024C626.53 747.732 634.718 756.513 645.175 757.498L645.257 757.504H894.294V603.904H626.484V737.024ZM127.796 144.657V298.257H894.294V144.657H127.796ZM279.894 258.27H204.596V183.057H279.894V258.27ZM575.284 528.657H448.718V809.079H354.237L512.001 1024.41L669.765 809.079H575.284V528.657Z" fill="black"/>
</g>
<defs>
<clipPath id="clip0_2_940">
<rect width="1024" height="1024" fill="white"/>
</clipPath>
</defs>
</svg>
