<svg width="1071" height="1024" viewBox="0 0 1071 1024" fill="none" xmlns="http://www.w3.org/2000/svg">
<path d="M165.222 622.648L0 332.566L165.222 42.4844L330.444 332.566L165.222 622.648Z" fill="black"/>
<path d="M753.818 622.648L588.596 332.566L753.818 42.4844L919.04 332.566L753.818 622.648Z" fill="black"/>
<path d="M468.446 854.516L303.207 564.434L468.446 274.352L633.668 564.434L468.446 854.516Z" fill="black"/>
<path fill-rule="evenodd" clip-rule="evenodd" d="M832.687 567L884.648 657H847.687L847.687 883.587C879.695 890.471 903.687 918.934 903.687 953C903.687 992.212 871.899 1024 832.687 1024C816.82 1024 802.169 1018.79 790.347 1010H148.187V753H111.725L163.687 663L215.648 753H178.187V980H767.001C763.576 971.676 761.687 962.558 761.687 953C761.687 942.73 763.867 932.97 767.79 924.156L630.301 819.209L607.17 849.599L567.026 753.742L670.112 766.905L648.471 795.337L785.509 899.94C794.487 891.951 805.506 886.207 817.687 883.587L817.687 657H780.725L832.687 567ZM832.687 994C855.33 994 873.687 975.643 873.687 953C873.687 930.356 855.33 912 832.687 912C810.043 912 791.687 930.356 791.687 953C791.687 975.643 810.043 994 832.687 994Z" fill="black"/>
</svg>
