<svg width="1024" height="1024" viewBox="0 0 1024 1024" fill="none" xmlns="http://www.w3.org/2000/svg">
<path d="M765.349 105.537C765.36 95.3728 766.343 85.4455 768.209 75.8329L768.05 76.8148C694.258 61.0396 609.48 52.0054 522.589 52.0054C518.522 52.0054 514.46 52.0251 510.403 52.0646L511.023 52.0601C507.436 52.0215 503.197 52 498.952 52C412.627 52 328.414 61.036 247.21 78.2138L255.109 76.8148C256.78 85.3692 257.814 95.2796 257.967 105.404L257.968 105.537C257.892 188.157 195.858 256.28 115.781 266.047L115 266.125C115 381.488 128.503 478.127 195.38 623.323C314.362 880.232 511.023 971 511.023 971C511.023 971 708.797 879.598 827.62 623.323C894.497 478.762 907.047 382.124 908 266.76C827.254 256.837 765.348 188.743 765.348 106.205C765.348 105.97 765.349 105.736 765.349 105.501V105.537ZM741.045 582.699C689.015 696.088 610.592 789.649 513.313 858.334L511.182 859.761V147.27C511.977 147.269 512.917 147.268 513.857 147.268C570.822 147.268 626.911 151.017 681.89 158.282L675.437 157.585C692.039 235.295 741.878 298.885 809.035 333.841L810.464 334.518C802.844 426.213 778.041 510.524 739.269 586.535L741.045 582.7V582.699Z" fill="black"/>
</svg>
