<svg width="1024" height="1024" viewBox="0 0 1024 1024" fill="none" xmlns="http://www.w3.org/2000/svg">
<path d="M698.3 610.199L764.5 676.399H669.7C584.4 676.399 538.2 628.899 498.5 564.199C486.1 587.299 473.3 610.499 459 633.099C469.7 647.999 481.3 662.199 494 675.099C542 723.799 599.5 747.399 669.6 747.399H764.4L697.5 814.299L748 864.799L901 711.899L748.8 559.699L698.3 610.199Z" fill="black"/>
<path d="M359.6 461.499C372 438.399 384.7 415.199 398.8 392.599C388.2 377.999 376.7 364.099 364.1 351.299C315.2 301.999 256.6 278.099 184.9 278.099H107.5V349.099H184.9C272.3 349.199 319.4 396.699 359.6 461.499Z" fill="black"/>
<path d="M669.8 349.199H764.2L697.6 415.799L748.1 466.299L901 313.399L748.8 161.199L698.3 211.699L764.8 278.199V278.299H669.7C599.5 278.299 542.1 301.899 494.1 350.599C453.9 391.299 425.7 443.999 398.5 494.899C346.3 592.399 301.3 676.499 184.9 676.499H107.5V747.499H184.9C256.6 747.499 315.2 723.599 364.1 674.299C405.1 632.999 433.6 579.799 461.1 528.399C512.5 432.199 556.9 349.199 669.8 349.199Z" fill="black"/>
</svg>
