<svg width="1024" height="1024" viewBox="0 0 1024 1024" fill="none" xmlns="http://www.w3.org/2000/svg">
<path fill-rule="evenodd" clip-rule="evenodd" d="M734.326 112.015C832.665 113.26 912 193.365 912 292V732L911.985 734.326C910.74 832.665 830.635 912 732 912H292C192.589 912 112 831.411 112 732V292C112 193.365 191.335 113.26 289.674 112.015L292 112H732L734.326 112.015ZM292 197C239.533 197 197 239.533 197 292V732C197 784.467 239.533 827 292 827H372V197H292ZM457 827H732C784.467 827 827 784.467 827 732V292C827 239.533 784.467 197 732 197H457V827Z" fill="black"/>
</svg>
