<svg width="1024" height="1024" viewBox="0 0 1024 1024" fill="none" xmlns="http://www.w3.org/2000/svg">
<path d="M542.202 40.6445H481.787V99.4614H424.968L510.737 185.231L599.021 99.4614H542.202L542.202 40.6445Z" fill="black"/>
<path d="M481.786 974.283H542.201V915.467H599.02L513.25 829.697L424.967 915.466H481.786L481.786 974.283Z" fill="black"/>
<path d="M134 522.499L134 462.085L192.817 462.084L192.817 405.265L278.587 493.549L192.817 579.318V522.499H134Z" fill="black"/>
<path d="M897 522.5V462.085H838.183V405.266L752.413 491.036L838.183 579.32V522.501L897 522.5Z" fill="black"/>
<path d="M301.051 238.664H535.47L649.255 352.445V712.816H301.051V238.664Z" fill="black"/>
<path d="M686.352 749.956V389.595L723.06 426.295V786.656H374.834V749.956H686.352Z" fill="black"/>
</svg>
