<svg width="1024" height="1024" viewBox="0 0 1024 1024" fill="none" xmlns="http://www.w3.org/2000/svg">
<path d="M268 623.075C267.985 640.476 262.782 657.483 253.049 671.945C243.315 686.406 229.488 697.674 213.315 704.323C197.143 710.972 179.351 712.704 162.188 709.3C145.026 705.896 129.264 697.509 116.895 685.199C104.525 672.889 96.1037 657.209 92.695 640.14C89.2863 623.072 91.0433 605.382 97.7439 589.307C104.444 573.231 115.788 559.492 130.34 549.826C144.892 540.159 162 535 179.5 535H268V623.075Z" fill="black"/>
<path d="M312 623.365C312 599.929 321.324 577.453 337.921 560.882C354.518 544.31 377.028 535 400.5 535C423.972 535 446.482 544.31 463.079 560.882C479.676 577.453 489 599.929 489 623.365V844.635C489 868.071 479.676 890.547 463.079 907.118C446.482 923.69 423.972 933 400.5 933C377.028 933 354.518 923.69 337.921 907.118C321.324 890.547 312 868.071 312 844.635V623.365Z" fill="black"/>
<path d="M400.925 268C383.524 267.985 366.517 262.782 352.055 253.049C337.594 243.315 326.326 229.488 319.677 213.315C313.028 197.143 311.296 179.351 314.7 162.188C318.104 145.026 326.491 129.264 338.801 116.895C351.111 104.525 366.791 96.1037 383.86 92.695C400.928 89.2863 418.618 91.0433 434.693 97.7439C450.769 104.444 464.508 115.788 474.175 130.34C483.841 144.892 489 162 489 179.5V268H400.925Z" fill="black"/>
<path d="M400.635 312C424.071 312 446.547 321.324 463.118 337.921C479.69 354.518 489 377.028 489 400.5C489 423.972 479.69 446.482 463.118 463.079C446.547 479.676 424.071 489 400.635 489H179.365C155.929 489 133.453 479.676 116.882 463.079C100.31 446.482 91 423.972 91 400.5C91 377.028 100.31 354.518 116.882 337.921C133.453 321.324 155.929 312 179.365 312H400.635Z" fill="black"/>
<path d="M756 400.925C756.015 383.524 761.218 366.517 770.951 352.055C780.685 337.594 794.512 326.326 810.685 319.677C826.857 313.028 844.649 311.296 861.812 314.7C878.974 318.104 894.736 326.491 907.105 338.801C919.475 351.111 927.896 366.791 931.305 383.86C934.714 400.928 932.957 418.618 926.256 434.693C919.556 450.769 908.212 464.508 893.66 474.175C879.108 483.841 862 489 844.5 489H756V400.925Z" fill="black"/>
<path d="M712 400.635C712 424.071 702.676 446.547 686.079 463.118C669.482 479.69 646.972 489 623.5 489C600.028 489 577.518 479.69 560.921 463.118C544.324 446.547 535 424.071 535 400.635V179.365C535 155.929 544.324 133.453 560.921 116.882C577.518 100.31 600.028 91 623.5 91C646.972 91 669.482 100.31 686.079 116.882C702.676 133.453 712 155.929 712 179.365V400.635Z" fill="black"/>
<path d="M623.075 756C640.476 756.015 657.483 761.218 671.945 770.951C686.406 780.685 697.674 794.512 704.323 810.685C710.972 826.857 712.704 844.649 709.3 861.812C705.896 878.974 697.509 894.736 685.199 907.105C672.889 919.475 657.209 927.896 640.14 931.305C623.072 934.714 605.382 932.957 589.307 926.256C573.231 919.556 559.492 908.212 549.826 893.66C540.159 879.108 535 862 535 844.5V756H623.075Z" fill="black"/>
<path d="M623.365 712C599.929 712 577.453 702.676 560.882 686.079C544.31 669.482 535 646.972 535 623.5C535 600.028 544.31 577.518 560.882 560.921C577.453 544.324 599.929 535 623.365 535H844.635C868.071 535 890.547 544.324 907.118 560.921C923.69 577.518 933 600.028 933 623.5C933 646.972 923.69 669.482 907.118 686.079C890.547 702.676 868.071 712 844.635 712H623.365Z" fill="black"/>
</svg>
