<svg width="1024" height="1024" viewBox="0 0 1024 1024" fill="none" xmlns="http://www.w3.org/2000/svg">
<path d="M320.488 108.236C355.318 88.5651 389.516 129.321 378.877 167.881C369.653 201.315 364.723 236.529 364.723 272.897C364.723 490.613 541.217 667.107 758.934 667.107C795.355 667.107 830.612 662.15 864.082 652.886C902.631 642.216 943.392 676.379 923.743 711.218C847.816 845.847 703.523 936.764 537.932 936.764C293.392 936.764 95.1523 738.525 95.1523 493.984C95.1523 328.475 185.971 184.207 320.488 108.236Z" fill="black"/>
<path d="M463.157 272.912V226.492L548.569 133.654H463.953V87.2344H612.76V133.654L527.348 226.492H611.964V272.912H463.157Z" fill="black"/>
<path d="M718.74 427.712V365.82L832.622 242.035H719.801V180.142H918.211V242.035L804.328 365.82H917.149V427.712H718.74Z" fill="black"/>
<path d="M537.932 501.002V462.319L609.109 384.954H538.595V346.271H662.601V384.954L591.425 462.319H661.938V501.002H537.932Z" fill="black"/>
</svg>
