<svg width="1024" height="1024" viewBox="0 0 1024 1024" fill="none" xmlns="http://www.w3.org/2000/svg">
<path d="M356.801 163.201C404.801 153.601 457.601 150.401 513.601 150.401C569.601 150.401 620.801 153.601 670.401 163.201C718.401 172.801 756.801 185.601 784.001 201.601C812.801 217.601 825.601 233.601 825.601 252.801V304.001C825.601 323.201 812.801 339.201 784.001 355.201C755.201 371.201 718.401 384.001 670.401 393.601C620.801 403.201 569.601 406.401 512.001 406.401C454.401 406.401 404.801 403.201 355.201 393.601C307.201 384.001 268.801 371.201 241.601 355.201C212.801 339.201 200.001 323.201 200.001 304.001V252.801C200.001 233.601 212.801 217.601 241.601 201.601C270.401 185.601 308.801 171.201 356.801 163.201ZM332.801 441.601C388.801 452.801 448.001 459.201 512.001 459.201C576.001 459.201 636.801 452.801 691.201 441.601C747.201 430.401 790.401 412.801 822.401 390.401V459.201C822.401 478.401 809.601 494.401 780.801 510.401C752.001 526.401 715.201 539.201 667.201 548.801C619.201 558.401 566.401 561.601 510.401 561.601C454.401 561.601 403.201 558.401 353.601 548.801C305.601 539.201 267.201 526.401 240.001 510.401C211.201 494.401 198.401 478.401 198.401 459.201V390.401C233.601 414.401 278.401 430.401 332.801 441.601ZM332.801 596.801C387.201 608.001 448.001 614.401 510.401 614.401C572.801 614.401 635.201 608.001 689.601 596.801C745.601 585.601 788.801 568.001 820.801 545.601V614.401C820.801 633.601 808.001 649.601 779.201 665.601C750.401 681.601 713.601 694.401 665.601 704.001C617.601 713.601 566.401 716.801 510.401 716.801C454.401 716.801 401.601 713.601 352.001 704.001C304.001 694.401 265.601 681.601 238.401 665.601C209.601 649.601 196.801 632.001 196.801 614.401V545.601C233.601 568.001 278.401 587.201 332.801 596.801ZM332.801 753.601C388.801 764.801 448.001 771.201 512.001 771.201C576.001 771.201 636.801 764.801 691.201 753.601C747.201 742.401 790.401 724.801 822.401 702.401V771.201C822.401 790.401 809.601 806.401 780.801 822.401C752.001 838.401 715.201 851.201 667.201 860.801C619.201 870.401 566.401 873.601 510.401 873.601C454.401 873.601 403.201 870.401 353.601 860.801C305.601 851.201 267.201 838.401 240.001 822.401C212.801 806.401 198.401 788.801 198.401 771.201V702.401C233.601 723.201 278.401 742.401 332.801 753.601ZM996.801 996.801H788.801V932.801H932.801V788.801H996.801V996.801ZM420.801 932.801H604.801V996.801H420.801V932.801ZM236.801 996.801H28.8008V788.801H92.8008V932.801H236.801V996.801ZM28.8008 420.801H92.8008V604.801H28.8008V420.801ZM92.8008 236.801H28.8008V28.8008H236.801V92.8008H92.8008V236.801ZM420.801 28.8008H604.801V92.8008H420.801V28.8008ZM996.801 236.801H932.801V92.8008H788.801V28.8008H996.801V236.801ZM932.801 420.801H996.801V604.801H932.801V420.801Z" fill="black"/>
</svg>
