<svg width="1024" height="1024" viewBox="0 0 1024 1024" fill="none" xmlns="http://www.w3.org/2000/svg">
<path fill="currentColor" d="M112 214.832V809.172H912V214.832H112ZM749.292 585.309C727.094 585.309 708.115 572.768 698.127 554.677H661.722C650.846 554.677 640.968 548.35 636.528 538.472L606.562 473.101L544.075 723.822C540.968 736.253 529.869 744.799 517.216 744.799C516.994 744.799 516.772 744.799 516.551 744.799C503.565 744.466 492.577 735.254 490.024 722.49L431.756 432.701L384.364 621.047C381.367 632.701 371.267 641.136 359.281 641.913C347.183 642.801 336.084 635.698 331.645 624.488L288.693 516.719L271.156 542.468C265.94 550.015 257.394 554.566 248.293 554.566H112V499.072H233.643L272.377 442.468C278.149 434.033 288.138 429.371 298.349 430.592C308.559 431.702 317.327 438.361 321.101 447.906L351.512 524.377L407.893 300.293C411.112 287.751 422.877 278.65 435.529 279.316C448.515 279.649 459.503 288.861 462.055 301.624L520.213 590.748L572.044 382.757C574.93 371.325 584.697 362.89 596.462 361.891C608.115 360.892 619.325 367.218 624.209 377.984L679.703 499.183H698.237C708.115 480.981 727.205 468.55 749.292 468.55C781.589 468.55 807.671 494.743 807.671 526.93C807.671 559.116 781.478 585.309 749.292 585.309Z"/>
</svg>
