<svg width="1024" height="1024" viewBox="0 0 1024 1024" fill="none" xmlns="http://www.w3.org/2000/svg">
<path d="M811.878 731.287L635.297 629.277C610.49 614.995 578.767 623.489 564.409 648.296C558.846 658.069 556.666 668.818 557.719 679.267V878.626C557.719 907.116 580.872 930.27 609.438 930.27C637.928 930.27 661.081 907.116 661.081 878.626V763.987L760.009 821.119C784.816 835.477 816.614 826.907 830.897 802.1C845.255 777.293 836.76 745.57 811.878 731.287Z" fill="black"/>
<path d="M372.727 512.669C373.027 494.252 363.33 477.112 347.393 467.866L170.812 365.932C163.145 361.496 154.349 359.166 145.554 359.166C127.437 359.166 110.599 368.863 101.578 384.499C87.5959 408.705 95.9401 439.751 120.146 453.733L221.93 512.443L120.146 571.229C108.419 577.994 99.9994 588.894 96.5414 601.974C93.0083 615.055 94.8125 628.736 101.578 640.463C110.599 656.099 127.437 665.796 145.479 665.796C154.349 665.796 163.145 663.466 170.812 659.031L347.393 557.096C363.18 547.925 372.877 530.936 372.727 512.669Z" fill="black"/>
<path d="M210.889 293.69L387.47 395.625C408.067 407.577 433.476 403.668 449.713 387.807C460.012 378.335 466.401 364.804 466.401 349.769V145.449C466.401 116.884 443.248 93.7305 414.758 93.7305C386.192 93.7305 363.039 116.884 363.039 145.449V261.742L262.758 203.859C237.951 189.501 206.228 197.995 191.87 222.802C177.512 247.609 186.082 279.332 210.889 293.69Z" fill="black"/>
<path d="M607.941 520.938C607.941 524.847 605.686 530.259 602.904 533.116L532.919 603.102C530.137 605.883 524.65 608.139 520.741 608.139H502.925C499.016 608.139 493.528 605.883 490.747 603.102L420.685 533.116C417.904 530.259 415.649 524.847 415.649 520.938V503.122C415.649 499.138 417.904 493.725 420.685 490.944L490.747 420.883C493.528 418.102 499.016 415.846 502.925 415.846H520.741C524.65 415.846 530.137 418.102 532.919 420.883L602.904 490.944C605.686 493.725 607.941 499.138 607.941 503.122V520.938ZM545.472 512.368V511.617C545.472 508.76 543.819 504.776 541.789 502.671L521.116 482.074C519.087 479.969 515.103 478.315 512.171 478.315H511.419C508.562 478.315 504.578 479.969 502.474 482.074L481.876 502.671C479.846 504.701 478.193 508.685 478.193 511.617V512.368C478.193 515.3 479.846 519.284 481.876 521.314L502.474 541.986C504.578 544.016 508.562 545.67 511.419 545.67H512.171C515.103 545.67 519.087 544.016 521.116 541.986L541.789 521.314C543.819 519.284 545.472 515.3 545.472 512.368Z" fill="black"/>
<path d="M635.314 395.625L811.895 293.69C836.702 279.408 845.272 247.609 830.914 222.802C816.556 197.995 784.833 189.501 760.026 203.859L661.098 260.99V145.449C661.098 116.884 637.945 93.7305 609.455 93.7305C580.889 93.7305 557.736 116.884 557.736 145.449V345.71C556.758 356.084 558.788 366.909 564.426 376.681C578.784 401.488 610.507 409.983 635.314 395.625Z" fill="black"/>
<path d="M422.876 623.261C411.149 621.006 398.596 622.885 387.47 629.275L210.889 731.285C186.082 745.568 177.512 777.291 191.87 802.098C206.228 826.98 237.951 835.474 262.758 821.116L363.039 763.233V878.624C363.039 907.114 386.192 930.267 414.758 930.267C443.248 930.267 466.401 907.114 466.401 878.624V674.304C466.401 648.519 447.533 627.17 422.876 623.261Z" fill="black"/>
<path d="M922.246 383.888C907.963 359.005 876.165 350.511 851.358 364.869L674.777 466.803C657.863 476.576 648.541 494.467 648.842 512.659C648.692 530.775 658.013 548.441 674.777 558.063L851.358 660.073C876.165 674.356 907.888 665.861 922.246 641.054C936.604 616.247 928.034 584.524 903.227 570.166L803.247 512.433L903.227 454.701C928.109 440.418 936.604 408.695 922.246 383.888Z" fill="black"/>
</svg>
