<svg width="1024" height="1024" viewBox="0 0 1024 1024" fill="none" xmlns="http://www.w3.org/2000/svg">
<path d="M449.107 912C435.134 912.069 422.586 903.467 417.612 890.41L363.853 750.611C361.651 744.912 357.152 740.412 351.452 738.21L211.619 684.408C194.226 677.733 185.538 658.224 192.214 640.823C195.642 631.893 202.698 624.846 211.619 621.418L351.417 567.659C357.117 565.457 361.616 560.958 363.818 555.258L417.62 415.425C424.296 398.032 443.804 389.344 461.206 396.02C470.135 399.449 477.182 406.504 480.611 415.425L534.369 555.223C536.572 560.923 541.071 565.422 546.771 567.625L685.757 621.098C699.342 626.133 708.314 639.139 708.193 653.621C707.986 667.335 699.428 679.538 686.604 684.417L546.805 738.175C541.105 740.378 536.606 744.877 534.404 750.577L480.602 890.41C475.628 903.467 463.08 912.069 449.107 912Z" fill="black"/>
<path d="M682.92 414.286C673.99 414.286 665.976 408.776 662.772 400.443L631.95 320.327C630.854 317.468 628.6 315.214 625.741 314.118L545.626 283.296C534.503 279.013 528.958 266.517 533.242 255.385C535.435 249.694 539.935 245.194 545.626 243.001L625.741 212.179C628.6 211.083 630.854 208.829 631.95 205.97L662.539 126.425C665.38 118.764 672.211 113.281 680.312 112.158C690.139 110.966 699.518 116.614 703.059 125.855L733.88 205.97C734.977 208.829 737.231 211.083 740.09 212.179L820.205 243.001C831.328 247.284 836.872 259.78 832.589 270.912C830.395 276.603 825.896 281.103 820.205 283.296L740.09 314.118C737.231 315.214 734.977 317.468 733.88 320.327L703.059 400.443C699.855 408.785 691.849 414.286 682.911 414.286H682.92Z" fill="black"/>
</svg>
