<svg width="1024" height="1024" viewBox="0 0 1024 1024" fill="none" xmlns="http://www.w3.org/2000/svg">
<path d="M844.801 76.8008H179.201C122.647 76.8008 76.8008 122.647 76.8008 179.201V844.801C76.8008 901.355 122.647 947.201 179.201 947.201H844.801C901.355 947.201 947.201 901.355 947.201 844.801V179.201C947.201 122.647 901.355 76.8008 844.801 76.8008ZM705.537 704.172C705.55 705.006 705.558 705.989 705.558 706.975C705.558 759.822 683.722 807.568 648.581 841.685L648.535 841.73C613.853 877.233 565.498 899.249 512.002 899.249C458.506 899.249 410.151 877.233 375.505 841.767L375.469 841.73C340.185 807.795 318.267 760.185 318.267 707.455C318.267 706.301 318.278 705.149 318.298 704L318.296 704.172V266.753C318.286 266.131 318.28 265.397 318.28 264.661C318.28 226.108 333.87 191.195 359.089 165.884L359.085 165.888C383.581 140.697 417.797 125.067 455.663 125.067C456.69 125.067 457.715 125.078 458.736 125.101L458.584 125.098C459.454 125.078 460.478 125.066 461.505 125.066C499.371 125.066 533.587 140.696 558.052 165.856L558.082 165.887C583.294 190.858 598.904 225.484 598.904 263.755C598.904 264.808 598.892 265.859 598.869 266.907L598.872 266.751V634.538C598.898 635.296 598.913 636.187 598.913 637.081C598.913 660.326 588.919 681.237 572.994 695.751L572.931 695.808C556.835 711.732 534.733 721.612 510.323 721.749H510.297C509.539 721.775 508.648 721.79 507.754 721.79C484.509 721.79 463.598 711.796 449.084 695.871L449.027 695.808C433.145 680.199 423.252 658.54 423.086 634.57V302.251H476.163V634.539C476.681 643.746 480.774 651.907 487.063 657.729L487.085 657.749C493.163 664.413 501.883 668.578 511.576 668.578C521.269 668.578 529.988 664.413 536.043 657.776L536.066 657.75C542.378 651.907 546.47 643.747 546.985 634.629L546.989 634.539V266.752C546.989 266.701 546.989 266.641 546.989 266.581C546.989 217.756 507.409 178.176 458.584 178.176C458.524 178.176 458.464 178.176 458.404 178.176H458.413C457.934 178.166 457.369 178.16 456.803 178.16C433.247 178.16 412.088 188.423 397.554 204.722L397.485 204.8C381.561 220.896 371.681 242.998 371.544 267.408V704.17C371.534 704.792 371.528 705.526 371.528 706.262C371.528 744.815 387.118 779.728 412.337 805.039L412.333 805.035C436.829 830.229 471.046 845.86 508.914 845.86C510 845.86 511.083 845.847 512.162 845.822L512.002 845.825C512.872 845.845 513.896 845.857 514.923 845.857C552.789 845.857 587.005 830.227 611.47 805.067L611.5 805.036C636.712 780.065 652.322 745.439 652.322 707.168C652.322 706.115 652.31 705.064 652.287 704.016L652.29 704.172V302.252H705.367V704.172H705.537Z" fill="black"/>
</svg>
