<svg width="1024" height="1024" viewBox="0 0 1024 1024" fill="none" xmlns="http://www.w3.org/2000/svg">
<path d="M925.014 472.576C920.156 469.64 914.527 466.936 908.636 464.775L907.948 464.554C901.695 462.11 894.201 459.928 886.476 458.387L885.59 458.24C877.171 456.603 867.49 455.666 857.591 455.666C856.874 455.666 856.159 455.671 855.445 455.681L855.553 455.68C855.043 455.673 854.441 455.669 853.838 455.669C834.805 455.669 816.681 459.564 800.22 466.6L801.111 466.262C784.43 473.434 770.314 483.666 758.881 496.362L758.786 496.47C746.994 509.794 737.637 525.586 731.605 542.935L731.308 543.915C725.023 561.792 721.392 582.406 721.392 603.867C721.392 604.75 721.398 605.632 721.41 606.513L721.409 606.38C721.392 607.33 721.383 608.45 721.383 609.573C721.383 631.507 725.016 652.593 731.713 672.261L731.308 670.892C737.53 689.187 746.714 704.975 758.425 718.517L758.273 718.338C769.076 730.7 782.335 740.624 797.321 747.402L798.038 747.692C812.172 754.056 828.676 757.763 846.047 757.763C846.269 757.763 846.491 757.762 846.712 757.761H846.678C847.222 757.766 847.865 757.768 848.508 757.768C857.423 757.768 866.222 757.269 874.877 756.299L873.814 756.396C882.491 755.287 890.334 753.372 897.809 750.689L897.024 750.935C904.75 748.314 911.404 745.198 917.638 741.454L917.162 741.719C924.438 737.288 930.742 732.614 936.586 727.433L936.447 727.554C938.87 725.529 941.619 723.763 944.576 722.363L944.809 722.264H947.028V486.061C943.956 484.525 940.884 482.818 937.641 480.6L925.014 472.576ZM451.073 582.144H528.214C528.913 582.162 529.735 582.172 530.56 582.172C542.265 582.172 553.485 580.097 563.874 576.296L563.201 576.511C571.675 573.301 578.869 568.411 584.676 562.207L584.705 562.175C589.651 556.726 593.372 550.073 595.379 542.713L595.457 542.378C597.3 535.693 598.358 528.016 598.358 520.092C598.358 520.067 598.358 520.042 598.358 520.016V520.02C598.363 519.699 598.366 519.321 598.366 518.942C598.366 510.978 597.115 503.306 594.798 496.112L594.945 496.639C592.586 489.797 588.582 484.033 583.394 479.618L583.339 479.573C577.224 474.525 569.904 470.693 561.89 468.569L561.494 468.48C552.052 465.969 541.212 464.527 530.034 464.527C529.094 464.527 528.156 464.537 527.221 464.558L527.361 464.556H451.073V582.145V582.144ZM183.468 370.347H295.596L341.676 489.814V192.513H515.244C517.111 192.475 519.312 192.453 521.518 192.453C548.846 192.453 575.399 195.773 600.796 202.03L598.529 201.558C619.87 206.739 638.597 215.581 654.965 227.475L654.508 227.158C668.268 237.437 679.058 250.966 685.839 266.636L686.081 267.265C692.35 282.377 695.99 299.928 695.99 318.33C695.99 318.918 695.986 319.504 695.979 320.09L695.98 320.001C695.98 320.008 695.98 320.015 695.98 320.023C695.98 330.919 694.295 341.421 691.172 351.283L691.372 350.55C687.994 361.128 683.111 370.314 676.88 378.409L677.036 378.198C670.002 387.361 661.772 395.156 652.483 401.515L652.119 401.75C641.555 408.913 629.431 415.084 616.552 419.662L615.426 420.011C635.815 424.722 653.756 432.931 669.492 444.053L669.015 443.733C672.258 440.149 675.33 436.565 678.743 433.152C700.44 411.998 726.393 395.093 755.181 383.852L756.737 383.317C784.928 372.477 817.542 366.199 851.623 366.199C853.485 366.199 855.343 366.218 857.196 366.255L856.919 366.251C857.147 366.25 857.416 366.25 857.686 366.25C875.107 366.25 892.121 367.99 908.564 371.306L906.924 371.03C922.49 374.181 936.035 378.245 949.036 383.386L947.372 382.806V179.201C947.372 122.647 901.526 76.8008 844.972 76.8008H179.372C122.818 76.8008 76.9718 122.647 76.9718 179.201V645.804L183.468 370.347ZM565.59 379.563C572.263 375.409 577.562 369.617 581.012 362.736L581.121 362.496C584.491 354.775 586.452 345.779 586.452 336.325C586.452 335.505 586.437 334.689 586.408 333.877L586.411 333.995C586.428 333.378 586.438 332.653 586.438 331.925C586.438 322.646 584.866 313.735 581.973 305.442L582.144 306.006C579.47 298.747 574.998 292.681 569.258 288.151L569.173 288.086C562.928 283.409 555.453 280.006 547.33 278.414L546.987 278.358C538.031 276.504 527.739 275.442 517.199 275.442C516.451 275.442 515.705 275.447 514.959 275.458L515.072 275.457H451.072V392.193H508.075C508.615 392.199 509.254 392.202 509.893 392.202C520.825 392.202 531.538 391.268 541.958 389.474L540.843 389.633C550.213 387.798 558.524 384.29 565.838 379.407L565.59 379.563ZM941.569 828.757C913.285 840.794 880.385 847.79 845.851 847.79C843.501 847.79 841.159 847.758 838.825 847.693L839.169 847.7C837.944 847.722 836.499 847.735 835.051 847.735C801.752 847.735 770.024 841.01 741.151 828.844L742.742 829.439C714.374 817.144 690.326 799.824 670.691 778.395L670.55 778.239C651.014 756.844 635.506 731.391 625.468 703.335L624.982 701.78C619.622 687.121 615.27 669.851 612.693 652.008L612.524 650.58L605.015 653.481C583.505 660.426 558.758 664.429 533.075 664.429C531.846 664.429 530.619 664.42 529.395 664.402L529.58 664.404H409.601L477.868 842.239H392.535C391.993 842.266 391.357 842.281 390.718 842.281C382.976 842.281 375.758 840.04 369.677 836.171L369.836 836.266C363.934 832.109 359.469 826.265 357.108 819.439L357.036 819.199L329.217 736.938H149.676L121.857 819.199C116.2 833.217 102.707 842.929 86.9448 842.929C86.6788 842.929 86.4128 842.926 86.1478 842.921L86.1878 842.922H76.8008V844.799C76.8008 901.353 122.647 947.199 179.201 947.199H844.801C901.355 947.199 947.201 901.353 947.201 844.799V825.855L941.569 828.757ZM250.71 503.637C246.955 492.259 243.257 480.198 239.617 467.456C236.203 480.654 232.619 492.885 228.865 504.149C225.11 515.413 221.64 525.141 218.454 533.333L175.105 662.016H304.129L260.78 532.651L250.71 503.637Z" fill="black"/>
</svg>
