<svg width="1024" height="1024" viewBox="0 0 1024 1024" fill="none" xmlns="http://www.w3.org/2000/svg">
<path d="M189.612 49.8359H351.063C375.852 49.8359 395.948 69.9319 395.948 94.7209V256.172C395.948 280.961 375.852 301.057 351.063 301.057H189.612C164.823 301.057 144.727 280.961 144.727 256.172V94.7209C144.727 69.9319 164.823 49.8359 189.612 49.8359ZM117.932 386.39H279.383C304.172 386.39 324.268 406.486 324.268 431.275V592.726C324.268 617.515 304.172 637.611 279.383 637.611H117.932C93.1429 637.611 73.0469 617.515 73.0469 592.726V431.275C73.0469 406.486 93.1429 386.39 117.932 386.39ZM189.612 722.945H351.063C375.852 722.945 395.948 743.041 395.948 767.83V929.451C395.948 954.24 375.852 974.336 351.063 974.336H189.612C164.823 974.336 144.727 954.24 144.727 929.451V767.83C144.727 743.041 164.823 722.945 189.612 722.945ZM609.964 512.001L492.033 443.905V477.868H391.51V546.135H492.033V580.098L609.964 512.001ZM603.308 269.996L506.881 173.569L458.582 221.868L555.009 318.295L530.945 342.359L662.529 377.516L627.201 245.932L603.308 269.996ZM555.009 705.708L458.582 802.135L506.881 850.434L603.308 754.007L627.201 778.071L662.529 646.487L530.945 681.644L555.009 705.708ZM825.345 340.31C737.121 340.31 665.601 411.83 665.601 500.054C665.601 588.278 737.121 659.798 825.345 659.798C913.569 659.798 985.089 588.278 985.089 500.054C984.992 411.869 913.53 340.407 825.354 340.31H825.345ZM825.345 591.532C774.823 591.532 733.868 550.576 733.868 500.055C733.868 449.534 774.824 408.578 825.345 408.578C875.867 408.578 916.822 449.534 916.822 500.055C916.725 550.538 875.827 591.435 825.354 591.532H825.345Z" fill="black"/>
</svg>
