<svg width="1024" height="1024" viewBox="0 0 1024 1024" fill="none" xmlns="http://www.w3.org/2000/svg">
<path d="M844.801 76.8008H179.201C122.647 76.8008 76.8008 122.647 76.8008 179.201V844.801C76.8008 901.355 122.647 947.201 179.201 947.201H844.801C901.355 947.201 947.201 901.355 947.201 844.801V179.201C947.201 122.647 901.355 76.8008 844.801 76.8008ZM126.465 392.534L204.801 313.857L281.601 390.828C286.276 395.286 292.621 398.029 299.606 398.029C306.591 398.029 312.936 395.286 317.622 390.819L578.732 129.709L656.727 207.704L299.863 565.08L126.465 392.534ZM805.206 870.401L673.622 739.329L542.038 870.401L463.019 791.894L594.091 660.31L462.507 528.214L541.867 449.707L673.622 580.267L805.206 448.683L884.225 529.067L753.153 660.651L884.737 792.747L805.206 870.401Z" fill="black"/>
</svg>
