<svg width="1024" height="1024" viewBox="0 0 1024 1024" fill="none" xmlns="http://www.w3.org/2000/svg">
<path d="M457.044 720.725H508.585L521.726 647.338H470.014L457.043 720.725H457.044ZM584.874 19.627H141.141V1004.37H882.005V314.881L584.874 19.627ZM662.527 619.349C661.365 628.084 656.837 635.584 650.313 640.627L650.239 640.682C642.767 644.967 633.813 647.495 624.269 647.495C622.838 647.495 621.419 647.438 620.017 647.327L620.202 647.339H600.746L587.605 720.726H621.738C622.25 720.691 622.847 720.671 623.449 720.671C629.798 720.671 635.631 722.879 640.222 726.569L640.17 726.528C644.27 730.956 646.786 736.903 646.786 743.437C646.786 744.334 646.739 745.22 646.646 746.092L646.655 745.983C646.655 747.86 646.655 749.738 646.655 751.956C646.655 754.174 646.655 756.223 645.802 758.441L640.853 788.308H578.73L556.885 911.188H512C511.984 911.188 511.966 911.188 511.947 911.188C507.927 911.188 504.129 910.243 500.761 908.562L500.906 908.628C497.43 906.946 494.484 904.709 492.055 901.999L492.032 901.972C489.532 899.177 487.509 895.892 486.131 892.289L486.059 892.074C484.654 888.48 483.84 884.319 483.84 879.967C483.84 879.903 483.84 879.839 483.841 879.776V879.786C483.841 878.762 483.841 877.567 483.841 876.373C483.81 875.863 483.792 875.267 483.792 874.666C483.792 874.065 483.81 873.469 483.845 872.878L483.841 872.96L498.86 787.627H447.66L432.471 876.886C431.551 882.664 429.574 887.839 426.736 892.425L426.839 892.246C424.232 896.403 420.927 899.871 417.054 902.581L416.94 902.657C413.227 905.246 408.906 907.294 404.263 908.562L403.97 908.63C399.671 909.822 394.735 910.508 389.638 910.508C389.577 910.508 389.515 910.508 389.454 910.508H347.138L368.983 787.628H341.335C340.823 787.663 340.226 787.683 339.624 787.683C333.275 787.683 327.442 785.475 322.851 781.785L322.903 781.826C318.799 777.421 316.28 771.493 316.28 764.976C316.28 764.058 316.33 763.152 316.427 762.26L316.417 762.37C316.369 761.478 316.341 760.434 316.341 759.383C316.341 758.332 316.369 757.288 316.423 756.251L316.417 756.396C316.417 754.348 316.417 752.129 317.27 749.911L322.219 720.044H377.344L390.485 646.657H329.216L336.725 607.404C337.97 598.746 342.478 591.325 348.94 586.296L349.013 586.241C356.154 582.318 364.662 580.01 373.708 580.01C375.529 580.01 377.329 580.104 379.102 580.286L378.88 580.267H400.043L416.256 489.131C417.683 479.646 422.836 471.58 430.148 466.331L430.25 466.261C437.374 461.134 446.276 458.062 455.895 458.062C456.179 458.062 456.463 458.065 456.746 458.07L456.704 458.069H500.907L479.062 580.266H530.262L552.107 458.069H595.115C595.515 458.051 595.984 458.041 596.456 458.041C604.408 458.041 611.696 460.889 617.354 465.62L617.303 465.578C622.547 470.081 625.847 476.718 625.847 484.127C625.847 484.386 625.843 484.644 625.835 484.901L625.836 484.863V487.252C625.877 487.661 625.901 488.137 625.901 488.617C625.901 489.097 625.877 489.573 625.831 490.042L625.836 489.983L609.793 580.266H670.209L662.527 619.349ZM537.94 363.349V93.354L808.105 363.519H538.11L537.94 363.349Z" fill="black"/>
</svg>
