<svg width="1024" height="1024" viewBox="0 0 1024 1024" fill="none" xmlns="http://www.w3.org/2000/svg">
<path d="M747.18 593.58C742.981 585.456 736.747 578.893 729.138 574.414L728.918 574.294C722.939 571.045 715.841 569.097 708.296 569.004H708.267C700.693 569.061 693.588 571.014 687.386 574.41L687.616 574.295C680.221 578.993 674.382 585.543 670.668 593.305L670.549 593.58C664.726 604.796 660.321 617.814 658.027 631.546L657.92 632.322C654.849 649.638 653.094 669.573 653.094 689.918C653.094 691.93 653.111 693.937 653.145 695.941L653.141 695.639C653.109 697.395 653.091 699.466 653.091 701.541C653.091 721.883 654.848 741.815 658.217 761.192L657.92 759.127C660.355 773.64 664.757 786.653 670.902 798.625L670.549 797.868C674.348 805.978 680.193 812.591 687.432 817.214L687.615 817.324C693.587 820.605 700.692 822.558 708.248 822.615H708.265C715.839 822.521 722.937 820.574 729.154 817.206L728.916 817.324C736.77 812.69 743.011 806.065 747.055 798.133L747.178 797.868C753.13 786.661 757.648 773.652 760.036 759.912L760.149 759.127C763.328 741.742 765.146 721.735 765.146 701.303C765.146 699.312 765.129 697.324 765.094 695.341L765.098 695.639C765.126 694.008 765.143 692.085 765.143 690.158C765.143 669.722 763.326 649.711 759.845 630.276L760.149 632.322C757.68 617.801 753.159 604.788 746.838 592.877L747.179 593.581L747.18 593.58ZM844.801 76.8008H179.201C122.647 76.8008 76.8008 122.647 76.8008 179.201V844.801C76.8008 901.355 122.647 947.201 179.201 947.201H844.801C901.355 947.201 947.201 901.355 947.201 844.801V179.201C947.201 122.647 901.355 76.8008 844.801 76.8008ZM228.353 301.569C226.028 303.561 223.312 305.179 220.346 306.287L220.161 306.348C217.825 307.188 215.13 307.686 212.323 307.713H212.311C212.142 307.717 211.944 307.72 211.745 307.72C207.572 307.72 203.65 306.642 200.243 304.75L200.364 304.812C197.271 303.2 194.662 301.081 192.546 298.538L192.513 298.497L167.425 264.364L283.649 166.913H349.185V483.67H410.625V541.014H198.145V483.67H269.825V295.937C269.825 286.721 269.825 277.05 269.825 266.924L228.353 301.569ZM329.558 830.636L648.534 170.668L694.614 192.855L375.467 853.335L329.558 830.636ZM836.268 779.436C830.035 802.149 820.069 821.97 806.941 839.259L807.255 838.828C795.698 853.793 780.932 865.716 763.941 873.683L763.223 873.986C747.386 881.214 728.873 885.427 709.376 885.427C708.927 885.427 708.478 885.425 708.029 885.42L708.097 885.421C707.661 885.426 707.146 885.429 706.63 885.429C687.255 885.429 668.865 881.214 652.326 873.652L653.142 873.986C635.558 865.692 620.906 853.773 609.656 839.107L609.451 838.829C596.669 822.265 586.664 802.804 580.569 781.684L580.267 780.461C573.621 756.615 569.801 729.233 569.801 700.958C569.801 698.908 569.821 696.863 569.861 694.823L569.856 695.128C569.821 693.393 569.801 691.348 569.801 689.298C569.801 661.023 573.621 633.64 580.773 607.638L580.267 609.795C586.428 587.087 596.341 567.262 609.425 549.968L609.11 550.403C620.62 535.825 635.268 524.239 652.078 516.565L652.8 516.27C668.602 509.043 687.077 504.83 706.537 504.83C706.965 504.83 707.393 504.832 707.82 504.836H707.755C708.051 504.834 708.4 504.832 708.75 504.832C728.344 504.832 746.954 509.044 763.724 516.611L762.881 516.271C780.538 524.215 795.302 535.806 806.731 550.168L806.913 550.404C819.98 567.583 830.079 587.82 835.989 609.774L836.268 610.991C842.919 634.716 846.742 661.96 846.742 690.098C846.742 692.287 846.719 694.471 846.673 696.65L846.678 696.325C846.705 697.845 846.721 699.638 846.721 701.434C846.721 729.543 842.905 756.761 835.764 782.599L836.267 780.464L836.268 779.436Z" fill="black"/>
</svg>
