<svg width="1024" height="1024" viewBox="0 0 1024 1024" fill="none" xmlns="http://www.w3.org/2000/svg">
<path d="M672.766 722.945H834.217C859.006 722.945 879.102 743.041 879.102 767.83V929.451C879.102 954.24 859.006 974.336 834.217 974.336H672.766C647.977 974.336 627.881 954.24 627.881 929.451V767.83C627.881 743.041 647.977 722.945 672.766 722.945ZM744.617 386.39H906.068C930.857 386.39 950.953 406.486 950.953 431.275V592.726C950.953 617.515 930.857 637.611 906.068 637.611H744.617C719.828 637.611 699.732 617.515 699.732 592.726V431.275C699.732 406.486 719.828 386.39 744.617 386.39ZM672.766 49.8359H834.217C859.006 49.8359 879.102 69.9319 879.102 94.7209V256.172C879.102 280.961 859.006 301.057 834.217 301.057H672.766C647.977 301.057 627.881 280.961 627.881 256.172V94.7209C627.881 69.9319 647.977 49.8359 672.766 49.8359ZM632.489 512.001L514.558 443.905V477.868H414.035V546.135H514.558V580.098L632.489 512.001ZM482.131 718.849L385.704 622.422L337.405 670.55L433.832 767.147L409.768 791.04L541.352 826.197L506.024 694.784L482.131 718.848V718.849ZM385.705 401.75L482.132 305.153L506.025 329.217L541.353 197.804L409.769 232.961L433.833 256.854L337.406 353.451L385.705 401.75ZM198.654 364.204C110.43 364.204 38.9102 435.724 38.9102 523.948C38.9102 612.172 110.43 683.692 198.654 683.692C286.878 683.692 358.398 612.172 358.398 523.948C358.301 435.763 286.839 364.301 198.663 364.204H198.654ZM198.654 615.425C148.132 615.425 107.177 574.469 107.177 523.948C107.177 473.427 148.133 432.471 198.654 432.471C249.176 432.471 290.131 473.427 290.131 523.948C290.034 574.431 249.136 615.328 198.663 615.425H198.654Z" fill="black"/>
</svg>
