<svg width="1024" height="1024" viewBox="0 0 1024 1024" fill="none" xmlns="http://www.w3.org/2000/svg">
<path d="M844.801 76.8008H179.201C122.647 76.8008 76.8008 122.647 76.8008 179.201V844.801C76.8008 901.355 122.647 947.201 179.201 947.201H844.801C901.355 947.201 947.201 901.355 947.201 844.801V179.201C947.201 122.647 901.355 76.8008 844.801 76.8008ZM416.086 842.582H147.115V769.878H237.91V530.945C237.91 519.567 238.251 507.336 238.934 494.252L185.515 538.625C182.558 541.118 179.105 543.142 175.341 544.522L175.104 544.598C172.104 545.673 168.644 546.298 165.038 546.305H165.035C164.895 546.307 164.73 546.309 164.565 546.309C159.225 546.309 154.211 544.916 149.866 542.473L150.017 542.551C146.124 540.546 142.836 537.913 140.157 534.747L140.119 534.7L108.204 493.569L256.001 370.006H338.945V599.211C340.77 596.823 342.671 594.705 344.726 592.746L344.748 592.725L481.281 456.192C491.683 445.637 501.618 434.512 510.99 422.915L511.66 422.059C519.284 412.898 526.345 402.681 532.458 391.858L532.993 390.827C537.99 382.022 542.294 371.827 545.375 361.113L545.623 360.107C548.333 350.48 549.891 339.424 549.891 328.004C549.891 327.83 549.891 327.657 549.89 327.483V327.51C549.981 326.245 550.032 324.769 550.032 323.281C550.032 308.44 544.898 294.798 536.309 284.033L536.407 284.16C526.968 274.777 513.957 268.977 499.592 268.977C498.133 268.977 496.688 269.037 495.26 269.154L495.447 269.142C495.2 269.139 494.909 269.137 494.617 269.137C487.465 269.137 480.591 270.326 474.181 272.517L474.625 272.385C468.111 274.544 462.454 277.499 457.385 281.21L457.558 281.089C452.604 284.76 448.375 289.044 444.875 293.889L444.758 294.059C441.392 298.729 438.513 304.084 436.379 309.801L436.225 310.273C433.676 318.61 429.123 325.699 423.116 331.235L423.084 331.265C417.642 335.344 410.777 337.797 403.339 337.797C402.72 337.797 402.106 337.78 401.495 337.747L401.58 337.751H394.583L386.903 336.727L333.826 327.34C336.892 304.343 343.929 283.544 354.256 264.815L353.794 265.729C372.361 232.187 402.877 207.17 439.464 196.191L440.492 195.926C458.094 190.506 478.329 187.385 499.293 187.385C499.921 187.385 500.548 187.388 501.175 187.393L501.079 187.392C501.845 187.38 502.748 187.374 503.654 187.374C525.297 187.374 546.062 191.132 565.332 198.031L564.055 197.632C582.542 204.213 598.443 213.85 611.964 226.072L611.842 225.963C624.727 237.756 635.02 252.153 641.918 268.343L642.22 269.142C648.403 284.464 651.99 302.231 651.99 320.837C651.99 322.043 651.975 323.246 651.945 324.445L651.949 324.267C651.953 324.653 651.955 325.108 651.955 325.565C651.955 342.24 649.268 358.287 644.303 373.298L644.61 372.225C639.233 388.25 632.473 402.134 624.196 414.946L624.642 414.209C615.328 428.703 605.661 441.3 595.059 453.036L595.287 452.779C583.909 465.181 572.076 477.753 559.788 490.496L467.628 585.387C476.843 582.538 488.682 579.695 500.748 577.502L502.785 577.195C512.545 575.317 523.807 574.202 535.315 574.123H623.446C624.041 574.088 624.737 574.067 625.438 574.067C634.509 574.067 642.789 577.453 649.083 583.03L649.046 582.998C654.856 588.622 658.462 596.491 658.462 605.203C658.462 605.677 658.451 606.148 658.43 606.616L658.432 606.549V664.917H338.261V770.048H416.085V842.581L416.086 842.582ZM897.025 764.417C888.093 782.859 875.772 798.347 860.742 810.648L860.503 810.838C845.534 822.876 827.904 832.336 808.702 838.196L807.596 838.486C789.022 844.334 767.662 847.703 745.515 847.703C745.26 847.703 745.006 847.703 744.751 847.702H744.79C743.943 847.713 742.944 847.72 741.943 847.72C721.66 847.72 702.005 845.036 683.312 840.003L684.886 840.364C667.077 835.443 651.535 827.651 637.941 817.411L638.294 817.666C624.12 806.715 612.208 793.663 602.817 778.855L602.454 778.242C592.036 761.862 582.968 743.015 576.208 723.102L575.659 721.24L620.374 703.149C623.568 701.684 627.287 700.501 631.17 699.781L631.468 699.735C634.845 699.101 638.739 698.729 642.716 698.711H642.732C642.894 698.709 643.086 698.707 643.278 698.707C649.842 698.707 656.054 700.22 661.582 702.916L661.334 702.807C666.68 705.363 670.961 709.425 673.721 714.441L673.793 714.583C681.485 730.05 691.882 743.065 704.487 753.508L704.683 753.666C714.918 761.245 727.793 765.798 741.731 765.798C742.206 765.798 742.68 765.793 743.153 765.782L743.083 765.783C743.599 765.797 744.205 765.804 744.814 765.804C754.795 765.804 764.291 763.724 772.891 759.975L772.438 760.151C780.502 756.567 787.362 751.675 793.063 745.672L793.089 745.644C798.382 739.961 802.612 733.206 805.411 725.751L805.548 725.334C808.216 718.497 809.778 710.583 809.815 702.309V702.294C809.82 701.816 809.823 701.251 809.823 700.685C809.823 691.611 809.075 682.712 807.638 674.046L807.767 674.987C806.294 666.555 802.053 659.301 796.032 654.031L795.991 653.995C787.826 647.431 777.911 642.698 767.06 640.581L766.636 640.512C752.009 637.427 735.201 635.661 717.981 635.661C715.886 635.661 713.797 635.687 711.714 635.739L712.022 635.733V566.442C713.346 566.473 714.906 566.491 716.47 566.491C731.765 566.491 746.664 564.794 760.989 561.579L759.638 561.834C770.311 559.54 779.71 555.206 787.83 549.233L787.628 549.375C793.821 544.555 798.428 537.959 800.701 530.357L800.77 530.09C802.831 522.869 804.016 514.575 804.016 506.005C804.016 505.712 804.015 505.42 804.012 505.128V505.173C804.097 503.954 804.145 502.53 804.145 501.096C804.145 486.318 799.013 472.738 790.434 462.042L790.529 462.165C781.09 452.782 768.079 446.982 753.714 446.982C752.255 446.982 750.81 447.042 749.382 447.159L749.569 447.147C749.363 447.145 749.12 447.143 748.877 447.143C741.736 447.143 734.873 448.331 728.475 450.521L728.918 450.389C722.404 452.548 716.747 455.503 711.678 459.214L711.851 459.093C706.895 462.762 702.666 467.046 699.168 471.893L699.051 472.064C695.685 476.734 692.806 482.089 690.672 487.806L690.518 488.278C687.969 496.615 683.416 503.704 677.409 509.24L677.377 509.27C671.935 513.349 665.07 515.802 657.632 515.802C657.013 515.802 656.399 515.785 655.788 515.752L655.873 515.756H648.876L641.196 514.732L588.119 505.345C591.243 482.335 598.336 461.543 608.719 442.828L608.258 443.734C626.825 410.192 657.341 385.175 693.928 374.196L694.956 373.931C712.558 368.511 732.793 365.39 753.757 365.39C754.385 365.39 755.012 365.393 755.639 365.398L755.543 365.397C756.452 365.381 757.524 365.371 758.598 365.371C779.814 365.371 800.18 369.006 819.109 375.687L817.837 375.296C835.618 381.576 850.94 390.685 864.074 402.225L863.917 402.09C875.908 412.747 885.542 425.771 892.132 440.458L892.419 441.173C898.566 454.835 902.148 470.788 902.148 487.578C902.148 487.704 902.148 487.829 902.147 487.955V487.936C902.156 488.54 902.16 489.252 902.16 489.966C902.16 503.247 900.474 516.135 897.305 528.426L897.538 527.36C894.636 538.599 889.999 548.452 883.863 557.173L884.055 556.885C877.998 565.249 870.698 572.278 862.346 577.855L862.039 578.048C853.396 583.76 843.463 588.669 832.927 592.279L832.001 592.555C884.339 610.759 910.451 646.315 910.337 699.222C910.363 700.255 910.378 701.472 910.378 702.692C910.378 725.082 905.393 746.308 896.474 765.321L896.855 764.417H897.025Z" fill="black"/>
</svg>
