<svg width="1024" height="1024" viewBox="0 0 1024 1024" fill="none" xmlns="http://www.w3.org/2000/svg">
<path d="M158.401 780.8C180.801 793.6 209.601 803.2 248.001 811.2C286.401 819.2 326.401 822.4 371.201 822.4C379.201 822.4 385.601 822.4 393.601 822.4C379.201 804.8 376.001 787.2 376.001 772.8V740.8C374.401 740.8 372.801 740.8 371.201 740.8C320.001 740.8 273.601 736 228.801 726.4C184.001 716.8 150.401 704 124.801 686.4V740.8C124.801 753.6 136.001 768 158.401 780.8ZM158.401 657.6C180.801 670.4 209.601 680 248.001 688C286.401 696 326.401 699.2 371.201 699.2C372.801 699.2 374.401 699.2 376.001 699.2V617.6C374.401 617.6 372.801 617.6 371.201 617.6C320.001 617.6 273.601 612.8 228.801 603.2C184.001 593.6 150.401 580.8 124.801 563.2V617.6C124.801 630.4 136.001 644.8 158.401 657.6ZM158.401 411.2C180.801 424 209.601 433.6 248.001 441.6C286.401 449.6 326.401 452.8 371.201 452.8C372.801 452.8 374.401 452.8 376.001 452.8V361.6C376.001 339.2 385.601 307.2 432.001 280C448.001 270.4 465.601 264 486.401 257.6C451.201 251.2 412.801 248 371.201 248C326.401 248 284.801 251.2 248.001 259.2C209.601 267.2 180.801 276.8 158.401 289.6C136.001 302.4 124.801 315.2 124.801 331.2V372.8C124.801 384 136.001 398.4 158.401 411.2ZM158.401 534.4C180.801 547.2 209.601 556.8 248.001 564.8C286.401 572.8 326.401 576 371.201 576C372.801 576 374.401 576 376.001 576V494.4C374.401 494.4 372.801 494.4 371.201 494.4C320.001 494.4 273.601 489.6 228.801 480C184.001 470.4 150.401 457.6 124.801 440V494.4C124.801 507.2 136.001 521.6 158.401 534.4ZM422.401 716.8V771.2C422.401 774.4 422.401 779.2 424.001 782.4C425.601 787.2 430.401 793.6 435.201 798.4C438.401 801.6 443.201 804.8 448.001 808C451.201 809.6 452.801 811.2 456.001 812.8C457.601 814.4 460.801 814.4 462.401 816C468.801 819.2 475.201 822.4 481.601 825.6V745.6C476.801 744 472.001 742.4 467.201 740.8C462.401 739.2 459.201 737.6 454.401 734.4C443.201 729.6 432.001 723.2 422.401 716.8ZM896.001 680C900.801 676.8 904.001 673.6 905.601 670.4C908.801 667.2 910.401 664 912.001 659.2C913.601 656 913.601 652.8 913.601 648V593.6C894.401 606.4 870.401 617.6 840.001 627.2C830.401 630.4 819.201 632 808.001 635.2C796.801 638.4 785.601 640 774.401 641.6C763.201 643.2 752.001 644.8 739.201 646.4C715.201 648 691.201 649.6 665.601 649.6C652.801 649.6 640.001 649.6 628.801 648C619.201 648 609.601 646.4 600.001 646.4C574.401 644.8 548.801 640 524.801 635.2C502.401 630.4 483.201 625.6 465.601 617.6C460.801 616 457.601 614.4 452.801 611.2C441.601 606.4 430.401 600 420.801 593.6V648C420.801 651.2 420.801 656 422.401 659.2C424.001 664 428.801 670.4 433.601 675.2C436.801 678.4 441.601 681.6 446.401 684.8C449.601 686.4 451.201 688 454.401 689.6C456.001 691.2 459.201 691.2 460.801 692.8C468.801 697.6 478.401 700.8 489.601 705.6C499.201 691.2 515.201 681.6 534.401 681.6L896.001 680ZM448.001 324.8C443.201 328 438.401 331.2 435.201 334.4C430.401 339.2 427.201 344 424.001 350.4C422.401 353.6 422.401 356.8 422.401 361.6V403.2C422.401 406.4 422.401 411.2 424.001 414.4C425.601 419.2 430.401 425.6 435.201 430.4C438.401 433.6 443.201 436.8 448.001 440C451.201 441.6 452.801 443.2 456.001 444.8C457.601 446.4 460.801 446.4 462.401 448C478.401 456 496.001 462.4 518.401 468.8C526.401 470.4 534.401 472 542.401 473.6C544.001 473.6 544.001 473.6 545.601 473.6C564.801 476.8 584.001 480 604.801 481.6C609.601 481.6 614.401 481.6 617.601 483.2C633.601 484.8 651.201 484.8 668.801 484.8C680.001 484.8 691.201 484.8 700.801 484.8C716.801 484.8 732.801 483.2 747.201 481.6C761.601 480 777.601 478.4 792.001 475.2C816.001 470.4 835.201 465.6 852.801 457.6C864.001 454.4 873.601 449.6 881.601 444.8C884.801 443.2 886.401 441.6 889.601 440C892.801 438.4 894.401 436.8 896.001 435.2C900.801 432 904.001 428.8 905.601 425.6C908.801 422.4 910.401 419.2 912.001 414.4C913.601 409.6 913.601 408 913.601 403.2V361.6C913.601 358.4 913.601 353.6 912.001 350.4C910.401 347.2 908.801 344 905.601 339.2C902.401 336 899.201 332.8 896.001 329.6C894.401 328 891.201 326.4 889.601 324.8C886.401 323.2 884.801 321.6 881.601 320C873.601 315.2 864.001 310.4 852.801 307.2C835.201 300.8 814.401 294.4 792.001 289.6C777.601 286.4 763.201 284.8 747.201 283.2C732.801 281.6 716.801 280 700.801 280C689.601 280 678.401 280 668.801 280C646.401 280 625.601 281.6 604.801 283.2C595.201 284.8 587.201 284.8 579.201 286.4C568.001 288 556.801 289.6 545.601 291.2C536.001 292.8 526.401 294.4 518.401 297.6C492.801 304 472.001 312 456.001 321.6C452.801 321.6 449.601 323.2 448.001 324.8ZM448.001 561.6C451.201 563.2 452.801 564.8 456.001 566.4C457.601 568 460.801 568 462.401 569.6C478.401 577.6 496.001 584 518.401 590.4C526.401 592 534.401 593.6 542.401 595.2C544.001 595.2 544.001 595.2 545.601 595.2C564.801 598.4 584.001 601.6 604.801 603.2C609.601 603.2 614.401 603.2 617.601 604.8C633.601 606.4 651.201 606.4 668.801 606.4C680.001 606.4 691.201 606.4 700.801 606.4C716.801 606.4 732.801 604.8 747.201 603.2C761.601 601.6 777.601 600 792.001 596.8C816.001 592 835.201 587.2 852.801 579.2C864.001 576 873.601 571.2 881.601 566.4C884.801 564.8 886.401 563.2 889.601 561.6C892.801 560 894.401 558.4 896.001 556.8C900.801 553.6 904.001 550.4 905.601 547.2C908.801 544 910.401 540.8 912.001 536C913.601 531.2 913.601 529.6 913.601 524.8V470.4C894.401 483.2 870.401 494.4 840.001 504C830.401 507.2 819.201 508.8 808.001 512C796.801 513.6 785.601 516.8 774.401 518.4C763.201 520 752.001 521.6 739.201 523.2C715.201 524.8 691.201 526.4 665.601 526.4C652.801 526.4 640.001 526.4 628.801 524.8C619.201 524.8 609.601 523.2 600.001 523.2C574.401 521.6 548.801 516.8 524.801 512C502.401 507.2 483.201 502.4 465.601 494.4C460.801 492.8 457.601 491.2 452.801 488C441.601 483.2 430.401 476.8 420.801 470.4V524.8C420.801 528 420.801 532.8 422.401 536C424.001 540.8 428.801 547.2 433.601 552C438.401 555.2 443.201 558.4 448.001 561.6ZM612.801 897.6C609.601 899.2 606.401 900.8 600.001 900.8C592.001 900.8 585.601 899.2 580.801 894.4L579.201 892.8C574.401 888 572.801 880 572.801 868.8H537.601C537.601 875.2 539.201 881.6 540.801 888C544.001 897.6 548.801 907.2 556.801 913.6C569.601 923.2 584.001 929.6 601.601 929.6C619.201 929.6 633.601 924.8 643.201 916.8C648.001 912 652.801 907.2 654.401 900.8C657.601 894.4 659.201 888 659.201 880C659.201 870.4 657.601 862.4 654.401 854.4C652.801 849.6 649.601 846.4 646.401 843.2C638.401 833.6 624.001 827.2 606.401 820.8C595.201 816 587.201 811.2 584.001 808C579.201 804.8 577.601 798.4 577.601 793.6C577.601 790.4 577.601 788.8 579.201 785.6C580.801 782.4 582.401 779.2 584.001 777.6C588.801 772.8 593.601 771.2 600.001 771.2H601.601C608.001 771.2 612.801 774.4 617.601 779.2C622.401 784 624.001 792 624.001 800H659.201C659.201 790.4 657.601 782.4 654.401 774.4C651.201 769.6 648.001 764.8 643.201 760C636.801 753.6 627.201 748.8 617.601 747.2C612.801 745.6 606.401 745.6 600.001 745.6C582.401 745.6 568.001 750.4 556.801 760C553.601 761.6 552.001 764.8 550.401 768C544.001 776 540.801 785.6 540.801 796.8C540.801 800 540.801 801.6 540.801 804.8C542.401 816 547.201 825.6 555.201 833.6C564.801 841.6 579.201 849.6 598.401 856H600.001C608.001 859.2 614.401 864 617.601 867.2C620.801 872 622.401 876.8 622.401 884.8C622.401 891.2 620.801 897.6 617.601 900.8C616.001 896 614.401 897.6 612.801 897.6ZM795.201 886.4C798.401 878.4 798.401 870.4 798.401 860.8V809.6C798.401 790.4 793.601 774.4 784.001 763.2C782.401 761.6 782.401 760 780.801 760C769.601 747.2 753.601 742.4 734.401 742.4C715.201 742.4 699.201 748.8 688.001 760C684.801 763.2 681.601 768 680.001 772.8C673.601 784 672.001 795.2 672.001 811.2V864C672.001 880 675.201 892.8 681.601 904C683.201 908.8 686.401 912 689.601 915.2C700.801 928 716.801 932.8 736.001 932.8C740.801 932.8 745.601 932.8 750.401 931.2C755.201 929.6 760.001 929.6 763.201 928L792.001 960L814.401 940.8L784.001 907.2C787.201 902.4 790.401 896 793.601 889.6C793.601 888 793.601 888 795.201 886.4ZM734.401 900.8C729.601 900.8 726.401 899.2 723.201 899.2C720.001 897.6 716.801 894.4 713.601 891.2C708.801 884.8 707.201 875.2 707.201 860.8V809.6C707.201 796.8 708.801 787.2 713.601 779.2C718.401 772.8 724.801 769.6 734.401 769.6C744.001 769.6 750.401 772.8 755.201 779.2C760.001 785.6 763.201 795.2 763.201 809.6V860.8C763.201 873.6 760.001 884.8 755.201 891.2C753.601 892.8 752.001 894.4 750.401 896C745.601 899.2 740.801 900.8 734.401 900.8ZM924.801 897.6H857.601V742.4H822.401V926.4H924.801V897.6Z" fill="black"/>
</svg>
