<svg width="1024" height="1024" viewBox="0 0 1024 1024" fill="none" xmlns="http://www.w3.org/2000/svg">
<path d="M790.399 723.2C809.599 723.2 827.199 716.8 839.999 702.4C852.799 689.6 860.799 672 860.799 652.8V235.2C860.799 216 854.399 200 839.999 187.2C827.199 174.4 809.599 166.4 790.399 166.4H372.799C353.599 166.4 335.999 172.8 323.199 187.2C310.399 201.6 302.399 217.6 302.399 235.2V652.8C302.399 672 308.799 689.6 323.199 702.4C335.999 715.2 353.599 723.2 372.799 723.2H790.399ZM406.399 409.6H547.199V270.4H615.999V409.6H756.799V480H615.999V619.2H547.199V480H406.399V409.6ZM163.199 305.6V793.6C163.199 812.8 169.599 828.8 183.999 841.6C196.799 854.4 214.399 862.4 233.599 862.4H719.999V793.6H233.599V305.6H163.199Z" fill="black"/>
</svg>
