<svg width="1024" height="1024" viewBox="0 0 1024 1024" fill="none" xmlns="http://www.w3.org/2000/svg">
<path d="M844.801 76.8008H179.201C122.647 76.8008 76.8008 122.647 76.8008 179.201V844.801C76.8008 901.355 122.647 947.201 179.201 947.201H844.801C901.355 947.201 947.201 901.355 947.201 844.801V179.201C947.201 122.647 901.355 76.8008 844.801 76.8008ZM426.668 137.9H601.089V379.564C601.08 418.251 598.662 456.364 593.976 493.772L594.433 489.303C589.995 525.598 584.306 562.576 577.366 600.236H451.073C443.905 562.575 438.216 525.597 434.006 489.303C429.574 456.564 426.914 418.501 426.669 379.865L426.667 379.564V137.9H426.668ZM609.793 823.98C604.306 836.776 596.695 847.669 587.296 856.718L587.265 856.748C577.695 865.833 566.361 873.167 553.843 878.172L553.132 878.423C541.093 883.392 527.115 886.277 512.463 886.277C512.181 886.277 511.899 886.276 511.617 886.274H511.66C511.309 886.278 510.894 886.28 510.478 886.28C495.721 886.28 481.639 883.394 468.764 878.156L469.505 878.423C432.051 862.911 406.183 826.649 406.183 784.345C406.183 783.999 406.185 783.654 406.188 783.309V783.362C406.187 783.175 406.186 782.953 406.186 782.731C406.186 768.398 409.201 754.769 414.632 742.444L414.38 743.085C419.897 730.472 427.377 719.712 436.554 710.671L436.567 710.659C446.129 701.456 457.462 694.013 469.992 688.899L470.7 688.643C482.863 683.462 497.012 680.451 511.865 680.451C511.913 680.451 511.961 680.451 512.009 680.451H512.002C512.183 680.45 512.398 680.449 512.612 680.449C527.361 680.449 541.406 683.462 554.166 688.905L553.474 688.642C566.682 694.11 577.999 701.54 587.656 710.704L587.608 710.658C606.555 728.804 618.331 754.307 618.331 782.56C618.331 782.842 618.33 783.124 618.327 783.405V783.362C618.282 798.063 615.145 812.02 609.535 824.632L609.794 823.98H609.793Z" fill="black"/>
</svg>
