<svg width="1024" height="1024" viewBox="0 0 1024 1024" fill="none" xmlns="http://www.w3.org/2000/svg">
<path d="M452.062 702.821C457.575 702.207 463.053 701.439 468.463 700.5C505.215 694.503 538.043 681.414 566.817 662.631L565.845 663.226L806.912 904.276L871.441 836.692L635.187 600.455C647.953 584.491 659.142 566.363 667.995 546.945L668.655 545.33C669.048 544.46 669.474 543.623 669.867 542.736C671.284 539.442 672.598 536.114 673.878 532.769C686.134 503.11 693.25 468.671 693.25 432.571C693.25 351.498 657.36 278.807 600.601 229.52L600.27 229.239L534.188 295.304C575.105 328.205 601.071 378.261 601.071 434.38C601.071 532.684 521.4 612.38 423.105 612.419H423.101V535.465L286.977 668.978L423.101 805.119V704.596C431.89 704.596 440.56 703.999 449.162 703.145L452.062 702.821ZM244.736 434.345C244.814 335.972 324.54 256.247 422.905 256.169H423.117V333.959L556.647 200.446L423.117 62.9062V162.388H422.912C386.501 162.421 351.814 169.763 320.227 183.026L321.98 182.373C320.888 182.817 319.761 183.158 318.686 183.602C316.467 184.541 314.368 185.667 312.184 186.674C288.856 197.197 268.753 209.963 250.746 225.138L251.136 224.818C250.487 225.347 249.907 225.961 249.276 226.525C243.405 231.526 237.602 236.68 232.005 242.278C198.034 275.587 173.215 318.113 161.595 365.808L161.23 367.582C155.728 387.707 152.566 410.814 152.566 434.66C152.566 480.276 164.135 523.19 184.499 560.628L183.809 559.241C184.389 560.35 184.987 561.443 185.516 562.535C188.23 567.501 190.909 572.468 193.93 577.246V577.348C208.867 600.903 226.318 621.128 246.313 638.503L246.648 638.788L312.321 573.269C271.229 540.474 245.044 490.499 244.737 434.397V434.346L244.736 434.345Z" fill="black"/>
</svg>
