<svg width="1024" height="1024" viewBox="0 0 1024 1024" fill="none" xmlns="http://www.w3.org/2000/svg">
<path d="M782.399 163.199H241.599C219.199 163.199 201.599 171.199 185.599 185.599C171.199 199.999 163.199 219.199 163.199 241.599V783.999C163.199 806.399 171.199 823.999 185.599 839.999C199.999 854.399 219.199 862.399 241.599 862.399H783.999C806.399 862.399 823.999 854.399 839.999 839.999C854.399 825.599 862.399 806.399 862.399 783.999V241.599C862.399 219.199 854.399 201.599 839.999 185.599C822.399 171.199 804.799 163.199 782.399 163.199ZM367.999 751.999H271.999V415.999H367.999V751.999ZM558.399 751.999H463.999V271.999H558.399V751.999ZM751.999 751.999H655.999V559.999H751.999V751.999Z" fill="black"/>
</svg>
