<svg width="1024" height="1024" viewBox="0 0 1024 1024" fill="none" xmlns="http://www.w3.org/2000/svg">
<path d="M912 511.661C912 502.836 911.661 494.35 911.151 486.544C898.423 286.12 737.711 125.407 537.456 112.849C528.971 112.509 520.485 112.17 512 112L486.544 112.849C277.804 126.086 112 300.036 112 512C112 723.964 291.381 912 512 912C732.619 912 897.914 746.196 911.151 537.456C911.661 529.48 912 520.825 912 511.661ZM537.456 163.761C709.709 176.149 847.681 314.291 860.239 486.544H537.456V163.761ZM421.037 174.961L175.301 420.698C207.715 301.393 301.733 207.375 421.037 174.961ZM162.912 512C162.912 509.454 163.252 507.078 163.252 504.703L486.544 181.41V243.523L166.985 563.082C164.609 546.451 162.912 529.48 162.912 512.17V512ZM180.731 621.291L486.544 315.479V377.592L198.72 665.415C191.762 651.33 185.653 636.565 180.562 621.461L180.731 621.291ZM225.364 710.727L486.544 449.548V511.661L252.857 745.347C243.014 734.486 233.68 722.946 225.195 710.897L225.364 710.727ZM289.514 780.647L532.704 537.456H594.817L325.661 806.612C313.103 798.636 300.884 790.15 289.514 780.647ZM372.501 831.729L666.773 537.456H728.886L418.322 848.02C402.539 843.608 387.265 838.347 372.501 831.898V831.729ZM633.171 839.196L839.705 632.662C804.406 728.037 728.546 803.727 633.171 839.196ZM860.07 540.341L540.681 859.73C531.347 860.409 521.843 861.088 512.17 861.088C500.969 861.088 489.768 860.409 478.907 859.391L800.842 537.456H860.409C860.409 538.474 860.07 539.323 860.07 540.341Z" fill="black"/>
</svg>
