<svg width="1024" height="1024" viewBox="0 0 1024 1024" fill="none" xmlns="http://www.w3.org/2000/svg">
<path d="M495.119 191.143H472.196C273.53 191.143 112 352.826 112 551.339C112 749.852 273.53 911.535 472.196 911.535C670.861 911.535 832.392 750.004 832.392 551.339V528.416H495.119V191.143ZM472.196 865.842C298.898 865.842 157.846 724.789 157.846 551.492C157.846 378.194 286.673 249.673 449.273 237.906V574.415H785.782C774.015 737.168 637.852 865.842 472.196 865.842Z" fill="black"/>
<path d="M551.804 112.465H528.881V495.584H912V472.661C912 273.995 750.317 112.465 551.804 112.465ZM574.727 249.086L649.609 174.204C663.362 178.636 676.658 183.984 689.342 190.25L574.727 304.865V248.933V249.086ZM574.727 369.813L730.297 214.243C741.3 221.884 751.539 230.136 761.32 239L574.574 425.745V369.813H574.727ZM793.412 271.856C801.97 282.095 809.611 293.098 816.793 304.253L671.309 449.738H615.377L793.412 271.703V271.856ZM839.564 346.432C845.371 359.727 850.414 373.328 854.387 387.54L792.189 449.738H736.257L839.564 346.432ZM597.192 161.826L574.727 184.29V159.228C582.368 159.839 589.703 160.756 597.192 161.826ZM856.832 449.738L864.473 442.097C864.779 444.695 865.237 447.14 865.39 449.738H856.832Z" fill="black"/>
</svg>
