<svg width="1024" height="1024" viewBox="0 0 1024 1024" fill="none" xmlns="http://www.w3.org/2000/svg">
<path d="M340.31 854.698V940.031H540.332C515.418 897.862 500.698 847.106 500.698 792.913C500.698 753.171 508.613 715.279 522.954 680.725L522.241 682.666H124.587V167.765H896.172V516.266C929.302 528.526 957.913 545.216 983.025 565.986L982.53 565.588V83.1133H39.9375V767.998H426.668V854.355L340.31 854.698ZM1016.66 719.188L970.242 638.804C968.302 635.799 964.969 633.838 961.18 633.838C959.242 633.838 957.424 634.351 955.854 635.248L955.907 635.22L900.611 656.553C896.364 652.802 891.68 649.313 886.718 646.228L886.275 645.971C879.102 640.058 870.802 635.16 861.799 631.673L861.187 631.464L852.312 570.707C851.134 565.549 846.585 561.758 841.151 561.758C840.694 561.758 840.242 561.785 839.799 561.837L839.854 561.832H748.718C741.549 561.832 737.966 563.539 736.259 570.707L727.214 631.464C717.622 635.983 709.454 640.76 701.754 646.161L702.297 645.8C698.198 648.776 693.51 651.718 688.629 654.346L687.961 654.675L666.457 645.8L632.324 633.171C631 632.671 629.469 632.382 627.87 632.382C624.01 632.382 620.546 634.067 618.17 636.741L618.158 636.754L573.614 716.797C571.907 723.965 571.907 727.549 575.491 731.133L609.624 756.221L625.837 768.68C624.575 774.334 623.852 780.827 623.852 787.489C623.852 789.037 623.891 790.576 623.968 792.105L623.958 791.89V793.597C623.911 794.658 623.883 795.902 623.883 797.152C623.883 803.513 624.595 809.707 625.942 815.66L625.836 815.101L577.536 850.77C575.633 853.056 574.478 856.023 574.478 859.26C574.478 861.388 574.977 863.399 575.865 865.183L575.83 865.106L620.374 945.49C621.659 950.094 625.815 953.415 630.747 953.415C632.174 953.415 633.537 953.137 634.782 952.632L634.71 952.658L690.006 929.447C700.743 938.167 713.169 945.376 726.632 950.474L727.552 950.78L736.596 1013.42C737.698 1018.57 742.217 1022.38 747.624 1022.38C748.129 1022.38 748.626 1022.35 749.113 1022.28L749.056 1022.29H840.192C847.189 1022.29 850.773 1020.58 852.651 1013.41L861.526 950.779C875.865 944.672 888.218 937.526 899.562 929.098L899.073 929.446L954.54 952.657C961.537 954.364 966.999 952.657 968.705 945.489L1013.42 865.105C1015.13 857.937 1015.13 854.353 1011.54 850.769L961.538 816.636C962.751 810.443 963.445 803.323 963.445 796.04C963.445 795.121 963.435 794.204 963.413 793.29L963.416 793.426C963.486 792.204 963.526 790.774 963.526 789.335C963.526 783.219 962.801 777.272 961.433 771.576L961.538 772.093L1009.84 734.546C1018.37 728.061 1018.37 724.477 1016.66 719.186L1016.66 719.188ZM794.797 863.914C756.318 863.817 725.165 832.602 725.165 794.112C725.165 755.655 756.339 724.48 794.797 724.48C833.254 724.48 864.429 755.655 864.429 794.112V794.114C864.429 832.485 833.468 863.625 795.166 863.915H795.139L794.797 863.914Z" fill="black"/>
</svg>
