<!-- Generated by IcoMoon.io -->
<svg version="1.1" xmlns="http://www.w3.org/2000/svg" width="32" height="32" viewBox="0 0 32 32">
<path fill="currentColor" d="M1.973 17.013v9.766h28.053v-9.766zM25.038 19.247h2.962v1.818h-2.961zM25.038 22.727h2.962v1.818h-2.961zM4 19.247h19.065v1.818h-19.065v-1.818zM4 22.727h19.065v1.818h-19.065v-1.818zM21.247 5.792h-0.779v9.766h9.559v-9.766zM24.987 14.052c-0 0-0 0-0.001 0-1.75 0-3.169-1.419-3.169-3.169s1.419-3.169 3.169-3.169c1.75 0 3.169 1.419 3.169 3.169v0c0 0.007 0 0.015 0 0.022 0 1.738-1.409 3.147-3.147 3.147-0.008 0-0.015-0-0.023-0h0.001zM19.013 15.558v-9.766h-17.039v9.766zM6.080 10.156l2.805 1.143 3.377-2.857 2.182 0.623 1.92-1.87h1.299v1.299l-2.701 2.649-2.338-0.675-3.481 2.909-2.597-1.037-1.87 1.867h-1.35v-1.297l2.755-2.753zM24.987 8.649v2.182h2.182c0-0.016 0.001-0.034 0.001-0.052 0-1.176-0.954-2.13-2.13-2.13-0.018 0-0.037 0-0.055 0.001l0.003-0z"></path>
</svg>
