<!-- Generated by IcoMoon.io -->
<svg version="1.1" xmlns="http://www.w3.org/2000/svg" width="32" height="32" viewBox="0 0 32 32">
<path d="M1.205 16.767v10.302h29.59v-10.302zM25.535 19.124h3.123v1.92h-3.123zM25.535 22.795h3.123v1.92h-3.123zM3.342 19.124h20.11v1.92h-20.11v-1.92zM3.342 22.795h20.11v1.92h-20.11v-1.92zM21.534 4.931h-0.822v10.302h10.083v-10.302zM25.481 13.644c-1.846 0-3.343-1.497-3.343-3.343s1.497-3.343 3.343-3.343c1.846 0 3.343 1.497 3.343 3.343v0c0 0.006 0 0.014 0 0.021 0 1.834-1.487 3.322-3.322 3.322-0.008 0-0.016-0-0.024-0h0.001zM19.178 15.233v-10.302h-17.973v10.302zM5.533 9.534l2.959 1.205 3.561-3.014 2.302 0.658 2.027-1.973h1.37v1.37l-2.85 2.795-2.466-0.713-3.671 3.069-2.739-1.095-1.973 1.973h-1.424v-1.37l2.904-2.905zM25.48 7.947v2.302h2.301c0-0.017 0.001-0.036 0.001-0.056 0-1.241-1.006-2.247-2.247-2.247-0.019 0-0.039 0-0.058 0.001l0.003-0z"></path>
</svg>
