<svg width="1024" height="1024" viewBox="0 0 1024 1024" fill="none" xmlns="http://www.w3.org/2000/svg">
<g clip-path="url(#clip0_2_1034)">
<path d="M500.8 846.4C480 846.4 464 852.8 449.6 867.2C435.2 881.6 428.8 899.2 428.8 918.4C428.8 939.2 435.2 955.2 449.6 969.6C464 984 481.6 990.4 500.8 990.4C521.6 990.4 537.6 984 552 969.6C566.4 955.2 572.8 937.6 572.8 918.4C572.8 897.6 566.4 881.6 552 867.2C537.6 854.4 521.6 846.4 500.8 846.4ZM915.2 777.6C888 716.8 851.2 664 804.8 617.6C758.4 571.2 704 532.8 644.8 507.2C620.8 496 596.8 488 571.2 481.6C537.6 507.2 502.4 534.4 468.8 563.2C467.2 564.8 467.2 564.8 465.6 566.4C515.2 571.2 563.2 582.4 608 603.2C656 625.6 699.2 654.4 734.4 691.2C769.6 728 800 769.6 822.4 817.6C844.8 865.6 857.6 918.4 860.8 972.8H960C956.8 904 942.4 836.8 915.2 777.6ZM667.2 752C638.4 723.2 606.4 700.8 569.6 683.2C532.8 665.6 494.4 656 454.4 652.8H449.6V752C507.2 756.8 556.8 780.8 596.8 822.4C636.8 864 660.8 912 667.2 969.6H766.4C763.2 929.6 753.6 886.4 736 849.6C718.4 812.8 696 780.8 667.2 752ZM225.6 598.4C241.6 568 291.2 390.4 230.4 236.8C212.8 193.6 187.2 152 148.8 116.8C116.8 86.4 76.8 62.4 25.6 43.2C-17.6 27.2 -68.8 16 -128 11.2C-57.6 44.8 -6.4 84.8 19.2 107.2C19.2 107.2 73.6 147.2 115.2 222.4C152 288 180.8 382.4 180.8 382.4C200 443.2 212.8 510.4 219.2 552C224 580.8 225.6 598.4 225.6 598.4ZM507.2 465.6C550.4 432 592 401.6 630.4 382.4C758.4 315.2 878.4 380.8 870.4 356.8C856 304 737.6 241.6 737.6 241.6C686.4 182.4 628.8 168 592 160C524.8 147.2 456 161.6 422.4 169.6C328 44.8 142.4 16 68.8 9.6C49.6 8 38.4 8 38.4 8C97.6 27.2 145.6 52.8 180.8 81.6C200 96 216 112 228.8 128L259.2 126.4L240 144C244.8 152 251.2 158.4 254.4 166.4L305.6 158.4L268.8 196.8C272 206.4 273.6 214.4 276.8 224C350.4 508.8 204.8 681.6 204.8 681.6C217.6 676.8 232 670.4 244.8 664C307.2 630.4 379.2 571.2 449.6 513.6C468.8 496 488 481.6 507.2 465.6ZM624 225.6C638.4 225.6 667.2 236.8 689.6 256C691.2 257.6 676.8 260.8 660.8 259.2C649.6 259.2 633.6 254.4 620.8 241.6C609.6 230.4 612.8 225.6 624 225.6Z" fill="black"/>
</g>
<defs>
<clipPath id="clip0_2_1034">
<rect width="1024" height="1024" fill="white"/>
</clipPath>
</defs>
</svg>
