<svg width="1024" height="1024" viewBox="0 0 1024 1024" fill="none" xmlns="http://www.w3.org/2000/svg">
<path fill="currentColor" d="M489.556 912V867.556C489.556 850.987 502.987 837.556 519.556 837.556C536.124 837.556 549.556 850.987 549.556 867.556V912C549.556 928.569 536.124 942 519.556 942C502.987 942 489.556 928.569 489.556 912ZM246.787 742.343C258.503 730.627 277.497 730.627 289.213 742.343C300.929 754.058 300.929 773.053 289.213 784.769L257.658 816.324C245.942 828.04 226.947 828.04 215.231 816.324C203.516 804.608 203.516 785.613 215.231 773.897L246.787 742.343ZM717.898 742.343C729.614 730.627 748.609 730.627 760.324 742.343L791.88 773.897C803.596 785.613 803.596 804.609 791.88 816.324C780.164 828.04 761.169 828.04 749.453 816.324L717.898 784.769C706.183 773.053 706.183 754.058 717.898 742.343ZM667.333 512C667.333 472.807 651.764 435.219 624.051 407.505C596.337 379.791 558.749 364.223 519.556 364.223C480.363 364.223 442.774 379.791 415.061 407.505C387.347 435.219 371.778 472.807 371.778 512C371.778 551.193 387.347 588.781 415.061 616.495C442.774 644.209 480.363 659.777 519.556 659.777C558.749 659.777 596.337 644.209 624.051 616.495C651.764 588.781 667.333 551.193 667.333 512ZM904.444 497.111C921.013 497.111 934.444 510.543 934.444 527.111C934.444 543.68 921.013 557.111 904.444 557.111H860C843.432 557.111 830 543.68 830 527.111C830 510.543 843.432 497.111 860 497.111H904.444ZM179.111 482C195.68 482 209.111 495.431 209.111 512C209.111 528.569 195.68 542 179.111 542H119.556C102.987 542 89.5557 528.569 89.5557 512C89.5557 495.431 102.987 482 119.556 482H179.111ZM768.12 265.453C779.836 253.738 798.831 253.737 810.547 265.453C822.263 277.169 822.263 296.164 810.547 307.88L778.991 339.436C767.275 351.151 748.28 351.151 736.564 339.436C724.849 327.72 724.849 308.724 736.564 297.009L768.12 265.453ZM215.231 207.676C226.947 195.96 245.942 195.96 257.658 207.676L289.213 239.231C300.929 250.947 300.929 269.941 289.213 281.657C277.497 293.373 258.503 293.373 246.787 281.657L215.231 250.103C203.516 238.387 203.516 219.392 215.231 207.676ZM489.556 156.444V112C489.556 95.4315 502.987 82 519.556 82C536.124 82 549.556 95.4315 549.556 112V156.444C549.556 173.013 536.124 186.444 519.556 186.444C502.987 186.444 489.556 173.013 489.556 156.444ZM727.333 512C727.333 567.106 705.442 619.955 666.477 658.921C627.511 697.887 574.662 719.777 519.556 719.777C464.45 719.777 411.601 697.887 372.635 658.921C333.669 619.955 311.778 567.106 311.778 512C311.778 456.894 333.669 404.045 372.635 365.079C411.601 326.113 464.45 304.223 519.556 304.223C574.662 304.223 627.511 326.113 666.477 365.079C705.442 404.045 727.333 456.894 727.333 512Z" />
</svg>
