<svg width="1024" height="1024" viewBox="0 0 1024 1024" fill="none" xmlns="http://www.w3.org/2000/svg">
<path d="M514.518 121.896C670.707 122.248 803.863 220.663 855.684 358.837C923.507 363.461 977.09 419.943 977.09 488.94C977.09 542.671 944.596 588.811 898.187 608.784C893.048 610.672 887.876 612.517 882.671 614.32L882.196 614.455L881.755 614.618L880.901 614.931C859.457 622.307 837.463 628.958 814.974 634.891C836.903 590.287 849.219 540.103 849.219 487.043C849.219 301.787 699.085 151.596 513.85 151.503C512.373 151.503 510.895 151.503 509.418 151.503C324.183 151.596 174.049 301.787 174.049 487.043C174.049 540.103 186.365 590.287 208.294 634.891C185.805 628.958 163.81 622.307 142.367 614.931C141.933 614.772 141.501 614.614 141.072 614.455L140.597 614.32C135.392 612.517 130.22 610.672 125.081 608.784C78.672 588.811 46.1777 542.671 46.1777 488.94C46.1777 419.943 99.7608 363.461 167.584 358.837C219.405 220.663 352.561 122.249 508.75 121.897L514.518 121.896Z" fill="black"/>
<path fill-rule="evenodd" clip-rule="evenodd" d="M345.11 827.551C288.313 799.433 239.451 757.555 202.973 705.728L227.184 688.688C260.819 736.476 305.874 775.091 358.246 801.018L345.11 827.551Z" fill="black"/>
<path d="M479.433 901.45C469.252 901.45 459.092 901.635 448.911 901.409C422.021 900.815 401.17 879.841 400.619 853.086C400.089 826.865 420.899 804.333 447.646 803.411C468.987 802.673 554.555 802.632 575.896 803.431C602.623 804.436 623.392 827.213 622.658 853.353C621.903 880.21 601.113 900.876 574.101 901.43C563.94 901.635 489.593 901.471 479.413 901.471L479.433 901.45Z" fill="black"/>
<path fill-rule="evenodd" clip-rule="evenodd" d="M715.892 629.033C713.086 633.014 711.477 637.732 711.477 642.602V711.287C711.477 723.701 701.414 733.765 689 733.765H506.813C506.783 733.765 506.774 733.725 506.8 733.711C506.825 733.698 506.816 733.659 506.787 733.658C373.909 729.79 267.379 620.857 267.379 487.043C267.379 350.783 377.84 240.323 514.1 240.323C650.36 240.323 760.821 350.783 760.821 487.043C760.821 539.904 744.197 588.881 715.892 629.033ZM612.789 516.65C629.14 516.65 642.396 503.395 642.396 487.044C642.396 470.693 629.14 457.437 612.789 457.437C596.438 457.437 583.183 470.693 583.183 487.044C583.183 503.395 596.438 516.65 612.789 516.65ZM543.707 487.044C543.707 503.395 530.452 516.65 514.101 516.65C497.75 516.65 484.494 503.395 484.494 487.044C484.494 470.693 497.75 457.437 514.101 457.437C530.452 457.437 543.707 470.693 543.707 487.044ZM415.412 516.65C431.763 516.65 445.018 503.395 445.018 487.044C445.018 470.692 431.763 457.437 415.412 457.437C399.061 457.437 385.806 470.692 385.806 487.044C385.806 503.395 399.061 516.65 415.412 516.65Z" fill="black"/>
</svg>
