<!-- Generated by IcoMoon.io -->
<svg version="1.1" xmlns="http://www.w3.org/2000/svg" width="32" height="32" viewBox="0 0 32 32">
<path d="M16.125 2.125c-7.713-0.050-13.95 6.262-14 13.762-0.050 7.8 6.375 13.938 13.775 13.988 7.687 0.050 14.037-6.3 13.975-13.85 0.063-7.625-6.262-13.85-13.75-13.9zM11.775 24.125c-1.7 0.288-3.112-0.2-3.45-1.637-0.113-0.525-0.188-1.063-0.213-1.613-0.037-0.575 0.025-1.15-0.012-1.725-0.125-1.575-0.325-2.113-1.838-2.188v-1.963c0.112-0.025 0.213-0.050 0.325-0.063 0.825-0.037 1.175-0.3 1.362-1.113 0.088-0.463 0.137-0.925 0.15-1.387 0.063-0.9 0.037-1.825 0.188-2.713 0.213-1.287 1.012-1.912 2.325-1.975 0.375-0.025 0.75 0 1.175 0v1.762c-0.175 0.012-0.338 0.037-0.488 0.037-1.075-0.037-1.125 0.338-1.213 1.225-0.050 0.563 0.012 1.125-0.025 1.688-0.037 0.55-0.113 1.113-0.225 1.65-0.15 0.787-0.637 1.387-1.313 1.887 1.313 0.85 1.463 2.175 1.55 3.525 0.050 0.725 0.025 1.45 0.1 2.175 0.063 0.563 0.275 0.7 0.85 0.712 0.238 0.012 0.475 0 0.75 0v1.712zM13.262 16.063c-0.037 0.613-0.563 1.075-1.175 1.050-0.025 0-0.050 0-0.075 0-0.625-0.025-1.1-0.563-1.075-1.188s0.563-1.1 1.188-1.075c0.012 0 0.012 0 0.025 0 0.625 0.012 1.125 0.525 1.113 1.15 0 0.025 0 0.038 0 0.063zM16.075 17.113c-0.688 0-1.15-0.438-1.15-1.113 0-0.037 0-0.075 0-0.1 0.025-0.6 0.525-1.063 1.112-1.050 0.688 0 1.137 0.438 1.15 1.113 0 0.7-0.438 1.138-1.113 1.15zM19.988 17.113c-0.012 0-0.012 0 0 0-0.637 0-1.15-0.512-1.15-1.137 0.025-0.637 0.55-1.125 1.175-1.125s1.188 0.537 1.15 1.15c-0.038 0.65-0.613 1.2-1.175 1.113zM25.587 17.012c-0.962 0.063-1.4 0.45-1.5 1.413-0.063 0.613-0.063 1.238-0.1 1.85-0.012 0.675-0.075 1.35-0.188 2.025-0.25 1.212-1 1.813-2.25 1.887-0.4 0.025-0.813 0-1.238 0v-1.75c0.238-0.012 0.438-0.038 0.65-0.038 0.75-0.012 1.012-0.262 1.050-1 0.038-0.813 0.063-1.637 0.1-2.45 0.050-1.175 0.375-2.238 1.475-2.963-0.625-0.45-1.137-0.988-1.262-1.725-0.163-0.887-0.212-1.8-0.3-2.688-0.038-0.45-0.038-0.9-0.087-1.35-0.050-0.488-0.375-0.65-0.825-0.662-0.25 0-0.512 0-0.825 0v-1.713c2.063-0.338 3.488 0.35 3.625 2.313 0.050 0.825 0.050 1.662 0.1 2.487 0.025 0.45 0.087 0.9 0.2 1.338 0.188 0.675 0.538 0.925 1.25 0.95 0.113 0 0.238 0.025 0.4 0.037v1.962c-0.087 0.038-0.175 0.063-0.275 0.075z"></path>
</svg>
