<svg width="1024" height="1024" viewBox="0 0 1024 1024" fill="none" xmlns="http://www.w3.org/2000/svg">
<path d="M822.402 553.601L926.402 633.601L916.802 649.601L832.002 795.201L824.002 809.601L702.402 761.601C678.402 779.201 656.002 792.001 632.002 803.201L614.402 931.201C614.402 931.201 608.002 931.201 595.202 931.201H428.802C417.602 931.201 409.602 931.201 409.602 931.201L392.002 803.201C366.402 792.001 344.002 779.201 321.602 761.601L200.002 809.601L192.002 795.201L107.202 649.601L97.6016 633.601L201.602 553.601C200.002 537.601 200.002 524.801 200.002 512.001C200.002 499.201 200.002 486.401 201.602 470.401L97.6016 390.401L107.202 374.401L192.002 228.801L200.002 214.401L321.602 262.401C345.602 244.801 368.002 232.001 392.002 220.801L411.202 92.8008H616.002L633.602 220.801C659.202 232.001 681.602 244.801 704.002 262.401L825.602 214.401L928.002 390.401L824.002 470.401C827.202 486.401 827.202 499.201 827.202 512.001C827.202 524.801 825.602 537.601 822.402 553.601ZM409.602 616.001C438.402 644.801 472.002 659.201 512.002 659.201C552.002 659.201 585.602 644.801 614.402 616.001C643.202 587.201 657.602 552.001 657.602 512.001C657.602 472.001 643.202 436.801 614.402 408.001C585.602 379.201 552.002 364.801 512.002 364.801C472.002 364.801 438.402 379.201 409.602 408.001C380.802 436.801 366.402 472.001 366.402 512.001C366.402 552.001 380.802 587.201 409.602 616.001Z" fill="black"/>
</svg>
