<svg width="1024" height="1024" viewBox="0 0 1024 1024" fill="none" xmlns="http://www.w3.org/2000/svg">
<path d="M956.705 64.8535H67.293V959.146H955.101L956.705 64.8535ZM417.279 647.664V499.952H606.719V647.664H417.279ZM606.719 727.876V878.933H417.279V727.927L606.719 727.876ZM337.066 419.636H147.558V273.545H336.998L337.066 419.636ZM417.279 273.546H606.719V419.637H417.279V273.546ZM147.557 499.952H336.997V647.664H147.557V499.952ZM686.984 499.952H876.424V647.664H686.984V499.952ZM686.984 419.739V273.648H876.424V419.739H686.984ZM147.557 727.927H336.997V878.933H147.557V727.927ZM686.984 878.933V727.927H876.424V878.933H686.984Z" fill="black"/>
</svg>
