<svg width="1024" height="1024" viewBox="0 0 1024 1024" fill="none" xmlns="http://www.w3.org/2000/svg">
<path d="M699.5 21.5H324.5C303 21.5 285.5 39 285.5 60.5V963.6C285.5 985.1 303 1002.6 324.5 1002.6H699.5C721 1002.6 738.5 985.1 738.5 963.6V60.5C738.5 38.9 721.1 21.5 699.5 21.5ZM512 943.7C439.7 943.7 381.2 885.1 381.2 812.9C381.2 740.7 439.7 682 512 682C584.3 682 642.8 740.6 642.8 812.8C642.8 885 584.3 943.7 512 943.7ZM512 641.7C439.7 641.7 381.2 583.1 381.2 510.9C381.2 438.7 439.7 380 512 380C584.3 380 642.8 438.6 642.8 510.8C642.8 583 584.3 641.7 512 641.7ZM512 339.7C439.7 339.7 381.2 281.1 381.2 208.9C381.2 136.7 439.7 78 512 78C584.3 78 642.8 136.6 642.8 208.8C642.8 281 584.3 339.7 512 339.7ZM588 812.8C588 854.774 553.974 888.8 512 888.8C470.026 888.8 436 854.774 436 812.8C436 770.826 470.026 736.8 512 736.8C553.974 736.8 588 770.826 588 812.8Z" fill="black"/>
</svg>
