<svg width="1024" height="1024" viewBox="0 0 1024 1024" fill="none" xmlns="http://www.w3.org/2000/svg">
<path d="M452.801 635.199L350.401 535.999L286.401 599.999L392.001 702.399L452.801 763.199L513.601 700.799L713.601 499.199L648.001 436.799L452.801 635.199ZM876.801 148.799H627.201C617.601 124.799 603.201 105.599 582.401 89.5992C560.001 75.1992 539.201 67.1992 512.001 67.1992C486.401 67.1992 464.001 75.1992 443.201 89.5992C422.401 103.999 408.001 124.799 398.401 148.799H148.801V956.799H876.801V148.799ZM484.801 159.999C492.801 151.999 502.401 148.799 513.601 148.799C524.801 148.799 534.401 151.999 542.401 159.999C550.401 167.999 553.601 177.599 553.601 188.799C553.601 199.999 550.401 209.599 542.401 217.599C534.401 225.599 524.801 228.799 513.601 228.799C502.401 228.799 492.801 225.599 484.801 217.599C476.801 209.599 473.601 199.999 473.601 188.799C473.601 177.599 476.801 167.999 484.801 159.999ZM796.801 876.799H228.801V228.799H308.801V350.399H715.201V228.799H795.201V876.799H796.801Z" fill="black"/>
</svg>
