<svg width="1024" height="1024" viewBox="0 0 1024 1024" fill="none" xmlns="http://www.w3.org/2000/svg">
<path d="M627.201 170.138C617.658 146.067 602.266 126.043 582.735 111.178L582.401 110.934C562.802 96.975 538.386 88.597 512.015 88.543H512.001C486.145 88.608 462.261 96.995 442.872 111.167L443.205 110.935C422.993 125.717 407.5 145.851 398.695 169.26L398.405 170.139H148.805V978.143H876.801V170.139L627.201 170.138ZM332.101 245.453H457.507C457.507 245.043 457.405 244.685 457.405 244.275C457.389 243.77 457.379 243.175 457.379 242.579C457.379 211.531 482.548 186.361 513.597 186.361C544.646 186.361 569.815 211.53 569.815 242.579C569.815 243.176 569.806 243.77 569.787 244.362L569.789 244.276C569.789 244.686 569.704 245.044 569.704 245.454H691.884V325.463H332.102L332.101 245.453ZM530.672 722.143L469.863 784.539L409.072 723.73L303.463 621.33L367.463 557.33L469.863 656.539L665.072 458.139L730.676 520.535L530.672 722.143Z" fill="black"/>
</svg>
