<svg width="1024" height="1024" viewBox="0 0 1024 1024" fill="none" xmlns="http://www.w3.org/2000/svg">
<path d="M211.202 361.601L257.602 313.601L412.802 158.401L361.602 108.801L209.602 262.401L131.202 185.601L81.6016 235.201L163.202 315.201L211.202 361.601ZM516.802 198.401H928.002V272.001H516.802V198.401ZM211.202 633.601L257.602 585.601L412.802 428.801L361.602 379.201L209.602 534.401L131.202 456.001L81.6016 507.201L163.202 587.201L211.202 633.601ZM516.802 470.401H928.002V544.001H516.802V470.401ZM211.202 904.001L257.602 856.001L412.802 700.801L361.602 651.201L209.602 804.801L131.202 728.001L81.6016 779.201L163.202 857.601L211.202 904.001ZM516.802 740.801H928.002V814.401H516.802V740.801Z" fill="black"/>
</svg>
