<svg width="1024" height="1024" viewBox="0 0 1024 1024" fill="none" xmlns="http://www.w3.org/2000/svg">
<path d="M850.057 758.219C850.996 756.82 851.865 755.403 852.771 753.986C859.102 744.224 865.076 734.206 870.572 723.88C871.374 722.378 872.107 720.842 872.892 719.323C878.234 708.998 883.133 698.45 887.604 687.63C888.133 686.35 888.611 685.053 889.14 683.756C893.526 672.731 897.503 661.569 900.932 650.032C901.222 649.059 901.478 648.103 901.751 647.131C905.164 635.509 908.067 623.698 910.422 611.666C910.559 610.898 910.677 610.13 910.831 609.379C913.101 597.432 914.893 585.196 916.089 572.856C916.089 572.173 916.19 571.491 916.242 570.808C917.385 558.452 917.949 545.976 917.949 533.261C917.949 520.615 917.3 508.139 916.242 495.714C916.242 495.031 916.157 494.349 916.089 493.666C914.893 481.327 913.101 469.141 910.814 457.143C910.677 456.375 910.559 455.624 910.422 454.856C908.067 442.824 905.147 430.963 901.751 419.374C901.478 418.418 901.222 417.463 900.932 416.507C897.519 405.021 893.525 393.774 889.122 382.749C888.61 381.469 888.133 380.189 887.62 378.909C883.167 368.072 878.216 357.507 872.891 347.182C872.107 345.663 871.372 344.161 870.57 342.659C865.075 332.419 859.102 322.298 852.77 312.536C851.865 311.119 851.063 309.703 850.056 308.303C843.229 298.063 835.976 288.25 828.312 278.709C827.612 277.856 826.982 277.002 826.281 276.149C808.917 255.029 790.169 236.275 769.758 219.468L769.057 218.907C768.204 218.207 767.351 217.559 766.447 216.859C756.923 209.191 747.07 201.949 736.887 195.133C735.488 194.194 734.055 193.324 732.655 192.419C722.893 186.087 712.874 180.114 702.548 174.636C701.046 173.817 699.51 173.066 697.991 172.281C687.666 166.956 677.101 162.041 666.298 157.587C665.018 157.058 663.722 156.58 662.442 156.068C651.417 151.665 640.254 147.688 628.683 144.258L625.817 143.439C614.195 140.026 602.383 137.124 590.351 134.786L588.013 134.359C576.066 132.089 563.865 130.297 551.525 129.102C550.841 129.102 550.159 129 549.476 128.948C537.12 127.805 524.644 127.156 511.929 127.156C287.683 127.156 105.896 308.943 105.896 533.189C105.896 757.435 287.683 939.222 511.929 939.222C524.541 939.222 537 938.573 549.322 937.515L551.405 937.344C563.743 936.149 575.912 934.357 587.893 932.087L590.231 931.66C602.178 929.322 614.125 926.403 625.661 923.007L628.579 922.188C640.048 918.775 651.279 914.798 662.286 910.395C663.583 909.883 664.897 909.388 666.177 908.859C676.997 904.422 687.544 899.489 697.854 894.165C699.39 893.38 700.925 892.629 702.427 891.81C712.753 886.315 722.77 880.358 732.533 874.027C733.932 873.122 735.366 872.32 736.766 871.313C747.006 864.487 756.859 857.245 766.325 849.587C767.195 848.887 768.033 848.239 768.937 847.522C790.047 830.159 808.794 811.417 825.6 791.015L826.161 790.314C826.861 789.461 827.509 788.607 828.192 787.72C835.951 778.242 843.238 768.406 850.053 758.212L850.057 758.219ZM299.519 745.812C245.145 691.432 211.514 616.309 211.514 533.332C211.514 367.374 346.042 232.836 511.997 232.822H511.998V833.842C511.758 833.843 511.473 833.843 511.188 833.843C428.461 833.843 353.594 800.189 299.531 745.826L299.519 745.812Z" fill="black"/>
</svg>
