<svg width="1024" height="1024" viewBox="0 0 1024 1024" fill="none" xmlns="http://www.w3.org/2000/svg">
<path d="M755.201 841.6C576.001 841.6 499.201 841.6 316.801 841.6C382.401 596.8 446.401 360 510.401 121.6C572.801 121.6 532.801 121.6 595.201 121.6C684.801 121.6 676.801 184 668.801 214.4C656.001 267.2 643.201 318.4 628.801 374.4C745.601 374.4 756.801 374.4 876.801 374.4C971.201 374.4 958.401 443.2 950.401 475.2C928.001 563.2 904.001 649.6 880.001 736C868.801 771.2 867.201 841.6 755.201 841.6ZM252.801 841.6C193.601 841.6 136.001 841.6 68.8008 841.6C110.401 684.8 150.401 532.8 192.001 377.6C251.201 377.6 305.601 377.6 371.201 377.6C340.801 536 291.201 684.8 252.801 841.6Z" fill="black"/>
</svg>
