<svg width="1024" height="1024" viewBox="0 0 1024 1024" fill="none" xmlns="http://www.w3.org/2000/svg">
<path d="M755.201 182.4C576.001 182.4 499.201 182.4 316.801 182.4C382.401 427.2 446.401 664 510.401 902.4C572.801 902.4 532.801 902.4 595.201 902.4C684.801 902.4 676.801 840 668.801 809.6C656.001 756.8 643.201 705.6 628.801 649.6C745.601 649.6 756.801 649.6 876.801 649.6C971.201 649.6 958.401 580.8 950.401 548.8C928.001 460.8 904.001 374.4 880.001 288C868.801 252.8 867.201 182.4 755.201 182.4ZM252.801 182.4C193.601 182.4 136.001 182.4 68.8008 182.4C110.401 339.2 150.401 491.2 192.001 646.4C251.201 646.4 305.601 646.4 371.201 646.4C340.801 488 291.201 339.2 252.801 182.4Z" fill="black"/>
</svg>
