<svg width="1024" height="1024" viewBox="0 0 1024 1024" fill="none" xmlns="http://www.w3.org/2000/svg">
<path d="M949.522 917.266L822.259 790.004C842.006 765.269 853.576 733.753 853.576 699.843C853.576 619.655 788.349 554.428 708.161 554.428C627.974 554.428 562.747 620.652 562.747 700.84C562.747 781.027 627.974 846.254 708.161 846.254C736.287 846.254 762.816 838.076 784.958 823.914L914.813 953.77L949.522 917.466V917.266ZM612.215 700.64C612.215 647.78 655.301 604.695 708.161 604.695C761.021 604.695 804.107 647.78 804.107 700.64C804.107 753.5 761.021 796.586 708.161 796.586C655.301 796.586 612.215 752.702 612.215 700.64Z" fill="black"/>
<path d="M906.872 60.074C906.841 60.074 906.804 60.074 906.768 60.074C845.916 60.074 796.586 109.404 796.586 170.256C796.586 186.215 799.979 201.382 806.083 215.074L805.804 214.374L706.817 295.27C689.224 282.739 667.293 275.236 643.611 275.236C619.929 275.236 597.998 282.739 580.067 295.498L580.404 295.27L481.417 214.374C487.291 201.326 490.714 186.088 490.714 170.052C490.714 109.134 441.33 59.75 380.412 59.75C319.494 59.75 270.11 109.134 270.11 170.052C270.11 199.069 281.315 225.469 299.634 245.162L299.572 245.094L146.996 494.592C137.932 491.919 127.519 490.382 116.747 490.382C55.5744 490.382 5.98438 539.972 5.98438 601.145C5.98438 662.318 55.5744 711.908 116.747 711.908C177.92 711.908 227.51 662.318 227.51 601.145C227.51 572.032 216.278 545.542 197.911 525.773L197.975 525.842L350.568 276.43C359.567 279.106 369.907 280.646 380.606 280.646C404.238 280.646 426.116 273.134 443.981 260.368L443.65 260.593L542.637 341.489C536.808 354.492 533.412 369.671 533.412 385.643C533.412 446.552 582.788 495.928 643.697 495.928C704.606 495.928 753.982 446.552 753.982 385.643C753.982 369.671 750.587 354.492 744.478 340.788L744.757 341.489L843.744 260.593C861.368 273.074 883.308 280.544 906.993 280.544C967.873 280.544 1017.23 231.191 1017.23 170.31C1017.23 109.429 967.874 60.076 906.993 60.076C906.957 60.076 906.921 60.076 906.885 60.076H906.891L906.872 60.074ZM167.681 600.661C167.681 600.737 167.682 600.827 167.682 600.917C167.682 628.836 145.049 651.468 117.131 651.468C89.2134 651.468 66.5804 628.835 66.5804 600.917C66.5804 574.53 86.7974 552.866 112.585 550.567L112.779 550.553C114.23 550.416 115.629 550.109 117.131 550.109C145.011 550.206 167.586 572.781 167.682 600.651V600.66L167.681 600.661ZM392.961 219.153C390.613 219.767 387.835 220.233 384.99 220.456L384.82 220.467C383.369 220.604 381.953 220.911 380.468 220.911C380.443 220.911 380.413 220.911 380.383 220.911C352.464 220.911 329.832 198.278 329.832 170.36C329.832 142.442 352.465 119.809 380.383 119.809C408.302 119.809 430.934 142.442 430.934 170.36C430.934 171.23 430.712 172.067 430.678 172.886C429.508 195.205 413.989 213.596 393.227 219.075L392.876 219.154L392.961 219.153ZM694.256 385.502C694.261 385.778 694.265 386.104 694.265 386.431C694.265 414.35 671.632 436.982 643.714 436.982C615.796 436.982 593.163 414.349 593.163 386.431C593.163 386.104 593.166 385.779 593.172 385.453L593.171 385.502C593.171 384.649 593.376 383.795 593.427 382.976C594.771 356.246 616.771 335.081 643.714 335.081C670.657 335.081 692.657 356.245 693.996 382.856L694.001 382.976C693.967 383.829 694.172 384.649 694.172 385.502H694.256ZM906.958 220.911C902.494 220.874 898.191 220.253 894.099 219.122L894.448 219.204C873.283 213.676 857.722 195.246 856.582 173.007L856.577 172.885C856.577 172.032 856.321 171.178 856.321 170.359C856.321 142.44 878.954 119.808 906.872 119.808C934.79 119.808 957.423 142.441 957.423 170.359C957.423 198.278 934.79 220.91 906.872 220.91L906.958 220.911Z" fill="black"/>
</svg>
