<svg width="1024" height="1024" viewBox="0 0 1024 1024" fill="none" xmlns="http://www.w3.org/2000/svg">
<path d="M888.37 49.8027C830.343 49.8027 783.234 96.912 783.234 154.939C783.234 169.901 786.469 184.054 791.928 196.792L697.709 273.825C680.725 261.896 659.9 254.819 637.458 254.819C615.015 254.819 594.392 261.896 577.206 273.825L482.988 196.792C488.649 183.852 491.682 169.699 491.682 154.939C491.682 96.912 444.573 49.8027 386.545 49.8027C328.518 49.8027 281.409 96.912 281.409 154.939C281.409 182.437 292.124 207.508 309.512 226.311L164.141 463.879C155.043 461.251 145.54 459.835 135.633 459.835C77.6054 459.835 30.4961 506.945 30.4961 564.972C30.4961 622.999 77.6054 670.109 135.633 670.109C193.66 670.109 240.769 622.999 240.769 564.972C240.769 537.475 230.053 512.404 212.665 493.6L358.037 256.032C367.135 258.661 376.638 260.076 386.545 260.076C408.988 260.076 429.611 252.999 446.797 241.07L541.015 318.103C535.354 331.043 532.321 345.196 532.321 359.956C532.321 417.983 579.43 465.092 637.458 465.092C695.485 465.092 742.594 417.983 742.594 359.956C742.594 344.994 739.359 330.841 733.9 318.103L828.119 241.07C845.102 252.999 865.928 260.076 888.37 260.076C946.398 260.076 993.507 212.967 993.507 154.939C993.507 96.912 946.398 49.8027 888.37 49.8027ZM184.157 564.972C184.157 591.458 162.523 613.092 136.037 613.092C109.551 613.092 87.9168 591.458 87.9168 564.972C87.9168 539.901 107.327 519.278 131.993 517.256C133.409 517.256 134.622 516.852 136.239 516.852C156.256 516.852 173.644 529.185 180.72 546.775C182.944 552.437 184.359 558.502 184.359 564.972H184.157ZM398.676 201.442C396.25 202.049 393.622 202.453 390.993 202.655C389.578 202.655 388.163 203.06 386.747 203.06C366.731 203.06 349.343 190.726 342.267 173.136C340.042 167.475 338.627 161.409 338.627 154.939C338.627 128.453 360.261 106.819 386.747 106.819C413.234 106.819 434.868 128.453 434.868 154.939C434.868 155.748 434.665 156.557 434.665 157.366C433.654 178.797 418.693 196.387 398.676 201.442ZM685.78 359.956C685.78 386.442 664.146 408.076 637.66 408.076C611.174 408.076 589.54 386.442 589.54 359.956C589.54 359.147 589.742 358.338 589.742 357.529C590.753 336.3 605.715 318.508 625.731 313.453C629.572 312.442 633.616 311.835 637.66 311.835C641.704 311.835 645.747 312.442 649.589 313.453C669.605 318.508 684.567 336.3 685.578 357.529C685.578 358.338 685.78 359.147 685.78 359.956ZM888.37 203.06C884.326 203.06 880.283 202.453 876.441 201.442C856.425 196.387 841.463 178.595 840.452 157.366C840.452 156.557 840.25 155.748 840.25 154.939C840.25 128.453 861.884 106.819 888.37 106.819C914.857 106.819 936.49 128.453 936.49 154.939C936.49 181.426 914.857 203.06 888.37 203.06Z" fill="black"/>
<path d="M330.944 867.442H297.786V766.349H330.944V867.442ZM264.627 867.442H231.469V766.349H264.627V867.442ZM198.31 867.442H165.152V766.349H198.31V867.442ZM131.993 867.442H98.8349V766.349H131.993V867.442ZM65.8786 867.442H32.7201V766.349H65.8786V867.442Z" fill="black"/>
<path d="M330.944 918.393H32.7201V974.196H330.944V918.393Z" fill="black"/>
<path d="M662.124 867.442H628.966V766.349H662.124V867.442ZM596.01 867.442H562.851V766.349H596.01V867.442ZM529.693 867.442H496.534V766.349H529.693V867.442ZM463.376 867.442H430.217V766.349H463.376V867.442ZM397.059 867.442H363.9V766.349H397.059V867.442Z" fill="black"/>
<path d="M662.124 918.393H363.9V974.196H662.124V918.393Z" fill="black"/>
<path d="M993.507 867.442H960.348V766.349H993.507V867.442ZM927.19 867.442H894.031V766.349H927.19V867.442ZM861.075 867.442H827.917V766.349H861.075V867.442ZM794.758 867.442H761.6V766.349H794.758V867.442ZM728.441 867.442H695.283V766.349H728.441V867.442Z" fill="black"/>
<path d="M993.507 918.393H695.283V974.196H993.507V918.393Z" fill="black"/>
</svg>
