<svg width="1024" height="1024" viewBox="0 0 1024 1024" fill="none" xmlns="http://www.w3.org/2000/svg">
<g clip-path="url(#clip0_2_1076)">
<path d="M231.339 546.066V674.373L339.798 741.803L357.803 712.807L265.472 655.412V546.066H231.339ZM753.903 385.503C753.903 385.491 753.903 385.476 753.903 385.462C753.903 369.552 750.51 354.435 744.409 340.794L744.687 341.489L843.674 260.593C861.28 273.037 883.188 280.483 906.836 280.483C967.716 280.483 1017.07 231.13 1017.07 170.249C1017.07 109.368 967.717 60.015 906.836 60.015C845.956 60.015 796.602 109.368 796.602 170.249C796.602 186.211 799.995 201.381 806.099 215.077L805.82 214.376L706.833 295.272C689.24 282.741 667.309 275.238 643.627 275.238C619.945 275.238 598.014 282.741 580.083 295.5L580.42 295.272L481.433 214.376C487.307 201.328 490.73 186.09 490.73 170.054C490.73 109.136 441.346 59.752 380.428 59.752C319.51 59.752 270.126 109.136 270.126 170.054C270.126 199.071 281.331 225.471 299.65 245.164L299.588 245.096L197.29 412.349C87.2334 438.102 6.52344 535.401 6.52344 651.551C6.52344 787.054 116.37 896.901 251.873 896.901C387.376 896.901 497.223 787.054 497.223 651.551C497.223 522.665 397.843 416.991 271.532 406.977L270.676 406.922L350.531 276.379C359.53 279.055 369.87 280.595 380.569 280.595C404.201 280.595 426.079 273.083 443.944 260.317L443.613 260.542L542.6 341.438C536.808 354.401 533.435 369.531 533.435 385.448C533.435 446.338 582.796 495.699 643.686 495.699C704.574 495.699 753.934 446.341 753.937 385.454L753.903 385.503ZM906.871 119.809C934.79 119.809 957.422 142.442 957.422 170.36C957.422 198.278 934.789 220.911 906.871 220.911C902.407 220.874 898.104 220.253 894.012 219.122L894.361 219.204C873.232 213.644 857.709 195.225 856.58 173.006L856.575 172.885C856.575 172.032 856.319 171.178 856.319 170.359C856.358 142.456 878.967 119.846 906.867 119.808L906.871 119.809ZM437.538 651.213C437.538 651.218 437.538 651.224 437.538 651.23C437.538 753.659 354.503 836.693 252.075 836.693C149.647 836.693 66.6124 753.658 66.6124 651.23C66.6124 548.819 149.618 465.796 252.022 465.767H252.025C354.401 465.884 437.362 548.839 437.488 651.201V651.213H437.538ZM430.711 172.886C429.541 195.205 414.022 213.596 393.26 219.075L392.909 219.154C390.561 219.768 387.783 220.234 384.938 220.457L384.768 220.468C383.317 220.605 381.901 220.912 380.416 220.912C380.406 220.912 380.394 220.912 380.382 220.912C352.463 220.912 329.831 198.279 329.831 170.361C329.831 142.443 352.464 119.81 380.382 119.81C408.301 119.81 430.933 142.443 430.933 170.361C430.933 171.231 430.711 172.034 430.677 172.887L430.711 172.886ZM593.118 385.503C593.118 384.65 593.323 383.796 593.374 382.977C594.718 356.247 616.718 335.082 643.661 335.082C670.604 335.082 692.604 356.246 693.943 382.857L693.948 382.977C693.948 383.83 694.204 384.684 694.204 385.503C694.209 385.779 694.213 386.105 694.213 386.432C694.213 414.351 671.58 436.983 643.662 436.983C615.744 436.983 593.111 414.35 593.111 386.432C593.111 386.105 593.114 385.78 593.12 385.454L593.119 385.503H593.118ZM1016.64 740.472L970.189 660.088C968.267 657.087 964.951 655.127 961.177 655.127C959.238 655.127 957.42 655.644 955.853 656.549L955.905 656.522L900.524 677.958C896.287 674.121 891.619 670.587 886.654 667.482L886.24 667.24C879.087 661.412 870.815 656.583 861.854 653.146L861.238 652.938L852.295 592.215C851.144 587.021 846.578 583.194 841.118 583.194C840.648 583.194 840.185 583.222 839.73 583.277L839.785 583.272H748.683C741.532 583.272 737.965 584.979 736.173 592.215L727.247 652.938C717.594 657.509 709.398 662.274 701.644 667.632L702.244 667.24C698.1 670.371 693.418 673.334 688.498 675.902L687.942 676.166L666.506 667.24L632.577 654.73C631.22 654.204 629.65 653.899 628.009 653.899C624.138 653.899 620.664 655.594 618.287 658.283L618.275 658.297L573.612 738.698C571.905 745.832 571.905 749.416 575.404 752.983L609.281 777.986L625.358 790.496C624.152 796.147 623.462 802.639 623.462 809.293C623.462 810.851 623.5 812.401 623.575 813.941L623.567 813.724V815.431C623.521 816.491 623.494 817.735 623.494 818.985C623.494 825.324 624.173 831.504 625.463 837.456L625.359 836.884L577.197 872.673C575.316 874.966 574.175 877.931 574.175 881.161C574.175 883.268 574.66 885.262 575.525 887.037L575.49 886.957L620.153 967.341C621.399 971.94 625.535 975.267 630.449 975.267C631.887 975.267 633.258 974.982 634.509 974.466L634.438 974.492L689.819 951.264C700.559 960.009 712.982 967.249 726.443 972.39L727.366 972.7L736.292 1035.23C737.449 1040.42 742.011 1044.24 747.465 1044.24C747.936 1044.24 748.4 1044.21 748.856 1044.15L748.801 1044.16H839.903C847.054 1044.16 850.621 1042.45 852.413 1035.23L861.356 972.699C875.696 966.517 888.045 959.341 899.405 950.907L898.903 951.263L954.267 974.491C961.418 976.283 966.777 974.491 968.569 967.34L1013.22 886.956C1014.92 879.822 1014.92 876.238 1011.51 872.671L961.486 838.725C962.644 832.512 963.306 825.364 963.306 818.062C963.306 817.16 963.296 816.261 963.276 815.364L963.278 815.497C963.346 814.265 963.385 812.823 963.385 811.373C963.385 805.238 962.693 799.264 961.384 793.526L961.487 794.062L1009.72 756.515C1018.42 749.415 1018.42 745.831 1016.65 740.472H1016.64ZM795.119 885.18C756.661 885.122 725.501 853.956 725.453 815.501V815.496C726.067 777.483 757.026 746.903 795.128 746.903C833.23 746.903 864.189 777.483 864.802 815.438L864.803 815.496C864.754 853.961 833.585 885.131 795.125 885.179H795.12L795.119 885.18Z" fill="black"/>
</g>
<defs>
<clipPath id="clip0_2_1076">
<rect width="1024" height="1024" fill="white"/>
</clipPath>
</defs>
</svg>
