<svg width="1024" height="1024" viewBox="0 0 1024 1024" fill="none" xmlns="http://www.w3.org/2000/svg">
<path d="M694.402 192H329.602C153.602 192 9.60156 336 9.60156 512C9.60156 688 153.602 832 329.602 832H694.402C870.402 832 1014.4 688 1014.4 512C1014.4 336 870.402 192 694.402 192ZM502.402 675.2C457.602 720 403.202 742.4 339.202 742.4C275.202 742.4 220.802 720 176.002 675.2C131.202 630.4 108.802 576 108.802 512C108.802 448 131.202 393.6 176.002 348.8C220.802 304 275.202 281.6 339.202 281.6C403.202 281.6 457.602 304 502.402 348.8C547.202 393.6 569.602 448 569.602 512C571.202 576 548.802 630.4 502.402 675.2Z" fill="black"/>
</svg>
