<svg width="1024" height="1024" viewBox="0 0 1024 1024" fill="none" xmlns="http://www.w3.org/2000/svg">
<path d="M694.402 240C844.802 240 966.402 361.6 966.402 512C966.402 662.4 844.802 784 694.402 784H329.602C179.202 784 57.6016 662.4 57.6016 512C57.6016 361.6 179.202 240 329.602 240H694.402ZM694.402 192H329.602C153.602 192 9.60156 336 9.60156 512C9.60156 688 153.602 832 329.602 832H694.402C870.402 832 1014.4 688 1014.4 512C1014.4 336 870.402 192 694.402 192ZM521.602 348.8C566.402 304 620.802 281.6 684.802 281.6C748.802 281.6 803.202 304 848.002 348.8C892.802 393.6 915.202 448 915.202 512C915.202 576 892.802 630.4 848.002 675.2C803.202 720 748.802 742.4 684.802 742.4C620.802 742.4 566.402 720 521.602 675.2C476.802 630.4 454.402 576 454.402 512C452.802 448 475.202 393.6 521.602 348.8Z" fill="black"/>
</svg>
