<svg width="1024" height="1024" viewBox="0 0 1024 1024" fill="none" xmlns="http://www.w3.org/2000/svg">
<path fill-rule="evenodd" clip-rule="evenodd" d="M798 114C833.346 114 862 142.654 862 178V750C862 785.346 833.346 814 798 814H581.282L532.784 898C523.547 914 500.453 914 491.215 898L442.718 814H226C190.654 814 162 785.346 162 750V178C162 142.654 190.654 114 226 114H798ZM689.806 354.8L579.863 464L689.914 573.308C699.341 582.671 699.367 597.911 689.972 607.306L655.306 641.972C645.911 651.367 630.67 651.342 621.307 641.915L512 531.864L402.693 641.171C393.32 650.543 378.124 650.543 368.752 641.171L334.83 607.249C325.457 597.876 325.457 582.68 334.83 573.307L444.137 464L334.086 354.693C324.659 345.33 324.633 330.09 334.028 320.695L368.694 286.029C378.089 276.634 393.33 276.659 402.693 286.086L512 396.137L621.413 286.724C630.744 277.393 645.858 277.345 655.247 286.617L689.757 320.695C699.253 330.073 699.275 345.396 689.806 354.8Z" fill="black"/>
</svg>
