<svg width="1024" height="1024" viewBox="0 0 1024 1024" fill="none" xmlns="http://www.w3.org/2000/svg">
<path d="M826.523 764.62C817.43 760.898 806.881 758.71 795.828 758.647H795.803C748.791 758.705 710.688 796.771 710.572 843.764V843.775H648.739L580.694 775.508H443.29L375.245 843.775H313.498C313.499 843.658 313.499 843.519 313.499 843.381C313.499 796.573 275.554 758.628 228.746 758.628C217.474 758.628 206.715 760.829 196.877 764.824L197.444 764.62L188.091 740.607C145.311 730.412 107.803 712.368 75.3836 687.932L76.1506 688.486L148.258 873.216L148.531 873.114C160.749 905.991 191.815 929.011 228.271 929.11H410.674L478.719 860.843H545.279L613.324 929.11H795.733C831.564 929.031 862.194 906.85 874.72 875.481L874.923 874.906H875.077L947.815 688.436C916.168 712.319 878.665 730.363 837.946 740.141L835.892 740.557L826.523 764.62ZM164.694 680.567C192.203 691.731 224.112 698.21 257.535 698.21C397.318 698.21 510.634 584.894 510.634 445.111C510.634 305.328 397.318 192.012 257.535 192.012C117.752 192.012 4.43555 305.328 4.43555 445.111C4.43555 478.865 11.0435 511.076 23.0355 540.521L22.4255 538.828C48.6805 603.952 99.4455 654.544 162.998 679.968L164.694 680.567ZM197.531 445.559C197.594 422.885 210.363 403.209 229.09 393.269L229.411 393.113V310.22H284.844V393.113C303.893 403.209 316.662 422.885 316.725 445.55V445.559C316.725 446.737 316.435 447.812 316.384 448.972L389.225 491.024L361.509 539.05L287.747 496.383C279.045 501.847 268.465 505.088 257.129 505.088C245.793 505.088 235.214 501.847 226.268 496.241L226.511 496.383L152.732 539.05L125.016 491.024L197.874 448.972C197.806 447.811 197.533 446.736 197.533 445.559H197.531ZM766.875 192.87C627.839 193.171 515.245 305.951 515.245 445.029C515.245 584.293 628.141 697.189 767.405 697.189C906.483 697.189 1019.26 584.595 1019.56 445.588V445.559C1019.56 445.483 1019.56 445.393 1019.56 445.303C1019.56 305.888 906.546 192.87 767.131 192.87C767.041 192.87 766.951 192.87 766.861 192.87H766.875ZM707.278 445.559C707.278 445.03 707.432 444.552 707.432 444.023L634.762 402.056L662.478 354.133L734.516 395.707C743.637 389.664 754.835 386.065 766.874 386.065C778.913 386.065 790.111 389.664 799.452 395.844L799.232 395.707L871.253 354.133L898.986 402.142L826.316 444.109C826.316 444.621 826.47 445.116 826.47 445.645C826.41 468.324 813.641 488.007 794.911 497.952L794.59 498.108V582.827H739.157V498.023C720.106 487.922 707.337 468.239 707.276 445.568V445.56L707.278 445.559Z" fill="black"/>
</svg>
