<svg width="1024" height="1024" viewBox="0 0 1024 1024" fill="none" xmlns="http://www.w3.org/2000/svg">
<path d="M657.649 605.371H627.714V492.134L471.691 648.192L627.714 804.25V691.013H657.649C658.017 691.008 658.451 691.004 658.886 691.004C708.399 691.004 748.537 731.142 748.537 780.655C748.537 830.168 708.399 870.306 658.886 870.306C658.451 870.306 658.017 870.303 657.583 870.297L657.649 870.298H366.338C317.36 869.601 277.924 829.733 277.924 780.655C277.924 731.577 317.36 691.71 366.273 691.013L366.339 691.012H421.55V605.371H366.425C270.361 606.349 192.863 684.451 192.863 780.654C192.863 876.857 270.361 954.959 366.333 955.936L366.425 955.937H657.651C658.165 955.942 658.772 955.946 659.381 955.946C756.192 955.946 834.673 877.465 834.673 780.654C834.673 683.843 756.192 605.362 659.381 605.362C658.773 605.362 658.166 605.365 657.559 605.371L657.651 605.37L657.649 605.371ZM766.876 110.728C766.688 110.727 766.465 110.727 766.243 110.727C627.035 110.727 514.185 223.577 514.185 362.785C514.185 402.386 523.317 439.853 539.591 473.197L538.934 471.706L573.067 437.573C587.041 423.59 606.351 414.941 627.68 414.941C670.322 414.941 704.89 449.509 704.89 492.151C704.89 492.164 704.89 492.176 704.89 492.189V492.187V532.652C758.016 543.085 803.903 568.953 838.96 605.329L839.034 605.407C845.861 603.342 852.687 601.072 859.275 598.478C953.983 560.613 1019.67 469.636 1019.67 363.316C1019.67 223.816 906.585 110.729 767.085 110.729C767.012 110.729 766.938 110.729 766.865 110.729H766.877L766.876 110.728ZM826.319 361.864C826.319 362.393 826.473 362.888 826.473 363.417C826.414 386.092 813.644 405.77 794.914 415.707L794.593 415.863V500.718H739.16V415.88C720.109 405.779 707.34 386.096 707.279 363.425V363.417C707.279 362.888 707.433 362.393 707.433 361.864L634.763 319.999L662.479 271.973L734.517 313.564C743.635 307.511 754.834 303.905 766.875 303.905C778.916 303.905 790.115 307.51 799.452 313.7L799.233 313.564L871.254 271.973L898.987 319.999L826.319 361.864ZM421.549 528.213C429.989 528.222 438.105 529.595 445.693 532.124L445.153 531.968C460.395 515 473.535 495.68 483.878 474.732L484.543 473.242C500.382 441.165 509.648 403.406 509.648 363.483C509.648 224.04 396.607 110.999 257.164 110.999C117.721 110.999 4.67969 224.04 4.67969 363.483C4.67969 469.641 70.1957 560.496 162.999 597.823L164.697 598.426C171.319 601.02 178.111 603.307 184.989 605.372C230.832 557.776 295.112 528.214 366.296 528.214C366.311 528.214 366.327 528.214 366.342 528.214H366.34L421.549 528.213ZM287.746 414.293C279.045 419.762 268.466 423.007 257.128 423.007C245.79 423.007 235.211 419.762 226.268 414.151L226.511 414.293L152.732 456.96L125.016 408.883L197.874 366.814C197.874 365.671 197.533 364.578 197.533 363.401C197.593 340.722 210.362 321.039 229.092 311.094L229.413 310.938V228.079H284.846V310.955C303.897 321.056 316.666 340.739 316.727 363.41V363.418C316.727 364.579 316.437 365.671 316.386 366.831L389.227 408.9L361.511 456.909L287.746 414.293Z" fill="black"/>
</svg>
