<svg width="1024" height="1024" viewBox="0 0 1024 1024" fill="none" xmlns="http://www.w3.org/2000/svg">
<path d="M993.6 539.2C960 505.6 905.6 499.2 844.8 499.2C769.6 499.2 705.6 515.2 678.4 561.6C657.6 528 617.6 516.8 566.4 505.6V768C566.4 856 494.4 928 406.4 928C318.4 928 246.4 856 246.4 768C246.4 742.4 267.2 723.2 291.2 723.2C316.8 723.2 336 744 336 768C336 806.4 368 838.4 406.4 838.4C444.8 838.4 476.8 806.4 476.8 768V502.4C417.6 510.4 369.6 523.2 345.6 561.6C318.4 515.2 254.4 499.2 179.2 499.2C116.8 499.2 62.4004 505.6 30.4004 539.2C68.8004 323.2 251.2 156.8 476.8 142.4V140.8C476.8 115.2 497.6 96 521.6 96C547.2 96 566.4 116.8 566.4 140.8V144C784 168 956.8 329.6 993.6 539.2Z" fill="black"/>
</svg>
