<svg width="1024" height="1024" viewBox="0 0 1024 1024" fill="none" xmlns="http://www.w3.org/2000/svg">
<path fill-rule="evenodd" clip-rule="evenodd" d="M819.138 271.356L848.588 506.875H929.912C944.32 506.875 956 518.551 956 532.954C956 547.358 944.32 559.034 929.912 559.034H95.0882C80.6801 559.034 69 547.358 69 532.954C69 518.551 80.6801 506.875 95.0882 506.875H176.41L205.86 271.356C217.553 177.842 321.567 127.228 402.406 175.715L472.232 217.597C497.017 232.463 527.981 232.463 552.766 217.597L622.593 175.715C703.432 127.228 807.445 177.842 819.138 271.356ZM228.993 506.875L235.515 454.716H789.484L796.006 506.875H228.993Z" fill="black"/>
<path fill-rule="evenodd" clip-rule="evenodd" d="M460.324 736.603C460.324 808.619 401.923 867 329.882 867C257.842 867 199.441 808.619 199.441 736.603C199.441 727.672 200.339 718.95 202.05 710.524H147.265C132.857 710.524 121.176 698.848 121.176 684.444C121.176 670.041 132.857 658.365 147.265 658.365H225.52C249.318 626.693 287.207 606.206 329.882 606.206C380.817 606.206 424.933 635.39 446.411 677.943C467.808 670.353 487.55 665.523 508.673 665.161C530.82 664.782 552.85 669.324 578.495 678.129C599.938 635.475 644.109 606.206 695.118 606.206C737.793 606.206 775.682 626.693 799.48 658.365H877.735C892.143 658.365 903.824 670.041 903.824 684.444C903.824 698.848 892.143 710.524 877.735 710.524H822.95C824.661 718.95 825.559 727.672 825.559 736.603C825.559 808.619 767.158 867 695.118 867C623.077 867 564.677 808.619 564.677 736.603C564.677 733.929 564.757 731.274 564.916 728.639C540.928 720.135 524.412 717.058 509.566 717.313C495.067 717.561 480.444 720.993 460.074 728.474C460.24 731.163 460.324 733.873 460.324 736.603Z" fill="black"/>
</svg>
