<svg width="1024" height="1024" viewBox="0 0 1024 1024" fill="none" xmlns="http://www.w3.org/2000/svg">
<path d="M659.167 659.319H659.44L166.538 166.69C158.916 159.488 148.605 155.06 137.261 155.06C113.697 155.06 94.5938 174.163 94.5938 197.727C94.5938 209.063 99.0147 219.366 106.226 227.007L106.207 226.986L364.972 485.785L126.892 723.865C120.195 730.579 116.055 739.845 116.055 750.078C116.055 750.091 116.055 750.103 116.055 750.116V750.114V870.861C116.065 891.339 132.663 907.937 153.14 907.947H329.388V791.894H462.508V709.974H537.311L561.494 682.377L797.014 917.795C804.783 925.831 815.661 930.821 827.704 930.821C851.268 930.821 870.371 911.718 870.371 888.154C870.371 876.111 865.382 865.234 857.357 857.476L857.345 857.464L659.167 659.319ZM907.948 388.25C907.948 388.227 907.948 388.2 907.948 388.173C907.948 237.919 786.143 116.113 635.888 116.113C528.61 116.113 435.833 178.205 391.538 268.411L390.828 270.012L753.99 633.174C845.794 588.219 907.903 495.493 907.948 388.256V388.25ZM635.751 314.027C635.751 314.022 635.751 314.016 635.751 314.01C635.751 272.999 668.997 239.753 710.008 239.753C751.019 239.753 784.265 272.999 784.265 314.01C784.265 355.021 751.019 388.267 710.008 388.267C710.002 388.267 709.996 388.267 709.99 388.267C668.988 388.267 635.751 355.029 635.751 314.027Z" fill="black"/>
</svg>
