<svg width="1024" height="1024" viewBox="0 0 1024 1024" fill="none" xmlns="http://www.w3.org/2000/svg">
<path fill-rule="evenodd" clip-rule="evenodd" d="M670.003 821.1L524.103 967C517.403 973.7 506.603 973.7 500.003 967L354.003 821.1C343.203 810.3 350.903 792 366.103 792H657.903C673.103 792 680.703 810.4 670.003 821.1Z" fill="black"/>
<path fill-rule="evenodd" clip-rule="evenodd" d="M354.001 202.9L499.901 56.9996C506.601 50.2996 517.401 50.2996 524.001 56.9996L670.001 202.9C680.801 213.7 673.101 232 657.901 232H366.101C350.901 232 343.301 213.6 354.001 202.9Z" fill="black"/>
<path d="M928.301 672H95.7008C85.2008 672 76.8008 663.5 76.8008 653.1V370.9C76.8008 360.4 85.3008 352 95.7008 352H928.201C938.701 352 947.101 360.5 947.101 370.9V653C947.201 663.5 938.701 672 928.301 672Z" fill="black"/>
</svg>
