<svg width="1024" height="1024" viewBox="0 0 1024 1024" fill="none" xmlns="http://www.w3.org/2000/svg">
<path d="M720.059 367.497V250.147C720.084 248.979 720.098 247.603 720.098 246.223C720.098 190.179 696.898 139.553 659.578 103.426L659.524 103.374C622.296 65.0909 570.297 41.3379 512.751 41.3379C455.205 41.3379 403.206 65.0899 366.024 103.326L365.978 103.374C327.729 139.901 303.949 191.296 303.949 248.246C303.949 248.915 303.952 249.582 303.959 250.249L303.958 250.147V254.294H385.707V250.113C385.702 249.683 385.699 249.175 385.699 248.666C385.699 213.903 399.557 182.376 422.051 159.309L422.025 159.336C443.778 135.993 474.7 121.439 509.021 121.439C510.351 121.439 511.676 121.461 512.995 121.504L512.803 121.499C513.092 121.497 513.435 121.495 513.777 121.495C584.92 121.495 642.628 179.013 642.936 250.084V367.463H179.883V948.532H844.118V367.497H720.059ZM766.958 871.356H257.057V444.689H766.958V871.356Z" fill="black"/>
</svg>
