<svg width="1024" height="1024" viewBox="0 0 1024 1024" fill="none" xmlns="http://www.w3.org/2000/svg">
<path d="M785.254 75.7083C785.305 64.7733 786.352 54.1153 788.31 43.7803L788.138 44.8683C708.818 27.8593 617.688 18.1183 524.284 18.1183C519.965 18.1183 515.65 18.1393 511.341 18.1803L512 18.1753C508.233 18.1363 503.784 18.1133 499.328 18.1133C406.465 18.1133 315.876 27.8563 228.531 46.3753L237.022 44.8683C238.808 54.1153 239.855 64.7723 239.906 75.6653V75.7083C239.886 164.498 173.341 237.74 87.4045 248.304L86.5625 248.388C86.9725 372.565 101.154 476.399 172.988 631.876C300.698 908.219 512 1005.82 512 1005.82C512 1005.82 724.464 908.22 852.174 631.876C924.025 476.399 938.206 372.565 938.599 248.388C851.823 237.732 785.284 164.495 785.255 75.7103V75.7073L785.254 75.7083ZM727.979 621.943L673.143 676.778L512 515.635L350.857 676.778L296.023 621.943L457.165 460.8L296.023 299.657L350.857 244.822L512 405.965L673.143 244.822L727.979 299.657L566.836 460.8L727.979 621.943Z" fill="black"/>
</svg>
