<svg width="1083" height="1024" viewBox="0 0 1083 1024" fill="none" xmlns="http://www.w3.org/2000/svg">
<path d="M1057.67 206.333V44.3115C1057.67 34.8075 1049.76 27.0215 1040.38 27.0215H42.7119C33.2079 27.0215 25.4219 34.6935 25.4219 44.3115V979.801C25.4219 989.305 33.0939 997.091 42.7119 997.091H1040.49C1049.88 997.091 1057.78 989.419 1057.78 979.801V206.332H1057.67V206.333ZM451.487 100.991H955.758C968.124 100.991 978.201 111.182 978.201 123.434C978.201 135.686 968.125 145.762 955.758 145.762H451.487C439.121 145.762 429.159 135.8 429.159 123.434C429.159 111.068 439.121 100.991 451.487 100.991ZM317.175 112.784C318.778 108.776 321.183 105.341 324.16 102.364H324.275C324.504 102.135 324.733 102.02 324.848 101.791C327.596 99.1575 331.031 96.9825 334.695 95.3795C338.474 94.0055 342.596 93.0895 346.947 93.0895C351.413 93.0895 355.42 93.8915 359.199 95.3795C362.863 96.9825 366.184 99.1585 368.817 101.906C369.161 102.364 369.504 102.708 369.962 103.051C372.71 105.914 374.886 109.234 376.374 112.898C377.862 116.562 378.779 120.684 378.779 125.15C378.779 129.501 377.977 133.509 376.374 137.287C374.771 141.18 372.366 144.73 369.389 147.707C366.526 150.684 362.977 153.089 359.084 154.692C355.42 156.181 351.298 157.097 346.832 157.097C342.366 157.097 338.359 156.295 334.58 154.692C330.687 152.974 327.137 150.684 324.16 147.707H324.275L324.16 147.592C321.183 144.615 318.778 140.951 317.175 137.172C315.686 133.508 314.77 129.386 314.77 125.035C314.77 120.569 315.572 116.562 317.175 112.783V112.784ZM213.092 112.784C214.81 108.776 217.214 105.341 220.077 102.364H220.192C220.421 102.135 220.65 102.02 220.765 101.791C223.628 99.1575 226.948 96.9825 230.727 95.3795C234.391 94.0055 238.628 93.0895 242.979 93.0895C247.445 93.0895 251.452 93.8915 255.231 95.3795C258.895 96.9825 262.216 99.1585 264.964 101.906C265.308 102.364 265.766 102.708 266.109 103.051C268.743 105.914 270.918 109.234 272.521 112.898C274.124 116.562 274.926 120.684 274.926 125.15C274.926 129.501 274.124 133.509 272.521 137.287C270.803 141.18 268.513 144.73 265.536 147.707C262.559 150.684 259.009 153.089 255.116 154.692C251.337 156.181 247.215 157.097 242.864 157.097C238.398 157.097 234.276 156.295 230.612 154.692C226.604 152.974 223.169 150.684 220.192 147.707V147.592C217.1 144.615 214.696 140.951 213.093 137.172C211.604 133.508 210.688 129.386 210.688 125.035C210.688 120.569 211.604 116.562 213.093 112.783L213.092 112.784ZM109.352 112.784C110.955 108.891 113.36 105.456 116.337 102.364H116.452C116.681 102.135 116.796 102.02 116.91 101.791C119.773 99.1575 123.208 96.9825 126.872 95.3795C130.536 94.0055 134.658 93.0895 139.009 93.0895C143.36 93.0895 147.482 93.8915 151.261 95.3795C154.925 96.9825 158.246 99.1585 160.994 101.906C161.338 102.364 161.681 102.708 162.139 103.051C164.887 105.914 167.063 109.234 168.551 112.898C170.039 116.562 170.956 120.684 170.956 125.15C170.956 129.501 170.154 133.509 168.551 137.287C166.948 141.18 164.543 144.73 161.566 147.707C158.589 150.684 155.039 153.089 151.146 154.692C147.482 156.181 143.245 157.097 138.894 157.097C134.543 157.097 130.535 156.295 126.757 154.692C122.864 152.974 119.314 150.684 116.337 147.707H116.452L116.337 147.592C113.36 144.615 110.955 140.951 109.352 137.172C107.863 133.508 106.947 129.386 106.947 125.035C106.947 120.569 107.749 116.562 109.352 112.783V112.784ZM1022.97 962.396H60.1159V223.623H1022.97V962.396ZM542.059 355.531L267.824 828.773H815.377L542.059 355.531ZM566.219 753.429H515.952V703.161H566.219V753.429ZM515.952 654.956V554.538H566.219V654.956H515.952Z" fill="black"/>
</svg>
