<svg width="1024" height="1024" viewBox="0 0 1024 1024" fill="none" xmlns="http://www.w3.org/2000/svg">
<path d="M918.104 504.431L544.925 122.511C527.322 104.496 498.375 104.496 480.772 122.511L107.202 504.431C89.5993 522.446 89.5993 552.071 107.202 570.086L155.316 619.327C172.919 637.342 201.866 637.342 219.469 619.327L322.738 513.638V899.561C322.738 925.183 343.079 946 368.114 946H656.409C681.444 946 701.785 925.183 701.785 899.561V513.638L805.055 619.327C822.657 637.342 851.604 637.342 869.207 619.327L917.321 570.086C934.924 552.071 934.924 522.446 917.321 504.431H918.104Z" fill="black"/>
</svg>
