<svg width="1024" height="1024" viewBox="0 0 1024 1024" fill="none" xmlns="http://www.w3.org/2000/svg">
<path d="M441.082 914.691C488.069 930.131 539.106 929.795 585.916 913.682C617.44 902.831 647.046 884.825 672.207 859.665C697.359 834.513 715.361 804.918 726.213 773.406C742.333 726.598 742.677 675.561 727.243 628.572C716.518 595.917 698.172 565.217 672.207 539.251C647.053 514.098 617.457 496.095 585.944 485.243C539.136 469.124 488.098 468.782 441.11 484.216C408.456 494.942 377.758 513.287 351.793 539.251C325.828 565.216 307.483 595.916 296.757 628.57C281.323 675.559 281.667 726.596 297.786 773.405C308.638 804.917 326.641 834.512 351.793 859.665C377.75 885.622 408.439 903.964 441.082 914.691Z" fill="black"/>
<path d="M557.486 269.75V419.957C528.256 412.846 497.679 412.697 468.393 419.51L468.393 269.75L389.73 348.413L326.083 284.829L512.939 97.9727L699.796 284.829L636.149 348.413L557.486 269.75Z" fill="black"/>
</svg>
