<!-- Generated by IcoMoon.io -->
<svg version="1.1" xmlns="http://www.w3.org/2000/svg" width="32" height="32" viewBox="0 0 32 32">
<path d="M13.784 28.584c1.469 0.481 3.063 0.472 4.525-0.031 0.984-0.341 1.909-0.903 2.697-1.688 0.788-0.788 1.35-1.709 1.688-2.697 0.503-1.462 0.516-3.056 0.031-4.525-0.334-1.022-0.909-1.981-1.719-2.791-0.788-0.788-1.712-1.35-2.697-1.688-1.462-0.503-3.056-0.516-4.525-0.031-1.022 0.334-1.981 0.909-2.791 1.719-0.813 0.813-1.384 1.772-1.719 2.791-0.481 1.469-0.472 3.063 0.031 4.525 0.341 0.984 0.903 1.909 1.688 2.697 0.813 0.813 1.769 1.384 2.791 1.719z"></path>
<path d="M17.422 8.431v4.694c-0.913-0.222-1.869-0.228-2.784-0.012v-4.681l-2.459 2.459-1.988-1.988 5.841-5.841 5.841 5.841-1.988 1.988-2.459-2.459z"></path>
</svg>
