<svg width="1024" height="1024" viewBox="0 0 1024 1024" fill="none" xmlns="http://www.w3.org/2000/svg">
<path d="M755.198 201.6H268.798C249.598 201.6 231.998 208 219.198 222.4C206.398 235.2 198.398 252.8 198.398 272V758.4C198.398 777.6 204.798 795.2 219.198 808C231.998 820.8 249.598 828.8 268.798 828.8H755.198C774.398 828.8 791.998 822.4 804.798 808C817.598 795.2 825.598 777.6 825.598 758.4V270.4C825.598 251.2 819.198 233.6 804.798 220.8C790.398 208 774.398 201.6 755.198 201.6ZM438.398 336C459.198 315.2 483.198 305.6 511.998 305.6C540.798 305.6 566.398 315.2 585.598 336C606.398 356.8 615.998 380.8 615.998 409.6C615.998 438.4 606.398 464 585.598 483.2C564.798 504 540.798 513.6 511.998 513.6C483.198 513.6 457.598 504 438.398 483.2C417.598 462.4 407.998 438.4 407.998 409.6C407.998 380.8 417.598 355.2 438.398 336ZM719.998 723.2H303.998V688C303.998 665.6 316.798 646.4 342.398 628.8C367.998 611.2 396.798 598.4 427.198 592C459.198 584 486.398 580.8 511.998 580.8C537.598 580.8 564.798 584 596.798 592C628.798 600 657.598 612.8 681.598 628.8C707.198 646.4 719.998 665.6 719.998 688V723.2Z" fill="black"/>
</svg>
