<svg width="1024" height="1024" viewBox="0 0 1024 1024" fill="none" xmlns="http://www.w3.org/2000/svg">
<path d="M641.6 17.5996V129.6H748.8V894.4H641.6V1006.4H864V17.5996H641.6ZM160 1006.4H382.4V894.4H275.2V129.6H382.4V17.5996H160V1006.4ZM588.8 283.2C588.8 325.615 554.415 360 512 360C469.585 360 435.2 325.615 435.2 283.2C435.2 240.785 469.585 206.4 512 206.4C554.415 206.4 588.8 240.785 588.8 283.2ZM588.8 512C588.8 554.415 554.415 588.8 512 588.8C469.585 588.8 435.2 554.415 435.2 512C435.2 469.585 469.585 435.2 512 435.2C554.415 435.2 588.8 469.585 588.8 512ZM588.8 740.8C588.8 783.215 554.415 817.6 512 817.6C469.585 817.6 435.2 783.215 435.2 740.8C435.2 698.385 469.585 664 512 664C554.415 664 588.8 698.385 588.8 740.8Z" fill="black"/>
</svg>
