<svg width="1024" height="1024" viewBox="0 0 1024 1024" fill="none" xmlns="http://www.w3.org/2000/svg">
<path d="M193.571 109.09H687.463V60.3477H144.828V770.321H193.57L193.571 109.09ZM240.641 867.789H289.383V204.954H783.361V156.212H240.641V867.789ZM386.902 444.911V302.421H830.431V448.853C855.979 483.184 873.395 525 879.045 570.467L879.173 571.733V253.679H336.538V558.08H339.2C346.021 514.894 362.896 476.554 387.358 444.282L386.901 444.911H386.902ZM830.431 766.908V914.91H386.902V756.053L336.624 705.775V963.823H879.344V643.891C873.536 690.687 856.06 732.551 829.941 767.594L830.43 766.907L830.431 766.908ZM583.937 518.212V640.717L688.948 704.888L704.991 675.721L620.409 623.224V518.213L583.937 518.212ZM410.386 707.038L509.56 610.765H435.201C435.198 610.363 435.196 609.887 435.196 609.411C435.196 515.899 511.002 440.093 604.514 440.093C604.99 440.093 605.465 440.095 605.941 440.099H605.868C606.27 440.096 606.746 440.094 607.222 440.094C700.734 440.094 776.54 515.9 776.54 609.412C776.54 609.888 776.538 610.363 776.534 610.839V610.766C776.537 611.158 776.539 611.621 776.539 612.085C776.539 705.616 700.717 781.438 607.186 781.438C606.722 781.438 606.259 781.436 605.796 781.432H605.867C604.908 781.452 603.778 781.464 602.646 781.464C556.183 781.464 514.292 761.889 484.77 730.536L484.693 730.454L449.689 765.458C487.953 805.954 542.029 831.162 601.992 831.162C603.828 831.162 605.659 831.138 607.484 831.091L607.214 831.096C730.302 830.594 829.946 730.937 830.429 607.893V607.847C829.889 484.825 730.305 385.241 607.334 384.701H607.282C606.409 384.688 605.379 384.681 604.347 384.681C543.676 384.681 488.88 409.832 449.816 450.277L449.756 450.339C410.903 488.141 386.799 540.93 386.799 599.349C386.799 602.842 386.885 606.315 387.056 609.766L387.037 609.28H312.66L410.386 707.038Z" fill="black"/>
</svg>
