<!-- Generated by IcoMoon.io -->
<svg version="1.1" xmlns="http://www.w3.org/2000/svg" width="32" height="32" viewBox="0 0 32 32">
<path d="M29.685 16.383c-0.199-0.339-0.562-0.564-0.978-0.564-0.217 0-0.42 0.061-0.592 0.167l0.005-0.003-3.796 2.197-0.964 0.566v5.261l0.899 0.533c0.033 0 0.033 0.033 0.066 0.033l3.728 2.164c0.168 0.125 0.379 0.2 0.608 0.2 0.009 0 0.017-0 0.026-0l-0.001 0c0.003 0 0.006 0 0.010 0 0.62 0 1.123-0.503 1.123-1.123 0-0.003 0-0.007-0-0.010v0.001-4.462l0.033-4.395c0.001-0.016 0.002-0.034 0.002-0.053 0-0.193-0.063-0.371-0.169-0.516l0.002 0.002zM7.509 14.685c2.961 0 5.361-2.4 5.361-5.361s-2.4-5.361-5.361-5.361c-2.961 0-5.361 2.4-5.361 5.361v0c0 0.001 0 0.002 0 0.004 0 2.959 2.399 5.357 5.357 5.357 0.001 0 0.003 0 0.004 0h-0zM7.509 7.126c0 0 0 0 0.001 0 1.214 0 2.198 0.984 2.198 2.198s-0.984 2.198-2.198 2.198c-1.214 0-2.198-0.984-2.198-2.198 0-0 0-0 0-0.001v0c-0-0.013-0-0.029-0-0.044 0-1.189 0.964-2.154 2.154-2.154 0.016 0 0.031 0 0.046 0l-0.002-0zM21.094 14.987c-0.832 0.434-1.817 0.692-2.861 0.699h-0.002c-0.009 0-0.019 0-0.029 0-1.279 0-2.468-0.386-3.456-1.047l0.023 0.014h-3.796c-0.966 0.647-2.155 1.033-3.434 1.033-0.010 0-0.021-0-0.031-0h0.002c-0.017 0-0.038 0-0.059 0-1.027 0-1.993-0.259-2.837-0.715l0.032 0.016c-0.776 0.455-1.291 1.282-1.299 2.23v8.123c0.005 1.487 1.21 2.692 2.697 2.697h13.686c1.487-0.006 2.691-1.21 2.697-2.697v-8.125c-0.038-0.948-0.558-1.767-1.32-2.222l-0.012-0.007zM18.231 14.685c0 0 0 0 0.001 0 2.961 0 5.361-2.4 5.361-5.361s-2.4-5.361-5.361-5.361c-2.961 0-5.361 2.4-5.361 5.361v0c0 0.001 0 0.002 0 0.004 0 2.959 2.399 5.357 5.357 5.357 0.001 0 0.002 0 0.003 0h-0zM18.231 7.126c0 0 0 0 0.001 0 1.214 0 2.198 0.984 2.198 2.198s-0.984 2.198-2.198 2.198c-1.214 0-2.198-0.984-2.198-2.198 0-0 0-0 0-0.001v0c0-0 0-0.001 0-0.002 0-1.213 0.983-2.196 2.196-2.196 0.001 0 0.001 0 0.002 0h-0z"></path>
</svg>
