<svg width="1024" height="1024" viewBox="0 0 1024 1024" fill="none" xmlns="http://www.w3.org/2000/svg">
<g clip-path="url(#clip0_2_1141)">
<path d="M468.121 246.391C481.301 243.769 496.465 242.254 511.977 242.227H511.999C512.036 242.227 512.081 242.227 512.125 242.227C527.588 242.227 542.723 243.63 557.409 246.317L555.877 246.084V190.925H638.411L513.824 66.3379L385.585 190.925H468.119L468.121 246.391ZM555.877 747.639H468.12V833.075H385.586L510.173 957.662L638.412 833.075H555.878V747.639H555.877ZM1025.93 547.959L901.341 419.72V502.254H851.387C859.914 522.032 864.873 545.057 864.873 569.241C864.873 569.631 864.872 570.021 864.869 570.41V570.35C864.847 577.303 864.457 584.137 863.717 590.867L863.793 590.011H901.34V672.545L1025.93 547.959ZM163.839 502.255H122.657V419.721L-1.92969 544.308L122.657 672.547V590.013H163.839C160.83 576.679 159.102 561.363 159.094 545.645V545.64C159.149 530.241 160.875 515.275 164.099 500.874L163.839 502.257V502.255ZM697.019 445.44C679.584 358.225 603.633 293.426 512.546 293.426C512.354 293.426 512.161 293.426 511.969 293.427H511.999C511.679 293.425 511.3 293.424 510.921 293.424C475.004 293.424 441.551 303.969 413.488 322.133L414.19 321.707C384.924 340.168 361.392 365.236 345.261 394.911L344.745 395.947C268.965 404.587 210.614 468.25 210.413 545.584V545.605C210.423 628.905 277.948 696.43 361.247 696.44H687.58C757.069 696.074 813.302 639.841 813.668 570.387V570.352C813.675 569.856 813.68 569.27 813.68 568.684C813.68 536.071 800.651 506.501 779.514 484.895L779.535 484.917C758.761 462.364 729.796 447.632 697.391 445.462L697.018 445.442L697.019 445.44Z" fill="black"/>
</g>
<defs>
<clipPath id="clip0_2_1141">
<rect width="1024" height="1024" fill="white"/>
</clipPath>
</defs>
</svg>
