<svg width="1024" height="1024" viewBox="0 0 1024 1024" fill="none" xmlns="http://www.w3.org/2000/svg">
<path d="M936.959 496.095C903.98 460.263 857.979 436.858 806.512 433.424L805.921 433.392C778.26 294.845 657.618 191.897 512.932 191.897C512.604 191.897 512.276 191.898 511.948 191.899H511.999C511.524 191.896 510.963 191.895 510.401 191.895C453.331 191.895 400.173 208.645 355.574 237.496L356.692 236.819C310.155 266.133 272.731 305.955 247.073 353.105L246.254 354.749C185.495 360.719 132.399 389.457 94.8572 432.194L94.6332 432.454C56.3402 473.576 32.8352 528.914 32.8352 589.742C32.8352 590.707 32.8412 591.671 32.8532 592.634L32.8522 592.488C32.8342 593.565 32.8242 594.835 32.8242 596.108C32.8242 661.142 59.7172 719.894 102.988 761.852L103.047 761.909C145.059 805.239 203.809 832.132 268.841 832.132C270.11 832.132 271.377 832.122 272.642 832.101L272.451 832.103H790.919C901.29 831.487 990.597 742.179 991.213 631.867V631.808C991.225 631.02 991.231 630.091 991.231 629.159C991.231 577.346 970.52 530.371 936.925 496.06L936.957 496.093L936.959 496.095ZM310.885 713.61H267.945L178.482 490.719H232.105L289.944 646.589L347.817 490.719H400.28L310.885 713.61ZM608.511 567.86C608.511 619.06 568.677 645.633 519.048 645.633H482.065V712.022H433.374V490.719H523.827C576.614 490.719 608.546 522.019 608.546 567.229L608.511 567.86ZM750.164 715.811C749.625 715.82 748.989 715.826 748.352 715.826C686.661 715.826 636.651 665.816 636.651 604.125C636.651 603.382 636.658 602.64 636.673 601.9L636.671 602.011V601.38C636.66 600.785 636.653 600.083 636.653 599.379C636.653 537.254 687.015 486.893 749.139 486.893C750.171 486.893 751.201 486.906 752.226 486.935L752.075 486.932C753.779 486.841 755.774 486.789 757.781 486.789C789.716 486.789 818.587 499.906 839.302 521.046L839.321 521.065L808.328 556.786C793.961 541.88 774.017 532.435 751.865 531.82L751.752 531.818C716.1 532.545 687.477 561.617 687.477 597.375C687.477 598.562 687.509 599.742 687.571 600.914L687.564 600.75V601.381C687.493 602.523 687.453 603.858 687.453 605.203C687.453 641.004 716.07 670.12 751.677 670.927L751.752 670.928C774.769 670.708 795.426 660.786 809.862 645.062L809.915 645.004L840.908 676.304C820.03 700.612 789.259 715.913 754.915 715.913C753.244 715.913 751.582 715.877 749.929 715.805L750.165 715.813L750.164 715.811ZM519.679 534.666H482.132V602.318H520.703C521.996 602.491 523.49 602.589 525.007 602.589C543.759 602.589 558.993 587.528 559.273 568.842V568.167C559.205 546.373 544.015 534.665 519.678 534.665L519.679 534.666Z" fill="black"/>
</svg>
