<svg width="1024" height="1024" viewBox="0 0 1024 1024" fill="none" xmlns="http://www.w3.org/2000/svg">
<path d="M732.798 310.401H556.798V395.201H732.798C769.598 395.201 801.598 408.001 828.798 435.201C855.998 462.401 868.798 494.401 868.798 531.201C868.798 568.001 855.998 600.001 828.798 627.201C801.598 654.401 769.598 667.201 732.798 667.201H556.798V752.001H732.798C793.598 752.001 844.798 729.601 887.998 686.401C931.198 643.201 953.598 590.401 953.598 531.201C953.598 470.401 931.198 419.201 887.998 376.001C844.798 331.201 791.998 310.401 732.798 310.401ZM335.998 488.001H689.598V574.401H335.998V488.001ZM135.998 374.401C92.7984 417.601 70.3984 470.401 70.3984 529.601C70.3984 590.401 92.7984 641.601 135.998 684.801C179.198 728.001 231.998 750.401 291.198 750.401H467.198V665.601H291.198C252.798 665.601 220.798 652.801 193.598 625.601C167.998 598.401 153.598 566.401 153.598 529.601C153.598 492.801 166.398 460.801 193.598 433.601C219.198 406.401 252.798 393.601 291.198 393.601H467.198V308.801H291.198C231.998 310.401 179.198 331.201 135.998 374.401Z" fill="black"/>
</svg>
