<!-- Generated by IcoMoon.io -->
<svg version="1.1" xmlns="http://www.w3.org/2000/svg" width="32" height="32" viewBox="0 0 32 32">
<path d="M28.637 5.723c0.426-0.011 0.766-0.359 0.766-0.786s-0.341-0.775-0.765-0.786l-0.001-0h-11.85v-0.787c0-0.434-0.352-0.787-0.787-0.787s-0.787 0.352-0.787 0.787v0 0.787h-11.85c-0.426 0.011-0.766 0.359-0.766 0.786s0.341 0.775 0.765 0.786l0.001 0h0.787v14.262h-0.787c-0.426 0.011-0.766 0.359-0.766 0.786s0.341 0.775 0.765 0.786h11.001l-5.033 6.293h-1.195c-0.006-0-0.013-0-0.020-0-0.434 0-0.787 0.352-0.787 0.787s0.352 0.787 0.787 0.787c0.007 0 0.014-0 0.022-0h1.571c0 0 0 0 0 0 0.248 0 0.469-0.114 0.613-0.293l0.001-0.002 4.891-6.114v5.622c0 0.434 0.352 0.787 0.787 0.787s0.787-0.352 0.787-0.787v0-5.623l4.891 6.114c0.145 0.18 0.366 0.295 0.614 0.295 0 0 0 0 0 0h1.573c0.006 0 0.013 0 0.020 0 0.434 0 0.787-0.352 0.787-0.787s-0.352-0.787-0.787-0.787c-0.007 0-0.014 0-0.021 0h-1.193l-5.033-6.293h11c0.426-0.011 0.766-0.359 0.766-0.786s-0.341-0.775-0.765-0.786h-0.788v-14.261zM13.641 9.891c0-0.434 0.352-0.787 0.787-0.787 0.163 0 0.314 0.049 0.439 0.134l-0.003-0.002 4.719 3.147c0.213 0.143 0.351 0.383 0.351 0.654s-0.138 0.511-0.348 0.653l-0.003 0.002-4.719 3.147c-0.123 0.083-0.274 0.132-0.436 0.132-0.434 0-0.787-0.352-0.787-0.786v0z"></path>
</svg>
