<svg width="1024" height="1024" viewBox="0 0 1024 1024" fill="none" xmlns="http://www.w3.org/2000/svg">
<path d="M914.95 185.104C928.793 185.104 940 173.908 940 160.078C940 146.248 928.793 135.052 914.95 135.052H537.05V110.026C537.05 96.1958 525.844 85 512 85C498.156 85 486.95 96.1958 486.95 110.026V135.052H109.05C95.2068 135.052 84 146.248 84 160.078C84 173.908 95.2068 185.104 109.05 185.104H134.101V639.523H109.05C95.2068 639.523 84 650.719 84 664.549C84 678.38 95.2068 689.575 109.05 689.575H459.757L299.236 889.948H261.166C247.322 889.948 236.116 901.144 236.116 914.974C236.116 928.804 247.322 940 261.166 940H311.267C318.848 940 326.099 936.542 330.879 930.615L486.785 735.841V914.974C486.785 928.804 497.992 940 511.835 940C525.679 940 536.886 928.804 536.886 914.974V735.841L692.792 930.615C697.571 936.542 704.823 940 712.404 940H762.504C776.348 940 787.555 928.804 787.555 914.974C787.555 901.144 776.348 889.948 762.504 889.948H724.434L563.914 689.575H914.62C928.464 689.575 939.67 678.38 939.67 664.549C939.67 650.719 928.464 639.523 914.62 639.523H889.569V185.104H914.62H914.95ZM436.684 317.808C436.684 308.588 441.793 300.026 449.868 295.745C457.944 291.464 467.997 291.794 475.578 297.062L626.045 397.331C632.967 401.941 637.252 409.844 637.252 418.241C637.252 426.638 633.132 434.376 626.045 439.151L475.578 539.419C467.832 544.523 457.944 545.017 449.868 540.737C441.793 536.456 436.684 527.894 436.684 518.674V318.302V317.808Z" fill="black"/>
</svg>
