<!-- Generated by IcoMoon.io -->
<svg version="1.1" xmlns="http://www.w3.org/2000/svg" width="32" height="32" viewBox="0 0 32 32">
<path d="M30.179 8.83c-0.349-1.284-1.336-2.276-2.59-2.627l-0.026-0.006c-2.308-0.622-11.563-0.622-11.563-0.622s-9.254 0-11.563 0.622c-1.281 0.357-2.267 1.35-2.61 2.607l-0.006 0.026c-0.618 2.323-0.618 7.17-0.618 7.17s0 4.846 0.618 7.17c0.349 1.284 1.336 2.276 2.59 2.627l0.026 0.006c2.308 0.622 11.563 0.622 11.563 0.622s9.254 0 11.563-0.622c1.281-0.358 2.267-1.35 2.61-2.607l0.006-0.026c0.618-2.323 0.618-7.17 0.618-7.17s0-4.846-0.618-7.17zM12.973 20.401v-8.8l7.735 4.399z"></path>
</svg>
