<svg width="1024" height="1024" viewBox="0 0 1024 1024" fill="none" xmlns="http://www.w3.org/2000/svg">
<path d="M94.3992 576.001C172.799 576.001 236.799 640.001 236.799 718.401V838.401C267.199 864.001 299.199 884.801 334.399 900.801V822.401C334.399 809.601 345.599 798.401 358.399 798.401C371.199 798.401 382.399 809.601 382.399 822.401V918.401C415.999 928.001 451.199 934.401 487.999 936.001V836.801C487.999 824.001 499.199 812.801 511.999 812.801C524.799 812.801 535.999 824.001 535.999 836.801V936.001C572.799 934.401 607.999 928.001 641.599 918.401V822.401C641.599 809.601 652.799 798.401 665.599 798.401C678.399 798.401 689.599 809.601 689.599 822.401V900.801C724.799 884.801 756.799 864.001 787.199 838.401V718.401C787.199 640.001 851.199 576.001 929.599 576.001C931.199 576.001 932.799 576.001 934.399 576.001C937.599 555.201 939.199 534.401 939.199 512.001C939.199 393.601 897.599 292.801 814.399 209.601C731.199 126.401 630.399 84.8008 511.999 84.8008C393.599 84.8008 292.799 126.401 209.599 209.601C124.799 294.401 83.1992 393.601 83.1992 512.001C83.1992 534.401 84.7992 555.201 87.9992 576.001C89.5992 576.001 92.7992 576.001 94.3992 576.001ZM689.599 324.801C747.199 324.801 793.599 371.201 793.599 428.801C793.599 486.401 747.199 532.801 689.599 532.801C631.999 532.801 585.599 486.401 585.599 428.801C585.599 371.201 633.599 324.801 689.599 324.801ZM345.599 324.801C403.199 324.801 449.599 371.201 449.599 428.801C449.599 486.401 403.199 532.801 345.599 532.801C287.999 532.801 241.599 486.401 241.599 428.801C241.599 371.201 289.599 324.801 345.599 324.801Z" fill="black"/>
</svg>
