<?xml version="1.0" encoding="utf-8"?>
<!-- Generator: Adobe Illustrator 19.2.1, SVG Export Plug-In . SVG Version: 6.00 Build 0)  -->
<svg version="1.1" id="Layer_1" xmlns="http://www.w3.org/2000/svg" xmlns:xlink="http://www.w3.org/1999/xlink" x="0px" y="0px"
	 viewBox="0 0 210.3 93" style="enable-background:new 0 0 210.3 93;" xml:space="preserve">
<style type="text/css">
	.st0{fill:#F05423;}
	.st1{fill:#333333;}
	.st2{fill-rule:evenodd;clip-rule:evenodd;fill:#F05423;}
</style>
<g>
	<g>
		<path class="st0" d="M39.8,51.5c0,2.7-1,4.8-2.9,6.4s-4.7,2.3-8.1,2.3c-3.2,0-6-0.6-8.5-1.8v-5.9c2,0.9,3.7,1.5,5.1,1.9
			S28,55,29.2,55c1.4,0,2.5-0.3,3.2-0.8c0.7-0.5,1.1-1.3,1.1-2.4c0-0.6-0.2-1.1-0.5-1.6c-0.3-0.5-0.8-0.9-1.4-1.3
			c-0.6-0.4-1.9-1.1-3.9-2c-1.8-0.9-3.2-1.7-4.1-2.5s-1.6-1.7-2.2-2.8s-0.8-2.3-0.8-3.7c0-2.7,0.9-4.7,2.7-6.3s4.3-2.3,7.5-2.3
			c1.6,0,3,0.2,4.5,0.6s2.9,0.9,4.4,1.6l-2.1,4.9c-1.6-0.7-2.9-1.1-4-1.4s-2.1-0.4-3.1-0.4c-1.2,0-2.1,0.3-2.8,0.8s-1,1.3-1,2.2
			c0,0.6,0.1,1,0.4,1.5s0.7,0.8,1.2,1.2s1.9,1.1,4,2.1c2.8,1.3,4.7,2.7,5.8,4S39.8,49.6,39.8,51.5z"/>
		<path class="st0" d="M56.2,60.3c-2.7,0-4.8-1-6.3-2.9h-0.3c0.2,1.9,0.3,3,0.3,3.3V70h-6.3v-33h5.1l0.9,3h0.3
			c1.5-2.3,3.6-3.4,6.5-3.4c2.7,0,4.8,1,6.4,3.1c1.5,2.1,2.3,5,2.3,8.7c0,2.4-0.4,4.6-1.1,6.4c-0.7,1.8-1.7,3.2-3.1,4.1
			S58,60.3,56.2,60.3z M54.4,41.5c-1.5,0-2.7,0.5-3.4,1.4s-1.1,2.5-1.1,4.7v0.7c0,2.5,0.4,4.2,1.1,5.3s1.9,1.6,3.5,1.6
			c2.8,0,4.2-2.3,4.2-6.9c0-2.3-0.3-3.9-1-5.1S55.9,41.5,54.4,41.5z"/>
		<path class="st0" d="M83.7,59.9l-1.2-3.1h-0.2c-1.1,1.3-2.1,2.2-3.3,2.8s-2.6,0.8-4.4,0.8c-2.2,0-3.9-0.6-5.2-1.9s-1.9-3-1.9-5.4
			c0-2.4,0.9-4.2,2.6-5.4s4.3-1.8,7.7-1.9l4-0.1v-1c0-2.3-1.2-3.5-3.6-3.5c-1.8,0-4,0.6-6.5,1.7l-2.1-4.2c2.6-1.4,5.6-2.1,8.8-2.1
			c3.1,0,5.4,0.7,7.1,2s2.5,3.4,2.5,6.1v15.3H83.7z M81.9,49.2l-2.4,0.1c-1.8,0.1-3.2,0.4-4.1,1s-1.3,1.5-1.3,2.7c0,1.8,1,2.6,3,2.6
			c1.4,0,2.6-0.4,3.5-1.3s1.3-1.9,1.3-3.3V49.2z"/>
		<path class="st0" d="M106.3,36.5c0.8,0,1.6,0.1,2.1,0.2l-0.5,5.9c-0.5-0.1-1.1-0.2-1.8-0.2c-2,0-3.6,0.5-4.7,1.5s-1.7,2.5-1.7,4.3
			v11.7h-6.3V36.9h4.7l0.9,3.9h0.3c0.7-1.3,1.7-2.3,2.9-3.1S104.9,36.5,106.3,36.5z"/>
		<path class="st0" d="M117.5,47.4l2.7-3.5l6.4-7h7.1l-9.1,9.9l9.7,13h-7.2l-6.6-9.3l-2.7,2.2v7.1h-6.3V28h6.3v14.2L117.5,47.4
			L117.5,47.4z"/>
		<path class="st0" d="M142.8,59.9h-6.3V28h6.3V59.9z"/>
		<path class="st0" d="M148,31c0-2,1.1-3.1,3.4-3.1s3.4,1,3.4,3.1c0,1-0.3,1.7-0.9,2.3c-0.6,0.5-1.4,0.8-2.6,0.8
			C149.1,34.1,148,33.1,148,31z M154.5,59.9h-6.3V36.9h6.3V59.9z"/>
		<path class="st0" d="M181.2,59.9H175V46.5c0-1.7-0.3-2.9-0.9-3.7s-1.5-1.2-2.8-1.2c-1.8,0-3,0.6-3.8,1.8s-1.2,3.1-1.2,5.8v10.8
			H160V36.9h4.8l0.8,2.9h0.3c0.7-1.1,1.7-1.9,2.9-2.5c1.2-0.6,2.6-0.9,4.2-0.9c2.7,0,4.7,0.7,6.1,2.2s2.1,3.5,2.1,6.2V59.9z"/>
		<path class="st0" d="M206.5,36.9v3.2L203,41c0.7,1,1,2.2,1,3.4c0,2.5-0.9,4.4-2.6,5.8s-4.1,2.1-7.1,2.1l-1.1-0.1l-0.9-0.1
			c-0.6,0.5-1,1-1,1.6c0,0.9,1.1,1.4,3.4,1.4h3.9c2.5,0,4.4,0.5,5.8,1.6c1.3,1.1,2,2.7,2,4.8c0,2.7-1.1,4.8-3.4,6.2
			c-2.2,1.5-5.4,2.2-9.6,2.2c-3.2,0-5.6-0.6-7.3-1.7c-1.7-1.1-2.5-2.7-2.5-4.7c0-1.4,0.4-2.5,1.3-3.5s2.1-1.6,3.8-2
			c-0.6-0.3-1.2-0.7-1.7-1.3s-0.7-1.3-0.7-2c0-0.9,0.3-1.6,0.8-2.2s1.2-1.2,2.2-1.7c-1.2-0.5-2.2-1.4-2.9-2.5
			c-0.7-1.1-1.1-2.5-1.1-4.1c0-2.5,0.8-4.4,2.4-5.8s4-2.1,7-2.1c0.6,0,1.4,0.1,2.3,0.2c0.9,0.1,1.4,0.2,1.7,0.3H206.5z M188.9,63.1
			c0,0.9,0.4,1.5,1.2,2s2,0.7,3.5,0.7c2.2,0,4-0.3,5.3-0.9s1.9-1.5,1.9-2.5c0-0.9-0.4-1.5-1.1-1.8s-1.9-0.5-3.5-0.5h-3.2
			c-1.1,0-2.1,0.3-2.9,0.8S188.9,62.2,188.9,63.1z M191.1,44.4c0,1.2,0.3,2.2,0.9,3s1.4,1.1,2.6,1.1c1.2,0,2-0.4,2.6-1.1
			s0.8-1.7,0.8-3c0-2.8-1.1-4.1-3.4-4.1C192.3,40.3,191.1,41.7,191.1,44.4z"/>
	</g>
	<g>
		<path class="st1" d="M91.1,89.9h-6.2V65.5h6.2v1.9h-4v20.5h4V89.9z"/>
		<path class="st1" d="M99.2,85.4H97V64.2h2.3V85.4z"/>
		<path class="st1" d="M119.8,77.9c0,2.4-0.6,4.3-1.8,5.7s-2.9,2.1-5.1,2.1c-1.3,0-2.5-0.3-3.6-0.9s-1.8-1.5-2.4-2.7
			c-0.6-1.2-0.8-2.6-0.8-4.1c0-2.4,0.6-4.3,1.8-5.7c1.2-1.4,2.9-2,5.1-2c2.1,0,3.8,0.7,5,2.1C119.2,73.7,119.8,75.6,119.8,77.9z
			 M108.4,77.9c0,1.9,0.4,3.4,1.1,4.4s1.9,1.5,3.4,1.5c1.5,0,2.6-0.5,3.4-1.5c0.8-1,1.2-2.5,1.2-4.4c0-1.9-0.4-3.4-1.2-4.3
			c-0.8-1-1.9-1.5-3.4-1.5c-1.5,0-2.6,0.5-3.4,1.5C108.7,74.6,108.4,76,108.4,77.9z"/>
		<path class="st1" d="M138.8,70.5v1.4l-2.8,0.3c0.3,0.3,0.5,0.7,0.7,1.3c0.2,0.5,0.3,1.1,0.3,1.7c0,1.5-0.5,2.6-1.5,3.5
			c-1,0.9-2.4,1.3-4.1,1.3c-0.4,0-0.9,0-1.3-0.1c-1,0.5-1.4,1.2-1.4,1.9c0,0.4,0.2,0.7,0.5,0.9c0.3,0.2,0.9,0.3,1.7,0.3h2.7
			c1.6,0,2.9,0.3,3.7,1c0.9,0.7,1.3,1.7,1.3,3c0,1.7-0.7,2.9-2,3.8c-1.3,0.9-3.3,1.3-5.8,1.3c-2,0-3.5-0.4-4.5-1.1
			c-1.1-0.7-1.6-1.8-1.6-3.1c0-0.9,0.3-1.7,0.9-2.4c0.6-0.7,1.4-1.1,2.5-1.4c-0.4-0.2-0.7-0.4-1-0.8s-0.4-0.8-0.4-1.3
			c0-0.5,0.1-1,0.4-1.4c0.3-0.4,0.8-0.8,1.4-1.2c-0.8-0.3-1.4-0.9-1.9-1.6c-0.5-0.8-0.7-1.6-0.7-2.6c0-1.6,0.5-2.9,1.5-3.8
			c1-0.9,2.4-1.3,4.2-1.3c0.8,0,1.5,0.1,2.1,0.3H138.8z M126.9,88c0,0.8,0.3,1.4,1,1.8c0.7,0.4,1.7,0.6,2.9,0.6
			c1.9,0,3.3-0.3,4.2-0.9s1.4-1.3,1.4-2.3c0-0.8-0.3-1.4-0.8-1.7c-0.5-0.3-1.4-0.5-2.8-0.5h-2.7c-1,0-1.8,0.2-2.4,0.7
			C127.2,86.3,126.9,87,126.9,88z M128.1,75.3c0,1,0.3,1.8,0.9,2.4c0.6,0.5,1.4,0.8,2.5,0.8c2.2,0,3.3-1.1,3.3-3.2
			c0-2.3-1.1-3.4-3.4-3.4c-1.1,0-1.9,0.3-2.5,0.9S128.1,74.1,128.1,75.3z"/>
		<path class="st1" d="M144.5,66.4c0-0.5,0.1-0.9,0.4-1.1c0.3-0.2,0.6-0.4,1-0.4c0.4,0,0.7,0.1,0.9,0.4c0.3,0.2,0.4,0.6,0.4,1.1
			s-0.1,0.9-0.4,1.1c-0.3,0.3-0.6,0.4-0.9,0.4c-0.4,0-0.7-0.1-1-0.4C144.6,67.3,144.5,66.9,144.5,66.4z M147,85.4h-2.3v-15h2.3V85.4
			z"/>
		<path class="st1" d="M160.6,85.7c-2.2,0-3.8-0.7-5-2s-1.8-3.2-1.8-5.7c0-2.5,0.6-4.4,1.8-5.8c1.2-1.4,2.9-2.1,5.2-2.1
			c0.7,0,1.4,0.1,2.2,0.2c0.7,0.2,1.3,0.3,1.7,0.5l-0.7,1.9c-0.5-0.2-1-0.4-1.6-0.5c-0.6-0.1-1.1-0.2-1.6-0.2c-3,0-4.6,1.9-4.6,5.8
			c0,1.8,0.4,3.3,1.1,4.2c0.7,1,1.8,1.5,3.3,1.5c1.2,0,2.5-0.3,3.8-0.8v2C163.4,85.5,162.1,85.7,160.6,85.7z"/>
		<path class="st1" d="M169,87.9h4V67.4h-4v-1.9h6.2v24.4H169V87.9z"/>
	</g>
	<path class="st0" d="M22.4,82.8c1.3-0.3,2.5-1.2,3.2-2.4c1.5-2.5,0.6-5.7-1.9-7.2c0,0,0,0,0,0l0,0C8.9,64.5,3.8,45.5,12.5,30.6
		c7.2-12.4,21.8-18,35-14.4l0.6-1.4c-16.1-5-34.2,1.5-43,16.7C-5.3,49.3,0.7,72,18.4,82.2l0,0l0,0c0.4,0.2,0.8,0.4,1.2,0.6
		C20.8,83.3,22.4,82.8,22.4,82.8z"/>
	<path class="st2" d="M54.2,15.3c0.2,0.1,0.4,0.3,0.5,0.4l10-4l-9.4,4.9l0,0l7.6,4.8l-7.7-4.1c-0.1,0.2-0.4,0.3-0.7,0.3l3.1,8.9
		l-4-9l-16.7,7l15.6-7.7c-0.5-0.5-0.8-1-0.7-1.4l-7.5-3.8l8,3.3c0,0,0.1,0,0.1,0L44.8,0l8.6,14.3l2.4-5.6l-1.7,6.6
		C54.1,15.2,54.1,15.3,54.2,15.3z"/>
	<circle class="st2" cx="34.8" cy="83.1" r="4.2"/>
	<circle class="st2" cx="48" cy="83.1" r="3.5"/>
	<circle class="st2" cx="58.7" cy="77.9" r="2.9"/>
</g>
</svg>
