<!-- Generated by IcoMoon.io -->
<svg version="1.1" xmlns="http://www.w3.org/2000/svg" width="32" height="32" viewBox="0 0 32 32">
<path d="M26.166 17.342l2.877 2.24q0.447 0.32 0.128 0.895l-2.749 4.731c-0.108 0.195-0.312 0.325-0.547 0.325-0.104 0-0.202-0.025-0.288-0.070l0.003 0.002-3.388-1.343c-0.666 0.505-1.423 0.954-2.228 1.314l-0.074 0.029-0.511 3.58c-0.027 0.323-0.296 0.576-0.624 0.576-0.006 0-0.012-0-0.017-0l0.001 0h-5.498c-0.005 0-0.012 0-0.018 0-0.328 0-0.596-0.253-0.622-0.574l-0-0.002-0.512-3.58c-0.879-0.376-1.636-0.826-2.325-1.361l0.024 0.018-3.388 1.343c-0.083 0.043-0.181 0.069-0.285 0.069-0.235 0-0.439-0.13-0.545-0.322l-0.002-0.003-2.749-4.731q-0.32-0.576 0.128-0.895l2.877-2.24c-0.042-0.346-0.065-0.746-0.065-1.152 0-0.067 0.001-0.134 0.002-0.2l-0 0.010c-0.001-0.055-0.002-0.12-0.002-0.185 0-0.408 0.024-0.81 0.070-1.205l-0.005 0.048-2.877-2.24q-0.448-0.32-0.128-0.895l2.749-4.731c0.108-0.195 0.312-0.325 0.547-0.325 0.104 0 0.202 0.025 0.288 0.070l-0.003-0.002 3.388 1.343c0.666-0.504 1.423-0.954 2.228-1.314l0.074-0.029 0.512-3.58c0.026-0.323 0.294-0.576 0.622-0.576 0.006 0 0.013 0 0.019 0l-0.001-0h5.498c0.005-0 0.011-0 0.016-0 0.328 0 0.597 0.252 0.623 0.573l0 0.002 0.511 3.58c0.879 0.378 1.636 0.828 2.326 1.361l-0.024-0.018 3.388-1.343c0.083-0.043 0.18-0.069 0.284-0.069 0.235 0 0.439 0.13 0.545 0.321l0.002 0.003 2.751 4.733q0.32 0.575-0.128 0.895l-2.877 2.24c0.040 0.345 0.063 0.745 0.063 1.15 0 0.067-0.001 0.134-0.002 0.2l0-0.010c0.001 0.051 0.001 0.112 0.001 0.173 0 0.412-0.024 0.819-0.070 1.219l0.005-0.049zM12.612 19.389c0.866 0.869 2.065 1.407 3.389 1.407s2.522-0.538 3.388-1.406l0-0c0.869-0.866 1.407-2.065 1.407-3.389s-0.538-2.522-1.407-3.388l-0-0c-0.866-0.869-2.065-1.407-3.389-1.407s-2.522 0.538-3.388 1.407l-0 0c-0.869 0.866-1.406 2.065-1.406 3.389s0.538 2.522 1.406 3.388l0 0z"></path>
</svg>
