<!-- Generated by IcoMoon.io -->
<svg version="1.1" xmlns="http://www.w3.org/2000/svg" width="32" height="32" viewBox="0 0 32 32">
<path d="M14.828 5.334v7.572h2.025v-7.572l2.559 2.347 1.387-1.494-4.906-4.694-4.906 4.588 1.384 1.6zM27.734 12.053l-8.641-4.053-0.959 1.813 6.4 2.988-8.641 4.159-8.534-4.159 6.294-2.988-0.853-1.919-7.787 3.734-0.319 0.106-0.534 0.428-0.106 0.213-2.453 4.691 1.388 1.387 1.066-0.428v6.828l11.947 5.547 11.947-5.547v-5.334l3.094-1.494-3.306-5.972zM14.828 27.734l-8.856-4.053v-9.069l8.853 4.266v8.856zM18.988 21.441l-1.706-2.881 9.172-4.372 1.6 2.988-9.066 4.266zM27.734 12.053v0 0z"></path>
</svg>
