<!-- Generated by IcoMoon.io -->
<svg version="1.1" xmlns="http://www.w3.org/2000/svg" width="32" height="32" viewBox="0 0 32 32">
<path d="M0.457 16.44v-0.672l4.807-7.467 1.498 0.727c0.363 0.15 0.634 0.458 0.73 0.836l0.002 0.008c0.016 0.085 0.025 0.182 0.025 0.282 0 0.31-0.087 0.599-0.238 0.845l0.004-0.007-2.72 4.519c-0.097 0.16-0.19 0.297-0.281 0.419l-0.123 0.167 0.127 0.165c0.094 0.122 0.186 0.26 0.27 0.403l0.010 0.019 2.72 4.538c0.145 0.234 0.232 0.519 0.232 0.823 0 0.099-0.009 0.197-0.027 0.291l0.002-0.010c-0.096 0.39-0.368 0.702-0.725 0.85l-0.008 0.003-1.496 0.727zM25.238 23.181c-0.366-0.152-0.638-0.465-0.731-0.848l-0.002-0.008c-0.016-0.083-0.024-0.179-0.024-0.277 0-0.309 0.089-0.597 0.242-0.841l-0.004 0.007 2.716-4.533c0.093-0.161 0.184-0.298 0.284-0.428l-0.007 0.009 0.128-0.165-0.124-0.167q-0.135-0.182-0.279-0.417l-2.715-4.507c-0.149-0.242-0.238-0.535-0.238-0.849 0-0.1 0.009-0.197 0.026-0.292l-0.002 0.010c0.097-0.387 0.369-0.695 0.724-0.842l0.008-0.003 1.497-0.727 4.807 7.467v0.672l-4.807 7.467zM16 29.23c-0.001 0-0.001 0-0.002 0-0.196 0-0.374-0.080-0.503-0.209v0l-2.275-2.276c-0.129-0.129-0.208-0.308-0.209-0.504v-9.6l-0.151-0.076c-2.296-1.175-3.841-3.524-3.841-6.235 0-3.855 3.125-6.98 6.98-6.98s6.98 3.125 6.98 6.98c0 1.927-0.781 3.672-2.044 4.935l0-0c-0.302 0.302-0.631 0.576-0.983 0.819l-0.024 0.015-0.13 0.089 0.126 1.953-1.516 1.516 1.544 1.547-2.507 2.507 2.187 2.187-3.126 3.126c-0.128 0.127-0.305 0.206-0.5 0.206-0.002 0-0.004 0-0.006-0h0zM16 5.274c-0 0-0 0-0.001 0-1.245 0-2.255 1.010-2.255 2.255s1.010 2.255 2.255 2.255c1.245 0 2.255-1.010 2.255-2.255 0-0.623-0.252-1.186-0.66-1.594v0c-0.406-0.408-0.968-0.661-1.589-0.661-0.002 0-0.004 0-0.006 0h0z"></path>
</svg>
