<?xml version="1.0" encoding="UTF-8"?>
<svg id="Layer_1" xmlns="http://www.w3.org/2000/svg" version="1.1" viewBox="0 0 29 29">
  <!-- Generator: Adobe Illustrator 29.6.1, SVG Export Plug-In . SVG Version: 2.1.1 Build 9)  -->
  <path d="M23.1,23.3H6.2c-1,0-1.8-.4-2.3-1.1-.5-.6-.7-1.4-.7-2.4v-9.6h4.2v-3.8h19.3v13.4c0,1.9-1.6,3.5-3.5,3.5ZM9,21.4h14.1c.9,0,1.6-.7,1.6-1.6v-11.5h-15.4v11.5c0,.6,0,1.1-.3,1.6ZM5.1,12.1v7.7c0,.6.1,1.6,1.1,1.6s1.1-.8,1.1-1.6v-7.7h-2.2Z"/>
  <path d="M11.1,9.8h12.1v1.6h-12.1v-1.6Z"/>
  <path d="M11.1,19.2h7v.5h-7v-.5Z"/>
  <path d="M11.1,17.2h7v.5h-7v-.5Z"/>
  <path d="M11.1,15.3h7v.5h-7v-.5Z"/>
  <path d="M11.1,13.3h7v.5h-7v-.5Z"/>
  <path d="M19.3,13.3h3.8v4.4h-3.8v-4.4Z"/>
</svg>