<!-- Generated by IcoMoon.io -->
<svg version="1.1" xmlns="http://www.w3.org/2000/svg" width="32" height="32" viewBox="0 0 32 32">
<path d="M10.667 14.001c-0.001 0.019-0.001 0.041-0.001 0.063 0 0.235 0.033 0.462 0.095 0.677l-0.004-0.017c0.083 0.231 0.171 0.424 0.271 0.61l-0.011-0.023c0.035 0.053 0.056 0.117 0.057 0.187v0c-0.010 0.104-0.069 0.192-0.153 0.243l-0.001 0.001-0.512 0.341c-0.059 0.043-0.133 0.071-0.213 0.074l-0.001 0c-0.096-0.007-0.181-0.049-0.244-0.114l-0-0c-0.106-0.113-0.203-0.238-0.287-0.372l-0.006-0.010c-0.081-0.138-0.16-0.293-0.252-0.48-0.555 0.686-1.396 1.12-2.339 1.12-0.018 0-0.036-0-0.053-0l0.003 0c-0.035 0.002-0.075 0.003-0.116 0.003-0.583 0-1.114-0.224-1.512-0.591l0.002 0.001c-0.372-0.377-0.601-0.895-0.601-1.466 0-0.033 0.001-0.065 0.002-0.097l-0 0.005c-0.001-0.023-0.001-0.050-0.001-0.077 0-0.639 0.287-1.212 0.738-1.596l0.003-0.002c0.499-0.398 1.139-0.638 1.835-0.638 0.054 0 0.109 0.001 0.162 0.004l-0.008-0c0.306 0.003 0.605 0.026 0.897 0.069l-0.035-0.004c0.301 0.041 0.61 0.107 0.935 0.179v-0.594c0.006-0.054 0.009-0.116 0.009-0.18 0-0.425-0.148-0.816-0.394-1.125l0.003 0.004c-0.311-0.239-0.706-0.383-1.134-0.383-0.067 0-0.133 0.004-0.199 0.010l0.008-0.001c-0.312 0-0.614 0.039-0.903 0.112l0.026-0.005c-0.346 0.083-0.638 0.178-0.921 0.292l0.043-0.016c-0.076 0.035-0.171 0.072-0.268 0.102l-0.017 0.005c-0.038 0.013-0.082 0.022-0.128 0.024l-0.001 0c-0.114 0-0.171-0.082-0.171-0.252v-0.398c-0.001-0.014-0.002-0.029-0.002-0.045 0-0.087 0.022-0.17 0.060-0.242l-0.001 0.003c0.061-0.073 0.137-0.131 0.224-0.169l0.004-0.002c0.294-0.149 0.635-0.275 0.992-0.36l0.032-0.006c0.368-0.098 0.791-0.155 1.226-0.155 0.015 0 0.029 0 0.044 0h-0.002c0.076-0.007 0.164-0.011 0.253-0.011 0.713 0 1.368 0.252 1.88 0.671l-0.005-0.004c0.424 0.473 0.683 1.101 0.683 1.79 0 0.074-0.003 0.147-0.009 0.219l0.001-0.009v2.634zM7.366 15.236c0.301-0.003 0.588-0.057 0.856-0.152l-0.018 0.006c0.308-0.109 0.568-0.288 0.771-0.518l0.002-0.002c0.127-0.144 0.222-0.319 0.274-0.511l0.002-0.009c0.052-0.206 0.081-0.442 0.081-0.685 0-0.008-0-0.015-0-0.023v0.001-0.341c-0.201-0.052-0.455-0.101-0.713-0.134l-0.034-0.004c-0.229-0.031-0.494-0.049-0.764-0.049h-0.001c-0.044-0.004-0.096-0.006-0.148-0.006-0.398 0-0.766 0.124-1.069 0.335l0.006-0.004c-0.246 0.209-0.401 0.519-0.401 0.864 0 0.025 0.001 0.049 0.002 0.074l-0-0.003c-0.004 0.036-0.007 0.077-0.007 0.119 0 0.579 0.47 1.049 1.049 1.049 0.040 0 0.079-0.002 0.117-0.006l-0.005 0zM13.894 16.114c-0.014 0.002-0.030 0.002-0.047 0.002-0.098 0-0.189-0.031-0.264-0.084l0.001 0.001c-0.083-0.085-0.143-0.193-0.17-0.312l-0.001-0.004-1.91-6.284c-0.035-0.095-0.060-0.205-0.073-0.319l-0.001-0.006c-0.001-0.008-0.002-0.017-0.002-0.026 0-0.098 0.080-0.178 0.178-0.178 0.007 0 0.013 0 0.019 0.001l-0.001-0h0.797c0.017-0.002 0.036-0.004 0.056-0.004 0.099 0 0.191 0.032 0.265 0.085l-0.001-0.001c0.078 0.086 0.135 0.194 0.159 0.313l0.001 0.004 1.366 5.381 1.268-5.381c0.018-0.124 0.073-0.233 0.154-0.318l-0 0c0.083-0.052 0.184-0.082 0.292-0.082 0.012 0 0.023 0 0.035 0.001l-0.002-0h0.65c0.015-0.002 0.033-0.003 0.051-0.003 0.102 0 0.197 0.031 0.276 0.085l-0.002-0.001c0.082 0.083 0.138 0.193 0.154 0.315l0 0.003 1.284 5.446 1.406-5.446c0.027-0.123 0.083-0.23 0.161-0.318l-0.001 0.001c0.081-0.052 0.179-0.082 0.285-0.082 0.012 0 0.025 0 0.037 0.001l-0.002-0h0.755c0.007-0.001 0.016-0.002 0.024-0.002 0.1 0 0.181 0.081 0.181 0.181 0 0.008-0.001 0.017-0.002 0.025l0-0.001c-0.002 0.047-0.008 0.092-0.017 0.136l0.001-0.005c-0.015 0.078-0.034 0.146-0.060 0.211l0.003-0.008-1.959 6.284c-0.026 0.125-0.086 0.233-0.171 0.317l-0 0c-0.079 0.052-0.176 0.082-0.28 0.082-0.010 0-0.020-0-0.030-0.001l0.001 0h-0.699c-0.015 0.002-0.033 0.003-0.051 0.003-0.102 0-0.197-0.032-0.276-0.085l0.002 0.001c-0.082-0.086-0.138-0.198-0.154-0.322l-0-0.003-1.26-5.243-1.252 5.235c-0.020 0.126-0.075 0.237-0.155 0.326l0.001-0.001c-0.078 0.052-0.174 0.083-0.277 0.083-0.017 0-0.033-0.001-0.050-0.002l0.002 0zM24.339 16.333c-0.001 0-0.002 0-0.003 0-0.443 0-0.873-0.053-1.285-0.154l0.037 0.008c-0.353-0.073-0.665-0.185-0.956-0.335l0.021 0.010c-0.106-0.051-0.192-0.129-0.25-0.225l-0.001-0.003c-0.030-0.067-0.048-0.145-0.049-0.227v-0.415c0-0.171 0.065-0.252 0.187-0.252 0.052 0 0.103 0.009 0.149 0.025l-0.003-0.001c0.049 0.017 0.122 0.049 0.203 0.082 0.255 0.115 0.554 0.213 0.865 0.279l0.029 0.005c0.291 0.062 0.625 0.097 0.967 0.098h0c0.039 0.002 0.085 0.004 0.131 0.004 0.387 0 0.751-0.1 1.067-0.276l-0.011 0.006c0.255-0.156 0.423-0.433 0.423-0.75 0-0.008-0-0.016-0-0.024l0 0.001c0-0.006 0-0.014 0-0.021 0-0.213-0.084-0.406-0.22-0.549l0 0c-0.228-0.195-0.504-0.341-0.807-0.419l-0.014-0.003-1.179-0.366c-0.527-0.139-0.972-0.432-1.297-0.827l-0.003-0.004c-0.252-0.322-0.404-0.732-0.406-1.178v-0c-0-0.011-0-0.024-0-0.037 0-0.317 0.081-0.615 0.224-0.874l-0.005 0.009c0.15-0.266 0.347-0.488 0.581-0.663l0.006-0.004c0.24-0.183 0.522-0.328 0.827-0.418l0.018-0.005c0.294-0.088 0.631-0.138 0.98-0.138 0.015 0 0.031 0 0.046 0l-0.002-0c0.009-0 0.020-0 0.031-0 0.181 0 0.36 0.012 0.535 0.035l-0.021-0.002c0.187 0.024 0.357 0.057 0.528 0.089 0.16 0.041 0.317 0.082 0.463 0.13 0.131 0.041 0.244 0.091 0.35 0.151l-0.009-0.005c0.098 0.050 0.18 0.118 0.243 0.201l0.001 0.002c0.046 0.068 0.074 0.153 0.074 0.243 0 0.008-0 0.016-0.001 0.024l0-0.001v0.382c0 0.171-0.065 0.26-0.187 0.26-0.115-0.013-0.22-0.048-0.313-0.1l0.004 0.002c-0.442-0.201-0.959-0.318-1.503-0.318-0.020 0-0.041 0-0.061 0.001l0.003-0c-0.037-0.002-0.079-0.004-0.123-0.004-0.35 0-0.68 0.086-0.971 0.237l0.012-0.006c-0.231 0.14-0.383 0.39-0.383 0.675 0 0.017 0.001 0.034 0.002 0.051l-0-0.002c-0 0.005-0 0.010-0 0.016 0 0.221 0.094 0.421 0.243 0.561l0 0c0.252 0.201 0.551 0.355 0.877 0.443l0.017 0.004 1.154 0.366c0.506 0.132 0.936 0.406 1.258 0.777l0.003 0.003c0.233 0.305 0.374 0.692 0.374 1.112 0 0.009-0 0.019-0 0.028l0-0.001c0 0.007 0 0.016 0 0.024 0 0.335-0.079 0.651-0.219 0.931l0.005-0.012c-0.149 0.284-0.349 0.523-0.588 0.712l-0.005 0.004c-0.256 0.2-0.557 0.357-0.884 0.451l-0.019 0.005c-0.342 0.11-0.736 0.173-1.144 0.173-0.006 0-0.012 0-0.019-0h0.001zM25.876 20.284c-2.674 1.973-6.56 3.024-9.901 3.024-0.028 0-0.060 0-0.093 0-4.621 0-8.833-1.75-12.010-4.623l0.015 0.014c-0.252-0.228-0.024-0.537 0.277-0.357 3.473 2.019 7.644 3.211 12.093 3.211 0.001 0 0.002 0 0.003 0h-0c3.335-0.018 6.504-0.71 9.384-1.946l-0.157 0.060c0.447-0.203 0.829 0.293 0.39 0.618zM26.99 19.016c-0.341-0.439-2.26-0.213-3.13-0.107-0.26 0.032-0.301-0.195-0.065-0.366 1.529-1.073 4.040-0.764 4.333-0.406s-0.081 2.88-1.512 4.081c-0.219 0.187-0.431 0.090-0.333-0.155 0.325-0.804 1.049-2.617 0.707-3.047z"></path>
</svg>
