<?xml version="1.0" encoding="UTF-8"?>
<svg xmlns="http://www.w3.org/2000/svg" version="1.1" viewBox="0 0 32 32">
  <defs>
    <style>
      .cls-1 {
        fill-rule: evenodd;
      }
    </style>
  </defs>
  <!-- Generator: Adobe Illustrator 28.6.0, SVG Export Plug-In . SVG Version: 1.2.0 Build 709)  -->
  <g>
    <g id="Layer_1">
      <path class="cls-1" d="M27.9,25.2l-6.5-19.4c-.1-.3-.3-.6-.6-.8-.3-.2-.6-.3-1-.3h-7.7c-.3,0-.7.1-.9.3-.3.2-.5.5-.6.8l-6.5,19.4c0,.3-.1.5,0,.8,0,.3.1.5.3.7.2.2.4.4.6.5.2.1.5.2.8.1h4.7c.3,0,.7-.1.9-.3.3-.2.5-.5.6-.8l1-2.9,4.8,3.7c.3.2.6.3,1,.3h7.6c.3,0,.5,0,.8-.2.2-.1.4-.3.6-.5.2-.2.3-.5.3-.7,0-.3,0-.5,0-.8ZM18.8,26.2c-.1,0-.2,0-.3-.1l-9.1-6.8h-.1c0-.1,4.8-.1,4.8-.1v-.3c.1,0,1.7-4.1,1.7-4.1l3.6,10.7c0,0,0,.2,0,.3,0,0,0,.2-.1.3,0,0-.1.1-.2.2,0,0-.2,0-.3,0ZM26.4,26.2h-6c.1-.3.1-.7,0-1.1L13.8,5.8h6c.1,0,.2,0,.3.1,0,0,.2.2.2.3l6.5,19.4c0,0,0,.2,0,.2,0,0,0,.2,0,.2,0,0-.1.1-.2.2,0,0-.2,0-.2,0Z"/>
    </g>
  </g>
</svg>