<!-- Generated by IcoMoon.io -->
<svg version="1.1" xmlns="http://www.w3.org/2000/svg" width="32" height="32" viewBox="0 0 32 32">
<path d="M9.9 21.1c-0.35-0.35-0.55-0.85-0.55-1.35h-5.3v-3.6h8.7c0.5-1.4 1.3-2.65 2.4-3.75 2-2 4.5-3.050 7.35-3.050 0.4 0 0.8 0 1.15 0.050l-0.5-0.35-0.9-0.6h-14.55l-0.95 0.8-4.45 3.55-1.35 1.050v9.15h10.85l-1.9-1.9zM16.55 13.75c1.65-1.65 3.65-2.5 6-2.5s4.35 0.85 6 2.5c1.65 1.65 2.5 3.65 2.5 6s-0.85 4.35-2.5 6c-1.65 1.65-3.65 2.5-6 2.5s-4.35-0.8-6-2.5l1.35-1.35c1.25 1.3 2.8 1.95 4.65 1.95s3.4-0.65 4.65-1.9c1.3-1.3 1.9-2.85 1.9-4.65 0-1.85-0.65-3.4-1.9-4.65-1.3-1.3-2.85-1.9-4.65-1.9-1.85 0-3.4 0.65-4.65 1.9-1.3 1.3-1.9 2.85-1.9 4.65h2.85l-3.85 3.8-0.050-0.15-3.65-3.65h2.85c-0.050-2.4 0.75-4.4 2.4-6.050zM21.65 16h1.4v4l3.25 2-0.65 1.15-4-2.45v-4.7z"></path>
</svg>
