<!-- Generated by IcoMoon.io -->
<svg version="1.1" xmlns="http://www.w3.org/2000/svg" width="32" height="32" viewBox="0 0 32 32">
<path d="M2.39 24.475c0-0.747-0.015-1.414 0.005-2.080 0.012-0.405-0.183-0.526-0.533-0.453-0.418 0.088-0.828 0.207-1.275 0.32 0.024-0.069 0.054-0.128 0.091-0.183l-0.002 0.003c2.651-2.81 4.598-6.114 6.588-9.387 1.398-2.301 2.776-4.614 4.164-6.921 0.074-0.122 0.16-0.235 0.284-0.416 0.697 0.923 1.365 1.809 2.035 2.693 2.839 3.747 5.658 7.51 8.533 11.23 0.981 1.277 2.101 2.378 3.357 3.307l0.045 0.032-1.26-0.437v4.46l-12.719-1.114v-17.12l-0.098-0.019c-0.267 0.8-0.514 1.613-0.808 2.406-0.691 1.863-1.333 3.763-2.579 5.347-0.621 0.789-1.393 1.456-2.078 2.203-0.139 0.146-0.225 0.345-0.225 0.564 0 0.001 0 0.001 0 0.002v-0c0.193 1.526 0.476 3.046 0.224 4.591-0.236 1.45 0.057 1.159-1.348 1.12-0.775-0.025-1.549-0.095-2.402-0.148zM31.413 18.692c-0.811 0.617-1.608 1.235-2.419 1.834-0.553 0.408-1.145 0.764-1.681 1.191-0.19 0.161-0.438 0.258-0.708 0.258-0.222 0-0.428-0.066-0.601-0.178l0.004 0.003c-1.020-0.566-1.868-1.323-2.523-2.228l-0.015-0.022q-3.793-4.776-7.516-9.604c-1.018-1.315-1.973-2.678-2.956-4.021-0.080-0.109-0.148-0.228-0.287-0.445 1.603 0.457 3.444 0.719 5.347 0.719 0.291 0 0.58-0.006 0.867-0.018l-0.041 0.001c0.035 0.001 0.076 0.002 0.118 0.002 0.396 0 0.779-0.052 1.145-0.149l-0.031 0.007c0.406-0.127 0.572 0.035 0.78 0.329 1.911 2.701 3.773 5.44 5.777 8.069 1.197 1.692 2.733 3.065 4.517 4.041l0.069 0.035c0.042 0.021 0.067 0.077 0.155 0.178zM25.195 25.962v-2.823c0.086 0 0.172-0.027 0.224 0.004 0.76 0.452 1.303 0.107 1.877-0.414 0.771-0.701 1.613-1.324 2.482-2.027 0.083 0.59 0.145 1.048-0.358 1.482-1.324 1.143-2.597 2.347-3.893 3.525-0.085 0.079-0.185 0.143-0.331 0.253z"></path>
</svg>
