<!-- Generated by IcoMoon.io -->
<svg version="1.1" xmlns="http://www.w3.org/2000/svg" width="32" height="32" viewBox="0 0 32 32">
<path d="M25.42 5.221c0.747 0.001 1.421 0.316 1.896 0.821l0.001 0.001c0.506 0.476 0.821 1.149 0.822 1.896v18.84c-0.049 1.482-1.238 2.671-2.715 2.72l-0.005 0h-18.838c-0.013 0-0.028 0-0.043 0-0.744 0-1.414-0.316-1.884-0.821l-0.001-0.002c-0.488-0.482-0.79-1.15-0.79-1.89 0-0.003 0-0.006 0-0.009v0-18.84c0-0.002 0-0.004 0-0.006 0-0.74 0.302-1.409 0.79-1.89l0-0c0.471-0.506 1.142-0.822 1.886-0.822 0.015 0 0.030 0 0.045 0l-0.002-0h1.327v-2.72h2.72v2.72h10.746v-2.72h2.72v2.72zM25.42 26.779v-14.794h-18.839v14.794zM9.235 14.641h6.765v6.765h-6.765z"></path>
</svg>
