<!-- Generated by IcoMoon.io -->
<svg version="1.1" xmlns="http://www.w3.org/2000/svg" width="32" height="32" viewBox="0 0 32 32">
<path d="M30.85 7.050c-0.4-0.4-0.9-0.65-1.5-0.65h-26.65c-0.6 0-1.15 0.2-1.55 0.65s-0.65 0.95-0.65 1.5v15.4c0 0.6 0.2 1.1 0.65 1.5 0.4 0.45 0.95 0.65 1.55 0.65h19.2v-6.35c-0.65-0.7-1-1.65-1-2.7 0-2.3 1.85-4.15 4.15-4.15s4.15 1.85 4.15 4.15c0 1.050-0.4 2-1 2.7v6.35h1.2c0.6 0 1.15-0.2 1.55-0.65 0.4-0.4 0.65-0.9 0.65-1.5v-15.4c-0.1-0.6-0.3-1.1-0.75-1.5zM18.25 15.9h-15v-2.15h15v2.15zM18.25 11.55h-15v-2.2h15v2.2zM22.9 20.6v6.8l2.1-1.5 2.1 1.5v-6.8c-0.6 0.35-1.3 0.55-2.1 0.55s-1.45-0.15-2.1-0.55z"></path>
</svg>
