<!-- Generated by IcoMoon.io -->
<svg version="1.1" xmlns="http://www.w3.org/2000/svg" width="32" height="32" viewBox="0 0 32 32">
<path d="M20.315 11.285v-4.267c0-0 0-0 0-0 0-2.343-1.889-4.245-4.227-4.266h-0.002c-0 0-0 0-0 0-2.343 0-4.245 1.889-4.267 4.227v4.269c0 0 0 0 0 0 0 0.739-0.599 1.339-1.339 1.339-0.002 0-0.004 0-0.006 0h-1.269c-0.010-0-0.021-0-0.032-0-1.23 0-2.228 0.991-2.24 2.218v1.638l18.208 0.091v-1.637c0-0.003 0-0.007 0-0.011 0-1.227-0.984-2.224-2.206-2.245l-0.002-0h-1.269c-0.005 0-0.011 0-0.016 0-0.736 0-1.333-0.597-1.333-1.333 0-0.008 0-0.015 0-0.023v0.001zM15.792 5.52c0.094-0.026 0.201-0.041 0.313-0.041 0.666 0 1.205 0.54 1.205 1.205s-0.54 1.205-1.205 1.205c-0.666 0-1.205-0.54-1.205-1.205 0-0.101 0.012-0.199 0.036-0.292l-0.002 0.008c0.107-0.429 0.433-0.763 0.85-0.878l0.008-0.002z"></path>
<path d="M25.136 17.941l-18.203-0.091-1.632 9.952c0 0.002 0 0.003 0 0.005 0 0.743 0.601 1.346 1.344 1.349h11.056v-4.624c0-0.533 0.432-0.965 0.965-0.965s0.965 0.432 0.965 0.965v0 4.693h1.6v-1.872c-0.002-0.021-0.003-0.046-0.003-0.072 0-0.533 0.432-0.965 0.965-0.965s0.965 0.432 0.965 0.965c0 0.025-0.001 0.050-0.003 0.075l0-0.003v1.861c1.6 0 0.571 0 2.187 0 0.002 0 0.003 0 0.005 0 0.743 0 1.346-0.601 1.349-1.344v-0z"></path>
</svg>
