<!-- Generated by IcoMoon.io -->
<svg version="1.1" xmlns="http://www.w3.org/2000/svg" width="32" height="32" viewBox="0 0 32 32">
<path d="M16 19.482c4.616 0 13.847 2.267 13.847 6.883v3.482h-27.695v-3.482c0-4.616 9.231-6.883 13.847-6.883zM16 16c-0.001 0-0.002 0-0.003 0-3.8 0-6.88-3.080-6.88-6.88 0-0.001 0-0.002 0-0.003v0c-0-0.025-0.001-0.056-0.001-0.086 0-3.802 3.082-6.884 6.884-6.884s6.884 3.082 6.884 6.884c0 0.030-0 0.060-0.001 0.090l0-0.005c0 0.001 0 0.002 0 0.003 0 3.8-3.080 6.88-6.88 6.88-0.001 0-0.002 0-0.003 0h0z"></path>
</svg>
