<!-- Generated by IcoMoon.io -->
<svg version="1.1" xmlns="http://www.w3.org/2000/svg" width="32" height="32" viewBox="0 0 32 32">
<path d="M24.6 25.050c2.5-2.5 3.75-5.5 3.75-9.050s-1.25-6.55-3.75-9.050-5.55-3.75-9.1-3.75-6.6 1.25-9.1 3.75-3.75 5.5-3.75 9.050 1.25 6.55 3.75 9.050c2.55 2.5 5.55 3.75 9.1 3.75s6.6-1.25 9.1-3.75v0zM22.75 8.7c2 2.050 3 4.45 3 7.3s-1 5.3-3 7.3-4.4 3-7.25 3-5.25-1-7.25-3c-2-2.050-3-4.45-3-7.3s1-5.3 3-7.3 4.4-3 7.25-3 5.25 1 7.25 3v0zM14.25 17.75h6.9v-2.5h-4.4v-7.65h-2.5v10.15z"></path>
</svg>
