<!-- Generated by IcoMoon.io -->
<svg version="1.1" xmlns="http://www.w3.org/2000/svg" width="32" height="32" viewBox="0 0 32 32">
<path d="M29.479 20.044c0 0 0 0 0 0.001 0 2.977-2.414 5.391-5.391 5.391-0 0-0 0-0.001 0h-15.501c-3.35-0.001-6.065-2.717-6.065-6.067 0-2.628 1.671-4.867 4.009-5.709l0.042-0.013c-0.005-0.114-0.009-0.227-0.009-0.341 0.001-3.721 3.019-6.738 6.74-6.738 2.485 0 4.655 1.345 5.824 3.346l0.017 0.032c0.631-0.428 1.41-0.683 2.247-0.683 2.232 0 4.041 1.809 4.041 4.041 0 0.001 0 0.001 0 0.002v-0c0 0.001 0 0.001 0 0.002 0 0.523-0.099 1.024-0.279 1.483l0.010-0.028c2.478 0.519 4.313 2.686 4.313 5.282v0z"></path>
</svg>
