<!-- Generated by IcoMoon.io -->
<svg version="1.1" xmlns="http://www.w3.org/2000/svg" width="32" height="32" viewBox="0 0 32 32">
<path d="M24.149 13.82c1.443 0.097 2.719 0.745 3.63 1.735l0.003 0.004c0.931 0.951 1.506 2.254 1.506 3.691 0 0.025-0 0.050-0.001 0.075l0-0.004c-0.016 3.061-2.493 5.538-5.553 5.554h-14.379c-0.030 0-0.065 0.001-0.1 0.001-1.803 0-3.432-0.746-4.595-1.945l-0.002-0.002c-1.202-1.199-1.946-2.857-1.946-4.689 0-1.713 0.651-3.275 1.719-4.451l-0.005 0.005c1.047-1.192 2.52-1.989 4.178-2.152l0.026-0.002c0.734-1.353 1.772-2.457 3.027-3.249l0.036-0.021c1.205-0.781 2.678-1.245 4.26-1.245 0.016 0 0.033 0 0.049 0h-0.003c0.007-0 0.016-0 0.025-0 4.012 0 7.357 2.854 8.115 6.643l0.009 0.053z"></path>
</svg>
