<?xml version="1.0" encoding="UTF-8"?>
<svg xmlns="http://www.w3.org/2000/svg" version="1.1" viewBox="0 0 35 34">
  <!-- Generator: Adobe Illustrator 28.6.0, SVG Export Plug-In . SVG Version: 1.2.0 Build 709)  -->
  <g>
    <g id="Layer_1">
      <g>
        <polygon points="15.9 5.3 8.8 1.2 1.7 5.3 1.7 13.6 8.8 17.7 15.9 13.6 15.9 5.3"/>
        <path d="M25.9,16.2c.4,0,.8,0,1.2,0l4.6-2.7V5.3l-7.1-4.2-7.2,4.2v8.2l5.4,3.1c1-.3,2-.5,3.1-.5Z"/>
        <path d="M21.1,17.5l-4.4-2.5-7.2,4.1v8.2l7.2,4.2,1.6-.9c-1-1.5-1.6-3.3-1.6-5.2,0-3.3,1.8-6.2,4.4-7.8Z"/>
        <path d="M25.9,17.9c-4.1,0-7.5,3.4-7.5,7.5s3.4,7.5,7.5,7.5,7.5-3.3,7.5-7.5-3.4-7.5-7.5-7.5ZM25.9,31.5c-3.4,0-6.2-2.8-6.2-6.2,0-1.4.5-2.8,1.4-3.8l2.1,2.1c0,.1-.1.2-.2.3-.3,0-.8-.2-1.2-.8l-.7.5c.5.7,1.1,1,1.6,1.1,0,.3-.1.6-.1.8-.4,0-1.2,0-1.8.4l.4.7c.5-.3,1-.3,1.4-.3,0,.4.1.7.3,1-.4.2-1.1.6-1.4,1.3l.8.3c.2-.5.7-.8,1-.9.6.9,1.6,1.5,2.7,1.5s1.7-.4,2.3-1.1l1.6,1.6c-1.1.9-2.4,1.4-3.9,1.4ZM24.3,22.3c0-.8.7-1.5,1.5-1.5s1.5.7,1.5,1.5c-.5-.3-1-.4-1.5-.4s-1.1.1-1.5.4ZM30.7,29.3l-.6-.6h.1c-.3-.8-.9-1.1-1.4-1.3.1-.3.2-.7.3-1,.3,0,.8,0,1.3.3l.4-.7c-.6-.4-1.3-.4-1.7-.4,0-.3,0-.6-.1-.8.4,0,1.1-.4,1.5-1.1l-.7-.5c-.4.6-.8.7-1.1.8-.2-.3-.4-.6-.6-.9,0-.2,0-.4,0-.6,0-.6-.2-1.1-.6-1.5l.4-.4-.6-.6-.5.5c-.3-.2-.7-.3-1.2-.3s-.8.1-1.2.3l-.5-.5-.6.6.4.4c-.3.3-.5.8-.5,1.2l-1.6-1.6c1-.9,2.4-1.4,3.9-1.4,3.4,0,6.2,2.8,6.2,6.2s-.5,2.8-1.4,3.9Z"/>
      </g>
    </g>
  </g>
</svg>