<?xml version="1.0" encoding="UTF-8"?>
<svg id="Layer_1" xmlns="http://www.w3.org/2000/svg" version="1.1" viewBox="0 0 29 29">
  <!-- Generator: Adobe Illustrator 29.6.1, SVG Export Plug-In . SVG Version: 2.1.1 Build 9)  -->
  <defs>
    <style>
      .st0 {
        fill-rule: evenodd;
      }
    </style>
  </defs>
  <path d="M15.3,14.2c.8-.8,1.7-1.2,2.8-1.2s2.1.4,2.8,1.2c.8.8,1.2,1.7,1.2,2.8s-.4,2.1-1.2,2.8c-.8.8-1.7,1.2-2.8,1.2s-2.1-.4-2.8-1.2c-.8-.8-1.2-1.7-1.2-2.8s.4-2.1,1.2-2.8ZM26.1,28h-16v-1.4c0-.9.5-1.6,1.5-2.3,1-.7,2.1-1.2,3.3-1.4,1.2-.3,2.3-.4,3.3-.4s2,.1,3.3.4c1.2.3,2.4.8,3.3,1.4,1,.7,1.5,1.4,1.5,2.3v1.4Z"/>
  <path class="st0" d="M14.4,1.8c2.9,0,5.5,1.2,7.4,3.1h0c1.9,1.8,3.1,4.4,3.1,7.3s0,.1,0,.2c0,0,0,.1,0,.2,0,1.3-.2,2.5-.7,3.7-.1-1.3-.6-2.4-1.5-3.4,0-.2,0-.3,0-.5h0c0-.8,0-1.5-.2-2.1h-3.6c0,.2,0,.4,0,.6-.3,0-.5,0-.8,0-.5,0-.9,0-1.3.1,0-.3,0-.5,0-.7h-5.1,0c0,.6-.1,1.4-.2,2.1h0c0,.8,0,1.5.1,2.1h.9c-.3.8-.5,1.6-.5,2.5,0,1.5.5,2.9,1.5,4.1-1.1.3-2.1.8-3,1.4-1.5-.5-2.8-1.4-3.9-2.5h0c-1.9-1.8-3.1-4.4-3.1-7.3s0-.1,0-.2c0,0,0-.1,0-.2,0-2.9,1.2-5.5,3.1-7.3h0c1.9-1.9,4.5-3.1,7.4-3.1s.1,0,.2,0c0,0,.1,0,.2,0ZM18.4,8.1h3.1s0,0,0,0c-1-1.7-2.6-3.1-4.5-3.7.6,1.1,1.1,2.3,1.4,3.7ZM16.2,8c-.5-1.5-1.2-2.9-2-4.2h0c-.9,1.2-1.5,2.6-2,4.3h4,0ZM5.7,12.4c0,.7,0,1.5.2,2.1h3.6c0-.7-.1-1.4-.1-2.1h0c0,0,0-.1,0-.1,0-.7,0-1.4.1-2.1h-3.6,0c-.1.6-.2,1.4-.2,2.1h0ZM6.9,16.7h0c1,1.8,2.5,3.1,4.5,3.7-.6-1.1-1.1-2.3-1.4-3.7h-3.1ZM6.9,8.2h3.1s0-.1,0-.1c.3-1.3.8-2.5,1.4-3.6h0c-1.9.6-3.5,2-4.5,3.7Z"/>
</svg>