<!-- Generated by IcoMoon.io -->
<svg version="1.1" xmlns="http://www.w3.org/2000/svg" width="32" height="32" viewBox="0 0 32 32">
<path d="M27 4.050c-0.5-0.5-1.1-0.75-1.8-0.75h-5.2c-0.25-0.75-0.75-1.35-1.4-1.8s-1.3-0.7-2.1-0.7c-0.8 0-1.5 0.25-2.15 0.7s-1.1 1.050-1.35 1.8h-5.25c-0.7 0-1.3 0.25-1.8 0.75s-0.75 1.050-0.75 1.75v3.5h2.5v-3.5h2.45v2.5h12.55v-2.5h2.45v20.050h-2.8v2.45h2.8c0.7 0 1.3-0.25 1.8-0.75s0.75-1.050 0.75-1.75v-20.050c0.050-0.65-0.2-1.2-0.7-1.7zM17.4 5.4c-0.25 0.25-0.55 0.35-0.9 0.35s-0.65-0.1-0.9-0.35c-0.25-0.25-0.35-0.55-0.35-0.9s0.1-0.65 0.35-0.9c0.25-0.25 0.55-0.35 0.9-0.35s0.65 0.1 0.9 0.35c0.25 0.25 0.35 0.55 0.35 0.9 0 0.4-0.15 0.7-0.35 0.9zM18.95 18.4l-6.45-6.45h-7.25v18.25h14.45v-11.050l-0.75-0.75zM15.45 18.4h-2.2v-2.2l2.2 2.2zM17.2 27.7h-9.4v-13.25h3v6.45h6.4v6.8z"></path>
</svg>
