<!-- Generated by IcoMoon.io -->
<svg version="1.1" xmlns="http://www.w3.org/2000/svg" width="32" height="32" viewBox="0 0 32 32">
<path d="M26.514 21.24c-0.42 2.243-4.406 4.040-9.447 4.262q-0.527 0.023-1.067 0.024c-5.585 0-10.146-1.92-10.522-4.354v4.354c0 2.58 4.709 4.676 10.522 4.676s10.514-2.096 10.514-4.676v-4.286zM26.522 6.474c0 2.583-4.711 4.676-10.522 4.676s-10.522-2.094-10.522-4.676c0-2.583 4.711-4.676 10.522-4.676s10.522 2.094 10.522 4.676zM26.514 14.89c-0.42 2.24-4.406 4.037-9.445 4.262q-0.527 0.023-1.067 0.024c-5.585 0-10.146-1.92-10.522-4.354v4.354c0 2.582 4.711 4.676 10.522 4.676s10.512-2.092 10.512-4.676v-4.286zM26.514 8.539c-0.42 2.243-4.406 4.037-9.447 4.261q-0.527 0.024-1.067 0.024c-5.585 0-10.146-1.92-10.522-4.353v4.353c0 2.582 4.711 4.676 10.522 4.676s10.514-2.094 10.514-4.676v-4.285z"></path>
</svg>
