<!-- Generated by IcoMoon.io -->
<svg version="1.1" xmlns="http://www.w3.org/2000/svg" width="32" height="32" viewBox="0 0 32 32">
<path d="M2.318 9.203c1.053 0.578 2.277 1.007 3.575 1.218l0.066 0.009c1.025 0.194 2.234 0.328 3.465 0.375l0.046 0.001v-0.312c0-1.243 0.721-2.265 2.143-3.040 1.2-0.634 2.593-1.12 4.063-1.382l0.087-0.013c1.486-0.277 3.196-0.436 4.943-0.436 0.079 0 0.157 0 0.236 0.001l-0.012-0v-1.714c0-0.613-0.409-1.105-1.309-1.636-1.053-0.578-2.277-1.007-3.575-1.218l-0.066-0.009c-1.42-0.26-3.053-0.409-4.722-0.409-0.095 0-0.189 0-0.283 0.001l0.014-0c-0.087-0.001-0.189-0.002-0.292-0.002-1.66 0-3.286 0.149-4.864 0.435l0.165-0.025c-1.38 0.243-2.615 0.669-3.751 1.26l0.071-0.034c-0.9 0.491-1.309 1.023-1.309 1.636v3.656c-0.002 0.613 0.407 1.104 1.308 1.636zM9.486 19.444c-1.513-0.080-2.927-0.27-4.303-0.563l0.179 0.032c-1.634-0.28-3.093-0.853-4.386-1.666l0.050 0.029v4.229c0 0.573 0.409 1.105 1.309 1.636 1.053 0.578 2.277 1.007 3.575 1.218l0.066 0.009c1.026 0.193 2.234 0.327 3.466 0.372l0.045 0.001zM5.362 11.947c-1.634-0.281-3.093-0.853-4.386-1.666l0.050 0.029v4.229c0 0.613 0.409 1.104 1.309 1.636 1.053 0.578 2.277 1.007 3.575 1.218l0.066 0.009c1.025 0.192 2.234 0.326 3.465 0.372l0.046 0.001v-3.31c-0.010-0.093-0.016-0.201-0.016-0.311 0-0.002 0-0.003 0-0.005v0-1.679c-1.51-0.082-2.919-0.27-4.291-0.557l0.183 0.032zM16.060 7.631c1.412-0.261 3.038-0.411 4.698-0.411 0.103 0 0.206 0.001 0.308 0.002l-0.016-0c0.080-0.001 0.174-0.001 0.268-0.001 1.669 0 3.303 0.149 4.889 0.435l-0.167-0.025c1.363 0.22 2.588 0.648 3.7 1.257l-0.060-0.030c0.9 0.533 1.309 1.022 1.309 1.636v3.656c0 0.613-0.409 1.145-1.309 1.636-1.053 0.566-2.276 0.993-3.568 1.216l-0.072 0.010c-1.44 0.261-3.097 0.41-4.788 0.41-0.085 0-0.171-0-0.256-0.001l0.013 0c-0.079 0.001-0.173 0.001-0.267 0.001-1.669 0-3.303-0.149-4.89-0.435l0.167 0.025c-1.364-0.22-2.588-0.648-3.7-1.257l0.060 0.030c-0.9-0.533-1.309-1.023-1.309-1.636v-3.655c0-0.614 0.409-1.146 1.309-1.636 1.065-0.557 2.3-0.984 3.602-1.215l0.078-0.011zM15.42 18.527c1.699 0.364 3.652 0.573 5.653 0.573 0.012 0 0.023 0 0.035-0h-0.002c0.028 0 0.061 0 0.094 0 1.98 0 3.911-0.209 5.773-0.605l-0.181 0.032c1.578-0.265 2.984-0.839 4.211-1.66l-0.039 0.024v4.229c0 0.614-0.409 1.146-1.309 1.636-1.053 0.565-2.276 0.993-3.568 1.216l-0.072 0.010c-1.413 0.261-3.038 0.411-4.698 0.411-0.103 0-0.205-0.001-0.308-0.002l0.016 0c-0.080 0.001-0.174 0.001-0.268 0.001-1.669 0-3.303-0.149-4.889-0.435l0.167 0.025c-1.364-0.22-2.588-0.649-3.701-1.257l0.060 0.030c-0.9-0.533-1.309-1.022-1.309-1.636v-4.229c1.243 0.783 2.702 1.355 4.265 1.625l0.071 0.010zM15.42 25.497c1.688 0.364 3.627 0.573 5.615 0.573 0.011 0 0.022 0 0.033-0h-0.002c0.018 0 0.039 0 0.060 0 1.992 0 3.934-0.209 5.808-0.605l-0.182 0.032c1.578-0.265 2.984-0.839 4.212-1.661l-0.039 0.024v4.229c0 0.613-0.409 1.145-1.309 1.636-1.053 0.566-2.276 0.993-3.568 1.216l-0.072 0.010c-1.401 0.261-3.013 0.41-4.659 0.41-0.102 0-0.204-0.001-0.306-0.002l0.015 0c-0.079 0.001-0.173 0.001-0.267 0.001-1.669 0-3.304-0.149-4.891-0.435l0.167 0.025c-1.364-0.22-2.588-0.649-3.701-1.257l0.060 0.030c-0.9-0.533-1.309-1.064-1.309-1.636v-4.229c1.243 0.783 2.702 1.356 4.264 1.626l0.072 0.010z"></path>
</svg>
