<!-- Generated by IcoMoon.io -->
<svg version="1.1" xmlns="http://www.w3.org/2000/svg" width="32" height="32" viewBox="0 0 32 32">
<path d="M4.141 25.466c0 1.141 0.925 2.066 2.066 2.066h19.553c1.141 0 2.066-0.925 2.066-2.066v-14.119c0-0.344-0.281-0.625-0.625-0.625h-22.434c-0.344 0-0.625 0.281-0.625 0.625v14.119zM13.384 14.044h5.2c0.462 0 0.831 0.375 0.831 0.831s-0.375 0.831-0.831 0.831h-5.2c-0.463 0-0.831-0.375-0.831-0.831s0.375-0.831 0.831-0.831z"></path>
<path d="M29.5 9.050v-3.987c0-0.344-0.281-0.625-0.625-0.625h-25.781c-0.344 0-0.625 0.281-0.625 0.625v3.987c0 0.344 0.281 0.625 0.625 0.625h25.784c0.344 0 0.625-0.281 0.625-0.625z"></path>
</svg>
