<!-- Generated by IcoMoon.io -->
<svg version="1.1" xmlns="http://www.w3.org/2000/svg" width="32" height="32" viewBox="0 0 32 32">
<path d="M22.871 20.291s-0.031 0.72-0.041 1.532c-0.006 0.566 0 1.173 0.034 1.623 0.071 0.864 0.247 1.663 0.516 2.419l-0.021-0.066c0.17 0.515 0.368 0.958 0.606 1.375l-0.019-0.037c0.271 0.499 0.528 0.913 0.805 1.311l-0.030-0.045c0.448 0.573 0.914 1.083 1.415 1.555l0.007 0.006c0.012-0.034 0.026-0.077 0.026-0.077l1.51-4.991 0.282-8.204 0.053-1.547zM7.532 15.216v-1.751h-1.034v0.553c-0.009 0.293-0.249 0.527-0.544 0.527s-0.534-0.234-0.544-0.526l-0-0.001v-1.533c0.001-0.292 0.233-0.53 0.523-0.542l0.001-0h1.6c-0.009-1.733-1.407-3.136-3.136-3.155h-0.002v9.565zM17.907 4.841h-5.885l-1.155-0.432-2.731 0.432v1.594l2.731 0.431 1.155-0.431h4.291l1.594-1.594zM27.258 5.669c-0.983-0.979-2.34-1.584-3.837-1.584s-2.854 0.605-3.837 1.584l-13.673 13.673c-0.979 0.983-1.584 2.34-1.584 3.837s0.605 2.854 1.584 3.837l-0-0c0.983 0.979 2.34 1.584 3.837 1.584s2.854-0.605 3.837-1.584l13.673-13.673c0.979-0.983 1.584-2.34 1.584-3.837s-0.605-2.854-1.584-3.837l0 0zM11.242 24.1c-0.309 0.308-0.735 0.499-1.206 0.499-0.943 0-1.707-0.764-1.707-1.707s0.764-1.707 1.707-1.707c0.471 0 0.897 0.191 1.206 0.499l-0-0c0.309 0.309 0.501 0.736 0.501 1.208s-0.191 0.899-0.501 1.208l-0 0zM24.476 10.866c-0.309 0.308-0.735 0.499-1.206 0.499-0.943 0-1.707-0.764-1.707-1.707s0.764-1.707 1.707-1.707c0.471 0 0.897 0.191 1.206 0.499l-0-0c0.309 0.309 0.501 0.736 0.501 1.208s-0.191 0.899-0.501 1.208l-0 0z"></path>
</svg>
