<svg width="885" height="671" viewBox="0 0 885 671" fill="none" xmlns="http://www.w3.org/2000/svg">
<path d="M749.68 56.1739C691.535 29.5534 630.151 10.668 567.098 0C558.47 15.4244 550.663 31.294 543.709 47.5425C476.545 37.4216 408.244 37.4216 341.08 47.5425C334.123 31.2957 326.316 15.4262 317.691 0C254.598 10.7581 193.174 29.6884 134.97 56.3131C19.42 227.271 -11.9037 393.983 3.75818 558.328C71.427 608.325 147.168 646.348 227.688 670.746C245.819 646.36 261.862 620.491 275.648 593.411C249.464 583.631 224.191 571.566 200.123 557.354C206.457 552.759 212.653 548.026 218.639 543.432C288.672 576.367 365.109 593.443 442.499 593.443C519.889 593.443 596.327 576.367 666.359 543.432C672.415 548.374 678.61 553.108 684.875 557.354C660.76 571.589 635.442 583.677 609.211 593.48C622.98 620.548 639.024 646.396 657.171 670.746C737.76 646.446 813.559 608.441 881.24 558.398C899.616 367.81 849.847 202.63 749.68 56.1739ZM295.486 457.257C251.842 457.257 215.785 417.65 215.785 368.924C215.785 320.198 250.589 280.243 295.347 280.243C340.105 280.243 375.884 320.198 375.118 368.924C374.353 417.65 339.966 457.257 295.486 457.257ZM589.512 457.257C545.798 457.257 509.88 417.65 509.88 368.924C509.88 320.198 544.684 280.243 589.512 280.243C634.339 280.243 669.84 320.198 669.074 368.924C668.308 417.65 633.991 457.257 589.512 457.257Z" fill="black"/>
</svg>
