<!-- Generated by IcoMoon.io -->
<svg version="1.1" xmlns="http://www.w3.org/2000/svg" width="32" height="32" viewBox="0 0 32 32">
<path d="M19.77 12.454v7.477h8.427c0 0 0 0 0 0 0.145 0 0.275-0.059 0.369-0.155l0-0 3.044-3.105c0.092-0.094 0.15-0.224 0.15-0.366 0-0.136-0.052-0.261-0.138-0.354l-3.054-3.329c-0.095-0.103-0.231-0.168-0.382-0.168-0 0-0 0-0.001 0h0zM12.231 4.977h-8.44c-0 0-0 0-0.001 0-0.134 0-0.256 0.055-0.343 0.144l-0 0-3.079 3.14c-0.086 0.088-0.139 0.208-0.139 0.341 0 0.127 0.049 0.243 0.128 0.329l-0-0 3.089 3.367c0.088 0.096 0.214 0.156 0.354 0.156 0 0 0 0 0 0h8.431zM17.773 30.603v-28.363c-0.002-0.155-0.128-0.28-0.283-0.28-0.001 0-0.003 0-0.004 0h-2.913c-0.001-0-0.002-0-0.004-0-0.155 0-0.281 0.125-0.283 0.279v28.363c0.002 0.155 0.128 0.279 0.283 0.279 0.001 0 0.003 0 0.004-0h2.913c0.001 0 0.002 0 0.004 0 0.155 0 0.281-0.125 0.283-0.279v-0z"></path>
</svg>
