<!-- Generated by IcoMoon.io -->
<svg version="1.1" xmlns="http://www.w3.org/2000/svg" width="32" height="32" viewBox="0 0 32 32">
<path d="M30.65 1.35c-0.5-0.5-1.3-0.5-1.75 0l-4.75 4.75c-2.35-1.95-5.050-2.9-8.15-2.9-3.55 0-6.6 1.25-9.1 3.75s-3.75 5.5-3.75 9.050c0 3.15 1 5.85 2.95 8.15l-4.75 4.75c-0.5 0.5-0.5 1.3 0 1.75 0.25 0.25 0.55 0.35 0.9 0.35s0.65-0.1 0.9-0.35l4.75-4.75c2.3 1.9 5.050 2.9 8.15 2.9 3.55 0 6.6-1.25 9.1-3.75s3.75-5.5 3.75-9.050c0-3.15-1-5.85-2.95-8.15l4.75-4.75c0.45-0.5 0.45-1.3-0.050-1.75zM5.75 16c0-2.85 1-5.3 3-7.3s4.4-3 7.25-3c2.45 0 4.55 0.75 6.35 2.2l-14.45 14.45c-1.45-1.85-2.15-3.95-2.15-6.35zM26.25 16c0 2.85-1 5.3-3 7.3s-4.4 3-7.25 3c-2.45 0-4.55-0.75-6.35-2.2l14.45-14.45c1.45 1.85 2.15 3.95 2.15 6.35z"></path>
</svg>
