<!-- Generated by IcoMoon.io -->
<svg version="1.1" xmlns="http://www.w3.org/2000/svg" width="32" height="32" viewBox="0 0 32 32">
<path d="M24.718 6.027c0.692 0.001 1.315 0.292 1.755 0.759l0.001 0.001c0.468 0.441 0.76 1.064 0.761 1.755v17.434c-0.046 1.371-1.145 2.47-2.512 2.516l-0.004 0h-17.42c-1.39-0.007-2.516-1.128-2.532-2.515v-17.438c0.018-1.387 1.143-2.506 2.532-2.513h1.213v-1.261c0-0.695 0.563-1.258 1.258-1.258v0 0c0.695 0 1.258 0.563 1.258 1.258v0 1.261h9.947v-1.261c0-0.695 0.563-1.258 1.258-1.258v0c0.695 0 1.258 0.563 1.258 1.258v0 1.261zM24.718 25.979v-13.694h-17.436v13.691zM9.247 14.678h2.639c0.149 0 0.27 0.121 0.27 0.27v2.639c0 0.149-0.121 0.27-0.27 0.27h-2.639c-0.149 0-0.27-0.121-0.27-0.27v-2.639c0-0.149 0.121-0.27 0.27-0.27zM14.739 14.678h2.639c0.149 0 0.27 0.121 0.27 0.27v2.639c0 0.149-0.121 0.27-0.27 0.27h-2.639c-0.149 0-0.27-0.121-0.27-0.27v-2.639c0-0.149 0.121-0.27 0.27-0.27zM20.114 14.678h2.639c0.149 0 0.27 0.121 0.27 0.27v2.639c0 0.149-0.121 0.27-0.27 0.27h-2.639c-0.149 0-0.27-0.121-0.27-0.27v-2.639c0-0.149 0.121-0.27 0.27-0.27zM9.247 20.403h2.639c0.149 0 0.27 0.121 0.27 0.27v2.639c0 0.149-0.121 0.27-0.27 0.27h-2.639c-0.149 0-0.27-0.121-0.27-0.27v-2.639c0-0.149 0.121-0.27 0.27-0.27zM14.739 20.403h2.639c0.149 0 0.27 0.121 0.27 0.27v2.639c0 0.149-0.121 0.27-0.27 0.27h-2.639c-0.149 0-0.27-0.121-0.27-0.27v-2.639c0-0.149 0.121-0.27 0.27-0.27zM20.114 20.403h2.639c0.149 0 0.27 0.121 0.27 0.27v2.639c0 0.149-0.121 0.27-0.27 0.27h-2.639c-0.149 0-0.27-0.121-0.27-0.27v-2.639c0-0.149 0.121-0.27 0.27-0.27z"></path>
</svg>
