<!-- Generated by IcoMoon.io -->
<svg version="1.1" xmlns="http://www.w3.org/2000/svg" width="32" height="32" viewBox="0 0 32 32">
<path d="M28.548 13.501h-2.035v-5.425c0.001-0.025 0.002-0.054 0.002-0.083 0-0.703-0.309-1.334-0.799-1.764l-0.003-0.002c-0.488-0.492-1.164-0.797-1.911-0.8h-5.365v-2.036c0-0.020 0.001-0.044 0.001-0.068 0-0.916-0.378-1.744-0.987-2.336l-0.001-0.001c-0.593-0.609-1.42-0.987-2.336-0.987-0.024 0-0.048 0-0.072 0.001l0.004-0c-0.031-0.001-0.067-0.002-0.103-0.002-0.886 0-1.683 0.38-2.238 0.986l-0.002 0.002c-0.609 0.593-0.987 1.421-0.987 2.337 0 0.024 0 0.048 0.001 0.072l-0-0.004v2.034h-5.364c-0.026-0.001-0.057-0.002-0.088-0.002-0.72 0-1.369 0.308-1.821 0.8l-0.002 0.002c-0.471 0.478-0.771 1.126-0.8 1.844l-0 0.005v5.117h2.035c1.006 0.002 1.919 0.402 2.59 1.050l-0.001-0.001c0.648 0.619 1.051 1.491 1.051 2.456 0 0.047-0.001 0.094-0.003 0.14l0-0.007c-0.002 1.007-0.401 1.92-1.049 2.592l0.001-0.001c-0.619 0.648-1.491 1.051-2.456 1.051-0.047 0-0.094-0.001-0.14-0.003l0.007 0h-1.913v5.117c-0.001 0.025-0.002 0.054-0.002 0.083 0 0.703 0.309 1.334 0.799 1.764l0.003 0.002c0.488 0.492 1.164 0.798 1.911 0.8h5.117v-2.033c0.003-1.972 1.601-3.571 3.573-3.573h0c1.008 0 1.922 0.399 2.595 1.047l-0.001-0.001c0.647 0.598 1.051 1.451 1.051 2.399 0 0.045-0.001 0.090-0.003 0.135l0-0.006v2.034h5.117c0.026 0.001 0.057 0.002 0.089 0.002 0.721 0 1.369-0.308 1.821-0.8l0.002-0.002c0.471-0.478 0.771-1.126 0.8-1.844l0-0.005v-5.426h2.035c0.031 0.001 0.067 0.002 0.103 0.002 0.886 0 1.683-0.38 2.238-0.986l0.002-0.002c0.608-0.571 0.987-1.38 0.987-2.278 0-0.023-0-0.046-0.001-0.068l0 0.003c0.001-0.031 0.002-0.067 0.002-0.103 0-0.886-0.38-1.683-0.986-2.238l-0.002-0.002c-0.629-0.61-1.488-0.986-2.435-0.986-0.011 0-0.022 0-0.033 0h0.002z"></path>
</svg>
