<!-- Generated by IcoMoon.io -->
<svg version="1.1" xmlns="http://www.w3.org/2000/svg" width="32" height="32" viewBox="0 0 32 32">
<path d="M26.613 2.768h-21.227c-0.002 0-0.004 0-0.006 0-0.728 0-1.317 0.59-1.317 1.317 0 0.309 0.107 0.594 0.285 0.819l-0.002-0.003 7.92 10.085c0.249 0.314 0.4 0.716 0.4 1.153 0 0.002 0 0.003 0 0.005v-0 12.368c-0 0.007-0 0.014-0 0.022 0 0.398 0.322 0.72 0.72 0.72 0.198 0 0.377-0.080 0.507-0.209l-0 0 5.115-5.061c0.233-0.23 0.378-0.549 0.379-0.901v-6.933c0-0.001 0-0.003 0-0.004 0-0.437 0.151-0.839 0.403-1.157l-0.003 0.004 7.867-10.091c0.177-0.222 0.283-0.507 0.283-0.816 0-0.728-0.59-1.317-1.317-1.317-0.002 0-0.004 0-0.006 0h0z"></path>
</svg>
