<!-- Generated by IcoMoon.io -->
<svg version="1.1" xmlns="http://www.w3.org/2000/svg" width="32" height="32" viewBox="0 0 32 32">
<path d="M28.241 13.553v-4.893c-0.004-1.35-1.098-2.444-2.448-2.447h-19.585c-1.346 0.005-2.436 1.097-2.436 2.444 0 0.001 0 0.002 0 0.003v-0 4.893c1.349 0.004 2.441 1.098 2.441 2.447 0 1.351-1.096 2.447-2.447 2.447-0.002 0-0.004 0-0.006 0h0v4.893c0.004 1.35 1.098 2.444 2.448 2.447h19.585c1.35-0.003 2.444-1.097 2.448-2.447v-4.894c-1.351 0-2.447-1.096-2.447-2.447s1.096-2.447 2.447-2.447v0zM25.793 11.767c-1.474 0.859-2.448 2.432-2.448 4.233s0.975 3.374 2.425 4.221l0.023 0.012v3.107h-19.585v-3.107c1.474-0.861 2.448-2.435 2.448-4.237 0-1.797-0.969-3.367-2.413-4.217l-0.023-0.012-0.012-3.107h19.585zM12.413 20.893l3.587-2.3 3.587 2.3-1.090-4.11 3.293-2.691-4.247-0.257-1.542-3.951-1.555 3.939-4.247 0.257 3.293 2.691-1.077 4.123z"></path>
</svg>
