<!-- Generated by IcoMoon.io -->
<svg version="1.1" xmlns="http://www.w3.org/2000/svg" width="32" height="32" viewBox="0 0 32 32">
<path d="M28.833 16.022l-0.507-12.063-12.063-0.507c-0.108-0.017-0.232-0.027-0.358-0.027-0.635 0-1.212 0.246-1.641 0.648l0.001-0.001-11.553 11.55c-0.382 0.408-0.617 0.957-0.617 1.562s0.235 1.155 0.618 1.563l-0.001-0.001 10.827 10.827c0.408 0.383 0.958 0.617 1.562 0.617s1.155-0.235 1.564-0.619l-0.001 0.001 11.627-11.627c0.356-0.413 0.573-0.955 0.573-1.548 0-0.133-0.011-0.263-0.032-0.39l0.002 0.014zM16.983 19.855l-2.53 3.258-1.4-3.88-3.88-1.4 3.258-2.531 0.132-4.123 3.413 2.316 3.962-1.148-1.148 3.962 2.316 3.413z"></path>
</svg>
