<!-- Generated by IcoMoon.io -->
<svg version="1.1" xmlns="http://www.w3.org/2000/svg" width="32" height="32" viewBox="0 0 32 32">
<path d="M21.631 16.046l-2.803 4.865h-0.009l-1.913 3.309h0.054l4.75-8.22-0.080 0.046zM10.342 16l2.829 4.911-2.827-4.915-0.002 0.004zM21.631 16.046v0zM18.82 20.911h0.009l2.803-4.865-2.811 4.865zM15.947 18.453c1.355 0 2.453-1.098 2.453-2.453s-1.098-2.453-2.453-2.453c-1.355 0-2.453 1.098-2.453 2.453v0c0 1.355 1.098 2.453 2.453 2.453v0zM25.075 15.36l-1.928-3.352h-3.787l2.298 3.992-0.027 0.046 0.080-0.046-4.751 8.22h3.040c0.006 0 0.014 0 0.021 0 0.453 0 0.847-0.257 1.042-0.634l0.003-0.007 4.008-6.994c0.1-0.177 0.16-0.388 0.16-0.613s-0.059-0.437-0.163-0.62l0.003 0.006zM17.766 20.911h-4.593l-2.831-4.911v-0.004l-1.87-3.253-1.547 2.667c-0.1 0.177-0.16 0.388-0.16 0.613s0.059 0.437 0.163 0.62l-0.003-0.006 4.004 6.939c0.218 0.374 0.612 0.625 1.065 0.64l0.002 0h3.858zM8.888 13.465l1.456 2.532 0.003-0.005-1.459-2.527zM21.071 8.42c-0.209-0.383-0.608-0.639-1.067-0.64h-8.008c-0.006-0-0.014-0-0.021-0-0.453 0-0.847 0.257-1.042 0.634l-0.003 0.007-1.93 3.399 1.878 3.253 2.293-3.982h9.448z"></path>
</svg>
