<!-- Generated by IcoMoon.io -->
<svg version="1.1" xmlns="http://www.w3.org/2000/svg" width="32" height="32" viewBox="0 0 32 32">
<path d="M25.28 26.080c0 2.156-1.748 3.904-3.904 3.904s-3.904-1.748-3.904-3.904c0-2.156 1.748-3.904 3.904-3.904s3.904 1.748 3.904 3.904zM15.2 7.744c-3.52 0-6.4 2.848-6.4 6.4s2.848 6.4 6.4 6.4 6.4-2.848 6.4-6.4-2.88-6.4-6.4-6.4zM15.2 18.048c-2.144 0-3.904-1.76-3.904-3.904s1.76-3.904 3.904-3.904 3.904 1.76 3.904 3.904c0 2.144-1.76 3.904-3.904 3.904zM29.728 15.168c0 1.308-1.060 2.368-2.368 2.368s-2.368-1.060-2.368-2.368c0-1.308 1.060-2.368 2.368-2.368s2.368 1.060 2.368 2.368zM7.008 21.344c0 1.308-1.060 2.368-2.368 2.368s-2.368-1.060-2.368-2.368c0-1.308 1.060-2.368 2.368-2.368s2.368 1.060 2.368 2.368zM9.28 5.376c0 1.308-1.060 2.368-2.368 2.368s-2.368-1.060-2.368-2.368c0-1.308 1.060-2.368 2.368-2.368s2.368 1.060 2.368 2.368zM5.024 18.464c-0.032 0-0.032 0-0.064 0-0.352-0.032-0.608-0.352-0.576-0.704l0.96-8.96c0.032-0.352 0.352-0.608 0.704-0.576s0.608 0.352 0.576 0.704l-0.96 8.96c-0.032 0.32-0.32 0.576-0.64 0.576zM16.32 25.312c-0.064 0-0.128 0-0.16-0.032l-8.224-2.336c-0.352-0.096-0.544-0.448-0.448-0.8s0.448-0.544 0.8-0.448l8.224 2.336c0.352 0.096 0.544 0.448 0.448 0.8-0.096 0.288-0.352 0.48-0.64 0.48zM10.112 9.408c-0.16 0-0.352-0.064-0.48-0.192l-0.8-0.832c-0.256-0.256-0.224-0.672 0.032-0.896 0.256-0.256 0.672-0.224 0.896 0.032l0.8 0.8c0.256 0.256 0.224 0.672-0.032 0.896-0.096 0.128-0.256 0.192-0.416 0.192zM23.584 21.824c-0.096 0-0.224-0.032-0.32-0.096-0.32-0.192-0.416-0.576-0.224-0.864l1.216-2.048c0.192-0.32 0.576-0.416 0.864-0.224s0.416 0.576 0.224 0.864l-1.216 2.048c-0.128 0.224-0.32 0.32-0.544 0.32zM24.064 15.488c-0.032 0-0.032 0 0 0l-1.568-0.064c-0.352 0-0.64-0.32-0.608-0.672s0.32-0.608 0.672-0.608l1.536 0.064c0.352 0 0.64 0.32 0.608 0.672s-0.32 0.608-0.64 0.608zM18.848 22.144c-0.224 0-0.448-0.128-0.576-0.352l-0.352-0.736c-0.16-0.32-0.032-0.704 0.288-0.864s0.704-0.032 0.864 0.288l0.352 0.704c0.16 0.32 0.032 0.704-0.288 0.864-0.096 0.064-0.192 0.096-0.288 0.096z"></path>
</svg>
