<!-- Generated by IcoMoon.io -->
<svg version="1.1" xmlns="http://www.w3.org/2000/svg" width="32" height="32" viewBox="0 0 32 32">
<path d="M11.403 18.709c3.696 0 11.003 1.803 11.003 5.504v3.696h-22.005v-3.696c0-3.701 7.307-5.504 11.003-5.504zM23.605 19.051c3.696 0.603 7.995 2.32 7.995 5.157v3.696h-5.499v-3.696c0-2.149-0.944-3.781-2.496-5.157zM11.403 15.099c-3.008 0-5.504-2.491-5.504-5.504s2.496-5.499 5.504-5.499 5.504 2.491 5.504 5.504-2.496 5.499-5.504 5.499zM20.597 15.099c-0.603 0-1.12-0.085-1.632-0.256 1.029-1.461 1.632-3.264 1.632-5.243s-0.603-3.781-1.632-5.243c0.517-0.171 1.029-0.256 1.632-0.256 3.008 0 5.504 2.491 5.504 5.504s-2.496 5.493-5.504 5.493z"></path>
</svg>
