<!-- Generated by IcoMoon.io -->
<svg version="1.1" xmlns="http://www.w3.org/2000/svg" width="32" height="32" viewBox="0 0 32 32">
<path d="M6.9 7.236c2.5-2.5 5.55-3.75 9.1-3.75s6.55 1.25 9.1 3.75c2.5 2.5 3.75 5.5 3.75 9.050s-1.25 6.55-3.75 9.050-5.55 3.75-9.1 3.75-6.55-1.25-9.1-3.75-3.75-5.5-3.75-9.050c0-3.55 1.25-6.55 3.75-9.050zM19.95 15.336c0.8-0.8 1.2-1.75 1.2-2.9 0-1.4-0.5-2.6-1.5-3.6s-2.2-1.5-3.65-1.5-2.65 0.5-3.65 1.5c-1 1-1.5 2.2-1.5 3.6h2.6c0-0.7 0.25-1.35 0.75-1.85s1.1-0.75 1.8-0.75 1.3 0.25 1.8 0.75c0.5 0.5 0.75 1.1 0.75 1.85s-0.25 1.3-0.8 1.8l-1.55 1.6c-1 1-1.5 2.2-1.5 3.6v0.65h2.6c0-0.9 0.1-1.55 0.35-2.050 0.2-0.5 0.6-1 1.15-1.55l1.15-1.15zM17.3 25.236v-2.55h-2.6v2.55h2.6z"></path>
</svg>
