<!-- Generated by IcoMoon.io -->
<svg version="1.1" xmlns="http://www.w3.org/2000/svg" width="32" height="32" viewBox="0 0 32 32">
<path d="M27.84 6.152c-1.379-1.414-3.304-2.291-5.432-2.291-0.062 0-0.124 0.001-0.186 0.002l0.009-0c-0.041-0.001-0.089-0.001-0.137-0.001-2.429 0-4.607 1.074-6.085 2.773l-0.008 0.010c-1.487-1.709-3.665-2.783-6.094-2.783-0.048 0-0.096 0-0.144 0.001l0.007-0c-0.052-0.001-0.114-0.002-0.176-0.002-2.129 0-4.053 0.877-5.431 2.289l-0.002 0.002c-1.391 1.389-2.252 3.309-2.252 5.431 0 0.050 0 0.101 0.001 0.151l-0-0.008c0.066 2.019 0.701 3.876 1.75 5.432l-0.023-0.037c1.112 1.806 2.335 3.373 3.71 4.791l-0.007-0.007c1.317 1.339 3.494 3.374 6.473 6.051l2.19 1.907 2.187-1.976c2.285-2.069 3.968-3.621 5.003-4.613s2.212-2.245 3.49-3.717c1.071-1.161 1.968-2.504 2.636-3.973l0.038-0.094c0.462-1.114 0.732-2.408 0.733-3.765v-0.001c0.001-0.042 0.001-0.092 0.001-0.142 0-2.121-0.86-4.041-2.251-5.43l-0-0zM22.354 18.024h-4.564v4.539h-3.581v-4.539h-4.564v-3.477h4.564v-4.539h3.581v4.539h4.564z"></path>
</svg>
