<!-- Generated by IcoMoon.io -->
<svg version="1.1" xmlns="http://www.w3.org/2000/svg" width="32" height="32" viewBox="0 0 32 32">
<path d="M5.284 9.47h0.335l7.814 14.453c-0.487 0.603-0.782 1.378-0.782 2.223 0 0.023 0 0.046 0.001 0.069l-0-0.003c0 2.034 1.649 3.684 3.684 3.684s3.684-1.649 3.684-3.684c0-2.034-1.649-3.684-3.684-3.684v0c-0.027-0.002-0.059-0.003-0.091-0.003-0.146 0-0.288 0.020-0.423 0.059l0.011-0.003-6.921-13 0.447 0.279 1.451-2.4-0.558-0.335h13.060c0.178 0.433 0.423 0.804 0.727 1.117l-0.001-0.001-2.011 4.019c-0.167 0-0.279-0.053-0.446-0.053-0.015-0-0.034-0-0.052-0-0.903 0-1.727 0.339-2.352 0.896l0.003-0.003 0.279-0.39-1.898-1.173-1.562 2.455 1.898 1.173 0.053-0.111c-0.064 0.282-0.103 0.608-0.109 0.943l-0 0.005c0 2.034 1.649 3.684 3.684 3.684s3.684-1.649 3.684-3.684v0c0-0.008 0-0.017 0-0.026 0-0.857-0.295-1.646-0.788-2.27l0.006 0.008 2.121-4.242h0.167c2.027-0.018 3.666-1.656 3.685-3.682v-0.002c-0.018-2.027-1.657-3.666-3.682-3.684h-0.002c-0.002 0-0.004 0-0.006 0-1.529 0-2.839 0.935-3.39 2.264l-0.009 0.024h-14.623c-0.56-1.354-1.87-2.289-3.399-2.289-0.002 0-0.004 0-0.007 0h0c-2.027 0.018-3.666 1.657-3.684 3.682v0.002c0.019 2.027 1.657 3.665 3.682 3.684h0.002zM10.293 10.439l1.463-2.377 1.901 1.17-1.463 2.377-1.901-1.17zM13.12 12.186l1.463-2.377 1.901 1.17-1.463 2.377z"></path>
</svg>
