<!-- Generated by IcoMoon.io -->
<svg version="1.1" xmlns="http://www.w3.org/2000/svg" width="32" height="32" viewBox="0 0 32 32">
<path d="M28.421 12.167h-2.341v-4.327c0-0.12-0.098-0.218-0.218-0.218h-1.298v-1.299c0-0.12-0.098-0.218-0.218-0.218v0h-1.078c-0.12 0-0.218 0.098-0.218 0.218v0 1.297h-1.297c-0.12 0-0.218 0.098-0.218 0.218v0 17.335c0 0.036 0.009 0.069 0.023 0.099l-0.001-0.001 1.471 2.944c0.013 0.025 0.020 0.055 0.020 0.086v0.403c0 0 0 0 0 0 0 0.121 0.098 0.218 0.218 0.219h1.078c0.12 0 0.218-0.098 0.218-0.218v0-0.403c0-0.031 0.008-0.061 0.021-0.088l-0 0.001 1.471-2.944c0.015-0.028 0.024-0.062 0.024-0.097v-11.491h1.046v3.438c0 0 0 0 0 0 0 0.135 0.11 0.245 0.245 0.245 0.081 0 0.153-0.040 0.198-0.101l0-0.001 0.986-1.364c0.053-0.073 0.085-0.165 0.085-0.264 0-0.001 0-0.002 0-0.002v0-3.253c-0.003-0.118-0.099-0.212-0.218-0.212-0 0-0.001 0-0.001 0h0zM24.564 24.869l-0.757 1.516-0.757-1.516v-11.187h1.514zM24.564 12.167h-1.514v-3.031h1.514zM16.992 4.59h-3.159c-0.321-0.89-1.159-1.515-2.142-1.515s-1.821 0.625-2.137 1.499l-0.005 0.016h-3.159v1.515h-3.030v22.819h16.661v-22.819h-3.029zM11.904 24.076h-2.997c-0.003 0-0.007 0-0.011 0-0.391 0-0.719-0.272-0.804-0.637l-0.001-0.006c-0.011-0.050-0.017-0.107-0.017-0.166 0-0.449 0.364-0.813 0.813-0.813 0.001 0 0.001 0 0.002 0h2.995c0.004-0 0.008-0 0.012-0 0.39 0 0.717 0.271 0.803 0.634l0.001 0.006c0.011 0.051 0.018 0.109 0.018 0.169 0 0.449-0.364 0.813-0.813 0.813h-0zM14.494 20.647h-5.56c-0.005 0-0.011 0-0.018 0-0.439 0-0.8-0.336-0.839-0.765l-0-0.003c-0.001-0.013-0.001-0.028-0.001-0.043 0-0.449 0.364-0.813 0.812-0.813h5.56c0.005-0 0.012-0 0.018-0 0.44 0 0.801 0.336 0.84 0.765l0 0.003c0.001 0.013 0.001 0.028 0.001 0.044 0 0.449-0.364 0.812-0.812 0.812-0.001 0-0.001 0-0.002 0h0zM14.494 17.219h-5.587c-0.003 0-0.007 0-0.011 0-0.391 0-0.719-0.272-0.804-0.637l-0.001-0.006c-0.011-0.051-0.018-0.109-0.018-0.169 0-0.449 0.364-0.813 0.813-0.813h5.587c0.003-0 0.007-0 0.011-0 0.391 0 0.719 0.272 0.804 0.638l0.001 0.006c0.011 0.051 0.018 0.109 0.018 0.169 0 0.449-0.364 0.813-0.813 0.813-0 0-0 0-0 0v0zM14.494 13.791h-5.56c-0.005 0-0.011 0-0.017 0-0.44 0-0.801-0.336-0.84-0.766l-0-0.003c-0.001-0.012-0.001-0.027-0.001-0.041 0-0.449 0.364-0.812 0.812-0.812h5.56c0.006-0 0.012-0 0.019-0 0.439 0 0.799 0.335 0.839 0.763l0 0.003c0.001 0.013 0.001 0.028 0.001 0.043 0 0.449-0.364 0.813-0.813 0.813-0 0-0.001 0-0.001 0h0zM15.477 7.62h-7.573v-1.515h3.029v-0.727c-0-0.004-0-0.009-0-0.014 0-0.369 0.257-0.678 0.601-0.758l0.005-0.001c0.045-0.009 0.096-0.015 0.148-0.015 0.418 0 0.758 0.339 0.758 0.757v0.757h3.029z"></path>
</svg>
