<!-- Generated by IcoMoon.io -->
<svg version="1.1" xmlns="http://www.w3.org/2000/svg" width="32" height="32" viewBox="0 0 32 32">
<path d="M23.675 24.827c-0.901 0-1.723-0.123-2.469-0.368s-1.429-0.576-2.048-0.992c-0.624-0.416-1.189-0.907-1.707-1.461s-0.992-1.147-1.435-1.765c-0.443 0.624-0.923 1.211-1.451 1.765-0.523 0.555-1.099 1.045-1.717 1.461-0.624 0.416-1.307 0.747-2.048 0.992-0.747 0.245-1.568 0.368-2.469 0.368-1.083 0-2.112-0.219-3.093-0.651s-1.84-1.040-2.576-1.819c-0.736-0.779-1.323-1.707-1.755-2.789s-0.651-2.277-0.651-3.584c0-1.291 0.219-2.48 0.651-3.563s1.019-2.011 1.755-2.784c0.736-0.779 1.595-1.381 2.576-1.819 0.981-0.432 2.011-0.651 3.093-0.651 0.901 0 1.723 0.123 2.469 0.368s1.429 0.576 2.048 0.992c0.624 0.416 1.195 0.907 1.717 1.461s1.008 1.147 1.451 1.765c0.443-0.624 0.923-1.211 1.435-1.765 0.517-0.555 1.083-1.045 1.707-1.461s1.307-0.747 2.048-0.992c0.747-0.245 1.568-0.368 2.469-0.368 1.083 0 2.112 0.219 3.093 0.651s1.84 1.040 2.576 1.819c0.736 0.779 1.323 1.707 1.755 2.784 0.432 1.083 0.651 2.267 0.651 3.563 0 1.312-0.219 2.501-0.651 3.584s-1.019 2.011-1.755 2.789c-0.736 0.779-1.595 1.381-2.576 1.819-0.981 0.432-2.016 0.651-3.093 0.651zM8.571 19.941c0.491 0 0.955-0.101 1.387-0.309 0.432-0.203 0.843-0.48 1.227-0.837 0.384-0.352 0.752-0.768 1.104-1.253 0.352-0.48 0.699-0.992 1.045-1.536-0.341-0.555-0.693-1.072-1.045-1.547s-0.72-0.891-1.104-1.253c-0.384-0.357-0.795-0.64-1.227-0.848-0.432-0.203-0.896-0.309-1.387-0.309-0.475 0-0.923 0.075-1.349 0.224s-0.8 0.379-1.131 0.699c-0.325 0.32-0.587 0.731-0.784 1.227-0.197 0.501-0.293 1.093-0.293 1.781 0 0.704 0.096 1.307 0.293 1.803 0.197 0.501 0.459 0.907 0.784 1.227s0.704 0.555 1.131 0.699c0.427 0.16 0.875 0.235 1.349 0.235zM23.429 19.941c0.475 0 0.928-0.075 1.365-0.219 0.432-0.149 0.816-0.379 1.141-0.699s0.587-0.731 0.773-1.227c0.187-0.501 0.283-1.099 0.283-1.803 0-0.688-0.096-1.28-0.293-1.781s-0.459-0.907-0.784-1.227c-0.325-0.32-0.704-0.555-1.131-0.699-0.427-0.149-0.875-0.224-1.349-0.224-0.507 0-0.976 0.101-1.397 0.309-0.427 0.203-0.832 0.485-1.216 0.848s-0.747 0.779-1.093 1.253c-0.341 0.475-0.688 0.992-1.029 1.547 0.341 0.539 0.688 1.051 1.029 1.536s0.709 0.901 1.093 1.253c0.384 0.352 0.789 0.629 1.216 0.837 0.416 0.192 0.88 0.293 1.392 0.293z"></path>
</svg>
