<!-- Generated by IcoMoon.io -->
<svg version="1.1" xmlns="http://www.w3.org/2000/svg" width="32" height="32" viewBox="0 0 32 32">
<path d="M25.264 6.795c-2.293-2.377-5.505-3.852-9.063-3.852-0.071 0-0.141 0.001-0.212 0.002l0.011-0c-0.060-0.001-0.13-0.002-0.201-0.002-3.557 0-6.77 1.476-9.059 3.849l-0.004 0.004c-2.378 2.258-3.858 5.442-3.858 8.973 0 0.082 0.001 0.163 0.002 0.245l-0-0.012c-0.001 0.071-0.002 0.154-0.002 0.238 0 3.528 1.478 6.71 3.848 8.963l0.005 0.005c2.293 2.377 5.505 3.852 9.063 3.852 0.073 0 0.145-0.001 0.217-0.002l-0.011 0c0.060 0.001 0.13 0.002 0.201 0.002 3.557 0 6.77-1.476 9.059-3.849l0.004-0.004c2.378-2.258 3.858-5.442 3.858-8.973 0-0.082-0.001-0.163-0.002-0.245l0 0.012c0.001-0.069 0.002-0.151 0.002-0.233 0-3.53-1.48-6.715-3.853-8.968l-0.005-0.005zM24.928 10.768h-3.813c-0.426-1.729-1.031-3.248-1.814-4.655l0.049 0.095c2.419 0.763 4.378 2.388 5.559 4.506l0.025 0.049zM16 5.531c1.012 1.504 1.851 3.24 2.426 5.091l0.038 0.141h-4.928c0.613-1.992 1.452-3.728 2.509-5.304l-0.045 0.072zM5.867 18.587c-0.161-0.77-0.261-1.662-0.277-2.574l-0-0.013c0.016-0.925 0.116-1.817 0.293-2.68l-0.016 0.094h4.379c-0.096 0.75-0.156 1.626-0.165 2.515l-0 0.013s0 0.043 0 0.059 0 0.043 0 0.059c0.009 0.902 0.069 1.778 0.177 2.64l-0.011-0.112h-4.379zM7.045 21.253h3.819c0.426 1.729 1.031 3.248 1.814 4.655l-0.049-0.095c-2.414-0.773-4.366-2.404-5.538-4.527l-0.025-0.049zM10.864 10.784h-3.797c1.205-2.169 3.164-3.796 5.516-4.541l0.068-0.019c-0.732 1.306-1.338 2.817-1.738 4.41l-0.027 0.129zM16 26.469c-1.012-1.504-1.851-3.24-2.426-5.091l-0.038-0.141h4.933c-0.615 1.992-1.455 3.728-2.514 5.303l0.045-0.071zM19.131 18.587h-6.261c-0.1-0.764-0.163-1.661-0.176-2.57l-0-0.017c0.015-0.928 0.080-1.824 0.194-2.705l-0.013 0.119h6.256c0.1 0.764 0.163 1.661 0.176 2.57l0 0.017c-0.013 0.926-0.076 1.823-0.188 2.704l0.012-0.117zM19.349 25.792c0.734-1.312 1.34-2.831 1.738-4.432l0.027-0.128h3.819c-1.204 2.171-3.163 3.8-5.516 4.547l-0.068 0.019zM21.728 18.587c0.096-0.75 0.156-1.626 0.165-2.515l0-0.013s0-0.043 0-0.059 0-0.043 0-0.059c-0.009-0.902-0.069-1.778-0.177-2.64l0.011 0.112h4.405c0.161 0.77 0.261 1.662 0.277 2.574l0 0.013c-0.016 0.925-0.116 1.817-0.293 2.68l0.016-0.094h-4.405z"></path>
</svg>
