<!-- Generated by IcoMoon.io -->
<svg version="1.1" xmlns="http://www.w3.org/2000/svg" width="32" height="32" viewBox="0 0 32 32">
<path d="M24.297 3.396l-1.915 2.234-2.712-2.234c-0.132-0.101-0.299-0.162-0.48-0.162s-0.348 0.061-0.482 0.163l0.002-0.001-2.71 2.234-2.713-2.234c-0.132-0.101-0.299-0.162-0.48-0.162s-0.348 0.061-0.482 0.163l0.002-0.001-2.712 2.234-1.915-2.234c-0.132-0.1-0.299-0.16-0.479-0.16-0.44 0-0.797 0.357-0.797 0.797 0 0.001 0 0.003 0 0.004v-0 23.931c0 0.001 0 0.002 0 0.004 0 0.44 0.357 0.797 0.797 0.797 0.181 0 0.348-0.060 0.481-0.162l-0.002 0.001 1.915-2.234 2.712 2.234c0.132 0.101 0.299 0.162 0.48 0.162s0.348-0.061 0.482-0.163l-0.002 0.001 2.713-2.236 2.713 2.234c0.132 0.101 0.299 0.162 0.48 0.162s0.348-0.061 0.482-0.163l-0.002 0.001 2.712-2.234 1.915 2.234c0.131 0.098 0.297 0.157 0.476 0.157 0.441 0 0.798-0.357 0.8-0.797v-23.931c0-0.001 0-0.002 0-0.003 0-0.44-0.357-0.797-0.797-0.797-0.182 0-0.35 0.061-0.484 0.164l0.002-0.001zM22.382 21.185c-0 0.22-0.179 0.399-0.399 0.399h-11.966c-0.22-0-0.399-0.179-0.399-0.399v-0.8c0-0.22 0.179-0.399 0.399-0.399h11.966c0.22 0 0.399 0.179 0.399 0.399v0zM22.382 16.399c-0.001 0.22-0.179 0.398-0.399 0.399h-11.966c-0.22-0.001-0.398-0.179-0.399-0.399v-0.8c0.001-0.22 0.179-0.398 0.399-0.399h11.966c0.22 0.001 0.398 0.179 0.399 0.399v0zM22.382 11.612c-0 0.22-0.179 0.399-0.399 0.399h-11.966c-0.22-0-0.399-0.179-0.399-0.399v-0.8c0-0.22 0.179-0.399 0.399-0.399h11.966c0.22 0 0.399 0.179 0.399 0.399v0z"></path>
</svg>
