<!-- Generated by IcoMoon.io -->
<svg version="1.1" xmlns="http://www.w3.org/2000/svg" width="32" height="32" viewBox="0 0 32 32">
<path d="M4.65 7.2h3.65v18.75h-3.65v-18.75zM14.7 7.2l-6.5 20.35h1.35l6.5-20.35h-1.35zM22.2 6.9c-2 0-3.55 0.6-4.75 1.85s-1.8 2.95-1.8 5.15v5.25c0 2.2 0.6 3.9 1.8 5.15s2.75 1.85 4.75 1.85c2 0 3.55-0.6 4.75-1.85s1.8-2.95 1.8-5.15v-5.2c0-2.2-0.6-3.9-1.8-5.15-1.15-1.25-2.75-1.9-4.75-1.9zM25.15 19.2c0 1.35-0.25 2.4-0.75 3.050-0.5 0.7-1.2 1-2.15 1s-1.65-0.35-2.15-1c-0.5-0.7-0.75-1.7-0.75-3.050v-5.3c0-1.35 0.25-2.35 0.7-3.050s1.2-1 2.15-1c0.95 0 1.7 0.35 2.2 1.050s0.75 1.7 0.75 3.050v5.25z"></path>
</svg>
