<!-- Generated by IcoMoon.io -->
<svg version="1.1" xmlns="http://www.w3.org/2000/svg" width="32" height="32" viewBox="0 0 32 32">
<path d="M18.050 2.586h-12.3v27.35h20.55v-19.15l-8.25-8.2zM16.75 4.636l7.5 7.5h-7.5v-7.5zM9.4 26.836c0 0.8-0.45 1.6-1.6 1.6h-0.8v-1.15h0.55c0.35 0 0.5-0.15 0.5-0.5h-0.050v-5.95h1.4v6zM9.4 19.886h-1.4v-1.1h1.4v1.1zM12.3 26.386c-0.85 0-1.65-0.1-2.35-0.8l0.9-0.9c0.45 0.45 1.050 0.5 1.45 0.5 0.45 0 0.95-0.15 0.95-0.55 0-0.25-0.15-0.45-0.6-0.5l-0.85-0.1c-1-0.1-1.6-0.55-1.6-1.55 0-1.15 1.050-1.75 2.15-1.75 0.85 0 1.55 0.15 2.1 0.65l-0.85 0.85c-0.35-0.25-0.8-0.35-1.3-0.35-0.55 0-0.8 0.25-0.8 0.55 0 0.2 0.050 0.45 0.55 0.5l0.85 0.1c1.1 0.1 1.65 0.7 1.75 1.55 0 1.2-1.050 1.8-2.35 1.8zM19 25.786c-0.3 0.4-0.9 0.7-1.7 0.7s-1.35-0.35-1.7-0.7c-0.45-0.5-0.6-1.15-0.6-2.15s0.1-1.65 0.6-2.15c0.35-0.4 0.9-0.7 1.7-0.7s1.35 0.35 1.7 0.7c0.45 0.55 0.6 1.15 0.6 2.15s-0.1 1.65-0.6 2.15zM25 26.336h-1.45v-3.35c0-0.75-0.45-1-0.9-1-0.4 0-0.9 0.25-0.9 1v3.35h-1.4v-5.5h1.35v0.5c0.4-0.35 0.9-0.55 1.4-0.55 0.6 0 1 0.2 1.35 0.45 0.45 0.45 0.55 0.95 0.55 1.55v3.55zM17.3 22.036c-0.3 0-0.5 0.1-0.65 0.25-0.25 0.3-0.3 0.8-0.3 1.35 0 0.6 0 1.050 0.3 1.35 0.15 0.15 0.35 0.25 0.65 0.25s0.5-0.1 0.65-0.25c0.25-0.3 0.3-0.8 0.3-1.35 0-0.6 0-1.050-0.3-1.35-0.15-0.15-0.35-0.25-0.65-0.25z"></path>
</svg>
