<!-- Generated by IcoMoon.io -->
<svg version="1.1" xmlns="http://www.w3.org/2000/svg" width="32" height="32" viewBox="0 0 32 32">
<path d="M19.867 3.627c-4.699 0.003-8.507 3.813-8.507 8.513 0 0.951 0.156 1.866 0.444 2.72l-0.018-0.060-7.821 7.821c-0.209 0.21-0.339 0.499-0.339 0.819 0 0 0 0.001 0 0.001v-0 3.773c0 0.64 0.519 1.159 1.159 1.159h5.508v-3.627h4.16v-2.56h2.338l1.49-1.695c0.479 0.096 1.029 0.15 1.593 0.15 4.699 0 8.508-3.809 8.508-8.508s-3.809-8.508-8.508-8.508c-0.002 0-0.004 0-0.006 0h0zM22.187 12.133c-1.282 0-2.321-1.039-2.321-2.321s1.039-2.321 2.321-2.321c1.282 0 2.321 1.039 2.321 2.321 0 0 0 0 0 0.001v-0c0 0 0 0 0 0.001 0 1.281-1.038 2.319-2.319 2.319-0 0-0.001 0-0.001 0h0z"></path>
</svg>
