<!-- Generated by IcoMoon.io -->
<svg version="1.1" xmlns="http://www.w3.org/2000/svg" width="32" height="32" viewBox="0 0 32 32">
<path d="M27 14.8l-4.9 4.9c-2.7 2.7-7.050 2.7-9.75 0-0.4-0.4-0.75-0.9-1.050-1.4l2.25-2.25c0.1-0.1 0.25-0.15 0.35-0.25 0.15 0.55 0.45 1.050 0.85 1.45 1.35 1.35 3.55 1.35 4.9 0l4.9-4.9c1.35-1.35 1.35-3.55 0-4.9s-3.55-1.35-4.9 0l-1.75 1.75c-1.4-0.55-2.9-0.7-4.4-0.5l3.7-3.7c2.7-2.7 7.050-2.7 9.75 0 2.75 2.7 2.75 7.1 0.050 9.8zM14.1 22.8l-1.75 1.75c-1.35 1.35-3.55 1.35-4.9 0s-1.35-3.55 0-4.9l4.9-4.9c1.35-1.35 3.55-1.35 4.9 0 0.4 0.4 0.7 0.95 0.85 1.45 0.15-0.050 0.25-0.15 0.35-0.25l2.25-2.25c-0.3-0.5-0.6-0.95-1.050-1.4-2.7-2.7-7.050-2.7-9.75 0l-4.9 4.9c-2.7 2.7-2.7 7.1 0 9.8s7.050 2.7 9.75 0l3.7-3.7c-1.45 0.2-2.95 0.050-4.35-0.5z"></path>
</svg>
