<!-- Generated by IcoMoon.io -->
<svg version="1.1" xmlns="http://www.w3.org/2000/svg" width="32" height="32" viewBox="0 0 32 32">
<path d="M27.915 14.701l-5.306 5.306c-1.349 1.355-3.216 2.193-5.279 2.193s-3.929-0.838-5.278-2.192l-0-0c-0.426-0.444-0.802-0.941-1.117-1.478l-0.020-0.037 2.436-2.437c0.107-0.107 0.271-0.16 0.379-0.271 0.175 0.618 0.494 1.147 0.92 1.57l0 0c0.68 0.677 1.617 1.096 2.653 1.096s1.973-0.419 2.653-1.096l5.306-5.306c0.695-0.681 1.125-1.63 1.125-2.679 0-2.072-1.68-3.752-3.752-3.752-1.049 0-1.998 0.431-2.679 1.125l-1.896 1.896c-1.015-0.403-2.19-0.637-3.421-0.637-0.474 0-0.94 0.035-1.396 0.102l0.052-0.006 4.007-4.007c1.358-1.358 3.234-2.198 5.307-2.198 4.145 0 7.505 3.36 7.505 7.505 0 2.072-0.84 3.949-2.198 5.307v0zM13.946 23.363l-1.893 1.895c-0.676 0.663-1.604 1.073-2.627 1.073-2.072 0-3.752-1.68-3.752-3.752 0-1.023 0.409-1.95 1.073-2.627l5.306-5.306c0.68-0.678 1.617-1.096 2.653-1.096s1.973 0.419 2.653 1.097l-0-0c0.414 0.43 0.731 0.957 0.913 1.543l0.007 0.028c0.151-0.061 0.278-0.153 0.378-0.27l0.001-0.001 2.436-2.436c-1.291-2.251-3.679-3.742-6.416-3.742-2.069 0-3.939 0.852-5.277 2.225l-0.002 0.002-5.308 5.306c-1.363 1.356-2.206 3.233-2.206 5.307 0 4.134 3.352 7.486 7.486 7.486 2.061 0 3.927-0.833 5.28-2.18l4.007-4.007c-0.397 0.060-0.855 0.094-1.321 0.094-1.219 0-2.384-0.233-3.453-0.657l0.063 0.022z"></path>
</svg>
