<!-- Generated by IcoMoon.io -->
<svg version="1.1" xmlns="http://www.w3.org/2000/svg" width="32" height="32" viewBox="0 0 32 32">
<path d="M25.050 2.495c0.002 0 0.005 0 0.007 0 0.84 0 1.6 0.343 2.147 0.897l0 0c0.575 0.536 0.934 1.298 0.934 2.143 0 0.017-0 0.034-0 0.050l0-0.003v21.476c0 0.003 0 0.007 0 0.011 0 0.835-0.359 1.585-0.932 2.106l-0.002 0.002c-0.547 0.554-1.307 0.898-2.147 0.898-0.003 0-0.005 0-0.008 0h-18.1c-0.002 0-0.005 0-0.007 0-0.84 0-1.6-0.343-2.147-0.897l-0-0c-0.575-0.523-0.934-1.273-0.934-2.108 0-0.004 0-0.008 0-0.012v0.001-6.177h3.089v6.177h18.1v-21.547h-18.1v6.177h-3.089v-6.106c0.001-0.849 0.359-1.614 0.932-2.153l0.002-0.001c0.54-0.575 1.306-0.933 2.155-0.934h0zM13.899 22.391v-4.597h-10.038v-3.017h10.038v-4.597l6.105 6.106z"></path>
</svg>
