<!-- Generated by IcoMoon.io -->
<svg version="1.1" xmlns="http://www.w3.org/2000/svg" width="148" height="32" viewBox="0 0 148 32">
<path d="M6.977 8.536l-0.039-0.351 3.157 0.429c-0.078 0.78-0.819 1.286-1.637 1.208h-0.039c-0.741-0.039-1.325-0.585-1.442-1.286zM21.047 18.358c3.352-0.974 5.691-4.054 5.691-7.561 0-4.365-3.547-7.873-7.873-7.873h-14.343v3.001c2.884-0.935 6.392 0.351 7.912 2.222 0 0 7.367-0.624 8.38 4.171 0 0-6.977-2.962-10.797 2.534-0.935 1.286-1.169 2.845-1.676 4.794-1.052 3.586-1.637 6.236-3.040 9.043h5.028l1.793-8.419h2.806l4.95 8.38h6.392l-5.924-9.978 0.624-0.351h0.078zM118.996 12.239c0.858 1.559 1.247 3.43 1.247 5.613 0 2.222-0.429 4.21-1.286 5.847s-2.183 2.845-3.82 3.664c-1.637 0.819-3.586 1.208-5.808 1.208h-6.353v-21.047h6.938c2.027 0 3.859 0.39 5.418 1.169 1.598 0.819 2.806 1.949 3.664 3.547zM115.566 17.968c0-1.559-0.234-2.689-0.741-3.586-0.429-0.857-1.052-1.442-1.871-1.871-0.858-0.429-1.988-0.663-3.352-0.663h-1.988v12.512h1.442c2.339 0 3.898-0.585 4.872-1.559 1.052-0.974 1.637-2.534 1.637-4.833zM138.251 22.178c0 1.286-0.273 2.534-0.974 3.547-0.663 1.013-1.598 1.754-2.767 2.222s-2.456 0.663-3.898 0.663h-7.717v-21.086h6.47c1.637 0 3.040 0.156 4.209 0.468 1.208 0.351 2.261 0.935 3.001 1.871s1.052 2.144 1.052 3.43c0 0.857-0.156 1.676-0.546 2.456-0.273 0.624-0.741 1.208-1.286 1.637 0.741 0.429 1.286 1.013 1.754 1.754 0.468 0.858 0.702 1.871 0.702 3.040zM127.454 15.552h2.378c1.559 0 2.339-0.234 2.572-0.468 0.273-0.234 0.546-0.663 0.546-1.481 0-0.741-0.234-1.052-0.585-1.247-0.429-0.273-1.364-0.546-2.884-0.546h-2.027v3.742zM133.457 21.905c0-0.468-0.078-0.858-0.273-1.169-0.078-0.195-0.39-0.429-0.857-0.624s-1.208-0.351-2.339-0.351h-2.534v4.56h2.65c1.598 0 2.378-0.351 2.689-0.624 0.429-0.39 0.663-0.935 0.663-1.793zM98.962 13.447c-0.429-0.741-1.052-1.286-1.871-1.676-0.819-0.429-1.871-0.624-3.235-0.624-0.624 0-1.208 0.078-1.754 0.234s-1.013 0.39-1.442 0.624c-0.39 0.234-0.78 0.546-1.052 0.857-0.273 0.273-0.546 0.624-0.663 0.974h-0.039v-2.339h-5.184v17.072h5.262v-8.497c0-0.546 0.039-1.052 0.078-1.598 0.078-0.468 0.234-0.974 0.429-1.364 0.234-0.39 0.546-0.741 0.974-0.974s0.974-0.39 1.637-0.39 1.208 0.156 1.559 0.429c0.39 0.234 0.663 0.624 0.819 1.052 0.195 0.429 0.351 0.935 0.351 1.442 0.039 0.468 0.039 1.013 0.039 1.481v8.38h5.301v-9.315c0-1.169-0.078-2.222-0.234-3.196-0.234-0.974-0.507-1.832-0.974-2.572zM43.42 16.175c0.234 1.13 0.351 2.339 0.351 3.781v8.653h-4.833v-2.144h-0.039c-0.585 0.935-1.403 1.559-2.261 2.027-0.974 0.39-1.988 0.585-3.040 0.585-0.819 0-1.598-0.078-2.339-0.351-0.741-0.195-1.364-0.546-1.949-0.974s-1.013-0.974-1.364-1.637c-0.351-0.624-0.468-1.403-0.468-2.261 0-1.013 0.195-1.832 0.546-2.534 0.351-0.663 0.819-1.247 1.442-1.676s1.364-0.78 2.144-1.013c0.818-0.273 1.637-0.468 2.456-0.585 0.858-0.078 1.754-0.195 2.572-0.195 0.858-0.039 1.637-0.039 2.378-0.039 0-0.974-0.351-1.676-1.013-2.222s-1.442-0.819-2.378-0.819c-0.858 0-1.637 0.195-2.378 0.585-0.663 0.351-1.286 0.819-1.871 1.442l-2.806-2.884c0.974-0.935 2.144-1.598 3.43-2.027 1.286-0.468 2.65-0.741 4.054-0.741 1.559 0 2.806 0.195 3.781 0.585s1.793 0.974 2.378 1.676c0.546 0.741 0.974 1.637 1.208 2.767zM38.899 21.086h-1.247c-0.39 0-0.935 0-1.481 0.039-0.585 0-1.169 0.078-1.754 0.273-0.546 0.156-1.013 0.39-1.403 0.741s-0.585 0.78-0.585 1.364c0 0.624 0.273 1.13 0.819 1.403s1.13 0.429 1.676 0.429c0.546 0 1.013-0.039 1.442-0.195 0.468-0.156 0.935-0.351 1.286-0.585 0.39-0.234 0.663-0.585 0.858-0.974 0.234-0.39 0.351-0.858 0.351-1.403v-1.091zM54.178 23.074h-0.039l-4.287-11.537h-5.652l7.016 17.072h5.574l6.704-17.072h-5.262l-4.054 11.537zM80.604 16.37c0.39 1.13 0.585 2.339 0.585 3.664v1.637h-12.2c0.195 1.013 0.663 1.793 1.364 2.417 0.741 0.585 1.598 0.858 2.611 0.858 0.858 0 1.598-0.195 2.183-0.585 0.624-0.39 1.169-0.858 1.598-1.481l3.664 2.689c-0.819 1.13-1.871 1.949-3.196 2.534-1.286 0.624-2.65 0.935-4.015 0.858-1.286 0-2.572-0.195-3.742-0.624-1.13-0.429-2.144-1.013-3.001-1.793-0.819-0.819-1.481-1.754-1.988-2.845-0.468-1.13-0.741-2.339-0.741-3.664 0-1.364 0.234-2.572 0.741-3.664 0.468-1.13 1.169-2.027 1.988-2.806 0.858-0.819 1.832-1.403 3.001-1.832s2.417-0.624 3.742-0.624c1.208 0 2.339 0.195 3.274 0.624 1.013 0.429 1.832 1.052 2.534 1.832s1.247 1.676 1.598 2.806zM75.069 15.825c-0.585-0.624-1.364-0.935-2.378-0.974-0.585 0-1.13 0.078-1.559 0.273s-0.819 0.429-1.169 0.741c-0.273 0.273-0.546 0.624-0.741 1.013s-0.273 0.78-0.273 1.208h6.977c0.039-0.858-0.234-1.637-0.858-2.261z"></path>
</svg>
