<?xml version="1.0" encoding="UTF-8"?>
<svg xmlns="http://www.w3.org/2000/svg" version="1.1" viewBox="0 0 1024 1024">
  <!-- Generator: Adobe Illustrator 28.6.0, SVG Export Plug-In . SVG Version: 1.2.0 Build 709)  -->
  <g>
    <g id="Layer_1">
      <path d="M304,860.8l52.8-52.8,52.8,52.8,52.8-52.8,52.8,52.8,52.8-52.8,52.8,52.8,52.8-52.8,52.8,52.8,52.8-52.8,52.8,52.8V166.4l-52.8,52.8-59.2-52.8-52.8,52.8-52.8-52.8-52.8,52.8-49.6-52.8-52.8,52.8-52.8-52.8-52.8,52.8-49.6-52.8-52.8,52.8-52.8-52.8v694.4l52.8-52.8,52.8,52.8ZM304,339.2h416v70.4h-416v-70.4ZM304,480h416v68.8h-416v-68.8ZM304,619.2h416v68.8h-416v-68.8Z"/>
    </g>
  </g>
</svg>