<!-- Generated by IcoMoon.io -->
<svg version="1.1" xmlns="http://www.w3.org/2000/svg" width="32" height="32" viewBox="0 0 32 32">
<path d="M1.354 7.001v17.999h29.292v-17.999zM13.727 12.714c0-0 0-0 0-0.001 0-0.125 0.101-0.226 0.226-0.226 0 0 0 0 0 0h12.671c0 0 0 0 0 0 0.125 0 0.226 0.101 0.226 0.226 0 0 0 0 0 0.001v-0 2.57c0 0.125-0.101 0.226-0.226 0.226v0h-12.67c-0.125 0-0.226-0.101-0.226-0.226v0zM9.867 19.991c-0.331 0.301-0.745 0.517-1.204 0.607l-0.016 0.003v1.498h-1.668v-1.485c-0.472-0.087-0.884-0.304-1.208-0.611l0.001 0.001c-0.464-0.464-0.623-1.127-0.623-2.095h1.883c-0.007 0.049-0.011 0.106-0.011 0.164 0 0.26 0.078 0.501 0.213 0.703l-0.003-0.005c0.136 0.14 0.326 0.227 0.536 0.227 0.017 0 0.033-0.001 0.049-0.002l-0.002 0c0.022 0.003 0.049 0.004 0.075 0.004 0.209 0 0.396-0.094 0.521-0.242l0.001-0.001c0.121-0.188 0.193-0.417 0.193-0.662 0-0.047-0.003-0.093-0.008-0.139l0.001 0.006c0-0.901-0.146-1.060-0.822-1.339l-1.193-0.49c-0.955-0.399-1.354-0.902-1.354-2.373-0.003-0.044-0.004-0.095-0.004-0.147 0-0.769 0.328-1.462 0.851-1.946l0.002-0.002c0.253-0.217 0.554-0.385 0.884-0.486l0.018-0.005v-1.274h1.67v1.246c0.397 0.084 0.743 0.266 1.023 0.519l-0.002-0.002c0.46 0.506 0.742 1.181 0.742 1.921 0 0.093-0.004 0.186-0.013 0.277l0.001-0.012h-1.882c0.007-0.052 0.011-0.112 0.011-0.173 0-0.247-0.063-0.48-0.174-0.683l0.004 0.007c-0.112-0.147-0.288-0.241-0.486-0.241-0.020 0-0.040 0.001-0.060 0.003l0.003-0c-0.011-0.001-0.025-0.001-0.038-0.001-0.206 0-0.389 0.099-0.504 0.251l-0.001 0.002c-0.104 0.162-0.165 0.359-0.165 0.57 0 0.037 0.002 0.074 0.006 0.111l-0-0.005c0 0.597 0.107 0.769 0.65 0.994l1.18 0.477c1.193 0.491 1.538 1.021 1.538 2.732 0.002 0.956-0.118 1.619-0.611 2.096zM18.886 19.286c0 0 0 0 0 0.001 0 0.125-0.101 0.226-0.226 0.226 0 0 0 0 0 0h-4.705c0 0 0 0 0 0-0.125 0-0.226-0.101-0.226-0.226 0-0 0-0 0-0.001v0-1.391c0-0 0-0 0-0.001 0-0.125 0.101-0.226 0.226-0.226 0 0 0 0 0 0h4.707c0 0 0 0 0 0 0.125 0 0.226 0.101 0.226 0.226 0 0 0 0 0 0.001v-0zM26.849 19.286c0 0 0 0 0 0.001 0 0.125-0.101 0.226-0.226 0.226 0 0 0 0 0 0h-4.703c0 0 0 0 0 0-0.125 0-0.226-0.101-0.226-0.226 0-0 0-0 0-0.001v0-1.391c0-0 0-0 0-0.001 0-0.125 0.101-0.226 0.226-0.226 0 0 0 0 0 0h4.707c0 0 0 0 0 0 0.125 0 0.226 0.101 0.226 0.226 0 0 0 0 0 0.001v-0z"></path>
</svg>
