<!-- Generated by IcoMoon.io -->
<svg version="1.1" xmlns="http://www.w3.org/2000/svg" width="32" height="32" viewBox="0 0 32 32">
<path d="M27.804 7.737c-0.947-0.965-2.214-1.613-3.628-1.772l-0.027-0.003 0.183-1.613h-20.401l1.94 13.333c0.053 0.053 0.484 2.011 1.29 2.817 0.679 0.697 1.627 1.13 2.676 1.13 0.023 0 0.047-0 0.070-0.001l-0.003 0h8.548c0.020 0 0.043 0.001 0.066 0.001 1.049 0 1.997-0.432 2.675-1.129l0.001-0.001c0.577-0.646 0.98-1.46 1.125-2.36l0.004-0.027h1.183c0.005 0 0.012 0 0.018 0 3.345 0 6.057-2.712 6.057-6.057 0-0.006 0-0.013-0-0.019v0.001c0-0.027 0.001-0.059 0.001-0.090 0-1.65-0.679-3.142-1.773-4.21l-0.001-0.001zM25.653 14.187c-0.522 0.532-1.249 0.862-2.053 0.862-0.034 0-0.068-0.001-0.102-0.002l0.005 0h-0.699l0.86-6.021c0.782 0.010 1.485 0.338 1.989 0.859l0.001 0.001c0.532 0.522 0.862 1.249 0.862 2.053 0 0.034-0.001 0.068-0.002 0.102l0-0.005c0.001 0.029 0.002 0.063 0.002 0.097 0 0.804-0.33 1.531-0.862 2.053l-0 0zM3.55 26.521c0.674 0.697 1.617 1.129 2.662 1.129 0.009 0 0.019-0 0.028-0h16.859c0.019 0 0.041 0.001 0.063 0.001 1.033 0 1.965-0.433 2.623-1.128l0.002-0.002c0.697-0.673 1.129-1.616 1.129-2.66 0-0.010-0-0.020-0-0.029v0.002h-24.494c-0 0.008-0 0.018-0 0.028 0 1.044 0.432 1.987 1.128 2.659l0.001 0.001z"></path>
</svg>
