<!-- Generated by IcoMoon.io -->
<svg version="1.1" xmlns="http://www.w3.org/2000/svg" width="32" height="32" viewBox="0 0 32 32">
<path d="M25.513 6.825c-2.374-2.421-5.678-3.921-9.333-3.921-0.063 0-0.127 0-0.19 0.001l0.010-0c-0.064-0.001-0.14-0.002-0.216-0.002-3.644 0-6.937 1.501-9.295 3.919l-0.003 0.003c-2.42 2.342-3.922 5.62-3.922 9.248 0 0.075 0.001 0.15 0.002 0.224l-0-0.011c-0.001 0.063-0.002 0.138-0.002 0.213 0 3.628 1.502 6.906 3.918 9.245l0.003 0.003c2.374 2.421 5.678 3.921 9.333 3.921 0.063 0 0.127-0 0.19-0.001l-0.010 0c0.064 0.001 0.14 0.002 0.216 0.002 3.644 0 6.937-1.501 9.295-3.919l0.003-0.003c2.42-2.342 3.922-5.62 3.922-9.248 0-0.075-0.001-0.15-0.002-0.224l0 0.011c0.002-0.088 0.003-0.192 0.003-0.295 0-3.603-1.504-6.854-3.919-9.161l-0.005-0.005zM23.816 18.425h-5.614v5.583h-4.404v-5.583h-5.614v-4.278h5.614v-5.583h4.404v5.583h5.614z"></path>
</svg>
