<!-- Generated by IcoMoon.io -->
<svg version="1.1" xmlns="http://www.w3.org/2000/svg" width="32" height="32" viewBox="0 0 32 32">
<path d="M10.909 23.803c-0.056 0-0.109 0-0.166 0-1.75 0-3.338-0.166-4.872-0.494-1.531-0.328-2.681-0.766-3.556-1.369v1.859c0 0.438 0.384 0.931 1.15 1.369s1.75 0.766 3.066 1.041c1.313 0.275 2.681 0.384 4.213 0.384 0.275 0 0.494 0 0.766 0-0.494-0.603-0.603-1.203-0.603-1.697v-1.094zM5.875 19.097c-1.531-0.328-2.681-0.766-3.556-1.369v1.859c0 0.438 0.384 0.931 1.15 1.369s1.75 0.766 3.066 1.041c1.313 0.275 2.681 0.384 4.212 0.384 0.056 0 0.109 0 0.166 0v-2.791c-0.056 0-0.109 0-0.166 0-1.753 0-3.338-0.166-4.872-0.494zM10.909 16.472v-1.094c-0.056 0-0.109 0-0.166 0-1.75 0-3.338-0.166-4.872-0.494-1.531-0.328-2.681-0.766-3.556-1.369v1.859c0 0.438 0.384 0.931 1.15 1.369s1.75 0.766 3.066 1.041c1.313 0.275 2.681 0.384 4.213 0.384 0.056 0 0.109 0 0.166 0v-1.697zM13.591 23.584c-0.384-0.166-0.766-0.384-1.094-0.603v1.863c0 0.109 0 0.275 0.056 0.384 0.056 0.166 0.219 0.384 0.384 0.547 0.109 0.109 0.275 0.219 0.438 0.328 0.109 0.056 0.166 0.109 0.275 0.166 0.056 0.056 0.166 0.056 0.219 0.109 0.219 0.109 0.438 0.219 0.656 0.328v-2.738c-0.166-0.056-0.328-0.109-0.494-0.166s-0.275-0.109-0.441-0.219zM29.025 21.397c0.109-0.109 0.166-0.219 0.219-0.384 0.056-0.109 0.056-0.219 0.056-0.384v-1.859c-0.656 0.438-1.478 0.822-2.519 1.15-0.328 0.109-0.712 0.166-1.094 0.275s-0.766 0.166-1.15 0.219c-0.384 0.056-0.766 0.109-1.203 0.166-0.822 0.056-1.641 0.109-2.519 0.109-0.438 0-0.875 0-1.259-0.056-0.328 0-0.656-0.056-0.984-0.056-0.875-0.056-1.75-0.219-2.572-0.384-0.766-0.166-1.422-0.328-2.025-0.603-0.166-0.056-0.275-0.109-0.438-0.219-0.384-0.166-0.766-0.384-1.094-0.603v1.863c0 0.109 0 0.275 0.056 0.384 0.056 0.166 0.219 0.384 0.384 0.547 0.109 0.109 0.275 0.219 0.438 0.328 0.109 0.056 0.166 0.109 0.275 0.166 0.056 0.056 0.166 0.056 0.219 0.109 0.275 0.166 0.603 0.275 0.984 0.438 0.328-0.494 0.875-0.822 1.531-0.822l12.369-0.056c0.159-0.106 0.269-0.216 0.325-0.325zM13.372 9.575c-0.166 0.109-0.328 0.219-0.438 0.328-0.166 0.166-0.275 0.328-0.384 0.547-0.056 0.109-0.056 0.219-0.056 0.384v1.422c0 0.109 0 0.275 0.056 0.384 0.056 0.166 0.219 0.384 0.384 0.547 0.109 0.109 0.275 0.219 0.438 0.328 0.109 0.056 0.166 0.109 0.275 0.166 0.056 0.056 0.166 0.056 0.219 0.109 0.547 0.272 1.15 0.491 1.916 0.709 0.275 0.056 0.547 0.109 0.822 0.166 0.056 0 0.056 0 0.109 0 0.656 0.109 1.313 0.219 2.025 0.275 0.166 0 0.328 0 0.438 0.056 0.547 0.056 1.15 0.056 1.75 0.056 0.384 0 0.766 0 1.094 0 0.547 0 1.094-0.056 1.587-0.109 0.494-0.056 1.041-0.109 1.531-0.219 0.822-0.166 1.478-0.328 2.078-0.603 0.384-0.109 0.712-0.275 0.984-0.438 0.109-0.056 0.166-0.109 0.275-0.166s0.166-0.109 0.219-0.166c0.166-0.109 0.275-0.219 0.328-0.328 0.109-0.109 0.166-0.219 0.219-0.384 0.056-0.166 0.056-0.219 0.056-0.384v-1.422c0-0.109 0-0.275-0.056-0.384s-0.109-0.219-0.219-0.384c-0.109-0.109-0.219-0.219-0.328-0.328-0.056-0.056-0.166-0.109-0.219-0.166-0.109-0.056-0.166-0.109-0.275-0.166-0.275-0.166-0.603-0.328-0.984-0.438-0.603-0.219-1.313-0.438-2.078-0.603-0.494-0.109-0.984-0.166-1.531-0.219-0.494-0.056-1.041-0.109-1.587-0.109-0.384 0-0.766 0-1.094 0-0.766 0-1.478 0.056-2.188 0.109-0.328 0.056-0.603 0.056-0.875 0.109-0.384 0.056-0.766 0.109-1.15 0.166-0.328 0.056-0.656 0.109-0.931 0.219-0.875 0.219-1.588 0.494-2.134 0.822-0.109 0.003-0.219 0.059-0.275 0.113zM25.688 15.978c-0.384 0.056-0.766 0.166-1.15 0.219-0.384 0.056-0.766 0.109-1.203 0.166-0.822 0.056-1.641 0.109-2.519 0.109-0.438 0-0.875 0-1.259-0.056-0.328 0-0.656-0.056-0.984-0.056-0.875-0.056-1.75-0.219-2.572-0.384-0.766-0.166-1.422-0.328-2.025-0.603-0.166-0.056-0.275-0.109-0.438-0.219-0.384-0.166-0.766-0.384-1.094-0.603v1.862c0 0.109 0 0.275 0.056 0.384 0.056 0.166 0.219 0.384 0.384 0.547 0.166 0.109 0.328 0.219 0.494 0.328 0.109 0.056 0.166 0.109 0.275 0.166 0.056 0.056 0.166 0.056 0.219 0.109 0.547 0.275 1.15 0.494 1.916 0.712 0.275 0.056 0.547 0.109 0.822 0.166 0.056 0 0.056 0 0.109 0 0.656 0.109 1.313 0.219 2.025 0.275 0.166 0 0.328 0 0.438 0.056 0.547 0.056 1.15 0.056 1.75 0.056 0.384 0 0.766 0 1.094 0 0.547 0 1.094-0.056 1.587-0.109 0.494-0.056 1.041-0.109 1.531-0.219 0.822-0.166 1.478-0.328 2.078-0.603 0.384-0.109 0.712-0.275 0.984-0.438 0.109-0.056 0.166-0.109 0.275-0.166s0.166-0.109 0.219-0.166c0.166-0.109 0.275-0.219 0.328-0.328 0.109-0.109 0.166-0.219 0.219-0.384 0.056-0.166 0.056-0.219 0.056-0.384v-1.859c-0.656 0.438-1.478 0.822-2.519 1.15-0.331 0.109-0.716 0.162-1.097 0.272zM20.159 27.306c-0.275-0.328-0.766-0.547-1.369-0.766-0.384-0.166-0.656-0.328-0.766-0.438-0.166-0.109-0.219-0.328-0.219-0.494 0-0.109 0-0.166 0.056-0.275s0.109-0.219 0.166-0.275c0.166-0.166 0.328-0.219 0.547-0.219h0.056c0.219 0 0.384 0.109 0.547 0.275s0.219 0.438 0.219 0.712h1.203c0-0.328-0.056-0.603-0.166-0.875-0.109-0.166-0.219-0.328-0.384-0.494-0.219-0.219-0.547-0.384-0.875-0.438-0.166-0.056-0.384-0.056-0.603-0.056-0.603 0-1.094 0.166-1.478 0.494-0.109 0.056-0.166 0.166-0.219 0.275-0.219 0.275-0.328 0.603-0.328 0.984 0 0.109 0 0.166 0 0.275 0.056 0.384 0.219 0.712 0.494 0.984 0.328 0.275 0.822 0.547 1.478 0.766h0.056c0.275 0.109 0.494 0.275 0.603 0.384 0.109 0.166 0.166 0.328 0.166 0.603 0 0.219-0.056 0.438-0.166 0.547-0.056-0.166-0.109-0.109-0.166-0.109-0.109 0.056-0.219 0.109-0.438 0.109-0.275 0-0.494-0.056-0.656-0.219l-0.056-0.056c-0.166-0.166-0.219-0.438-0.219-0.822h-1.206c0 0.219 0.056 0.438 0.109 0.656 0.109 0.328 0.275 0.656 0.547 0.875 0.438 0.328 0.931 0.547 1.531 0.547s1.094-0.166 1.422-0.438c0.166-0.166 0.328-0.328 0.384-0.547 0.109-0.219 0.166-0.438 0.166-0.712 0-0.328-0.056-0.603-0.166-0.875-0.053-0.163-0.163-0.272-0.272-0.381zM25.194 28.894c0-0.056 0-0.056 0.056-0.109 0.109-0.275 0.109-0.547 0.109-0.875v-1.75c0-0.656-0.166-1.203-0.494-1.587-0.056-0.056-0.056-0.109-0.109-0.109-0.384-0.438-0.931-0.603-1.587-0.603s-1.203 0.219-1.587 0.603c-0.109 0.109-0.219 0.275-0.275 0.438-0.219 0.384-0.275 0.766-0.275 1.313v1.806c0 0.547 0.109 0.984 0.328 1.369 0.056 0.166 0.166 0.275 0.275 0.384 0.384 0.438 0.931 0.603 1.587 0.603 0.166 0 0.328 0 0.494-0.056s0.328-0.056 0.438-0.109l0.984 1.094 0.766-0.656-1.041-1.15c0.113-0.166 0.222-0.384 0.331-0.603zM24.153 27.472v0.438c0 0.438-0.109 0.822-0.275 1.041-0.056 0.056-0.109 0.109-0.166 0.166-0.166 0.109-0.328 0.166-0.547 0.166-0.166 0-0.275-0.056-0.384-0.056-0.109-0.056-0.219-0.166-0.328-0.275-0.166-0.219-0.219-0.547-0.219-1.041v-1.753c0-0.438 0.056-0.766 0.219-1.041 0.166-0.219 0.384-0.328 0.712-0.328s0.547 0.109 0.712 0.328c0.166 0.219 0.275 0.547 0.275 1.041v1.316zM27.384 29.169v-5.309h-1.206v6.294h3.503v-0.984zM5.356 2.494l0.425-0.022-0.269 0.247c0.066 0.112 0.156 0.2 0.2 0.313l0.716-0.112-0.513 0.538c1.25 4.2-0.894 6.769-0.894 6.769 1.744-0.603 4.087-3.216 5.941-4.178 1.787-0.938 3.463-0.022 3.35-0.356-0.2-0.737-1.853-1.609-1.853-1.609-0.716-0.825-1.519-1.028-2.031-1.141-0.938-0.178-1.9 0.022-2.369 0.134-1.675-2.188-5.359-2.256-5.359-2.256 1.247 0.4 2.097 1.003 2.656 1.675zM10.872 3.856c0.2 0 0.603 0.156 0.916 0.425 0.022 0.022-0.178 0.066-0.403 0.044-0.156 0-0.381-0.066-0.559-0.247-0.153-0.156-0.109-0.222 0.047-0.222zM14.688 7.278c-0.853-0.156-1.759-0.256-2.722-0.3-0.144 0.044-0.284 0.103-0.422 0.175-0.003 0-0.003 0.003-0.006 0.003-0.722 0.372-1.622 1.116-2.494 1.831-1.259 1.034-2.447 2.012-3.612 2.416-0.138 0.047-0.278 0.072-0.419 0.072-0.406 0-0.8-0.194-1.034-0.544-0.316-0.469-0.131-1.191-0.013-1.944-0.006-0.234 0.059-0.528 0.034-0.884-0.188 0.084-0.366 0.175-0.531 0.269-0.766 0.438-1.15 0.875-1.15 1.422v1.425c0 0.384 0.384 0.875 1.15 1.313s1.75 0.766 3.066 1.041c1.313 0.275 2.681 0.384 4.213 0.384 0.056 0 0.109 0 0.166 0v-3.119c0-0.766 0.328-1.859 1.916-2.791 0.544-0.331 1.147-0.55 1.859-0.769zM3.769 3.834c0.513 0.916 0.916 2.234 0.916 2.234 0.447 1.406 0.625 2.994 0.625 2.994 0.381-0.719 2.144-7.619-4.934-8.178 0.981 0.469 1.697 1.028 2.056 1.341-0.003 0 0.756 0.559 1.337 1.609z"></path>
</svg>
