<?xml version="1.0" encoding="UTF-8"?>
<svg id="Layer_1" xmlns="http://www.w3.org/2000/svg" version="1.1" viewBox="0 0 1024 1024">
  <!-- Generator: Adobe Illustrator 29.4.0, SVG Export Plug-In . SVG Version: 2.1.0 Build 152)  -->
  <path d="M571.1,390.8l9,4.9,53.1-28.3-52.8-28.1h-.2c0-.1-.1,0-.1,0l-52.9,28.1,44,23.4Z"/>
  <path d="M704.4,405.3l-53.1-28.2-53.1,28.2,53.1,28.2v56.4l53.1-28.3v-56.3Z"/>
  <path d="M509,377.1l-53.1,28.2,53.1,28.2,53.2-28.2-53.2-28.2Z"/>
  <path d="M491,443l-53.1-28.2-53.1,28.2v56.4l53.1,28.2v-56.3l53.1-28.2h0Z"/>
  <path d="M562.1,480.9l-53.1-28.2-53,28.2v56.4l53,28.2h.1l53-28.2v-56.4Z"/>
  <path d="M651.3,641l53.1-28.2v-56.3l-53.1,28.2v56.3Z"/>
  <path d="M580.2,678.9l53.1-28.2v-56.4l-53.1,28.2v56.4Z"/>
  <path d="M509,660.3l-53-28.2v56.3l53,28.2h0c0,.1.1.1.1.1h0c0-.1,53-28.3,53-28.3v-56.3l-44,23.4-9.1,4.8Z"/>
  <path d="M651.3,565.5l53.1-28.2v-56.4l-53.1,28.3v56.3Z"/>
  <path d="M580.2,546.9v56.4l53.1-28.3v-56.3l-44,23.4-9.1,4.8Z"/>
  <path d="M509,584.7l-53-28.3v56.4l53,28.2h.1l53-28.2v-56.4l-44,23.4-9.1,4.9Z"/>
  <path d="M633.2,443l-53.1-28.2-53.1,28.3,53.1,28.2v56.3l53.1-28.2v-56.4Z"/>
  <path d="M313.8,612.9l53.1,28.2v-56.3l-53.1-28.3v56.4Z"/>
  <path d="M384.9,594.3v56.4l53.1,28.2v-56.4l-53.1-28.2Z"/>
  <path d="M313.8,480.9v56.3l53.1,28.3v-56.4l-9.1-4.8-44-23.4Z"/>
  <path d="M384.9,518.7v56.3l53.1,28.2v-56.3l-53.1-28.2Z"/>
  <path d="M419.9,405.3l-10.6-5.6-42.4-22.6-53.1,28.2v56.3l53.1,28.3v-56.4l53.1-28.2Z"/>
  <path d="M491,367.6h-.1c0-.1.1-.1.1-.1l-20.4-10.8h-.1l-32.6-17.4-53.1,28.3,53.1,28.2,53.1-28.2Z"/>
  <path d="M509,357.9l53.2-28.2-52.8-28.2h-.4l-53,28.2,44,23.4,9.1,4.8Z"/>
  <path d="M172.1,441.8c26.9,7.2,46.7,31.8,46.7,61s-19.8,53.8-46.8,61v168.6c0,64.6,52.4,117,117,117h445.6c64.8,0,117.3-52.5,117.3-117.3v-166c0,0-55.2-55.1-55.2-55.1l71.2-71.3,71.3,71.2-55.1,55.2v166c0,82.6-66.9,149.6-149.5,149.6h-444.8c-82.8,0-150-67.2-150-150v-167.7c-27.3-7-47.4-31.7-47.4-61.2s20.1-54.2,47.4-61.2v-150.7c0-82.6,66.9-149.6,149.5-149.6h537.9l-43.2-43.2c-6.3-6.3-6.3-16.5,0-22.8,6.3-6.3,16.5-6.3,22.8,0l70.8,70.8c6.3,6.3,6.3,16.5,0,22.8l-70.8,70.8c-6.3,6.3-16.5,6.3-22.8,0-6.3-6.3-6.3-16.5,0-22.8l43.2-43.2H289.4c-64.8,0-117.3,52.5-117.3,117.3h0s0,0,0,0v150.9Z"/>
</svg>