<?xml version="1.0" encoding="UTF-8"?>
<svg xmlns="http://www.w3.org/2000/svg" version="1.1" viewBox="0 0 1024 1024">
  <!-- Generator: Adobe Illustrator 28.6.0, SVG Export Plug-In . SVG Version: 1.2.0 Build 709)  -->
  <g>
    <g id="Layer_1">
      <g>
        <path d="M920.1,317.7c-40.5-40.6-81.1-81.1-121.7-121.7l-.2-.2h0c-13.5-13.5-27.1-27.1-40.6-40.6-4.9-4.9-9.9-9.9-14.8-14.8l-.2-.2c-12.3-12.3-24.6-24.6-36.9-36.9-6.1-6.1-13.3-9.5-21.8-9.6h0c-7.6.1-14.4,2.4-19.8,7.7-1.7,1.7-3.4,3.4-5.1,5.1-17.4,17.2-34.8,34.5-51.9,52-10.1,10.3-10.4,25.8-1.6,37.2,2.1,2.8,4.5,5.3,7,7.8,69.3,69.3,138.6,138.5,207.9,207.8,1.9,1.9,3.8,3.8,5.9,5.5,14.3,11.8,29.1,11.2,42.3-2,11.7-11.7,23.4-23.4,35.2-35.1,5.9-5.9,11.7-11.7,17.6-17.6,2.2-2.2,4.3-4.4,5.8-7.1,7.1-12.8,4.8-25.7-6.9-37.4Z"/>
        <path d="M609.6,263.4c-12.5-12.5-29.9-13.1-42.3-.8-41.3,40.9-82.3,82-123.3,123.2h0s0,0,0,0c-5.7,5.7-9.2,12.6-8.7,20.7h0c-.4,9,3.1,16.2,9.2,22.3,7.1,7.1,14.2,14.2,21.4,21.3h0s0,0,0,0c16.7,16.7,33.4,33.3,49.9,50.1,3.5,3.5,5.9,3.5,9.9.9,20.3-13.5,42.7-21.1,67-22.4,39-2.1,73.2,9.7,102.1,36.3,3.6,3.3,6,3.6,9.6-.2,11.1-11.3,22.2-22.4,33.4-33.6,7.7-7.7,15.4-15.4,23.1-23.1,13.2-13.3,13.2-30.4,0-43.7-50.4-50.4-100.8-100.8-151.2-151.1Z"/>
        <path d="M458.3,505.3h0c-4.1-4.1-8.2-8.2-12.3-12.3-14.6-14.5-29.9-14.5-44.6,0-39.9,39.8-79.7,79.6-119.5,119.5l-.3.3c-3.6,3.6-7.2,7.2-10.8,10.8-8.9,8.9-17.8,17.7-26.6,26.7-11,11.3-11,28.1.1,39.3,20.2,20.3,40.5,40.6,60.8,60.8h.1c9.6,9.7,19.2,19.3,28.9,28.9,5.6,5.6,12.3,8.7,20.4,8.6h0c7.5,0,14-2.5,19.4-7.9l5-5c31.4-31.5,62.9-62.9,94.4-94.3,2.9-2.9,3.5-5.2,1.9-9.1-18.5-45.3-15.3-89,10.9-130.6,2.5-3.9,2.1-6.3-1.1-9.5-8.9-8.7-17.8-17.6-26.6-26.4Z"/>
        <path d="M600.8,523.9c-50.7,0-91.5,40.9-91.5,91.8,0,50.6,41.3,92,91.7,91.9,50.3,0,92.4-42.2,92.2-92.5-.2-50.3-41.7-91.3-92.4-91.3ZM645.2,615.5c0,25.5-18.7,44.2-44.2,44.2-25.1,0-44.4-19-44.5-43.7s19.8-44.9,44.3-45c25,0,44.4,19.4,44.4,44.4h0Z"/>
        <path d="M247.2,754.1c-14-13.9-28.6-13.9-42.5,0-3.6,3.6-7.3,7.2-10.9,10.8-13.5,13.5-27.1,27-40.4,40.6-3.5,3.5-5.6,3.5-8.8-.1-3.8-4.3-7.9-8.3-12.2-12.2-7.5-6.8-16.4-7.5-25.3-3.7-8.6,3.7-13.1,10.9-13.3,22.5h0c-.2,4.5,1.7,10.1,6.4,14.7,11.4,11.4,22.8,22.8,34.1,34.1,21,21,42,42,63,62.9,9.4,9.4,23.4,9.2,32.6,0,9.2-9.1,9.5-23,.4-32.7-3.6-3.9-7.3-7.8-11.3-11.3-3.8-3.3-3.8-5.7,0-9.4,15.4-15.1,30.6-30.4,45.9-45.7,2-2,4-4,6-6,13.1-13.1,13-27.9-.2-41.1-7.8-7.9-15.7-15.7-23.5-23.5Z"/>
      </g>
    </g>
  </g>
</svg>