<!-- Generated by IcoMoon.io -->
<svg version="1.1" xmlns="http://www.w3.org/2000/svg" width="32" height="32" viewBox="0 0 32 32">
<path d="M19.55 4.65c-0.3-0.75-0.75-1.35-1.4-1.85-0.65-0.45-1.35-0.7-2.15-0.7s-1.5 0.25-2.15 0.7-1.1 1.1-1.4 1.85h-7.85v25.25h22.75v-25.25h-7.8zM15.1 5c0.25-0.25 0.55-0.35 0.9-0.35s0.65 0.1 0.9 0.35c0.25 0.25 0.35 0.55 0.35 0.9s-0.1 0.65-0.35 0.9c-0.25 0.25-0.55 0.35-0.9 0.35s-0.65-0.1-0.9-0.35c-0.25-0.25-0.35-0.55-0.35-0.9s0.1-0.65 0.35-0.9zM7.15 27.4v-20.25h2.5v3.8h12.7v-3.8h2.5v20.25h-17.7z"></path>
</svg>
