<!-- Generated by IcoMoon.io -->
<svg version="1.1" xmlns="http://www.w3.org/2000/svg" width="32" height="32" viewBox="0 0 32 32">
<path d="M12.887 19.114h7.781v3.114h-7.781v-3.114zM27.667 5.103h-23.333c-0.001 0-0.002 0-0.003 0-1.29 0-2.335 1.045-2.336 2.335v17.124c0.001 1.29 1.046 2.335 2.336 2.335 0.001 0 0.002 0 0.003 0h23.333c0.001 0 0.002 0 0.003 0 1.29 0 2.335-1.045 2.336-2.335v-17.124c-0.001-1.29-1.046-2.335-2.336-2.335-0.001 0-0.002 0-0.003 0h0zM27.667 24.27c-0 0.161-0.131 0.292-0.292 0.292h-22.75c-0.161-0.001-0.291-0.131-0.292-0.292v-8.27h23.333zM27.667 9.773h-23.333v-2.043c0-0.161 0.131-0.292 0.292-0.292h22.75c0.161 0.001 0.291 0.131 0.292 0.292v0zM6.662 19.114h4.669v3.114h-4.669v-3.114z"></path>
</svg>
