<!-- Generated by IcoMoon.io -->
<svg version="1.1" xmlns="http://www.w3.org/2000/svg" width="32" height="32" viewBox="0 0 32 32">
<path d="M10.157 25.046h11.686v-3.563h-11.686v3.563zM16 0.898c-8.341 0-15.102 6.762-15.102 15.102s6.762 15.102 15.102 15.102c8.341 0 15.102-6.762 15.102-15.102v0c-0.018-8.334-6.769-15.085-15.101-15.102h-0.002zM16 28.247c-6.764 0-12.247-5.483-12.247-12.247s5.483-12.247 12.247-12.247c6.764 0 12.247 5.483 12.247 12.247v0c0 0 0 0.001 0 0.001 0 6.764-5.483 12.246-12.246 12.246-0 0-0.001 0-0.001 0h0zM7.3 8.998l1.6-1.633 1.653 1.586-1.6 1.633-1.653-1.586zM14.88 4.866h2.287v2.29h-2.287zM4.912 14.833h2.288v2.287h-2.288v-2.287zM21.506 8.924l1.653-1.585 1.6 1.634-1.653 1.585zM24.887 14.833h2.29v2.287h-2.29v-2.287zM21.227 10.407l-1.627-1.181-2.907 4.014c-0.202-0.047-0.435-0.074-0.673-0.074-0.007 0-0.014 0-0.021 0h0.001c-1.584 0.011-2.865 1.292-2.876 2.875v0.001c0.014 1.568 1.288 2.833 2.858 2.833 0.006 0 0.012-0 0.019-0h-0.001c1.584-0.011 2.865-1.292 2.876-2.875v-0.001c-0.006-0.614-0.197-1.182-0.52-1.652l0.007 0.010z"></path>
</svg>
