<!-- Generated by IcoMoon.io -->
<svg version="1.1" xmlns="http://www.w3.org/2000/svg" width="32" height="32" viewBox="0 0 32 32">
<path d="M25.447 10.761c-0.178-0.178-0.423-0.288-0.695-0.288-0.542 0-0.982 0.439-0.982 0.982v4.467c0 4.579-3.191 7.77-7.77 7.77s-7.77-3.191-7.77-7.77v-4.467c0-0.007 0-0.015 0-0.023 0-0.542-0.44-0.982-0.982-0.982s-0.982 0.44-0.982 0.982c0 0.008 0 0.016 0 0.024l-0-0.001v4.467c0 5.28 3.525 9.188 8.752 9.686v3.2h-3.431c-0.007-0-0.015-0-0.023-0-0.542 0-0.982 0.44-0.982 0.982s0.44 0.982 0.982 0.982c0.008 0 0.016-0 0.024-0l-0.001 0h8.826c0.007 0 0.015 0 0.023 0 0.542 0 0.982-0.44 0.982-0.982s-0.44-0.982-0.982-0.982c-0.008 0-0.016 0-0.024 0l0.001-0h-3.431v-3.2c5.227-0.499 8.751-4.407 8.751-9.686v-4.467c0-0.001 0-0.002 0-0.003 0-0.27-0.109-0.514-0.286-0.691v0zM13.618 16.103h-2.586c0.133 2.378 2.092 4.256 4.491 4.259h0.953c2.399-0.003 4.358-1.881 4.491-4.247l0.001-0.012h-2.585c-0.006 0-0.013 0-0.020 0-0.395 0-0.715-0.32-0.715-0.715s0.32-0.715 0.715-0.715c0.007 0 0.014 0 0.021 0l-0.001-0h2.591v-1.99h-2.591c-0.006 0-0.013 0-0.020 0-0.395 0-0.715-0.32-0.715-0.715s0.32-0.715 0.715-0.715c0.007 0 0.014 0 0.021 0l-0.001-0h2.591v-1.99h-2.591c-0.006 0-0.013 0-0.020 0-0.395 0-0.715-0.32-0.715-0.715s0.32-0.715 0.715-0.715c0.007 0 0.014 0 0.021 0l-0.001-0h2.591v-1.856c-0.001-1.775-1.029-3.309-2.522-4.042l-0.027-0.012v2.022c-0.011 0.386-0.327 0.696-0.715 0.696s-0.704-0.309-0.715-0.695l-0-0.001v-2.435c-0.17-0.020-1.82-0.020-1.99 0v2.435c0 0.395-0.32 0.715-0.715 0.715s-0.715-0.32-0.715-0.715v-2.022c-1.52 0.744-2.548 2.278-2.549 4.053v1.856h2.592c0.386 0.011 0.696 0.327 0.696 0.715s-0.309 0.704-0.695 0.715l-0.001 0h-2.592v1.989h2.592c0.386 0.011 0.696 0.327 0.696 0.715s-0.309 0.704-0.695 0.715l-0.001 0h-2.592v1.99h2.592c0.386 0.011 0.696 0.327 0.696 0.715s-0.309 0.704-0.695 0.715l-0.001 0z"></path>
</svg>
