<!-- Generated by IcoMoon.io -->
<svg version="1.1" xmlns="http://www.w3.org/2000/svg" width="32" height="32" viewBox="0 0 32 32">
<path d="M10.6 25.5c0 1-0.8 2-2 2s-2-0.8-2-2v-8.4c0-1 0.8-2 2-2s2 0.8 2 2v8.4z"></path>
<path d="M16.1 27.7c0 1-0.8 2-2 2s-1.9-0.8-1.9-2v-12.7c0-1 0.8-2 2-2s2 0.8 2 2v12.7z"></path>
<path d="M4.9 23.6c0 1-0.8 2-2 2s-2-0.8-2-2v-4.6c0-1 0.8-2 2-2s2 0.9 2 2v4.6z"></path>
<path d="M21.7 29.8c0 1-0.8 2-2 2s-1.9-0.9-1.9-2v-16.9c0-1 0.8-2 2-2s2 0.8 2 2v16.9z"></path>
<path d="M27.8 28.9c-0.4 0-0.7 0-1-0.2l-2.3-0.7c-0.4 0-0.7-0.6-0.5-0.9 0-0.4 0.6-0.7 0.9-0.5l2.4 0.7c0.5 0.2 1 0 1.5-0.3s0.7-0.8 0.7-1.3v-15.5c0-0.7-0.5-1.4-1.1-1.6l-22.8-6.8c-0.5-0.2-1 0-1.5 0.2-0.4 0.4-0.7 0.8-0.7 1.4v10.7c0 0.5-0.4 0.7-0.7 0.7s-0.7-0.4-0.7-0.7v-10.7c0-1 0.5-2 1.3-2.5 0.8-0.7 1.9-0.7 2.8-0.5l22.7 6.9c1.3 0.4 2.2 1.7 2.2 3.1v15.5c0 1-0.5 2-1.3 2.6-0.6 0.2-1.2 0.5-1.9 0.5z"></path>
</svg>
