<!-- Generated by IcoMoon.io -->
<svg version="1.1" xmlns="http://www.w3.org/2000/svg" width="32" height="32" viewBox="0 0 32 32">
<path d="M22.32 11.611v-2.528c0.001-0.035 0.001-0.077 0.001-0.118 0-1.703-0.705-3.241-1.84-4.339l-0.002-0.002c-1.131-1.163-2.711-1.884-4.459-1.884s-3.328 0.722-4.457 1.883l-0.001 0.001c-1.162 1.109-1.885 2.671-1.885 4.401 0 0.020 0 0.041 0 0.061l-0-0.003v2.528h-3.767v17.65h20.178v-17.65zM19.973 11.611h-7.813v-2.528c-0-0.013-0-0.028-0-0.043 0-1.056 0.421-2.015 1.104-2.716l-0.001 0.001c0.661-0.71 1.602-1.153 2.646-1.153 0.040 0 0.080 0.001 0.12 0.002l-0.006-0c0.009-0 0.019-0 0.029-0 2.161 0 3.915 1.747 3.924 3.906v0.001z"></path>
</svg>
