<!-- Generated by IcoMoon.io -->
<svg version="1.1" xmlns="http://www.w3.org/2000/svg" width="32" height="32" viewBox="0 0 32 32">
<path d="M21.395 22.121v-3.333l-6.523 3.333v-3.333l-5.457 2.788v7.75l19.57-0.007v-11.077l-7.59 3.878zM17.005 15.302v3.333l6.523-3.333v3.333l5.457-2.789v-6.777l-6.396-6.397h-13.173v16.507zM20.761 5.389h1.827v3.655h3.655v1.828h-5.483zM2.216 23.555c-0-0.006-0-0.013-0-0.020 0-0.316 0.067-0.617 0.186-0.889l-0.006 0.014c0.122-0.282 0.289-0.522 0.494-0.723l0-0c0.427-0.414 1.010-0.669 1.652-0.669 0.010 0 0.020 0 0.030 0h-0.002c0.007-0 0.016-0 0.024-0 0.324 0 0.633 0.067 0.913 0.187l-0.015-0.006c0.291 0.122 0.539 0.287 0.752 0.489l-0.001-0.001c0.42 0.405 0.682 0.972 0.682 1.601 0 0.006-0 0.012-0 0.018v-0.001c0 0.006 0 0.014 0 0.021 0 0.32-0.067 0.624-0.187 0.9l0.006-0.015c-0.122 0.285-0.291 0.527-0.5 0.729l-0.001 0.001c-0.211 0.2-0.46 0.362-0.735 0.474l-0.016 0.006c-0.268 0.11-0.579 0.174-0.905 0.174-0.006 0-0.012-0-0.018-0h0.001c-0.007 0-0.016 0-0.025 0-0.329 0-0.643-0.064-0.93-0.18l0.017 0.006c-0.288-0.117-0.535-0.279-0.744-0.481l0.001 0.001c-0.417-0.413-0.675-0.986-0.675-1.619 0-0.005 0-0.010 0-0.016v0.001zM6.553 6.156v7.658c0 0.002 0 0.003 0 0.005 0 0.859-0.053 1.705-0.157 2.536l0.010-0.099q-0.147 1.212-0.388 2.468h-2.811q-0.241-1.259-0.388-2.468c-0.094-0.732-0.147-1.578-0.147-2.437 0-0.002 0-0.004 0-0.005v0-7.658z"></path>
</svg>
