<!-- Generated by IcoMoon.io -->
<svg version="1.1" xmlns="http://www.w3.org/2000/svg" width="32" height="32" viewBox="0 0 32 32">
<path d="M22.3 13.3h-7.7c-0.4 0-0.7 0.1-0.9 0.4-0.2 0.2-0.4 0.6-0.4 0.9v7.7c0 0.4 0.1 0.7 0.4 0.9 0.2 0.2 0.6 0.4 0.9 0.4h7.7c0.4 0 0.6-0.1 0.9-0.4 0.2-0.2 0.4-0.6 0.4-0.9v-7.7c0-0.4-0.1-0.7-0.4-0.9s-0.6-0.4-0.9-0.4z"></path>
<path d="M21 10.7h-9c-0.4 0-0.6 0.1-0.9 0.4-0.2 0.2-0.4 0.6-0.4 0.9v8.9h1.3v-8.9h9v-1.3z"></path>
<path d="M18.6 8.5h-9c-0.4 0-0.6 0.1-0.9 0.4-0.2 0.2-0.4 0.6-0.4 0.9v8.9h1.3v-8.9h9v-1.3z"></path>
<path d="M16 1c-8.3 0-15 6.7-15 15s6.7 15 15 15 15-6.7 15-15-6.7-15-15-15zM16 29.3c-7.3 0-13.3-6-13.3-13.3s5.9-13.3 13.3-13.3 13.3 6 13.3 13.3-6 13.3-13.3 13.3z"></path>
</svg>
