<!-- Generated by IcoMoon.io -->
<svg version="1.1" xmlns="http://www.w3.org/2000/svg" width="32" height="32" viewBox="0 0 32 32">
<path d="M25.575 27.6h-5.775l-4.45-7.575h-2.55l-1.625 7.575h-4.525c1.275-2.525 1.8-4.95 2.75-8.175 0.475-1.75 0.7-3.15 1.525-4.325 3.45-4.95 9.75-2.275 9.75-2.275-0.925-4.325-7.575-3.75-7.575-3.75-1.4-1.7-4.55-2.85-7.175-2v-2.75h13c3.925 0 7.125 3.2 7.125 7.125 0 3.15-2.15 5.95-5.15 6.825h-0.1l-0.55 0.325 5.325 9zM8.125 9.1l2.85 0.4c-0.075 0.7-0.75 1.175-1.475 1.1h-0.050c-0.65-0.050-1.175-0.525-1.275-1.175l-0.050-0.325z"></path>
</svg>
