<!-- Generated by IcoMoon.io -->
<svg version="1.1" xmlns="http://www.w3.org/2000/svg" width="32" height="32" viewBox="0 0 32 32">
<path d="M7.723 7.723c2.054-2.122 4.928-3.439 8.11-3.439 0.059 0 0.118 0 0.176 0.001l-0.009-0c0.050-0.001 0.108-0.001 0.167-0.001 3.182 0 6.056 1.317 8.108 3.436l0.003 0.003c2.122 2.054 3.439 4.929 3.439 8.111 0 0.058-0 0.117-0.001 0.175l0-0.009c0.001 0.049 0.001 0.108 0.001 0.166 0 3.182-1.317 6.057-3.436 8.108l-0.003 0.003c-2.054 2.122-4.929 3.439-8.111 3.439-0.059 0-0.117-0-0.175-0.001l0.009 0c-0.050 0.001-0.109 0.001-0.167 0.001-3.182 0-6.056-1.317-8.107-3.436l-0.003-0.003c-2.122-2.054-3.439-4.929-3.439-8.111 0-0.059 0-0.117 0.001-0.176l-0 0.009c-0.001-0.050-0.001-0.108-0.001-0.167 0-3.182 1.317-6.056 3.436-8.108l0.003-0.003zM14.845 25.295v-2.255c-1.288-0.044-2.321-1.077-2.365-2.361l-0-0.004v-1.155l-5.61-5.61c-0.169 0.626-0.269 1.345-0.275 2.087l-0 0.004c-0.001 0.036-0.001 0.079-0.001 0.122 0 2.356 0.91 4.5 2.398 6.098l-0.005-0.005c1.468 1.664 3.509 2.793 5.812 3.076l0.045 0.004zM22.93 22.325c1.533-1.6 2.476-3.775 2.476-6.17 0-0.054-0-0.109-0.001-0.163l0 0.008c0-0.007 0-0.016 0-0.025 0-3.911-2.408-7.259-5.822-8.643l-0.062-0.022v0.495c0 0.002 0 0.005 0 0.008 0 0.639-0.275 1.214-0.713 1.613l-0.002 0.002c-0.419 0.425-1.001 0.687-1.644 0.687-0.002 0-0.004 0-0.005 0h-2.31v2.365c0 0.007 0 0.015 0 0.024 0 0.318-0.138 0.603-0.357 0.8l-0.001 0.001c-0.217 0.205-0.51 0.33-0.833 0.33-0.007 0-0.014-0-0.021-0h-2.308v2.365h7.040c0.008-0 0.017-0 0.027-0 0.623 0 1.129 0.505 1.129 1.129 0 0.009-0 0.019-0 0.028l0-0.001v3.52h1.155c0.026-0.001 0.057-0.002 0.088-0.002 1.029 0 1.896 0.692 2.163 1.636l0.004 0.016z"></path>
</svg>
