<!-- Generated by IcoMoon.io -->
<svg version="1.1" xmlns="http://www.w3.org/2000/svg" width="32" height="32" viewBox="0 0 32 32">
<path d="M26.147 14.629c0.189-0.477 0.299-1.031 0.299-1.61 0-2.473-2.004-4.478-4.477-4.48h-0c-0.001 0-0.003 0-0.004 0-0.925 0-1.785 0.282-2.497 0.765l0.016-0.010c-1.313-2.251-3.716-3.74-6.467-3.74-4.12 0-7.46 3.339-7.461 7.459v0c0 0.126 0.005 0.252 0.010 0.378-2.635 0.948-4.486 3.425-4.486 6.335 0 3.709 3.006 6.716 6.715 6.717h17.16c0 0 0 0 0 0 3.296 0 5.969-2.672 5.969-5.969 0-2.874-2.031-5.273-4.736-5.841l-0.039-0.007zM20.871 19.064h-3.407v3.407h-2.928v-3.407h-3.407v-2.928h3.407v-3.407h2.928v3.407h3.407z"></path>
</svg>
