<!-- Generated by IcoMoon.io -->
<svg version="1.1" xmlns="http://www.w3.org/2000/svg" width="32" height="32" viewBox="0 0 32 32">
<path d="M25.006 6.372c1.322 0.25 2.428 0.644 3.212 1.072s1.144 0.894 1.144 1.428v1.428c0 0.534-0.356 0.963-1.144 1.428-0.784 0.463-1.856 0.822-3.178 1.072-1.356 0.25-2.784 0.356-4.353 0.356-1.572 0-2.997-0.106-4.391-0.356-1.356-0.284-2.391-0.606-3.178-1.072-0.784-0.428-1.144-0.894-1.144-1.428v-1.428c0-0.534 0.356-0.963 1.144-1.428 0.784-0.463 1.856-0.822 3.178-1.072 1.356-0.25 2.784-0.356 4.353-0.356s3.034 0.106 4.356 0.356v0zM25.65 14.116c1.534-0.322 2.784-0.75 3.784-1.428v1.928c0 0.534-0.356 0.963-1.144 1.428-0.784 0.462-1.856 0.822-3.178 1.072-1.356 0.25-2.784 0.356-4.353 0.356s-3.034-0.106-4.353-0.356c-1.356-0.284-2.391-0.606-3.178-1.072-0.784-0.428-1.144-0.894-1.144-1.428v-1.928c0.894 0.644 2.069 1.106 3.641 1.428 1.5 0.322 3.213 0.5 4.963 0.5s3.391-0.178 4.962-0.5v0zM25.65 18.434c1.534-0.284 2.784-0.784 3.784-1.428v1.928c0 0.5-0.356 0.962-1.144 1.428-0.784 0.462-1.856 0.822-3.178 1.072-1.356 0.25-2.784 0.356-4.353 0.356-1.572 0-2.997-0.106-4.319-0.356-1.356-0.284-2.391-0.606-3.178-1.072-0.784-0.428-1.144-0.894-1.144-1.428v-1.928c0.894 0.644 2.069 1.106 3.641 1.428 1.5 0.322 3.247 0.5 4.963 0.5s3.394-0.178 4.928-0.5v0zM25.65 22.791c1.534-0.322 2.784-0.822 3.784-1.428v1.928c0 0.5-0.356 0.962-1.144 1.428-0.784 0.462-1.856 0.822-3.178 1.072-1.356 0.25-2.784 0.356-4.353 0.356s-3.034-0.106-4.353-0.356c-1.356-0.284-2.391-0.606-3.178-1.072-0.784-0.428-1.144-0.894-1.144-1.428v-1.928c0.894 0.644 2.069 1.106 3.641 1.428 1.5 0.322 3.213 0.5 4.963 0.5s3.391-0.181 4.962-0.5v0zM10.45 14.497c-1.35-0.059-2.65-0.222-3.825-0.475-1.572-0.322-2.747-0.784-3.641-1.428v1.928c0 0.534 0.356 1 1.144 1.428 0.784 0.462 1.822 0.784 3.178 1.072 0.975 0.184 2.028 0.291 3.144 0.334 0-1.172 0-2.653 0-2.738v-0.122zM10.45 11.012c0-0.503 0-0.472 0-0.716v-1.428c0-0.575 0.084-1.103 0.463-1.572 0.287-0.356 0.675-0.672 1.222-0.994 0.213-0.125 0.444-0.247 0.691-0.359-0.416-0.016-0.841-0.025-1.272-0.025-1.572 0-2.997 0.106-4.353 0.356-1.322 0.25-2.391 0.606-3.178 1.072-0.784 0.463-1.144 0.894-1.144 1.428v1.428c0 0.534 0.356 1 1.144 1.428 0.784 0.463 1.822 0.784 3.178 1.072 1.050 0.188 2.119 0.297 3.253 0.338v-2.028zM11.012 24.866c-0.369-0.466-0.563-1.009-0.563-1.575v-0.119c-1.35-0.059-2.65-0.222-3.825-0.475-1.572-0.322-2.747-0.784-3.641-1.428v1.928c0 0.534 0.356 1 1.144 1.428 0.784 0.462 1.822 0.784 3.178 1.072 1.322 0.25 2.784 0.356 4.353 0.356 0.309 0 0.616-0.003 0.912-0.012-0.106-0.056-0.213-0.113-0.313-0.172-0.541-0.3-0.947-0.628-1.247-1.003zM10.45 18.813c-1.325-0.063-2.631-0.225-3.787-0.472-1.572-0.322-2.747-0.784-3.641-1.428v1.928c0 0.534 0.356 1 1.144 1.428 0.784 0.462 1.822 0.784 3.178 1.072 0.975 0.184 2.006 0.291 3.109 0.334v-2.863z"></path>
</svg>
