<!-- Generated by IcoMoon.io -->
<svg version="1.1" xmlns="http://www.w3.org/2000/svg" width="32" height="32" viewBox="0 0 32 32">
<path d="M17.475 4.742l-0.109 0.769-0.447 3.178c1.641 0.2 3.231 0.928 4.491 2.188 2.991 2.991 2.991 7.838 0 10.828s-7.838 2.991-10.828 0c-2.528-2.528-2.919-6.387-1.169-9.325l3.047 3.047 1.447-10.281-10.281 1.447 2.909 2.909c-3.275 4.55-2.866 10.931 1.228 15.025 4.547 4.547 11.922 4.547 16.469 0s4.547-11.922 0-16.469c-1.9-1.897-4.288-3.003-6.756-3.316z"></path>
</svg>
