<!-- Generated by IcoMoon.io -->
<svg version="1.1" xmlns="http://www.w3.org/2000/svg" width="32" height="32" viewBox="0 0 32 32">
<path d="M25.497 7.967l-2.102 2.102 1.271 1.271 4.258-4.258-4.21-4.21-1.271 1.271 2.027 2.027h-0.030c-1.411 0-4.037 0-6.397 1.361-2.243 1.294-3.638 3.461-4.173 6.457-1.091 0.281-1.885 1.256-1.885 2.416 0 1.041 0.638 1.933 1.545 2.305l0.017 0.006c-0.498 5.742-3.549 6.975-6.56 7.239-0.38-0.93-1.278-1.574-2.327-1.574-1.384 0-2.507 1.122-2.507 2.507s1.122 2.507 2.507 2.507c1.074 0 1.99-0.675 2.347-1.625l0.006-0.017c3.505-0.292 7.753-1.751 8.332-9.013 0.963-0.356 1.637-1.266 1.637-2.334 0-0.947-0.53-1.77-1.31-2.189l-0.013-0.007c0.455-2.404 1.55-4.124 3.28-5.12 1.943-1.12 4.257-1.12 5.505-1.12zM19.718 21.335h9.206v6.616h-9.206v-6.616zM3.076 4.791h9.206v6.617h-9.206v-6.617z"></path>
</svg>
