<!-- Generated by IcoMoon.io -->
<svg version="1.1" xmlns="http://www.w3.org/2000/svg" width="32" height="32" viewBox="0 0 32 32">
<path d="M28.917 26.902l-8.501-8.502c1.307-1.626 2.098-3.715 2.098-5.99 0-0.009 0-0.019-0-0.028v0.001c-0.032-5.342-4.369-9.66-9.716-9.66-5.366 0-9.716 4.35-9.716 9.716s4.35 9.716 9.716 9.716c0.001 0 0.001 0 0.002 0h-0c1.905-0.002 3.679-0.558 5.172-1.514l-0.039 0.023 8.665 8.669zM6.395 12.439c0-0 0-0 0-0.001 0-3.537 2.867-6.404 6.404-6.404s6.404 2.867 6.404 6.404c0 3.536-2.866 6.403-6.402 6.404h-0c-3.536-0.002-6.403-2.867-6.405-6.403v-0z"></path>
</svg>
