<!-- Generated by IcoMoon.io -->
<svg version="1.1" xmlns="http://www.w3.org/2000/svg" width="32" height="32" viewBox="0 0 32 32">
<path d="M24.233 2.82c0-0.341 0.034-0.675 0.098-0.997l-0.005 0.033-0.005 0.031c-2.361-0.512-5.074-0.805-7.855-0.805-0.037 0-0.074 0-0.111 0h-0.761c-2.915 0.131-5.638 0.419-8.31 0.86l0.402-0.055c0.055 0.277 0.088 0.598 0.092 0.925l0 0.004v0.004c-0.003 2.673-2.001 4.879-4.585 5.208l-0.026 0.003h-0.025c0 3.746 0.438 6.883 2.606 11.597 3.859 8.341 10.237 11.287 10.237 11.287s6.415-2.965 10.268-11.285c1.646-3.255 2.61-7.095 2.61-11.16 0-0.147-0.001-0.293-0.004-0.439l0 0.022c-2.617-0.325-4.624-2.534-4.626-5.213v-0.022zM23.444 18.311c-1.682 3.653-4.2 6.672-7.318 8.903l-0.067 0.046-0.069 0.046v-23.132h0.086c0.052-0 0.113-0 0.174-0 1.787 0 3.545 0.122 5.266 0.358l-0.2-0.022c0.539 2.504 2.135 4.556 4.287 5.7l0.092 0.044c-0.248 3.024-1.074 5.805-2.367 8.304l0.057-0.122 0.058-0.125z"></path>
</svg>
