<!-- Generated by IcoMoon.io -->
<svg version="1.1" xmlns="http://www.w3.org/2000/svg" width="32" height="32" viewBox="0 0 32 32">
<path d="M31.5 0.482c0.375 0.268 0.554 0.696 0.482 1.143l-4.571 27.429c-0.054 0.339-0.268 0.625-0.571 0.804-0.161 0.089-0.357 0.143-0.554 0.143-0.143 0-0.286-0.036-0.429-0.089l-8.089-3.304-4.321 5.268c-0.214 0.268-0.536 0.411-0.875 0.411-0.125 0-0.268-0.018-0.393-0.071-0.446-0.161-0.75-0.589-0.75-1.071v-6.232l15.429-18.911-19.089 16.518-7.054-2.893c-0.411-0.161-0.679-0.536-0.714-0.982-0.018-0.429 0.196-0.839 0.571-1.054l29.714-17.143c0.179-0.107 0.375-0.161 0.571-0.161 0.232 0 0.464 0.071 0.643 0.196z"></path>
</svg>
