<!-- Generated by IcoMoon.io -->
<svg version="1.1" xmlns="http://www.w3.org/2000/svg" width="32" height="32" viewBox="0 0 32 32">
<path d="M25.7 17.3l3.25 2.5-0.3 0.5-2.65 4.55-0.25 0.45-3.8-1.5c-0.75 0.55-1.45 0.95-2.2 1.3l-0.55 4c0 0-0.2 0-0.6 0h-5.2c-0.35 0-0.6 0-0.6 0l-0.55-4c-0.8-0.35-1.5-0.75-2.2-1.3l-3.8 1.5-0.25-0.45-2.65-4.55-0.3-0.5 3.25-2.5c-0.050-0.5-0.050-0.9-0.050-1.3s0-0.8 0.050-1.3l-3.25-2.5 0.3-0.5 2.65-4.55 0.25-0.45 3.8 1.5c0.75-0.55 1.45-0.95 2.2-1.3l0.6-4h6.4l0.55 4c0.8 0.35 1.5 0.75 2.2 1.3l3.8-1.5 3.2 5.5-3.25 2.5c0.1 0.5 0.1 0.9 0.1 1.3s-0.050 0.8-0.15 1.3zM12.8 19.25c0.9 0.9 1.95 1.35 3.2 1.35s2.3-0.45 3.2-1.35c0.9-0.9 1.35-2 1.35-3.25s-0.45-2.35-1.35-3.25c-0.9-0.9-1.95-1.35-3.2-1.35s-2.3 0.45-3.2 1.35c-0.9 0.9-1.35 2-1.35 3.25s0.45 2.35 1.35 3.25z"></path>
</svg>
