<!-- Generated by IcoMoon.io -->
<svg version="1.1" xmlns="http://www.w3.org/2000/svg" width="28" height="32" viewBox="0 0 28 32">
<path d="M22.638 1.863c0-0.354 0.035-0.7 0.1-1.035l-0.006 0.034c-2.569-0.55-5.52-0.865-8.544-0.865-0.142 0-0.283 0.001-0.424 0.002l0.022-0c-0.125-0.001-0.272-0.002-0.42-0.002-3.005 0-5.936 0.315-8.763 0.913l0.275-0.049c0.058 0.298 0.094 0.643 0.099 0.996l0 0.005c-0.003 2.879-2.162 5.253-4.949 5.593l-0.027 0.003c0 4.020 0.47 7.388 2.798 12.447 4.142 8.952 10.987 12.115 10.987 12.115s6.884-3.185 11.021-12.115c2.328-5.037 2.765-8.405 2.798-12.425-2.811-0.346-4.966-2.719-4.966-5.595 0-0.008 0-0.016 0-0.025v0.001zM21.792 18.491c-1.811 3.951-4.541 7.212-7.927 9.605l-0.074 0.050v-24.828c0.028-0 0.060-0 0.093-0 1.983 0 3.935 0.131 5.849 0.384l-0.225-0.024c0.578 2.708 2.313 4.924 4.65 6.142l0.050 0.024c-0.265 3.195-1.129 6.133-2.478 8.782l0.062-0.134z"></path>
</svg>
