<!-- Generated by IcoMoon.io -->
<svg version="1.1" xmlns="http://www.w3.org/2000/svg" width="32" height="32" viewBox="0 0 32 32">
<path d="M16 8.4c-8.6 0-15.6 6.6-15.6 6.6s7 8.65 15.6 8.65 15.6-8.65 15.6-8.65-7-6.6-15.6-6.6zM16 21.65c-5.5 0-10.4-4.2-12.7-6.45 2.35-1.75 7.2-4.8 12.7-4.8 0.45 0 0.9 0.050 1.3 0.050 0.25 0.5 0.45 1.1 0.45 1.7 0 2.050-1.65 3.65-3.65 3.65-1.75 0-3.2-1.2-3.55-2.8-0.050 0.35-0.1 0.7-0.1 1.050 0 3.1 2.5 5.6 5.6 5.6s5.6-2.5 5.6-5.6c0-1.1-0.3-2.15-0.85-3 3.45 1 6.3 2.85 7.95 4.1-2.35 2.35-7.25 6.5-12.75 6.5z"></path>
</svg>
