<?xml version="1.0" encoding="UTF-8"?>
<svg id="Layer_1" xmlns="http://www.w3.org/2000/svg" version="1.1" viewBox="0 0 15 14">
  <!-- Generator: Adobe Illustrator 29.6.1, SVG Export Plug-In . SVG Version: 2.1.1 Build 9)  -->
  <path d="M9.8,8.3l.9.9h-1.3c-1.2,0-1.8-.6-2.3-1.5-.2.3-.3.6-.5.9.1.2.3.4.5.6.7.7,1.4,1,2.4,1h1.3l-.9.9.7.7,2.1-2.1-2.1-2.1-.7.7Z"/>
  <path d="M5.2,6.3c.2-.3.3-.6.5-.9-.1-.2-.3-.4-.5-.6-.7-.7-1.5-1-2.4-1h-1.1v1h1.1c1.2,0,1.8.7,2.4,1.5Z"/>
  <path d="M9.4,4.8h1.3l-.9.9.7.7,2.1-2.1-2.1-2.1-.7.7.9.9h0s-1.3,0-1.3,0c-1,0-1.7.3-2.4,1-.5.6-.9,1.3-1.3,2-.7,1.3-1.3,2.5-2.9,2.5h-1.1v1h1.1c1,0,1.8-.3,2.4-1,.6-.6,1-1.3,1.3-2,.7-1.3,1.3-2.4,2.9-2.4Z"/>
</svg>