<?xml version="1.0" encoding="UTF-8"?>
<svg id="Layer_1" xmlns="http://www.w3.org/2000/svg" version="1.1" viewBox="0 0 1024 1024">
  <!-- Generator: Adobe Illustrator 29.4.0, SVG Export Plug-In . SVG Version: 2.1.0 Build 152)  -->
  <path d="M663.1,622.5l-89-51.4c-12.5-7.2-28.5-2.9-35.7,9.6-2.8,4.9-3.9,10.3-3.4,15.6v100.5c0,14.4,11.7,26,26.1,26s26-11.7,26-26v-57.8l49.8,28.8c12.5,7.2,28.5,2.9,35.7-9.6,7.2-12.5,3-28.5-9.6-35.7Z"/>
  <path d="M441.8,512.3c.2-9.3-4.7-17.9-12.8-22.6l-89-51.4c-3.9-2.2-8.3-3.4-12.7-3.4-9.1,0-17.6,4.9-22.2,12.8-7,12.2-2.8,27.8,9.4,34.9l51.3,29.6-51.3,29.6c-5.9,3.4-10.2,8.9-11.9,15.5-1.8,6.6-.9,13.5,2.5,19.4,4.5,7.9,13,12.8,22.1,12.8s8.9-1.2,12.8-3.4l89-51.4c8-4.6,12.8-13.2,12.8-22.4Z"/>
  <path d="M360.3,402l89,51.4c10.4,6,23.2,4.1,31.4-3.9,5.2-4.8,8.4-11.6,8.4-19.2v-103c0-14.4-11.7-26.1-26-26.1s-26.1,11.7-26.1,26.1v58.6l-50.5-29.2c-12.5-7.2-28.5-3-35.7,9.5-7.2,12.5-2.9,28.5,9.6,35.7Z"/>
  <path d="M560.3,516.5c0,2-1.1,4.7-2.5,6.1l-35.3,35.3c-1.4,1.4-4.2,2.5-6.1,2.5h-9c-2,0-4.7-1.1-6.1-2.5l-35.3-35.3c-1.4-1.4-2.5-4.2-2.5-6.1v-9c0-2,1.1-4.7,2.5-6.1l35.3-35.3c1.4-1.4,4.2-2.5,6.1-2.5h9c2,0,4.7,1.1,6.1,2.5l35.3,35.3c1.4,1.4,2.5,4.1,2.5,6.1v9ZM528.9,512.2v-.4c0-1.4-.8-3.4-1.9-4.5l-10.4-10.4c-1-1.1-3-1.9-4.5-1.9h-.4c-1.4,0-3.4.8-4.5,1.9l-10.4,10.4c-1,1-1.9,3-1.9,4.5v.4c0,1.5.8,3.5,1.9,4.5l10.4,10.4c1.1,1,3.1,1.9,4.5,1.9h.4c1.5,0,3.5-.8,4.5-1.9l10.4-10.4c1-1,1.9-3,1.9-4.5Z"/>
  <path d="M574.1,453.4l89-51.4c12.5-7.2,16.8-23.2,9.6-35.7-7.2-12.5-23.2-16.8-35.7-9.5l-49.8,28.8v-58.2c0-14.4-11.7-26.1-26-26.1s-26.1,11.7-26.1,26.1v100.9c-.5,5.2.5,10.7,3.4,15.6,7.2,12.5,23.2,16.8,35.7,9.5Z"/>
  <path d="M467.1,568.1c-5.9-1.1-12.2-.2-17.8,3l-89,51.4c-12.5,7.2-16.8,23.2-9.6,35.7,7.2,12.5,23.2,16.8,35.7,9.6l50.5-29.2v58.1c0,14.4,11.7,26,26.1,26s26-11.7,26-26v-103c0-13-9.5-23.8-21.9-25.7Z"/>
  <path d="M718.7,447.4c-7.2-12.5-23.2-16.8-35.7-9.6l-89,51.4c-8.5,4.9-13.2,13.9-13.1,23.1,0,9.1,4.6,18,13.1,22.9l89,51.4c12.5,7.2,28.5,2.9,35.7-9.6,7.2-12.5,2.9-28.5-9.6-35.7l-50.4-29.1,50.4-29.1c12.5-7.2,16.8-23.2,9.6-35.7Z"/>
  <path d="M172.1,441.8c26.9,7.2,46.7,31.8,46.7,61s-19.8,53.8-46.8,61v168.6c0,64.6,52.4,117,117,117h445.6c64.8,0,117.3-52.5,117.3-117.3v-166c0,0-55.2-55.1-55.2-55.1l71.2-71.3,71.3,71.2-55.1,55.2v166c0,82.6-66.9,149.6-149.5,149.6h-444.8c-82.8,0-150-67.2-150-150v-167.7c-27.3-7-47.4-31.7-47.4-61.2s20.1-54.2,47.4-61.2v-150.7c0-82.6,66.9-149.6,149.5-149.6h537.9l-43.2-43.2c-6.3-6.3-6.3-16.5,0-22.8,6.3-6.3,16.5-6.3,22.8,0l70.8,70.8c6.3,6.3,6.3,16.5,0,22.8l-70.8,70.8c-6.3,6.3-16.5,6.3-22.8,0-6.3-6.3-6.3-16.5,0-22.8l43.2-43.2H289.4c-64.8,0-117.3,52.5-117.3,117.3h0s0,0,0,0v150.9Z"/>
</svg>