<?xml version="1.0" encoding="UTF-8"?>
<svg xmlns="http://www.w3.org/2000/svg" version="1.1" viewBox="0 0 1024 1024">
  <defs>
    <style>
      .cls-1 {
        fill: #0f1425;
        fill-rule: evenodd;
      }
    </style>
  </defs>
  <!-- Generator: Adobe Illustrator 28.6.0, SVG Export Plug-In . SVG Version: 1.2.0 Build 709)  -->
  <g>
    <g id="Layer_1">
      <g>
        <path class="cls-1" d="M855.7,358.8c-51.8-138.2-185-236.6-341.2-236.9h-5.8c-156.2.4-289.3,98.8-341.2,236.9-67.8,4.6-121.4,61.1-121.4,130.1s32.5,99.9,78.9,119.8c5.1,1.9,10.3,3.7,15.5,5.5h.5c.4.3.9.5,1.3.6,21.4,7.4,43.4,14,65.9,20-21.9-44.6-34.2-94.8-34.2-147.8,0-185.3,150.1-335.4,335.4-335.5h4.4c185.2,0,335.4,150.3,335.4,335.5s-12.3,103.2-34.2,147.8c22.5-5.9,44.5-12.6,65.9-20l.9-.3.4-.2h.5c5.2-1.9,10.4-3.8,15.5-5.7,46.4-20,78.9-66.1,78.9-119.8s-53.6-125.5-121.4-130.1Z"/>
        <path class="cls-1" d="M227.2,688.7l-24.2,17c36.5,51.8,85.3,93.7,142.1,121.8l13.1-26.5c-52.4-25.9-97.4-64.5-131.1-112.3Z"/>
        <path class="cls-1" d="M575.9,803.4c-21.3-.8-106.9-.8-128.2,0-26.7.9-47.6,23.5-47,49.7.6,26.8,21.4,47.7,48.3,48.3,10.2.2,20.3,0,30.5,0h0c10.2,0,84.5.2,94.7,0,27-.6,47.8-21.2,48.6-48.1.7-26.1-20-48.9-46.8-49.9Z"/>
        <path class="cls-1" d="M514.1,240.3c-136.3,0-246.7,110.5-246.7,246.7s106.5,242.7,239.4,246.6c0,0,0,0,0,0,0,0,0,0,0,0h182.2c12.4,0,22.5-10.1,22.5-22.5v-68.7c0-4.9,1.6-9.6,4.4-13.6,28.3-40.2,44.9-89.1,44.9-142,0-136.3-110.5-246.7-246.7-246.7ZM415.4,516.7c-16.4,0-29.6-13.3-29.6-29.6s13.3-29.6,29.6-29.6,29.6,13.3,29.6,29.6-13.3,29.6-29.6,29.6ZM514.1,516.7c-16.4,0-29.6-13.3-29.6-29.6s13.3-29.6,29.6-29.6,29.6,13.3,29.6,29.6-13.3,29.6-29.6,29.6ZM612.8,516.7c-16.4,0-29.6-13.3-29.6-29.6s13.3-29.6,29.6-29.6,29.6,13.3,29.6,29.6-13.3,29.6-29.6,29.6Z"/>
      </g>
    </g>
  </g>
</svg>