<?xml version="1.0" encoding="UTF-8"?>
<svg xmlns="http://www.w3.org/2000/svg" version="1.1" viewBox="0 0 1024 1024">
  <defs>
    <style>
      .cls-1 {
        fill-rule: evenodd;
      }
    </style>
  </defs>
  <!-- Generator: Adobe Illustrator 28.6.0, SVG Export Plug-In . SVG Version: 1.2.0 Build 709)  -->
  <g>
    <g id="Layer_1">
      <path class="cls-1" d="M798,114H226c-35.3,0-64,28.7-64,64v572c0,35.3,28.7,64,64,64h216.7l48.5,84c9.2,16,32.3,16,41.6,0l48.5-84h216.7c35.3,0,64-28.7,64-64V178c0-35.3-28.7-64-64-64ZM690,607.3l-34.7,34.7c-9.4,9.4-24.6,9.4-34,0l-109.3-110.1-109.3,109.3c-9.4,9.4-24.6,9.4-33.9,0l-33.9-33.9c-9.4-9.4-9.4-24.6,0-33.9l109.3-109.3-110.1-109.3c-9.4-9.4-9.5-24.6,0-34l34.7-34.7c9.4-9.4,24.6-9.4,34,0l109.3,110.1,109.4-109.4c9.3-9.3,24.4-9.4,33.8-.1l34.5,34.1c9.5,9.4,9.5,24.7,0,34.1l-109.9,109.2,110.1,109.3c9.4,9.4,9.5,24.6,0,34Z"/>
    </g>
  </g>
</svg>