<!-- Generated by IcoMoon.io -->
<svg version="1.1" xmlns="http://www.w3.org/2000/svg" width="32" height="32" viewBox="0 0 32 32">
<path d="M14.755 16.16h2.49v2.768h12.587s-0.205-6.167-0.277-8.098c-0.068-1.835-0.724-2.969-2.766-2.969h-4.437l-1.653-3.119c-0.458-0.863-0.614-1.031-1.631-1.031h-6.133c-1.018 0-1.173 0.167-1.631 1.031-0.228 0.427-0.968 1.822-1.653 3.119h-4.438c-2.042 0-2.691 1.135-2.766 2.969s-0.277 8.098-0.277 8.098h12.587zM12.749 6.361c0.317-0.597 0.427-0.713 1.129-0.713h4.243c0.704 0 0.813 0.116 1.129 0.713l0.796 1.5h-8.094zM17.245 23.078h-2.49v-2.767h-11.897s0.172 2.487 0.277 4.596c0.043 0.874 0.3 2.321 2.489 2.321h20.752c2.187 0 2.44-1.446 2.489-2.321 0.121-2.169 0.277-4.596 0.277-4.596h-11.897z"></path>
</svg>
