<!-- Generated by IcoMoon.io -->
<svg version="1.1" xmlns="http://www.w3.org/2000/svg" width="32" height="32" viewBox="0 0 32 32">
<path d="M10.9 5.1c1.45-1.45 3.1-2.1 5.1-2.1s3.8 0.65 5.1 2.1c1.45 1.45 2.1 3.1 2.1 5.1s-0.65 3.8-2.1 5.1c-1.45 1.45-3.1 2.1-5.1 2.1s-3.8-0.65-5.1-2.1c-1.45-1.45-2.1-3.1-2.1-5.1s0.65-3.75 2.1-5.1zM30.45 30h-28.9v-2.45c0-1.55 0.9-2.9 2.65-4.1 1.8-1.2 3.8-2.1 5.9-2.55 2.25-0.55 4.1-0.8 5.9-0.8s3.65 0.2 5.9 0.8 4.25 1.45 5.9 2.55c1.8 1.2 2.65 2.55 2.65 4.1v2.45z"></path>
</svg>
