<!-- Generated by IcoMoon.io -->
<svg version="1.1" xmlns="http://www.w3.org/2000/svg" width="32" height="32" viewBox="0 0 32 32">
<path d="M14.629 7.7c0.412-0.082 0.886-0.129 1.37-0.13h0.001c0.001 0 0.003 0 0.004 0 0.483 0 0.956 0.044 1.415 0.128l-0.048-0.007v-1.724h2.579l-3.893-3.893-4.007 3.893h2.579zM17.371 23.364h-2.742v2.67h-2.579l3.893 3.893 4.007-3.893h-2.579v-2.67zM32.060 17.124l-3.893-4.007v2.579h-1.561c0.266 0.618 0.421 1.338 0.421 2.093 0 0.012-0 0.024-0 0.037v-0.002c-0.001 0.217-0.013 0.431-0.036 0.641l0.002-0.027h1.173v2.579zM5.12 15.695h-1.287v-2.579l-3.893 3.893 3.893 4.007v-2.579h1.287c-0.094-0.417-0.148-0.895-0.148-1.387v-0c0.002-0.481 0.056-0.949 0.156-1.399l-0.008 0.043zM21.782 13.92c-0.545-2.725-2.918-4.75-5.765-4.75-0.006 0-0.012 0-0.018 0h0.001c-0.010-0-0.022-0-0.034-0-1.122 0-2.168 0.33-3.045 0.897l0.022-0.013c-0.915 0.577-1.65 1.36-2.154 2.288l-0.016 0.032c-2.368 0.27-4.192 2.259-4.198 4.676v0.001c0 2.603 2.11 4.713 4.714 4.714h10.198c2.172-0.011 3.929-1.769 3.94-3.939v-0.001c0-0.015 0-0.034 0-0.052 0-1.019-0.407-1.943-1.068-2.618l0.001 0.001c-0.649-0.705-1.554-1.165-2.567-1.233l-0.012-0.001z"></path>
</svg>
