<!-- Generated by IcoMoon.io -->
<svg version="1.1" xmlns="http://www.w3.org/2000/svg" width="32" height="32" viewBox="0 0 32 32">
<path d="M29.28 15.503c-1.031-1.12-2.468-1.851-4.076-1.958l-0.018-0.001c-0.864-4.33-4.634-7.547-9.156-7.547-0.010 0-0.020 0-0.031 0h0.002c-0.015-0-0.032-0-0.050-0-1.783 0-3.445 0.523-4.838 1.425l0.035-0.021c-1.454 0.916-2.624 2.161-3.426 3.634l-0.026 0.051c-1.899 0.187-3.558 1.085-4.731 2.42l-0.007 0.008c-1.197 1.285-1.931 3.014-1.931 4.915 0 0.030 0 0.060 0.001 0.090l-0-0.005c-0.001 0.034-0.001 0.073-0.001 0.113 0 2.032 0.84 3.868 2.193 5.18l0.002 0.002c1.313 1.354 3.149 2.194 5.181 2.194 0.040 0 0.079-0 0.119-0.001l-0.006 0h16.202c3.449-0.019 6.24-2.81 6.259-6.257v-0.002c0-0.025 0.001-0.054 0.001-0.083 0-1.619-0.647-3.087-1.697-4.159l0.001 0.001zM9.715 22.3h-1.342l-2.796-6.965h1.676l1.807 4.871 1.809-4.871h1.639zM19.016 17.746c0 1.6-1.245 2.43-2.796 2.43h-1.156v2.075h-1.522v-6.916h2.827c1.65 0 2.647 0.978 2.647 2.391zM23.443 22.369c-0.017 0-0.037 0-0.057 0-1.928 0-3.491-1.563-3.491-3.491 0-0.023 0-0.046 0.001-0.070l-0 0.003v-0.020c-0-0.019-0.001-0.041-0.001-0.063 0-1.941 1.574-3.515 3.515-3.515 0.032 0 0.064 0 0.096 0.001l-0.005-0c0.053-0.003 0.116-0.004 0.178-0.004 0.998 0 1.9 0.41 2.548 1.071l0.001 0.001-0.969 1.116c-0.449-0.466-1.072-0.761-1.764-0.78l-0.004-0c-1.114 0.023-2.009 0.931-2.009 2.049 0 0.037 0.001 0.074 0.003 0.111l-0-0.005v0.020c-0.002 0.036-0.003 0.077-0.003 0.119 0 1.119 0.894 2.029 2.007 2.054l0.002 0c0.719-0.007 1.365-0.317 1.816-0.808l0.002-0.002 0.969 0.978c-0.652 0.76-1.614 1.238-2.687 1.238-0.052 0-0.104-0.001-0.156-0.003l0.007 0zM16.24 16.708h-1.173v2.114h1.205c0.040 0.005 0.087 0.008 0.134 0.008 0.586 0 1.062-0.471 1.071-1.055v-0.021c-0.002-0.681-0.477-1.047-1.237-1.047z"></path>
</svg>
