<!-- Generated by IcoMoon.io -->
<svg version="1.1" xmlns="http://www.w3.org/2000/svg" width="32" height="32" viewBox="0 0 32 32">
<path d="M17.55 6.233h-0.661v-3.743c-0-0.391-0.317-0.709-0.709-0.709-0.111 0-0.215 0.025-0.309 0.071l0.004-0.002-9.215 4.383v23.988h18.678v-23.988zM11.298 6.233h-0.661l4.545-2.162v2.162zM18.947 22.684h-5.893c-0.471 0-0.853-0.382-0.853-0.853s0.382-0.853 0.853-0.853h5.893c0.471 0 0.853 0.382 0.853 0.853s-0.382 0.853-0.853 0.853v0zM18.947 19.081h-5.893c-0.471 0-0.853-0.382-0.853-0.853s0.382-0.853 0.853-0.853h5.893c0.471 0 0.853 0.382 0.853 0.853s-0.382 0.853-0.853 0.853v0zM18.947 15.477h-5.893c-0.471 0-0.853-0.382-0.853-0.853s0.382-0.853 0.853-0.853h5.893c0.471 0 0.853 0.382 0.853 0.853s-0.382 0.853-0.853 0.853v0z"></path>
</svg>
