<!-- Generated by IcoMoon.io -->
<svg version="1.1" xmlns="http://www.w3.org/2000/svg" width="32" height="32" viewBox="0 0 32 32">
<path d="M27.84 5.867c-1.379-1.414-3.304-2.291-5.432-2.291-0.062 0-0.124 0.001-0.186 0.002l0.009-0c-0.041-0.001-0.089-0.001-0.137-0.001-2.429 0-4.607 1.074-6.085 2.773l-0.008 0.010c-1.487-1.709-3.665-2.783-6.094-2.783-0.048 0-0.096 0-0.144 0.001l0.007-0c-0.052-0.001-0.114-0.002-0.176-0.002-2.129 0-4.053 0.877-5.431 2.289l-0.002 0.002c-1.391 1.389-2.252 3.309-2.252 5.431 0 0.050 0 0.101 0.001 0.151l-0-0.008c0.066 2.019 0.701 3.876 1.75 5.432l-0.023-0.037c1.112 1.806 2.335 3.373 3.71 4.791l-0.007-0.007c1.317 1.339 3.494 3.374 6.473 6.051l2.19 1.907 2.187-1.976c2.285-2.069 3.968-3.621 5.003-4.613s2.212-2.245 3.49-3.717c1.071-1.161 1.968-2.504 2.636-3.973l0.038-0.094c0.462-1.114 0.732-2.408 0.733-3.765v-0.001c0.001-0.042 0.001-0.092 0.001-0.142 0-2.121-0.86-4.041-2.251-5.43l-0-0zM16 25.151c-2.041-1.829-3.573-3.231-4.554-4.17s-2.073-2.074-3.231-3.36c-0.929-0.971-1.726-2.081-2.352-3.293l-0.037-0.079c-0.401-0.822-0.642-1.786-0.658-2.804l-0-0.005c-0.002-0.043-0.002-0.094-0.002-0.145 0-1.218 0.505-2.319 1.317-3.103l0.001-0.001c0.816-0.797 1.934-1.289 3.166-1.289 0.042 0 0.084 0.001 0.126 0.002l-0.006-0c0.001 0 0.002 0 0.003 0 1.068 0 2.061 0.323 2.886 0.876l-0.019-0.012c0.826 0.516 1.458 1.275 1.803 2.176l0.010 0.030 0.063 0.175-1.291 1.84c-0.146 0.209-0.386 0.344-0.657 0.344-0.362 0-0.668-0.241-0.767-0.571l-0.001-0.006c-0.221-0.51-0.525-0.943-0.902-1.303l-0.001-0.001c-0.314-0.218-0.702-0.348-1.121-0.348-0.002 0-0.003 0-0.005 0h0c-0.035-0.003-0.076-0.005-0.117-0.005-0.364 0-0.693 0.145-0.934 0.381l0-0c-0.221 0.207-0.359 0.501-0.359 0.827 0 0.047 0.003 0.093 0.008 0.138l-0.001-0.005c0.018 0.542 0.152 1.049 0.378 1.501l-0.009-0.021c0.518 0.98 1.136 1.822 1.859 2.562l-0.002-0.002c1.106 1.227 2.137 2.302 3.065 3.19 0.575 0.551 1.359 1.28 2.341 2.172l2.251 2.277c-0.666 0.604-1.413 1.279-2.253 2.032z"></path>
</svg>
