<svg id="my-svg" width="100%" xmlns="http://www.w3.org/2000/svg" xmlns:xlink="http://www.w3.org/1999/xlink" style="max-width: 865px; background-color: transparent;" viewBox="-50 -10 865 2587" role="graphics-document document" aria-roledescription="sequence"><g><rect x="615" y="2501" fill="#eaeaea" stroke="#666" width="150" height="65" name="V" rx="3" ry="3" class="actor actor-bottom"/><text x="690" y="2533.5" dominant-baseline="central" alignment-baseline="central" class="actor actor-box" style="text-anchor: middle; font-size: 16px; font-weight: 400;"><tspan x="690" dy="0">verifier</tspan></text></g><g><rect x="415" y="2501" fill="#eaeaea" stroke="#666" width="150" height="65" name="FS" rx="3" ry="3" class="actor actor-bottom"/><text x="490" y="2533.5" dominant-baseline="central" alignment-baseline="central" class="actor actor-box" style="text-anchor: middle; font-size: 16px; font-weight: 400;"><tspan x="490" dy="-8">outDir</tspan></text><text x="490" y="2533.5" dominant-baseline="central" alignment-baseline="central" class="actor actor-box" style="text-anchor: middle; font-size: 16px; font-weight: 400;"><tspan x="490" dy="8">(emitted HTML)</tspan></text></g><g><rect x="200" y="2501" fill="#eaeaea" stroke="#666" width="156" height="65" name="P" rx="3" ry="3" class="actor actor-bottom"/><text x="278" y="2533.5" dominant-baseline="central" alignment-baseline="central" class="actor actor-box" style="text-anchor: middle; font-size: 16px; font-weight: 400;"><tspan x="278" dy="0">versioned-seo plugin</tspan></text></g><g><rect x="0" y="2501" fill="#eaeaea" stroke="#666" width="150" height="65" name="D" rx="3" ry="3" class="actor actor-bottom"/><text x="75" y="2533.5" dominant-baseline="central" alignment-baseline="central" class="actor actor-box" style="text-anchor: middle; font-size: 16px; font-weight: 400;"><tspan x="75" dy="0">Docusaurus core</tspan></text></g><g><line id="actor3" x1="690" y1="65" x2="690" y2="2501" class="actor-line 200" stroke-width="0.5px" stroke="#999" name="V" data-et="life-line" data-id="V"/><g id="root-3" data-et="participant" data-type="participant" data-id="V"><rect x="615" y="0" fill="#eaeaea" stroke="#666" width="150" height="65" name="V" rx="3" ry="3" class="actor actor-top"/><text x="690" y="32.5" dominant-baseline="central" alignment-baseline="central" class="actor actor-box" style="text-anchor: middle; font-size: 16px; font-weight: 400;"><tspan x="690" dy="0">verifier</tspan></text></g></g><g><line id="actor2" x1="490" y1="65" x2="490" y2="2501" class="actor-line 200" stroke-width="0.5px" stroke="#999" name="FS" data-et="life-line" data-id="FS"/><g id="root-2" data-et="participant" data-type="participant" data-id="FS"><rect x="415" y="0" fill="#eaeaea" stroke="#666" width="150" height="65" name="FS" rx="3" ry="3" class="actor actor-top"/><text x="490" y="32.5" dominant-baseline="central" alignment-baseline="central" class="actor actor-box" style="text-anchor: middle; font-size: 16px; font-weight: 400;"><tspan x="490" dy="-8">outDir</tspan></text><text x="490" y="32.5" dominant-baseline="central" alignment-baseline="central" class="actor actor-box" style="text-anchor: middle; font-size: 16px; font-weight: 400;"><tspan x="490" dy="8">(emitted HTML)</tspan></text></g></g><g><line id="actor1" x1="278" y1="65" x2="278" y2="2501" class="actor-line 200" stroke-width="0.5px" stroke="#999" name="P" data-et="life-line" data-id="P"/><g id="root-1" data-et="participant" data-type="participant" data-id="P"><rect x="200" y="0" fill="#eaeaea" stroke="#666" width="156" height="65" name="P" rx="3" ry="3" class="actor actor-top"/><text x="278" y="32.5" dominant-baseline="central" alignment-baseline="central" class="actor actor-box" style="text-anchor: middle; font-size: 16px; font-weight: 400;"><tspan x="278" dy="0">versioned-seo plugin</tspan></text></g></g><g><line id="actor0" x1="75" y1="65" x2="75" y2="2501" class="actor-line 200" stroke-width="0.5px" stroke="#999" name="D" data-et="life-line" data-id="D"/><g id="root-0" data-et="participant" data-type="participant" data-id="D"><rect x="0" y="0" fill="#eaeaea" stroke="#666" width="150" height="65" name="D" rx="3" ry="3" class="actor actor-top"/><text x="75" y="32.5" dominant-baseline="central" alignment-baseline="central" class="actor actor-box" style="text-anchor: middle; font-size: 16px; font-weight: 400;"><tspan x="75" dy="0">Docusaurus core</tspan></text></g></g><style>#my-svg{font-family:"trebuchet ms",verdana,arial,sans-serif;font-size:16px;fill:#333;}@keyframes edge-animation-frame{from{stroke-dashoffset:0;}}@keyframes dash{to{stroke-dashoffset:0;}}#my-svg .edge-animation-slow{stroke-dasharray:9,5!important;stroke-dashoffset:900;animation:dash 50s linear infinite;stroke-linecap:round;}#my-svg .edge-animation-fast{stroke-dasharray:9,5!important;stroke-dashoffset:900;animation:dash 20s linear infinite;stroke-linecap:round;}#my-svg .error-icon{fill:#552222;}#my-svg .error-text{fill:#552222;stroke:#552222;}#my-svg .edge-thickness-normal{stroke-width:1px;}#my-svg .edge-thickness-thick{stroke-width:3.5px;}#my-svg .edge-pattern-solid{stroke-dasharray:0;}#my-svg .edge-thickness-invisible{stroke-width:0;fill:none;}#my-svg .edge-pattern-dashed{stroke-dasharray:3;}#my-svg .edge-pattern-dotted{stroke-dasharray:2;}#my-svg .marker{fill:#333333;stroke:#333333;}#my-svg .marker.cross{stroke:#333333;}#my-svg svg{font-family:"trebuchet ms",verdana,arial,sans-serif;font-size:16px;}#my-svg p{margin:0;}#my-svg .actor{stroke:#9370DB;fill:#ECECFF;stroke-width:1;}#my-svg rect.actor.outer-path[data-look="neo"]{filter:drop-shadow(1px 2px 2px rgba(185, 185, 185, 1));}#my-svg rect.note[data-look="neo"]{stroke:#aaaa33;fill:#fff5ad;filter:drop-shadow(1px 2px 2px rgba(185, 185, 185, 1));}#my-svg text.actor&gt;tspan{fill:black;stroke:none;}#my-svg .actor-line{stroke:#9370DB;}#my-svg .innerArc{stroke-width:1.5;stroke-dasharray:none;}#my-svg .messageLine0{stroke-width:1.5;stroke-dasharray:none;stroke:#333;}#my-svg .messageLine1{stroke-width:1.5;stroke-dasharray:2,2;stroke:#333;}#my-svg [id$="-arrowhead"] path{fill:#333;stroke:#333;}#my-svg .sequenceNumber{fill:white;}#my-svg [id$="-sequencenumber"]{fill:#333;}#my-svg [id$="-crosshead"] path{fill:#333;stroke:#333;}#my-svg .messageText{fill:#333;stroke:none;}#my-svg .labelBox{stroke:#9370DB;fill:#ECECFF;filter:none;}#my-svg .labelText,#my-svg .labelText&gt;tspan{fill:black;stroke:none;}#my-svg .loopText,#my-svg .loopText&gt;tspan{fill:black;stroke:none;}#my-svg .loopLine{stroke-width:2px;stroke-dasharray:2,2;stroke:#9370DB;fill:#9370DB;}#my-svg .note{stroke:#aaaa33;fill:#fff5ad;}#my-svg .noteText,#my-svg .noteText&gt;tspan{fill:black;stroke:none;font-weight:normal;}#my-svg .activation0{fill:#f4f4f4;stroke:#666;}#my-svg .activation1{fill:#f4f4f4;stroke:#666;}#my-svg .activation2{fill:#f4f4f4;stroke:#666;}#my-svg .actorPopupMenu{position:absolute;}#my-svg .actorPopupMenuPanel{position:absolute;fill:#ECECFF;box-shadow:0px 8px 16px 0px rgba(0,0,0,0.2);filter:drop-shadow(3px 5px 2px rgb(0 0 0 / 0.4));}#my-svg .actor-man circle,#my-svg line{fill:#ECECFF;stroke-width:2px;}#my-svg g rect.rect{filter:drop-shadow(1px 2px 2px rgba(185, 185, 185, 1));stroke:#9370DB;}#my-svg .node .neo-node{stroke:#9370DB;}#my-svg [data-look="neo"].node rect,#my-svg [data-look="neo"].cluster rect,#my-svg [data-look="neo"].node polygon{stroke:#9370DB;filter:drop-shadow(1px 2px 2px rgba(185, 185, 185, 1));}#my-svg [data-look="neo"].node path{stroke:#9370DB;stroke-width:1px;}#my-svg [data-look="neo"].node .outer-path{filter:drop-shadow(1px 2px 2px rgba(185, 185, 185, 1));}#my-svg [data-look="neo"].node .neo-line path{stroke:#9370DB;filter:none;}#my-svg [data-look="neo"].node circle{stroke:#9370DB;filter:drop-shadow(1px 2px 2px rgba(185, 185, 185, 1));}#my-svg [data-look="neo"].node circle .state-start{fill:#000000;}#my-svg [data-look="neo"].icon-shape .icon{fill:#9370DB;filter:drop-shadow(1px 2px 2px rgba(185, 185, 185, 1));}#my-svg [data-look="neo"].icon-shape .icon-neo path{stroke:#9370DB;filter:drop-shadow(1px 2px 2px rgba(185, 185, 185, 1));}#my-svg :root{--mermaid-font-family:"trebuchet ms",verdana,arial,sans-serif;}</style><g/><defs><symbol id="my-svg-computer" width="24" height="24"><path transform="scale(.5)" d="M2 2v13h20v-13h-20zm18 11h-16v-9h16v9zm-10.228 6l.466-1h3.524l.467 1h-4.457zm14.228 3h-24l2-6h2.104l-1.33 4h18.45l-1.297-4h2.073l2 6zm-5-10h-14v-7h14v7z"/></symbol></defs><defs><symbol id="my-svg-database" fill-rule="evenodd" clip-rule="evenodd"><path transform="scale(.5)" d="M12.258.001l.256.004.255.005.253.008.251.01.249.012.247.015.246.016.242.019.241.02.239.023.236.024.233.027.231.028.229.031.225.032.223.034.22.036.217.038.214.04.211.041.208.043.205.045.201.046.198.048.194.05.191.051.187.053.183.054.18.056.175.057.172.059.168.06.163.061.16.063.155.064.15.066.074.033.073.033.071.034.07.034.069.035.068.035.067.035.066.035.064.036.064.036.062.036.06.036.06.037.058.037.058.037.055.038.055.038.053.038.052.038.051.039.05.039.048.039.047.039.045.04.044.04.043.04.041.04.04.041.039.041.037.041.036.041.034.041.033.042.032.042.03.042.029.042.027.042.026.043.024.043.023.043.021.043.02.043.018.044.017.043.015.044.013.044.012.044.011.045.009.044.007.045.006.045.004.045.002.045.001.045v17l-.001.045-.002.045-.004.045-.006.045-.007.045-.009.044-.011.045-.012.044-.013.044-.015.044-.017.043-.018.044-.02.043-.021.043-.023.043-.024.043-.026.043-.027.042-.029.042-.03.042-.032.042-.033.042-.034.041-.036.041-.037.041-.039.041-.04.041-.041.04-.043.04-.044.04-.045.04-.047.039-.048.039-.05.039-.051.039-.052.038-.053.038-.055.038-.055.038-.058.037-.058.037-.06.037-.06.036-.062.036-.064.036-.064.036-.066.035-.067.035-.068.035-.069.035-.07.034-.071.034-.073.033-.074.033-.15.066-.155.064-.16.063-.163.061-.168.06-.172.059-.175.057-.18.056-.183.054-.187.053-.191.051-.194.05-.198.048-.201.046-.205.045-.208.043-.211.041-.214.04-.217.038-.22.036-.223.034-.225.032-.229.031-.231.028-.233.027-.236.024-.239.023-.241.02-.242.019-.246.016-.247.015-.249.012-.251.01-.253.008-.255.005-.256.004-.258.001-.258-.001-.256-.004-.255-.005-.253-.008-.251-.01-.249-.012-.247-.015-.245-.016-.243-.019-.241-.02-.238-.023-.236-.024-.234-.027-.231-.028-.228-.031-.226-.032-.223-.034-.22-.036-.217-.038-.214-.04-.211-.041-.208-.043-.204-.045-.201-.046-.198-.048-.195-.05-.19-.051-.187-.053-.184-.054-.179-.056-.176-.057-.172-.059-.167-.06-.164-.061-.159-.063-.155-.064-.151-.066-.074-.033-.072-.033-.072-.034-.07-.034-.069-.035-.068-.035-.067-.035-.066-.035-.064-.036-.063-.036-.062-.036-.061-.036-.06-.037-.058-.037-.057-.037-.056-.038-.055-.038-.053-.038-.052-.038-.051-.039-.049-.039-.049-.039-.046-.039-.046-.04-.044-.04-.043-.04-.041-.04-.04-.041-.039-.041-.037-.041-.036-.041-.034-.041-.033-.042-.032-.042-.03-.042-.029-.042-.027-.042-.026-.043-.024-.043-.023-.043-.021-.043-.02-.043-.018-.044-.017-.043-.015-.044-.013-.044-.012-.044-.011-.045-.009-.044-.007-.045-.006-.045-.004-.045-.002-.045-.001-.045v-17l.001-.045.002-.045.004-.045.006-.045.007-.045.009-.044.011-.045.012-.044.013-.044.015-.044.017-.043.018-.044.02-.043.021-.043.023-.043.024-.043.026-.043.027-.042.029-.042.03-.042.032-.042.033-.042.034-.041.036-.041.037-.041.039-.041.04-.041.041-.04.043-.04.044-.04.046-.04.046-.039.049-.039.049-.039.051-.039.052-.038.053-.038.055-.038.056-.038.057-.037.058-.037.06-.037.061-.036.062-.036.063-.036.064-.036.066-.035.067-.035.068-.035.069-.035.07-.034.072-.034.072-.033.074-.033.151-.066.155-.064.159-.063.164-.061.167-.06.172-.059.176-.057.179-.056.184-.054.187-.053.19-.051.195-.05.198-.048.201-.046.204-.045.208-.043.211-.041.214-.04.217-.038.22-.036.223-.034.226-.032.228-.031.231-.028.234-.027.236-.024.238-.023.241-.02.243-.019.245-.016.247-.015.249-.012.251-.01.253-.008.255-.005.256-.004.258-.001.258.001zm-9.258 20.499v.01l.001.021.003.021.004.022.005.021.006.022.007.022.009.023.01.022.011.023.012.023.013.023.015.023.016.024.017.023.018.024.019.024.021.024.022.025.023.024.024.025.052.049.056.05.061.051.066.051.07.051.075.051.079.052.084.052.088.052.092.052.097.052.102.051.105.052.11.052.114.051.119.051.123.051.127.05.131.05.135.05.139.048.144.049.147.047.152.047.155.047.16.045.163.045.167.043.171.043.176.041.178.041.183.039.187.039.19.037.194.035.197.035.202.033.204.031.209.03.212.029.216.027.219.025.222.024.226.021.23.02.233.018.236.016.24.015.243.012.246.01.249.008.253.005.256.004.259.001.26-.001.257-.004.254-.005.25-.008.247-.011.244-.012.241-.014.237-.016.233-.018.231-.021.226-.021.224-.024.22-.026.216-.027.212-.028.21-.031.205-.031.202-.034.198-.034.194-.036.191-.037.187-.039.183-.04.179-.04.175-.042.172-.043.168-.044.163-.045.16-.046.155-.046.152-.047.148-.048.143-.049.139-.049.136-.05.131-.05.126-.05.123-.051.118-.052.114-.051.11-.052.106-.052.101-.052.096-.052.092-.052.088-.053.083-.051.079-.052.074-.052.07-.051.065-.051.06-.051.056-.05.051-.05.023-.024.023-.025.021-.024.02-.024.019-.024.018-.024.017-.024.015-.023.014-.024.013-.023.012-.023.01-.023.01-.022.008-.022.006-.022.006-.022.004-.022.004-.021.001-.021.001-.021v-4.127l-.077.055-.08.053-.083.054-.085.053-.087.052-.09.052-.093.051-.095.05-.097.05-.1.049-.102.049-.105.048-.106.047-.109.047-.111.046-.114.045-.115.045-.118.044-.12.043-.122.042-.124.042-.126.041-.128.04-.13.04-.132.038-.134.038-.135.037-.138.037-.139.035-.142.035-.143.034-.144.033-.147.032-.148.031-.15.03-.151.03-.153.029-.154.027-.156.027-.158.026-.159.025-.161.024-.162.023-.163.022-.165.021-.166.02-.167.019-.169.018-.169.017-.171.016-.173.015-.173.014-.175.013-.175.012-.177.011-.178.01-.179.008-.179.008-.181.006-.182.005-.182.004-.184.003-.184.002h-.37l-.184-.002-.184-.003-.182-.004-.182-.005-.181-.006-.179-.008-.179-.008-.178-.01-.176-.011-.176-.012-.175-.013-.173-.014-.172-.015-.171-.016-.17-.017-.169-.018-.167-.019-.166-.02-.165-.021-.163-.022-.162-.023-.161-.024-.159-.025-.157-.026-.156-.027-.155-.027-.153-.029-.151-.03-.15-.03-.148-.031-.146-.032-.145-.033-.143-.034-.141-.035-.14-.035-.137-.037-.136-.037-.134-.038-.132-.038-.13-.04-.128-.04-.126-.041-.124-.042-.122-.042-.12-.044-.117-.043-.116-.045-.113-.045-.112-.046-.109-.047-.106-.047-.105-.048-.102-.049-.1-.049-.097-.05-.095-.05-.093-.052-.09-.051-.087-.052-.085-.053-.083-.054-.08-.054-.077-.054v4.127zm0-5.654v.011l.001.021.003.021.004.021.005.022.006.022.007.022.009.022.01.022.011.023.012.023.013.023.015.024.016.023.017.024.018.024.019.024.021.024.022.024.023.025.024.024.052.05.056.05.061.05.066.051.07.051.075.052.079.051.084.052.088.052.092.052.097.052.102.052.105.052.11.051.114.051.119.052.123.05.127.051.131.05.135.049.139.049.144.048.147.048.152.047.155.046.16.045.163.045.167.044.171.042.176.042.178.04.183.04.187.038.19.037.194.036.197.034.202.033.204.032.209.03.212.028.216.027.219.025.222.024.226.022.23.02.233.018.236.016.24.014.243.012.246.01.249.008.253.006.256.003.259.001.26-.001.257-.003.254-.006.25-.008.247-.01.244-.012.241-.015.237-.016.233-.018.231-.02.226-.022.224-.024.22-.025.216-.027.212-.029.21-.03.205-.032.202-.033.198-.035.194-.036.191-.037.187-.039.183-.039.179-.041.175-.042.172-.043.168-.044.163-.045.16-.045.155-.047.152-.047.148-.048.143-.048.139-.05.136-.049.131-.05.126-.051.123-.051.118-.051.114-.052.11-.052.106-.052.101-.052.096-.052.092-.052.088-.052.083-.052.079-.052.074-.051.07-.052.065-.051.06-.05.056-.051.051-.049.023-.025.023-.024.021-.025.02-.024.019-.024.018-.024.017-.024.015-.023.014-.023.013-.024.012-.022.01-.023.01-.023.008-.022.006-.022.006-.022.004-.021.004-.022.001-.021.001-.021v-4.139l-.077.054-.08.054-.083.054-.085.052-.087.053-.09.051-.093.051-.095.051-.097.05-.1.049-.102.049-.105.048-.106.047-.109.047-.111.046-.114.045-.115.044-.118.044-.12.044-.122.042-.124.042-.126.041-.128.04-.13.039-.132.039-.134.038-.135.037-.138.036-.139.036-.142.035-.143.033-.144.033-.147.033-.148.031-.15.03-.151.03-.153.028-.154.028-.156.027-.158.026-.159.025-.161.024-.162.023-.163.022-.165.021-.166.02-.167.019-.169.018-.169.017-.171.016-.173.015-.173.014-.175.013-.175.012-.177.011-.178.009-.179.009-.179.007-.181.007-.182.005-.182.004-.184.003-.184.002h-.37l-.184-.002-.184-.003-.182-.004-.182-.005-.181-.007-.179-.007-.179-.009-.178-.009-.176-.011-.176-.012-.175-.013-.173-.014-.172-.015-.171-.016-.17-.017-.169-.018-.167-.019-.166-.02-.165-.021-.163-.022-.162-.023-.161-.024-.159-.025-.157-.026-.156-.027-.155-.028-.153-.028-.151-.03-.15-.03-.148-.031-.146-.033-.145-.033-.143-.033-.141-.035-.14-.036-.137-.036-.136-.037-.134-.038-.132-.039-.13-.039-.128-.04-.126-.041-.124-.042-.122-.043-.12-.043-.117-.044-.116-.044-.113-.046-.112-.046-.109-.046-.106-.047-.105-.048-.102-.049-.1-.049-.097-.05-.095-.051-.093-.051-.09-.051-.087-.053-.085-.052-.083-.054-.08-.054-.077-.054v4.139zm0-5.666v.011l.001.02.003.022.004.021.005.022.006.021.007.022.009.023.01.022.011.023.012.023.013.023.015.023.016.024.017.024.018.023.019.024.021.025.022.024.023.024.024.025.052.05.056.05.061.05.066.051.07.051.075.052.079.051.084.052.088.052.092.052.097.052.102.052.105.051.11.052.114.051.119.051.123.051.127.05.131.05.135.05.139.049.144.048.147.048.152.047.155.046.16.045.163.045.167.043.171.043.176.042.178.04.183.04.187.038.19.037.194.036.197.034.202.033.204.032.209.03.212.028.216.027.219.025.222.024.226.021.23.02.233.018.236.017.24.014.243.012.246.01.249.008.253.006.256.003.259.001.26-.001.257-.003.254-.006.25-.008.247-.01.244-.013.241-.014.237-.016.233-.018.231-.02.226-.022.224-.024.22-.025.216-.027.212-.029.21-.03.205-.032.202-.033.198-.035.194-.036.191-.037.187-.039.183-.039.179-.041.175-.042.172-.043.168-.044.163-.045.16-.045.155-.047.152-.047.148-.048.143-.049.139-.049.136-.049.131-.051.126-.05.123-.051.118-.052.114-.051.11-.052.106-.052.101-.052.096-.052.092-.052.088-.052.083-.052.079-.052.074-.052.07-.051.065-.051.06-.051.056-.05.051-.049.023-.025.023-.025.021-.024.02-.024.019-.024.018-.024.017-.024.015-.023.014-.024.013-.023.012-.023.01-.022.01-.023.008-.022.006-.022.006-.022.004-.022.004-.021.001-.021.001-.021v-4.153l-.077.054-.08.054-.083.053-.085.053-.087.053-.09.051-.093.051-.095.051-.097.05-.1.049-.102.048-.105.048-.106.048-.109.046-.111.046-.114.046-.115.044-.118.044-.12.043-.122.043-.124.042-.126.041-.128.04-.13.039-.132.039-.134.038-.135.037-.138.036-.139.036-.142.034-.143.034-.144.033-.147.032-.148.032-.15.03-.151.03-.153.028-.154.028-.156.027-.158.026-.159.024-.161.024-.162.023-.163.023-.165.021-.166.02-.167.019-.169.018-.169.017-.171.016-.173.015-.173.014-.175.013-.175.012-.177.01-.178.01-.179.009-.179.007-.181.006-.182.006-.182.004-.184.003-.184.001-.185.001-.185-.001-.184-.001-.184-.003-.182-.004-.182-.006-.181-.006-.179-.007-.179-.009-.178-.01-.176-.01-.176-.012-.175-.013-.173-.014-.172-.015-.171-.016-.17-.017-.169-.018-.167-.019-.166-.02-.165-.021-.163-.023-.162-.023-.161-.024-.159-.024-.157-.026-.156-.027-.155-.028-.153-.028-.151-.03-.15-.03-.148-.032-.146-.032-.145-.033-.143-.034-.141-.034-.14-.036-.137-.036-.136-.037-.134-.038-.132-.039-.13-.039-.128-.041-.126-.041-.124-.041-.122-.043-.12-.043-.117-.044-.116-.044-.113-.046-.112-.046-.109-.046-.106-.048-.105-.048-.102-.048-.1-.05-.097-.049-.095-.051-.093-.051-.09-.052-.087-.052-.085-.053-.083-.053-.08-.054-.077-.054v4.153zm8.74-8.179l-.257.004-.254.005-.25.008-.247.011-.244.012-.241.014-.237.016-.233.018-.231.021-.226.022-.224.023-.22.026-.216.027-.212.028-.21.031-.205.032-.202.033-.198.034-.194.036-.191.038-.187.038-.183.04-.179.041-.175.042-.172.043-.168.043-.163.045-.16.046-.155.046-.152.048-.148.048-.143.048-.139.049-.136.05-.131.05-.126.051-.123.051-.118.051-.114.052-.11.052-.106.052-.101.052-.096.052-.092.052-.088.052-.083.052-.079.052-.074.051-.07.052-.065.051-.06.05-.056.05-.051.05-.023.025-.023.024-.021.024-.02.025-.019.024-.018.024-.017.023-.015.024-.014.023-.013.023-.012.023-.01.023-.01.022-.008.022-.006.023-.006.021-.004.022-.004.021-.001.021-.001.021.001.021.001.021.004.021.004.022.006.021.006.023.008.022.01.022.01.023.012.023.013.023.014.023.015.024.017.023.018.024.019.024.02.025.021.024.023.024.023.025.051.05.056.05.06.05.065.051.07.052.074.051.079.052.083.052.088.052.092.052.096.052.101.052.106.052.11.052.114.052.118.051.123.051.126.051.131.05.136.05.139.049.143.048.148.048.152.048.155.046.16.046.163.045.168.043.172.043.175.042.179.041.183.04.187.038.191.038.194.036.198.034.202.033.205.032.21.031.212.028.216.027.22.026.224.023.226.022.231.021.233.018.237.016.241.014.244.012.247.011.25.008.254.005.257.004.26.001.26-.001.257-.004.254-.005.25-.008.247-.011.244-.012.241-.014.237-.016.233-.018.231-.021.226-.022.224-.023.22-.026.216-.027.212-.028.21-.031.205-.032.202-.033.198-.034.194-.036.191-.038.187-.038.183-.04.179-.041.175-.042.172-.043.168-.043.163-.045.16-.046.155-.046.152-.048.148-.048.143-.048.139-.049.136-.05.131-.05.126-.051.123-.051.118-.051.114-.052.11-.052.106-.052.101-.052.096-.052.092-.052.088-.052.083-.052.079-.052.074-.051.07-.052.065-.051.06-.05.056-.05.051-.05.023-.025.023-.024.021-.024.02-.025.019-.024.018-.024.017-.023.015-.024.014-.023.013-.023.012-.023.01-.023.01-.022.008-.022.006-.023.006-.021.004-.022.004-.021.001-.021.001-.021-.001-.021-.001-.021-.004-.021-.004-.022-.006-.021-.006-.023-.008-.022-.01-.022-.01-.023-.012-.023-.013-.023-.014-.023-.015-.024-.017-.023-.018-.024-.019-.024-.02-.025-.021-.024-.023-.024-.023-.025-.051-.05-.056-.05-.06-.05-.065-.051-.07-.052-.074-.051-.079-.052-.083-.052-.088-.052-.092-.052-.096-.052-.101-.052-.106-.052-.11-.052-.114-.052-.118-.051-.123-.051-.126-.051-.131-.05-.136-.05-.139-.049-.143-.048-.148-.048-.152-.048-.155-.046-.16-.046-.163-.045-.168-.043-.172-.043-.175-.042-.179-.041-.183-.04-.187-.038-.191-.038-.194-.036-.198-.034-.202-.033-.205-.032-.21-.031-.212-.028-.216-.027-.22-.026-.224-.023-.226-.022-.231-.021-.233-.018-.237-.016-.241-.014-.244-.012-.247-.011-.25-.008-.254-.005-.257-.004-.26-.001-.26.001z"/></symbol></defs><defs><symbol id="my-svg-clock" width="24" height="24"><path transform="scale(.5)" d="M12 2c5.514 0 10 4.486 10 10s-4.486 10-10 10-10-4.486-10-10 4.486-10 10-10zm0-2c-6.627 0-12 5.373-12 12s5.373 12 12 12 12-5.373 12-12-5.373-12-12-12zm5.848 12.459c.202.038.202.333.001.372-1.907.361-6.045 1.111-6.547 1.111-.719 0-1.301-.582-1.301-1.301 0-.512.77-5.447 1.125-7.445.034-.192.312-.181.343.014l.985 6.238 5.394 1.011z"/></symbol></defs><defs><marker id="my-svg-arrowhead" refX="7.9" refY="5" markerUnits="userSpaceOnUse" markerWidth="12" markerHeight="12" orient="auto-start-reverse"><path d="M -1 0 L 10 5 L 0 10 z"/></marker></defs><defs><marker id="my-svg-crosshead" markerWidth="15" markerHeight="8" orient="auto" refX="4" refY="4.5"><path fill="none" stroke="#000000" stroke-width="1pt" d="M 1,2 L 6,7 M 6,2 L 1,7" style="stroke-dasharray: 0, 0;"/></marker></defs><defs><marker id="my-svg-filled-head" refX="15.5" refY="7" markerWidth="20" markerHeight="28" orient="auto"><path d="M 18,7 L9,13 L14,7 L9,1 Z"/></marker></defs><defs><marker id="my-svg-sequencenumber" refX="15" refY="15" markerWidth="60" markerHeight="40" orient="auto"><circle cx="15" cy="15" r="6"/></marker></defs><defs><marker id="my-svg-solidTopArrowHead" refX="7.9" refY="7.25" markerUnits="userSpaceOnUse" markerWidth="12" markerHeight="12" orient="auto-start-reverse"><path d="M 0 0 L 10 8 L 0 8 z"/></marker></defs><defs><marker id="my-svg-solidBottomArrowHead" refX="7.9" refY="0.75" markerUnits="userSpaceOnUse" markerWidth="12" markerHeight="12" orient="auto-start-reverse"><path d="M 0 0 L 10 0 L 0 8 z"/></marker></defs><defs><marker id="my-svg-stickTopArrowHead" refX="7.5" refY="7" markerUnits="userSpaceOnUse" markerWidth="12" markerHeight="12" orient="auto-start-reverse"><path d="M 0 0 L 7 7" stroke="black" stroke-width="1.5" fill="none"/></marker></defs><defs><marker id="my-svg-stickBottomArrowHead" refX="7.5" refY="0" markerUnits="userSpaceOnUse" markerWidth="12" markerHeight="12" orient="auto-start-reverse"><path d="M 0 7 L 7 0" stroke="black" stroke-width="1.5" fill="none"/></marker></defs><g data-et="note" data-id="i1"><rect x="50" y="75" fill="#EDF2AE" stroke="#666" width="253" height="39" class="note"/><text x="177" y="80" text-anchor="middle" dominant-baseline="middle" alignment-baseline="middle" class="noteText" dy="1em" style="font-size: 16px; font-weight: 400;"><tspan x="177">loadContent — pre-build</tspan></text></g><g data-et="note" data-id="i8"><rect x="50" y="538" fill="#EDF2AE" stroke="#666" width="253" height="39" class="note"/><text x="177" y="543" text-anchor="middle" dominant-baseline="middle" alignment-baseline="middle" class="noteText" dy="1em" style="font-size: 16px; font-weight: 400;"><tspan x="177">postBuild — post-emission</tspan></text></g><g data-et="control-structure" data-id="i19"><line x1="167.5" y1="1049" x2="390.5" y2="1049" class="loopLine"/><line x1="390.5" y1="1049" x2="390.5" y2="1215" class="loopLine"/><line x1="167.5" y1="1215" x2="390.5" y2="1215" class="loopLine"/><line x1="167.5" y1="1049" x2="167.5" y2="1215" class="loopLine"/><polygon points="167.5,1049 217.5,1049 217.5,1062 209.1,1069 167.5,1069" class="labelBox"/><text x="193" y="1062" text-anchor="middle" dominant-baseline="middle" alignment-baseline="middle" class="labelText" style="font-size: 16px; font-weight: 400;">opt</text><text x="304" y="1067" text-anchor="middle" class="loopText" style="font-size: 16px; font-weight: 400;"><tspan x="304">[legacy version]</tspan></text></g><g data-et="control-structure" data-id="i27"><line x1="143" y1="1299" x2="415" y2="1299" class="loopLine"/><line x1="415" y1="1299" x2="415" y2="1686" class="loopLine"/><line x1="143" y1="1686" x2="415" y2="1686" class="loopLine"/><line x1="143" y1="1299" x2="143" y2="1686" class="loopLine"/><line x1="143" y1="1423" x2="415" y2="1423" class="loopLine" style="stroke-dasharray: 3, 3;"/><line x1="143" y1="1542" x2="415" y2="1542" class="loopLine" style="stroke-dasharray: 3, 3;"/><polygon points="143,1299 193,1299 193,1312 184.6,1319 143,1319" class="labelBox"/><text x="168" y="1312" text-anchor="middle" dominant-baseline="middle" alignment-baseline="middle" class="labelText" style="font-size: 16px; font-weight: 400;">alt</text><text x="304" y="1317" text-anchor="middle" class="loopText" style="font-size: 16px; font-weight: 400;"><tspan x="304">[legacy version]</tspan></text><text x="279" y="1441" text-anchor="middle" class="loopText" style="font-size: 16px; font-weight: 400;">[current / indexed version]</text><text x="279" y="1560" text-anchor="middle" class="loopText" style="font-size: 16px; font-weight: 400;">[no canonical tag]</text></g><g data-et="control-structure" data-id="i30"><line x1="267" y1="1696" x2="501" y2="1696" class="loopLine"/><line x1="501" y1="1696" x2="501" y2="1785" class="loopLine"/><line x1="267" y1="1785" x2="501" y2="1785" class="loopLine"/><line x1="267" y1="1696" x2="267" y2="1785" class="loopLine"/><polygon points="267,1696 317,1696 317,1709 308.6,1716 267,1716" class="labelBox"/><text x="292" y="1709" text-anchor="middle" dominant-baseline="middle" alignment-baseline="middle" class="labelText" style="font-size: 16px; font-weight: 400;">opt</text><text x="409" y="1714" text-anchor="middle" class="loopText" style="font-size: 16px; font-weight: 400;"><tspan x="409">[changed]</tspan></text></g><g data-et="control-structure" data-id="i32"><line x1="133" y1="885" x2="701" y2="885" class="loopLine"/><line x1="701" y1="885" x2="701" y2="1839" class="loopLine"/><line x1="133" y1="1839" x2="701" y2="1839" class="loopLine"/><line x1="133" y1="885" x2="133" y2="1839" class="loopLine"/><line x1="133" y1="1009" x2="701" y2="1009" class="loopLine" style="stroke-dasharray: 3, 3;"/><polygon points="133,885 183,885 183,898 174.6,905 133,905" class="labelBox"/><text x="158" y="898" text-anchor="middle" dominant-baseline="middle" alignment-baseline="middle" class="labelText" style="font-size: 16px; font-weight: 400;">alt</text><text x="442" y="903" text-anchor="middle" class="loopText" style="font-size: 16px; font-weight: 400;"><tspan x="442">[not version-prefixed]</tspan></text><text x="417" y="1027" text-anchor="middle" class="loopText" style="font-size: 16px; font-weight: 400;">[version-prefixed]</text></g><g data-et="control-structure" data-id="i33"><line x1="123" y1="722" x2="711" y2="722" class="loopLine"/><line x1="711" y1="722" x2="711" y2="1849" class="loopLine"/><line x1="123" y1="1849" x2="711" y2="1849" class="loopLine"/><line x1="123" y1="722" x2="123" y2="1849" class="loopLine"/><polygon points="123,722 173,722 173,735 164.6,742 123,742" class="labelBox"/><text x="148" y="735" text-anchor="middle" dominant-baseline="middle" alignment-baseline="middle" class="labelText" style="font-size: 16px; font-weight: 400;">loop</text><text x="442" y="740" text-anchor="middle" class="loopText" style="font-size: 16px; font-weight: 400;"><tspan x="442">[walk(outDir) — each .html]</tspan></text></g><g data-et="control-structure" data-id="i42"><line x1="267" y1="1948" x2="701" y2="1948" class="loopLine"/><line x1="701" y1="1948" x2="701" y2="2215" class="loopLine"/><line x1="267" y1="2215" x2="701" y2="2215" class="loopLine"/><line x1="267" y1="1948" x2="267" y2="2215" class="loopLine"/><line x1="267" y1="2042" x2="701" y2="2042" class="loopLine" style="stroke-dasharray: 3, 3;"/><line x1="267" y1="2131" x2="701" y2="2131" class="loopLine" style="stroke-dasharray: 3, 3;"/><polygon points="267,1948 317,1948 317,1961 308.6,1968 267,1968" class="labelBox"/><text x="292" y="1961" text-anchor="middle" dominant-baseline="middle" alignment-baseline="middle" class="labelText" style="font-size: 16px; font-weight: 400;">alt</text><text x="509" y="1966" text-anchor="middle" class="loopText" style="font-size: 16px; font-weight: 400;"><tspan x="509">[legacy file]</tspan></text><text x="484" y="2060" text-anchor="middle" class="loopText" style="font-size: 16px; font-weight: 400;">[canonical ¬ startsWith(baseUrl)]</text><text x="484" y="2149" text-anchor="middle" class="loopText" style="font-size: 16px; font-weight: 400;">[canonical path ∉ universe]</text></g><g data-et="control-structure" data-id="i43"><line x1="257" y1="1903" x2="711" y2="1903" class="loopLine"/><line x1="711" y1="1903" x2="711" y2="2225" class="loopLine"/><line x1="257" y1="2225" x2="711" y2="2225" class="loopLine"/><line x1="257" y1="1903" x2="257" y2="2225" class="loopLine"/><polygon points="257,1903 307,1903 307,1916 298.6,1923 257,1923" class="labelBox"/><text x="282" y="1916" text-anchor="middle" dominant-baseline="middle" alignment-baseline="middle" class="labelText" style="font-size: 16px; font-weight: 400;">loop</text><text x="509" y="1921" text-anchor="middle" class="loopText" style="font-size: 16px; font-weight: 400;"><tspan x="509">[each record]</tspan></text></g><g data-et="control-structure" data-id="i49"><line x1="64" y1="2309" x2="289" y2="2309" class="loopLine"/><line x1="289" y1="2309" x2="289" y2="2481" class="loopLine"/><line x1="64" y1="2481" x2="289" y2="2481" class="loopLine"/><line x1="64" y1="2309" x2="64" y2="2481" class="loopLine"/><line x1="64" y1="2417" x2="289" y2="2417" class="loopLine" style="stroke-dasharray: 3, 3;"/><polygon points="64,2309 114,2309 114,2322 105.6,2329 64,2329" class="labelBox"/><text x="89" y="2322" text-anchor="middle" dominant-baseline="middle" alignment-baseline="middle" class="labelText" style="font-size: 16px; font-weight: 400;">alt</text><text x="201.5" y="2327" text-anchor="middle" class="loopText" style="font-size: 16px; font-weight: 400;"><tspan x="201.5">[any assertion failed</tspan></text><text x="201.5" y="2346" text-anchor="middle" class="loopText" style="font-size: 16px; font-weight: 400;"><tspan x="201.5">&amp;&amp; strict mode]</tspan></text></g><text x="175" y="129" text-anchor="middle" dominant-baseline="middle" alignment-baseline="middle" class="messageText" dy="1em" style="font-size: 16px; font-weight: 400;">routesPaths</text><line x1="82" y1="158" x2="274" y2="158" class="messageLine0" data-et="message" data-id="i2" data-from="D" data-to="P" stroke-width="2" stroke="none" marker-end="url(#my-svg-arrowhead)" style="fill: none;"/><line x1="75" y1="158" x2="75" y2="158" stroke-width="0" marker-start="url(#my-svg-sequencenumber)"/><text x="75" y="162" font-family="sans-serif" font-size="12px" text-anchor="middle" class="sequenceNumber">1</text><text x="279" y="173" text-anchor="middle" dominant-baseline="middle" alignment-baseline="middle" class="messageText" dy="1em" style="font-size: 16px; font-weight: 400;">read scripts/redirects.json</text><path d="M 279,202 C 339,192 339,232 279,222" class="messageLine0" data-et="message" data-id="i3" data-from="P" data-to="P" stroke-width="2" stroke="none" marker-end="url(#my-svg-arrowhead)" x1="285" style="fill: none;"/><line x1="278" y1="202" x2="278" y2="202" stroke-width="0" marker-start="url(#my-svg-sequencenumber)"/><text x="278" y="206" font-family="sans-serif" font-size="12px" text-anchor="middle" class="sequenceNumber">2</text><text x="279" y="247" text-anchor="middle" dominant-baseline="middle" alignment-baseline="middle" class="messageText" dy="1em" style="font-size: 16px; font-weight: 400;">validateRedirects (schema)</text><path d="M 279,276 C 339,266 339,306 279,296" class="messageLine0" data-et="message" data-id="i4" data-from="P" data-to="P" stroke-width="2" stroke="none" marker-end="url(#my-svg-arrowhead)" x1="285" style="fill: none;"/><line x1="278" y1="276" x2="278" y2="276" stroke-width="0" marker-start="url(#my-svg-sequencenumber)"/><text x="278" y="280" font-family="sans-serif" font-size="12px" text-anchor="middle" class="sequenceNumber">3</text><text x="279" y="321" text-anchor="middle" dominant-baseline="middle" alignment-baseline="middle" class="messageText" dy="1em" style="font-size: 16px; font-weight: 400;">validateNoCycles</text><path d="M 279,350 C 339,340 339,380 279,370" class="messageLine0" data-et="message" data-id="i5" data-from="P" data-to="P" stroke-width="2" stroke="none" marker-end="url(#my-svg-arrowhead)" x1="285" style="fill: none;"/><line x1="278" y1="350" x2="278" y2="350" stroke-width="0" marker-start="url(#my-svg-sequencenumber)"/><text x="278" y="354" font-family="sans-serif" font-size="12px" text-anchor="middle" class="sequenceNumber">4</text><text x="279" y="395" text-anchor="middle" dominant-baseline="middle" alignment-baseline="middle" class="messageText" dy="1em" style="font-size: 16px; font-weight: 400;">validateTargetsExist</text><path d="M 279,424 C 339,414 339,454 279,444" class="messageLine0" data-et="message" data-id="i6" data-from="P" data-to="P" stroke-width="2" stroke="none" marker-end="url(#my-svg-arrowhead)" x1="285" style="fill: none;"/><line x1="278" y1="424" x2="278" y2="424" stroke-width="0" marker-start="url(#my-svg-sequencenumber)"/><text x="278" y="428" font-family="sans-serif" font-size="12px" text-anchor="middle" class="sequenceNumber">5</text><text x="279" y="469" text-anchor="middle" dominant-baseline="middle" alignment-baseline="middle" class="messageText" dy="1em" style="font-size: 16px; font-weight: 400;">buildRedirectMap() [once]</text><path d="M 279,498 C 339,488 339,528 279,518" class="messageLine0" data-et="message" data-id="i7" data-from="P" data-to="P" stroke-width="2" stroke="none" marker-end="url(#my-svg-arrowhead)" x1="285" style="fill: none;"/><line x1="278" y1="498" x2="278" y2="498" stroke-width="0" marker-start="url(#my-svg-sequencenumber)"/><text x="278" y="502" font-family="sans-serif" font-size="12px" text-anchor="middle" class="sequenceNumber">6</text><text x="281" y="592" text-anchor="middle" dominant-baseline="middle" alignment-baseline="middle" class="messageText" dy="1em" style="font-size: 16px; font-weight: 400;">emit HTML files (noindex meta already SSR'd by Docusaurus</text><text x="281" y="611" text-anchor="middle" dominant-baseline="middle" alignment-baseline="middle" class="messageText" dy="1em" style="font-size: 16px; font-weight: 400;">for any version with noIndex: true)</text><line x1="82" y1="638" x2="486" y2="638" class="messageLine0" data-et="message" data-id="i9" data-from="D" data-to="FS" stroke-width="2" stroke="none" marker-end="url(#my-svg-arrowhead)" style="fill: none;"/><line x1="75" y1="638" x2="75" y2="638" stroke-width="0" marker-start="url(#my-svg-sequencenumber)"/><text x="75" y="642" font-family="sans-serif" font-size="12px" text-anchor="middle" class="sequenceNumber">7</text><text x="279" y="653" text-anchor="middle" dominant-baseline="middle" alignment-baseline="middle" class="messageText" dy="1em" style="font-size: 16px; font-weight: 400;">buildUniverse(routesPaths, CURRENT) [once]</text><path d="M 279,682 C 339,672 339,712 279,702" class="messageLine0" data-et="message" data-id="i10" data-from="P" data-to="P" stroke-width="2" stroke="none" marker-end="url(#my-svg-arrowhead)" x1="285" style="fill: none;"/><line x1="278" y1="682" x2="278" y2="682" stroke-width="0" marker-start="url(#my-svg-sequencenumber)"/><text x="278" y="686" font-family="sans-serif" font-size="12px" text-anchor="middle" class="sequenceNumber">8</text><text x="383" y="772" text-anchor="middle" dominant-baseline="middle" alignment-baseline="middle" class="messageText" dy="1em" style="font-size: 16px; font-weight: 400;">read file</text><line x1="285" y1="801" x2="486" y2="801" class="messageLine0" data-et="message" data-id="i12" data-from="P" data-to="FS" stroke-width="2" stroke="none" marker-end="url(#my-svg-arrowhead)" style="fill: none;"/><line x1="278" y1="801" x2="278" y2="801" stroke-width="0" marker-start="url(#my-svg-sequencenumber)"/><text x="278" y="805" font-family="sans-serif" font-size="12px" text-anchor="middle" class="sequenceNumber">9</text><text x="279" y="816" text-anchor="middle" dominant-baseline="middle" alignment-baseline="middle" class="messageText" dy="1em" style="font-size: 16px; font-weight: 400;">extractVersionInfo(rel)</text><path d="M 279,845 C 339,835 339,875 279,865" class="messageLine0" data-et="message" data-id="i13" data-from="P" data-to="P" stroke-width="2" stroke="none" marker-end="url(#my-svg-arrowhead)" x1="285" style="fill: none;"/><line x1="278" y1="845" x2="278" y2="845" stroke-width="0" marker-start="url(#my-svg-sequencenumber)"/><text x="278" y="849" font-family="sans-serif" font-size="12px" text-anchor="middle" class="sequenceNumber">10</text><text x="279" y="935" text-anchor="middle" dominant-baseline="middle" alignment-baseline="middle" class="messageText" dy="1em" style="font-size: 16px; font-weight: 400;">skip (cloud/guides/templates/root)</text><path d="M 279,964 C 339,954 339,994 279,984" class="messageLine1" data-et="message" data-id="i15" data-from="P" data-to="P" stroke-width="2" stroke="none" marker-end="url(#my-svg-arrowhead)" x1="285" style="stroke-dasharray: 3, 3; fill: none;"/><line x1="278" y1="964" x2="278" y2="964" stroke-width="0" marker-start="url(#my-svg-sequencenumber)"/><text x="278" y="968" font-family="sans-serif" font-size="12px" text-anchor="middle" class="sequenceNumber">11</text><text x="279" y="1099" text-anchor="middle" dominant-baseline="middle" alignment-baseline="middle" class="messageText" dy="1em" style="font-size: 16px; font-weight: 400;">hasNoindexRobotsMeta(html)?</text><text x="279" y="1118" text-anchor="middle" dominant-baseline="middle" alignment-baseline="middle" class="messageText" dy="1em" style="font-size: 16px; font-weight: 400;">collect file if missing</text><path d="M 279,1145 C 339,1135 339,1175 279,1165" class="messageLine0" data-et="message" data-id="i18" data-from="P" data-to="P" stroke-width="2" stroke="none" marker-end="url(#my-svg-arrowhead)" x1="285" style="fill: none;"/><line x1="278" y1="1145" x2="278" y2="1145" stroke-width="0" marker-start="url(#my-svg-sequencenumber)"/><text x="278" y="1149" font-family="sans-serif" font-size="12px" text-anchor="middle" class="sequenceNumber">12</text><text x="279" y="1230" text-anchor="middle" dominant-baseline="middle" alignment-baseline="middle" class="messageText" dy="1em" style="font-size: 16px; font-weight: 400;">rewriteHtml(...)</text><path d="M 279,1259 C 339,1249 339,1289 279,1279" class="messageLine0" data-et="message" data-id="i20" data-from="P" data-to="P" stroke-width="2" stroke="none" marker-end="url(#my-svg-arrowhead)" x1="285" style="fill: none;"/><line x1="278" y1="1259" x2="278" y2="1259" stroke-width="0" marker-start="url(#my-svg-sequencenumber)"/><text x="278" y="1263" font-family="sans-serif" font-size="12px" text-anchor="middle" class="sequenceNumber">13</text><text x="279" y="1349" text-anchor="middle" dominant-baseline="middle" alignment-baseline="middle" class="messageText" dy="1em" style="font-size: 16px; font-weight: 400;">canonical = self</text><path d="M 279,1378 C 339,1368 339,1408 279,1398" class="messageLine0" data-et="message" data-id="i22" data-from="P" data-to="P" stroke-width="2" stroke="none" marker-end="url(#my-svg-arrowhead)" x1="285" style="fill: none;"/><line x1="278" y1="1378" x2="278" y2="1378" stroke-width="0" marker-start="url(#my-svg-sequencenumber)"/><text x="278" y="1382" font-family="sans-serif" font-size="12px" text-anchor="middle" class="sequenceNumber">14</text><text x="279" y="1468" text-anchor="middle" dominant-baseline="middle" alignment-baseline="middle" class="messageText" dy="1em" style="font-size: 16px; font-weight: 400;">resolveChain → rewrite canonical href</text><path d="M 279,1497 C 339,1487 339,1527 279,1517" class="messageLine0" data-et="message" data-id="i24" data-from="P" data-to="P" stroke-width="2" stroke="none" marker-end="url(#my-svg-arrowhead)" x1="285" style="fill: none;"/><line x1="278" y1="1497" x2="278" y2="1497" stroke-width="0" marker-start="url(#my-svg-sequencenumber)"/><text x="278" y="1501" font-family="sans-serif" font-size="12px" text-anchor="middle" class="sequenceNumber">15</text><text x="279" y="1587" text-anchor="middle" dominant-baseline="middle" alignment-baseline="middle" class="messageText" dy="1em" style="font-size: 16px; font-weight: 400;">log.warn + counter</text><path d="M 279,1616 C 339,1606 339,1646 279,1636" class="messageLine1" data-et="message" data-id="i26" data-from="P" data-to="P" stroke-width="2" stroke="none" marker-end="url(#my-svg-arrowhead)" x1="285" style="stroke-dasharray: 3, 3; fill: none;"/><line x1="278" y1="1616" x2="278" y2="1616" stroke-width="0" marker-start="url(#my-svg-sequencenumber)"/><text x="278" y="1620" font-family="sans-serif" font-size="12px" text-anchor="middle" class="sequenceNumber">16</text><text x="383" y="1746" text-anchor="middle" dominant-baseline="middle" alignment-baseline="middle" class="messageText" dy="1em" style="font-size: 16px; font-weight: 400;">write file</text><line x1="285" y1="1775" x2="486" y2="1775" class="messageLine0" data-et="message" data-id="i29" data-from="P" data-to="FS" stroke-width="2" stroke="none" marker-end="url(#my-svg-arrowhead)" style="fill: none;"/><line x1="278" y1="1775" x2="278" y2="1775" stroke-width="0" marker-start="url(#my-svg-sequencenumber)"/><text x="278" y="1779" font-family="sans-serif" font-size="12px" text-anchor="middle" class="sequenceNumber">17</text><text x="483" y="1800" text-anchor="middle" dominant-baseline="middle" alignment-baseline="middle" class="messageText" dy="1em" style="font-size: 16px; font-weight: 400;">record canonical</text><line x1="285" y1="1829" x2="686" y2="1829" class="messageLine0" data-et="message" data-id="i31" data-from="P" data-to="V" stroke-width="2" stroke="none" marker-end="url(#my-svg-arrowhead)" style="fill: none;"/><line x1="278" y1="1829" x2="278" y2="1829" stroke-width="0" marker-start="url(#my-svg-sequencenumber)"/><text x="278" y="1833" font-family="sans-serif" font-size="12px" text-anchor="middle" class="sequenceNumber">18</text><text x="483" y="1864" text-anchor="middle" dominant-baseline="middle" alignment-baseline="middle" class="messageText" dy="1em" style="font-size: 16px; font-weight: 400;">verifyCanonicals(records, universe)</text><line x1="285" y1="1893" x2="686" y2="1893" class="messageLine0" data-et="message" data-id="i34" data-from="P" data-to="V" stroke-width="2" stroke="none" marker-end="url(#my-svg-arrowhead)" style="fill: none;"/><line x1="278" y1="1893" x2="278" y2="1893" stroke-width="0" marker-start="url(#my-svg-sequencenumber)"/><text x="278" y="1897" font-family="sans-serif" font-size="12px" text-anchor="middle" class="sequenceNumber">19</text><text x="486" y="1998" text-anchor="middle" dominant-baseline="middle" alignment-baseline="middle" class="messageText" dy="1em" style="font-size: 16px; font-weight: 400;">skip (self-canonical trivially valid)</text><line x1="695" y1="2027" x2="282" y2="2027" class="messageLine1" data-et="message" data-id="i37" data-from="V" data-to="P" stroke-width="2" stroke="none" marker-end="url(#my-svg-arrowhead)" style="stroke-dasharray: 3, 3; fill: none;"/><line x1="690" y1="2027" x2="690" y2="2027" stroke-width="0" marker-start="url(#my-svg-sequencenumber)"/><text x="690" y="2031" font-family="sans-serif" font-size="12px" text-anchor="middle" class="sequenceNumber">20</text><text x="486" y="2087" text-anchor="middle" dominant-baseline="middle" alignment-baseline="middle" class="messageText" dy="1em" style="font-size: 16px; font-weight: 400;">issue + fix hint</text><line x1="695" y1="2116" x2="282" y2="2116" class="messageLine1" data-et="message" data-id="i39" data-from="V" data-to="P" stroke-width="2" stroke="none" marker-end="url(#my-svg-arrowhead)" style="stroke-dasharray: 3, 3; fill: none;"/><line x1="690" y1="2116" x2="690" y2="2116" stroke-width="0" marker-start="url(#my-svg-sequencenumber)"/><text x="690" y="2120" font-family="sans-serif" font-size="12px" text-anchor="middle" class="sequenceNumber">21</text><text x="486" y="2176" text-anchor="middle" dominant-baseline="middle" alignment-baseline="middle" class="messageText" dy="1em" style="font-size: 16px; font-weight: 400;">issue + fix hint</text><line x1="695" y1="2205" x2="282" y2="2205" class="messageLine1" data-et="message" data-id="i41" data-from="V" data-to="P" stroke-width="2" stroke="none" marker-end="url(#my-svg-arrowhead)" style="stroke-dasharray: 3, 3; fill: none;"/><line x1="690" y1="2205" x2="690" y2="2205" stroke-width="0" marker-start="url(#my-svg-sequencenumber)"/><text x="690" y="2209" font-family="sans-serif" font-size="12px" text-anchor="middle" class="sequenceNumber">22</text><text x="279" y="2240" text-anchor="middle" dominant-baseline="middle" alignment-baseline="middle" class="messageText" dy="1em" style="font-size: 16px; font-weight: 400;">report summary (canonical + noindex)</text><path d="M 279,2269 C 339,2259 339,2299 279,2289" class="messageLine0" data-et="message" data-id="i44" data-from="P" data-to="P" stroke-width="2" stroke="none" marker-end="url(#my-svg-arrowhead)" x1="285" style="fill: none;"/><line x1="278" y1="2269" x2="278" y2="2269" stroke-width="0" marker-start="url(#my-svg-sequencenumber)"/><text x="278" y="2273" font-family="sans-serif" font-size="12px" text-anchor="middle" class="sequenceNumber">23</text><text x="178" y="2373" text-anchor="middle" dominant-baseline="middle" alignment-baseline="middle" class="messageText" dy="1em" style="font-size: 16px; font-weight: 400;">throw — fail build</text><line x1="283" y1="2402" x2="79" y2="2402" class="messageLine1" data-et="message" data-id="i46" data-from="P" data-to="D" stroke-width="2" stroke="none" marker-end="url(#my-svg-arrowhead)" style="stroke-dasharray: 3, 3; fill: none;"/><line x1="278" y1="2402" x2="278" y2="2402" stroke-width="0" marker-start="url(#my-svg-sequencenumber)"/><text x="278" y="2406" font-family="sans-serif" font-size="12px" text-anchor="middle" class="sequenceNumber">24</text><text x="178" y="2442" text-anchor="middle" dominant-baseline="middle" alignment-baseline="middle" class="messageText" dy="1em" style="font-size: 16px; font-weight: 400;">done</text><line x1="283" y1="2471" x2="79" y2="2471" class="messageLine1" data-et="message" data-id="i48" data-from="P" data-to="D" stroke-width="2" stroke="none" marker-end="url(#my-svg-arrowhead)" style="stroke-dasharray: 3, 3; fill: none;"/><line x1="278" y1="2471" x2="278" y2="2471" stroke-width="0" marker-start="url(#my-svg-sequencenumber)"/><text x="278" y="2475" font-family="sans-serif" font-size="12px" text-anchor="middle" class="sequenceNumber">25</text></svg>